#VRML V2.0 utf8

Shape {
  appearance Appearance {
    material Material {
      diffuseColor 0.2510 0.2510 0.2510
      specularColor 0.1255 0.1255 0.1255
      ambientIntensity 0.2
      transparency 0.0000
      shininess 0.5
    }
  }
  geometry IndexedFaceSet {
    ccw TRUE
    solid FALSE
    coord DEF co Coordinate {
      point [
        0.944882 0.551181 0.275591,
        0.944882 -0.551181 0.275591,
        0.944882 0.551181 0.000000,
        0.944882 -0.551181 0.000000,
        -0.944882 0.551181 0.275591,
        -0.944882 0.551181 0.000000,
        -0.944882 -0.551181 0.275591,
        -0.944882 -0.551181 0.000000,
        -0.849667 -0.428876 0.275591,
        -0.854160 -0.418029 0.275591,
        0.807087 0.000000 0.275591,
        -0.767279 -0.394750 0.275591,
        -0.765746 -0.406389 0.275591,
        -0.547282 -0.029528 0.275591,
        -0.541382 -0.015285 0.275591,
        0.803733 -0.025474 0.275591,
        0.793900 -0.049213 0.275591,
        0.778259 -0.069597 0.275591,
        -0.767279 -0.418029 0.275591,
        -0.771772 -0.428876 0.275591,
        -0.778919 -0.438190 0.275591,
        -0.788233 -0.445337 0.275591,
        -0.799080 -0.449830 0.275591,
        -0.810719 -0.451362 0.275591,
        -0.822359 -0.449830 0.275591,
        -0.842520 -0.374589 0.275591,
        -0.833206 -0.367442 0.275591,
        -0.833206 -0.445337 0.275591,
        -0.842520 -0.438190 0.275591,
        -0.855693 -0.406389 0.275591,
        -0.854160 -0.394750 0.275591,
        -0.849667 -0.383903 0.275591,
        -0.541382 0.015285 0.275591,
        -0.547282 0.029528 0.275591,
        -0.556667 0.041758 0.275591,
        0.613590 0.025474 0.275591,
        0.610236 0.000000 0.275591,
        -0.539370 0.000000 0.275591,
        0.613590 -0.025474 0.275591,
        0.623423 -0.049213 0.275591,
        0.757874 -0.085239 0.275591,
        0.734136 -0.095071 0.275591,
        0.708661 -0.098425 0.275591,
        0.683187 0.095071 0.275591,
        0.708661 0.098425 0.275591,
        0.734136 0.095071 0.275591,
        0.757874 0.085239 0.275591,
        0.778259 0.069597 0.275591,
        0.793900 0.049213 0.275591,
        0.803733 0.025474 0.275591,
        0.683187 -0.095071 0.275591,
        0.659449 -0.085239 0.275591,
        0.639064 -0.069597 0.275591,
        -0.613710 0.057043 0.275591,
        -0.627953 0.051143 0.275591,
        -0.640183 0.041758 0.275591,
        -0.822359 -0.362949 0.275591,
        -0.810719 -0.361417 0.275591,
        -0.799080 -0.362949 0.275591,
        -0.556667 -0.041758 0.275591,
        -0.568898 -0.051143 0.275591,
        -0.583141 -0.057043 0.275591,
        -0.598425 -0.059055 0.275591,
        -0.613710 -0.057043 0.275591,
        -0.771772 -0.383903 0.275591,
        -0.778919 -0.374589 0.275591,
        -0.627953 -0.051143 0.275591,
        -0.640183 -0.041758 0.275591,
        -0.649569 -0.029528 0.275591,
        -0.655468 -0.015285 0.275591,
        0.623423 0.049213 0.275591,
        0.639064 0.069597 0.275591,
        0.659449 0.085239 0.275591,
        -0.657480 0.000000 0.275591,
        -0.655468 0.015285 0.275591,
        -0.649569 0.029528 0.275591,
        -0.598425 0.059055 0.275591,
        -0.583141 0.057043 0.275591,
        -0.568898 0.051143 0.275591,
        -0.788233 -0.367442 0.275591,
        -0.539370 -0.000000 0.157480,
        -0.541382 0.015285 0.157480,
        -0.547282 0.029528 0.157480,
        -0.556667 0.041758 0.157480,
        -0.568898 0.051143 0.157480,
        -0.583141 0.057043 0.157480,
        -0.598425 0.059055 0.157480,
        -0.613710 0.057043 0.157480,
        -0.627953 0.051143 0.157480,
        -0.640183 0.041758 0.157480,
        -0.649569 0.029528 0.157480,
        -0.655468 0.015285 0.157480,
        -0.657480 0.000000 0.157480,
        -0.655468 -0.015285 0.157480,
        -0.649569 -0.029528 0.157480,
        -0.640183 -0.041758 0.157480,
        -0.627953 -0.051143 0.157480,
        -0.613710 -0.057043 0.157480,
        -0.598425 -0.059055 0.157480,
        -0.583141 -0.057043 0.157480,
        -0.568898 -0.051143 0.157480,
        -0.556667 -0.041758 0.157480,
        -0.547282 -0.029528 0.157480,
        -0.541382 -0.015285 0.157480,
        -0.598425 0.000000 0.157480,
        0.807087 -0.000000 0.157480,
        0.803733 0.025474 0.157480,
        0.793900 0.049213 0.157480,
        0.778259 0.069597 0.157480,
        0.757874 0.085239 0.157480,
        0.734136 0.095071 0.157480,
        0.708661 0.098425 0.157480,
        0.683187 0.095071 0.157480,
        0.659449 0.085239 0.157480,
        0.639064 0.069597 0.157480,
        0.623423 0.049213 0.157480,
        0.613590 0.025474 0.157480,
        0.610236 0.000000 0.157480,
        0.613590 -0.025474 0.157480,
        0.623423 -0.049213 0.157480,
        0.639064 -0.069597 0.157480,
        0.659449 -0.085239 0.157480,
        0.683187 -0.095071 0.157480,
        0.708661 -0.098425 0.157480,
        0.734136 -0.095071 0.157480,
        0.757874 -0.085239 0.157480,
        0.778259 -0.069597 0.157480,
        0.793900 -0.049213 0.157480,
        0.803733 -0.025474 0.157480,
        0.708661 0.000000 0.157480,
      ]
    }
    coordIndex [
      0, 1, 2, -1,
      2, 1, 3, -1,
      4, 0, 5, -1,
      5, 0, 2, -1,
      6, 4, 7, -1,
      7, 4, 5, -1,
      1, 6, 3, -1,
      3, 6, 7, -1,
      8, 9, 6, -1,
      1, 0, 10, -1,
      11, 12, 13, -1,
      13, 12, 1, -1,
      13, 1, 14, -1,
      10, 15, 1, -1,
      1, 15, 16, -1,
      1, 16, 17, -1,
      12, 18, 1, -1,
      1, 18, 19, -1,
      1, 19, 20, -1,
      20, 21, 1, -1,
      1, 21, 22, -1,
      1, 22, 6, -1,
      6, 22, 23, -1,
      6, 23, 24, -1,
      25, 26, 4, -1,
      24, 27, 6, -1,
      6, 27, 28, -1,
      6, 28, 8, -1,
      9, 29, 6, -1,
      6, 29, 30, -1,
      6, 30, 4, -1,
      4, 30, 31, -1,
      4, 31, 25, -1,
      32, 0, 33, -1,
      33, 0, 34, -1,
      35, 32, 36, -1,
      36, 32, 37, -1,
      36, 37, 38, -1,
      38, 37, 14, -1,
      38, 14, 39, -1,
      17, 40, 1, -1,
      1, 40, 41, -1,
      1, 41, 42, -1,
      0, 43, 44, -1,
      44, 45, 0, -1,
      0, 45, 46, -1,
      0, 46, 47, -1,
      47, 48, 0, -1,
      0, 48, 49, -1,
      0, 49, 10, -1,
      42, 50, 1, -1,
      1, 50, 51, -1,
      1, 51, 14, -1,
      14, 51, 52, -1,
      14, 52, 39, -1,
      53, 4, 54, -1,
      54, 4, 55, -1,
      26, 56, 4, -1,
      4, 56, 57, -1,
      4, 57, 58, -1,
      13, 59, 11, -1,
      11, 59, 60, -1,
      11, 60, 61, -1,
      61, 62, 11, -1,
      11, 62, 63, -1,
      11, 63, 64, -1,
      64, 63, 65, -1,
      66, 67, 58, -1,
      58, 67, 68, -1,
      58, 68, 69, -1,
      35, 70, 32, -1,
      32, 70, 71, -1,
      32, 71, 0, -1,
      0, 71, 72, -1,
      0, 72, 43, -1,
      69, 73, 58, -1,
      58, 73, 74, -1,
      58, 74, 4, -1,
      4, 74, 75, -1,
      4, 75, 55, -1,
      53, 76, 4, -1,
      4, 76, 77, -1,
      4, 77, 0, -1,
      0, 77, 78, -1,
      0, 78, 34, -1,
      66, 58, 63, -1,
      63, 58, 79, -1,
      63, 79, 65, -1,
      7, 5, 3, -1,
      3, 5, 2, -1,
      80, 37, 81, -1,
      81, 37, 32, -1,
      81, 32, 82, -1,
      82, 32, 33, -1,
      82, 33, 83, -1,
      83, 33, 34, -1,
      83, 34, 84, -1,
      84, 34, 78, -1,
      84, 78, 85, -1,
      85, 78, 77, -1,
      85, 77, 86, -1,
      86, 77, 76, -1,
      86, 76, 87, -1,
      87, 76, 53, -1,
      87, 53, 88, -1,
      88, 53, 54, -1,
      88, 54, 89, -1,
      89, 54, 55, -1,
      89, 55, 90, -1,
      90, 55, 75, -1,
      90, 75, 91, -1,
      91, 75, 74, -1,
      91, 74, 92, -1,
      92, 74, 73, -1,
      92, 73, 93, -1,
      93, 73, 69, -1,
      93, 69, 94, -1,
      94, 69, 68, -1,
      94, 68, 95, -1,
      95, 68, 67, -1,
      95, 67, 96, -1,
      96, 67, 66, -1,
      96, 66, 97, -1,
      97, 66, 63, -1,
      97, 63, 98, -1,
      98, 63, 62, -1,
      98, 62, 99, -1,
      99, 62, 61, -1,
      99, 61, 100, -1,
      100, 61, 60, -1,
      100, 60, 101, -1,
      101, 60, 59, -1,
      101, 59, 102, -1,
      102, 59, 13, -1,
      102, 13, 103, -1,
      103, 13, 14, -1,
      103, 14, 80, -1,
      80, 14, 37, -1,
      102, 103, 104, -1,
      104, 103, 80, -1,
      104, 80, 81, -1,
      99, 100, 104, -1,
      104, 100, 101, -1,
      104, 101, 102, -1,
      96, 97, 104, -1,
      104, 97, 98, -1,
      104, 98, 99, -1,
      93, 94, 104, -1,
      104, 94, 95, -1,
      104, 95, 96, -1,
      90, 91, 104, -1,
      104, 91, 92, -1,
      104, 92, 93, -1,
      87, 88, 104, -1,
      104, 88, 89, -1,
      104, 89, 90, -1,
      84, 85, 104, -1,
      104, 85, 86, -1,
      104, 86, 87, -1,
      81, 82, 104, -1,
      104, 82, 83, -1,
      104, 83, 84, -1,
      105, 10, 106, -1,
      106, 10, 49, -1,
      106, 49, 107, -1,
      107, 49, 48, -1,
      107, 48, 108, -1,
      108, 48, 47, -1,
      108, 47, 109, -1,
      109, 47, 46, -1,
      109, 46, 110, -1,
      110, 46, 45, -1,
      110, 45, 111, -1,
      111, 45, 44, -1,
      111, 44, 112, -1,
      112, 44, 43, -1,
      112, 43, 113, -1,
      113, 43, 72, -1,
      113, 72, 114, -1,
      114, 72, 71, -1,
      114, 71, 115, -1,
      115, 71, 70, -1,
      115, 70, 116, -1,
      116, 70, 35, -1,
      116, 35, 117, -1,
      117, 35, 36, -1,
      117, 36, 118, -1,
      118, 36, 38, -1,
      118, 38, 119, -1,
      119, 38, 39, -1,
      119, 39, 120, -1,
      120, 39, 52, -1,
      120, 52, 121, -1,
      121, 52, 51, -1,
      121, 51, 122, -1,
      122, 51, 50, -1,
      122, 50, 123, -1,
      123, 50, 42, -1,
      123, 42, 124, -1,
      124, 42, 41, -1,
      124, 41, 125, -1,
      125, 41, 40, -1,
      125, 40, 126, -1,
      126, 40, 17, -1,
      126, 17, 127, -1,
      127, 17, 16, -1,
      127, 16, 128, -1,
      128, 16, 15, -1,
      128, 15, 105, -1,
      105, 15, 10, -1,
      127, 128, 129, -1,
      129, 128, 105, -1,
      129, 105, 106, -1,
      124, 125, 129, -1,
      129, 125, 126, -1,
      129, 126, 127, -1,
      121, 122, 129, -1,
      129, 122, 123, -1,
      129, 123, 124, -1,
      118, 119, 129, -1,
      129, 119, 120, -1,
      129, 120, 121, -1,
      115, 116, 129, -1,
      129, 116, 117, -1,
      129, 117, 118, -1,
      112, 113, 129, -1,
      129, 113, 114, -1,
      129, 114, 115, -1,
      109, 110, 129, -1,
      129, 110, 111, -1,
      129, 111, 112, -1,
      106, 107, 129, -1,
      129, 107, 108, -1,
      129, 108, 109, -1,
    ]
  }
}

Shape {
  appearance Appearance {
    material Material {
      diffuseColor 0.5020 0.5020 0.5020
      specularColor 0.2510 0.2510 0.2510
      ambientIntensity 0.2
      transparency 0.0000
      shininess 0.5
    }
  }
  geometry IndexedFaceSet {
    ccw TRUE
    solid FALSE
    coord DEF co Coordinate {
      point [
        -0.849667 -0.428876 0.275591,
        -0.854160 -0.418029 0.275591,
        -0.767279 -0.394750 0.275591,
        -0.765746 -0.406389 0.275591,
        -0.767279 -0.418029 0.275591,
        -0.771772 -0.428876 0.275591,
        -0.778919 -0.438190 0.275591,
        -0.788233 -0.445337 0.275591,
        -0.799080 -0.449830 0.275591,
        -0.810719 -0.451362 0.275591,
        -0.822359 -0.449830 0.275591,
        -0.842520 -0.374589 0.275591,
        -0.833206 -0.367442 0.275591,
        -0.833206 -0.445337 0.275591,
        -0.842520 -0.438190 0.275591,
        -0.855693 -0.406389 0.275591,
        -0.854160 -0.394750 0.275591,
        -0.849667 -0.383903 0.275591,
        -0.822359 -0.362949 0.275591,
        -0.810719 -0.361417 0.275591,
        -0.799080 -0.362949 0.275591,
        -0.771772 -0.383903 0.275591,
        -0.778919 -0.374589 0.275591,
        -0.788233 -0.367442 0.275591,
        -0.765746 -0.406389 0.275197,
        -0.767279 -0.394750 0.275197,
        -0.771772 -0.383903 0.275197,
        -0.778919 -0.374589 0.275197,
        -0.788233 -0.367442 0.275197,
        -0.799080 -0.362949 0.275197,
        -0.810719 -0.361417 0.275197,
        -0.822359 -0.362949 0.275197,
        -0.833206 -0.367442 0.275197,
        -0.842520 -0.374589 0.275197,
        -0.849667 -0.383903 0.275197,
        -0.854160 -0.394750 0.275197,
        -0.855693 -0.406389 0.275197,
        -0.854160 -0.418029 0.275197,
        -0.849667 -0.428876 0.275197,
        -0.842520 -0.438190 0.275197,
        -0.833206 -0.445337 0.275197,
        -0.822359 -0.449830 0.275197,
        -0.810719 -0.451362 0.275197,
        -0.799080 -0.449830 0.275197,
        -0.788233 -0.445337 0.275197,
        -0.778919 -0.438190 0.275197,
        -0.771772 -0.428876 0.275197,
        -0.767279 -0.418029 0.275197,
        -0.810719 -0.406389 0.275197,
      ]
    }
    coordIndex [
      24, 3, 25, -1,
      25, 3, 2, -1,
      25, 2, 26, -1,
      26, 2, 21, -1,
      26, 21, 27, -1,
      27, 21, 22, -1,
      27, 22, 28, -1,
      28, 22, 23, -1,
      28, 23, 29, -1,
      29, 23, 20, -1,
      29, 20, 30, -1,
      30, 20, 19, -1,
      30, 19, 31, -1,
      31, 19, 18, -1,
      31, 18, 32, -1,
      32, 18, 12, -1,
      32, 12, 33, -1,
      33, 12, 11, -1,
      33, 11, 34, -1,
      34, 11, 17, -1,
      34, 17, 35, -1,
      35, 17, 16, -1,
      35, 16, 36, -1,
      36, 16, 15, -1,
      36, 15, 37, -1,
      37, 15, 1, -1,
      37, 1, 38, -1,
      38, 1, 0, -1,
      38, 0, 39, -1,
      39, 0, 14, -1,
      39, 14, 40, -1,
      40, 14, 13, -1,
      40, 13, 41, -1,
      41, 13, 10, -1,
      41, 10, 42, -1,
      42, 10, 9, -1,
      42, 9, 43, -1,
      43, 9, 8, -1,
      43, 8, 44, -1,
      44, 8, 7, -1,
      44, 7, 45, -1,
      45, 7, 6, -1,
      45, 6, 46, -1,
      46, 6, 5, -1,
      46, 5, 47, -1,
      47, 5, 4, -1,
      47, 4, 24, -1,
      24, 4, 3, -1,
      46, 47, 48, -1,
      48, 47, 24, -1,
      48, 24, 25, -1,
      43, 44, 48, -1,
      48, 44, 45, -1,
      48, 45, 46, -1,
      40, 41, 48, -1,
      48, 41, 42, -1,
      48, 42, 43, -1,
      37, 38, 48, -1,
      48, 38, 39, -1,
      48, 39, 40, -1,
      34, 35, 48, -1,
      48, 35, 36, -1,
      48, 36, 37, -1,
      31, 32, 48, -1,
      48, 32, 33, -1,
      48, 33, 34, -1,
      28, 29, 48, -1,
      48, 29, 30, -1,
      48, 30, 31, -1,
      25, 26, 48, -1,
      48, 26, 27, -1,
      48, 27, 28, -1,
    ]
  }
}

Shape {
  appearance Appearance {
    material Material {
      diffuseColor 0.0000 0.5020 0.0000
      specularColor 0.0000 0.2510 0.0000
      ambientIntensity 0.2
      transparency 0.0000
      shininess 0.5
    }
  }
  geometry IndexedFaceSet {
    ccw TRUE
    solid FALSE
    coord DEF co Coordinate {
      point [
        0.944882 0.551181 0.000000,
        -0.944882 0.551181 0.000000,
        -0.334646 0.531496 -0.118110,
        -0.423228 0.531496 -0.118110,
        -0.423228 0.551181 -0.118110,
        -0.127953 0.531496 -0.118110,
        -0.127953 0.551181 -0.118110,
        -0.116654 0.551181 -0.118110,
        0.255906 0.531496 -0.118110,
        0.167323 0.531496 -0.118110,
        0.167323 0.551181 -0.118110,
        0.334646 -0.531496 -0.118110,
        0.423228 -0.531496 -0.118110,
        0.423228 -0.551181 -0.118110,
        -0.255906 -0.531496 -0.118110,
        -0.167323 -0.531496 -0.118110,
        -0.167323 -0.551181 -0.118110,
        0.022582 -0.020647 -0.118110,
        0.022582 -0.029289 -0.118110,
        0.014900 -0.033850 -0.118110,
        0.030975 -0.032735 -0.118110,
        0.038932 -0.033850 -0.118110,
        0.031685 0.045680 -0.118110,
        0.022582 0.043209 -0.118110,
        0.014900 0.045850 -0.118110,
        0.022582 0.032646 -0.118110,
        0.031451 0.036444 -0.118110,
        0.023993 -0.021429 -0.118110,
        0.041022 0.037688 -0.118110,
        0.048775 0.036817 -0.118110,
        0.054669 0.034690 -0.118110,
        0.060119 0.031044 -0.118110,
        0.064874 0.025795 -0.118110,
        0.070594 0.005159 -0.118110,
        0.069797 -0.003365 -0.118110,
        0.067658 -0.010137 -0.118110,
        0.050136 -0.024865 -0.118110,
        0.042792 -0.025688 -0.118110,
        0.055874 -0.022752 -0.118110,
        0.060706 -0.019495 -0.118110,
        0.064401 -0.015597 -0.118110,
        0.032340 -0.024528 -0.118110,
        0.068120 0.019715 -0.118110,
        0.070219 0.011286 -0.118110,
        0.084518 0.531496 -0.118110,
        0.039370 0.531496 -0.118110,
        0.014900 0.551181 -0.118110,
        0.039370 0.295276 -0.118110,
        0.034154 0.045850 -0.118110,
        0.067917 -0.026653 -0.118110,
        0.073831 -0.020426 -0.118110,
        0.084518 -0.033850 -0.118110,
        0.084518 0.045850 -0.118110,
        0.072386 0.031993 -0.118110,
        0.065278 0.038829 -0.118110,
        0.048878 -0.033850 -0.118110,
        0.053951 -0.033324 -0.118110,
        0.061583 -0.030698 -0.118110,
        0.081157 0.004514 -0.118110,
        0.080024 0.015709 -0.118110,
        0.077001 0.024631 -0.118110,
        0.057798 0.043134 -0.118110,
        0.049020 0.045684 -0.118110,
        0.046993 0.045850 -0.118110,
        0.078026 -0.012939 -0.118110,
        0.080396 -0.004605 -0.118110,
        0.042094 -0.034294 -0.118110,
        0.014900 -0.106043 -0.118110,
        0.084518 -0.106043 -0.118110,
        0.044248 -0.034331 -0.118110,
        -0.944882 -0.551181 -0.118110,
        -0.944882 -0.106043 -0.118110,
        -0.846457 -0.242272 -0.118110,
        -0.846457 -0.177756 -0.118110,
        -0.718504 -0.551181 -0.118110,
        -0.718504 -0.531496 -0.118110,
        -0.629921 -0.531496 -0.118110,
        -0.490548 -0.551181 -0.118110,
        -0.551181 -0.531496 -0.118110,
        -0.551181 -0.295276 -0.118110,
        -0.629921 -0.295276 -0.118110,
        -0.757874 -0.531496 -0.118110,
        -0.757874 -0.551181 -0.118110,
        -0.846457 -0.531496 -0.118110,
        -0.846457 -0.295276 -0.118110,
        -0.790502 -0.242272 -0.118110,
        -0.490548 -0.531496 -0.118110,
        -0.462598 -0.531496 -0.118110,
        -0.462598 -0.551181 -0.118110,
        -0.116654 -0.295276 -0.118110,
        -0.255906 -0.295276 -0.118110,
        -0.490548 -0.106043 -0.118110,
        -0.423228 -0.551181 -0.118110,
        -0.423228 -0.531496 -0.118110,
        -0.334646 -0.531496 -0.118110,
        -0.490548 -0.295276 -0.118110,
        -0.334646 -0.295276 -0.118110,
        -0.116654 -0.106043 -0.118110,
        -0.042715 -0.106043 -0.118110,
        -0.042715 -0.295276 -0.118110,
        -0.042715 -0.531496 -0.118110,
        -0.039370 -0.531496 -0.118110,
        0.014900 -0.551181 -0.118110,
        -0.039370 -0.295276 -0.118110,
        -0.042715 -0.551181 -0.118110,
        -0.116654 -0.551181 -0.118110,
        -0.116654 -0.531496 -0.118110,
        -0.127953 -0.551181 -0.118110,
        -0.127953 -0.531496 -0.118110,
        0.127953 -0.531496 -0.118110,
        0.127953 -0.551181 -0.118110,
        0.084518 -0.551181 -0.118110,
        0.536545 -0.295276 -0.118110,
        0.334646 -0.295276 -0.118110,
        0.167323 -0.551181 -0.118110,
        0.167323 -0.531496 -0.118110,
        0.255906 -0.531496 -0.118110,
        0.255906 -0.295276 -0.118110,
        0.084518 -0.295276 -0.118110,
        0.039370 -0.295276 -0.118110,
        0.039370 -0.531496 -0.118110,
        0.084518 -0.531496 -0.118110,
        0.944882 -0.106043 -0.118110,
        0.944882 -0.551181 -0.118110,
        0.846457 -0.531496 -0.118110,
        0.757874 -0.551181 -0.118110,
        0.757874 -0.531496 -0.118110,
        0.718504 -0.531496 -0.118110,
        0.718504 -0.551181 -0.118110,
        0.629921 -0.531496 -0.118110,
        0.536545 -0.551181 -0.118110,
        0.551181 -0.531496 -0.118110,
        0.551181 -0.295276 -0.118110,
        0.629921 -0.295276 -0.118110,
        0.536545 -0.106043 -0.118110,
        0.846457 -0.295276 -0.118110,
        0.536545 -0.531496 -0.118110,
        0.462598 -0.551181 -0.118110,
        0.462598 -0.531496 -0.118110,
        0.718504 0.551181 -0.118110,
        0.718504 0.531496 -0.118110,
        0.629921 0.531496 -0.118110,
        0.757874 0.531496 -0.118110,
        0.757874 0.551181 -0.118110,
        0.846457 0.531496 -0.118110,
        0.944882 0.551181 -0.118110,
        0.846457 0.295276 -0.118110,
        0.944882 0.045850 -0.118110,
        0.629921 0.295276 -0.118110,
        0.551181 0.531496 -0.118110,
        0.536545 0.531496 -0.118110,
        0.536545 0.551181 -0.118110,
        0.462598 0.531496 -0.118110,
        0.462598 0.551181 -0.118110,
        0.423228 0.551181 -0.118110,
        0.423228 0.531496 -0.118110,
        0.334646 0.531496 -0.118110,
        0.255906 0.295276 -0.118110,
        0.334646 0.295276 -0.118110,
        0.536545 0.045850 -0.118110,
        0.536545 0.295276 -0.118110,
        0.551181 0.295276 -0.118110,
        0.084518 0.295276 -0.118110,
        0.041112 0.046330 -0.118110,
        0.084518 0.551181 -0.118110,
        0.127953 0.551181 -0.118110,
        0.127953 0.531496 -0.118110,
        -0.116654 0.531496 -0.118110,
        -0.042715 0.551181 -0.118110,
        -0.042715 0.531496 -0.118110,
        -0.039370 0.531496 -0.118110,
        -0.039370 0.295276 -0.118110,
        -0.042715 0.295276 -0.118110,
        -0.167323 0.551181 -0.118110,
        -0.167323 0.531496 -0.118110,
        -0.255906 0.531496 -0.118110,
        -0.490548 0.045850 -0.118110,
        -0.490548 0.295276 -0.118110,
        -0.334646 0.295276 -0.118110,
        -0.846457 0.295276 -0.118110,
        -0.629921 0.295276 -0.118110,
        -0.944882 0.045850 -0.118110,
        -0.944882 0.551181 -0.118110,
        -0.846457 0.531496 -0.118110,
        -0.757874 0.551181 -0.118110,
        -0.757874 0.531496 -0.118110,
        -0.718504 0.531496 -0.118110,
        -0.718504 0.551181 -0.118110,
        -0.629921 0.531496 -0.118110,
        -0.490548 0.551181 -0.118110,
        -0.551181 0.295276 -0.118110,
        -0.551181 0.531496 -0.118110,
        -0.490548 0.531496 -0.118110,
        -0.462598 0.551181 -0.118110,
        -0.462598 0.531496 -0.118110,
        -0.944882 -0.033850 -0.118110,
        -0.490548 -0.033850 -0.118110,
        -0.179070 -0.033370 -0.118110,
        -0.171103 -0.011285 -0.118110,
        -0.138574 -0.011285 -0.118110,
        -0.149302 0.045370 -0.118110,
        -0.116654 0.045850 -0.118110,
        -0.119535 -0.033370 -0.118110,
        -0.116654 -0.033850 -0.118110,
        -0.131057 -0.033370 -0.118110,
        -0.190593 -0.033370 -0.118110,
        -0.159865 0.045370 -0.118110,
        -0.255906 0.295276 -0.118110,
        -0.109841 -0.011789 -0.118110,
        -0.105326 -0.018832 -0.118110,
        -0.098844 -0.025038 -0.118110,
        -0.090623 -0.029816 -0.118110,
        -0.072617 0.045370 -0.118110,
        -0.042715 0.045850 -0.118110,
        -0.083993 0.044154 -0.118110,
        -0.093206 0.040919 -0.118110,
        -0.101776 0.035175 -0.118110,
        -0.101859 0.035103 -0.118110,
        -0.107427 0.028929 -0.118110,
        -0.111086 0.022157 -0.118110,
        -0.081550 -0.032520 -0.118110,
        -0.071807 -0.033370 -0.118110,
        -0.042715 -0.033850 -0.118110,
        -0.050397 -0.033370 -0.118110,
        -0.050397 0.045370 -0.118110,
        -0.113201 0.014399 -0.118110,
        -0.113773 0.006990 -0.118110,
        -0.112668 -0.003548 -0.118110,
        0.007218 -0.033370 -0.118110,
        0.007218 0.045370 -0.118110,
        -0.116654 0.295276 -0.118110,
        -0.033112 0.045370 -0.118110,
        -0.033112 0.036728 -0.118110,
        -0.035033 -0.024728 -0.118110,
        -0.035033 -0.033370 -0.118110,
        -0.003345 0.002159 -0.118110,
        -0.003345 -0.024728 -0.118110,
        -0.031192 0.002159 -0.118110,
        -0.031192 0.010801 -0.118110,
        -0.003345 0.010801 -0.118110,
        -0.003345 0.036728 -0.118110,
        0.087879 -0.024728 -0.118110,
        0.087879 -0.033370 -0.118110,
        0.117646 -0.024728 -0.118110,
        0.117646 0.045370 -0.118110,
        0.128209 0.045370 -0.118110,
        0.128209 -0.033370 -0.118110,
        0.536545 -0.033850 -0.118110,
        0.944882 -0.033850 -0.118110,
        0.757874 0.551181 -0.078740,
        0.718504 0.551181 -0.078740,
        0.423228 0.551181 -0.078740,
        0.167323 0.551181 -0.078740,
        0.127953 0.551181 -0.078740,
        0.462598 0.551181 -0.078740,
        -0.167323 0.551181 -0.078740,
        -0.423228 0.551181 -0.078740,
        -0.462598 0.551181 -0.078740,
        -0.127953 0.551181 -0.078740,
        -0.757874 0.551181 -0.078740,
        -0.718504 0.551181 -0.078740,
      ]
    }
    coordIndex [
      2, 3, 4, -1,
      5, 6, 7, -1,
      8, 9, 10, -1,
      11, 12, 13, -1,
      14, 15, 16, -1,
      17, 18, 19, -1,
      19, 18, 20, -1,
      19, 20, 21, -1,
      22, 23, 24, -1,
      24, 23, 25, -1,
      24, 25, 17, -1,
      17, 25, 26, -1,
      17, 26, 27, -1,
      27, 26, 28, -1,
      27, 28, 29, -1,
      29, 30, 27, -1,
      27, 30, 31, -1,
      27, 31, 32, -1,
      33, 34, 27, -1,
      27, 34, 35, -1,
      36, 37, 38, -1,
      38, 37, 39, -1,
      35, 40, 27, -1,
      27, 40, 39, -1,
      27, 39, 41, -1,
      41, 39, 37, -1,
      32, 42, 27, -1,
      27, 42, 43, -1,
      27, 43, 33, -1,
      44, 45, 46, -1,
      46, 45, 47, -1,
      46, 47, 24, -1,
      24, 47, 48, -1,
      24, 48, 22, -1,
      49, 50, 51, -1,
      52, 53, 54, -1,
      55, 56, 51, -1,
      51, 56, 57, -1,
      51, 57, 49, -1,
      58, 59, 52, -1,
      52, 59, 60, -1,
      52, 60, 53, -1,
      54, 61, 52, -1,
      52, 61, 62, -1,
      52, 62, 63, -1,
      50, 64, 51, -1,
      51, 64, 65, -1,
      51, 65, 58, -1,
      21, 66, 67, -1,
      51, 68, 55, -1,
      55, 68, 67, -1,
      55, 67, 69, -1,
      69, 67, 66, -1,
      70, 71, 72, -1,
      72, 71, 73, -1,
      74, 75, 76, -1,
      77, 74, 78, -1,
      78, 74, 76, -1,
      78, 76, 79, -1,
      79, 76, 80, -1,
      81, 82, 83, -1,
      83, 82, 70, -1,
      83, 70, 84, -1,
      84, 70, 72, -1,
      84, 72, 80, -1,
      80, 72, 85, -1,
      80, 85, 79, -1,
      78, 86, 77, -1,
      77, 86, 87, -1,
      77, 87, 88, -1,
      89, 90, 91, -1,
      92, 93, 94, -1,
      85, 73, 79, -1,
      79, 73, 71, -1,
      79, 71, 95, -1,
      95, 71, 91, -1,
      95, 91, 96, -1,
      96, 91, 90, -1,
      96, 90, 94, -1,
      94, 90, 14, -1,
      94, 14, 92, -1,
      92, 14, 16, -1,
      91, 97, 89, -1,
      89, 97, 98, -1,
      89, 98, 99, -1,
      100, 101, 102, -1,
      102, 101, 103, -1,
      99, 98, 103, -1,
      103, 98, 67, -1,
      103, 67, 102, -1,
      102, 104, 100, -1,
      100, 104, 105, -1,
      100, 105, 106, -1,
      106, 105, 107, -1,
      106, 107, 108, -1,
      109, 110, 111, -1,
      112, 113, 68, -1,
      114, 115, 116, -1,
      13, 114, 11, -1,
      11, 114, 116, -1,
      11, 116, 113, -1,
      113, 116, 117, -1,
      113, 117, 68, -1,
      68, 117, 118, -1,
      68, 118, 67, -1,
      67, 118, 119, -1,
      67, 119, 102, -1,
      102, 119, 120, -1,
      102, 120, 111, -1,
      111, 120, 121, -1,
      111, 121, 109, -1,
      122, 123, 124, -1,
      124, 123, 125, -1,
      124, 125, 126, -1,
      127, 128, 129, -1,
      129, 128, 130, -1,
      131, 132, 133, -1,
      133, 132, 134, -1,
      133, 134, 135, -1,
      133, 129, 131, -1,
      131, 129, 130, -1,
      131, 130, 136, -1,
      136, 130, 137, -1,
      136, 137, 138, -1,
      139, 140, 141, -1,
      142, 143, 144, -1,
      144, 143, 145, -1,
      144, 145, 146, -1,
      146, 145, 147, -1,
      146, 147, 148, -1,
      149, 150, 151, -1,
      151, 150, 152, -1,
      151, 152, 153, -1,
      154, 155, 156, -1,
      10, 154, 8, -1,
      8, 154, 156, -1,
      8, 156, 157, -1,
      52, 158, 159, -1,
      159, 158, 160, -1,
      159, 160, 161, -1,
      156, 158, 157, -1,
      157, 158, 52, -1,
      157, 52, 162, -1,
      162, 52, 63, -1,
      162, 63, 47, -1,
      47, 63, 163, -1,
      47, 163, 48, -1,
      46, 164, 44, -1,
      44, 164, 165, -1,
      44, 165, 166, -1,
      5, 7, 167, -1,
      167, 7, 168, -1,
      167, 168, 169, -1,
      169, 168, 170, -1,
      170, 168, 46, -1,
      170, 46, 171, -1,
      171, 46, 24, -1,
      171, 24, 172, -1,
      173, 174, 175, -1,
      176, 177, 178, -1,
      179, 180, 176, -1,
      181, 182, 183, -1,
      183, 182, 184, -1,
      183, 184, 185, -1,
      186, 187, 188, -1,
      188, 187, 189, -1,
      177, 176, 190, -1,
      190, 176, 180, -1,
      190, 180, 191, -1,
      180, 188, 191, -1,
      191, 188, 189, -1,
      191, 189, 192, -1,
      192, 189, 193, -1,
      192, 193, 194, -1,
      183, 179, 181, -1,
      181, 179, 176, -1,
      181, 176, 195, -1,
      195, 176, 196, -1,
      197, 198, 199, -1,
      200, 201, 202, -1,
      202, 201, 203, -1,
      202, 203, 204, -1,
      199, 204, 197, -1,
      197, 204, 203, -1,
      197, 203, 205, -1,
      205, 203, 196, -1,
      205, 196, 206, -1,
      206, 196, 176, -1,
      4, 173, 2, -1,
      2, 173, 175, -1,
      2, 175, 178, -1,
      178, 175, 207, -1,
      178, 207, 176, -1,
      176, 207, 201, -1,
      176, 201, 206, -1,
      206, 201, 200, -1,
      208, 209, 203, -1,
      203, 209, 210, -1,
      203, 210, 211, -1,
      212, 201, 213, -1,
      212, 214, 201, -1,
      201, 214, 215, -1,
      201, 215, 216, -1,
      216, 217, 201, -1,
      201, 217, 218, -1,
      201, 218, 219, -1,
      211, 220, 203, -1,
      203, 220, 221, -1,
      203, 221, 222, -1,
      222, 221, 223, -1,
      222, 223, 213, -1,
      213, 223, 224, -1,
      213, 224, 212, -1,
      219, 225, 201, -1,
      201, 225, 226, -1,
      201, 226, 203, -1,
      203, 226, 227, -1,
      203, 227, 208, -1,
      228, 19, 222, -1,
      17, 19, 24, -1,
      24, 19, 228, -1,
      24, 228, 229, -1,
      207, 230, 201, -1,
      201, 230, 172, -1,
      201, 172, 213, -1,
      213, 172, 24, -1,
      213, 24, 231, -1,
      231, 24, 229, -1,
      231, 232, 213, -1,
      213, 232, 233, -1,
      213, 233, 222, -1,
      222, 233, 234, -1,
      222, 234, 228, -1,
      235, 236, 237, -1,
      237, 236, 233, -1,
      237, 233, 238, -1,
      238, 233, 232, -1,
      238, 232, 239, -1,
      239, 232, 240, -1,
      58, 52, 51, -1,
      51, 52, 241, -1,
      51, 241, 242, -1,
      243, 241, 244, -1,
      244, 241, 52, -1,
      244, 52, 245, -1,
      245, 52, 159, -1,
      245, 159, 246, -1,
      246, 159, 247, -1,
      21, 67, 19, -1,
      19, 67, 98, -1,
      19, 98, 222, -1,
      222, 98, 97, -1,
      222, 97, 203, -1,
      203, 97, 91, -1,
      203, 91, 196, -1,
      196, 91, 71, -1,
      196, 71, 195, -1,
      242, 246, 51, -1,
      51, 246, 247, -1,
      51, 247, 68, -1,
      68, 247, 134, -1,
      68, 134, 112, -1,
      112, 134, 132, -1,
      151, 139, 149, -1,
      149, 139, 141, -1,
      149, 141, 161, -1,
      161, 141, 148, -1,
      161, 148, 159, -1,
      159, 148, 147, -1,
      159, 147, 247, -1,
      247, 147, 248, -1,
      247, 248, 134, -1,
      134, 248, 122, -1,
      134, 122, 135, -1,
      135, 122, 124, -1,
      0, 145, 143, -1,
      143, 249, 0, -1,
      0, 249, 250, -1,
      0, 250, 1, -1,
      251, 154, 10, -1,
      252, 253, 1, -1,
      10, 252, 251, -1,
      251, 252, 1, -1,
      251, 1, 254, -1,
      254, 1, 250, -1,
      254, 250, 153, -1,
      153, 250, 139, -1,
      255, 173, 4, -1,
      256, 257, 1, -1,
      4, 256, 255, -1,
      255, 256, 1, -1,
      255, 1, 258, -1,
      258, 1, 253, -1,
      258, 253, 6, -1,
      6, 253, 165, -1,
      184, 182, 259, -1,
      259, 182, 1, -1,
      259, 1, 260, -1,
      260, 1, 257, -1,
      260, 257, 187, -1,
      187, 257, 193, -1,
    ]
  }
}

Shape {
  appearance Appearance {
    material Material {
      diffuseColor 1.0000 1.0000 0.0000
      specularColor 0.5020 0.5020 0.0000
      ambientIntensity 0.2
      transparency 0.0000
      shininess 0.5
    }
  }
  geometry IndexedFaceSet {
    ccw TRUE
    solid FALSE
    coord DEF co Coordinate {
      point [
        -0.334646 0.531496 -0.118110,
        -0.423228 0.531496 -0.118110,
        -0.127953 0.531496 -0.118110,
        0.255906 0.531496 -0.118110,
        0.167323 0.531496 -0.118110,
        0.334646 -0.531496 -0.118110,
        0.423228 -0.531496 -0.118110,
        -0.255906 -0.531496 -0.118110,
        -0.167323 -0.531496 -0.118110,
        0.039370 0.531496 -0.118110,
        -0.551181 -0.531496 -0.118110,
        -0.757874 -0.531496 -0.118110,
        -0.846457 -0.531496 -0.118110,
        -0.462598 -0.531496 -0.118110,
        0.127953 -0.531496 -0.118110,
        0.039370 -0.531496 -0.118110,
        0.718504 -0.531496 -0.118110,
        0.629921 -0.531496 -0.118110,
        0.718504 0.531496 -0.118110,
        0.629921 0.531496 -0.118110,
        0.757874 0.531496 -0.118110,
        0.846457 0.531496 -0.118110,
        0.551181 0.531496 -0.118110,
        0.462598 0.531496 -0.118110,
        0.423228 0.531496 -0.118110,
        0.334646 0.531496 -0.118110,
        0.127953 0.531496 -0.118110,
        -0.039370 0.531496 -0.118110,
        -0.167323 0.531496 -0.118110,
        -0.255906 0.531496 -0.118110,
        -0.846457 0.531496 -0.118110,
        -0.757874 0.531496 -0.118110,
        -0.718504 0.531496 -0.118110,
        -0.629921 0.531496 -0.118110,
        -0.551181 0.531496 -0.118110,
        -0.462598 0.531496 -0.118110,
        -0.757874 0.531496 -0.122047,
        -0.846457 0.531496 -0.122047,
        -0.718504 0.531496 -0.122047,
        -0.629921 0.531496 -0.122047,
        -0.462598 0.531496 -0.122047,
        -0.551181 0.531496 -0.122047,
        -0.423228 0.531496 -0.122047,
        -0.334646 0.531496 -0.122047,
        -0.167323 0.531496 -0.122047,
        -0.255906 0.531496 -0.122047,
        -0.127953 0.531496 -0.122047,
        -0.039370 0.531496 -0.122047,
        0.127953 0.531496 -0.122047,
        0.039370 0.531496 -0.122047,
        0.167323 0.531496 -0.122047,
        0.255906 0.531496 -0.122047,
        0.423228 0.531496 -0.122047,
        0.334646 0.531496 -0.122047,
        0.462598 0.531496 -0.122047,
        0.551181 0.531496 -0.122047,
        0.718504 0.531496 -0.122047,
        0.629921 0.531496 -0.122047,
        0.757874 0.531496 -0.122047,
        0.846457 0.531496 -0.122047,
        -0.757874 -0.531496 -0.122047,
        -0.846457 -0.531496 -0.122047,
        -0.462598 -0.531496 -0.122047,
        -0.551181 -0.531496 -0.122047,
        -0.167323 -0.531496 -0.122047,
        -0.255906 -0.531496 -0.122047,
        0.127953 -0.531496 -0.122047,
        0.039370 -0.531496 -0.122047,
        0.423228 -0.531496 -0.122047,
        0.334646 -0.531496 -0.122047,
        0.718504 -0.531496 -0.122047,
        0.629921 -0.531496 -0.122047,
      ]
    }
    coordIndex [
      36, 37, 31, -1,
      31, 37, 30, -1,
      32, 33, 38, -1,
      38, 33, 39, -1,
      40, 41, 35, -1,
      35, 41, 34, -1,
      1, 0, 42, -1,
      42, 0, 43, -1,
      44, 45, 28, -1,
      28, 45, 29, -1,
      2, 27, 46, -1,
      46, 27, 47, -1,
      48, 49, 26, -1,
      26, 49, 9, -1,
      4, 3, 50, -1,
      50, 3, 51, -1,
      52, 53, 24, -1,
      24, 53, 25, -1,
      23, 22, 54, -1,
      54, 22, 55, -1,
      56, 57, 18, -1,
      18, 57, 19, -1,
      20, 21, 58, -1,
      58, 21, 59, -1,
      11, 12, 60, -1,
      60, 12, 61, -1,
      13, 10, 62, -1,
      62, 10, 63, -1,
      8, 7, 64, -1,
      64, 7, 65, -1,
      14, 15, 66, -1,
      66, 15, 67, -1,
      6, 5, 68, -1,
      68, 5, 69, -1,
      16, 17, 70, -1,
      70, 17, 71, -1,
    ]
  }
}

Shape {
  appearance Appearance {
    material Material {
      diffuseColor 0.0000 0.5020 0.0000
      specularColor 0.0000 0.2510 0.0000
      ambientIntensity 0.2
      transparency 0.0000
      shininess 0.5
    }
  }
  geometry IndexedFaceSet {
    ccw TRUE
    solid FALSE
    coord DEF co Coordinate {
      point [
        0.944882 0.551181 0.000000,
        0.944882 -0.551181 0.000000,
        -0.944882 0.551181 0.000000,
        -0.944882 -0.551181 0.000000,
        0.423228 -0.551181 -0.118110,
        -0.167323 -0.551181 -0.118110,
        -0.944882 -0.551181 -0.118110,
        -0.718504 -0.551181 -0.118110,
        -0.757874 -0.551181 -0.118110,
        -0.462598 -0.551181 -0.118110,
        -0.423228 -0.551181 -0.118110,
        -0.127953 -0.551181 -0.118110,
        0.127953 -0.551181 -0.118110,
        0.167323 -0.551181 -0.118110,
        0.944882 -0.551181 -0.118110,
        0.757874 -0.551181 -0.118110,
        0.718504 -0.551181 -0.118110,
        0.462598 -0.551181 -0.118110,
        0.944882 0.551181 -0.118110,
        -0.944882 0.551181 -0.118110,
        -0.757874 -0.551181 -0.078740,
        -0.718504 -0.551181 -0.078740,
        -0.423228 -0.551181 -0.078740,
        -0.167323 -0.551181 -0.078740,
        -0.127953 -0.551181 -0.078740,
        -0.462598 -0.551181 -0.078740,
        0.167323 -0.551181 -0.078740,
        0.423228 -0.551181 -0.078740,
        0.462598 -0.551181 -0.078740,
        0.127953 -0.551181 -0.078740,
        0.757874 -0.551181 -0.078740,
        0.718504 -0.551181 -0.078740,
      ]
    }
    coordIndex [
      14, 18, 1, -1,
      1, 18, 0, -1,
      3, 6, 8, -1,
      8, 20, 3, -1,
      3, 20, 21, -1,
      3, 21, 1, -1,
      22, 10, 5, -1,
      23, 24, 1, -1,
      5, 23, 22, -1,
      22, 23, 1, -1,
      22, 1, 25, -1,
      25, 1, 21, -1,
      25, 21, 9, -1,
      9, 21, 7, -1,
      26, 13, 4, -1,
      27, 28, 1, -1,
      4, 27, 26, -1,
      26, 27, 1, -1,
      26, 1, 29, -1,
      29, 1, 24, -1,
      29, 24, 12, -1,
      12, 24, 11, -1,
      15, 14, 30, -1,
      30, 14, 1, -1,
      30, 1, 31, -1,
      31, 1, 28, -1,
      31, 28, 16, -1,
      16, 28, 17, -1,
      19, 6, 2, -1,
      2, 6, 3, -1,
      3, 1, 2, -1,
      2, 1, 0, -1,
    ]
  }
}

Shape {
  appearance Appearance {
    material Material {
      diffuseColor 1.0000 1.0000 0.0000
      specularColor 0.5020 0.5020 0.0000
      ambientIntensity 0.2
      transparency 0.0000
      shininess 0.5
    }
  }
  geometry IndexedFaceSet {
    ccw TRUE
    solid FALSE
    coord DEF co Coordinate {
      point [
        -0.334646 0.531496 -0.118110,
        -0.423228 0.531496 -0.118110,
        -0.423228 0.551181 -0.118110,
        -0.127953 0.531496 -0.118110,
        -0.127953 0.551181 -0.118110,
        0.255906 0.531496 -0.118110,
        0.167323 0.531496 -0.118110,
        0.167323 0.551181 -0.118110,
        0.334646 -0.531496 -0.118110,
        0.423228 -0.531496 -0.118110,
        0.423228 -0.551181 -0.118110,
        -0.255906 -0.531496 -0.118110,
        -0.167323 -0.531496 -0.118110,
        -0.167323 -0.551181 -0.118110,
        0.039370 0.531496 -0.118110,
        0.039370 0.295276 -0.118110,
        -0.846457 -0.242272 -0.118110,
        -0.846457 -0.177756 -0.118110,
        -0.718504 -0.551181 -0.118110,
        -0.718504 -0.531496 -0.118110,
        -0.629921 -0.531496 -0.118110,
        -0.551181 -0.531496 -0.118110,
        -0.551181 -0.295276 -0.118110,
        -0.629921 -0.295276 -0.118110,
        -0.757874 -0.531496 -0.118110,
        -0.757874 -0.551181 -0.118110,
        -0.846457 -0.531496 -0.118110,
        -0.846457 -0.295276 -0.118110,
        -0.790502 -0.242272 -0.118110,
        -0.462598 -0.531496 -0.118110,
        -0.462598 -0.551181 -0.118110,
        -0.255906 -0.295276 -0.118110,
        -0.423228 -0.551181 -0.118110,
        -0.423228 -0.531496 -0.118110,
        -0.334646 -0.531496 -0.118110,
        -0.334646 -0.295276 -0.118110,
        -0.039370 -0.531496 -0.118110,
        -0.039370 -0.295276 -0.118110,
        -0.127953 -0.551181 -0.118110,
        -0.127953 -0.531496 -0.118110,
        0.127953 -0.531496 -0.118110,
        0.127953 -0.551181 -0.118110,
        0.334646 -0.295276 -0.118110,
        0.167323 -0.551181 -0.118110,
        0.167323 -0.531496 -0.118110,
        0.255906 -0.531496 -0.118110,
        0.255906 -0.295276 -0.118110,
        0.039370 -0.295276 -0.118110,
        0.039370 -0.531496 -0.118110,
        0.846457 -0.531496 -0.118110,
        0.757874 -0.551181 -0.118110,
        0.757874 -0.531496 -0.118110,
        0.718504 -0.531496 -0.118110,
        0.718504 -0.551181 -0.118110,
        0.629921 -0.531496 -0.118110,
        0.551181 -0.531496 -0.118110,
        0.551181 -0.295276 -0.118110,
        0.629921 -0.295276 -0.118110,
        0.846457 -0.295276 -0.118110,
        0.462598 -0.551181 -0.118110,
        0.462598 -0.531496 -0.118110,
        0.718504 0.551181 -0.118110,
        0.718504 0.531496 -0.118110,
        0.629921 0.531496 -0.118110,
        0.757874 0.531496 -0.118110,
        0.757874 0.551181 -0.118110,
        0.846457 0.531496 -0.118110,
        0.846457 0.295276 -0.118110,
        0.629921 0.295276 -0.118110,
        0.551181 0.531496 -0.118110,
        0.462598 0.531496 -0.118110,
        0.462598 0.551181 -0.118110,
        0.423228 0.551181 -0.118110,
        0.423228 0.531496 -0.118110,
        0.334646 0.531496 -0.118110,
        0.255906 0.295276 -0.118110,
        0.334646 0.295276 -0.118110,
        0.551181 0.295276 -0.118110,
        0.127953 0.551181 -0.118110,
        0.127953 0.531496 -0.118110,
        -0.039370 0.531496 -0.118110,
        -0.039370 0.295276 -0.118110,
        -0.167323 0.551181 -0.118110,
        -0.167323 0.531496 -0.118110,
        -0.255906 0.531496 -0.118110,
        -0.334646 0.295276 -0.118110,
        -0.846457 0.295276 -0.118110,
        -0.629921 0.295276 -0.118110,
        -0.846457 0.531496 -0.118110,
        -0.757874 0.551181 -0.118110,
        -0.757874 0.531496 -0.118110,
        -0.718504 0.531496 -0.118110,
        -0.718504 0.551181 -0.118110,
        -0.629921 0.531496 -0.118110,
        -0.551181 0.295276 -0.118110,
        -0.551181 0.531496 -0.118110,
        -0.462598 0.551181 -0.118110,
        -0.462598 0.531496 -0.118110,
        -0.255906 0.295276 -0.118110,
        0.757874 0.551181 -0.078740,
        0.718504 0.551181 -0.078740,
        0.423228 0.551181 -0.078740,
        0.167323 0.551181 -0.078740,
        0.127953 0.551181 -0.078740,
        0.462598 0.551181 -0.078740,
        -0.167323 0.551181 -0.078740,
        -0.423228 0.551181 -0.078740,
        -0.462598 0.551181 -0.078740,
        -0.127953 0.551181 -0.078740,
        -0.757874 0.551181 -0.078740,
        -0.718504 0.551181 -0.078740,
        -0.757874 0.531496 -0.122047,
        -0.846457 0.531496 -0.122047,
        -0.718504 0.531496 -0.122047,
        -0.629921 0.531496 -0.122047,
        -0.462598 0.531496 -0.122047,
        -0.551181 0.531496 -0.122047,
        -0.423228 0.531496 -0.122047,
        -0.334646 0.531496 -0.122047,
        -0.167323 0.531496 -0.122047,
        -0.255906 0.531496 -0.122047,
        -0.127953 0.531496 -0.122047,
        -0.039370 0.531496 -0.122047,
        0.127953 0.531496 -0.122047,
        0.039370 0.531496 -0.122047,
        0.167323 0.531496 -0.122047,
        0.255906 0.531496 -0.122047,
        0.423228 0.531496 -0.122047,
        0.334646 0.531496 -0.122047,
        0.462598 0.531496 -0.122047,
        0.551181 0.531496 -0.122047,
        0.718504 0.531496 -0.122047,
        0.629921 0.531496 -0.122047,
        0.757874 0.531496 -0.122047,
        0.846457 0.531496 -0.122047,
        -0.757874 -0.531496 -0.122047,
        -0.846457 -0.531496 -0.122047,
        -0.462598 -0.531496 -0.122047,
        -0.551181 -0.531496 -0.122047,
        -0.167323 -0.531496 -0.122047,
        -0.255906 -0.531496 -0.122047,
        0.127953 -0.531496 -0.122047,
        0.039370 -0.531496 -0.122047,
        0.423228 -0.531496 -0.122047,
        0.334646 -0.531496 -0.122047,
        0.718504 -0.531496 -0.122047,
        0.629921 -0.531496 -0.122047,
        -0.757874 -0.551181 -0.078740,
        -0.718504 -0.551181 -0.078740,
        -0.423228 -0.551181 -0.078740,
        -0.167323 -0.551181 -0.078740,
        -0.127953 -0.551181 -0.078740,
        -0.462598 -0.551181 -0.078740,
        0.167323 -0.551181 -0.078740,
        0.423228 -0.551181 -0.078740,
        0.462598 -0.551181 -0.078740,
        0.127953 -0.551181 -0.078740,
        0.757874 -0.551181 -0.078740,
        0.718504 -0.551181 -0.078740,
        0.629921 -0.295276 -0.122047,
        0.846457 -0.295276 -0.122047,
        0.846457 -0.531496 -0.122047,
        0.757874 -0.531496 -0.122047,
        0.718504 -0.555118 -0.122047,
        0.757874 -0.555118 -0.122047,
        0.718504 -0.555118 -0.078740,
        0.757874 -0.555118 -0.078740,
        0.334646 -0.295276 -0.122047,
        0.551181 -0.295276 -0.122047,
        0.551181 -0.531496 -0.122047,
        0.462598 -0.531496 -0.122047,
        0.423228 -0.555118 -0.122047,
        0.462598 -0.555118 -0.122047,
        0.039370 -0.295276 -0.122047,
        0.255906 -0.295276 -0.122047,
        0.255906 -0.531496 -0.122047,
        0.167323 -0.531496 -0.122047,
        0.127953 -0.555118 -0.122047,
        0.167323 -0.555118 -0.122047,
        -0.255906 -0.295276 -0.122047,
        -0.039370 -0.295276 -0.122047,
        -0.039370 -0.531496 -0.122047,
        -0.127953 -0.531496 -0.122047,
        -0.167323 -0.555118 -0.122047,
        -0.127953 -0.555118 -0.122047,
        -0.551181 -0.295276 -0.122047,
        -0.334646 -0.295276 -0.122047,
        -0.334646 -0.531496 -0.122047,
        -0.423228 -0.531496 -0.122047,
        -0.462598 -0.555118 -0.122047,
        -0.423228 -0.555118 -0.122047,
        -0.846457 -0.295276 -0.122047,
        -0.629921 -0.295276 -0.122047,
        -0.629921 -0.531496 -0.122047,
        -0.718504 -0.531496 -0.122047,
        -0.757874 -0.555118 -0.122047,
        -0.718504 -0.555118 -0.122047,
        0.423228 -0.555118 -0.078740,
        0.462598 -0.555118 -0.078740,
        0.127953 -0.555118 -0.078740,
        0.167323 -0.555118 -0.078740,
        -0.167323 -0.555118 -0.078740,
        -0.127953 -0.555118 -0.078740,
        -0.462598 -0.555118 -0.078740,
        -0.423228 -0.555118 -0.078740,
        -0.757874 -0.555118 -0.078740,
        -0.718504 -0.555118 -0.078740,
        0.629921 0.295276 -0.122047,
        0.846457 0.295276 -0.122047,
        0.757874 0.555118 -0.122047,
        0.718504 0.555118 -0.122047,
        0.334646 0.295276 -0.122047,
        0.551181 0.295276 -0.122047,
        0.462598 0.555118 -0.122047,
        0.423228 0.555118 -0.122047,
        0.039370 0.295276 -0.122047,
        0.255906 0.295276 -0.122047,
        0.167323 0.555118 -0.122047,
        0.127953 0.555118 -0.122047,
        -0.255906 0.295276 -0.122047,
        -0.039370 0.295276 -0.122047,
        -0.127953 0.555118 -0.122047,
        -0.167323 0.555118 -0.122047,
        -0.551181 0.295276 -0.122047,
        -0.334646 0.295276 -0.122047,
        -0.423228 0.555118 -0.122047,
        -0.462598 0.555118 -0.122047,
        -0.846457 0.295276 -0.122047,
        -0.629921 0.295276 -0.122047,
        -0.718504 0.555118 -0.122047,
        -0.757874 0.555118 -0.122047,
        0.757874 0.555118 -0.078740,
        0.718504 0.555118 -0.078740,
        0.462598 0.555118 -0.078740,
        0.423228 0.555118 -0.078740,
        0.167323 0.555118 -0.078740,
        0.127953 0.555118 -0.078740,
        -0.127953 0.555118 -0.078740,
        -0.167323 0.555118 -0.078740,
        -0.423228 0.555118 -0.078740,
        -0.462598 0.555118 -0.078740,
        -0.718504 0.555118 -0.078740,
        -0.757874 0.555118 -0.078740,
        -0.846457 -0.177756 -0.117717,
        -0.846457 -0.242272 -0.117717,
        -0.790502 -0.242272 -0.117717,
      ]
    }
    coordIndex [
      159, 146, 57, -1,
      57, 146, 54, -1,
      160, 159, 58, -1,
      58, 159, 57, -1,
      161, 160, 49, -1,
      49, 160, 58, -1,
      162, 161, 51, -1,
      51, 161, 49, -1,
      160, 161, 159, -1,
      159, 161, 162, -1,
      146, 159, 145, -1,
      145, 159, 162, -1,
      145, 162, 163, -1,
      163, 162, 164, -1,
      158, 165, 157, -1,
      157, 165, 166, -1,
      52, 145, 53, -1,
      53, 145, 163, -1,
      53, 163, 158, -1,
      158, 163, 165, -1,
      164, 166, 163, -1,
      163, 166, 165, -1,
      157, 166, 50, -1,
      50, 166, 164, -1,
      50, 164, 51, -1,
      51, 164, 162, -1,
      167, 144, 42, -1,
      42, 144, 8, -1,
      168, 167, 56, -1,
      56, 167, 42, -1,
      169, 168, 55, -1,
      55, 168, 56, -1,
      170, 169, 60, -1,
      60, 169, 55, -1,
      168, 169, 167, -1,
      167, 169, 170, -1,
      144, 167, 143, -1,
      143, 167, 170, -1,
      143, 170, 171, -1,
      171, 170, 172, -1,
      173, 142, 47, -1,
      47, 142, 48, -1,
      174, 173, 46, -1,
      46, 173, 47, -1,
      175, 174, 45, -1,
      45, 174, 46, -1,
      176, 175, 44, -1,
      44, 175, 45, -1,
      174, 175, 173, -1,
      173, 175, 176, -1,
      142, 173, 141, -1,
      141, 173, 176, -1,
      141, 176, 177, -1,
      177, 176, 178, -1,
      179, 140, 31, -1,
      31, 140, 11, -1,
      180, 179, 37, -1,
      37, 179, 31, -1,
      181, 180, 36, -1,
      36, 180, 37, -1,
      182, 181, 39, -1,
      39, 181, 36, -1,
      180, 181, 179, -1,
      179, 181, 182, -1,
      140, 179, 139, -1,
      139, 179, 182, -1,
      139, 182, 183, -1,
      183, 182, 184, -1,
      185, 138, 22, -1,
      22, 138, 21, -1,
      186, 185, 35, -1,
      35, 185, 22, -1,
      187, 186, 34, -1,
      34, 186, 35, -1,
      188, 187, 33, -1,
      33, 187, 34, -1,
      186, 187, 185, -1,
      185, 187, 188, -1,
      138, 185, 137, -1,
      137, 185, 188, -1,
      137, 188, 189, -1,
      189, 188, 190, -1,
      191, 136, 27, -1,
      27, 136, 26, -1,
      192, 191, 23, -1,
      23, 191, 27, -1,
      193, 192, 20, -1,
      20, 192, 23, -1,
      194, 193, 19, -1,
      19, 193, 20, -1,
      192, 193, 191, -1,
      191, 193, 194, -1,
      136, 191, 135, -1,
      135, 191, 194, -1,
      135, 194, 195, -1,
      195, 194, 196, -1,
      154, 197, 155, -1,
      155, 197, 198, -1,
      9, 143, 10, -1,
      10, 143, 171, -1,
      10, 171, 154, -1,
      154, 171, 197, -1,
      172, 198, 171, -1,
      171, 198, 197, -1,
      155, 198, 59, -1,
      59, 198, 172, -1,
      59, 172, 60, -1,
      60, 172, 170, -1,
      156, 199, 153, -1,
      153, 199, 200, -1,
      40, 141, 41, -1,
      41, 141, 177, -1,
      41, 177, 156, -1,
      156, 177, 199, -1,
      178, 200, 177, -1,
      177, 200, 199, -1,
      153, 200, 43, -1,
      43, 200, 178, -1,
      43, 178, 44, -1,
      44, 178, 176, -1,
      150, 201, 151, -1,
      151, 201, 202, -1,
      12, 139, 13, -1,
      13, 139, 183, -1,
      13, 183, 150, -1,
      150, 183, 201, -1,
      184, 202, 183, -1,
      183, 202, 201, -1,
      151, 202, 38, -1,
      38, 202, 184, -1,
      38, 184, 39, -1,
      39, 184, 182, -1,
      152, 203, 149, -1,
      149, 203, 204, -1,
      29, 137, 30, -1,
      30, 137, 189, -1,
      30, 189, 152, -1,
      152, 189, 203, -1,
      190, 204, 189, -1,
      189, 204, 203, -1,
      149, 204, 32, -1,
      32, 204, 190, -1,
      32, 190, 33, -1,
      33, 190, 188, -1,
      147, 205, 148, -1,
      148, 205, 206, -1,
      24, 135, 25, -1,
      25, 135, 195, -1,
      25, 195, 147, -1,
      147, 195, 205, -1,
      196, 206, 195, -1,
      195, 206, 205, -1,
      148, 206, 18, -1,
      18, 206, 196, -1,
      18, 196, 19, -1,
      19, 196, 194, -1,
      132, 207, 63, -1,
      63, 207, 68, -1,
      208, 134, 67, -1,
      67, 134, 66, -1,
      207, 208, 68, -1,
      68, 208, 67, -1,
      207, 132, 208, -1,
      208, 132, 131, -1,
      134, 208, 133, -1,
      133, 208, 131, -1,
      133, 131, 209, -1,
      209, 131, 210, -1,
      128, 211, 74, -1,
      74, 211, 76, -1,
      212, 130, 77, -1,
      77, 130, 69, -1,
      211, 212, 76, -1,
      76, 212, 77, -1,
      211, 128, 212, -1,
      212, 128, 127, -1,
      130, 212, 129, -1,
      129, 212, 127, -1,
      129, 127, 213, -1,
      213, 127, 214, -1,
      124, 215, 14, -1,
      14, 215, 15, -1,
      216, 126, 75, -1,
      75, 126, 5, -1,
      215, 216, 15, -1,
      15, 216, 75, -1,
      215, 124, 216, -1,
      216, 124, 123, -1,
      126, 216, 125, -1,
      125, 216, 123, -1,
      125, 123, 217, -1,
      217, 123, 218, -1,
      120, 219, 84, -1,
      84, 219, 98, -1,
      220, 122, 81, -1,
      81, 122, 80, -1,
      219, 220, 98, -1,
      98, 220, 81, -1,
      219, 120, 220, -1,
      220, 120, 119, -1,
      122, 220, 121, -1,
      121, 220, 119, -1,
      121, 119, 221, -1,
      221, 119, 222, -1,
      116, 223, 95, -1,
      95, 223, 94, -1,
      224, 118, 85, -1,
      85, 118, 0, -1,
      223, 224, 94, -1,
      94, 224, 85, -1,
      223, 116, 224, -1,
      224, 116, 115, -1,
      118, 224, 117, -1,
      117, 224, 115, -1,
      117, 115, 225, -1,
      225, 115, 226, -1,
      112, 227, 88, -1,
      88, 227, 86, -1,
      228, 114, 87, -1,
      87, 114, 93, -1,
      227, 228, 86, -1,
      86, 228, 87, -1,
      227, 112, 228, -1,
      228, 112, 111, -1,
      114, 228, 113, -1,
      113, 228, 111, -1,
      113, 111, 229, -1,
      229, 111, 230, -1,
      99, 231, 100, -1,
      100, 231, 232, -1,
      100, 232, 61, -1,
      61, 232, 210, -1,
      61, 210, 62, -1,
      62, 210, 131, -1,
      64, 133, 65, -1,
      65, 133, 209, -1,
      65, 209, 99, -1,
      99, 209, 231, -1,
      210, 232, 209, -1,
      209, 232, 231, -1,
      104, 233, 101, -1,
      101, 233, 234, -1,
      101, 234, 72, -1,
      72, 234, 214, -1,
      72, 214, 73, -1,
      73, 214, 127, -1,
      70, 129, 71, -1,
      71, 129, 213, -1,
      71, 213, 104, -1,
      104, 213, 233, -1,
      214, 234, 213, -1,
      213, 234, 233, -1,
      102, 235, 103, -1,
      103, 235, 236, -1,
      103, 236, 78, -1,
      78, 236, 218, -1,
      78, 218, 79, -1,
      79, 218, 123, -1,
      6, 125, 7, -1,
      7, 125, 217, -1,
      7, 217, 102, -1,
      102, 217, 235, -1,
      218, 236, 217, -1,
      217, 236, 235, -1,
      108, 237, 105, -1,
      105, 237, 238, -1,
      105, 238, 82, -1,
      82, 238, 222, -1,
      82, 222, 83, -1,
      83, 222, 119, -1,
      3, 121, 4, -1,
      4, 121, 221, -1,
      4, 221, 108, -1,
      108, 221, 237, -1,
      222, 238, 221, -1,
      221, 238, 237, -1,
      106, 239, 107, -1,
      107, 239, 240, -1,
      107, 240, 96, -1,
      96, 240, 226, -1,
      96, 226, 97, -1,
      97, 226, 115, -1,
      1, 117, 2, -1,
      2, 117, 225, -1,
      2, 225, 106, -1,
      106, 225, 239, -1,
      226, 240, 225, -1,
      225, 240, 239, -1,
      110, 241, 109, -1,
      109, 241, 242, -1,
      109, 242, 89, -1,
      89, 242, 230, -1,
      89, 230, 90, -1,
      90, 230, 111, -1,
      91, 113, 92, -1,
      92, 113, 229, -1,
      92, 229, 110, -1,
      110, 229, 241, -1,
      230, 242, 229, -1,
      229, 242, 241, -1,
      243, 244, 17, -1,
      17, 244, 16, -1,
      244, 245, 16, -1,
      16, 245, 28, -1,
      245, 243, 28, -1,
      28, 243, 17, -1,
      243, 245, 244, -1,
    ]
  }
}

Shape {
  appearance Appearance {
    material Material {
      diffuseColor 0.0000 0.0000 0.0000
      specularColor 0.0000 0.0000 0.0000
      ambientIntensity 0.2
      transparency 0.0000
      shininess 0.5
    }
  }
  geometry IndexedFaceSet {
    ccw TRUE
    solid FALSE
    coord DEF co Coordinate {
      point [
        0.022582 -0.020647 -0.118110,
        0.022582 -0.029289 -0.118110,
        0.030975 -0.032735 -0.118110,
        0.038932 -0.033850 -0.118110,
        0.031685 0.045680 -0.118110,
        0.022582 0.043209 -0.118110,
        0.022582 0.032646 -0.118110,
        0.031451 0.036444 -0.118110,
        0.023993 -0.021429 -0.118110,
        0.041022 0.037688 -0.118110,
        0.048775 0.036817 -0.118110,
        0.054669 0.034690 -0.118110,
        0.060119 0.031044 -0.118110,
        0.064874 0.025795 -0.118110,
        0.070594 0.005159 -0.118110,
        0.069797 -0.003365 -0.118110,
        0.067658 -0.010137 -0.118110,
        0.050136 -0.024865 -0.118110,
        0.042792 -0.025688 -0.118110,
        0.055874 -0.022752 -0.118110,
        0.060706 -0.019495 -0.118110,
        0.064401 -0.015597 -0.118110,
        0.032340 -0.024528 -0.118110,
        0.068120 0.019715 -0.118110,
        0.070219 0.011286 -0.118110,
        0.034154 0.045850 -0.118110,
        0.067917 -0.026653 -0.118110,
        0.073831 -0.020426 -0.118110,
        0.072386 0.031993 -0.118110,
        0.065278 0.038829 -0.118110,
        0.048878 -0.033850 -0.118110,
        0.053951 -0.033324 -0.118110,
        0.061583 -0.030698 -0.118110,
        0.081157 0.004514 -0.118110,
        0.080024 0.015709 -0.118110,
        0.077001 0.024631 -0.118110,
        0.057798 0.043134 -0.118110,
        0.049020 0.045684 -0.118110,
        0.046993 0.045850 -0.118110,
        0.078026 -0.012939 -0.118110,
        0.080396 -0.004605 -0.118110,
        0.042094 -0.034294 -0.118110,
        0.044248 -0.034331 -0.118110,
        0.041112 0.046330 -0.118110,
        -0.179070 -0.033370 -0.118110,
        -0.171103 -0.011285 -0.118110,
        -0.138574 -0.011285 -0.118110,
        -0.149302 0.045370 -0.118110,
        -0.119535 -0.033370 -0.118110,
        -0.131057 -0.033370 -0.118110,
        -0.190593 -0.033370 -0.118110,
        -0.159865 0.045370 -0.118110,
        -0.109841 -0.011789 -0.118110,
        -0.105326 -0.018832 -0.118110,
        -0.098844 -0.025038 -0.118110,
        -0.090623 -0.029816 -0.118110,
        -0.072617 0.045370 -0.118110,
        -0.083993 0.044154 -0.118110,
        -0.093206 0.040919 -0.118110,
        -0.101776 0.035175 -0.118110,
        -0.101859 0.035103 -0.118110,
        -0.107427 0.028929 -0.118110,
        -0.111086 0.022157 -0.118110,
        -0.081550 -0.032520 -0.118110,
        -0.071807 -0.033370 -0.118110,
        -0.050397 -0.033370 -0.118110,
        -0.050397 0.045370 -0.118110,
        -0.113201 0.014399 -0.118110,
        -0.113773 0.006990 -0.118110,
        -0.112668 -0.003548 -0.118110,
        0.007218 -0.033370 -0.118110,
        0.007218 0.045370 -0.118110,
        -0.033112 0.045370 -0.118110,
        -0.033112 0.036728 -0.118110,
        -0.035033 -0.024728 -0.118110,
        -0.035033 -0.033370 -0.118110,
        -0.003345 0.002159 -0.118110,
        -0.003345 -0.024728 -0.118110,
        -0.031192 0.002159 -0.118110,
        -0.031192 0.010801 -0.118110,
        -0.003345 0.010801 -0.118110,
        -0.003345 0.036728 -0.118110,
        0.087879 -0.024728 -0.118110,
        0.087879 -0.033370 -0.118110,
        0.117646 -0.024728 -0.118110,
        0.117646 0.045370 -0.118110,
        0.128209 0.045370 -0.118110,
        0.128209 -0.033370 -0.118110,
        -0.159865 0.045370 -0.117717,
        -0.190593 -0.033370 -0.117717,
        -0.179070 -0.033370 -0.117717,
        -0.171103 -0.011285 -0.117717,
        -0.138574 -0.011285 -0.117717,
        -0.131057 -0.033370 -0.117717,
        -0.119535 -0.033370 -0.117717,
        -0.149302 0.045370 -0.117717,
        -0.141230 -0.002643 -0.117717,
        -0.167562 -0.002643 -0.117717,
        -0.152978 0.030246 -0.117717,
        -0.153736 0.032977 -0.117717,
        -0.154238 0.035767 -0.117717,
        -0.154493 0.035767 -0.117717,
        -0.155007 0.032985 -0.117717,
        -0.155709 0.030246 -0.117717,
        -0.141230 -0.002643 -0.118110,
        -0.167562 -0.002643 -0.118110,
        -0.152978 0.030246 -0.118110,
        -0.153736 0.032977 -0.118110,
        -0.154238 0.035767 -0.118110,
        -0.154493 0.035767 -0.118110,
        -0.155007 0.032985 -0.118110,
        -0.155709 0.030246 -0.118110,
        -0.071807 -0.033370 -0.117717,
        -0.050397 -0.033370 -0.117717,
        -0.050397 0.045370 -0.117717,
        -0.072617 0.045370 -0.117717,
        -0.113773 0.006990 -0.117717,
        -0.113201 0.014399 -0.117717,
        -0.111086 0.022157 -0.117717,
        -0.107427 0.028929 -0.117717,
        -0.101859 0.035103 -0.117717,
        -0.101776 0.035175 -0.117717,
        -0.093206 0.040919 -0.117717,
        -0.083993 0.044154 -0.117717,
        -0.081550 -0.032520 -0.117717,
        -0.090623 -0.029816 -0.117717,
        -0.098844 -0.025038 -0.117717,
        -0.105326 -0.018832 -0.117717,
        -0.109841 -0.011789 -0.117717,
        -0.112668 -0.003548 -0.117717,
        -0.097968 0.025686 -0.117717,
        -0.094143 0.029747 -0.117717,
        -0.088392 0.033463 -0.117717,
        -0.081892 0.035737 -0.117717,
        -0.072572 0.036728 -0.117717,
        -0.060959 0.036728 -0.117717,
        -0.060959 -0.024728 -0.117717,
        -0.072137 -0.024728 -0.117717,
        -0.080444 -0.023955 -0.117717,
        -0.087070 -0.021887 -0.117717,
        -0.092441 -0.018698 -0.117717,
        -0.096857 -0.014336 -0.117717,
        -0.100178 -0.008907 -0.117717,
        -0.102487 -0.001506 -0.117717,
        -0.103210 0.006765 -0.117717,
        -0.102541 0.014602 -0.117717,
        -0.100703 0.020830 -0.117717,
        -0.072572 0.036728 -0.118110,
        -0.060959 0.036728 -0.118110,
        -0.081892 0.035737 -0.118110,
        -0.088392 0.033463 -0.118110,
        -0.094143 0.029747 -0.118110,
        -0.097968 0.025686 -0.118110,
        -0.100703 0.020830 -0.118110,
        -0.102541 0.014602 -0.118110,
        -0.103210 0.006765 -0.118110,
        -0.102487 -0.001506 -0.118110,
        -0.100178 -0.008907 -0.118110,
        -0.096857 -0.014336 -0.118110,
        -0.092441 -0.018698 -0.118110,
        -0.087070 -0.021887 -0.118110,
        -0.080444 -0.023955 -0.118110,
        -0.072137 -0.024728 -0.118110,
        -0.060959 -0.024728 -0.118110,
        -0.035033 -0.024728 -0.117717,
        -0.035033 -0.033370 -0.117717,
        0.007218 -0.033370 -0.117717,
        0.007218 0.045370 -0.117717,
        -0.033112 0.045370 -0.117717,
        -0.033112 0.036728 -0.117717,
        -0.003345 0.036728 -0.117717,
        -0.003345 0.010801 -0.117717,
        -0.031192 0.010801 -0.117717,
        -0.031192 0.002159 -0.117717,
        -0.003345 0.002159 -0.117717,
        -0.003345 -0.024728 -0.117717,
        0.022582 -0.020647 -0.117717,
        0.022582 -0.029289 -0.117717,
        0.030975 -0.032735 -0.117717,
        0.044248 -0.034331 -0.117717,
        0.042094 -0.034294 -0.117717,
        0.053951 -0.033324 -0.117717,
        0.061583 -0.030698 -0.117717,
        0.067917 -0.026653 -0.117717,
        0.073831 -0.020426 -0.117717,
        0.078026 -0.012939 -0.117717,
        0.080396 -0.004605 -0.117717,
        0.081157 0.004514 -0.117717,
        0.049020 0.045684 -0.117717,
        0.041112 0.046330 -0.117717,
        0.057798 0.043134 -0.117717,
        0.065278 0.038829 -0.117717,
        0.072386 0.031993 -0.117717,
        0.077001 0.024631 -0.117717,
        0.080024 0.015709 -0.117717,
        0.031685 0.045680 -0.117717,
        0.022582 0.043209 -0.117717,
        0.022582 0.032646 -0.117717,
        0.041022 0.037688 -0.117717,
        0.031451 0.036444 -0.117717,
        0.070594 0.005159 -0.117717,
        0.070219 0.011286 -0.117717,
        0.068120 0.019715 -0.117717,
        0.064874 0.025795 -0.117717,
        0.060119 0.031044 -0.117717,
        0.054669 0.034690 -0.117717,
        0.048775 0.036817 -0.117717,
        0.042792 -0.025688 -0.117717,
        0.050136 -0.024865 -0.117717,
        0.055874 -0.022752 -0.117717,
        0.060706 -0.019495 -0.117717,
        0.064401 -0.015597 -0.117717,
        0.067658 -0.010137 -0.117717,
        0.069797 -0.003365 -0.117717,
        0.023993 -0.021429 -0.117717,
        0.032340 -0.024528 -0.117717,
        0.087879 -0.024728 -0.117717,
        0.087879 -0.033370 -0.117717,
        0.128209 -0.033370 -0.117717,
        0.128209 0.045370 -0.117717,
        0.117646 0.045370 -0.117717,
        0.117646 -0.024728 -0.117717,
      ]
    }
    coordIndex [
      88, 89, 51, -1,
      51, 89, 50, -1,
      89, 90, 50, -1,
      50, 90, 44, -1,
      90, 91, 44, -1,
      44, 91, 45, -1,
      91, 92, 45, -1,
      45, 92, 46, -1,
      92, 93, 46, -1,
      46, 93, 49, -1,
      93, 94, 49, -1,
      49, 94, 48, -1,
      94, 95, 48, -1,
      48, 95, 47, -1,
      95, 88, 47, -1,
      47, 88, 51, -1,
      96, 92, 97, -1,
      97, 92, 91, -1,
      98, 95, 96, -1,
      96, 95, 94, -1,
      96, 94, 92, -1,
      92, 94, 93, -1,
      98, 99, 95, -1,
      95, 99, 100, -1,
      95, 100, 88, -1,
      88, 100, 101, -1,
      88, 101, 102, -1,
      102, 103, 88, -1,
      88, 103, 97, -1,
      88, 97, 89, -1,
      89, 97, 91, -1,
      89, 91, 90, -1,
      96, 97, 104, -1,
      104, 97, 105, -1,
      98, 96, 106, -1,
      106, 96, 104, -1,
      98, 106, 107, -1,
      98, 107, 99, -1,
      99, 107, 108, -1,
      99, 108, 100, -1,
      101, 100, 109, -1,
      109, 100, 108, -1,
      101, 109, 110, -1,
      101, 110, 102, -1,
      102, 110, 111, -1,
      102, 111, 103, -1,
      97, 103, 105, -1,
      105, 103, 111, -1,
      112, 113, 64, -1,
      64, 113, 65, -1,
      113, 114, 65, -1,
      65, 114, 66, -1,
      114, 115, 66, -1,
      66, 115, 56, -1,
      116, 68, 67, -1,
      116, 67, 117, -1,
      117, 67, 62, -1,
      117, 62, 118, -1,
      118, 62, 61, -1,
      118, 61, 119, -1,
      119, 61, 60, -1,
      119, 60, 120, -1,
      120, 60, 59, -1,
      120, 59, 121, -1,
      121, 59, 58, -1,
      121, 58, 122, -1,
      122, 58, 57, -1,
      122, 57, 123, -1,
      123, 57, 56, -1,
      123, 56, 115, -1,
      112, 64, 63, -1,
      112, 63, 124, -1,
      124, 63, 55, -1,
      124, 55, 125, -1,
      125, 55, 54, -1,
      125, 54, 126, -1,
      126, 54, 53, -1,
      126, 53, 127, -1,
      127, 53, 52, -1,
      127, 52, 128, -1,
      128, 52, 69, -1,
      128, 69, 129, -1,
      129, 69, 68, -1,
      129, 68, 116, -1,
      118, 119, 130, -1,
      130, 119, 120, -1,
      130, 120, 131, -1,
      131, 120, 121, -1,
      131, 121, 132, -1,
      132, 121, 122, -1,
      132, 122, 133, -1,
      133, 122, 123, -1,
      133, 123, 134, -1,
      134, 123, 115, -1,
      134, 115, 135, -1,
      135, 115, 114, -1,
      135, 114, 136, -1,
      136, 114, 113, -1,
      136, 113, 137, -1,
      137, 113, 112, -1,
      137, 112, 138, -1,
      138, 112, 124, -1,
      138, 124, 139, -1,
      139, 124, 125, -1,
      139, 125, 140, -1,
      140, 125, 126, -1,
      140, 126, 141, -1,
      141, 126, 127, -1,
      141, 127, 142, -1,
      142, 127, 128, -1,
      142, 128, 143, -1,
      143, 128, 129, -1,
      143, 129, 144, -1,
      144, 129, 116, -1,
      144, 116, 145, -1,
      145, 116, 117, -1,
      145, 117, 146, -1,
      146, 117, 118, -1,
      146, 118, 130, -1,
      134, 135, 147, -1,
      147, 135, 148, -1,
      134, 147, 149, -1,
      134, 149, 133, -1,
      133, 149, 150, -1,
      133, 150, 132, -1,
      132, 150, 151, -1,
      132, 151, 131, -1,
      131, 151, 152, -1,
      131, 152, 130, -1,
      130, 152, 153, -1,
      130, 153, 146, -1,
      146, 153, 154, -1,
      146, 154, 145, -1,
      145, 154, 155, -1,
      145, 155, 144, -1,
      144, 155, 156, -1,
      144, 156, 143, -1,
      143, 156, 157, -1,
      143, 157, 142, -1,
      142, 157, 158, -1,
      142, 158, 141, -1,
      141, 158, 159, -1,
      141, 159, 140, -1,
      140, 159, 160, -1,
      140, 160, 139, -1,
      139, 160, 161, -1,
      139, 161, 138, -1,
      138, 161, 162, -1,
      138, 162, 137, -1,
      136, 137, 163, -1,
      163, 137, 162, -1,
      135, 136, 148, -1,
      148, 136, 163, -1,
      164, 165, 74, -1,
      74, 165, 75, -1,
      165, 166, 75, -1,
      75, 166, 70, -1,
      166, 167, 70, -1,
      70, 167, 71, -1,
      167, 168, 71, -1,
      71, 168, 72, -1,
      168, 169, 72, -1,
      72, 169, 73, -1,
      169, 170, 73, -1,
      73, 170, 81, -1,
      170, 171, 81, -1,
      81, 171, 80, -1,
      171, 172, 80, -1,
      80, 172, 79, -1,
      172, 173, 79, -1,
      79, 173, 78, -1,
      173, 174, 78, -1,
      78, 174, 76, -1,
      174, 175, 76, -1,
      76, 175, 77, -1,
      175, 164, 77, -1,
      77, 164, 74, -1,
      166, 165, 164, -1,
      164, 175, 166, -1,
      166, 175, 174, -1,
      166, 174, 167, -1,
      169, 168, 170, -1,
      170, 168, 167, -1,
      170, 167, 171, -1,
      171, 167, 174, -1,
      171, 174, 172, -1,
      172, 174, 173, -1,
      176, 177, 0, -1,
      0, 177, 1, -1,
      1, 177, 178, -1,
      179, 42, 41, -1,
      179, 41, 180, -1,
      180, 41, 3, -1,
      180, 3, 178, -1,
      178, 3, 2, -1,
      178, 2, 1, -1,
      42, 179, 30, -1,
      30, 179, 181, -1,
      30, 181, 31, -1,
      31, 181, 182, -1,
      31, 182, 32, -1,
      32, 182, 183, -1,
      32, 183, 26, -1,
      26, 183, 184, -1,
      26, 184, 27, -1,
      27, 184, 185, -1,
      27, 185, 39, -1,
      39, 185, 186, -1,
      39, 186, 40, -1,
      40, 186, 187, -1,
      40, 187, 33, -1,
      188, 189, 38, -1,
      38, 189, 43, -1,
      38, 37, 188, -1,
      188, 37, 36, -1,
      188, 36, 190, -1,
      190, 36, 29, -1,
      190, 29, 191, -1,
      191, 29, 28, -1,
      191, 28, 192, -1,
      192, 28, 35, -1,
      192, 35, 193, -1,
      193, 35, 34, -1,
      193, 34, 194, -1,
      194, 34, 33, -1,
      194, 33, 187, -1,
      43, 189, 25, -1,
      25, 189, 195, -1,
      25, 195, 4, -1,
      4, 195, 196, -1,
      4, 196, 5, -1,
      196, 197, 5, -1,
      5, 197, 6, -1,
      198, 9, 7, -1,
      198, 7, 199, -1,
      199, 7, 6, -1,
      199, 6, 197, -1,
      200, 14, 24, -1,
      200, 24, 201, -1,
      201, 24, 23, -1,
      201, 23, 202, -1,
      202, 23, 13, -1,
      202, 13, 203, -1,
      203, 13, 12, -1,
      203, 12, 204, -1,
      204, 12, 11, -1,
      204, 11, 205, -1,
      205, 11, 10, -1,
      205, 10, 206, -1,
      206, 10, 9, -1,
      206, 9, 198, -1,
      207, 18, 17, -1,
      207, 17, 208, -1,
      208, 17, 19, -1,
      208, 19, 209, -1,
      209, 19, 20, -1,
      209, 20, 210, -1,
      210, 20, 21, -1,
      210, 21, 211, -1,
      211, 21, 16, -1,
      211, 16, 212, -1,
      212, 16, 15, -1,
      212, 15, 213, -1,
      213, 15, 14, -1,
      213, 14, 200, -1,
      176, 0, 8, -1,
      176, 8, 214, -1,
      214, 8, 22, -1,
      214, 22, 215, -1,
      215, 22, 18, -1,
      215, 18, 207, -1,
      208, 179, 207, -1,
      207, 179, 180, -1,
      207, 180, 215, -1,
      215, 180, 178, -1,
      215, 178, 214, -1,
      214, 178, 177, -1,
      214, 177, 176, -1,
      197, 196, 199, -1,
      199, 196, 195, -1,
      199, 195, 198, -1,
      198, 195, 189, -1,
      198, 189, 206, -1,
      206, 189, 188, -1,
      206, 188, 205, -1,
      205, 188, 190, -1,
      205, 190, 204, -1,
      204, 190, 191, -1,
      204, 191, 203, -1,
      203, 191, 192, -1,
      203, 192, 202, -1,
      202, 192, 193, -1,
      202, 193, 201, -1,
      201, 193, 194, -1,
      201, 194, 200, -1,
      200, 194, 187, -1,
      200, 187, 213, -1,
      213, 187, 186, -1,
      213, 186, 212, -1,
      212, 186, 185, -1,
      212, 185, 211, -1,
      211, 185, 184, -1,
      211, 184, 210, -1,
      210, 184, 183, -1,
      210, 183, 209, -1,
      209, 183, 182, -1,
      209, 182, 208, -1,
      208, 182, 181, -1,
      208, 181, 179, -1,
      216, 217, 82, -1,
      82, 217, 83, -1,
      217, 218, 83, -1,
      83, 218, 87, -1,
      218, 219, 87, -1,
      87, 219, 86, -1,
      219, 220, 86, -1,
      86, 220, 85, -1,
      220, 221, 85, -1,
      85, 221, 84, -1,
      221, 216, 84, -1,
      84, 216, 82, -1,
      220, 219, 221, -1,
      221, 219, 218, -1,
      221, 218, 216, -1,
      216, 218, 217, -1,
    ]
  }
}

Shape {
  appearance Appearance {
    material Material {
      diffuseColor 0.0000 0.5020 0.0000
      specularColor 0.0000 0.2510 0.0000
      ambientIntensity 0.2
      transparency 0.0000
      shininess 0.5
    }
  }
  geometry IndexedFaceSet {
    ccw TRUE
    solid FALSE
    coord DEF co Coordinate {
      point [
        -0.141230 -0.002643 -0.118110,
        -0.167562 -0.002643 -0.118110,
        -0.152978 0.030246 -0.118110,
        -0.153736 0.032977 -0.118110,
        -0.154238 0.035767 -0.118110,
        -0.154493 0.035767 -0.118110,
        -0.155007 0.032985 -0.118110,
        -0.155709 0.030246 -0.118110,
        -0.072572 0.036728 -0.118110,
        -0.060959 0.036728 -0.118110,
        -0.081892 0.035737 -0.118110,
        -0.088392 0.033463 -0.118110,
        -0.094143 0.029747 -0.118110,
        -0.097968 0.025686 -0.118110,
        -0.100703 0.020830 -0.118110,
        -0.102541 0.014602 -0.118110,
        -0.103210 0.006765 -0.118110,
        -0.102487 -0.001506 -0.118110,
        -0.100178 -0.008907 -0.118110,
        -0.096857 -0.014336 -0.118110,
        -0.092441 -0.018698 -0.118110,
        -0.087070 -0.021887 -0.118110,
        -0.080444 -0.023955 -0.118110,
        -0.072137 -0.024728 -0.118110,
        -0.060959 -0.024728 -0.118110,
      ]
    }
    coordIndex [
      0, 1, 2, -1,
      2, 1, 7, -1,
      2, 7, 3, -1,
      3, 7, 6, -1,
      3, 6, 4, -1,
      4, 6, 5, -1,
      9, 24, 8, -1,
      8, 24, 23, -1,
      8, 23, 22, -1,
      16, 15, 8, -1,
      8, 15, 14, -1,
      8, 14, 10, -1,
      22, 21, 8, -1,
      8, 21, 20, -1,
      8, 20, 19, -1,
      19, 18, 8, -1,
      8, 18, 17, -1,
      8, 17, 16, -1,
      13, 12, 14, -1,
      14, 12, 11, -1,
      14, 11, 10, -1,
    ]
  }
}
