#VRML V2.0 utf8

Shape {
  appearance Appearance {
    material Material {
      diffuseColor 1.0000 1.0000 1.0000
      specularColor 0.5020 0.5020 0.5020
      ambientIntensity 0.2
      transparency 0.0000
      shininess 0.5
    }
  }
  geometry IndexedFaceSet {
    ccw TRUE
    solid FALSE
    coord DEF co Coordinate {
      point [
        1.779528 -0.025591 0.000000,
        2.000000 -0.025591 0.000000,
        2.000000 -0.396095 0.000000,
        -0.247968 -0.753787 0.000000,
        -0.286735 -0.749433 0.000000,
        -0.162825 -0.458204 0.000000,
        -0.482253 -0.398496 0.000000,
        -0.683904 -0.398496 0.000000,
        -0.287250 -0.396095 0.000000,
        -0.078950 -0.398496 0.000000,
        -0.078950 -0.792196 0.000000,
        -0.155769 -0.462112 0.000000,
        -0.155769 -0.418901 0.000000,
        -0.197735 -0.401670 0.000000,
        -0.237518 -0.396095 0.000000,
        -0.200115 -0.747570 0.000000,
        -0.155769 -0.728580 0.000000,
        -0.155769 -0.781394 0.000000,
        0.122702 -0.792196 0.000000,
        0.170715 -1.206693 0.000000,
        -0.342520 -1.206693 0.000000,
        -0.342520 -0.970472 0.000000,
        -0.683904 -0.792196 0.000000,
        -2.000000 -0.396095 0.000000,
        -0.657480 -1.206693 0.000000,
        -1.342520 -1.206693 0.000000,
        -0.657480 -0.970472 0.000000,
        -1.342520 -0.970472 0.000000,
        0.113100 -0.576141 0.000000,
        -0.026136 -0.576141 0.000000,
        -0.026136 -0.441707 0.000000,
        -1.657480 -1.206693 0.000000,
        -2.000000 -1.206693 0.000000,
        -1.657480 -0.970472 0.000000,
        0.132305 -0.441707 0.000000,
        0.132305 -0.398496 0.000000,
        0.170715 -0.396095 0.000000,
        -0.316203 -0.738798 0.000000,
        -0.343453 -0.720569 0.000000,
        -0.367227 -0.694322 0.000000,
        -0.395831 -0.591145 0.000000,
        -0.391844 -0.548525 0.000000,
        -0.381148 -0.514661 0.000000,
        -0.293541 -0.441025 0.000000,
        -0.256820 -0.436906 0.000000,
        -0.322228 -0.451585 0.000000,
        -0.346391 -0.467871 0.000000,
        -0.364865 -0.487361 0.000000,
        -0.204560 -0.442706 0.000000,
        0.113100 -0.619352 0.000000,
        0.122702 -0.748985 0.000000,
        -0.026136 -0.619352 0.000000,
        -0.026136 -0.748985 0.000000,
        -0.383458 -0.663924 0.000000,
        -0.393953 -0.621777 0.000000,
        -0.427866 -0.688501 0.000000,
        -0.404791 -0.725310 0.000000,
        -0.631091 -0.792196 0.000000,
        -0.432988 -0.500651 0.000000,
        -0.482253 -0.441707 0.000000,
        -0.412015 -0.463216 0.000000,
        -0.382443 -0.432083 0.000000,
        -0.631091 -0.441707 0.000000,
        -0.369246 -0.759494 0.000000,
        -0.331851 -0.781019 0.000000,
        -0.287961 -0.793770 0.000000,
        -0.312615 -0.398725 0.000000,
        -0.350774 -0.411860 0.000000,
        -0.444837 -0.542324 0.000000,
        -0.448644 -0.587919 0.000000,
        -0.442981 -0.643892 0.000000,
        -0.248418 -0.796998 0.000000,
        -0.201287 -0.793746 0.000000,
        2.000000 -1.206693 0.000000,
        1.657480 -1.206693 0.000000,
        1.657480 -0.970472 0.000000,
        0.756465 -0.792196 0.000000,
        0.910104 -0.398496 0.000000,
        1.342520 -0.970472 0.000000,
        0.703651 -0.792196 0.000000,
        0.657480 -0.970472 0.000000,
        0.852489 -0.398496 0.000000,
        0.316177 -0.398496 0.000000,
        0.209124 -0.398496 0.000000,
        0.209124 -0.792196 0.000000,
        0.342520 -0.970472 0.000000,
        0.342520 -1.206693 0.000000,
        1.342520 -1.206693 0.000000,
        0.657480 -1.206693 0.000000,
        0.320228 -0.792196 0.000000,
        0.377107 -0.786117 0.000000,
        0.494274 -0.709991 0.000000,
        0.512570 -0.676133 0.000000,
        0.554813 -0.398496 0.000000,
        0.506346 -0.506400 0.000000,
        0.483769 -0.471187 0.000000,
        0.451363 -0.440159 0.000000,
        0.410256 -0.416270 0.000000,
        0.364890 -0.402748 0.000000,
        0.423170 -0.769941 0.000000,
        0.466021 -0.741224 0.000000,
        0.466433 -0.740863 0.000000,
        0.612428 -0.398496 0.000000,
        0.650012 -0.508924 0.000000,
        0.812654 -0.508924 0.000000,
        0.523144 -0.637343 0.000000,
        0.526006 -0.600298 0.000000,
        0.520481 -0.547609 0.000000,
        0.170715 3.320866 0.000000,
        1.779528 3.320866 0.000000,
        -2.000000 -0.025591 0.000000,
        -1.779528 -0.025591 0.000000,
        -0.253332 -0.393879 0.000000,
        -0.264097 -0.393694 0.000000,
        -1.779528 3.320866 0.000000,
        -1.657480 -1.206693 2.283465,
        -2.000000 -1.206693 2.283465,
        1.342520 -1.206693 2.283465,
        0.657480 -1.206693 2.283465,
        0.342520 -1.206693 2.283465,
        -0.342520 -1.206693 2.283465,
        -1.342520 -1.206693 2.283465,
        -0.657480 -1.206693 2.283465,
        1.622047 -0.025591 1.066929,
        1.377953 -0.025591 1.066929,
        -2.000000 -0.025591 2.283465,
        -1.779528 -0.025591 0.314961,
        -0.377953 -0.025591 1.066929,
        -0.622047 -0.025591 1.066929,
        -1.622047 -0.025591 0.822835,
        -1.377953 -0.025591 0.822835,
        1.779528 -0.025591 0.314961,
        0.377953 -0.025591 0.822835,
        0.622047 -0.025591 0.822835,
        -0.377953 -0.025591 0.822835,
        0.377953 -0.025591 1.066929,
        0.622047 -0.025591 1.066929,
        1.377953 -0.025591 0.822835,
        1.622047 -0.025591 0.822835,
        2.000000 -0.025591 2.283465,
        -0.622047 -0.025591 0.822835,
        -1.377953 -0.025591 1.066929,
        -1.622047 -0.025591 1.066929,
        1.657480 -1.206693 2.283465,
        2.000000 -1.206693 2.283465,
        -1.657480 -0.970472 2.283465,
        -1.342520 -0.970472 2.283465,
        -0.342520 -0.970472 2.283465,
        0.342520 -0.970472 2.283465,
        0.657480 -0.970472 2.283465,
        -0.657480 -0.970472 2.283465,
        1.657480 -0.970472 2.283465,
        1.342520 -0.970472 2.283465,
        1.779528 0.426149 0.314961,
        -1.779528 0.426149 0.314961,
        -1.779528 3.320866 0.314961,
        -1.779528 0.919291 0.314961,
        -1.779528 0.761811 0.472441,
        -1.779528 0.583629 0.472441,
        1.779528 3.320866 0.314961,
        1.779528 0.919291 0.314961,
        1.779528 0.761811 0.472441,
        1.779528 0.583629 0.472441,
        -0.622047 -0.970472 0.822835,
        -0.622047 -0.970472 1.066929,
        -0.377953 -0.970472 0.822835,
        -0.377953 -0.970472 1.066929,
        0.377953 -0.970472 0.822835,
        0.377953 -0.970472 1.066929,
        0.622047 -0.970472 0.822835,
        0.622047 -0.970472 1.066929,
        1.377953 -0.970472 0.822835,
        1.377953 -0.970472 1.066929,
        1.622047 -0.970472 0.822835,
        1.622047 -0.970472 1.066929,
        -1.622047 -0.970472 0.822835,
        -1.622047 -0.970472 1.066929,
        -1.377953 -0.970472 0.822835,
        -1.377953 -0.970472 1.066929,
      ]
    }
    coordIndex [
      0, 1, 2, -1,
      3, 4, 5, -1,
      6, 7, 8, -1,
      9, 10, 11, -1,
      11, 12, 9, -1,
      9, 12, 13, -1,
      9, 13, 14, -1,
      3, 5, 15, -1,
      15, 5, 11, -1,
      15, 11, 16, -1,
      16, 11, 10, -1,
      16, 10, 17, -1,
      18, 19, 10, -1,
      10, 19, 20, -1,
      10, 20, 17, -1,
      17, 20, 21, -1,
      7, 22, 23, -1,
      24, 25, 26, -1,
      26, 25, 27, -1,
      28, 29, 30, -1,
      31, 32, 33, -1,
      33, 32, 23, -1,
      34, 35, 36, -1,
      4, 37, 5, -1,
      5, 37, 38, -1,
      5, 38, 39, -1,
      40, 41, 5, -1,
      5, 41, 42, -1,
      43, 44, 45, -1,
      45, 44, 46, -1,
      42, 47, 5, -1,
      5, 47, 46, -1,
      5, 46, 48, -1,
      48, 46, 44, -1,
      30, 34, 28, -1,
      28, 34, 36, -1,
      28, 36, 49, -1,
      49, 36, 50, -1,
      49, 50, 51, -1,
      51, 50, 52, -1,
      39, 53, 5, -1,
      5, 53, 54, -1,
      5, 54, 40, -1,
      55, 56, 57, -1,
      57, 56, 21, -1,
      57, 21, 22, -1,
      22, 21, 26, -1,
      22, 26, 23, -1,
      23, 26, 27, -1,
      23, 27, 33, -1,
      58, 59, 60, -1,
      60, 59, 6, -1,
      60, 6, 61, -1,
      57, 62, 59, -1,
      56, 63, 21, -1,
      21, 63, 64, -1,
      21, 64, 65, -1,
      8, 66, 6, -1,
      6, 66, 67, -1,
      6, 67, 61, -1,
      58, 68, 59, -1,
      59, 68, 69, -1,
      59, 69, 57, -1,
      57, 69, 70, -1,
      57, 70, 55, -1,
      65, 71, 21, -1,
      21, 71, 72, -1,
      21, 72, 17, -1,
      73, 74, 2, -1,
      2, 74, 75, -1,
      76, 77, 78, -1,
      79, 76, 80, -1,
      77, 81, 36, -1,
      82, 83, 36, -1,
      36, 83, 84, -1,
      85, 86, 84, -1,
      84, 86, 19, -1,
      84, 19, 36, -1,
      36, 19, 18, -1,
      36, 18, 50, -1,
      76, 78, 80, -1,
      80, 78, 87, -1,
      80, 87, 88, -1,
      84, 89, 85, -1,
      85, 89, 90, -1,
      85, 90, 80, -1,
      79, 91, 92, -1,
      93, 94, 95, -1,
      95, 96, 93, -1,
      93, 96, 97, -1,
      93, 97, 98, -1,
      90, 99, 80, -1,
      80, 99, 100, -1,
      80, 100, 79, -1,
      79, 100, 101, -1,
      79, 101, 91, -1,
      98, 82, 93, -1,
      93, 82, 36, -1,
      93, 36, 102, -1,
      102, 36, 81, -1,
      102, 81, 103, -1,
      103, 81, 104, -1,
      92, 105, 79, -1,
      79, 105, 106, -1,
      79, 106, 93, -1,
      93, 106, 107, -1,
      93, 107, 94, -1,
      36, 108, 109, -1,
      109, 0, 36, -1,
      36, 0, 2, -1,
      36, 2, 77, -1,
      77, 2, 75, -1,
      77, 75, 78, -1,
      23, 110, 111, -1,
      35, 9, 36, -1,
      36, 9, 14, -1,
      36, 14, 108, -1,
      108, 14, 112, -1,
      108, 112, 113, -1,
      7, 23, 8, -1,
      8, 23, 111, -1,
      8, 111, 113, -1,
      113, 111, 114, -1,
      113, 114, 108, -1,
      115, 116, 31, -1,
      31, 116, 32, -1,
      117, 118, 87, -1,
      87, 118, 88, -1,
      86, 119, 19, -1,
      19, 119, 120, -1,
      19, 120, 20, -1,
      25, 24, 121, -1,
      121, 24, 122, -1,
      123, 124, 125, -1,
      111, 110, 126, -1,
      126, 110, 125, -1,
      127, 128, 125, -1,
      125, 129, 126, -1,
      126, 129, 130, -1,
      126, 130, 131, -1,
      132, 133, 131, -1,
      1, 0, 131, -1,
      134, 127, 135, -1,
      135, 127, 125, -1,
      135, 125, 136, -1,
      136, 125, 124, -1,
      136, 124, 133, -1,
      133, 124, 137, -1,
      133, 137, 131, -1,
      131, 137, 138, -1,
      131, 138, 1, -1,
      1, 138, 123, -1,
      1, 123, 139, -1,
      139, 123, 125, -1,
      135, 132, 134, -1,
      134, 132, 131, -1,
      134, 131, 140, -1,
      140, 131, 130, -1,
      140, 130, 128, -1,
      128, 130, 141, -1,
      128, 141, 125, -1,
      125, 141, 142, -1,
      125, 142, 129, -1,
      32, 116, 23, -1,
      23, 116, 125, -1,
      23, 125, 110, -1,
      74, 73, 143, -1,
      143, 73, 144, -1,
      1, 139, 2, -1,
      2, 139, 144, -1,
      2, 144, 73, -1,
      125, 116, 115, -1,
      115, 145, 125, -1,
      125, 145, 146, -1,
      125, 146, 139, -1,
      147, 120, 119, -1,
      148, 149, 139, -1,
      119, 148, 147, -1,
      147, 148, 139, -1,
      147, 139, 150, -1,
      150, 139, 146, -1,
      150, 146, 122, -1,
      122, 146, 121, -1,
      143, 144, 151, -1,
      151, 144, 139, -1,
      151, 139, 152, -1,
      152, 139, 149, -1,
      152, 149, 117, -1,
      117, 149, 118, -1,
      131, 153, 126, -1,
      126, 153, 154, -1,
      114, 111, 154, -1,
      154, 111, 126, -1,
      155, 114, 156, -1,
      156, 114, 154, -1,
      156, 154, 157, -1,
      157, 154, 158, -1,
      153, 131, 0, -1,
      109, 159, 160, -1,
      161, 162, 160, -1,
      160, 162, 153, -1,
      160, 153, 109, -1,
      109, 153, 0, -1,
      158, 154, 162, -1,
      162, 154, 153, -1,
      157, 158, 161, -1,
      161, 158, 162, -1,
      156, 157, 160, -1,
      160, 157, 161, -1,
      155, 156, 159, -1,
      159, 156, 160, -1,
      114, 155, 108, -1,
      108, 155, 159, -1,
      108, 159, 109, -1,
      150, 122, 26, -1,
      26, 122, 24, -1,
      26, 163, 164, -1,
      163, 26, 165, -1,
      165, 26, 21, -1,
      165, 21, 166, -1,
      166, 21, 147, -1,
      166, 147, 164, -1,
      164, 147, 150, -1,
      164, 150, 26, -1,
      21, 20, 147, -1,
      147, 20, 120, -1,
      148, 119, 85, -1,
      85, 119, 86, -1,
      85, 167, 168, -1,
      167, 85, 169, -1,
      169, 85, 80, -1,
      169, 80, 170, -1,
      170, 80, 149, -1,
      170, 149, 168, -1,
      168, 149, 148, -1,
      168, 148, 85, -1,
      80, 88, 149, -1,
      149, 88, 118, -1,
      152, 117, 78, -1,
      78, 117, 87, -1,
      78, 171, 172, -1,
      171, 78, 173, -1,
      173, 78, 75, -1,
      173, 75, 174, -1,
      174, 75, 151, -1,
      174, 151, 172, -1,
      172, 151, 152, -1,
      172, 152, 78, -1,
      75, 74, 151, -1,
      151, 74, 143, -1,
      145, 115, 33, -1,
      33, 115, 31, -1,
      33, 175, 176, -1,
      175, 33, 177, -1,
      177, 33, 27, -1,
      177, 27, 178, -1,
      178, 27, 146, -1,
      178, 146, 176, -1,
      176, 146, 145, -1,
      176, 145, 33, -1,
      27, 25, 146, -1,
      146, 25, 121, -1,
    ]
  }
}

Shape {
  appearance Appearance {
    material Material {
      diffuseColor 0.7529 0.7529 0.7529
      specularColor 0.3765 0.3765 0.3765
      ambientIntensity 0.2
      transparency 0.0000
      shininess 0.5
    }
  }
  geometry IndexedFaceSet {
    ccw TRUE
    solid FALSE
    coord DEF co Coordinate {
      point [
        1.622047 -0.025591 1.066929,
        1.377953 -0.025591 1.066929,
        -0.377953 -0.025591 1.066929,
        -0.622047 -0.025591 1.066929,
        -1.622047 -0.025591 0.822835,
        -1.377953 -0.025591 0.822835,
        0.377953 -0.025591 0.822835,
        0.622047 -0.025591 0.822835,
        -0.377953 -0.025591 0.822835,
        0.377953 -0.025591 1.066929,
        0.622047 -0.025591 1.066929,
        1.377953 -0.025591 0.822835,
        1.622047 -0.025591 0.822835,
        -0.622047 -0.025591 0.822835,
        -1.377953 -0.025591 1.066929,
        -1.622047 -0.025591 1.066929,
        -0.622047 -0.970472 0.822835,
        -0.622047 -0.970472 1.066929,
        -0.377953 -0.970472 0.822835,
        -0.377953 -0.970472 1.066929,
        0.377953 -0.970472 0.822835,
        0.377953 -0.970472 1.066929,
        0.622047 -0.970472 0.822835,
        0.622047 -0.970472 1.066929,
        1.377953 -0.970472 0.822835,
        1.377953 -0.970472 1.066929,
        1.622047 -0.970472 0.822835,
        1.622047 -0.970472 1.066929,
        -1.622047 -0.970472 0.822835,
        -1.622047 -0.970472 1.066929,
        -1.377953 -0.970472 0.822835,
        -1.377953 -0.970472 1.066929,
        -0.622047 -1.919291 0.822835,
        -0.377953 -1.919291 0.822835,
        -0.622047 -1.938652 0.820286,
        -0.377953 -1.938652 0.820286,
        -0.622047 -1.956693 0.812813,
        -0.377953 -1.956693 0.812813,
        -0.622047 -1.972185 0.800925,
        -0.377953 -1.972185 0.800925,
        -0.622047 -1.984073 0.785433,
        -0.377953 -1.984073 0.785433,
        -0.622047 -1.991546 0.767392,
        -0.377953 -1.991546 0.767392,
        -0.622047 -1.994094 0.748031,
        -0.377953 -1.994094 0.748031,
        -0.622047 -1.994094 -1.141732,
        -0.377953 -1.994094 -1.141732,
        -0.449600 -2.065742 -1.338583,
        -0.449600 -2.166541 -1.338583,
        -0.550400 -2.065742 -1.338583,
        -0.550400 -2.166541 -1.338583,
        -0.377953 -2.238189 -1.141732,
        -0.377953 -2.238189 0.748031,
        -0.622047 -2.238189 -1.141732,
        -0.622047 -2.238189 0.748031,
        -0.377953 -2.227323 0.830568,
        -0.622047 -2.227323 0.830568,
        -0.377953 -2.195465 0.907480,
        -0.622047 -2.195465 0.907480,
        -0.377953 -2.144786 0.973526,
        -0.622047 -2.144786 0.973526,
        -0.377953 -2.078740 1.024205,
        -0.622047 -2.078740 1.024205,
        -0.377953 -2.001828 1.056063,
        -0.622047 -2.001828 1.056063,
        -0.377953 -1.919291 1.066929,
        -0.622047 -1.919291 1.066929,
        -0.622047 2.533465 1.066929,
        -0.377953 2.533465 1.066929,
        -0.377953 2.533465 0.822835,
        -0.622047 2.533465 0.822835,
        -0.449600 2.730315 0.995281,
        -0.449600 2.730315 0.894482,
        -0.550400 2.730315 0.995281,
        -0.550400 2.730315 0.894482,
        -1.622047 -1.919291 0.822835,
        -1.377953 -1.919291 0.822835,
        -1.622047 -1.938652 0.820286,
        -1.377953 -1.938652 0.820286,
        -1.622047 -1.956693 0.812813,
        -1.377953 -1.956693 0.812813,
        -1.622047 -1.972185 0.800925,
        -1.377953 -1.972185 0.800925,
        -1.622047 -1.984073 0.785433,
        -1.377953 -1.984073 0.785433,
        -1.622047 -1.991546 0.767392,
        -1.377953 -1.991546 0.767392,
        -1.622047 -1.994094 0.748031,
        -1.377953 -1.994094 0.748031,
        -1.622047 -1.994094 -1.141732,
        -1.377953 -1.994094 -1.141732,
        -1.449600 -2.065742 -1.338583,
        -1.449600 -2.166541 -1.338583,
        -1.550400 -2.065742 -1.338583,
        -1.550400 -2.166541 -1.338583,
        -1.377953 -2.238189 -1.141732,
        -1.377953 -2.238189 0.748031,
        -1.622047 -2.238189 -1.141732,
        -1.622047 -2.238189 0.748031,
        -1.377953 -2.227323 0.830568,
        -1.622047 -2.227323 0.830568,
        -1.377953 -2.195465 0.907480,
        -1.622047 -2.195465 0.907480,
        -1.377953 -2.144786 0.973526,
        -1.622047 -2.144786 0.973526,
        -1.377953 -2.078740 1.024205,
        -1.622047 -2.078740 1.024205,
        -1.377953 -2.001828 1.056063,
        -1.622047 -2.001828 1.056063,
        -1.377953 -1.919291 1.066929,
        -1.622047 -1.919291 1.066929,
        -1.622047 2.533465 1.066929,
        -1.377953 2.533465 1.066929,
        -1.377953 2.533465 0.822835,
        -1.622047 2.533465 0.822835,
        -1.449600 2.730315 0.995281,
        -1.449600 2.730315 0.894482,
        -1.550400 2.730315 0.995281,
        -1.550400 2.730315 0.894482,
        0.377953 -1.919291 0.822835,
        0.622047 -1.919291 0.822835,
        0.377953 -1.938652 0.820286,
        0.622047 -1.938652 0.820286,
        0.377953 -1.956693 0.812813,
        0.622047 -1.956693 0.812813,
        0.377953 -1.972185 0.800925,
        0.622047 -1.972185 0.800925,
        0.377953 -1.984073 0.785433,
        0.622047 -1.984073 0.785433,
        0.377953 -1.991546 0.767392,
        0.622047 -1.991546 0.767392,
        0.377953 -1.994094 0.748031,
        0.622047 -1.994094 0.748031,
        0.377953 -1.994094 -1.141732,
        0.622047 -1.994094 -1.141732,
        0.550400 -2.065742 -1.338583,
        0.550400 -2.166541 -1.338583,
        0.449600 -2.065742 -1.338583,
        0.449600 -2.166541 -1.338583,
        0.622047 -2.238189 -1.141732,
        0.622047 -2.238189 0.748031,
        0.377953 -2.238189 -1.141732,
        0.377953 -2.238189 0.748031,
        0.622047 -2.227323 0.830568,
        0.377953 -2.227323 0.830568,
        0.622047 -2.195465 0.907480,
        0.377953 -2.195465 0.907480,
        0.622047 -2.144786 0.973526,
        0.377953 -2.144786 0.973526,
        0.622047 -2.078740 1.024205,
        0.377953 -2.078740 1.024205,
        0.622047 -2.001828 1.056063,
        0.377953 -2.001828 1.056063,
        0.622047 -1.919291 1.066929,
        0.377953 -1.919291 1.066929,
        0.377953 2.533465 1.066929,
        0.622047 2.533465 1.066929,
        0.622047 2.533465 0.822835,
        0.377953 2.533465 0.822835,
        0.550400 2.730315 0.995281,
        0.550400 2.730315 0.894482,
        0.449600 2.730315 0.995281,
        0.449600 2.730315 0.894482,
        1.377953 -1.919291 0.822835,
        1.622047 -1.919291 0.822835,
        1.377953 -1.938652 0.820286,
        1.622047 -1.938652 0.820286,
        1.377953 -1.956693 0.812813,
        1.622047 -1.956693 0.812813,
        1.377953 -1.972185 0.800925,
        1.622047 -1.972185 0.800925,
        1.377953 -1.984073 0.785433,
        1.622047 -1.984073 0.785433,
        1.377953 -1.991546 0.767392,
        1.622047 -1.991546 0.767392,
        1.377953 -1.994094 0.748031,
        1.622047 -1.994094 0.748031,
        1.377953 -1.994094 -1.141732,
        1.622047 -1.994094 -1.141732,
        1.550400 -2.065742 -1.338583,
        1.550400 -2.166541 -1.338583,
        1.449600 -2.065742 -1.338583,
        1.449600 -2.166541 -1.338583,
        1.622047 -2.238189 -1.141732,
        1.622047 -2.238189 0.748031,
        1.377953 -2.238189 -1.141732,
        1.377953 -2.238189 0.748031,
        1.622047 -2.227323 0.830568,
        1.377953 -2.227323 0.830568,
        1.622047 -2.195465 0.907480,
        1.377953 -2.195465 0.907480,
        1.622047 -2.144786 0.973526,
        1.377953 -2.144786 0.973526,
        1.622047 -2.078740 1.024205,
        1.377953 -2.078740 1.024205,
        1.622047 -2.001828 1.056063,
        1.377953 -2.001828 1.056063,
        1.622047 -1.919291 1.066929,
        1.377953 -1.919291 1.066929,
        1.377953 2.533465 1.066929,
        1.622047 2.533465 1.066929,
        1.622047 2.533465 0.822835,
        1.377953 2.533465 0.822835,
        1.550400 2.730315 0.995281,
        1.550400 2.730315 0.894482,
        1.449600 2.730315 0.995281,
        1.449600 2.730315 0.894482,
      ]
    }
    coordIndex [
      32, 33, 34, -1,
      34, 33, 35, -1,
      34, 35, 36, -1,
      36, 35, 37, -1,
      36, 37, 38, -1,
      38, 37, 39, -1,
      38, 39, 40, -1,
      40, 39, 41, -1,
      40, 41, 42, -1,
      42, 41, 43, -1,
      42, 43, 44, -1,
      44, 43, 45, -1,
      46, 44, 47, -1,
      47, 44, 45, -1,
      48, 49, 50, -1,
      50, 49, 51, -1,
      52, 53, 54, -1,
      54, 53, 55, -1,
      55, 53, 56, -1,
      55, 56, 57, -1,
      57, 56, 58, -1,
      57, 58, 59, -1,
      59, 58, 60, -1,
      59, 60, 61, -1,
      61, 60, 62, -1,
      61, 62, 63, -1,
      63, 62, 64, -1,
      63, 64, 65, -1,
      65, 64, 66, -1,
      65, 66, 67, -1,
      18, 19, 33, -1,
      33, 19, 66, -1,
      33, 66, 35, -1,
      35, 66, 64, -1,
      35, 64, 37, -1,
      37, 64, 62, -1,
      37, 62, 39, -1,
      39, 62, 60, -1,
      39, 60, 41, -1,
      41, 60, 58, -1,
      41, 58, 43, -1,
      43, 58, 56, -1,
      43, 56, 45, -1,
      45, 56, 53, -1,
      45, 53, 47, -1,
      47, 53, 52, -1,
      46, 54, 44, -1,
      44, 54, 55, -1,
      44, 55, 42, -1,
      42, 55, 57, -1,
      42, 57, 40, -1,
      40, 57, 59, -1,
      40, 59, 38, -1,
      38, 59, 61, -1,
      38, 61, 36, -1,
      36, 61, 63, -1,
      36, 63, 34, -1,
      34, 63, 65, -1,
      34, 65, 32, -1,
      32, 65, 67, -1,
      32, 67, 16, -1,
      16, 67, 17, -1,
      18, 33, 16, -1,
      16, 33, 32, -1,
      67, 66, 17, -1,
      17, 66, 19, -1,
      68, 3, 69, -1,
      69, 3, 2, -1,
      70, 8, 71, -1,
      71, 8, 13, -1,
      71, 13, 68, -1,
      68, 13, 3, -1,
      69, 2, 70, -1,
      70, 2, 8, -1,
      72, 73, 74, -1,
      74, 73, 75, -1,
      54, 51, 52, -1,
      52, 51, 49, -1,
      46, 50, 54, -1,
      54, 50, 51, -1,
      48, 47, 49, -1,
      49, 47, 52, -1,
      47, 48, 46, -1,
      46, 48, 50, -1,
      71, 75, 70, -1,
      70, 75, 73, -1,
      68, 74, 71, -1,
      71, 74, 75, -1,
      72, 69, 73, -1,
      73, 69, 70, -1,
      69, 72, 68, -1,
      68, 72, 74, -1,
      76, 77, 78, -1,
      78, 77, 79, -1,
      78, 79, 80, -1,
      80, 79, 81, -1,
      80, 81, 82, -1,
      82, 81, 83, -1,
      82, 83, 84, -1,
      84, 83, 85, -1,
      84, 85, 86, -1,
      86, 85, 87, -1,
      86, 87, 88, -1,
      88, 87, 89, -1,
      90, 88, 91, -1,
      91, 88, 89, -1,
      92, 93, 94, -1,
      94, 93, 95, -1,
      96, 97, 98, -1,
      98, 97, 99, -1,
      99, 97, 100, -1,
      99, 100, 101, -1,
      101, 100, 102, -1,
      101, 102, 103, -1,
      103, 102, 104, -1,
      103, 104, 105, -1,
      105, 104, 106, -1,
      105, 106, 107, -1,
      107, 106, 108, -1,
      107, 108, 109, -1,
      109, 108, 110, -1,
      109, 110, 111, -1,
      30, 31, 77, -1,
      77, 31, 110, -1,
      77, 110, 79, -1,
      79, 110, 108, -1,
      79, 108, 81, -1,
      81, 108, 106, -1,
      81, 106, 83, -1,
      83, 106, 104, -1,
      83, 104, 85, -1,
      85, 104, 102, -1,
      85, 102, 87, -1,
      87, 102, 100, -1,
      87, 100, 89, -1,
      89, 100, 97, -1,
      89, 97, 91, -1,
      91, 97, 96, -1,
      90, 98, 88, -1,
      88, 98, 99, -1,
      88, 99, 86, -1,
      86, 99, 101, -1,
      86, 101, 84, -1,
      84, 101, 103, -1,
      84, 103, 82, -1,
      82, 103, 105, -1,
      82, 105, 80, -1,
      80, 105, 107, -1,
      80, 107, 78, -1,
      78, 107, 109, -1,
      78, 109, 76, -1,
      76, 109, 111, -1,
      76, 111, 28, -1,
      28, 111, 29, -1,
      30, 77, 28, -1,
      28, 77, 76, -1,
      111, 110, 29, -1,
      29, 110, 31, -1,
      112, 15, 113, -1,
      113, 15, 14, -1,
      114, 5, 115, -1,
      115, 5, 4, -1,
      115, 4, 112, -1,
      112, 4, 15, -1,
      113, 14, 114, -1,
      114, 14, 5, -1,
      116, 117, 118, -1,
      118, 117, 119, -1,
      120, 121, 122, -1,
      122, 121, 123, -1,
      122, 123, 124, -1,
      124, 123, 125, -1,
      124, 125, 126, -1,
      126, 125, 127, -1,
      126, 127, 128, -1,
      128, 127, 129, -1,
      128, 129, 130, -1,
      130, 129, 131, -1,
      130, 131, 132, -1,
      132, 131, 133, -1,
      134, 132, 135, -1,
      135, 132, 133, -1,
      136, 137, 138, -1,
      138, 137, 139, -1,
      140, 141, 142, -1,
      142, 141, 143, -1,
      143, 141, 144, -1,
      143, 144, 145, -1,
      145, 144, 146, -1,
      145, 146, 147, -1,
      147, 146, 148, -1,
      147, 148, 149, -1,
      149, 148, 150, -1,
      149, 150, 151, -1,
      151, 150, 152, -1,
      151, 152, 153, -1,
      153, 152, 154, -1,
      153, 154, 155, -1,
      22, 23, 121, -1,
      121, 23, 154, -1,
      121, 154, 123, -1,
      123, 154, 152, -1,
      123, 152, 125, -1,
      125, 152, 150, -1,
      125, 150, 127, -1,
      127, 150, 148, -1,
      127, 148, 129, -1,
      129, 148, 146, -1,
      129, 146, 131, -1,
      131, 146, 144, -1,
      131, 144, 133, -1,
      133, 144, 141, -1,
      133, 141, 135, -1,
      135, 141, 140, -1,
      134, 142, 132, -1,
      132, 142, 143, -1,
      132, 143, 130, -1,
      130, 143, 145, -1,
      130, 145, 128, -1,
      128, 145, 147, -1,
      128, 147, 126, -1,
      126, 147, 149, -1,
      126, 149, 124, -1,
      124, 149, 151, -1,
      124, 151, 122, -1,
      122, 151, 153, -1,
      122, 153, 120, -1,
      120, 153, 155, -1,
      120, 155, 20, -1,
      20, 155, 21, -1,
      22, 121, 20, -1,
      20, 121, 120, -1,
      155, 154, 21, -1,
      21, 154, 23, -1,
      156, 9, 157, -1,
      157, 9, 10, -1,
      158, 7, 159, -1,
      159, 7, 6, -1,
      159, 6, 156, -1,
      156, 6, 9, -1,
      157, 10, 158, -1,
      158, 10, 7, -1,
      160, 161, 162, -1,
      162, 161, 163, -1,
      164, 165, 166, -1,
      166, 165, 167, -1,
      166, 167, 168, -1,
      168, 167, 169, -1,
      168, 169, 170, -1,
      170, 169, 171, -1,
      170, 171, 172, -1,
      172, 171, 173, -1,
      172, 173, 174, -1,
      174, 173, 175, -1,
      174, 175, 176, -1,
      176, 175, 177, -1,
      178, 176, 179, -1,
      179, 176, 177, -1,
      180, 181, 182, -1,
      182, 181, 183, -1,
      184, 185, 186, -1,
      186, 185, 187, -1,
      187, 185, 188, -1,
      187, 188, 189, -1,
      189, 188, 190, -1,
      189, 190, 191, -1,
      191, 190, 192, -1,
      191, 192, 193, -1,
      193, 192, 194, -1,
      193, 194, 195, -1,
      195, 194, 196, -1,
      195, 196, 197, -1,
      197, 196, 198, -1,
      197, 198, 199, -1,
      26, 27, 165, -1,
      165, 27, 198, -1,
      165, 198, 167, -1,
      167, 198, 196, -1,
      167, 196, 169, -1,
      169, 196, 194, -1,
      169, 194, 171, -1,
      171, 194, 192, -1,
      171, 192, 173, -1,
      173, 192, 190, -1,
      173, 190, 175, -1,
      175, 190, 188, -1,
      175, 188, 177, -1,
      177, 188, 185, -1,
      177, 185, 179, -1,
      179, 185, 184, -1,
      178, 186, 176, -1,
      176, 186, 187, -1,
      176, 187, 174, -1,
      174, 187, 189, -1,
      174, 189, 172, -1,
      172, 189, 191, -1,
      172, 191, 170, -1,
      170, 191, 193, -1,
      170, 193, 168, -1,
      168, 193, 195, -1,
      168, 195, 166, -1,
      166, 195, 197, -1,
      166, 197, 164, -1,
      164, 197, 199, -1,
      164, 199, 24, -1,
      24, 199, 25, -1,
      26, 165, 24, -1,
      24, 165, 164, -1,
      199, 198, 25, -1,
      25, 198, 27, -1,
      200, 1, 201, -1,
      201, 1, 0, -1,
      202, 12, 203, -1,
      203, 12, 11, -1,
      203, 11, 200, -1,
      200, 11, 1, -1,
      201, 0, 202, -1,
      202, 0, 12, -1,
      204, 205, 206, -1,
      206, 205, 207, -1,
      98, 95, 96, -1,
      96, 95, 93, -1,
      90, 94, 98, -1,
      98, 94, 95, -1,
      92, 91, 93, -1,
      93, 91, 96, -1,
      91, 92, 90, -1,
      90, 92, 94, -1,
      115, 119, 114, -1,
      114, 119, 117, -1,
      112, 118, 115, -1,
      115, 118, 119, -1,
      116, 113, 117, -1,
      117, 113, 114, -1,
      113, 116, 112, -1,
      112, 116, 118, -1,
      142, 139, 140, -1,
      140, 139, 137, -1,
      134, 138, 142, -1,
      142, 138, 139, -1,
      136, 135, 137, -1,
      137, 135, 140, -1,
      135, 136, 134, -1,
      134, 136, 138, -1,
      159, 163, 158, -1,
      158, 163, 161, -1,
      156, 162, 159, -1,
      159, 162, 163, -1,
      160, 157, 161, -1,
      161, 157, 158, -1,
      157, 160, 156, -1,
      156, 160, 162, -1,
      186, 183, 184, -1,
      184, 183, 181, -1,
      178, 182, 186, -1,
      186, 182, 183, -1,
      180, 179, 181, -1,
      181, 179, 184, -1,
      179, 180, 178, -1,
      178, 180, 182, -1,
      203, 207, 202, -1,
      202, 207, 205, -1,
      200, 206, 203, -1,
      203, 206, 207, -1,
      204, 201, 205, -1,
      205, 201, 202, -1,
      201, 204, 200, -1,
      200, 204, 206, -1,
    ]
  }
}

Shape {
  appearance Appearance {
    material Material {
      diffuseColor 0.0000 0.0000 0.0000
      specularColor 0.0000 0.0000 0.0000
      ambientIntensity 0.2
      transparency 0.0000
      shininess 0.5
    }
  }
  geometry IndexedFaceSet {
    ccw TRUE
    solid FALSE
    coord DEF co Coordinate {
      point [
        -0.247968 -0.753787 0.000000,
        -0.286735 -0.749433 0.000000,
        -0.162825 -0.458204 0.000000,
        -0.482253 -0.398496 0.000000,
        -0.683904 -0.398496 0.000000,
        -0.287250 -0.396095 0.000000,
        -0.078950 -0.398496 0.000000,
        -0.078950 -0.792196 0.000000,
        -0.155769 -0.462112 0.000000,
        -0.155769 -0.418901 0.000000,
        -0.197735 -0.401670 0.000000,
        -0.237518 -0.396095 0.000000,
        -0.200115 -0.747570 0.000000,
        -0.155769 -0.728580 0.000000,
        -0.155769 -0.781394 0.000000,
        0.122702 -0.792196 0.000000,
        -0.683904 -0.792196 0.000000,
        0.113100 -0.576141 0.000000,
        -0.026136 -0.576141 0.000000,
        -0.026136 -0.441707 0.000000,
        0.132305 -0.441707 0.000000,
        0.132305 -0.398496 0.000000,
        -0.316203 -0.738798 0.000000,
        -0.343453 -0.720569 0.000000,
        -0.367227 -0.694322 0.000000,
        -0.395831 -0.591145 0.000000,
        -0.391844 -0.548525 0.000000,
        -0.381148 -0.514661 0.000000,
        -0.293541 -0.441025 0.000000,
        -0.256820 -0.436906 0.000000,
        -0.322228 -0.451585 0.000000,
        -0.346391 -0.467871 0.000000,
        -0.364865 -0.487361 0.000000,
        -0.204560 -0.442706 0.000000,
        0.113100 -0.619352 0.000000,
        0.122702 -0.748985 0.000000,
        -0.026136 -0.619352 0.000000,
        -0.026136 -0.748985 0.000000,
        -0.383458 -0.663924 0.000000,
        -0.393953 -0.621777 0.000000,
        -0.427866 -0.688501 0.000000,
        -0.404791 -0.725310 0.000000,
        -0.631091 -0.792196 0.000000,
        -0.432988 -0.500651 0.000000,
        -0.482253 -0.441707 0.000000,
        -0.412015 -0.463216 0.000000,
        -0.382443 -0.432083 0.000000,
        -0.631091 -0.441707 0.000000,
        -0.369246 -0.759494 0.000000,
        -0.331851 -0.781019 0.000000,
        -0.287961 -0.793770 0.000000,
        -0.312615 -0.398725 0.000000,
        -0.350774 -0.411860 0.000000,
        -0.444837 -0.542324 0.000000,
        -0.448644 -0.587919 0.000000,
        -0.442981 -0.643892 0.000000,
        -0.248418 -0.796998 0.000000,
        -0.201287 -0.793746 0.000000,
        0.756465 -0.792196 0.000000,
        0.910104 -0.398496 0.000000,
        0.703651 -0.792196 0.000000,
        0.852489 -0.398496 0.000000,
        0.316177 -0.398496 0.000000,
        0.209124 -0.398496 0.000000,
        0.209124 -0.792196 0.000000,
        0.320228 -0.792196 0.000000,
        0.377107 -0.786117 0.000000,
        0.494274 -0.709991 0.000000,
        0.512570 -0.676133 0.000000,
        0.554813 -0.398496 0.000000,
        0.506346 -0.506400 0.000000,
        0.483769 -0.471187 0.000000,
        0.451363 -0.440159 0.000000,
        0.410256 -0.416270 0.000000,
        0.364890 -0.402748 0.000000,
        0.423170 -0.769941 0.000000,
        0.466021 -0.741224 0.000000,
        0.466433 -0.740863 0.000000,
        0.612428 -0.398496 0.000000,
        0.650012 -0.508924 0.000000,
        0.812654 -0.508924 0.000000,
        0.523144 -0.637343 0.000000,
        0.526006 -0.600298 0.000000,
        0.520481 -0.547609 0.000000,
        -0.253332 -0.393879 0.000000,
        -0.264097 -0.393694 0.000000,
        0.756465 -0.792196 0.000394,
        0.910104 -0.398496 0.000394,
        0.852489 -0.398496 0.000394,
        0.812654 -0.508924 0.000394,
        0.650012 -0.508924 0.000394,
        0.612428 -0.398496 0.000394,
        0.554813 -0.398496 0.000394,
        0.703651 -0.792196 0.000394,
        0.663291 -0.552135 0.000394,
        0.722031 -0.716577 0.000394,
        0.725820 -0.730231 0.000394,
        0.728332 -0.744184 0.000394,
        0.729607 -0.744184 0.000394,
        0.732176 -0.730274 0.000394,
        0.794949 -0.552135 0.000394,
        0.735684 -0.716577 0.000394,
        0.663291 -0.552135 0.000000,
        0.794949 -0.552135 0.000000,
        0.722031 -0.716577 0.000000,
        0.725820 -0.730231 0.000000,
        0.728332 -0.744184 0.000000,
        0.729607 -0.744184 0.000000,
        0.732176 -0.730274 0.000000,
        0.735684 -0.716577 0.000000,
        0.316177 -0.398496 0.000394,
        0.209124 -0.398496 0.000394,
        0.209124 -0.792196 0.000394,
        0.320228 -0.792196 0.000394,
        0.526006 -0.600298 0.000394,
        0.523144 -0.637343 0.000394,
        0.512570 -0.676133 0.000394,
        0.494274 -0.709991 0.000394,
        0.466433 -0.740863 0.000394,
        0.466021 -0.741224 0.000394,
        0.423170 -0.769941 0.000394,
        0.377107 -0.786117 0.000394,
        0.364890 -0.402748 0.000394,
        0.410256 -0.416270 0.000394,
        0.451363 -0.440159 0.000394,
        0.483769 -0.471187 0.000394,
        0.506346 -0.506400 0.000394,
        0.520481 -0.547609 0.000394,
        0.446979 -0.693777 0.000394,
        0.427856 -0.714081 0.000394,
        0.399098 -0.732660 0.000394,
        0.366601 -0.744032 0.000394,
        0.320003 -0.748985 0.000394,
        0.261938 -0.748985 0.000394,
        0.261938 -0.441707 0.000394,
        0.317827 -0.441707 0.000394,
        0.359363 -0.445573 0.000394,
        0.392493 -0.455914 0.000394,
        0.419343 -0.471858 0.000394,
        0.441425 -0.493669 0.000394,
        0.458030 -0.520813 0.000394,
        0.469577 -0.557821 0.000394,
        0.473192 -0.599172 0.000394,
        0.469847 -0.638355 0.000394,
        0.460657 -0.669494 0.000394,
        0.320003 -0.748985 0.000000,
        0.261938 -0.748985 0.000000,
        0.366601 -0.744032 0.000000,
        0.399098 -0.732660 0.000000,
        0.427856 -0.714081 0.000000,
        0.446979 -0.693777 0.000000,
        0.460657 -0.669494 0.000000,
        0.469847 -0.638355 0.000000,
        0.473192 -0.599172 0.000000,
        0.469577 -0.557821 0.000000,
        0.458030 -0.520813 0.000000,
        0.441425 -0.493669 0.000000,
        0.419343 -0.471858 0.000000,
        0.392493 -0.455914 -0.000000,
        0.359363 -0.445573 0.000000,
        0.317827 -0.441707 0.000000,
        0.261938 -0.441707 0.000000,
        0.132305 -0.441707 0.000394,
        0.132305 -0.398496 0.000394,
        -0.078950 -0.398496 0.000394,
        -0.078950 -0.792196 0.000394,
        0.122702 -0.792196 0.000394,
        0.122702 -0.748985 0.000394,
        -0.026136 -0.748985 0.000394,
        -0.026136 -0.619352 0.000394,
        0.113100 -0.619352 0.000394,
        0.113100 -0.576141 0.000394,
        -0.026136 -0.576141 0.000394,
        -0.026136 -0.441707 0.000394,
        -0.155769 -0.462112 0.000394,
        -0.155769 -0.418901 0.000394,
        -0.197735 -0.401670 0.000394,
        -0.264097 -0.393694 0.000394,
        -0.253332 -0.393879 0.000394,
        -0.312615 -0.398725 0.000394,
        -0.350774 -0.411860 0.000394,
        -0.382443 -0.432083 0.000394,
        -0.412015 -0.463216 0.000394,
        -0.432988 -0.500651 0.000394,
        -0.444837 -0.542324 0.000394,
        -0.448644 -0.587919 0.000394,
        -0.248418 -0.796998 0.000394,
        -0.287961 -0.793770 0.000394,
        -0.331851 -0.781019 0.000394,
        -0.369246 -0.759494 0.000394,
        -0.404791 -0.725310 0.000394,
        -0.427866 -0.688501 0.000394,
        -0.442981 -0.643892 0.000394,
        -0.155769 -0.781394 0.000394,
        -0.201287 -0.793746 0.000394,
        -0.155769 -0.728580 0.000394,
        -0.247968 -0.753787 0.000394,
        -0.200115 -0.747570 0.000394,
        -0.395831 -0.591145 0.000394,
        -0.393953 -0.621777 0.000394,
        -0.383458 -0.663924 0.000394,
        -0.367227 -0.694322 0.000394,
        -0.343453 -0.720569 0.000394,
        -0.316203 -0.738798 0.000394,
        -0.286735 -0.749433 0.000394,
        -0.256820 -0.436906 0.000394,
        -0.293541 -0.441025 0.000394,
        -0.322228 -0.451585 0.000394,
        -0.346391 -0.467871 0.000394,
        -0.364865 -0.487361 0.000394,
        -0.381148 -0.514661 0.000394,
        -0.391844 -0.548525 0.000394,
        -0.162825 -0.458204 0.000394,
        -0.204560 -0.442706 0.000394,
        -0.482253 -0.441707 0.000394,
        -0.482253 -0.398496 0.000394,
        -0.683904 -0.398496 0.000394,
        -0.683904 -0.792196 0.000394,
        -0.631091 -0.792196 0.000394,
        -0.631091 -0.441707 0.000394,
      ]
    }
    coordIndex [
      86, 87, 58, -1,
      58, 87, 59, -1,
      87, 88, 59, -1,
      59, 88, 61, -1,
      88, 89, 61, -1,
      61, 89, 80, -1,
      89, 90, 80, -1,
      80, 90, 79, -1,
      90, 91, 79, -1,
      79, 91, 78, -1,
      91, 92, 78, -1,
      78, 92, 69, -1,
      92, 93, 69, -1,
      69, 93, 60, -1,
      93, 86, 60, -1,
      60, 86, 58, -1,
      94, 95, 93, -1,
      92, 91, 90, -1,
      95, 96, 93, -1,
      93, 96, 97, -1,
      93, 97, 86, -1,
      86, 97, 98, -1,
      86, 98, 99, -1,
      93, 92, 94, -1,
      94, 92, 90, -1,
      94, 90, 100, -1,
      100, 90, 89, -1,
      99, 101, 86, -1,
      86, 101, 100, -1,
      86, 100, 87, -1,
      87, 100, 89, -1,
      87, 89, 88, -1,
      94, 100, 102, -1,
      102, 100, 103, -1,
      95, 94, 104, -1,
      104, 94, 102, -1,
      95, 104, 105, -1,
      95, 105, 96, -1,
      96, 105, 106, -1,
      96, 106, 97, -1,
      98, 97, 107, -1,
      107, 97, 106, -1,
      98, 107, 108, -1,
      98, 108, 99, -1,
      99, 108, 109, -1,
      99, 109, 101, -1,
      100, 101, 103, -1,
      103, 101, 109, -1,
      110, 111, 62, -1,
      62, 111, 63, -1,
      111, 112, 63, -1,
      63, 112, 64, -1,
      112, 113, 64, -1,
      64, 113, 65, -1,
      114, 82, 81, -1,
      114, 81, 115, -1,
      115, 81, 68, -1,
      115, 68, 116, -1,
      116, 68, 67, -1,
      116, 67, 117, -1,
      117, 67, 77, -1,
      117, 77, 118, -1,
      118, 77, 76, -1,
      118, 76, 119, -1,
      119, 76, 75, -1,
      119, 75, 120, -1,
      120, 75, 66, -1,
      120, 66, 121, -1,
      121, 66, 65, -1,
      121, 65, 113, -1,
      110, 62, 74, -1,
      110, 74, 122, -1,
      122, 74, 73, -1,
      122, 73, 123, -1,
      123, 73, 72, -1,
      123, 72, 124, -1,
      124, 72, 71, -1,
      124, 71, 125, -1,
      125, 71, 70, -1,
      125, 70, 126, -1,
      126, 70, 83, -1,
      126, 83, 127, -1,
      127, 83, 82, -1,
      127, 82, 114, -1,
      116, 117, 128, -1,
      128, 117, 118, -1,
      128, 118, 129, -1,
      129, 118, 119, -1,
      129, 119, 130, -1,
      130, 119, 120, -1,
      130, 120, 131, -1,
      131, 120, 121, -1,
      131, 121, 132, -1,
      132, 121, 113, -1,
      132, 113, 133, -1,
      133, 113, 112, -1,
      133, 112, 134, -1,
      134, 112, 111, -1,
      134, 111, 135, -1,
      135, 111, 110, -1,
      135, 110, 136, -1,
      136, 110, 122, -1,
      136, 122, 137, -1,
      137, 122, 123, -1,
      137, 123, 138, -1,
      138, 123, 124, -1,
      138, 124, 139, -1,
      139, 124, 125, -1,
      139, 125, 140, -1,
      140, 125, 126, -1,
      140, 126, 141, -1,
      141, 126, 127, -1,
      141, 127, 142, -1,
      142, 127, 114, -1,
      142, 114, 143, -1,
      143, 114, 115, -1,
      143, 115, 144, -1,
      144, 115, 116, -1,
      144, 116, 128, -1,
      132, 133, 145, -1,
      145, 133, 146, -1,
      132, 145, 147, -1,
      132, 147, 131, -1,
      131, 147, 148, -1,
      131, 148, 130, -1,
      130, 148, 149, -1,
      130, 149, 129, -1,
      129, 149, 150, -1,
      129, 150, 128, -1,
      128, 150, 151, -1,
      128, 151, 144, -1,
      144, 151, 152, -1,
      144, 152, 143, -1,
      143, 152, 153, -1,
      143, 153, 142, -1,
      142, 153, 154, -1,
      142, 154, 141, -1,
      141, 154, 155, -1,
      141, 155, 140, -1,
      140, 155, 156, -1,
      140, 156, 139, -1,
      139, 156, 157, -1,
      139, 157, 138, -1,
      138, 157, 158, -1,
      138, 158, 137, -1,
      137, 158, 159, -1,
      137, 159, 136, -1,
      136, 159, 160, -1,
      136, 160, 135, -1,
      134, 135, 161, -1,
      161, 135, 160, -1,
      133, 134, 146, -1,
      146, 134, 161, -1,
      162, 163, 20, -1,
      20, 163, 21, -1,
      163, 164, 21, -1,
      21, 164, 6, -1,
      164, 165, 6, -1,
      6, 165, 7, -1,
      165, 166, 7, -1,
      7, 166, 15, -1,
      166, 167, 15, -1,
      15, 167, 35, -1,
      167, 168, 35, -1,
      35, 168, 37, -1,
      168, 169, 37, -1,
      37, 169, 36, -1,
      169, 170, 36, -1,
      36, 170, 34, -1,
      170, 171, 34, -1,
      34, 171, 17, -1,
      171, 172, 17, -1,
      17, 172, 18, -1,
      172, 173, 18, -1,
      18, 173, 19, -1,
      173, 162, 19, -1,
      19, 162, 20, -1,
      164, 163, 162, -1,
      162, 173, 164, -1,
      164, 173, 172, -1,
      164, 172, 165, -1,
      167, 166, 168, -1,
      168, 166, 165, -1,
      168, 165, 169, -1,
      169, 165, 172, -1,
      169, 172, 170, -1,
      170, 172, 171, -1,
      174, 175, 8, -1,
      8, 175, 9, -1,
      9, 175, 176, -1,
      177, 85, 84, -1,
      177, 84, 178, -1,
      178, 84, 11, -1,
      178, 11, 176, -1,
      176, 11, 10, -1,
      176, 10, 9, -1,
      85, 177, 5, -1,
      5, 177, 179, -1,
      5, 179, 51, -1,
      51, 179, 180, -1,
      51, 180, 52, -1,
      52, 180, 181, -1,
      52, 181, 46, -1,
      46, 181, 182, -1,
      46, 182, 45, -1,
      45, 182, 183, -1,
      45, 183, 43, -1,
      43, 183, 184, -1,
      43, 184, 53, -1,
      53, 184, 185, -1,
      53, 185, 54, -1,
      186, 56, 50, -1,
      186, 50, 187, -1,
      187, 50, 49, -1,
      187, 49, 188, -1,
      188, 49, 48, -1,
      188, 48, 189, -1,
      189, 48, 41, -1,
      189, 41, 190, -1,
      190, 41, 40, -1,
      190, 40, 191, -1,
      191, 40, 55, -1,
      191, 55, 192, -1,
      192, 55, 54, -1,
      192, 54, 185, -1,
      193, 14, 57, -1,
      193, 57, 194, -1,
      194, 57, 56, -1,
      194, 56, 186, -1,
      193, 195, 14, -1,
      14, 195, 13, -1,
      196, 0, 12, -1,
      196, 12, 197, -1,
      197, 12, 13, -1,
      197, 13, 195, -1,
      198, 25, 39, -1,
      198, 39, 199, -1,
      199, 39, 38, -1,
      199, 38, 200, -1,
      200, 38, 24, -1,
      200, 24, 201, -1,
      201, 24, 23, -1,
      201, 23, 202, -1,
      202, 23, 22, -1,
      202, 22, 203, -1,
      203, 22, 1, -1,
      203, 1, 204, -1,
      204, 1, 0, -1,
      204, 0, 196, -1,
      205, 29, 28, -1,
      205, 28, 206, -1,
      206, 28, 30, -1,
      206, 30, 207, -1,
      207, 30, 31, -1,
      207, 31, 208, -1,
      208, 31, 32, -1,
      208, 32, 209, -1,
      209, 32, 27, -1,
      209, 27, 210, -1,
      210, 27, 26, -1,
      210, 26, 211, -1,
      211, 26, 25, -1,
      211, 25, 198, -1,
      174, 8, 2, -1,
      174, 2, 212, -1,
      212, 2, 33, -1,
      212, 33, 213, -1,
      213, 33, 29, -1,
      213, 29, 205, -1,
      206, 177, 205, -1,
      205, 177, 178, -1,
      205, 178, 213, -1,
      213, 178, 176, -1,
      213, 176, 212, -1,
      212, 176, 175, -1,
      212, 175, 174, -1,
      195, 193, 197, -1,
      197, 193, 194, -1,
      197, 194, 196, -1,
      196, 194, 186, -1,
      196, 186, 204, -1,
      204, 186, 187, -1,
      204, 187, 203, -1,
      203, 187, 188, -1,
      203, 188, 202, -1,
      202, 188, 189, -1,
      202, 189, 201, -1,
      201, 189, 190, -1,
      201, 190, 200, -1,
      200, 190, 191, -1,
      200, 191, 199, -1,
      199, 191, 192, -1,
      199, 192, 198, -1,
      198, 192, 185, -1,
      198, 185, 211, -1,
      211, 185, 184, -1,
      211, 184, 210, -1,
      210, 184, 183, -1,
      210, 183, 209, -1,
      209, 183, 182, -1,
      209, 182, 208, -1,
      208, 182, 181, -1,
      208, 181, 207, -1,
      207, 181, 180, -1,
      207, 180, 206, -1,
      206, 180, 179, -1,
      206, 179, 177, -1,
      214, 215, 44, -1,
      44, 215, 3, -1,
      215, 216, 3, -1,
      3, 216, 4, -1,
      216, 217, 4, -1,
      4, 217, 16, -1,
      217, 218, 16, -1,
      16, 218, 42, -1,
      218, 219, 42, -1,
      42, 219, 47, -1,
      219, 214, 47, -1,
      47, 214, 44, -1,
      218, 217, 219, -1,
      219, 217, 216, -1,
      219, 216, 214, -1,
      214, 216, 215, -1,
    ]
  }
}

Shape {
  appearance Appearance {
    material Material {
      diffuseColor 1.0000 1.0000 1.0000
      specularColor 0.5020 0.5020 0.5020
      ambientIntensity 0.2
      transparency 0.0000
      shininess 0.5
    }
  }
  geometry IndexedFaceSet {
    ccw TRUE
    solid FALSE
    coord DEF co Coordinate {
      point [
        0.663291 -0.552135 0.000000,
        0.794949 -0.552135 0.000000,
        0.722031 -0.716577 0.000000,
        0.725820 -0.730231 0.000000,
        0.728332 -0.744184 0.000000,
        0.729607 -0.744184 0.000000,
        0.732176 -0.730274 0.000000,
        0.735684 -0.716577 0.000000,
        0.320003 -0.748985 0.000000,
        0.261938 -0.748985 0.000000,
        0.366601 -0.744032 0.000000,
        0.399098 -0.732660 0.000000,
        0.427856 -0.714081 0.000000,
        0.446979 -0.693777 0.000000,
        0.460657 -0.669494 0.000000,
        0.469847 -0.638355 0.000000,
        0.473192 -0.599172 0.000000,
        0.469577 -0.557821 0.000000,
        0.458030 -0.520813 0.000000,
        0.441425 -0.493669 0.000000,
        0.419343 -0.471858 0.000000,
        0.392493 -0.455914 -0.000000,
        0.359363 -0.445573 0.000000,
        0.317827 -0.441707 0.000000,
        0.261938 -0.441707 0.000000,
      ]
    }
    coordIndex [
      0, 1, 2, -1,
      2, 1, 7, -1,
      2, 7, 3, -1,
      3, 7, 6, -1,
      3, 6, 4, -1,
      4, 6, 5, -1,
      9, 24, 8, -1,
      8, 24, 23, -1,
      8, 23, 22, -1,
      16, 15, 8, -1,
      8, 15, 14, -1,
      8, 14, 10, -1,
      22, 21, 8, -1,
      8, 21, 20, -1,
      8, 20, 19, -1,
      19, 18, 8, -1,
      8, 18, 17, -1,
      8, 17, 16, -1,
      13, 12, 14, -1,
      14, 12, 11, -1,
      14, 11, 10, -1,
    ]
  }
}
