#VRML V2.0 utf8

Shape {
  appearance Appearance {
    material Material {
      diffuseColor 0.2235 0.2235 0.2235
      specularColor 0.1137 0.1137 0.1137
      ambientIntensity 0.2
      transparency 0.0000
      shininess 0.5
    }
  }
  geometry IndexedFaceSet {
    ccw TRUE
    solid FALSE
    coord DEF co Coordinate {
      point [
        -0.016836 0.023020 -0.255906,
        -0.016401 0.026897 -0.255906,
        0.012722 0.014506 -0.255906,
        -0.277381 0.552972 -0.255906,
        -0.020677 0.006118 -0.255906,
        -0.277381 -0.018848 -0.255906,
        -0.020677 -0.014047 -0.255906,
        -0.016356 -0.014047 -0.255906,
        0.018933 -0.018848 -0.255906,
        0.015334 0.036468 -0.255906,
        0.012221 0.039425 -0.255906,
        0.018693 0.046448 -0.255906,
        -0.016215 0.018235 -0.255906,
        0.012331 0.013800 -0.255906,
        -0.014316 0.013800 -0.255906,
        0.000928 -0.013087 -0.255906,
        -0.003393 -0.013087 -0.255906,
        -0.003393 0.000837 -0.255906,
        -0.016356 0.000837 -0.255906,
        -0.010308 0.041010 -0.255906,
        -0.013989 0.038702 -0.255906,
        -0.020677 0.061332 -0.255906,
        -0.017407 0.035148 -0.255906,
        -0.019559 0.031408 -0.255906,
        0.018933 0.552972 -0.255906,
        0.018693 0.066614 -0.255906,
        -0.020677 0.066614 -0.255906,
        0.014372 0.046448 -0.255906,
        0.008477 0.041522 -0.255906,
        0.014372 0.061332 -0.255906,
        -0.020835 0.027019 -0.255906,
        -0.021157 0.023065 -0.255906,
        -0.020832 0.018352 -0.255906,
        -0.019597 0.013800 -0.255906,
        0.018693 0.006118 -0.255906,
        0.016652 0.013800 -0.255906,
        0.018933 0.026948 -0.255906,
        0.018670 0.029485 -0.255906,
        0.017356 0.033301 -0.255906,
        -0.015337 0.029844 -0.255906,
        -0.013515 0.032569 -0.255906,
        -0.010890 0.034946 -0.255906,
        -0.000572 0.037806 -0.255906,
        0.003690 0.037408 -0.255906,
        0.007076 0.036338 -0.255906,
        0.014440 0.027578 -0.255906,
        0.014852 0.023906 -0.255906,
        0.013384 0.030446 -0.255906,
        0.011755 0.032862 -0.255906,
        0.009806 0.034710 -0.255906,
        0.014272 0.018679 -0.255906,
        0.004310 0.042707 -0.255906,
        -0.000250 0.043088 -0.255906,
        -0.005847 0.042521 -0.255906,
        -0.007850 0.036569 -0.255906,
        -0.003635 0.037619 -0.255906,
        0.000928 0.000837 -0.255906,
        0.014372 0.000837 -0.255906,
        0.014372 -0.015007 -0.255906,
        0.018693 -0.015007 -0.255906,
        0.019173 0.024633 -0.255906,
        0.277381 0.552972 -0.255906,
        0.019154 0.023557 -0.255906,
        0.277381 -0.018848 -0.255906,
        0.018933 0.021975 -0.255906,
        0.277381 -0.552972 -0.255906,
        0.018933 -0.552972 -0.255906,
        0.018375 0.017997 -0.255906,
        0.018693 -0.063019 -0.255906,
        0.018693 -0.057258 -0.255906,
        -0.020677 -0.072142 -0.255906,
        -0.277381 -0.552972 -0.255906,
        -0.020677 -0.077423 -0.255906,
        0.018693 -0.092787 -0.255906,
        0.018693 -0.087026 -0.255906,
        0.007650 -0.083042 -0.255906,
        0.007650 -0.066778 -0.255906,
        -0.020677 -0.022689 -0.255906,
        -0.020677 -0.033800 -0.255906,
        -0.015544 -0.048420 -0.255906,
        -0.012457 -0.051204 -0.255906,
        -0.009071 -0.053034 -0.255906,
        0.007902 -0.052411 -0.255906,
        0.011424 -0.050154 -0.255906,
        0.014526 -0.046913 -0.255906,
        0.016915 -0.042802 -0.255906,
        -0.020069 -0.039487 -0.255906,
        -0.018452 -0.044094 -0.255906,
        -0.015580 -0.048379 -0.255906,
        0.018267 -0.038266 -0.255906,
        0.018693 -0.033394 -0.255906,
        0.018693 -0.022689 -0.255906,
        -0.005192 -0.054091 -0.255906,
        -0.001487 -0.054377 -0.255906,
        0.003781 -0.053825 -0.255906,
        0.295276 -0.472441 -0.000000,
        0.295276 -0.570866 0.000000,
        0.293899 -0.472441 -0.019685,
        0.293899 -0.314961 -0.019685,
        0.295276 0.570866 -0.000000,
        0.295276 0.472441 -0.000000,
        0.293899 0.472441 -0.019685,
        0.293899 0.314961 -0.019685,
        0.295276 0.314961 -0.000000,
        0.295276 -0.314961 -0.000000,
        0.284263 -0.559854 0.157480,
        0.292522 -0.472441 0.039370,
        0.292522 -0.314961 0.039370,
        0.284263 0.559854 0.157480,
        0.292522 0.472441 0.039370,
        0.292522 0.314961 0.039370,
        -0.295276 0.570866 0.000000,
        -0.295276 -0.570866 0.000000,
        -0.295276 -0.078740 0.000000,
        -0.293899 -0.078740 -0.019685,
        -0.295276 0.078740 -0.000000,
        -0.293899 0.078740 -0.019685,
        -0.284263 0.559854 0.157480,
        -0.292522 -0.078740 0.039370,
        -0.284263 -0.559854 0.157480,
        -0.292522 0.078740 0.039370,
        0.237766 -0.381966 0.157480,
        0.235603 -0.398396 0.157480,
        0.229261 -0.413706 0.157480,
        0.219173 -0.426854 0.157480,
        0.206026 -0.436942 0.157480,
        0.190715 -0.443283 0.157480,
        0.174285 -0.445447 0.157480,
        0.157855 -0.443283 0.157480,
        0.142544 -0.436942 0.157480,
        0.190715 -0.320648 0.157480,
        0.206026 -0.326989 0.157480,
        0.219173 -0.337078 0.157480,
        0.129397 -0.426854 0.157480,
        0.119309 -0.413706 0.157480,
        0.112967 -0.398396 0.157480,
        0.229261 -0.350225 0.157480,
        0.235603 -0.365535 0.157480,
        0.129397 -0.337078 0.157480,
        0.142544 -0.326989 0.157480,
        0.157855 -0.320648 0.157480,
        0.174285 -0.318485 0.157480,
        0.110804 -0.381966 0.157480,
        0.112967 -0.365535 0.157480,
        0.119309 -0.350225 0.157480,
      ]
    }
    coordIndex [
      0, 1, 2, -1,
      3, 4, 5, -1,
      5, 4, 6, -1,
      6, 7, 8, -1,
      9, 10, 11, -1,
      0, 2, 12, -1,
      12, 2, 13, -1,
      12, 13, 14, -1,
      15, 8, 16, -1,
      16, 8, 7, -1,
      16, 7, 17, -1,
      17, 7, 18, -1,
      19, 20, 21, -1,
      21, 20, 22, -1,
      21, 22, 23, -1,
      24, 25, 3, -1,
      3, 25, 26, -1,
      3, 26, 21, -1,
      11, 10, 27, -1,
      27, 10, 28, -1,
      27, 28, 29, -1,
      23, 30, 21, -1,
      21, 30, 31, -1,
      21, 31, 3, -1,
      3, 31, 32, -1,
      3, 32, 4, -1,
      32, 33, 4, -1,
      4, 33, 14, -1,
      4, 14, 34, -1,
      34, 14, 13, -1,
      34, 13, 35, -1,
      36, 37, 11, -1,
      11, 37, 38, -1,
      11, 38, 9, -1,
      1, 39, 2, -1,
      2, 39, 40, -1,
      2, 40, 41, -1,
      42, 43, 2, -1,
      2, 43, 44, -1,
      45, 46, 47, -1,
      47, 46, 48, -1,
      44, 49, 2, -1,
      2, 49, 48, -1,
      2, 48, 50, -1,
      50, 48, 46, -1,
      28, 51, 29, -1,
      29, 51, 52, -1,
      29, 52, 21, -1,
      21, 52, 53, -1,
      21, 53, 19, -1,
      41, 54, 2, -1,
      2, 54, 55, -1,
      2, 55, 42, -1,
      56, 57, 15, -1,
      15, 57, 58, -1,
      15, 58, 8, -1,
      8, 58, 59, -1,
      8, 59, 34, -1,
      11, 25, 36, -1,
      36, 25, 24, -1,
      36, 24, 60, -1,
      60, 24, 61, -1,
      60, 61, 62, -1,
      62, 61, 63, -1,
      62, 63, 64, -1,
      65, 66, 63, -1,
      63, 66, 8, -1,
      63, 8, 64, -1,
      64, 8, 34, -1,
      64, 34, 67, -1,
      67, 34, 35, -1,
      68, 69, 8, -1,
      5, 70, 71, -1,
      71, 70, 72, -1,
      71, 72, 66, -1,
      66, 72, 73, -1,
      66, 73, 8, -1,
      8, 73, 74, -1,
      8, 74, 68, -1,
      68, 74, 75, -1,
      68, 75, 76, -1,
      6, 8, 5, -1,
      5, 8, 77, -1,
      5, 77, 78, -1,
      79, 80, 70, -1,
      70, 80, 81, -1,
      82, 83, 69, -1,
      69, 83, 84, -1,
      69, 84, 85, -1,
      78, 86, 5, -1,
      5, 86, 87, -1,
      5, 87, 70, -1,
      70, 87, 88, -1,
      70, 88, 79, -1,
      85, 89, 69, -1,
      69, 89, 90, -1,
      69, 90, 8, -1,
      8, 90, 91, -1,
      8, 91, 77, -1,
      81, 92, 70, -1,
      70, 92, 93, -1,
      70, 93, 69, -1,
      69, 93, 94, -1,
      69, 94, 82, -1,
      95, 96, 97, -1,
      97, 96, 65, -1,
      97, 65, 98, -1,
      98, 65, 63, -1,
      99, 100, 61, -1,
      61, 100, 101, -1,
      61, 101, 63, -1,
      63, 101, 102, -1,
      63, 102, 98, -1,
      98, 102, 103, -1,
      98, 103, 104, -1,
      105, 96, 95, -1,
      95, 106, 105, -1,
      105, 106, 107, -1,
      105, 107, 108, -1,
      100, 99, 109, -1,
      109, 99, 108, -1,
      109, 108, 110, -1,
      110, 108, 107, -1,
      110, 107, 103, -1,
      103, 107, 104, -1,
      3, 111, 24, -1,
      24, 111, 99, -1,
      24, 99, 61, -1,
      112, 71, 96, -1,
      96, 71, 66, -1,
      96, 66, 65, -1,
      112, 113, 71, -1,
      71, 113, 114, -1,
      115, 111, 116, -1,
      116, 111, 3, -1,
      116, 3, 114, -1,
      114, 3, 5, -1,
      114, 5, 71, -1,
      117, 108, 111, -1,
      111, 108, 99, -1,
      113, 112, 118, -1,
      118, 112, 119, -1,
      118, 119, 120, -1,
      120, 119, 117, -1,
      120, 117, 115, -1,
      115, 117, 111, -1,
      105, 119, 96, -1,
      96, 119, 112, -1,
      108, 121, 105, -1,
      105, 121, 122, -1,
      122, 123, 105, -1,
      105, 123, 124, -1,
      105, 124, 125, -1,
      125, 126, 105, -1,
      105, 126, 127, -1,
      105, 127, 119, -1,
      119, 127, 128, -1,
      119, 128, 129, -1,
      130, 131, 108, -1,
      108, 131, 132, -1,
      129, 133, 119, -1,
      119, 133, 134, -1,
      119, 134, 135, -1,
      132, 136, 108, -1,
      108, 136, 137, -1,
      108, 137, 121, -1,
      138, 139, 117, -1,
      117, 139, 140, -1,
      117, 140, 108, -1,
      108, 140, 141, -1,
      108, 141, 130, -1,
      135, 142, 119, -1,
      119, 142, 143, -1,
      119, 143, 117, -1,
      117, 143, 144, -1,
      117, 144, 138, -1,
    ]
  }
}

Shape {
  appearance Appearance {
    material Material {
      diffuseColor 1.0000 1.0000 1.0000
      specularColor 0.5020 0.5020 0.5020
      ambientIntensity 0.2
      transparency 0.0000
      shininess 0.5
    }
  }
  geometry IndexedFaceSet {
    ccw TRUE
    solid FALSE
    coord DEF co Coordinate {
      point [
        0.295276 -0.472441 -0.000000,
        0.293899 -0.472441 -0.019685,
        0.293899 -0.314961 -0.019685,
        0.295276 0.472441 -0.000000,
        0.293899 0.472441 -0.019685,
        0.293899 0.314961 -0.019685,
        0.295276 0.314961 -0.000000,
        0.295276 -0.314961 -0.000000,
        0.292522 -0.472441 0.039370,
        0.292522 -0.314961 0.039370,
        0.292522 0.472441 0.039370,
        0.292522 0.314961 0.039370,
        -0.295276 -0.078740 0.000000,
        -0.293899 -0.078740 -0.019685,
        -0.295276 0.078740 -0.000000,
        -0.293899 0.078740 -0.019685,
        -0.292522 -0.078740 0.039370,
        -0.292522 0.078740 0.039370,
        -0.345835 0.078740 0.039370,
        -0.345835 -0.078740 0.039370,
        -0.511811 0.078740 -0.275591,
        -0.452648 0.078740 -0.275591,
        -0.511811 -0.078740 -0.275591,
        -0.452648 -0.078740 -0.275591,
        -0.511811 0.078740 -0.216535,
        -0.511811 -0.078740 -0.216535,
        -0.452648 0.078740 -0.216535,
        -0.452648 -0.078740 -0.216535,
        -0.447719 0.078740 -0.215908,
        -0.447719 -0.078740 -0.215908,
        -0.443104 0.078740 -0.214067,
        -0.443104 -0.078740 -0.214067,
        -0.439098 0.078740 -0.211130,
        -0.439098 -0.078740 -0.211130,
        -0.435954 0.078740 -0.207282,
        -0.435954 -0.078740 -0.207282,
        -0.433874 0.078740 -0.202770,
        -0.433874 -0.078740 -0.202770,
        -0.432990 0.078740 -0.197881,
        -0.432990 -0.078740 -0.197881,
        -0.424467 0.078740 -0.035249,
        -0.424467 -0.078740 -0.035249,
        -0.420930 -0.078740 -0.015693,
        -0.420930 0.078740 -0.015693,
        -0.412610 -0.078740 0.002356,
        -0.412610 0.078740 0.002356,
        -0.400036 -0.078740 0.017746,
        -0.400036 0.078740 0.017746,
        -0.384009 -0.078740 0.029498,
        -0.384009 0.078740 0.029498,
        -0.365550 -0.078740 0.036862,
        -0.365550 0.078740 0.036862,
        -0.345835 -0.078740 -0.019685,
        -0.345835 0.078740 -0.019685,
        -0.350763 0.078740 -0.020312,
        -0.350763 -0.078740 -0.020312,
        -0.355378 0.078740 -0.022153,
        -0.355378 -0.078740 -0.022153,
        -0.359385 0.078740 -0.025091,
        -0.359385 -0.078740 -0.025091,
        -0.362528 0.078740 -0.028939,
        -0.362528 -0.078740 -0.028939,
        -0.364609 0.078740 -0.033451,
        -0.364609 -0.078740 -0.033451,
        -0.365493 0.078740 -0.038340,
        -0.365493 -0.078740 -0.038340,
        -0.374016 0.078740 -0.200971,
        -0.374016 -0.078740 -0.200971,
        -0.377552 -0.078740 -0.220528,
        -0.377552 0.078740 -0.220528,
        -0.385872 -0.078740 -0.238576,
        -0.385872 0.078740 -0.238576,
        -0.398447 -0.078740 -0.253967,
        -0.398447 0.078740 -0.253967,
        -0.414474 -0.078740 -0.265718,
        -0.414474 0.078740 -0.265718,
        -0.432933 -0.078740 -0.273083,
        -0.432933 0.078740 -0.273083,
        0.365493 0.472441 -0.038340,
        0.365493 0.314961 -0.038340,
        0.364609 0.472441 -0.033451,
        0.364609 0.314961 -0.033451,
        0.362528 0.472441 -0.028939,
        0.362528 0.314961 -0.028939,
        0.359385 0.472441 -0.025091,
        0.359385 0.314961 -0.025091,
        0.355378 0.472441 -0.022153,
        0.355378 0.314961 -0.022153,
        0.350763 0.472441 -0.020312,
        0.350763 0.314961 -0.020312,
        0.345835 0.472441 -0.019685,
        0.345835 0.314961 -0.019685,
        0.345835 0.472441 0.039370,
        0.345835 0.314961 0.039370,
        0.365550 0.314961 0.036862,
        0.365550 0.472441 0.036862,
        0.384009 0.314961 0.029498,
        0.384009 0.472441 0.029498,
        0.400036 0.314961 0.017746,
        0.400036 0.472441 0.017746,
        0.412610 0.314961 0.002356,
        0.412610 0.472441 0.002356,
        0.420930 0.314961 -0.015693,
        0.420930 0.472441 -0.015693,
        0.424467 0.314961 -0.035249,
        0.424467 0.472441 -0.035249,
        0.432990 0.472441 -0.197881,
        0.432990 0.314961 -0.197881,
        0.433874 0.472441 -0.202770,
        0.433874 0.314961 -0.202770,
        0.435954 0.472441 -0.207282,
        0.435954 0.314961 -0.207282,
        0.439098 0.472441 -0.211130,
        0.439098 0.314961 -0.211130,
        0.443104 0.472441 -0.214067,
        0.443104 0.314961 -0.214067,
        0.447719 0.472441 -0.215908,
        0.447719 0.314961 -0.215908,
        0.452648 0.472441 -0.216535,
        0.452648 0.314961 -0.216535,
        0.511811 0.472441 -0.216535,
        0.511811 0.314961 -0.216535,
        0.511811 0.472441 -0.275591,
        0.511811 0.314961 -0.275591,
        0.452648 0.472441 -0.275591,
        0.452648 0.314961 -0.275591,
        0.432933 0.314961 -0.273083,
        0.432933 0.472441 -0.273083,
        0.414474 0.314961 -0.265718,
        0.414474 0.472441 -0.265718,
        0.398447 0.314961 -0.253967,
        0.398447 0.472441 -0.253967,
        0.385872 0.314961 -0.238576,
        0.385872 0.472441 -0.238576,
        0.377552 0.314961 -0.220528,
        0.377552 0.472441 -0.220528,
        0.374016 0.314961 -0.200971,
        0.374016 0.472441 -0.200971,
        0.345835 -0.472441 -0.019685,
        0.345835 -0.314961 -0.019685,
        0.350763 -0.472441 -0.020312,
        0.350763 -0.314961 -0.020312,
        0.355378 -0.472441 -0.022153,
        0.355378 -0.314961 -0.022153,
        0.359385 -0.472441 -0.025091,
        0.359385 -0.314961 -0.025091,
        0.362528 -0.472441 -0.028939,
        0.362528 -0.314961 -0.028939,
        0.364609 -0.472441 -0.033451,
        0.364609 -0.314961 -0.033451,
        0.365493 -0.472441 -0.038340,
        0.365493 -0.314961 -0.038340,
        0.374016 -0.472441 -0.200971,
        0.374016 -0.314961 -0.200971,
        0.377552 -0.314961 -0.220528,
        0.377552 -0.472441 -0.220528,
        0.385872 -0.314961 -0.238576,
        0.385872 -0.472441 -0.238576,
        0.398447 -0.314961 -0.253967,
        0.398447 -0.472441 -0.253967,
        0.414474 -0.314961 -0.265718,
        0.414474 -0.472441 -0.265718,
        0.432933 -0.314961 -0.273083,
        0.432933 -0.472441 -0.273083,
        0.452648 -0.314961 -0.275591,
        0.452648 -0.472441 -0.275591,
        0.511811 -0.472441 -0.275591,
        0.511811 -0.314961 -0.275591,
        0.511811 -0.472441 -0.216535,
        0.511811 -0.314961 -0.216535,
        0.452648 -0.472441 -0.216535,
        0.452648 -0.314961 -0.216535,
        0.447719 -0.472441 -0.215908,
        0.447719 -0.314961 -0.215908,
        0.443104 -0.472441 -0.214067,
        0.443104 -0.314961 -0.214067,
        0.439098 -0.472441 -0.211130,
        0.439098 -0.314961 -0.211130,
        0.435954 -0.472441 -0.207282,
        0.435954 -0.314961 -0.207282,
        0.433874 -0.472441 -0.202770,
        0.433874 -0.314961 -0.202770,
        0.432990 -0.472441 -0.197881,
        0.432990 -0.314961 -0.197881,
        0.424467 -0.472441 -0.035249,
        0.424467 -0.314961 -0.035249,
        0.420930 -0.314961 -0.015693,
        0.420930 -0.472441 -0.015693,
        0.412610 -0.314961 0.002356,
        0.412610 -0.472441 0.002356,
        0.400036 -0.314961 0.017746,
        0.400036 -0.472441 0.017746,
        0.384009 -0.314961 0.029498,
        0.384009 -0.472441 0.029498,
        0.365550 -0.314961 0.036862,
        0.365550 -0.472441 0.036862,
        0.345835 -0.314961 0.039370,
        0.345835 -0.472441 0.039370,
      ]
    }
    coordIndex [
      18, 19, 17, -1,
      17, 19, 16, -1,
      20, 21, 22, -1,
      22, 21, 23, -1,
      24, 20, 25, -1,
      25, 20, 22, -1,
      26, 24, 27, -1,
      27, 24, 25, -1,
      26, 27, 28, -1,
      28, 27, 29, -1,
      28, 29, 30, -1,
      30, 29, 31, -1,
      30, 31, 32, -1,
      32, 31, 33, -1,
      32, 33, 34, -1,
      34, 33, 35, -1,
      34, 35, 36, -1,
      36, 35, 37, -1,
      36, 37, 38, -1,
      38, 37, 39, -1,
      40, 38, 41, -1,
      41, 38, 39, -1,
      40, 41, 42, -1,
      40, 42, 43, -1,
      43, 42, 44, -1,
      43, 44, 45, -1,
      45, 44, 46, -1,
      45, 46, 47, -1,
      47, 46, 48, -1,
      47, 48, 49, -1,
      49, 48, 50, -1,
      49, 50, 51, -1,
      51, 50, 19, -1,
      51, 19, 18, -1,
      52, 53, 13, -1,
      13, 53, 15, -1,
      53, 52, 54, -1,
      54, 52, 55, -1,
      54, 55, 56, -1,
      56, 55, 57, -1,
      56, 57, 58, -1,
      58, 57, 59, -1,
      58, 59, 60, -1,
      60, 59, 61, -1,
      60, 61, 62, -1,
      62, 61, 63, -1,
      62, 63, 64, -1,
      64, 63, 65, -1,
      66, 64, 67, -1,
      67, 64, 65, -1,
      66, 67, 68, -1,
      66, 68, 69, -1,
      69, 68, 70, -1,
      69, 70, 71, -1,
      71, 70, 72, -1,
      71, 72, 73, -1,
      73, 72, 74, -1,
      73, 74, 75, -1,
      75, 74, 76, -1,
      75, 76, 77, -1,
      77, 76, 23, -1,
      77, 23, 21, -1,
      14, 15, 53, -1,
      53, 54, 14, -1,
      14, 54, 18, -1,
      14, 18, 17, -1,
      20, 24, 21, -1,
      21, 24, 26, -1,
      21, 26, 77, -1,
      77, 26, 28, -1,
      77, 28, 75, -1,
      75, 28, 30, -1,
      75, 30, 73, -1,
      73, 30, 32, -1,
      73, 32, 71, -1,
      71, 32, 34, -1,
      71, 34, 69, -1,
      69, 34, 36, -1,
      69, 36, 66, -1,
      66, 36, 38, -1,
      66, 38, 64, -1,
      64, 38, 40, -1,
      64, 40, 62, -1,
      62, 40, 43, -1,
      62, 43, 60, -1,
      60, 43, 45, -1,
      60, 45, 58, -1,
      58, 45, 47, -1,
      58, 47, 56, -1,
      56, 47, 49, -1,
      56, 49, 54, -1,
      54, 49, 51, -1,
      54, 51, 18, -1,
      13, 12, 52, -1,
      52, 12, 55, -1,
      25, 22, 27, -1,
      27, 22, 23, -1,
      27, 23, 29, -1,
      29, 23, 76, -1,
      29, 76, 31, -1,
      31, 76, 74, -1,
      31, 74, 33, -1,
      33, 74, 72, -1,
      33, 72, 35, -1,
      35, 72, 70, -1,
      35, 70, 37, -1,
      37, 70, 68, -1,
      37, 68, 39, -1,
      39, 68, 67, -1,
      39, 67, 41, -1,
      41, 67, 65, -1,
      41, 65, 42, -1,
      42, 65, 63, -1,
      42, 63, 44, -1,
      44, 63, 61, -1,
      44, 61, 46, -1,
      46, 61, 59, -1,
      46, 59, 48, -1,
      48, 59, 57, -1,
      48, 57, 50, -1,
      50, 57, 55, -1,
      50, 55, 19, -1,
      19, 55, 12, -1,
      19, 12, 16, -1,
      78, 79, 80, -1,
      80, 79, 81, -1,
      80, 81, 82, -1,
      82, 81, 83, -1,
      82, 83, 84, -1,
      84, 83, 85, -1,
      84, 85, 86, -1,
      86, 85, 87, -1,
      86, 87, 88, -1,
      88, 87, 89, -1,
      88, 89, 90, -1,
      90, 89, 91, -1,
      4, 90, 5, -1,
      5, 90, 91, -1,
      92, 10, 93, -1,
      93, 10, 11, -1,
      92, 93, 94, -1,
      92, 94, 95, -1,
      95, 94, 96, -1,
      95, 96, 97, -1,
      97, 96, 98, -1,
      97, 98, 99, -1,
      99, 98, 100, -1,
      99, 100, 101, -1,
      101, 100, 102, -1,
      101, 102, 103, -1,
      103, 102, 104, -1,
      103, 104, 105, -1,
      106, 105, 107, -1,
      107, 105, 104, -1,
      106, 107, 108, -1,
      108, 107, 109, -1,
      108, 109, 110, -1,
      110, 109, 111, -1,
      110, 111, 112, -1,
      112, 111, 113, -1,
      112, 113, 114, -1,
      114, 113, 115, -1,
      114, 115, 116, -1,
      116, 115, 117, -1,
      116, 117, 118, -1,
      118, 117, 119, -1,
      120, 118, 121, -1,
      121, 118, 119, -1,
      122, 120, 123, -1,
      123, 120, 121, -1,
      124, 122, 125, -1,
      125, 122, 123, -1,
      124, 125, 126, -1,
      124, 126, 127, -1,
      127, 126, 128, -1,
      127, 128, 129, -1,
      129, 128, 130, -1,
      129, 130, 131, -1,
      131, 130, 132, -1,
      131, 132, 133, -1,
      133, 132, 134, -1,
      133, 134, 135, -1,
      135, 134, 136, -1,
      135, 136, 137, -1,
      78, 137, 79, -1,
      79, 137, 136, -1,
      4, 3, 90, -1,
      90, 3, 88, -1,
      120, 122, 118, -1,
      118, 122, 124, -1,
      118, 124, 116, -1,
      116, 124, 127, -1,
      116, 127, 114, -1,
      114, 127, 129, -1,
      114, 129, 112, -1,
      112, 129, 131, -1,
      112, 131, 110, -1,
      110, 131, 133, -1,
      110, 133, 108, -1,
      108, 133, 135, -1,
      108, 135, 106, -1,
      106, 135, 137, -1,
      106, 137, 105, -1,
      105, 137, 78, -1,
      105, 78, 103, -1,
      103, 78, 80, -1,
      103, 80, 101, -1,
      101, 80, 82, -1,
      101, 82, 99, -1,
      99, 82, 84, -1,
      99, 84, 97, -1,
      97, 84, 86, -1,
      97, 86, 95, -1,
      95, 86, 88, -1,
      95, 88, 92, -1,
      92, 88, 3, -1,
      92, 3, 10, -1,
      6, 5, 91, -1,
      91, 89, 6, -1,
      6, 89, 93, -1,
      6, 93, 11, -1,
      123, 121, 125, -1,
      125, 121, 119, -1,
      125, 119, 126, -1,
      126, 119, 117, -1,
      126, 117, 128, -1,
      128, 117, 115, -1,
      128, 115, 130, -1,
      130, 115, 113, -1,
      130, 113, 132, -1,
      132, 113, 111, -1,
      132, 111, 134, -1,
      134, 111, 109, -1,
      134, 109, 136, -1,
      136, 109, 107, -1,
      136, 107, 79, -1,
      79, 107, 104, -1,
      79, 104, 81, -1,
      81, 104, 102, -1,
      81, 102, 83, -1,
      83, 102, 100, -1,
      83, 100, 85, -1,
      85, 100, 98, -1,
      85, 98, 87, -1,
      87, 98, 96, -1,
      87, 96, 89, -1,
      89, 96, 94, -1,
      89, 94, 93, -1,
      138, 139, 140, -1,
      140, 139, 141, -1,
      140, 141, 142, -1,
      142, 141, 143, -1,
      142, 143, 144, -1,
      144, 143, 145, -1,
      144, 145, 146, -1,
      146, 145, 147, -1,
      146, 147, 148, -1,
      148, 147, 149, -1,
      148, 149, 150, -1,
      150, 149, 151, -1,
      152, 150, 153, -1,
      153, 150, 151, -1,
      152, 153, 154, -1,
      152, 154, 155, -1,
      155, 154, 156, -1,
      155, 156, 157, -1,
      157, 156, 158, -1,
      157, 158, 159, -1,
      159, 158, 160, -1,
      159, 160, 161, -1,
      161, 160, 162, -1,
      161, 162, 163, -1,
      163, 162, 164, -1,
      163, 164, 165, -1,
      166, 165, 167, -1,
      167, 165, 164, -1,
      168, 166, 169, -1,
      169, 166, 167, -1,
      170, 168, 171, -1,
      171, 168, 169, -1,
      170, 171, 172, -1,
      172, 171, 173, -1,
      172, 173, 174, -1,
      174, 173, 175, -1,
      174, 175, 176, -1,
      176, 175, 177, -1,
      176, 177, 178, -1,
      178, 177, 179, -1,
      178, 179, 180, -1,
      180, 179, 181, -1,
      180, 181, 182, -1,
      182, 181, 183, -1,
      184, 182, 185, -1,
      185, 182, 183, -1,
      184, 185, 186, -1,
      184, 186, 187, -1,
      187, 186, 188, -1,
      187, 188, 189, -1,
      189, 188, 190, -1,
      189, 190, 191, -1,
      191, 190, 192, -1,
      191, 192, 193, -1,
      193, 192, 194, -1,
      193, 194, 195, -1,
      195, 194, 196, -1,
      195, 196, 197, -1,
      8, 197, 9, -1,
      9, 197, 196, -1,
      138, 1, 139, -1,
      139, 1, 2, -1,
      0, 1, 138, -1,
      138, 140, 0, -1,
      0, 140, 197, -1,
      0, 197, 8, -1,
      166, 168, 165, -1,
      165, 168, 170, -1,
      165, 170, 163, -1,
      163, 170, 172, -1,
      163, 172, 161, -1,
      161, 172, 174, -1,
      161, 174, 159, -1,
      159, 174, 176, -1,
      159, 176, 157, -1,
      157, 176, 178, -1,
      157, 178, 155, -1,
      155, 178, 180, -1,
      155, 180, 152, -1,
      152, 180, 182, -1,
      152, 182, 150, -1,
      150, 182, 184, -1,
      150, 184, 148, -1,
      148, 184, 187, -1,
      148, 187, 146, -1,
      146, 187, 189, -1,
      146, 189, 144, -1,
      144, 189, 191, -1,
      144, 191, 142, -1,
      142, 191, 193, -1,
      142, 193, 140, -1,
      140, 193, 195, -1,
      140, 195, 197, -1,
      2, 7, 139, -1,
      139, 7, 141, -1,
      169, 167, 171, -1,
      171, 167, 164, -1,
      171, 164, 173, -1,
      173, 164, 162, -1,
      173, 162, 175, -1,
      175, 162, 160, -1,
      175, 160, 177, -1,
      177, 160, 158, -1,
      177, 158, 179, -1,
      179, 158, 156, -1,
      179, 156, 181, -1,
      181, 156, 154, -1,
      181, 154, 183, -1,
      183, 154, 153, -1,
      183, 153, 185, -1,
      185, 153, 151, -1,
      185, 151, 186, -1,
      186, 151, 149, -1,
      186, 149, 188, -1,
      188, 149, 147, -1,
      188, 147, 190, -1,
      190, 147, 145, -1,
      190, 145, 192, -1,
      192, 145, 143, -1,
      192, 143, 194, -1,
      194, 143, 141, -1,
      194, 141, 196, -1,
      196, 141, 7, -1,
      196, 7, 9, -1,
    ]
  }
}

Shape {
  appearance Appearance {
    material Material {
      diffuseColor 0.0000 0.0000 0.0000
      specularColor 0.0000 0.0000 0.0000
      ambientIntensity 0.2
      transparency 0.0000
      shininess 0.5
    }
  }
  geometry IndexedFaceSet {
    ccw TRUE
    solid FALSE
    coord DEF co Coordinate {
      point [
        -0.016836 0.023020 -0.255906,
        -0.016401 0.026897 -0.255906,
        0.012722 0.014506 -0.255906,
        -0.020677 0.006118 -0.255906,
        -0.020677 -0.014047 -0.255906,
        -0.016356 -0.014047 -0.255906,
        0.015334 0.036468 -0.255906,
        0.012221 0.039425 -0.255906,
        0.018693 0.046448 -0.255906,
        -0.016215 0.018235 -0.255906,
        0.012331 0.013800 -0.255906,
        -0.014316 0.013800 -0.255906,
        0.000928 -0.013087 -0.255906,
        -0.003393 -0.013087 -0.255906,
        -0.003393 0.000837 -0.255906,
        -0.016356 0.000837 -0.255906,
        -0.010308 0.041010 -0.255906,
        -0.013989 0.038702 -0.255906,
        -0.020677 0.061332 -0.255906,
        -0.017407 0.035148 -0.255906,
        -0.019559 0.031408 -0.255906,
        0.018693 0.066614 -0.255906,
        -0.020677 0.066614 -0.255906,
        0.014372 0.046448 -0.255906,
        0.008477 0.041522 -0.255906,
        0.014372 0.061332 -0.255906,
        -0.020835 0.027019 -0.255906,
        -0.021157 0.023065 -0.255906,
        -0.020832 0.018352 -0.255906,
        -0.019597 0.013800 -0.255906,
        0.018693 0.006118 -0.255906,
        0.016652 0.013800 -0.255906,
        0.018933 0.026948 -0.255906,
        0.018670 0.029485 -0.255906,
        0.017356 0.033301 -0.255906,
        -0.015337 0.029844 -0.255906,
        -0.013515 0.032569 -0.255906,
        -0.010890 0.034946 -0.255906,
        -0.000572 0.037806 -0.255906,
        0.003690 0.037408 -0.255906,
        0.007076 0.036338 -0.255906,
        0.014440 0.027578 -0.255906,
        0.014852 0.023906 -0.255906,
        0.013384 0.030446 -0.255906,
        0.011755 0.032862 -0.255906,
        0.009806 0.034710 -0.255906,
        0.014272 0.018679 -0.255906,
        0.004310 0.042707 -0.255906,
        -0.000250 0.043088 -0.255906,
        -0.005847 0.042521 -0.255906,
        -0.007850 0.036569 -0.255906,
        -0.003635 0.037619 -0.255906,
        0.000928 0.000837 -0.255906,
        0.014372 0.000837 -0.255906,
        0.014372 -0.015007 -0.255906,
        0.018693 -0.015007 -0.255906,
        0.019173 0.024633 -0.255906,
        0.019154 0.023557 -0.255906,
        0.018933 0.021975 -0.255906,
        0.018375 0.017997 -0.255906,
        0.018693 -0.063019 -0.255906,
        0.018693 -0.057258 -0.255906,
        -0.020677 -0.072142 -0.255906,
        -0.020677 -0.077423 -0.255906,
        0.018693 -0.092787 -0.255906,
        0.018693 -0.087026 -0.255906,
        0.007650 -0.083042 -0.255906,
        0.007650 -0.066778 -0.255906,
        -0.020677 -0.022689 -0.255906,
        -0.020677 -0.033800 -0.255906,
        -0.015544 -0.048420 -0.255906,
        -0.012457 -0.051204 -0.255906,
        -0.009071 -0.053034 -0.255906,
        0.007902 -0.052411 -0.255906,
        0.011424 -0.050154 -0.255906,
        0.014526 -0.046913 -0.255906,
        0.016915 -0.042802 -0.255906,
        -0.020069 -0.039487 -0.255906,
        -0.018452 -0.044094 -0.255906,
        -0.015580 -0.048379 -0.255906,
        0.018267 -0.038266 -0.255906,
        0.018693 -0.033394 -0.255906,
        0.018693 -0.022689 -0.255906,
        -0.005192 -0.054091 -0.255906,
        -0.001487 -0.054377 -0.255906,
        0.003781 -0.053825 -0.255906,
        0.237766 -0.381966 0.157480,
        0.235603 -0.398396 0.157480,
        0.229261 -0.413706 0.157480,
        0.219173 -0.426854 0.157480,
        0.206026 -0.436942 0.157480,
        0.190715 -0.443283 0.157480,
        0.174285 -0.445447 0.157480,
        0.157855 -0.443283 0.157480,
        0.142544 -0.436942 0.157480,
        0.190715 -0.320648 0.157480,
        0.206026 -0.326989 0.157480,
        0.219173 -0.337078 0.157480,
        0.129397 -0.426854 0.157480,
        0.119309 -0.413706 0.157480,
        0.112967 -0.398396 0.157480,
        0.229261 -0.350225 0.157480,
        0.235603 -0.365535 0.157480,
        0.129397 -0.337078 0.157480,
        0.142544 -0.326989 0.157480,
        0.157855 -0.320648 0.157480,
        0.174285 -0.318485 0.157480,
        0.110804 -0.381966 0.157480,
        0.112967 -0.365535 0.157480,
        0.119309 -0.350225 0.157480,
        0.174285 -0.318485 0.157087,
        0.157855 -0.320648 0.157087,
        0.142544 -0.326989 0.157087,
        0.129397 -0.337078 0.157087,
        0.119309 -0.350225 0.157087,
        0.112967 -0.365535 0.157087,
        0.110804 -0.381966 0.157087,
        0.112967 -0.398396 0.157087,
        0.119309 -0.413706 0.157087,
        0.129397 -0.426854 0.157087,
        0.142544 -0.436942 0.157087,
        0.157855 -0.443283 0.157087,
        0.174285 -0.445447 0.157087,
        0.190715 -0.443283 0.157087,
        0.206026 -0.436942 0.157087,
        0.219173 -0.426854 0.157087,
        0.229261 -0.413706 0.157087,
        0.235603 -0.398396 0.157087,
        0.237766 -0.381966 0.157087,
        0.235603 -0.365535 0.157087,
        0.229261 -0.350225 0.157087,
        0.219173 -0.337078 0.157087,
        0.206026 -0.326989 0.157087,
        0.190715 -0.320648 0.157087,
        0.174285 -0.381966 0.157087,
        -0.020677 -0.077423 -0.255512,
        0.018693 -0.092787 -0.255512,
        0.018693 -0.087026 -0.255512,
        0.007650 -0.083042 -0.255512,
        0.007650 -0.066778 -0.255512,
        0.018693 -0.063019 -0.255512,
        0.018693 -0.057258 -0.255512,
        -0.020677 -0.072142 -0.255512,
        0.003329 -0.068106 -0.255512,
        -0.013115 -0.073980 -0.255512,
        -0.014481 -0.074359 -0.255512,
        -0.015876 -0.074610 -0.255512,
        -0.015876 -0.074737 -0.255512,
        -0.014485 -0.074994 -0.255512,
        -0.013115 -0.075345 -0.255512,
        0.003329 -0.081272 -0.255512,
        0.003329 -0.068106 -0.255906,
        0.003329 -0.081272 -0.255906,
        -0.013115 -0.073980 -0.255906,
        -0.014481 -0.074359 -0.255906,
        -0.015876 -0.074610 -0.255906,
        -0.015876 -0.074737 -0.255906,
        -0.014485 -0.074994 -0.255906,
        -0.013115 -0.075345 -0.255906,
        0.018693 -0.033394 -0.255512,
        0.018693 -0.022689 -0.255512,
        -0.020677 -0.022689 -0.255512,
        -0.020677 -0.033800 -0.255512,
        -0.001487 -0.054377 -0.255512,
        -0.005192 -0.054091 -0.255512,
        -0.009071 -0.053034 -0.255512,
        -0.012457 -0.051204 -0.255512,
        -0.015544 -0.048420 -0.255512,
        -0.015580 -0.048379 -0.255512,
        -0.018452 -0.044094 -0.255512,
        -0.020069 -0.039487 -0.255512,
        0.018267 -0.038266 -0.255512,
        0.016915 -0.042802 -0.255512,
        0.014526 -0.046913 -0.255512,
        0.011424 -0.050154 -0.255512,
        0.007902 -0.052411 -0.255512,
        0.003781 -0.053825 -0.255512,
        -0.010835 -0.046474 -0.255512,
        -0.012866 -0.044562 -0.255512,
        -0.014724 -0.041687 -0.255512,
        -0.015861 -0.038437 -0.255512,
        -0.016356 -0.033777 -0.255512,
        -0.016356 -0.027970 -0.255512,
        0.014372 -0.027970 -0.255512,
        0.014372 -0.033559 -0.255512,
        0.013985 -0.037713 -0.255512,
        0.012951 -0.041026 -0.255512,
        0.011357 -0.043711 -0.255512,
        0.009176 -0.045919 -0.255512,
        0.006461 -0.047580 -0.255512,
        0.002760 -0.048734 -0.255512,
        -0.001375 -0.049096 -0.255512,
        -0.005293 -0.048761 -0.255512,
        -0.008407 -0.047842 -0.255512,
        -0.016356 -0.033777 -0.255906,
        -0.016356 -0.027970 -0.255906,
        -0.015861 -0.038437 -0.255906,
        -0.014724 -0.041687 -0.255906,
        -0.012866 -0.044562 -0.255906,
        -0.010835 -0.046474 -0.255906,
        -0.008407 -0.047842 -0.255906,
        -0.005293 -0.048761 -0.255906,
        -0.001375 -0.049096 -0.255906,
        0.002760 -0.048734 -0.255906,
        0.006461 -0.047580 -0.255906,
        0.009176 -0.045919 -0.255906,
        0.011357 -0.043711 -0.255906,
        0.012951 -0.041026 -0.255906,
        0.013985 -0.037713 -0.255906,
        0.014372 -0.033559 -0.255906,
        0.014372 -0.027970 -0.255906,
        0.014372 -0.015007 -0.255512,
        0.018693 -0.015007 -0.255512,
        0.018693 0.006118 -0.255512,
        -0.020677 0.006118 -0.255512,
        -0.020677 -0.014047 -0.255512,
        -0.016356 -0.014047 -0.255512,
        -0.016356 0.000837 -0.255512,
        -0.003393 0.000837 -0.255512,
        -0.003393 -0.013087 -0.255512,
        0.000928 -0.013087 -0.255512,
        0.000928 0.000837 -0.255512,
        0.014372 0.000837 -0.255512,
        0.012331 0.013800 -0.255512,
        0.016652 0.013800 -0.255512,
        0.018375 0.017997 -0.255512,
        0.019173 0.024633 -0.255512,
        0.019154 0.023557 -0.255512,
        0.018670 0.029485 -0.255512,
        0.017356 0.033301 -0.255512,
        0.015334 0.036468 -0.255512,
        0.012221 0.039425 -0.255512,
        0.008477 0.041522 -0.255512,
        0.004310 0.042707 -0.255512,
        -0.000250 0.043088 -0.255512,
        -0.021157 0.023065 -0.255512,
        -0.020835 0.027019 -0.255512,
        -0.019559 0.031408 -0.255512,
        -0.017407 0.035148 -0.255512,
        -0.013989 0.038702 -0.255512,
        -0.010308 0.041010 -0.255512,
        -0.005847 0.042521 -0.255512,
        -0.019597 0.013800 -0.255512,
        -0.020832 0.018352 -0.255512,
        -0.014316 0.013800 -0.255512,
        -0.016836 0.023020 -0.255512,
        -0.016215 0.018235 -0.255512,
        -0.000572 0.037806 -0.255512,
        -0.003635 0.037619 -0.255512,
        -0.007850 0.036569 -0.255512,
        -0.010890 0.034946 -0.255512,
        -0.013515 0.032569 -0.255512,
        -0.015337 0.029844 -0.255512,
        -0.016401 0.026897 -0.255512,
        0.014852 0.023906 -0.255512,
        0.014440 0.027578 -0.255512,
        0.013384 0.030446 -0.255512,
        0.011755 0.032862 -0.255512,
        0.009806 0.034710 -0.255512,
        0.007076 0.036338 -0.255512,
        0.003690 0.037408 -0.255512,
        0.012722 0.014506 -0.255512,
        0.014272 0.018679 -0.255512,
        0.014372 0.046448 -0.255512,
        0.018693 0.046448 -0.255512,
        0.018693 0.066614 -0.255512,
        -0.020677 0.066614 -0.255512,
        -0.020677 0.061332 -0.255512,
        0.014372 0.061332 -0.255512,
      ]
    }
    coordIndex [
      110, 106, 111, -1,
      111, 106, 105, -1,
      111, 105, 112, -1,
      112, 105, 104, -1,
      112, 104, 113, -1,
      113, 104, 103, -1,
      113, 103, 114, -1,
      114, 103, 109, -1,
      114, 109, 115, -1,
      115, 109, 108, -1,
      115, 108, 116, -1,
      116, 108, 107, -1,
      116, 107, 117, -1,
      117, 107, 100, -1,
      117, 100, 118, -1,
      118, 100, 99, -1,
      118, 99, 119, -1,
      119, 99, 98, -1,
      119, 98, 120, -1,
      120, 98, 94, -1,
      120, 94, 121, -1,
      121, 94, 93, -1,
      121, 93, 122, -1,
      122, 93, 92, -1,
      122, 92, 123, -1,
      123, 92, 91, -1,
      123, 91, 124, -1,
      124, 91, 90, -1,
      124, 90, 125, -1,
      125, 90, 89, -1,
      125, 89, 126, -1,
      126, 89, 88, -1,
      126, 88, 127, -1,
      127, 88, 87, -1,
      127, 87, 128, -1,
      128, 87, 86, -1,
      128, 86, 129, -1,
      129, 86, 102, -1,
      129, 102, 130, -1,
      130, 102, 101, -1,
      130, 101, 131, -1,
      131, 101, 97, -1,
      131, 97, 132, -1,
      132, 97, 96, -1,
      132, 96, 133, -1,
      133, 96, 95, -1,
      133, 95, 110, -1,
      110, 95, 106, -1,
      132, 133, 134, -1,
      134, 133, 110, -1,
      134, 110, 111, -1,
      129, 130, 134, -1,
      134, 130, 131, -1,
      134, 131, 132, -1,
      126, 127, 134, -1,
      134, 127, 128, -1,
      134, 128, 129, -1,
      123, 124, 134, -1,
      134, 124, 125, -1,
      134, 125, 126, -1,
      120, 121, 134, -1,
      134, 121, 122, -1,
      134, 122, 123, -1,
      117, 118, 134, -1,
      134, 118, 119, -1,
      134, 119, 120, -1,
      114, 115, 134, -1,
      134, 115, 116, -1,
      134, 116, 117, -1,
      111, 112, 134, -1,
      134, 112, 113, -1,
      134, 113, 114, -1,
      135, 136, 63, -1,
      63, 136, 64, -1,
      136, 137, 64, -1,
      64, 137, 65, -1,
      137, 138, 65, -1,
      65, 138, 66, -1,
      138, 139, 66, -1,
      66, 139, 67, -1,
      139, 140, 67, -1,
      67, 140, 60, -1,
      140, 141, 60, -1,
      60, 141, 61, -1,
      141, 142, 61, -1,
      61, 142, 62, -1,
      142, 135, 62, -1,
      62, 135, 63, -1,
      143, 144, 142, -1,
      141, 140, 139, -1,
      144, 145, 142, -1,
      142, 145, 146, -1,
      142, 146, 135, -1,
      135, 146, 147, -1,
      135, 147, 148, -1,
      148, 149, 135, -1,
      135, 149, 150, -1,
      135, 150, 136, -1,
      137, 136, 138, -1,
      138, 136, 150, -1,
      138, 150, 139, -1,
      139, 150, 143, -1,
      139, 143, 141, -1,
      141, 143, 142, -1,
      143, 150, 151, -1,
      151, 150, 152, -1,
      144, 143, 153, -1,
      153, 143, 151, -1,
      144, 153, 154, -1,
      144, 154, 145, -1,
      145, 154, 155, -1,
      145, 155, 146, -1,
      147, 146, 156, -1,
      156, 146, 155, -1,
      147, 156, 157, -1,
      147, 157, 148, -1,
      148, 157, 158, -1,
      148, 158, 149, -1,
      150, 149, 152, -1,
      152, 149, 158, -1,
      159, 160, 81, -1,
      81, 160, 82, -1,
      160, 161, 82, -1,
      82, 161, 68, -1,
      161, 162, 68, -1,
      68, 162, 69, -1,
      163, 84, 83, -1,
      163, 83, 164, -1,
      164, 83, 72, -1,
      164, 72, 165, -1,
      165, 72, 71, -1,
      165, 71, 166, -1,
      166, 71, 70, -1,
      166, 70, 167, -1,
      167, 70, 79, -1,
      167, 79, 168, -1,
      168, 79, 78, -1,
      168, 78, 169, -1,
      169, 78, 77, -1,
      169, 77, 170, -1,
      170, 77, 69, -1,
      170, 69, 162, -1,
      159, 81, 80, -1,
      159, 80, 171, -1,
      171, 80, 76, -1,
      171, 76, 172, -1,
      172, 76, 75, -1,
      172, 75, 173, -1,
      173, 75, 74, -1,
      173, 74, 174, -1,
      174, 74, 73, -1,
      174, 73, 175, -1,
      175, 73, 85, -1,
      175, 85, 176, -1,
      176, 85, 84, -1,
      176, 84, 163, -1,
      165, 166, 177, -1,
      177, 166, 167, -1,
      177, 167, 178, -1,
      178, 167, 168, -1,
      178, 168, 179, -1,
      179, 168, 169, -1,
      179, 169, 180, -1,
      180, 169, 170, -1,
      180, 170, 181, -1,
      181, 170, 162, -1,
      181, 162, 182, -1,
      182, 162, 161, -1,
      182, 161, 183, -1,
      183, 161, 160, -1,
      183, 160, 184, -1,
      184, 160, 159, -1,
      184, 159, 185, -1,
      185, 159, 171, -1,
      185, 171, 186, -1,
      186, 171, 172, -1,
      186, 172, 187, -1,
      187, 172, 173, -1,
      187, 173, 188, -1,
      188, 173, 174, -1,
      188, 174, 189, -1,
      189, 174, 175, -1,
      189, 175, 190, -1,
      190, 175, 176, -1,
      190, 176, 191, -1,
      191, 176, 163, -1,
      191, 163, 192, -1,
      192, 163, 164, -1,
      192, 164, 193, -1,
      193, 164, 165, -1,
      193, 165, 177, -1,
      181, 182, 194, -1,
      194, 182, 195, -1,
      181, 194, 196, -1,
      181, 196, 180, -1,
      180, 196, 197, -1,
      180, 197, 179, -1,
      179, 197, 198, -1,
      179, 198, 178, -1,
      178, 198, 199, -1,
      178, 199, 177, -1,
      177, 199, 200, -1,
      177, 200, 193, -1,
      193, 200, 201, -1,
      193, 201, 192, -1,
      192, 201, 202, -1,
      192, 202, 191, -1,
      191, 202, 203, -1,
      191, 203, 190, -1,
      190, 203, 204, -1,
      190, 204, 189, -1,
      189, 204, 205, -1,
      189, 205, 188, -1,
      188, 205, 206, -1,
      188, 206, 187, -1,
      187, 206, 207, -1,
      187, 207, 186, -1,
      186, 207, 208, -1,
      186, 208, 185, -1,
      185, 208, 209, -1,
      185, 209, 184, -1,
      183, 184, 210, -1,
      210, 184, 209, -1,
      182, 183, 195, -1,
      195, 183, 210, -1,
      211, 212, 54, -1,
      54, 212, 55, -1,
      212, 213, 55, -1,
      55, 213, 30, -1,
      213, 214, 30, -1,
      30, 214, 3, -1,
      214, 215, 3, -1,
      3, 215, 4, -1,
      215, 216, 4, -1,
      4, 216, 5, -1,
      216, 217, 5, -1,
      5, 217, 15, -1,
      217, 218, 15, -1,
      15, 218, 14, -1,
      218, 219, 14, -1,
      14, 219, 13, -1,
      219, 220, 13, -1,
      13, 220, 12, -1,
      220, 221, 12, -1,
      12, 221, 52, -1,
      221, 222, 52, -1,
      52, 222, 53, -1,
      222, 211, 53, -1,
      53, 211, 54, -1,
      213, 212, 211, -1,
      211, 222, 213, -1,
      213, 222, 221, -1,
      213, 221, 214, -1,
      216, 215, 217, -1,
      217, 215, 214, -1,
      217, 214, 218, -1,
      218, 214, 221, -1,
      218, 221, 219, -1,
      219, 221, 220, -1,
      223, 224, 10, -1,
      10, 224, 31, -1,
      31, 224, 225, -1,
      226, 56, 57, -1,
      226, 57, 227, -1,
      227, 57, 58, -1,
      227, 58, 225, -1,
      225, 58, 59, -1,
      225, 59, 31, -1,
      56, 226, 32, -1,
      32, 226, 228, -1,
      32, 228, 33, -1,
      33, 228, 229, -1,
      33, 229, 34, -1,
      34, 229, 230, -1,
      34, 230, 6, -1,
      6, 230, 231, -1,
      6, 231, 7, -1,
      7, 231, 232, -1,
      7, 232, 24, -1,
      24, 232, 233, -1,
      24, 233, 47, -1,
      47, 233, 234, -1,
      47, 234, 48, -1,
      235, 27, 26, -1,
      235, 26, 236, -1,
      236, 26, 20, -1,
      236, 20, 237, -1,
      237, 20, 19, -1,
      237, 19, 238, -1,
      238, 19, 17, -1,
      238, 17, 239, -1,
      239, 17, 16, -1,
      239, 16, 240, -1,
      240, 16, 49, -1,
      240, 49, 241, -1,
      241, 49, 48, -1,
      241, 48, 234, -1,
      242, 29, 28, -1,
      242, 28, 243, -1,
      243, 28, 27, -1,
      243, 27, 235, -1,
      242, 244, 29, -1,
      29, 244, 11, -1,
      245, 0, 9, -1,
      245, 9, 246, -1,
      246, 9, 11, -1,
      246, 11, 244, -1,
      247, 38, 51, -1,
      247, 51, 248, -1,
      248, 51, 50, -1,
      248, 50, 249, -1,
      249, 50, 37, -1,
      249, 37, 250, -1,
      250, 37, 36, -1,
      250, 36, 251, -1,
      251, 36, 35, -1,
      251, 35, 252, -1,
      252, 35, 1, -1,
      252, 1, 253, -1,
      253, 1, 0, -1,
      253, 0, 245, -1,
      254, 42, 41, -1,
      254, 41, 255, -1,
      255, 41, 43, -1,
      255, 43, 256, -1,
      256, 43, 44, -1,
      256, 44, 257, -1,
      257, 44, 45, -1,
      257, 45, 258, -1,
      258, 45, 40, -1,
      258, 40, 259, -1,
      259, 40, 39, -1,
      259, 39, 260, -1,
      260, 39, 38, -1,
      260, 38, 247, -1,
      223, 10, 2, -1,
      223, 2, 261, -1,
      261, 2, 46, -1,
      261, 46, 262, -1,
      262, 46, 42, -1,
      262, 42, 254, -1,
      255, 226, 254, -1,
      254, 226, 227, -1,
      254, 227, 262, -1,
      262, 227, 225, -1,
      262, 225, 261, -1,
      261, 225, 224, -1,
      261, 224, 223, -1,
      244, 242, 246, -1,
      246, 242, 243, -1,
      246, 243, 245, -1,
      245, 243, 235, -1,
      245, 235, 253, -1,
      253, 235, 236, -1,
      253, 236, 252, -1,
      252, 236, 237, -1,
      252, 237, 251, -1,
      251, 237, 238, -1,
      251, 238, 250, -1,
      250, 238, 239, -1,
      250, 239, 249, -1,
      249, 239, 240, -1,
      249, 240, 248, -1,
      248, 240, 241, -1,
      248, 241, 247, -1,
      247, 241, 234, -1,
      247, 234, 260, -1,
      260, 234, 233, -1,
      260, 233, 259, -1,
      259, 233, 232, -1,
      259, 232, 258, -1,
      258, 232, 231, -1,
      258, 231, 257, -1,
      257, 231, 230, -1,
      257, 230, 256, -1,
      256, 230, 229, -1,
      256, 229, 255, -1,
      255, 229, 228, -1,
      255, 228, 226, -1,
      263, 264, 23, -1,
      23, 264, 8, -1,
      264, 265, 8, -1,
      8, 265, 21, -1,
      265, 266, 21, -1,
      21, 266, 22, -1,
      266, 267, 22, -1,
      22, 267, 18, -1,
      267, 268, 18, -1,
      18, 268, 25, -1,
      268, 263, 25, -1,
      25, 263, 23, -1,
      267, 266, 268, -1,
      268, 266, 265, -1,
      268, 265, 263, -1,
      263, 265, 264, -1,
    ]
  }
}

Shape {
  appearance Appearance {
    material Material {
      diffuseColor 0.2235 0.2235 0.2235
      specularColor 0.1137 0.1137 0.1137
      ambientIntensity 0.2
      transparency 0.0000
      shininess 0.5
    }
  }
  geometry IndexedFaceSet {
    ccw TRUE
    solid FALSE
    coord DEF co Coordinate {
      point [
        0.003329 -0.068106 -0.255906,
        0.003329 -0.081272 -0.255906,
        -0.013115 -0.073980 -0.255906,
        -0.014481 -0.074359 -0.255906,
        -0.015876 -0.074610 -0.255906,
        -0.015876 -0.074737 -0.255906,
        -0.014485 -0.074994 -0.255906,
        -0.013115 -0.075345 -0.255906,
        -0.016356 -0.033777 -0.255906,
        -0.016356 -0.027970 -0.255906,
        -0.015861 -0.038437 -0.255906,
        -0.014724 -0.041687 -0.255906,
        -0.012866 -0.044562 -0.255906,
        -0.010835 -0.046474 -0.255906,
        -0.008407 -0.047842 -0.255906,
        -0.005293 -0.048761 -0.255906,
        -0.001375 -0.049096 -0.255906,
        0.002760 -0.048734 -0.255906,
        0.006461 -0.047580 -0.255906,
        0.009176 -0.045919 -0.255906,
        0.011357 -0.043711 -0.255906,
        0.012951 -0.041026 -0.255906,
        0.013985 -0.037713 -0.255906,
        0.014372 -0.033559 -0.255906,
        0.014372 -0.027970 -0.255906,
      ]
    }
    coordIndex [
      0, 1, 2, -1,
      2, 1, 7, -1,
      2, 7, 3, -1,
      3, 7, 6, -1,
      3, 6, 4, -1,
      4, 6, 5, -1,
      9, 24, 8, -1,
      8, 24, 23, -1,
      8, 23, 22, -1,
      16, 15, 8, -1,
      8, 15, 14, -1,
      8, 14, 10, -1,
      22, 21, 8, -1,
      8, 21, 20, -1,
      8, 20, 19, -1,
      19, 18, 8, -1,
      8, 18, 17, -1,
      8, 17, 16, -1,
      13, 12, 14, -1,
      14, 12, 11, -1,
      14, 11, 10, -1,
    ]
  }
}
