#VRML V2.0 utf8

Shape {
  appearance Appearance {
    material Material {
      diffuseColor 0.2078 0.2078 0.2078
      specularColor 0.0157 0.0157 0.0157
      ambientIntensity 0.2
      transparency 0.0000
      shininess 0.5
    }
  }
  geometry IndexedFaceSet {
    ccw TRUE
    solid FALSE
    coord DEF co Coordinate {
      point [
        -0.724676 -0.921526 -0.285433,
        -0.724676 0.103226 -0.285433,
        -0.103443 0.103226 -0.285433,
        -0.083038 0.168531 -0.285433,
        -0.080861 0.187914 -0.285433,
        0.064754 0.125959 -0.285433,
        -0.096841 0.122431 -0.285433,
        -0.070435 0.122431 -0.285433,
        -0.079930 0.144604 -0.285433,
        0.062800 0.122431 -0.285433,
        0.077814 0.235768 -0.285433,
        0.073002 0.285673 -0.285433,
        0.087926 0.219934 -0.285433,
        0.094493 0.200854 -0.285433,
        0.724676 0.103226 -0.285433,
        0.094607 0.285673 -0.285433,
        0.724676 0.921526 -0.285433,
        0.094607 0.386499 -0.285433,
        -0.103443 0.921526 -0.285433,
        0.062248 0.250554 -0.285433,
        0.043530 0.261041 -0.285433,
        0.073002 0.360092 -0.285433,
        -0.050411 0.258472 -0.285433,
        -0.068813 0.246931 -0.285433,
        -0.102243 0.360092 -0.285433,
        -0.085903 0.229155 -0.285433,
        -0.096661 0.210456 -0.285433,
        -0.075544 0.202648 -0.285433,
        -0.066429 0.216273 -0.285433,
        -0.053306 0.228160 -0.285433,
        -0.001717 0.242462 -0.285433,
        0.019593 0.240469 -0.285433,
        0.036525 0.235121 -0.285433,
        0.073343 0.191317 -0.285433,
        0.075403 0.172957 -0.285433,
        0.068063 0.205661 -0.285433,
        0.059920 0.217742 -0.285433,
        0.050175 0.226980 -0.285433,
        0.072502 0.146827 -0.285433,
        -0.103032 0.188511 -0.285433,
        -0.103443 0.183472 -0.285433,
        -0.102243 0.386499 -0.285433,
        0.084405 0.122431 -0.285433,
        0.093020 0.143415 -0.285433,
        0.096916 0.171213 -0.285433,
        -0.038106 0.236276 -0.285433,
        -0.017033 0.241523 -0.285433,
        0.097008 0.176595 -0.285433,
        0.022694 0.266965 -0.285433,
        -0.000104 0.268869 -0.285433,
        -0.028091 0.266037 -0.285433,
        -0.724676 0.921526 -0.285433,
        -0.104643 0.168756 -0.285433,
        -0.103443 0.151361 -0.285433,
        -0.103017 0.145191 -0.285433,
        0.094607 -0.261667 -0.285433,
        0.094607 -0.232859 -0.285433,
        -0.103443 -0.921526 -0.285433,
        -0.102243 -0.333685 -0.285433,
        0.724676 -0.921526 -0.285433,
        0.094607 -0.410505 -0.285433,
        0.094607 -0.381698 -0.285433,
        0.039393 -0.361780 -0.285433,
        0.039393 -0.280459 -0.285433,
        -0.102243 -0.060015 -0.285433,
        -0.102243 -0.115567 -0.285433,
        -0.102243 -0.307279 -0.285433,
        -0.080637 0.057615 -0.285433,
        -0.015821 0.057615 -0.285433,
        -0.080637 -0.016804 -0.285433,
        -0.015821 -0.012003 -0.285433,
        -0.099203 -0.144007 -0.285433,
        -0.091115 -0.167038 -0.285433,
        -0.076757 -0.188464 -0.285433,
        -0.102243 -0.016804 -0.285433,
        0.094607 -0.060015 -0.285433,
        0.005785 -0.012003 -0.285433,
        -0.076576 -0.188670 -0.285433,
        -0.061140 -0.202590 -0.285433,
        -0.044211 -0.211738 -0.285433,
        0.040655 -0.208626 -0.285433,
        0.058262 -0.197337 -0.285433,
        0.073776 -0.181135 -0.285433,
        0.085720 -0.160581 -0.285433,
        0.092481 -0.137898 -0.285433,
        0.094607 -0.113542 -0.285433,
        0.005785 0.057615 -0.285433,
        0.073002 0.057615 -0.285433,
        0.073002 -0.021606 -0.285433,
        0.094607 -0.021606 -0.285433,
        0.094607 0.084022 -0.285433,
        -0.102243 0.084022 -0.285433,
        -0.024816 -0.217025 -0.285433,
        -0.006293 -0.218456 -0.285433,
        0.020051 -0.215694 -0.285433,
        0.767717 -0.964567 0.041339,
        0.767717 -0.964567 -0.041339,
        0.767717 -0.822835 0.041339,
        0.767717 -0.822835 -0.041339,
        0.767717 -0.677165 -0.041339,
        0.767717 -0.322835 -0.041339,
        0.767717 -0.677165 0.041339,
        0.767717 -0.322835 0.041339,
        0.767717 -0.177165 -0.041339,
        0.767717 0.177165 -0.041339,
        0.767717 -0.177165 0.041339,
        0.767717 0.177165 0.041339,
        0.767717 0.964567 -0.041339,
        0.767717 0.964567 0.041339,
        0.767717 0.822835 -0.041339,
        0.767717 0.822835 0.041339,
        -0.767717 -0.964567 -0.041339,
        -0.767717 -0.964567 0.041339,
        -0.767717 -0.822835 -0.041339,
        -0.767717 -0.822835 0.041339,
        -0.767717 -0.677165 0.041339,
        -0.767717 -0.322835 0.041339,
        -0.767717 -0.677165 -0.041339,
        -0.767717 -0.322835 -0.041339,
        -0.767717 -0.177165 0.041339,
        -0.767717 0.177165 0.041339,
        -0.767717 -0.177165 -0.041339,
        -0.767717 0.177165 -0.041339,
        -0.767717 0.322835 0.041339,
        -0.767717 0.677165 0.041339,
        -0.767717 0.322835 -0.041339,
        -0.767717 0.677165 -0.041339,
        -0.767717 0.822835 0.041339,
        -0.767717 0.964567 0.041339,
        -0.767717 0.822835 -0.041339,
        -0.767717 0.964567 -0.041339,
        0.767717 0.322835 -0.041339,
        0.767717 0.677165 -0.041339,
        0.767717 0.322835 0.041339,
        0.767717 0.677165 0.041339,
        0.724676 -0.921526 0.285433,
        0.724676 0.921526 0.285433,
        -0.724676 0.921526 0.285433,
        -0.724676 -0.921526 0.285433,
        -0.425539 0.783731 0.285433,
        -0.413740 0.755245 0.285433,
        -0.586881 0.826963 0.285433,
        -0.558395 0.838762 0.285433,
        -0.444309 0.808193 0.285433,
        -0.527826 0.842786 0.285433,
        -0.497256 0.838762 0.285433,
        -0.468770 0.826963 0.285433,
        -0.409715 0.724676 0.285433,
        -0.413740 0.694107 0.285433,
        -0.425539 0.665621 0.285433,
        -0.444309 0.641159 0.285433,
        -0.468770 0.622390 0.285433,
        -0.497256 0.610591 0.285433,
        -0.527826 0.606566 0.285433,
        -0.558395 0.610591 0.285433,
        -0.586881 0.622390 0.285433,
        -0.611342 0.641159 0.285433,
        -0.630112 0.665621 0.285433,
        -0.641911 0.694107 0.285433,
        -0.645936 0.724676 0.285433,
        -0.641911 0.755245 0.285433,
        -0.630112 0.783731 0.285433,
        -0.611342 0.808193 0.285433,
      ]
    }
    coordIndex [
      0, 1, 2, -1,
      3, 4, 5, -1,
      2, 6, 7, -1,
      3, 5, 8, -1,
      8, 5, 9, -1,
      8, 9, 7, -1,
      10, 11, 12, -1,
      12, 11, 13, -1,
      14, 15, 16, -1,
      16, 15, 17, -1,
      16, 17, 18, -1,
      10, 19, 11, -1,
      11, 19, 20, -1,
      11, 20, 21, -1,
      22, 23, 24, -1,
      24, 23, 25, -1,
      24, 25, 26, -1,
      4, 27, 5, -1,
      5, 27, 28, -1,
      5, 28, 29, -1,
      30, 31, 5, -1,
      5, 31, 32, -1,
      33, 34, 35, -1,
      35, 34, 36, -1,
      32, 37, 5, -1,
      5, 37, 36, -1,
      5, 36, 38, -1,
      38, 36, 34, -1,
      26, 39, 24, -1,
      24, 39, 40, -1,
      24, 40, 41, -1,
      7, 9, 2, -1,
      2, 9, 42, -1,
      2, 42, 14, -1,
      14, 42, 43, -1,
      14, 43, 44, -1,
      29, 45, 5, -1,
      5, 45, 46, -1,
      5, 46, 30, -1,
      11, 15, 13, -1,
      13, 15, 14, -1,
      13, 14, 47, -1,
      47, 14, 44, -1,
      20, 48, 21, -1,
      21, 48, 49, -1,
      21, 49, 24, -1,
      24, 49, 50, -1,
      24, 50, 22, -1,
      17, 41, 18, -1,
      18, 41, 40, -1,
      18, 40, 51, -1,
      51, 40, 1, -1,
      40, 52, 1, -1,
      1, 52, 53, -1,
      1, 53, 2, -1,
      2, 53, 54, -1,
      2, 54, 6, -1,
      55, 56, 14, -1,
      0, 2, 57, -1,
      57, 2, 58, -1,
      57, 58, 59, -1,
      59, 58, 60, -1,
      59, 60, 61, -1,
      62, 63, 61, -1,
      61, 63, 55, -1,
      61, 55, 59, -1,
      59, 55, 14, -1,
      64, 65, 2, -1,
      2, 65, 66, -1,
      2, 66, 58, -1,
      67, 68, 69, -1,
      69, 68, 70, -1,
      65, 71, 66, -1,
      66, 71, 72, -1,
      66, 72, 73, -1,
      2, 74, 64, -1,
      64, 74, 69, -1,
      64, 69, 75, -1,
      75, 69, 70, -1,
      75, 70, 76, -1,
      73, 77, 66, -1,
      66, 77, 78, -1,
      66, 78, 79, -1,
      80, 81, 56, -1,
      56, 81, 82, -1,
      56, 82, 14, -1,
      14, 82, 83, -1,
      83, 84, 14, -1,
      14, 84, 85, -1,
      14, 85, 75, -1,
      86, 87, 76, -1,
      76, 87, 88, -1,
      76, 88, 75, -1,
      75, 88, 89, -1,
      75, 89, 14, -1,
      14, 89, 90, -1,
      14, 90, 2, -1,
      2, 90, 91, -1,
      2, 91, 74, -1,
      79, 92, 66, -1,
      66, 92, 93, -1,
      66, 93, 56, -1,
      56, 93, 94, -1,
      56, 94, 80, -1,
      95, 96, 97, -1,
      97, 96, 98, -1,
      99, 100, 101, -1,
      101, 100, 102, -1,
      103, 104, 105, -1,
      105, 104, 106, -1,
      107, 108, 109, -1,
      109, 108, 110, -1,
      111, 112, 113, -1,
      113, 112, 114, -1,
      115, 116, 117, -1,
      117, 116, 118, -1,
      119, 120, 121, -1,
      121, 120, 122, -1,
      123, 124, 125, -1,
      125, 124, 126, -1,
      127, 128, 129, -1,
      129, 128, 130, -1,
      95, 112, 96, -1,
      96, 112, 111, -1,
      131, 132, 133, -1,
      133, 132, 134, -1,
      128, 108, 130, -1,
      130, 108, 107, -1,
      95, 97, 135, -1,
      135, 97, 101, -1,
      101, 102, 135, -1,
      135, 102, 105, -1,
      135, 105, 136, -1,
      136, 105, 106, -1,
      136, 106, 133, -1,
      133, 134, 136, -1,
      136, 134, 110, -1,
      136, 110, 108, -1,
      137, 136, 128, -1,
      128, 136, 108, -1,
      128, 127, 137, -1,
      137, 127, 124, -1,
      124, 123, 137, -1,
      137, 123, 120, -1,
      137, 120, 138, -1,
      138, 120, 119, -1,
      138, 119, 116, -1,
      116, 115, 138, -1,
      138, 115, 114, -1,
      138, 114, 112, -1,
      135, 138, 95, -1,
      95, 138, 112, -1,
      139, 140, 136, -1,
      141, 142, 137, -1,
      139, 136, 143, -1,
      142, 144, 137, -1,
      137, 144, 145, -1,
      137, 145, 136, -1,
      136, 145, 146, -1,
      136, 146, 143, -1,
      140, 147, 136, -1,
      136, 147, 148, -1,
      136, 148, 135, -1,
      135, 148, 149, -1,
      149, 150, 135, -1,
      135, 150, 151, -1,
      135, 151, 138, -1,
      138, 151, 152, -1,
      138, 152, 153, -1,
      153, 154, 138, -1,
      138, 154, 155, -1,
      138, 155, 156, -1,
      156, 157, 138, -1,
      138, 157, 158, -1,
      138, 158, 137, -1,
      137, 158, 159, -1,
      137, 159, 160, -1,
      160, 161, 137, -1,
      137, 161, 162, -1,
      137, 162, 141, -1,
      98, 96, 59, -1,
      104, 103, 14, -1,
      14, 103, 100, -1,
      14, 100, 59, -1,
      59, 100, 99, -1,
      59, 99, 98, -1,
      107, 109, 16, -1,
      16, 109, 132, -1,
      16, 132, 14, -1,
      14, 132, 131, -1,
      14, 131, 104, -1,
      107, 16, 130, -1,
      130, 16, 18, -1,
      130, 18, 51, -1,
      129, 130, 51, -1,
      121, 122, 1, -1,
      1, 122, 125, -1,
      1, 125, 51, -1,
      51, 125, 126, -1,
      51, 126, 129, -1,
      111, 113, 0, -1,
      0, 113, 117, -1,
      0, 117, 1, -1,
      1, 117, 118, -1,
      1, 118, 121, -1,
      59, 96, 57, -1,
      57, 96, 111, -1,
      57, 111, 0, -1,
    ]
  }
}

Shape {
  appearance Appearance {
    material Material {
      diffuseColor 0.3490 0.3490 0.3490
      specularColor 0.0235 0.0235 0.0235
      ambientIntensity 0.2
      transparency 0.0000
      shininess 0.5
    }
  }
  geometry IndexedFaceSet {
    ccw TRUE
    solid FALSE
    coord DEF co Coordinate {
      point [
        -0.425539 0.783731 0.285433,
        -0.413740 0.755245 0.285433,
        -0.586881 0.826963 0.285433,
        -0.558395 0.838762 0.285433,
        -0.444309 0.808193 0.285433,
        -0.527826 0.842786 0.285433,
        -0.497256 0.838762 0.285433,
        -0.468770 0.826963 0.285433,
        -0.409715 0.724676 0.285433,
        -0.413740 0.694107 0.285433,
        -0.425539 0.665621 0.285433,
        -0.444309 0.641159 0.285433,
        -0.468770 0.622390 0.285433,
        -0.497256 0.610591 0.285433,
        -0.527826 0.606566 0.285433,
        -0.558395 0.610591 0.285433,
        -0.586881 0.622390 0.285433,
        -0.611342 0.641159 0.285433,
        -0.630112 0.665621 0.285433,
        -0.641911 0.694107 0.285433,
        -0.645936 0.724676 0.285433,
        -0.641911 0.755245 0.285433,
        -0.630112 0.783731 0.285433,
        -0.611342 0.808193 0.285433,
        -0.527826 0.842786 0.277559,
        -0.558395 0.838762 0.277559,
        -0.586881 0.826963 0.277559,
        -0.611342 0.808193 0.277559,
        -0.630112 0.783731 0.277559,
        -0.641911 0.755245 0.277559,
        -0.645936 0.724676 0.277559,
        -0.641911 0.694107 0.277559,
        -0.630112 0.665621 0.277559,
        -0.611342 0.641159 0.277559,
        -0.586881 0.622390 0.277559,
        -0.558395 0.610591 0.277559,
        -0.527826 0.606566 0.277559,
        -0.497256 0.610591 0.277559,
        -0.468770 0.622390 0.277559,
        -0.444309 0.641159 0.277559,
        -0.425539 0.665621 0.277559,
        -0.413740 0.694107 0.277559,
        -0.409715 0.724676 0.277559,
        -0.413740 0.755245 0.277559,
        -0.425539 0.783731 0.277559,
        -0.444309 0.808193 0.277559,
        -0.468770 0.826963 0.277559,
        -0.497256 0.838762 0.277559,
        -0.527826 0.724676 0.277559,
      ]
    }
    coordIndex [
      24, 5, 25, -1,
      25, 5, 3, -1,
      25, 3, 26, -1,
      26, 3, 2, -1,
      26, 2, 27, -1,
      27, 2, 23, -1,
      27, 23, 28, -1,
      28, 23, 22, -1,
      28, 22, 29, -1,
      29, 22, 21, -1,
      29, 21, 30, -1,
      30, 21, 20, -1,
      30, 20, 31, -1,
      31, 20, 19, -1,
      31, 19, 32, -1,
      32, 19, 18, -1,
      32, 18, 33, -1,
      33, 18, 17, -1,
      33, 17, 34, -1,
      34, 17, 16, -1,
      34, 16, 35, -1,
      35, 16, 15, -1,
      35, 15, 36, -1,
      36, 15, 14, -1,
      36, 14, 37, -1,
      37, 14, 13, -1,
      37, 13, 38, -1,
      38, 13, 12, -1,
      38, 12, 39, -1,
      39, 12, 11, -1,
      39, 11, 40, -1,
      40, 11, 10, -1,
      40, 10, 41, -1,
      41, 10, 9, -1,
      41, 9, 42, -1,
      42, 9, 8, -1,
      42, 8, 43, -1,
      43, 8, 1, -1,
      43, 1, 44, -1,
      44, 1, 0, -1,
      44, 0, 45, -1,
      45, 0, 4, -1,
      45, 4, 46, -1,
      46, 4, 7, -1,
      46, 7, 47, -1,
      47, 7, 6, -1,
      47, 6, 24, -1,
      24, 6, 5, -1,
      46, 47, 48, -1,
      48, 47, 24, -1,
      48, 24, 25, -1,
      43, 44, 48, -1,
      48, 44, 45, -1,
      48, 45, 46, -1,
      40, 41, 48, -1,
      48, 41, 42, -1,
      48, 42, 43, -1,
      37, 38, 48, -1,
      48, 38, 39, -1,
      48, 39, 40, -1,
      34, 35, 48, -1,
      48, 35, 36, -1,
      48, 36, 37, -1,
      31, 32, 48, -1,
      48, 32, 33, -1,
      48, 33, 34, -1,
      28, 29, 48, -1,
      48, 29, 30, -1,
      48, 30, 31, -1,
      25, 26, 48, -1,
      48, 26, 27, -1,
      48, 27, 28, -1,
    ]
  }
}

Shape {
  appearance Appearance {
    material Material {
      diffuseColor 0.6667 0.6667 0.6667
      specularColor 0.4667 0.4667 0.4667
      ambientIntensity 0.2
      transparency 0.0000
      shininess 0.5
    }
  }
  geometry IndexedFaceSet {
    ccw TRUE
    solid FALSE
    coord DEF co Coordinate {
      point [
        0.767717 -0.822835 0.041339,
        0.767717 -0.822835 -0.041339,
        0.767717 -0.677165 -0.041339,
        0.767717 -0.322835 -0.041339,
        0.767717 -0.677165 0.041339,
        0.767717 -0.322835 0.041339,
        0.767717 -0.177165 -0.041339,
        0.767717 0.177165 -0.041339,
        0.767717 -0.177165 0.041339,
        0.767717 0.177165 0.041339,
        0.767717 0.822835 -0.041339,
        0.767717 0.822835 0.041339,
        -0.767717 -0.822835 -0.041339,
        -0.767717 -0.822835 0.041339,
        -0.767717 -0.677165 0.041339,
        -0.767717 -0.322835 0.041339,
        -0.767717 -0.677165 -0.041339,
        -0.767717 -0.322835 -0.041339,
        -0.767717 -0.177165 0.041339,
        -0.767717 0.177165 0.041339,
        -0.767717 -0.177165 -0.041339,
        -0.767717 0.177165 -0.041339,
        -0.767717 0.322835 0.041339,
        -0.767717 0.677165 0.041339,
        -0.767717 0.322835 -0.041339,
        -0.767717 0.677165 -0.041339,
        -0.767717 0.822835 0.041339,
        -0.767717 0.822835 -0.041339,
        0.767717 0.322835 -0.041339,
        0.767717 0.677165 -0.041339,
        0.767717 0.322835 0.041339,
        0.767717 0.677165 0.041339,
        -1.181102 0.822835 -0.324803,
        -0.946160 0.822835 -0.324803,
        -1.181102 0.677165 -0.324803,
        -0.946160 0.677165 -0.324803,
        -1.181102 0.822835 -0.242126,
        -1.181102 0.677165 -0.242126,
        -0.946160 0.822835 -0.242126,
        -0.946160 0.677165 -0.242126,
        -0.941342 0.822835 -0.241527,
        -0.941342 0.677165 -0.241527,
        -0.936817 0.822835 -0.239768,
        -0.936817 0.677165 -0.239768,
        -0.932861 0.822835 -0.236954,
        -0.932861 0.677165 -0.236954,
        -0.929713 0.822835 -0.233258,
        -0.929713 0.677165 -0.233258,
        -0.927566 0.822835 -0.228904,
        -0.927566 0.677165 -0.228904,
        -0.926550 0.822835 -0.224157,
        -0.926550 0.677165 -0.224157,
        -0.911497 0.822835 -0.052102,
        -0.911497 0.677165 -0.052102,
        -0.906212 0.677165 -0.027417,
        -0.906212 0.822835 -0.027417,
        -0.895046 0.677165 -0.004775,
        -0.895046 0.822835 -0.004775,
        -0.878679 0.677165 0.014446,
        -0.878679 0.822835 0.014446,
        -0.858106 0.677165 0.029076,
        -0.858106 0.822835 0.029076,
        -0.834577 0.677165 0.038226,
        -0.834577 0.822835 0.038226,
        -0.809524 0.677165 0.041339,
        -0.809524 0.822835 0.041339,
        -0.809524 0.822835 -0.041339,
        -0.809524 0.677165 -0.041339,
        -0.814342 0.822835 -0.041937,
        -0.814342 0.677165 -0.041937,
        -0.818867 0.822835 -0.043697,
        -0.818867 0.677165 -0.043697,
        -0.822823 0.822835 -0.046510,
        -0.822823 0.677165 -0.046510,
        -0.825971 0.822835 -0.050207,
        -0.825971 0.677165 -0.050207,
        -0.828118 0.822835 -0.054561,
        -0.828118 0.677165 -0.054561,
        -0.829134 0.822835 -0.059308,
        -0.829134 0.677165 -0.059308,
        -0.844187 0.822835 -0.231362,
        -0.844187 0.677165 -0.231362,
        -0.849472 0.677165 -0.256048,
        -0.849472 0.822835 -0.256048,
        -0.860637 0.677165 -0.278690,
        -0.860637 0.822835 -0.278690,
        -0.877005 0.677165 -0.297910,
        -0.877005 0.822835 -0.297910,
        -0.897579 0.677165 -0.312540,
        -0.897579 0.822835 -0.312540,
        -0.921107 0.677165 -0.321690,
        -0.921107 0.822835 -0.321690,
        -1.181102 0.322835 -0.324803,
        -0.946160 0.322835 -0.324803,
        -1.181102 0.177165 -0.324803,
        -0.946160 0.177165 -0.324803,
        -1.181102 0.322835 -0.242126,
        -1.181102 0.177165 -0.242126,
        -0.946160 0.322835 -0.242126,
        -0.946160 0.177165 -0.242126,
        -0.941342 0.322835 -0.241527,
        -0.941342 0.177165 -0.241527,
        -0.936817 0.322835 -0.239768,
        -0.936817 0.177165 -0.239768,
        -0.932861 0.322835 -0.236954,
        -0.932861 0.177165 -0.236954,
        -0.929713 0.322835 -0.233258,
        -0.929713 0.177165 -0.233258,
        -0.927566 0.322835 -0.228904,
        -0.927566 0.177165 -0.228904,
        -0.926550 0.322835 -0.224157,
        -0.926550 0.177165 -0.224157,
        -0.911497 0.322835 -0.052102,
        -0.911497 0.177165 -0.052102,
        -0.906212 0.177165 -0.027417,
        -0.906212 0.322835 -0.027417,
        -0.895046 0.177165 -0.004775,
        -0.895046 0.322835 -0.004775,
        -0.878679 0.177165 0.014446,
        -0.878679 0.322835 0.014446,
        -0.858106 0.177165 0.029076,
        -0.858106 0.322835 0.029076,
        -0.834577 0.177165 0.038226,
        -0.834577 0.322835 0.038226,
        -0.809524 0.177165 0.041339,
        -0.809524 0.322835 0.041339,
        -0.809524 0.322835 -0.041339,
        -0.809524 0.177165 -0.041339,
        -0.814342 0.322835 -0.041937,
        -0.814342 0.177165 -0.041937,
        -0.818867 0.322835 -0.043697,
        -0.818867 0.177165 -0.043697,
        -0.822823 0.322835 -0.046510,
        -0.822823 0.177165 -0.046510,
        -0.825971 0.322835 -0.050207,
        -0.825971 0.177165 -0.050207,
        -0.828118 0.322835 -0.054561,
        -0.828118 0.177165 -0.054561,
        -0.829134 0.322835 -0.059308,
        -0.829134 0.177165 -0.059308,
        -0.844187 0.322835 -0.231362,
        -0.844187 0.177165 -0.231362,
        -0.849472 0.177165 -0.256048,
        -0.849472 0.322835 -0.256048,
        -0.860637 0.177165 -0.278690,
        -0.860637 0.322835 -0.278690,
        -0.877005 0.177165 -0.297910,
        -0.877005 0.322835 -0.297910,
        -0.897579 0.177165 -0.312540,
        -0.897579 0.322835 -0.312540,
        -0.921107 0.177165 -0.321690,
        -0.921107 0.322835 -0.321690,
        -1.181102 -0.177165 -0.324803,
        -0.946160 -0.177165 -0.324803,
        -1.181102 -0.322835 -0.324803,
        -0.946160 -0.322835 -0.324803,
        -1.181102 -0.177165 -0.242126,
        -1.181102 -0.322835 -0.242126,
        -0.946160 -0.177165 -0.242126,
        -0.946160 -0.322835 -0.242126,
        -0.941342 -0.177165 -0.241527,
        -0.941342 -0.322835 -0.241527,
        -0.936817 -0.177165 -0.239768,
        -0.936817 -0.322835 -0.239768,
        -0.932861 -0.177165 -0.236954,
        -0.932861 -0.322835 -0.236954,
        -0.929713 -0.177165 -0.233258,
        -0.929713 -0.322835 -0.233258,
        -0.927566 -0.177165 -0.228904,
        -0.927566 -0.322835 -0.228904,
        -0.926550 -0.177165 -0.224157,
        -0.926550 -0.322835 -0.224157,
        -0.911497 -0.177165 -0.052102,
        -0.911497 -0.322835 -0.052102,
        -0.906212 -0.322835 -0.027417,
        -0.906212 -0.177165 -0.027417,
        -0.895046 -0.322835 -0.004775,
        -0.895046 -0.177165 -0.004775,
        -0.878679 -0.322835 0.014446,
        -0.878679 -0.177165 0.014446,
        -0.858106 -0.322835 0.029076,
        -0.858106 -0.177165 0.029076,
        -0.834577 -0.322835 0.038226,
        -0.834577 -0.177165 0.038226,
        -0.809524 -0.322835 0.041339,
        -0.809524 -0.177165 0.041339,
        -0.809524 -0.177165 -0.041339,
        -0.809524 -0.322835 -0.041339,
        -0.814342 -0.177165 -0.041937,
        -0.814342 -0.322835 -0.041937,
        -0.818867 -0.177165 -0.043697,
        -0.818867 -0.322835 -0.043697,
        -0.822823 -0.177165 -0.046510,
        -0.822823 -0.322835 -0.046510,
        -0.825971 -0.177165 -0.050207,
        -0.825971 -0.322835 -0.050207,
        -0.828118 -0.177165 -0.054561,
        -0.828118 -0.322835 -0.054561,
        -0.829134 -0.177165 -0.059308,
        -0.829134 -0.322835 -0.059308,
        -0.844187 -0.177165 -0.231362,
        -0.844187 -0.322835 -0.231362,
        -0.849472 -0.322835 -0.256048,
        -0.849472 -0.177165 -0.256048,
        -0.860637 -0.322835 -0.278690,
        -0.860637 -0.177165 -0.278690,
        -0.877005 -0.322835 -0.297910,
        -0.877005 -0.177165 -0.297910,
        -0.897579 -0.322835 -0.312540,
        -0.897579 -0.177165 -0.312540,
        -0.921107 -0.322835 -0.321690,
        -0.921107 -0.177165 -0.321690,
        -1.181102 -0.677165 -0.324803,
        -0.946160 -0.677165 -0.324803,
        -1.181102 -0.822835 -0.324803,
        -0.946160 -0.822835 -0.324803,
        -1.181102 -0.677165 -0.242126,
        -1.181102 -0.822835 -0.242126,
        -0.946160 -0.677165 -0.242126,
        -0.946160 -0.822835 -0.242126,
        -0.941342 -0.677165 -0.241527,
        -0.941342 -0.822835 -0.241527,
        -0.936817 -0.677165 -0.239768,
        -0.936817 -0.822835 -0.239768,
        -0.932861 -0.677165 -0.236954,
        -0.932861 -0.822835 -0.236954,
        -0.929713 -0.677165 -0.233258,
        -0.929713 -0.822835 -0.233258,
        -0.927566 -0.677165 -0.228904,
        -0.927566 -0.822835 -0.228904,
        -0.926550 -0.677165 -0.224157,
        -0.926550 -0.822835 -0.224157,
        -0.911497 -0.677165 -0.052102,
        -0.911497 -0.822835 -0.052102,
        -0.906212 -0.822835 -0.027417,
        -0.906212 -0.677165 -0.027417,
        -0.895046 -0.822835 -0.004775,
        -0.895046 -0.677165 -0.004775,
        -0.878679 -0.822835 0.014446,
        -0.878679 -0.677165 0.014446,
        -0.858106 -0.822835 0.029076,
        -0.858106 -0.677165 0.029076,
        -0.834577 -0.822835 0.038226,
        -0.834577 -0.677165 0.038226,
        -0.809524 -0.822835 0.041339,
        -0.809524 -0.677165 0.041339,
        -0.809524 -0.677165 -0.041339,
        -0.809524 -0.822835 -0.041339,
        -0.814342 -0.677165 -0.041937,
        -0.814342 -0.822835 -0.041937,
        -0.818867 -0.677165 -0.043697,
        -0.818867 -0.822835 -0.043697,
        -0.822823 -0.677165 -0.046510,
        -0.822823 -0.822835 -0.046510,
        -0.825971 -0.677165 -0.050207,
        -0.825971 -0.822835 -0.050207,
        -0.828118 -0.677165 -0.054561,
        -0.828118 -0.822835 -0.054561,
        -0.829134 -0.677165 -0.059308,
        -0.829134 -0.822835 -0.059308,
        -0.844187 -0.677165 -0.231362,
        -0.844187 -0.822835 -0.231362,
        -0.849472 -0.822835 -0.256048,
        -0.849472 -0.677165 -0.256048,
        -0.860637 -0.822835 -0.278690,
        -0.860637 -0.677165 -0.278690,
        -0.877005 -0.822835 -0.297910,
        -0.877005 -0.677165 -0.297910,
        -0.897579 -0.822835 -0.312540,
        -0.897579 -0.677165 -0.312540,
        -0.921107 -0.822835 -0.321690,
        -0.921107 -0.677165 -0.321690,
        0.946160 0.822835 -0.324803,
        1.181102 0.822835 -0.324803,
        0.946160 0.677165 -0.324803,
        1.181102 0.677165 -0.324803,
        0.921107 0.677165 -0.321690,
        0.921107 0.822835 -0.321690,
        0.897579 0.677165 -0.312540,
        0.897579 0.822835 -0.312540,
        0.877005 0.677165 -0.297910,
        0.877005 0.822835 -0.297910,
        0.860637 0.677165 -0.278690,
        0.860637 0.822835 -0.278690,
        0.849472 0.677165 -0.256048,
        0.849472 0.822835 -0.256048,
        0.844187 0.677165 -0.231362,
        0.844187 0.822835 -0.231362,
        0.829134 0.822835 -0.059308,
        0.829134 0.677165 -0.059308,
        0.828118 0.822835 -0.054561,
        0.828118 0.677165 -0.054561,
        0.825971 0.822835 -0.050207,
        0.825971 0.677165 -0.050207,
        0.822823 0.822835 -0.046510,
        0.822823 0.677165 -0.046510,
        0.818867 0.822835 -0.043697,
        0.818867 0.677165 -0.043697,
        0.814342 0.822835 -0.041937,
        0.814342 0.677165 -0.041937,
        0.809524 0.822835 -0.041339,
        0.809524 0.677165 -0.041339,
        0.809524 0.822835 0.041339,
        0.809524 0.677165 0.041339,
        0.834577 0.677165 0.038226,
        0.834577 0.822835 0.038226,
        0.858106 0.677165 0.029076,
        0.858106 0.822835 0.029076,
        0.878679 0.677165 0.014446,
        0.878679 0.822835 0.014446,
        0.895046 0.677165 -0.004775,
        0.895046 0.822835 -0.004775,
        0.906212 0.677165 -0.027417,
        0.906212 0.822835 -0.027417,
        0.911497 0.677165 -0.052102,
        0.911497 0.822835 -0.052102,
        0.926550 0.822835 -0.224157,
        0.926550 0.677165 -0.224157,
        0.927566 0.822835 -0.228904,
        0.927566 0.677165 -0.228904,
        0.929713 0.822835 -0.233258,
        0.929713 0.677165 -0.233258,
        0.932861 0.822835 -0.236954,
        0.932861 0.677165 -0.236954,
        0.936817 0.822835 -0.239768,
        0.936817 0.677165 -0.239768,
        0.941342 0.822835 -0.241527,
        0.941342 0.677165 -0.241527,
        0.946160 0.822835 -0.242126,
        0.946160 0.677165 -0.242126,
        1.181102 0.822835 -0.242126,
        1.181102 0.677165 -0.242126,
        0.946160 0.322835 -0.324803,
        1.181102 0.322835 -0.324803,
        0.946160 0.177165 -0.324803,
        1.181102 0.177165 -0.324803,
        0.921107 0.177165 -0.321690,
        0.921107 0.322835 -0.321690,
        0.897579 0.177165 -0.312540,
        0.897579 0.322835 -0.312540,
        0.877005 0.177165 -0.297910,
        0.877005 0.322835 -0.297910,
        0.860637 0.177165 -0.278690,
        0.860637 0.322835 -0.278690,
        0.849472 0.177165 -0.256048,
        0.849472 0.322835 -0.256048,
        0.844187 0.177165 -0.231362,
        0.844187 0.322835 -0.231362,
        0.829134 0.322835 -0.059308,
        0.829134 0.177165 -0.059308,
        0.828118 0.322835 -0.054561,
        0.828118 0.177165 -0.054561,
        0.825971 0.322835 -0.050207,
        0.825971 0.177165 -0.050207,
        0.822823 0.322835 -0.046510,
        0.822823 0.177165 -0.046510,
        0.818867 0.322835 -0.043697,
        0.818867 0.177165 -0.043697,
        0.814342 0.322835 -0.041937,
        0.814342 0.177165 -0.041937,
        0.809524 0.322835 -0.041339,
        0.809524 0.177165 -0.041339,
        0.809524 0.322835 0.041339,
        0.809524 0.177165 0.041339,
        0.834577 0.177165 0.038226,
        0.834577 0.322835 0.038226,
        0.858106 0.177165 0.029076,
        0.858106 0.322835 0.029076,
        0.878679 0.177165 0.014446,
        0.878679 0.322835 0.014446,
        0.895046 0.177165 -0.004775,
        0.895046 0.322835 -0.004775,
        0.906212 0.177165 -0.027417,
        0.906212 0.322835 -0.027417,
        0.911497 0.177165 -0.052102,
        0.911497 0.322835 -0.052102,
        0.926550 0.322835 -0.224157,
        0.926550 0.177165 -0.224157,
        0.927566 0.322835 -0.228904,
        0.927566 0.177165 -0.228904,
        0.929713 0.322835 -0.233258,
        0.929713 0.177165 -0.233258,
        0.932861 0.322835 -0.236954,
        0.932861 0.177165 -0.236954,
        0.936817 0.322835 -0.239768,
        0.936817 0.177165 -0.239768,
        0.941342 0.322835 -0.241527,
        0.941342 0.177165 -0.241527,
        0.946160 0.322835 -0.242126,
        0.946160 0.177165 -0.242126,
        1.181102 0.322835 -0.242126,
        1.181102 0.177165 -0.242126,
        0.946160 -0.177165 -0.324803,
        1.181102 -0.177165 -0.324803,
        0.946160 -0.322835 -0.324803,
        1.181102 -0.322835 -0.324803,
        0.921107 -0.322835 -0.321690,
        0.921107 -0.177165 -0.321690,
        0.897579 -0.322835 -0.312540,
        0.897579 -0.177165 -0.312540,
        0.877005 -0.322835 -0.297910,
        0.877005 -0.177165 -0.297910,
        0.860637 -0.322835 -0.278690,
        0.860637 -0.177165 -0.278690,
        0.849472 -0.322835 -0.256048,
        0.849472 -0.177165 -0.256048,
        0.844187 -0.322835 -0.231362,
        0.844187 -0.177165 -0.231362,
        0.829134 -0.177165 -0.059308,
        0.829134 -0.322835 -0.059308,
        0.828118 -0.177165 -0.054561,
        0.828118 -0.322835 -0.054561,
        0.825971 -0.177165 -0.050207,
        0.825971 -0.322835 -0.050207,
        0.822823 -0.177165 -0.046510,
        0.822823 -0.322835 -0.046510,
        0.818867 -0.177165 -0.043697,
        0.818867 -0.322835 -0.043697,
        0.814342 -0.177165 -0.041937,
        0.814342 -0.322835 -0.041937,
        0.809524 -0.177165 -0.041339,
        0.809524 -0.322835 -0.041339,
        0.809524 -0.177165 0.041339,
        0.809524 -0.322835 0.041339,
        0.834577 -0.322835 0.038226,
        0.834577 -0.177165 0.038226,
        0.858106 -0.322835 0.029076,
        0.858106 -0.177165 0.029076,
        0.878679 -0.322835 0.014446,
        0.878679 -0.177165 0.014446,
        0.895046 -0.322835 -0.004775,
        0.895046 -0.177165 -0.004775,
        0.906212 -0.322835 -0.027417,
        0.906212 -0.177165 -0.027417,
        0.911497 -0.322835 -0.052102,
        0.911497 -0.177165 -0.052102,
        0.926550 -0.177165 -0.224157,
        0.926550 -0.322835 -0.224157,
        0.927566 -0.177165 -0.228904,
        0.927566 -0.322835 -0.228904,
        0.929713 -0.177165 -0.233258,
        0.929713 -0.322835 -0.233258,
        0.932861 -0.177165 -0.236954,
        0.932861 -0.322835 -0.236954,
        0.936817 -0.177165 -0.239768,
        0.936817 -0.322835 -0.239768,
        0.941342 -0.177165 -0.241527,
        0.941342 -0.322835 -0.241527,
        0.946160 -0.177165 -0.242126,
        0.946160 -0.322835 -0.242126,
        1.181102 -0.177165 -0.242126,
        1.181102 -0.322835 -0.242126,
        0.946160 -0.677165 -0.324803,
        1.181102 -0.677165 -0.324803,
        0.946160 -0.822835 -0.324803,
        1.181102 -0.822835 -0.324803,
        0.921107 -0.822835 -0.321690,
        0.921107 -0.677165 -0.321690,
        0.897579 -0.822835 -0.312540,
        0.897579 -0.677165 -0.312540,
        0.877005 -0.822835 -0.297910,
        0.877005 -0.677165 -0.297910,
        0.860637 -0.822835 -0.278690,
        0.860637 -0.677165 -0.278690,
        0.849472 -0.822835 -0.256048,
        0.849472 -0.677165 -0.256048,
        0.844187 -0.822835 -0.231362,
        0.844187 -0.677165 -0.231362,
        0.829134 -0.677165 -0.059308,
        0.829134 -0.822835 -0.059308,
        0.828118 -0.677165 -0.054561,
        0.828118 -0.822835 -0.054561,
        0.825971 -0.677165 -0.050207,
        0.825971 -0.822835 -0.050207,
        0.822823 -0.677165 -0.046510,
        0.822823 -0.822835 -0.046510,
        0.818867 -0.677165 -0.043697,
        0.818867 -0.822835 -0.043697,
        0.814342 -0.677165 -0.041937,
        0.814342 -0.822835 -0.041937,
        0.809524 -0.677165 -0.041339,
        0.809524 -0.822835 -0.041339,
        0.809524 -0.677165 0.041339,
        0.809524 -0.822835 0.041339,
        0.834577 -0.822835 0.038226,
        0.834577 -0.677165 0.038226,
        0.858106 -0.822835 0.029076,
        0.858106 -0.677165 0.029076,
        0.878679 -0.822835 0.014446,
        0.878679 -0.677165 0.014446,
        0.895046 -0.822835 -0.004775,
        0.895046 -0.677165 -0.004775,
        0.906212 -0.822835 -0.027417,
        0.906212 -0.677165 -0.027417,
        0.911497 -0.822835 -0.052102,
        0.911497 -0.677165 -0.052102,
        0.926550 -0.677165 -0.224157,
        0.926550 -0.822835 -0.224157,
        0.927566 -0.677165 -0.228904,
        0.927566 -0.822835 -0.228904,
        0.929713 -0.677165 -0.233258,
        0.929713 -0.822835 -0.233258,
        0.932861 -0.677165 -0.236954,
        0.932861 -0.822835 -0.236954,
        0.936817 -0.677165 -0.239768,
        0.936817 -0.822835 -0.239768,
        0.941342 -0.677165 -0.241527,
        0.941342 -0.822835 -0.241527,
        0.946160 -0.677165 -0.242126,
        0.946160 -0.822835 -0.242126,
        1.181102 -0.677165 -0.242126,
        1.181102 -0.822835 -0.242126,
      ]
    }
    coordIndex [
      32, 33, 34, -1,
      34, 33, 35, -1,
      36, 32, 37, -1,
      37, 32, 34, -1,
      38, 36, 39, -1,
      39, 36, 37, -1,
      38, 39, 40, -1,
      40, 39, 41, -1,
      40, 41, 42, -1,
      42, 41, 43, -1,
      42, 43, 44, -1,
      44, 43, 45, -1,
      44, 45, 46, -1,
      46, 45, 47, -1,
      46, 47, 48, -1,
      48, 47, 49, -1,
      48, 49, 50, -1,
      50, 49, 51, -1,
      52, 50, 53, -1,
      53, 50, 51, -1,
      52, 53, 54, -1,
      52, 54, 55, -1,
      55, 54, 56, -1,
      55, 56, 57, -1,
      57, 56, 58, -1,
      57, 58, 59, -1,
      59, 58, 60, -1,
      59, 60, 61, -1,
      61, 60, 62, -1,
      61, 62, 63, -1,
      63, 62, 64, -1,
      63, 64, 65, -1,
      26, 65, 23, -1,
      23, 65, 64, -1,
      66, 27, 67, -1,
      67, 27, 25, -1,
      66, 67, 68, -1,
      68, 67, 69, -1,
      68, 69, 70, -1,
      70, 69, 71, -1,
      70, 71, 72, -1,
      72, 71, 73, -1,
      72, 73, 74, -1,
      74, 73, 75, -1,
      74, 75, 76, -1,
      76, 75, 77, -1,
      76, 77, 78, -1,
      78, 77, 79, -1,
      80, 78, 81, -1,
      81, 78, 79, -1,
      80, 81, 82, -1,
      80, 82, 83, -1,
      83, 82, 84, -1,
      83, 84, 85, -1,
      85, 84, 86, -1,
      85, 86, 87, -1,
      87, 86, 88, -1,
      87, 88, 89, -1,
      89, 88, 90, -1,
      89, 90, 91, -1,
      91, 90, 35, -1,
      91, 35, 33, -1,
      26, 27, 65, -1,
      65, 27, 66, -1,
      65, 66, 63, -1,
      63, 66, 68, -1,
      63, 68, 61, -1,
      61, 68, 70, -1,
      61, 70, 59, -1,
      59, 70, 72, -1,
      59, 72, 57, -1,
      57, 72, 74, -1,
      57, 74, 55, -1,
      55, 74, 76, -1,
      55, 76, 52, -1,
      52, 76, 78, -1,
      52, 78, 50, -1,
      50, 78, 80, -1,
      50, 80, 48, -1,
      48, 80, 83, -1,
      48, 83, 46, -1,
      46, 83, 85, -1,
      46, 85, 44, -1,
      44, 85, 87, -1,
      44, 87, 42, -1,
      42, 87, 89, -1,
      42, 89, 40, -1,
      40, 89, 91, -1,
      40, 91, 38, -1,
      38, 91, 33, -1,
      38, 33, 36, -1,
      36, 33, 32, -1,
      37, 34, 39, -1,
      39, 34, 35, -1,
      39, 35, 41, -1,
      41, 35, 90, -1,
      41, 90, 43, -1,
      43, 90, 88, -1,
      43, 88, 45, -1,
      45, 88, 86, -1,
      45, 86, 47, -1,
      47, 86, 84, -1,
      47, 84, 49, -1,
      49, 84, 82, -1,
      49, 82, 51, -1,
      51, 82, 81, -1,
      51, 81, 53, -1,
      53, 81, 79, -1,
      53, 79, 54, -1,
      54, 79, 77, -1,
      54, 77, 56, -1,
      56, 77, 75, -1,
      56, 75, 58, -1,
      58, 75, 73, -1,
      58, 73, 60, -1,
      60, 73, 71, -1,
      60, 71, 62, -1,
      62, 71, 69, -1,
      62, 69, 64, -1,
      64, 69, 67, -1,
      64, 67, 23, -1,
      23, 67, 25, -1,
      92, 93, 94, -1,
      94, 93, 95, -1,
      96, 92, 97, -1,
      97, 92, 94, -1,
      98, 96, 99, -1,
      99, 96, 97, -1,
      98, 99, 100, -1,
      100, 99, 101, -1,
      100, 101, 102, -1,
      102, 101, 103, -1,
      102, 103, 104, -1,
      104, 103, 105, -1,
      104, 105, 106, -1,
      106, 105, 107, -1,
      106, 107, 108, -1,
      108, 107, 109, -1,
      108, 109, 110, -1,
      110, 109, 111, -1,
      112, 110, 113, -1,
      113, 110, 111, -1,
      112, 113, 114, -1,
      112, 114, 115, -1,
      115, 114, 116, -1,
      115, 116, 117, -1,
      117, 116, 118, -1,
      117, 118, 119, -1,
      119, 118, 120, -1,
      119, 120, 121, -1,
      121, 120, 122, -1,
      121, 122, 123, -1,
      123, 122, 124, -1,
      123, 124, 125, -1,
      22, 125, 19, -1,
      19, 125, 124, -1,
      126, 24, 127, -1,
      127, 24, 21, -1,
      126, 127, 128, -1,
      128, 127, 129, -1,
      128, 129, 130, -1,
      130, 129, 131, -1,
      130, 131, 132, -1,
      132, 131, 133, -1,
      132, 133, 134, -1,
      134, 133, 135, -1,
      134, 135, 136, -1,
      136, 135, 137, -1,
      136, 137, 138, -1,
      138, 137, 139, -1,
      140, 138, 141, -1,
      141, 138, 139, -1,
      140, 141, 142, -1,
      140, 142, 143, -1,
      143, 142, 144, -1,
      143, 144, 145, -1,
      145, 144, 146, -1,
      145, 146, 147, -1,
      147, 146, 148, -1,
      147, 148, 149, -1,
      149, 148, 150, -1,
      149, 150, 151, -1,
      151, 150, 95, -1,
      151, 95, 93, -1,
      22, 24, 125, -1,
      125, 24, 126, -1,
      125, 126, 123, -1,
      123, 126, 128, -1,
      123, 128, 121, -1,
      121, 128, 130, -1,
      121, 130, 119, -1,
      119, 130, 132, -1,
      119, 132, 117, -1,
      117, 132, 134, -1,
      117, 134, 115, -1,
      115, 134, 136, -1,
      115, 136, 112, -1,
      112, 136, 138, -1,
      112, 138, 110, -1,
      110, 138, 140, -1,
      110, 140, 108, -1,
      108, 140, 143, -1,
      108, 143, 106, -1,
      106, 143, 145, -1,
      106, 145, 104, -1,
      104, 145, 147, -1,
      104, 147, 102, -1,
      102, 147, 149, -1,
      102, 149, 100, -1,
      100, 149, 151, -1,
      100, 151, 98, -1,
      98, 151, 93, -1,
      98, 93, 96, -1,
      96, 93, 92, -1,
      97, 94, 99, -1,
      99, 94, 95, -1,
      99, 95, 101, -1,
      101, 95, 150, -1,
      101, 150, 103, -1,
      103, 150, 148, -1,
      103, 148, 105, -1,
      105, 148, 146, -1,
      105, 146, 107, -1,
      107, 146, 144, -1,
      107, 144, 109, -1,
      109, 144, 142, -1,
      109, 142, 111, -1,
      111, 142, 141, -1,
      111, 141, 113, -1,
      113, 141, 139, -1,
      113, 139, 114, -1,
      114, 139, 137, -1,
      114, 137, 116, -1,
      116, 137, 135, -1,
      116, 135, 118, -1,
      118, 135, 133, -1,
      118, 133, 120, -1,
      120, 133, 131, -1,
      120, 131, 122, -1,
      122, 131, 129, -1,
      122, 129, 124, -1,
      124, 129, 127, -1,
      124, 127, 19, -1,
      19, 127, 21, -1,
      152, 153, 154, -1,
      154, 153, 155, -1,
      156, 152, 157, -1,
      157, 152, 154, -1,
      158, 156, 159, -1,
      159, 156, 157, -1,
      158, 159, 160, -1,
      160, 159, 161, -1,
      160, 161, 162, -1,
      162, 161, 163, -1,
      162, 163, 164, -1,
      164, 163, 165, -1,
      164, 165, 166, -1,
      166, 165, 167, -1,
      166, 167, 168, -1,
      168, 167, 169, -1,
      168, 169, 170, -1,
      170, 169, 171, -1,
      172, 170, 173, -1,
      173, 170, 171, -1,
      172, 173, 174, -1,
      172, 174, 175, -1,
      175, 174, 176, -1,
      175, 176, 177, -1,
      177, 176, 178, -1,
      177, 178, 179, -1,
      179, 178, 180, -1,
      179, 180, 181, -1,
      181, 180, 182, -1,
      181, 182, 183, -1,
      183, 182, 184, -1,
      183, 184, 185, -1,
      18, 185, 15, -1,
      15, 185, 184, -1,
      186, 20, 187, -1,
      187, 20, 17, -1,
      186, 187, 188, -1,
      188, 187, 189, -1,
      188, 189, 190, -1,
      190, 189, 191, -1,
      190, 191, 192, -1,
      192, 191, 193, -1,
      192, 193, 194, -1,
      194, 193, 195, -1,
      194, 195, 196, -1,
      196, 195, 197, -1,
      196, 197, 198, -1,
      198, 197, 199, -1,
      200, 198, 201, -1,
      201, 198, 199, -1,
      200, 201, 202, -1,
      200, 202, 203, -1,
      203, 202, 204, -1,
      203, 204, 205, -1,
      205, 204, 206, -1,
      205, 206, 207, -1,
      207, 206, 208, -1,
      207, 208, 209, -1,
      209, 208, 210, -1,
      209, 210, 211, -1,
      211, 210, 155, -1,
      211, 155, 153, -1,
      18, 20, 185, -1,
      185, 20, 186, -1,
      185, 186, 183, -1,
      183, 186, 188, -1,
      183, 188, 181, -1,
      181, 188, 190, -1,
      181, 190, 179, -1,
      179, 190, 192, -1,
      179, 192, 177, -1,
      177, 192, 194, -1,
      177, 194, 175, -1,
      175, 194, 196, -1,
      175, 196, 172, -1,
      172, 196, 198, -1,
      172, 198, 170, -1,
      170, 198, 200, -1,
      170, 200, 168, -1,
      168, 200, 203, -1,
      168, 203, 166, -1,
      166, 203, 205, -1,
      166, 205, 164, -1,
      164, 205, 207, -1,
      164, 207, 162, -1,
      162, 207, 209, -1,
      162, 209, 160, -1,
      160, 209, 211, -1,
      160, 211, 158, -1,
      158, 211, 153, -1,
      158, 153, 156, -1,
      156, 153, 152, -1,
      157, 154, 159, -1,
      159, 154, 155, -1,
      159, 155, 161, -1,
      161, 155, 210, -1,
      161, 210, 163, -1,
      163, 210, 208, -1,
      163, 208, 165, -1,
      165, 208, 206, -1,
      165, 206, 167, -1,
      167, 206, 204, -1,
      167, 204, 169, -1,
      169, 204, 202, -1,
      169, 202, 171, -1,
      171, 202, 201, -1,
      171, 201, 173, -1,
      173, 201, 199, -1,
      173, 199, 174, -1,
      174, 199, 197, -1,
      174, 197, 176, -1,
      176, 197, 195, -1,
      176, 195, 178, -1,
      178, 195, 193, -1,
      178, 193, 180, -1,
      180, 193, 191, -1,
      180, 191, 182, -1,
      182, 191, 189, -1,
      182, 189, 184, -1,
      184, 189, 187, -1,
      184, 187, 15, -1,
      15, 187, 17, -1,
      212, 213, 214, -1,
      214, 213, 215, -1,
      216, 212, 217, -1,
      217, 212, 214, -1,
      218, 216, 219, -1,
      219, 216, 217, -1,
      218, 219, 220, -1,
      220, 219, 221, -1,
      220, 221, 222, -1,
      222, 221, 223, -1,
      222, 223, 224, -1,
      224, 223, 225, -1,
      224, 225, 226, -1,
      226, 225, 227, -1,
      226, 227, 228, -1,
      228, 227, 229, -1,
      228, 229, 230, -1,
      230, 229, 231, -1,
      232, 230, 233, -1,
      233, 230, 231, -1,
      232, 233, 234, -1,
      232, 234, 235, -1,
      235, 234, 236, -1,
      235, 236, 237, -1,
      237, 236, 238, -1,
      237, 238, 239, -1,
      239, 238, 240, -1,
      239, 240, 241, -1,
      241, 240, 242, -1,
      241, 242, 243, -1,
      243, 242, 244, -1,
      243, 244, 245, -1,
      14, 245, 13, -1,
      13, 245, 244, -1,
      246, 16, 247, -1,
      247, 16, 12, -1,
      246, 247, 248, -1,
      248, 247, 249, -1,
      248, 249, 250, -1,
      250, 249, 251, -1,
      250, 251, 252, -1,
      252, 251, 253, -1,
      252, 253, 254, -1,
      254, 253, 255, -1,
      254, 255, 256, -1,
      256, 255, 257, -1,
      256, 257, 258, -1,
      258, 257, 259, -1,
      260, 258, 261, -1,
      261, 258, 259, -1,
      260, 261, 262, -1,
      260, 262, 263, -1,
      263, 262, 264, -1,
      263, 264, 265, -1,
      265, 264, 266, -1,
      265, 266, 267, -1,
      267, 266, 268, -1,
      267, 268, 269, -1,
      269, 268, 270, -1,
      269, 270, 271, -1,
      271, 270, 215, -1,
      271, 215, 213, -1,
      14, 16, 245, -1,
      245, 16, 246, -1,
      245, 246, 243, -1,
      243, 246, 248, -1,
      243, 248, 241, -1,
      241, 248, 250, -1,
      241, 250, 239, -1,
      239, 250, 252, -1,
      239, 252, 237, -1,
      237, 252, 254, -1,
      237, 254, 235, -1,
      235, 254, 256, -1,
      235, 256, 232, -1,
      232, 256, 258, -1,
      232, 258, 230, -1,
      230, 258, 260, -1,
      230, 260, 228, -1,
      228, 260, 263, -1,
      228, 263, 226, -1,
      226, 263, 265, -1,
      226, 265, 224, -1,
      224, 265, 267, -1,
      224, 267, 222, -1,
      222, 267, 269, -1,
      222, 269, 220, -1,
      220, 269, 271, -1,
      220, 271, 218, -1,
      218, 271, 213, -1,
      218, 213, 216, -1,
      216, 213, 212, -1,
      217, 214, 219, -1,
      219, 214, 215, -1,
      219, 215, 221, -1,
      221, 215, 270, -1,
      221, 270, 223, -1,
      223, 270, 268, -1,
      223, 268, 225, -1,
      225, 268, 266, -1,
      225, 266, 227, -1,
      227, 266, 264, -1,
      227, 264, 229, -1,
      229, 264, 262, -1,
      229, 262, 231, -1,
      231, 262, 261, -1,
      231, 261, 233, -1,
      233, 261, 259, -1,
      233, 259, 234, -1,
      234, 259, 257, -1,
      234, 257, 236, -1,
      236, 257, 255, -1,
      236, 255, 238, -1,
      238, 255, 253, -1,
      238, 253, 240, -1,
      240, 253, 251, -1,
      240, 251, 242, -1,
      242, 251, 249, -1,
      242, 249, 244, -1,
      244, 249, 247, -1,
      244, 247, 13, -1,
      13, 247, 12, -1,
      272, 273, 274, -1,
      274, 273, 275, -1,
      272, 274, 276, -1,
      272, 276, 277, -1,
      277, 276, 278, -1,
      277, 278, 279, -1,
      279, 278, 280, -1,
      279, 280, 281, -1,
      281, 280, 282, -1,
      281, 282, 283, -1,
      283, 282, 284, -1,
      283, 284, 285, -1,
      285, 284, 286, -1,
      285, 286, 287, -1,
      288, 287, 289, -1,
      289, 287, 286, -1,
      288, 289, 290, -1,
      290, 289, 291, -1,
      290, 291, 292, -1,
      292, 291, 293, -1,
      292, 293, 294, -1,
      294, 293, 295, -1,
      294, 295, 296, -1,
      296, 295, 297, -1,
      296, 297, 298, -1,
      298, 297, 299, -1,
      298, 299, 300, -1,
      300, 299, 301, -1,
      10, 300, 29, -1,
      29, 300, 301, -1,
      302, 11, 303, -1,
      303, 11, 31, -1,
      302, 303, 304, -1,
      302, 304, 305, -1,
      305, 304, 306, -1,
      305, 306, 307, -1,
      307, 306, 308, -1,
      307, 308, 309, -1,
      309, 308, 310, -1,
      309, 310, 311, -1,
      311, 310, 312, -1,
      311, 312, 313, -1,
      313, 312, 314, -1,
      313, 314, 315, -1,
      316, 315, 317, -1,
      317, 315, 314, -1,
      316, 317, 318, -1,
      318, 317, 319, -1,
      318, 319, 320, -1,
      320, 319, 321, -1,
      320, 321, 322, -1,
      322, 321, 323, -1,
      322, 323, 324, -1,
      324, 323, 325, -1,
      324, 325, 326, -1,
      326, 325, 327, -1,
      326, 327, 328, -1,
      328, 327, 329, -1,
      330, 328, 331, -1,
      331, 328, 329, -1,
      273, 330, 275, -1,
      275, 330, 331, -1,
      330, 273, 328, -1,
      328, 273, 272, -1,
      328, 272, 326, -1,
      326, 272, 277, -1,
      326, 277, 324, -1,
      324, 277, 279, -1,
      324, 279, 322, -1,
      322, 279, 281, -1,
      322, 281, 320, -1,
      320, 281, 283, -1,
      320, 283, 318, -1,
      318, 283, 285, -1,
      318, 285, 316, -1,
      316, 285, 287, -1,
      316, 287, 315, -1,
      315, 287, 288, -1,
      315, 288, 313, -1,
      313, 288, 290, -1,
      313, 290, 311, -1,
      311, 290, 292, -1,
      311, 292, 309, -1,
      309, 292, 294, -1,
      309, 294, 307, -1,
      307, 294, 296, -1,
      307, 296, 305, -1,
      305, 296, 298, -1,
      305, 298, 302, -1,
      302, 298, 300, -1,
      302, 300, 11, -1,
      11, 300, 10, -1,
      31, 29, 303, -1,
      303, 29, 301, -1,
      303, 301, 304, -1,
      304, 301, 299, -1,
      304, 299, 306, -1,
      306, 299, 297, -1,
      306, 297, 308, -1,
      308, 297, 295, -1,
      308, 295, 310, -1,
      310, 295, 293, -1,
      310, 293, 312, -1,
      312, 293, 291, -1,
      312, 291, 314, -1,
      314, 291, 289, -1,
      314, 289, 317, -1,
      317, 289, 286, -1,
      317, 286, 319, -1,
      319, 286, 284, -1,
      319, 284, 321, -1,
      321, 284, 282, -1,
      321, 282, 323, -1,
      323, 282, 280, -1,
      323, 280, 325, -1,
      325, 280, 278, -1,
      325, 278, 327, -1,
      327, 278, 276, -1,
      327, 276, 329, -1,
      329, 276, 274, -1,
      329, 274, 331, -1,
      331, 274, 275, -1,
      332, 333, 334, -1,
      334, 333, 335, -1,
      332, 334, 336, -1,
      332, 336, 337, -1,
      337, 336, 338, -1,
      337, 338, 339, -1,
      339, 338, 340, -1,
      339, 340, 341, -1,
      341, 340, 342, -1,
      341, 342, 343, -1,
      343, 342, 344, -1,
      343, 344, 345, -1,
      345, 344, 346, -1,
      345, 346, 347, -1,
      348, 347, 349, -1,
      349, 347, 346, -1,
      348, 349, 350, -1,
      350, 349, 351, -1,
      350, 351, 352, -1,
      352, 351, 353, -1,
      352, 353, 354, -1,
      354, 353, 355, -1,
      354, 355, 356, -1,
      356, 355, 357, -1,
      356, 357, 358, -1,
      358, 357, 359, -1,
      358, 359, 360, -1,
      360, 359, 361, -1,
      28, 360, 7, -1,
      7, 360, 361, -1,
      362, 30, 363, -1,
      363, 30, 9, -1,
      362, 363, 364, -1,
      362, 364, 365, -1,
      365, 364, 366, -1,
      365, 366, 367, -1,
      367, 366, 368, -1,
      367, 368, 369, -1,
      369, 368, 370, -1,
      369, 370, 371, -1,
      371, 370, 372, -1,
      371, 372, 373, -1,
      373, 372, 374, -1,
      373, 374, 375, -1,
      376, 375, 377, -1,
      377, 375, 374, -1,
      376, 377, 378, -1,
      378, 377, 379, -1,
      378, 379, 380, -1,
      380, 379, 381, -1,
      380, 381, 382, -1,
      382, 381, 383, -1,
      382, 383, 384, -1,
      384, 383, 385, -1,
      384, 385, 386, -1,
      386, 385, 387, -1,
      386, 387, 388, -1,
      388, 387, 389, -1,
      390, 388, 391, -1,
      391, 388, 389, -1,
      333, 390, 335, -1,
      335, 390, 391, -1,
      390, 333, 388, -1,
      388, 333, 332, -1,
      388, 332, 386, -1,
      386, 332, 337, -1,
      386, 337, 384, -1,
      384, 337, 339, -1,
      384, 339, 382, -1,
      382, 339, 341, -1,
      382, 341, 380, -1,
      380, 341, 343, -1,
      380, 343, 378, -1,
      378, 343, 345, -1,
      378, 345, 376, -1,
      376, 345, 347, -1,
      376, 347, 375, -1,
      375, 347, 348, -1,
      375, 348, 373, -1,
      373, 348, 350, -1,
      373, 350, 371, -1,
      371, 350, 352, -1,
      371, 352, 369, -1,
      369, 352, 354, -1,
      369, 354, 367, -1,
      367, 354, 356, -1,
      367, 356, 365, -1,
      365, 356, 358, -1,
      365, 358, 362, -1,
      362, 358, 360, -1,
      362, 360, 30, -1,
      30, 360, 28, -1,
      9, 7, 363, -1,
      363, 7, 361, -1,
      363, 361, 364, -1,
      364, 361, 359, -1,
      364, 359, 366, -1,
      366, 359, 357, -1,
      366, 357, 368, -1,
      368, 357, 355, -1,
      368, 355, 370, -1,
      370, 355, 353, -1,
      370, 353, 372, -1,
      372, 353, 351, -1,
      372, 351, 374, -1,
      374, 351, 349, -1,
      374, 349, 377, -1,
      377, 349, 346, -1,
      377, 346, 379, -1,
      379, 346, 344, -1,
      379, 344, 381, -1,
      381, 344, 342, -1,
      381, 342, 383, -1,
      383, 342, 340, -1,
      383, 340, 385, -1,
      385, 340, 338, -1,
      385, 338, 387, -1,
      387, 338, 336, -1,
      387, 336, 389, -1,
      389, 336, 334, -1,
      389, 334, 391, -1,
      391, 334, 335, -1,
      392, 393, 394, -1,
      394, 393, 395, -1,
      392, 394, 396, -1,
      392, 396, 397, -1,
      397, 396, 398, -1,
      397, 398, 399, -1,
      399, 398, 400, -1,
      399, 400, 401, -1,
      401, 400, 402, -1,
      401, 402, 403, -1,
      403, 402, 404, -1,
      403, 404, 405, -1,
      405, 404, 406, -1,
      405, 406, 407, -1,
      408, 407, 409, -1,
      409, 407, 406, -1,
      408, 409, 410, -1,
      410, 409, 411, -1,
      410, 411, 412, -1,
      412, 411, 413, -1,
      412, 413, 414, -1,
      414, 413, 415, -1,
      414, 415, 416, -1,
      416, 415, 417, -1,
      416, 417, 418, -1,
      418, 417, 419, -1,
      418, 419, 420, -1,
      420, 419, 421, -1,
      6, 420, 3, -1,
      3, 420, 421, -1,
      422, 8, 423, -1,
      423, 8, 5, -1,
      422, 423, 424, -1,
      422, 424, 425, -1,
      425, 424, 426, -1,
      425, 426, 427, -1,
      427, 426, 428, -1,
      427, 428, 429, -1,
      429, 428, 430, -1,
      429, 430, 431, -1,
      431, 430, 432, -1,
      431, 432, 433, -1,
      433, 432, 434, -1,
      433, 434, 435, -1,
      436, 435, 437, -1,
      437, 435, 434, -1,
      436, 437, 438, -1,
      438, 437, 439, -1,
      438, 439, 440, -1,
      440, 439, 441, -1,
      440, 441, 442, -1,
      442, 441, 443, -1,
      442, 443, 444, -1,
      444, 443, 445, -1,
      444, 445, 446, -1,
      446, 445, 447, -1,
      446, 447, 448, -1,
      448, 447, 449, -1,
      450, 448, 451, -1,
      451, 448, 449, -1,
      393, 450, 395, -1,
      395, 450, 451, -1,
      450, 393, 448, -1,
      448, 393, 392, -1,
      448, 392, 446, -1,
      446, 392, 397, -1,
      446, 397, 444, -1,
      444, 397, 399, -1,
      444, 399, 442, -1,
      442, 399, 401, -1,
      442, 401, 440, -1,
      440, 401, 403, -1,
      440, 403, 438, -1,
      438, 403, 405, -1,
      438, 405, 436, -1,
      436, 405, 407, -1,
      436, 407, 435, -1,
      435, 407, 408, -1,
      435, 408, 433, -1,
      433, 408, 410, -1,
      433, 410, 431, -1,
      431, 410, 412, -1,
      431, 412, 429, -1,
      429, 412, 414, -1,
      429, 414, 427, -1,
      427, 414, 416, -1,
      427, 416, 425, -1,
      425, 416, 418, -1,
      425, 418, 422, -1,
      422, 418, 420, -1,
      422, 420, 8, -1,
      8, 420, 6, -1,
      5, 3, 423, -1,
      423, 3, 421, -1,
      423, 421, 424, -1,
      424, 421, 419, -1,
      424, 419, 426, -1,
      426, 419, 417, -1,
      426, 417, 428, -1,
      428, 417, 415, -1,
      428, 415, 430, -1,
      430, 415, 413, -1,
      430, 413, 432, -1,
      432, 413, 411, -1,
      432, 411, 434, -1,
      434, 411, 409, -1,
      434, 409, 437, -1,
      437, 409, 406, -1,
      437, 406, 439, -1,
      439, 406, 404, -1,
      439, 404, 441, -1,
      441, 404, 402, -1,
      441, 402, 443, -1,
      443, 402, 400, -1,
      443, 400, 445, -1,
      445, 400, 398, -1,
      445, 398, 447, -1,
      447, 398, 396, -1,
      447, 396, 449, -1,
      449, 396, 394, -1,
      449, 394, 451, -1,
      451, 394, 395, -1,
      452, 453, 454, -1,
      454, 453, 455, -1,
      452, 454, 456, -1,
      452, 456, 457, -1,
      457, 456, 458, -1,
      457, 458, 459, -1,
      459, 458, 460, -1,
      459, 460, 461, -1,
      461, 460, 462, -1,
      461, 462, 463, -1,
      463, 462, 464, -1,
      463, 464, 465, -1,
      465, 464, 466, -1,
      465, 466, 467, -1,
      468, 467, 469, -1,
      469, 467, 466, -1,
      468, 469, 470, -1,
      470, 469, 471, -1,
      470, 471, 472, -1,
      472, 471, 473, -1,
      472, 473, 474, -1,
      474, 473, 475, -1,
      474, 475, 476, -1,
      476, 475, 477, -1,
      476, 477, 478, -1,
      478, 477, 479, -1,
      478, 479, 480, -1,
      480, 479, 481, -1,
      2, 480, 1, -1,
      1, 480, 481, -1,
      482, 4, 483, -1,
      483, 4, 0, -1,
      482, 483, 484, -1,
      482, 484, 485, -1,
      485, 484, 486, -1,
      485, 486, 487, -1,
      487, 486, 488, -1,
      487, 488, 489, -1,
      489, 488, 490, -1,
      489, 490, 491, -1,
      491, 490, 492, -1,
      491, 492, 493, -1,
      493, 492, 494, -1,
      493, 494, 495, -1,
      496, 495, 497, -1,
      497, 495, 494, -1,
      496, 497, 498, -1,
      498, 497, 499, -1,
      498, 499, 500, -1,
      500, 499, 501, -1,
      500, 501, 502, -1,
      502, 501, 503, -1,
      502, 503, 504, -1,
      504, 503, 505, -1,
      504, 505, 506, -1,
      506, 505, 507, -1,
      506, 507, 508, -1,
      508, 507, 509, -1,
      510, 508, 511, -1,
      511, 508, 509, -1,
      453, 510, 455, -1,
      455, 510, 511, -1,
      510, 453, 508, -1,
      508, 453, 452, -1,
      508, 452, 506, -1,
      506, 452, 457, -1,
      506, 457, 504, -1,
      504, 457, 459, -1,
      504, 459, 502, -1,
      502, 459, 461, -1,
      502, 461, 500, -1,
      500, 461, 463, -1,
      500, 463, 498, -1,
      498, 463, 465, -1,
      498, 465, 496, -1,
      496, 465, 467, -1,
      496, 467, 495, -1,
      495, 467, 468, -1,
      495, 468, 493, -1,
      493, 468, 470, -1,
      493, 470, 491, -1,
      491, 470, 472, -1,
      491, 472, 489, -1,
      489, 472, 474, -1,
      489, 474, 487, -1,
      487, 474, 476, -1,
      487, 476, 485, -1,
      485, 476, 478, -1,
      485, 478, 482, -1,
      482, 478, 480, -1,
      482, 480, 4, -1,
      4, 480, 2, -1,
      0, 1, 483, -1,
      483, 1, 481, -1,
      483, 481, 484, -1,
      484, 481, 479, -1,
      484, 479, 486, -1,
      486, 479, 477, -1,
      486, 477, 488, -1,
      488, 477, 475, -1,
      488, 475, 490, -1,
      490, 475, 473, -1,
      490, 473, 492, -1,
      492, 473, 471, -1,
      492, 471, 494, -1,
      494, 471, 469, -1,
      494, 469, 497, -1,
      497, 469, 466, -1,
      497, 466, 499, -1,
      499, 466, 464, -1,
      499, 464, 501, -1,
      501, 464, 462, -1,
      501, 462, 503, -1,
      503, 462, 460, -1,
      503, 460, 505, -1,
      505, 460, 458, -1,
      505, 458, 507, -1,
      507, 458, 456, -1,
      507, 456, 509, -1,
      509, 456, 454, -1,
      509, 454, 511, -1,
      511, 454, 455, -1,
    ]
  }
}

Shape {
  appearance Appearance {
    material Material {
      diffuseColor 1.0000 1.0000 1.0000
      specularColor 0.8784 0.8784 0.8784
      ambientIntensity 0.2
      transparency 0.0000
      shininess 0.5
    }
  }
  geometry IndexedFaceSet {
    ccw TRUE
    solid FALSE
    coord DEF co Coordinate {
      point [
        -0.083038 0.168531 -0.285433,
        -0.080861 0.187914 -0.285433,
        0.064754 0.125959 -0.285433,
        -0.096841 0.122431 -0.285433,
        -0.070435 0.122431 -0.285433,
        -0.079930 0.144604 -0.285433,
        0.062800 0.122431 -0.285433,
        0.077814 0.235768 -0.285433,
        0.073002 0.285673 -0.285433,
        0.087926 0.219934 -0.285433,
        0.094493 0.200854 -0.285433,
        0.094607 0.285673 -0.285433,
        0.094607 0.386499 -0.285433,
        0.062248 0.250554 -0.285433,
        0.043530 0.261041 -0.285433,
        0.073002 0.360092 -0.285433,
        -0.050411 0.258472 -0.285433,
        -0.068813 0.246931 -0.285433,
        -0.102243 0.360092 -0.285433,
        -0.085903 0.229155 -0.285433,
        -0.096661 0.210456 -0.285433,
        -0.075544 0.202648 -0.285433,
        -0.066429 0.216273 -0.285433,
        -0.053306 0.228160 -0.285433,
        -0.001717 0.242462 -0.285433,
        0.019593 0.240469 -0.285433,
        0.036525 0.235121 -0.285433,
        0.073343 0.191317 -0.285433,
        0.075403 0.172957 -0.285433,
        0.068063 0.205661 -0.285433,
        0.059920 0.217742 -0.285433,
        0.050175 0.226980 -0.285433,
        0.072502 0.146827 -0.285433,
        -0.103032 0.188511 -0.285433,
        -0.103443 0.183472 -0.285433,
        -0.102243 0.386499 -0.285433,
        0.084405 0.122431 -0.285433,
        0.093020 0.143415 -0.285433,
        0.096916 0.171213 -0.285433,
        -0.038106 0.236276 -0.285433,
        -0.017033 0.241523 -0.285433,
        0.097008 0.176595 -0.285433,
        0.022694 0.266965 -0.285433,
        -0.000104 0.268869 -0.285433,
        -0.028091 0.266037 -0.285433,
        -0.104643 0.168756 -0.285433,
        -0.103443 0.151361 -0.285433,
        -0.103017 0.145191 -0.285433,
        0.094607 -0.261667 -0.285433,
        0.094607 -0.232859 -0.285433,
        -0.102243 -0.333685 -0.285433,
        0.094607 -0.410505 -0.285433,
        0.094607 -0.381698 -0.285433,
        0.039393 -0.361780 -0.285433,
        0.039393 -0.280459 -0.285433,
        -0.102243 -0.060015 -0.285433,
        -0.102243 -0.115567 -0.285433,
        -0.102243 -0.307279 -0.285433,
        -0.080637 0.057615 -0.285433,
        -0.015821 0.057615 -0.285433,
        -0.080637 -0.016804 -0.285433,
        -0.015821 -0.012003 -0.285433,
        -0.099203 -0.144007 -0.285433,
        -0.091115 -0.167038 -0.285433,
        -0.076757 -0.188464 -0.285433,
        -0.102243 -0.016804 -0.285433,
        0.094607 -0.060015 -0.285433,
        0.005785 -0.012003 -0.285433,
        -0.076576 -0.188670 -0.285433,
        -0.061140 -0.202590 -0.285433,
        -0.044211 -0.211738 -0.285433,
        0.040655 -0.208626 -0.285433,
        0.058262 -0.197337 -0.285433,
        0.073776 -0.181135 -0.285433,
        0.085720 -0.160581 -0.285433,
        0.092481 -0.137898 -0.285433,
        0.094607 -0.113542 -0.285433,
        0.005785 0.057615 -0.285433,
        0.073002 0.057615 -0.285433,
        0.073002 -0.021606 -0.285433,
        0.094607 -0.021606 -0.285433,
        0.094607 0.084022 -0.285433,
        -0.102243 0.084022 -0.285433,
        -0.024816 -0.217025 -0.285433,
        -0.006293 -0.218456 -0.285433,
        0.020051 -0.215694 -0.285433,
        -0.102243 -0.333685 -0.277559,
        0.094607 -0.410505 -0.277559,
        0.094607 -0.381698 -0.277559,
        0.039393 -0.361780 -0.277559,
        0.039393 -0.280459 -0.277559,
        0.094607 -0.261667 -0.277559,
        0.094607 -0.232859 -0.277559,
        -0.102243 -0.307279 -0.277559,
        0.017788 -0.287098 -0.277559,
        -0.064433 -0.316469 -0.277559,
        -0.071260 -0.318363 -0.277559,
        -0.078237 -0.319619 -0.277559,
        -0.078237 -0.320257 -0.277559,
        -0.071281 -0.321541 -0.277559,
        -0.064433 -0.323295 -0.277559,
        0.017788 -0.352928 -0.277559,
        0.017788 -0.287098 -0.285433,
        0.017788 -0.352928 -0.285433,
        -0.064433 -0.316469 -0.285433,
        -0.071260 -0.318363 -0.285433,
        -0.078237 -0.319619 -0.285433,
        -0.078237 -0.320257 -0.285433,
        -0.071281 -0.321541 -0.285433,
        -0.064433 -0.323295 -0.285433,
        0.094607 -0.113542 -0.277559,
        0.094607 -0.060015 -0.277559,
        -0.102243 -0.060015 -0.277559,
        -0.102243 -0.115567 -0.277559,
        -0.006293 -0.218456 -0.277559,
        -0.024816 -0.217025 -0.277559,
        -0.044211 -0.211738 -0.277559,
        -0.061140 -0.202590 -0.277559,
        -0.076576 -0.188670 -0.277559,
        -0.076757 -0.188464 -0.277559,
        -0.091115 -0.167038 -0.277559,
        -0.099203 -0.144007 -0.277559,
        0.092481 -0.137898 -0.277559,
        0.085720 -0.160581 -0.277559,
        0.073776 -0.181135 -0.277559,
        0.058262 -0.197337 -0.277559,
        0.040655 -0.208626 -0.277559,
        0.020051 -0.215694 -0.277559,
        -0.053033 -0.178943 -0.277559,
        -0.063185 -0.169381 -0.277559,
        -0.072474 -0.155002 -0.277559,
        -0.078161 -0.138754 -0.277559,
        -0.080637 -0.115455 -0.277559,
        -0.080637 -0.086422 -0.277559,
        0.073002 -0.086422 -0.277559,
        0.073002 -0.114367 -0.277559,
        0.071069 -0.135135 -0.277559,
        0.065898 -0.151700 -0.277559,
        0.057926 -0.165125 -0.277559,
        0.047021 -0.176166 -0.277559,
        0.033449 -0.184468 -0.277559,
        0.014945 -0.190242 -0.277559,
        -0.005731 -0.192049 -0.277559,
        -0.025322 -0.190377 -0.277559,
        -0.040892 -0.185781 -0.277559,
        -0.080637 -0.115455 -0.285433,
        -0.080637 -0.086422 -0.285433,
        -0.078161 -0.138754 -0.285433,
        -0.072474 -0.155002 -0.285433,
        -0.063185 -0.169381 -0.285433,
        -0.053033 -0.178943 -0.285433,
        -0.040892 -0.185781 -0.285433,
        -0.025322 -0.190377 -0.285433,
        -0.005731 -0.192049 -0.285433,
        0.014945 -0.190242 -0.285433,
        0.033449 -0.184468 -0.285433,
        0.047021 -0.176166 -0.285433,
        0.057926 -0.165125 -0.285433,
        0.065898 -0.151700 -0.285433,
        0.071069 -0.135135 -0.285433,
        0.073002 -0.114367 -0.285433,
        0.073002 -0.086422 -0.285433,
        0.073002 -0.021606 -0.277559,
        0.094607 -0.021606 -0.277559,
        0.094607 0.084022 -0.277559,
        -0.102243 0.084022 -0.277559,
        -0.102243 -0.016804 -0.277559,
        -0.080637 -0.016804 -0.277559,
        -0.080637 0.057615 -0.277559,
        -0.015821 0.057615 -0.277559,
        -0.015821 -0.012003 -0.277559,
        0.005785 -0.012003 -0.277559,
        0.005785 0.057615 -0.277559,
        0.073002 0.057615 -0.277559,
        0.062800 0.122431 -0.277559,
        0.084405 0.122431 -0.277559,
        0.097008 0.176595 -0.277559,
        0.096916 0.171213 -0.277559,
        0.093020 0.143415 -0.277559,
        -0.000104 0.268869 -0.277559,
        0.022694 0.266965 -0.277559,
        0.043530 0.261041 -0.277559,
        0.062248 0.250554 -0.277559,
        0.077814 0.235768 -0.277559,
        0.087926 0.219934 -0.277559,
        0.094493 0.200854 -0.277559,
        -0.104643 0.168756 -0.277559,
        -0.103032 0.188511 -0.277559,
        -0.096661 0.210456 -0.277559,
        -0.085903 0.229155 -0.277559,
        -0.068813 0.246931 -0.277559,
        -0.050411 0.258472 -0.277559,
        -0.028091 0.266037 -0.277559,
        -0.103017 0.145191 -0.277559,
        -0.096841 0.122431 -0.277559,
        -0.070435 0.122431 -0.277559,
        -0.083038 0.168531 -0.277559,
        -0.079930 0.144604 -0.277559,
        -0.001717 0.242462 -0.277559,
        -0.017033 0.241523 -0.277559,
        -0.038106 0.236276 -0.277559,
        -0.053306 0.228160 -0.277559,
        -0.066429 0.216273 -0.277559,
        -0.075544 0.202648 -0.277559,
        -0.080861 0.187914 -0.277559,
        0.075403 0.172957 -0.277559,
        0.073343 0.191317 -0.277559,
        0.068063 0.205661 -0.277559,
        0.059920 0.217742 -0.277559,
        0.050175 0.226980 -0.277559,
        0.036525 0.235121 -0.277559,
        0.019593 0.240469 -0.277559,
        0.064754 0.125959 -0.277559,
        0.072502 0.146827 -0.277559,
        0.073002 0.285673 -0.277559,
        0.094607 0.285673 -0.277559,
        0.094607 0.386499 -0.277559,
        -0.102243 0.386499 -0.277559,
        -0.102243 0.360092 -0.277559,
        0.073002 0.360092 -0.277559,
      ]
    }
    coordIndex [
      86, 87, 50, -1,
      50, 87, 51, -1,
      87, 88, 51, -1,
      51, 88, 52, -1,
      88, 89, 52, -1,
      52, 89, 53, -1,
      89, 90, 53, -1,
      53, 90, 54, -1,
      90, 91, 54, -1,
      54, 91, 48, -1,
      91, 92, 48, -1,
      48, 92, 49, -1,
      92, 93, 49, -1,
      49, 93, 57, -1,
      93, 86, 57, -1,
      57, 86, 50, -1,
      94, 95, 93, -1,
      92, 91, 90, -1,
      95, 96, 93, -1,
      93, 96, 97, -1,
      93, 97, 86, -1,
      86, 97, 98, -1,
      86, 98, 99, -1,
      99, 100, 86, -1,
      86, 100, 101, -1,
      86, 101, 87, -1,
      88, 87, 89, -1,
      89, 87, 101, -1,
      89, 101, 90, -1,
      90, 101, 94, -1,
      90, 94, 92, -1,
      92, 94, 93, -1,
      94, 101, 102, -1,
      102, 101, 103, -1,
      95, 94, 104, -1,
      104, 94, 102, -1,
      95, 104, 105, -1,
      95, 105, 96, -1,
      96, 105, 106, -1,
      96, 106, 97, -1,
      98, 97, 107, -1,
      107, 97, 106, -1,
      98, 107, 108, -1,
      98, 108, 99, -1,
      99, 108, 109, -1,
      99, 109, 100, -1,
      101, 100, 103, -1,
      103, 100, 109, -1,
      110, 111, 76, -1,
      76, 111, 66, -1,
      111, 112, 66, -1,
      66, 112, 55, -1,
      112, 113, 55, -1,
      55, 113, 56, -1,
      114, 84, 83, -1,
      114, 83, 115, -1,
      115, 83, 70, -1,
      115, 70, 116, -1,
      116, 70, 69, -1,
      116, 69, 117, -1,
      117, 69, 68, -1,
      117, 68, 118, -1,
      118, 68, 64, -1,
      118, 64, 119, -1,
      119, 64, 63, -1,
      119, 63, 120, -1,
      120, 63, 62, -1,
      120, 62, 121, -1,
      121, 62, 56, -1,
      121, 56, 113, -1,
      110, 76, 75, -1,
      110, 75, 122, -1,
      122, 75, 74, -1,
      122, 74, 123, -1,
      123, 74, 73, -1,
      123, 73, 124, -1,
      124, 73, 72, -1,
      124, 72, 125, -1,
      125, 72, 71, -1,
      125, 71, 126, -1,
      126, 71, 85, -1,
      126, 85, 127, -1,
      127, 85, 84, -1,
      127, 84, 114, -1,
      116, 117, 128, -1,
      128, 117, 118, -1,
      128, 118, 129, -1,
      129, 118, 119, -1,
      129, 119, 130, -1,
      130, 119, 120, -1,
      130, 120, 131, -1,
      131, 120, 121, -1,
      131, 121, 132, -1,
      132, 121, 113, -1,
      132, 113, 133, -1,
      133, 113, 112, -1,
      133, 112, 134, -1,
      134, 112, 111, -1,
      134, 111, 135, -1,
      135, 111, 110, -1,
      135, 110, 136, -1,
      136, 110, 122, -1,
      136, 122, 137, -1,
      137, 122, 123, -1,
      137, 123, 138, -1,
      138, 123, 124, -1,
      138, 124, 139, -1,
      139, 124, 125, -1,
      139, 125, 140, -1,
      140, 125, 126, -1,
      140, 126, 141, -1,
      141, 126, 127, -1,
      141, 127, 142, -1,
      142, 127, 114, -1,
      142, 114, 143, -1,
      143, 114, 115, -1,
      143, 115, 144, -1,
      144, 115, 116, -1,
      144, 116, 128, -1,
      132, 133, 145, -1,
      145, 133, 146, -1,
      132, 145, 147, -1,
      132, 147, 131, -1,
      131, 147, 148, -1,
      131, 148, 130, -1,
      130, 148, 149, -1,
      130, 149, 129, -1,
      129, 149, 150, -1,
      129, 150, 128, -1,
      128, 150, 151, -1,
      128, 151, 144, -1,
      144, 151, 152, -1,
      144, 152, 143, -1,
      143, 152, 153, -1,
      143, 153, 142, -1,
      142, 153, 154, -1,
      142, 154, 141, -1,
      141, 154, 155, -1,
      141, 155, 140, -1,
      140, 155, 156, -1,
      140, 156, 139, -1,
      139, 156, 157, -1,
      139, 157, 138, -1,
      138, 157, 158, -1,
      138, 158, 137, -1,
      137, 158, 159, -1,
      137, 159, 136, -1,
      136, 159, 160, -1,
      136, 160, 135, -1,
      134, 135, 161, -1,
      161, 135, 160, -1,
      133, 134, 146, -1,
      146, 134, 161, -1,
      162, 163, 79, -1,
      79, 163, 80, -1,
      163, 164, 80, -1,
      80, 164, 81, -1,
      164, 165, 81, -1,
      81, 165, 82, -1,
      165, 166, 82, -1,
      82, 166, 65, -1,
      166, 167, 65, -1,
      65, 167, 60, -1,
      167, 168, 60, -1,
      60, 168, 58, -1,
      168, 169, 58, -1,
      58, 169, 59, -1,
      169, 170, 59, -1,
      59, 170, 61, -1,
      170, 171, 61, -1,
      61, 171, 67, -1,
      171, 172, 67, -1,
      67, 172, 77, -1,
      172, 173, 77, -1,
      77, 173, 78, -1,
      173, 162, 78, -1,
      78, 162, 79, -1,
      164, 163, 162, -1,
      162, 173, 164, -1,
      164, 173, 172, -1,
      164, 172, 165, -1,
      167, 166, 168, -1,
      168, 166, 165, -1,
      168, 165, 169, -1,
      169, 165, 172, -1,
      169, 172, 170, -1,
      170, 172, 171, -1,
      174, 175, 6, -1,
      6, 175, 36, -1,
      176, 41, 38, -1,
      176, 38, 177, -1,
      177, 38, 37, -1,
      177, 37, 178, -1,
      178, 37, 36, -1,
      178, 36, 175, -1,
      179, 43, 42, -1,
      179, 42, 180, -1,
      180, 42, 14, -1,
      180, 14, 181, -1,
      181, 14, 13, -1,
      181, 13, 182, -1,
      182, 13, 7, -1,
      182, 7, 183, -1,
      183, 7, 9, -1,
      183, 9, 184, -1,
      184, 9, 10, -1,
      184, 10, 185, -1,
      185, 10, 41, -1,
      185, 41, 176, -1,
      186, 45, 187, -1,
      187, 45, 34, -1,
      34, 33, 187, -1,
      187, 33, 20, -1,
      187, 20, 188, -1,
      188, 20, 19, -1,
      188, 19, 189, -1,
      189, 19, 17, -1,
      189, 17, 190, -1,
      190, 17, 16, -1,
      190, 16, 191, -1,
      191, 16, 44, -1,
      191, 44, 192, -1,
      192, 44, 43, -1,
      192, 43, 179, -1,
      45, 186, 46, -1,
      46, 186, 193, -1,
      46, 193, 47, -1,
      47, 193, 194, -1,
      47, 194, 3, -1,
      194, 195, 3, -1,
      3, 195, 4, -1,
      196, 0, 5, -1,
      196, 5, 197, -1,
      197, 5, 4, -1,
      197, 4, 195, -1,
      198, 24, 40, -1,
      198, 40, 199, -1,
      199, 40, 39, -1,
      199, 39, 200, -1,
      200, 39, 23, -1,
      200, 23, 201, -1,
      201, 23, 22, -1,
      201, 22, 202, -1,
      202, 22, 21, -1,
      202, 21, 203, -1,
      203, 21, 1, -1,
      203, 1, 204, -1,
      204, 1, 0, -1,
      204, 0, 196, -1,
      205, 28, 27, -1,
      205, 27, 206, -1,
      206, 27, 29, -1,
      206, 29, 207, -1,
      207, 29, 30, -1,
      207, 30, 208, -1,
      208, 30, 31, -1,
      208, 31, 209, -1,
      209, 31, 26, -1,
      209, 26, 210, -1,
      210, 26, 25, -1,
      210, 25, 211, -1,
      211, 25, 24, -1,
      211, 24, 198, -1,
      174, 6, 2, -1,
      174, 2, 212, -1,
      212, 2, 32, -1,
      212, 32, 213, -1,
      213, 32, 28, -1,
      213, 28, 205, -1,
      206, 176, 205, -1,
      205, 176, 177, -1,
      205, 177, 213, -1,
      213, 177, 178, -1,
      213, 178, 212, -1,
      212, 178, 175, -1,
      212, 175, 174, -1,
      195, 194, 197, -1,
      197, 194, 193, -1,
      197, 193, 196, -1,
      196, 193, 186, -1,
      196, 186, 204, -1,
      204, 186, 187, -1,
      204, 187, 203, -1,
      203, 187, 188, -1,
      203, 188, 202, -1,
      202, 188, 189, -1,
      202, 189, 201, -1,
      201, 189, 190, -1,
      201, 190, 200, -1,
      200, 190, 191, -1,
      200, 191, 199, -1,
      199, 191, 192, -1,
      199, 192, 198, -1,
      198, 192, 179, -1,
      198, 179, 211, -1,
      211, 179, 180, -1,
      211, 180, 210, -1,
      210, 180, 181, -1,
      210, 181, 209, -1,
      209, 181, 182, -1,
      209, 182, 208, -1,
      208, 182, 183, -1,
      208, 183, 207, -1,
      207, 183, 184, -1,
      207, 184, 206, -1,
      206, 184, 185, -1,
      206, 185, 176, -1,
      214, 215, 8, -1,
      8, 215, 11, -1,
      215, 216, 11, -1,
      11, 216, 12, -1,
      216, 217, 12, -1,
      12, 217, 35, -1,
      217, 218, 35, -1,
      35, 218, 18, -1,
      218, 219, 18, -1,
      18, 219, 15, -1,
      219, 214, 15, -1,
      15, 214, 8, -1,
      218, 217, 219, -1,
      219, 217, 216, -1,
      219, 216, 214, -1,
      214, 216, 215, -1,
    ]
  }
}

Shape {
  appearance Appearance {
    material Material {
      diffuseColor 0.2078 0.2078 0.2078
      specularColor 0.0157 0.0157 0.0157
      ambientIntensity 0.2
      transparency 0.0000
      shininess 0.5
    }
  }
  geometry IndexedFaceSet {
    ccw TRUE
    solid FALSE
    coord DEF co Coordinate {
      point [
        0.017788 -0.287098 -0.285433,
        0.017788 -0.352928 -0.285433,
        -0.064433 -0.316469 -0.285433,
        -0.071260 -0.318363 -0.285433,
        -0.078237 -0.319619 -0.285433,
        -0.078237 -0.320257 -0.285433,
        -0.071281 -0.321541 -0.285433,
        -0.064433 -0.323295 -0.285433,
        -0.080637 -0.115455 -0.285433,
        -0.080637 -0.086422 -0.285433,
        -0.078161 -0.138754 -0.285433,
        -0.072474 -0.155002 -0.285433,
        -0.063185 -0.169381 -0.285433,
        -0.053033 -0.178943 -0.285433,
        -0.040892 -0.185781 -0.285433,
        -0.025322 -0.190377 -0.285433,
        -0.005731 -0.192049 -0.285433,
        0.014945 -0.190242 -0.285433,
        0.033449 -0.184468 -0.285433,
        0.047021 -0.176166 -0.285433,
        0.057926 -0.165125 -0.285433,
        0.065898 -0.151700 -0.285433,
        0.071069 -0.135135 -0.285433,
        0.073002 -0.114367 -0.285433,
        0.073002 -0.086422 -0.285433,
      ]
    }
    coordIndex [
      0, 1, 2, -1,
      2, 1, 7, -1,
      2, 7, 3, -1,
      3, 7, 6, -1,
      3, 6, 4, -1,
      4, 6, 5, -1,
      9, 24, 8, -1,
      8, 24, 23, -1,
      8, 23, 22, -1,
      16, 15, 8, -1,
      8, 15, 14, -1,
      8, 14, 10, -1,
      22, 21, 8, -1,
      8, 21, 20, -1,
      8, 20, 19, -1,
      19, 18, 8, -1,
      8, 18, 17, -1,
      8, 17, 16, -1,
      13, 12, 14, -1,
      14, 12, 11, -1,
      14, 11, 10, -1,
    ]
  }
}
