#VRML V2.0 utf8

Shape {
  appearance Appearance {
    material Material {
      diffuseColor 1.0000 1.0000 1.0000
      specularColor 0.5020 0.5020 0.5020
      ambientIntensity 0.2
      transparency 0.0000
      shininess 0.5
    }
  }
  geometry IndexedFaceSet {
    ccw TRUE
    solid FALSE
    coord DEF co Coordinate {
      point [
        -0.787402 0.590551 0.118110,
        -1.299213 0.590551 0.118110,
        -0.787402 -0.590551 0.118110,
        -1.299213 -0.590551 0.118110,
        -0.787402 0.590551 0.000000,
        -0.787402 -0.590551 0.000000,
        -1.299213 0.590551 0.000000,
        -1.299213 -0.590551 0.000000,
        -1.417323 -0.590551 0.118110,
        -1.417323 -0.590551 0.413386,
        -1.417323 0.590551 0.118110,
        -1.417323 0.590551 0.413386,
        -1.299213 -0.590551 0.531496,
        -0.787402 -0.590551 0.531496,
        -1.299213 0.590551 0.531496,
        -0.787402 0.590551 0.531496,
        -0.787402 0.590551 0.413386,
        -0.787402 -0.590551 0.413386,
        -1.299213 0.590551 0.413386,
        -1.299213 -0.590551 0.413386,
        -1.325494 0.590551 0.002961,
        -1.372853 0.590551 0.505728,
        -1.350459 0.590551 0.519800,
        -1.325494 0.590551 0.528535,
        -1.414361 0.590551 0.439668,
        -1.350459 0.590551 0.011696,
        -1.372853 0.590551 0.025768,
        -1.391555 0.590551 0.044470,
        -1.405626 0.590551 0.066864,
        -1.414361 0.590551 0.091828,
        -1.405626 0.590551 0.464632,
        -1.391555 0.590551 0.487026,
        -1.372853 -0.590551 0.025768,
        -1.350459 -0.590551 0.011696,
        -1.325494 -0.590551 0.002961,
        -1.325494 -0.590551 0.528535,
        -1.414361 -0.590551 0.091828,
        -1.391555 -0.590551 0.487026,
        -1.405626 -0.590551 0.464632,
        -1.414361 -0.590551 0.439668,
        -1.405626 -0.590551 0.066864,
        -1.391555 -0.590551 0.044470,
        -1.350459 -0.590551 0.519800,
        -1.372853 -0.590551 0.505728,
        1.299213 -0.590551 -0.000000,
        0.787402 -0.590551 -0.000000,
        1.299213 0.590551 -0.000000,
        0.787402 0.590551 -0.000000,
        0.787402 0.590551 0.118110,
        0.787402 -0.590551 0.118110,
        1.299213 0.590551 0.118110,
        1.299213 -0.590551 0.118110,
        1.299213 0.590551 0.413386,
        1.299213 -0.590551 0.413386,
        0.787402 0.590551 0.413386,
        0.787402 -0.590551 0.413386,
        0.787402 0.590551 0.531496,
        0.787402 -0.590551 0.531496,
        1.299213 0.590551 0.531496,
        1.299213 -0.590551 0.531496,
        1.417323 0.590551 0.118110,
        1.417323 0.590551 0.413386,
        1.417323 -0.590551 0.118110,
        1.417323 -0.590551 0.413386,
        1.372853 0.590551 0.025768,
        1.350459 0.590551 0.011696,
        1.325494 0.590551 0.002961,
        1.372853 0.590551 0.505728,
        1.391555 0.590551 0.487026,
        1.414361 0.590551 0.091828,
        1.325494 0.590551 0.528535,
        1.350459 0.590551 0.519800,
        1.405626 0.590551 0.066864,
        1.391555 0.590551 0.044470,
        1.405626 0.590551 0.464632,
        1.414361 0.590551 0.439668,
        1.372853 -0.590551 0.505728,
        1.350459 -0.590551 0.519800,
        1.325494 -0.590551 0.528535,
        1.325494 -0.590551 0.002961,
        1.350459 -0.590551 0.011696,
        1.372853 -0.590551 0.025768,
        1.391555 -0.590551 0.044470,
        1.405626 -0.590551 0.066864,
        1.414361 -0.590551 0.091828,
        1.414361 -0.590551 0.439668,
        1.405626 -0.590551 0.464632,
        1.391555 -0.590551 0.487026,
      ]
    }
    coordIndex [
      0, 1, 2, -1,
      2, 1, 3, -1,
      4, 0, 5, -1,
      5, 0, 2, -1,
      6, 4, 7, -1,
      7, 4, 5, -1,
      8, 9, 10, -1,
      10, 9, 11, -1,
      12, 13, 14, -1,
      14, 13, 15, -1,
      16, 15, 17, -1,
      17, 15, 13, -1,
      18, 16, 19, -1,
      19, 16, 17, -1,
      1, 18, 3, -1,
      3, 18, 19, -1,
      15, 16, 14, -1,
      14, 16, 18, -1,
      0, 4, 1, -1,
      1, 4, 6, -1,
      1, 6, 20, -1,
      21, 22, 18, -1,
      18, 22, 23, -1,
      18, 23, 14, -1,
      1, 10, 18, -1,
      18, 10, 11, -1,
      18, 11, 24, -1,
      20, 25, 1, -1,
      1, 25, 26, -1,
      1, 26, 27, -1,
      27, 28, 1, -1,
      1, 28, 29, -1,
      1, 29, 10, -1,
      24, 30, 18, -1,
      18, 30, 31, -1,
      18, 31, 21, -1,
      5, 2, 7, -1,
      7, 2, 3, -1,
      32, 33, 3, -1,
      3, 33, 34, -1,
      3, 34, 7, -1,
      17, 13, 19, -1,
      19, 13, 12, -1,
      19, 12, 35, -1,
      19, 9, 3, -1,
      3, 9, 8, -1,
      3, 8, 36, -1,
      37, 38, 19, -1,
      19, 38, 39, -1,
      19, 39, 9, -1,
      36, 40, 3, -1,
      3, 40, 41, -1,
      3, 41, 32, -1,
      35, 42, 19, -1,
      19, 42, 43, -1,
      19, 43, 37, -1,
      6, 7, 34, -1,
      6, 34, 20, -1,
      20, 34, 33, -1,
      20, 33, 25, -1,
      25, 33, 32, -1,
      25, 32, 26, -1,
      26, 32, 41, -1,
      26, 41, 27, -1,
      27, 41, 40, -1,
      27, 40, 28, -1,
      28, 40, 36, -1,
      28, 36, 29, -1,
      29, 36, 8, -1,
      29, 8, 10, -1,
      11, 9, 39, -1,
      11, 39, 24, -1,
      24, 39, 38, -1,
      24, 38, 30, -1,
      30, 38, 37, -1,
      30, 37, 31, -1,
      31, 37, 43, -1,
      31, 43, 21, -1,
      21, 43, 42, -1,
      21, 42, 22, -1,
      22, 42, 35, -1,
      22, 35, 23, -1,
      23, 35, 12, -1,
      23, 12, 14, -1,
      44, 45, 46, -1,
      46, 45, 47, -1,
      48, 47, 49, -1,
      49, 47, 45, -1,
      50, 48, 51, -1,
      51, 48, 49, -1,
      52, 50, 53, -1,
      53, 50, 51, -1,
      54, 52, 55, -1,
      55, 52, 53, -1,
      56, 54, 57, -1,
      57, 54, 55, -1,
      58, 56, 59, -1,
      59, 56, 57, -1,
      60, 61, 62, -1,
      62, 61, 63, -1,
      50, 64, 65, -1,
      47, 48, 46, -1,
      46, 48, 50, -1,
      46, 50, 66, -1,
      66, 50, 65, -1,
      54, 56, 52, -1,
      52, 56, 58, -1,
      52, 67, 68, -1,
      52, 61, 50, -1,
      50, 61, 60, -1,
      50, 60, 69, -1,
      58, 70, 52, -1,
      52, 70, 71, -1,
      52, 71, 67, -1,
      69, 72, 50, -1,
      50, 72, 73, -1,
      50, 73, 64, -1,
      68, 74, 52, -1,
      52, 74, 75, -1,
      52, 75, 61, -1,
      53, 76, 77, -1,
      51, 49, 45, -1,
      57, 55, 59, -1,
      59, 55, 53, -1,
      59, 53, 78, -1,
      78, 53, 77, -1,
      45, 44, 51, -1,
      51, 44, 79, -1,
      51, 79, 80, -1,
      80, 81, 51, -1,
      51, 81, 82, -1,
      51, 82, 83, -1,
      83, 84, 51, -1,
      51, 84, 62, -1,
      51, 62, 53, -1,
      53, 62, 63, -1,
      53, 63, 85, -1,
      85, 86, 53, -1,
      53, 86, 87, -1,
      53, 87, 76, -1,
      60, 62, 84, -1,
      60, 84, 69, -1,
      69, 84, 83, -1,
      69, 83, 72, -1,
      72, 83, 82, -1,
      72, 82, 73, -1,
      73, 82, 81, -1,
      73, 81, 64, -1,
      64, 81, 80, -1,
      64, 80, 65, -1,
      65, 80, 79, -1,
      65, 79, 66, -1,
      66, 79, 44, -1,
      66, 44, 46, -1,
      58, 59, 78, -1,
      58, 78, 70, -1,
      70, 78, 77, -1,
      70, 77, 71, -1,
      71, 77, 76, -1,
      71, 76, 67, -1,
      67, 76, 87, -1,
      67, 87, 68, -1,
      68, 87, 86, -1,
      68, 86, 74, -1,
      74, 86, 85, -1,
      74, 85, 75, -1,
      75, 85, 63, -1,
      75, 63, 61, -1,
    ]
  }
}

Shape {
  appearance Appearance {
    material Material {
      diffuseColor 0.1137 0.1137 0.1137
      specularColor 0.0588 0.0588 0.0588
      ambientIntensity 0.2
      transparency 0.0000
      shininess 0.5
    }
  }
  geometry IndexedFaceSet {
    ccw TRUE
    solid FALSE
    coord DEF co Coordinate {
      point [
        0.728346 -0.132631 0.059055,
        0.728346 -0.649606 0.059055,
        0.021442 -1.299213 0.059055,
        1.299213 -0.649606 0.059055,
        1.299213 -1.125984 0.059055,
        1.125984 -1.299213 0.059055,
        1.293310 -1.170819 0.059055,
        1.276004 -1.212598 0.059055,
        1.248475 -1.248475 0.059055,
        1.212598 -1.276004 0.059055,
        1.170819 -1.293310 0.059055,
        0.287910 0.065419 0.059055,
        0.021442 1.299213 0.059055,
        0.314317 0.065419 0.059055,
        0.391136 -0.131431 0.059055,
        0.021442 -0.132631 0.059055,
        0.213491 -0.131431 0.059055,
        0.242298 -0.131431 0.059055,
        0.192369 0.007387 0.059055,
        0.183221 0.024317 0.059055,
        0.124638 0.062379 0.059055,
        0.096198 0.065419 0.059055,
        0.040646 0.065419 0.059055,
        0.261091 -0.076217 0.059055,
        0.342411 -0.076217 0.059055,
        0.362329 -0.131431 0.059055,
        1.276004 1.212598 0.059055,
        1.293310 1.170819 0.059055,
        1.248475 1.248475 0.059055,
        1.299213 1.125984 0.059055,
        1.212598 1.276004 0.059055,
        0.141212 -0.122544 0.059055,
        0.161766 -0.110600 0.059055,
        0.177969 -0.095086 0.059055,
        0.197656 -0.012007 0.059055,
        0.728346 0.649606 0.059055,
        1.299213 0.649606 0.059055,
        1.125984 1.299213 0.059055,
        1.170819 1.293310 0.059055,
        0.169301 0.039752 0.059055,
        0.169095 0.039933 0.059055,
        0.147669 0.054292 0.059055,
        0.040646 -0.131431 0.059055,
        0.094173 -0.131431 0.059055,
        0.118530 -0.129305 0.059055,
        0.189257 -0.077479 0.059055,
        0.196325 -0.056874 0.059055,
        0.199087 -0.030530 0.059055,
        -0.182675 -0.132631 0.059055,
        -0.103391 -0.131431 0.059055,
        -0.162783 -0.129844 0.059055,
        -0.141800 -0.121228 0.059055,
        -0.254490 -0.073348 0.059055,
        -0.259838 -0.056417 0.059055,
        -0.145328 -0.101577 0.059055,
        -0.261831 -0.035106 0.059055,
        -0.260892 -0.019791 0.059055,
        -0.141800 0.033611 0.059055,
        -0.141800 -0.099623 0.059055,
        -0.163973 0.043106 0.059055,
        -0.187900 0.046215 0.059055,
        -0.235642 0.029605 0.059055,
        -0.222017 0.038720 0.059055,
        -0.207283 0.044037 0.059055,
        -0.076983 -0.109826 0.059055,
        -0.076983 -0.042608 0.059055,
        0.002237 -0.109826 0.059055,
        -0.007366 -0.042608 0.059055,
        -0.007366 -0.021003 0.059055,
        -0.076983 -0.021003 0.059055,
        -0.076983 0.043814 0.059055,
        -0.002565 0.043814 0.059055,
        -0.002565 0.065419 0.059055,
        -0.305042 -0.109826 0.059055,
        -0.280410 -0.080354 0.059055,
        -0.305042 -0.131431 0.059055,
        -0.269923 -0.099071 0.059055,
        -0.255137 -0.114638 0.059055,
        0.002237 -0.131431 0.059055,
        -1.125984 1.299213 0.059055,
        -0.103391 0.065419 0.059055,
        -1.170819 1.293310 0.059055,
        -1.212598 1.276004 0.059055,
        -0.210686 -0.110167 0.059055,
        -0.225030 -0.104886 0.059055,
        -0.192326 -0.112226 0.059055,
        -0.237111 -0.096743 0.059055,
        -0.166196 -0.109326 0.059055,
        -0.246348 -0.086998 0.059055,
        -0.285406 -0.008733 0.059055,
        -0.288238 -0.036719 0.059055,
        -0.286334 -0.059517 0.059055,
        -0.239303 -0.124749 0.059055,
        -0.220223 -0.131317 0.059055,
        -0.207541 -0.132631 0.059055,
        -0.207896 0.066206 0.059055,
        -0.229841 0.059830 0.059055,
        -0.379461 0.065419 0.059055,
        -0.248539 0.049068 0.059055,
        -0.266311 0.031976 0.059055,
        -0.728346 0.649606 0.059055,
        -1.299213 0.649606 0.059055,
        -1.299213 1.125984 0.059055,
        -0.255645 0.001283 0.059055,
        -0.247530 0.016482 0.059055,
        -0.379461 -0.109826 0.059055,
        -0.277849 0.013572 0.059055,
        -1.293310 1.170819 0.059055,
        -1.276004 1.212598 0.059055,
        -1.248475 1.248475 0.059055,
        -0.141800 0.060018 0.059055,
        -0.164559 0.066194 0.059055,
        -0.188124 0.067820 0.059055,
        -0.405868 -0.131431 0.059055,
        -0.728346 -0.132631 0.059055,
        -0.405868 0.065419 0.059055,
        -0.195964 -0.133832 0.059055,
        -0.190581 -0.133739 0.059055,
        -1.125984 -1.299213 0.059055,
        -1.299213 -0.649606 0.059055,
        -1.299213 -1.125984 0.059055,
        -1.170819 -1.293310 0.059055,
        -1.293310 -1.170819 0.059055,
        -0.728346 -0.649606 0.059055,
        -1.212598 -1.276004 0.059055,
        -1.248475 -1.248475 0.059055,
        -1.276004 -1.212598 0.059055,
        1.299213 0.649606 0.543307,
        1.299213 1.125984 1.102362,
        1.299213 -0.649606 0.543307,
        1.299213 -1.125984 1.102362,
        -1.125984 1.299213 1.102362,
        1.125984 1.299213 1.102362,
        -1.299213 -0.649606 0.543307,
        -1.299213 -1.125984 1.102362,
        -1.299213 0.649606 0.543307,
        -1.299213 1.125984 1.102362,
        -1.125984 -1.299213 1.102362,
        1.125984 -1.299213 1.102362,
        1.220472 -1.125984 1.181102,
        1.220472 1.125984 1.181102,
        -1.220472 1.125984 1.181102,
        1.125984 1.220472 1.181102,
        -1.125984 1.220472 1.181102,
        -1.220472 -1.125984 1.181102,
        -1.125984 -1.220472 1.181102,
        1.125984 -1.220472 1.181102,
        1.184897 1.199858 1.181102,
        1.166981 1.211115 1.181102,
        1.199858 1.184897 1.181102,
        1.211115 1.166981 1.181102,
        1.218104 1.147010 1.181102,
        1.147010 1.218104 1.181102,
        -1.184897 -1.199858 1.181102,
        -1.166981 -1.211115 1.181102,
        -1.199858 -1.184897 1.181102,
        -1.211115 -1.166981 1.181102,
        -1.218104 -1.147010 1.181102,
        -1.147010 -1.218104 1.181102,
        -1.199858 1.184897 1.181102,
        -1.211115 1.166981 1.181102,
        -1.184897 1.199858 1.181102,
        -1.166981 1.211115 1.181102,
        -1.147010 1.218104 1.181102,
        -1.218104 1.147010 1.181102,
        1.199858 -1.184897 1.181102,
        1.211115 -1.166981 1.181102,
        1.184897 -1.199858 1.181102,
        1.166981 -1.211115 1.181102,
        1.147010 -1.218104 1.181102,
        1.218104 -1.147010 1.181102,
        1.164531 -1.294869 1.102362,
        1.170619 -1.292739 1.102362,
        1.201145 -1.282057 1.102362,
        1.212083 -1.275185 1.102362,
        1.233991 -1.261420 1.102362,
        1.247705 -1.247705 1.102362,
        1.261420 -1.233991 1.102362,
        1.275185 -1.212083 1.102362,
        1.282057 -1.201145 1.102362,
        1.292739 -1.170619 1.102362,
        1.294869 -1.164531 1.102362,
        -1.294869 -1.164531 1.102362,
        -1.292739 -1.170619 1.102362,
        -1.282057 -1.201145 1.102362,
        -1.275185 -1.212083 1.102362,
        -1.261420 -1.233991 1.102362,
        -1.247705 -1.247705 1.102362,
        -1.233991 -1.261420 1.102362,
        -1.212083 -1.275185 1.102362,
        -1.201145 -1.282057 1.102362,
        -1.170619 -1.292739 1.102362,
        -1.164531 -1.294869 1.102362,
        1.294869 1.164531 1.102362,
        1.292739 1.170619 1.102362,
        1.282057 1.201145 1.102362,
        1.275185 1.212083 1.102362,
        1.261420 1.233991 1.102362,
        1.247705 1.247705 1.102362,
        1.233991 1.261420 1.102362,
        1.212083 1.275185 1.102362,
        1.201145 1.282057 1.102362,
        1.170619 1.292739 1.102362,
        1.164531 1.294869 1.102362,
        -1.164531 1.294869 1.102362,
        -1.170619 1.292739 1.102362,
        -1.201145 1.282057 1.102362,
        -1.212083 1.275185 1.102362,
        -1.233991 1.261420 1.102362,
        -1.247705 1.247705 1.102362,
        -1.261420 1.233991 1.102362,
        -1.275185 1.212083 1.102362,
        -1.282057 1.201145 1.102362,
        -1.292739 1.170619 1.102362,
        -1.294869 1.164531 1.102362,
        -1.240852 -1.125984 1.178419,
        -1.237972 -1.151545 1.178419,
        -1.259843 -1.125984 1.170553,
        -1.256487 -1.155770 1.170553,
        -1.276150 -1.125984 1.158040,
        -1.272385 -1.159399 1.158040,
        -1.288663 -1.125984 1.141732,
        -1.284585 -1.162184 1.141732,
        -1.296530 -1.125984 1.122742,
        -1.292254 -1.163934 1.122742,
        -1.279640 -1.199981 1.122742,
        -1.259322 -1.232317 1.122742,
        -1.232317 -1.259322 1.122742,
        -1.199981 -1.279640 1.122742,
        -1.163934 -1.292254 1.122742,
        -1.125984 -1.296530 1.122742,
        -1.272553 -1.196568 1.141732,
        -1.253172 -1.227413 1.141732,
        -1.227413 -1.253172 1.141732,
        -1.196568 -1.272553 1.141732,
        -1.162184 -1.284585 1.141732,
        -1.125984 -1.288663 1.141732,
        -1.261279 -1.191139 1.158040,
        -1.243389 -1.219611 1.158040,
        -1.219611 -1.243389 1.158040,
        -1.191139 -1.261279 1.158040,
        -1.159399 -1.272385 1.158040,
        -1.125984 -1.276150 1.158040,
        -1.246586 -1.184063 1.170553,
        -1.230639 -1.209444 1.170553,
        -1.209444 -1.230639 1.170553,
        -1.184063 -1.246586 1.170553,
        -1.155770 -1.256487 1.170553,
        -1.125984 -1.259843 1.170553,
        -1.229476 -1.175824 1.178419,
        -1.215791 -1.197603 1.178419,
        -1.197603 -1.215791 1.178419,
        -1.175824 -1.229476 1.178419,
        -1.151545 -1.237972 1.178419,
        -1.125984 -1.240852 1.178419,
        1.125984 -1.296530 1.122742,
        1.125984 -1.288663 1.141732,
        1.125984 -1.276150 1.158040,
        1.125984 -1.259843 1.170553,
        1.125984 -1.240852 1.178419,
        -1.296530 1.125984 1.122742,
        -1.288663 1.125984 1.141732,
        -1.276150 1.125984 1.158040,
        -1.259843 1.125984 1.170553,
        -1.240852 1.125984 1.178419,
        1.151545 -1.237972 1.178419,
        1.155770 -1.256487 1.170553,
        1.159399 -1.272385 1.158040,
        1.162184 -1.284585 1.141732,
        1.163934 -1.292254 1.122742,
        1.199981 -1.279640 1.122742,
        1.232317 -1.259322 1.122742,
        1.259322 -1.232317 1.122742,
        1.279640 -1.199981 1.122742,
        1.292254 -1.163934 1.122742,
        1.296530 -1.125984 1.122742,
        1.196568 -1.272553 1.141732,
        1.227413 -1.253172 1.141732,
        1.253172 -1.227413 1.141732,
        1.272553 -1.196568 1.141732,
        1.284585 -1.162184 1.141732,
        1.288663 -1.125984 1.141732,
        1.191139 -1.261279 1.158040,
        1.219611 -1.243389 1.158040,
        1.243389 -1.219611 1.158040,
        1.261279 -1.191139 1.158040,
        1.272385 -1.159399 1.158040,
        1.276150 -1.125984 1.158040,
        1.184063 -1.246586 1.170553,
        1.209444 -1.230639 1.170553,
        1.230639 -1.209444 1.170553,
        1.246586 -1.184063 1.170553,
        1.256487 -1.155770 1.170553,
        1.259843 -1.125984 1.170553,
        1.175824 -1.229476 1.178419,
        1.197603 -1.215791 1.178419,
        1.215791 -1.197603 1.178419,
        1.229476 -1.175824 1.178419,
        1.237972 -1.151545 1.178419,
        1.240852 -1.125984 1.178419,
        -1.125984 1.240852 1.178419,
        -1.151545 1.237972 1.178419,
        -1.125984 1.259843 1.170553,
        -1.155770 1.256487 1.170553,
        -1.125984 1.276150 1.158040,
        -1.159399 1.272385 1.158040,
        -1.125984 1.288663 1.141732,
        -1.162184 1.284585 1.141732,
        -1.125984 1.296530 1.122742,
        -1.163934 1.292254 1.122742,
        -1.199981 1.279640 1.122742,
        -1.232317 1.259322 1.122742,
        -1.259322 1.232317 1.122742,
        -1.279640 1.199981 1.122742,
        -1.292254 1.163934 1.122742,
        -1.196568 1.272553 1.141732,
        -1.227413 1.253172 1.141732,
        -1.253172 1.227413 1.141732,
        -1.272553 1.196568 1.141732,
        -1.284585 1.162184 1.141732,
        -1.191139 1.261279 1.158040,
        -1.219611 1.243389 1.158040,
        -1.243389 1.219611 1.158040,
        -1.261279 1.191139 1.158040,
        -1.272385 1.159399 1.158040,
        -1.184063 1.246586 1.170553,
        -1.209444 1.230639 1.170553,
        -1.230639 1.209444 1.170553,
        -1.246586 1.184063 1.170553,
        -1.256487 1.155770 1.170553,
        -1.175824 1.229476 1.178419,
        -1.197603 1.215791 1.178419,
        -1.215791 1.197603 1.178419,
        -1.229476 1.175824 1.178419,
        -1.237972 1.151545 1.178419,
        1.296530 1.125984 1.122742,
        1.288663 1.125984 1.141732,
        1.276150 1.125984 1.158040,
        1.259843 1.125984 1.170553,
        1.240852 1.125984 1.178419,
        1.125984 1.296530 1.122742,
        1.125984 1.288663 1.141732,
        1.125984 1.276150 1.158040,
        1.125984 1.259843 1.170553,
        1.125984 1.240852 1.178419,
        1.237972 1.151545 1.178419,
        1.256487 1.155770 1.170553,
        1.272385 1.159399 1.158040,
        1.284585 1.162184 1.141732,
        1.292254 1.163934 1.122742,
        1.279640 1.199981 1.122742,
        1.259322 1.232317 1.122742,
        1.232317 1.259322 1.122742,
        1.199981 1.279640 1.122742,
        1.163934 1.292254 1.122742,
        1.272553 1.196568 1.141732,
        1.253172 1.227413 1.141732,
        1.227413 1.253172 1.141732,
        1.196568 1.272553 1.141732,
        1.162184 1.284585 1.141732,
        1.261279 1.191139 1.158040,
        1.243389 1.219611 1.158040,
        1.219611 1.243389 1.158040,
        1.191139 1.261279 1.158040,
        1.159399 1.272385 1.158040,
        1.246586 1.184063 1.170553,
        1.230639 1.209444 1.170553,
        1.209444 1.230639 1.170553,
        1.184063 1.246586 1.170553,
        1.155770 1.256487 1.170553,
        1.229476 1.175824 1.178419,
        1.215791 1.197603 1.178419,
        1.197603 1.215791 1.178419,
        1.175824 1.229476 1.178419,
        1.151545 1.237972 1.178419,
        -0.728346 -0.649606 0.141732,
        -1.275591 -0.649606 0.141732,
        -1.275591 -0.649606 0.389764,
        -0.728346 -0.649606 0.389764,
        -0.728346 -0.649606 0.543307,
        -1.275591 0.649606 0.389764,
        -0.728346 0.649606 0.389764,
        -0.728346 0.649606 0.543307,
        -0.728346 0.649606 0.141732,
        -1.275591 0.649606 0.141732,
        1.275591 -0.649606 0.389764,
        0.728346 -0.649606 0.389764,
        0.728346 -0.649606 0.543307,
        0.728346 -0.649606 0.141732,
        1.275591 -0.649606 0.141732,
        0.728346 0.649606 0.141732,
        1.275591 0.649606 0.141732,
        1.275591 0.649606 0.389764,
        0.728346 0.649606 0.389764,
        0.728346 0.649606 0.543307,
      ]
    }
    coordIndex [
      0, 1, 2, -1,
      1, 3, 2, -1,
      2, 3, 4, -1,
      2, 4, 5, -1,
      5, 4, 6, -1,
      6, 7, 8, -1,
      8, 9, 6, -1,
      6, 9, 10, -1,
      6, 10, 5, -1,
      11, 12, 13, -1,
      13, 12, 14, -1,
      15, 16, 17, -1,
      18, 19, 11, -1,
      20, 21, 12, -1,
      12, 21, 22, -1,
      12, 22, 15, -1,
      23, 24, 17, -1,
      17, 24, 25, -1,
      17, 25, 15, -1,
      26, 27, 28, -1,
      28, 27, 29, -1,
      28, 29, 30, -1,
      31, 32, 16, -1,
      16, 32, 33, -1,
      18, 11, 34, -1,
      0, 14, 35, -1,
      35, 14, 12, -1,
      35, 12, 36, -1,
      36, 12, 37, -1,
      36, 37, 29, -1,
      29, 37, 38, -1,
      29, 38, 30, -1,
      19, 39, 11, -1,
      11, 39, 40, -1,
      11, 40, 12, -1,
      12, 40, 41, -1,
      12, 41, 20, -1,
      22, 42, 15, -1,
      15, 42, 43, -1,
      15, 43, 16, -1,
      16, 43, 44, -1,
      16, 44, 31, -1,
      33, 45, 16, -1,
      16, 45, 46, -1,
      16, 46, 11, -1,
      11, 46, 47, -1,
      11, 47, 34, -1,
      15, 48, 49, -1,
      49, 48, 50, -1,
      49, 50, 51, -1,
      52, 53, 54, -1,
      54, 53, 55, -1,
      54, 55, 56, -1,
      57, 58, 59, -1,
      59, 58, 54, -1,
      59, 54, 60, -1,
      61, 62, 54, -1,
      54, 62, 63, -1,
      54, 63, 60, -1,
      64, 65, 66, -1,
      66, 65, 67, -1,
      66, 67, 68, -1,
      69, 70, 68, -1,
      68, 70, 71, -1,
      68, 71, 66, -1,
      66, 71, 72, -1,
      73, 74, 75, -1,
      75, 74, 76, -1,
      75, 76, 77, -1,
      49, 78, 15, -1,
      15, 78, 66, -1,
      15, 66, 12, -1,
      12, 66, 72, -1,
      12, 72, 79, -1,
      79, 72, 80, -1,
      79, 80, 81, -1,
      81, 80, 82, -1,
      83, 84, 85, -1,
      85, 84, 86, -1,
      85, 86, 87, -1,
      87, 86, 54, -1,
      54, 86, 88, -1,
      54, 88, 52, -1,
      89, 90, 73, -1,
      73, 90, 91, -1,
      73, 91, 74, -1,
      77, 92, 75, -1,
      75, 92, 93, -1,
      75, 93, 94, -1,
      95, 96, 97, -1,
      97, 96, 98, -1,
      97, 98, 99, -1,
      100, 101, 102, -1,
      56, 103, 54, -1,
      54, 103, 104, -1,
      54, 104, 61, -1,
      73, 105, 89, -1,
      89, 105, 97, -1,
      89, 97, 106, -1,
      106, 97, 99, -1,
      102, 107, 100, -1,
      100, 107, 108, -1,
      100, 108, 80, -1,
      80, 108, 109, -1,
      80, 109, 82, -1,
      51, 58, 49, -1,
      49, 58, 57, -1,
      49, 57, 80, -1,
      80, 57, 110, -1,
      80, 110, 100, -1,
      100, 110, 111, -1,
      100, 111, 112, -1,
      113, 114, 115, -1,
      115, 114, 100, -1,
      115, 100, 97, -1,
      97, 100, 112, -1,
      97, 112, 95, -1,
      116, 117, 2, -1,
      2, 118, 119, -1,
      116, 2, 94, -1,
      117, 48, 2, -1,
      2, 48, 15, -1,
      2, 15, 0, -1,
      0, 15, 25, -1,
      0, 25, 14, -1,
      119, 118, 120, -1,
      120, 118, 121, -1,
      120, 121, 122, -1,
      119, 123, 2, -1,
      2, 123, 114, -1,
      2, 114, 94, -1,
      94, 114, 113, -1,
      94, 113, 75, -1,
      124, 125, 121, -1,
      121, 125, 126, -1,
      121, 126, 122, -1,
      36, 29, 127, -1,
      127, 29, 128, -1,
      127, 128, 129, -1,
      129, 128, 130, -1,
      129, 130, 3, -1,
      3, 130, 4, -1,
      79, 131, 12, -1,
      12, 131, 132, -1,
      12, 132, 37, -1,
      119, 120, 133, -1,
      133, 120, 134, -1,
      133, 134, 135, -1,
      135, 134, 136, -1,
      135, 136, 101, -1,
      101, 136, 102, -1,
      137, 118, 138, -1,
      138, 118, 2, -1,
      138, 2, 5, -1,
      139, 140, 141, -1,
      141, 140, 142, -1,
      141, 142, 143, -1,
      141, 144, 139, -1,
      139, 144, 145, -1,
      139, 145, 146, -1,
      147, 148, 149, -1,
      149, 148, 150, -1,
      140, 151, 142, -1,
      142, 151, 150, -1,
      142, 150, 152, -1,
      152, 150, 148, -1,
      153, 154, 155, -1,
      155, 154, 156, -1,
      144, 157, 145, -1,
      145, 157, 156, -1,
      145, 156, 158, -1,
      158, 156, 154, -1,
      159, 160, 161, -1,
      161, 160, 162, -1,
      143, 163, 141, -1,
      141, 163, 162, -1,
      141, 162, 164, -1,
      164, 162, 160, -1,
      165, 166, 167, -1,
      167, 166, 168, -1,
      146, 169, 139, -1,
      139, 169, 168, -1,
      139, 168, 170, -1,
      170, 168, 166, -1,
      138, 5, 171, -1,
      171, 5, 10, -1,
      171, 10, 172, -1,
      172, 10, 173, -1,
      173, 10, 9, -1,
      173, 9, 174, -1,
      174, 9, 175, -1,
      175, 9, 8, -1,
      175, 8, 176, -1,
      176, 8, 177, -1,
      177, 8, 7, -1,
      177, 7, 178, -1,
      178, 7, 179, -1,
      179, 7, 6, -1,
      179, 6, 180, -1,
      180, 6, 181, -1,
      181, 6, 4, -1,
      181, 4, 130, -1,
      134, 120, 182, -1,
      182, 120, 122, -1,
      182, 122, 183, -1,
      183, 122, 184, -1,
      184, 122, 126, -1,
      184, 126, 185, -1,
      185, 126, 186, -1,
      186, 126, 125, -1,
      186, 125, 187, -1,
      187, 125, 188, -1,
      188, 125, 124, -1,
      188, 124, 189, -1,
      189, 124, 190, -1,
      190, 124, 121, -1,
      190, 121, 191, -1,
      191, 121, 192, -1,
      192, 121, 118, -1,
      192, 118, 137, -1,
      128, 29, 193, -1,
      193, 29, 27, -1,
      193, 27, 194, -1,
      194, 27, 195, -1,
      195, 27, 26, -1,
      195, 26, 196, -1,
      196, 26, 197, -1,
      197, 26, 28, -1,
      197, 28, 198, -1,
      198, 28, 199, -1,
      199, 28, 30, -1,
      199, 30, 200, -1,
      200, 30, 201, -1,
      201, 30, 38, -1,
      201, 38, 202, -1,
      202, 38, 203, -1,
      203, 38, 37, -1,
      203, 37, 132, -1,
      131, 79, 204, -1,
      204, 79, 81, -1,
      204, 81, 205, -1,
      205, 81, 206, -1,
      206, 81, 82, -1,
      206, 82, 207, -1,
      207, 82, 208, -1,
      208, 82, 109, -1,
      208, 109, 209, -1,
      209, 109, 210, -1,
      210, 109, 108, -1,
      210, 108, 211, -1,
      211, 108, 212, -1,
      212, 108, 107, -1,
      212, 107, 213, -1,
      213, 107, 214, -1,
      214, 107, 102, -1,
      214, 102, 136, -1,
      144, 215, 216, -1,
      215, 217, 218, -1,
      217, 219, 220, -1,
      219, 221, 222, -1,
      221, 223, 224, -1,
      223, 134, 182, -1,
      223, 182, 224, -1,
      224, 182, 183, -1,
      224, 183, 225, -1,
      183, 184, 225, -1,
      225, 184, 185, -1,
      225, 185, 226, -1,
      185, 186, 226, -1,
      226, 186, 187, -1,
      226, 187, 227, -1,
      227, 187, 188, -1,
      227, 188, 228, -1,
      228, 188, 189, -1,
      189, 190, 228, -1,
      228, 190, 191, -1,
      228, 191, 229, -1,
      191, 192, 229, -1,
      229, 192, 137, -1,
      229, 137, 230, -1,
      221, 224, 222, -1,
      222, 224, 225, -1,
      222, 225, 231, -1,
      231, 225, 226, -1,
      231, 226, 232, -1,
      232, 226, 227, -1,
      232, 227, 233, -1,
      233, 227, 228, -1,
      233, 228, 234, -1,
      234, 228, 229, -1,
      234, 229, 235, -1,
      235, 229, 230, -1,
      235, 230, 236, -1,
      219, 222, 220, -1,
      220, 222, 231, -1,
      220, 231, 237, -1,
      237, 231, 232, -1,
      237, 232, 238, -1,
      238, 232, 233, -1,
      238, 233, 239, -1,
      239, 233, 234, -1,
      239, 234, 240, -1,
      240, 234, 235, -1,
      240, 235, 241, -1,
      241, 235, 236, -1,
      241, 236, 242, -1,
      217, 220, 218, -1,
      218, 220, 237, -1,
      218, 237, 243, -1,
      243, 237, 238, -1,
      243, 238, 244, -1,
      244, 238, 239, -1,
      244, 239, 245, -1,
      245, 239, 240, -1,
      245, 240, 246, -1,
      246, 240, 241, -1,
      246, 241, 247, -1,
      247, 241, 242, -1,
      247, 242, 248, -1,
      215, 218, 216, -1,
      216, 218, 243, -1,
      216, 243, 249, -1,
      249, 243, 244, -1,
      249, 244, 250, -1,
      250, 244, 245, -1,
      250, 245, 251, -1,
      251, 245, 246, -1,
      251, 246, 252, -1,
      252, 246, 247, -1,
      252, 247, 253, -1,
      253, 247, 248, -1,
      253, 248, 254, -1,
      144, 216, 157, -1,
      157, 216, 249, -1,
      157, 249, 156, -1,
      156, 249, 250, -1,
      156, 250, 155, -1,
      155, 250, 251, -1,
      155, 251, 153, -1,
      153, 251, 252, -1,
      153, 252, 154, -1,
      154, 252, 253, -1,
      154, 253, 158, -1,
      158, 253, 254, -1,
      158, 254, 145, -1,
      137, 138, 255, -1,
      137, 255, 230, -1,
      230, 255, 256, -1,
      230, 256, 236, -1,
      236, 256, 257, -1,
      236, 257, 242, -1,
      242, 257, 258, -1,
      242, 258, 248, -1,
      248, 258, 259, -1,
      248, 259, 254, -1,
      254, 259, 146, -1,
      254, 146, 145, -1,
      136, 134, 223, -1,
      136, 223, 260, -1,
      260, 223, 221, -1,
      260, 221, 261, -1,
      261, 221, 219, -1,
      261, 219, 262, -1,
      262, 219, 217, -1,
      262, 217, 263, -1,
      263, 217, 215, -1,
      263, 215, 264, -1,
      264, 215, 144, -1,
      264, 144, 141, -1,
      146, 259, 265, -1,
      259, 258, 266, -1,
      258, 257, 267, -1,
      257, 256, 268, -1,
      256, 255, 269, -1,
      255, 138, 171, -1,
      255, 171, 269, -1,
      269, 171, 172, -1,
      269, 172, 270, -1,
      172, 173, 270, -1,
      270, 173, 174, -1,
      270, 174, 271, -1,
      174, 175, 271, -1,
      271, 175, 176, -1,
      271, 176, 272, -1,
      272, 176, 177, -1,
      272, 177, 273, -1,
      273, 177, 178, -1,
      178, 179, 273, -1,
      273, 179, 180, -1,
      273, 180, 274, -1,
      180, 181, 274, -1,
      274, 181, 130, -1,
      274, 130, 275, -1,
      256, 269, 268, -1,
      268, 269, 270, -1,
      268, 270, 276, -1,
      276, 270, 271, -1,
      276, 271, 277, -1,
      277, 271, 272, -1,
      277, 272, 278, -1,
      278, 272, 273, -1,
      278, 273, 279, -1,
      279, 273, 274, -1,
      279, 274, 280, -1,
      280, 274, 275, -1,
      280, 275, 281, -1,
      257, 268, 267, -1,
      267, 268, 276, -1,
      267, 276, 282, -1,
      282, 276, 277, -1,
      282, 277, 283, -1,
      283, 277, 278, -1,
      283, 278, 284, -1,
      284, 278, 279, -1,
      284, 279, 285, -1,
      285, 279, 280, -1,
      285, 280, 286, -1,
      286, 280, 281, -1,
      286, 281, 287, -1,
      258, 267, 266, -1,
      266, 267, 282, -1,
      266, 282, 288, -1,
      288, 282, 283, -1,
      288, 283, 289, -1,
      289, 283, 284, -1,
      289, 284, 290, -1,
      290, 284, 285, -1,
      290, 285, 291, -1,
      291, 285, 286, -1,
      291, 286, 292, -1,
      292, 286, 287, -1,
      292, 287, 293, -1,
      259, 266, 265, -1,
      265, 266, 288, -1,
      265, 288, 294, -1,
      294, 288, 289, -1,
      294, 289, 295, -1,
      295, 289, 290, -1,
      295, 290, 296, -1,
      296, 290, 291, -1,
      296, 291, 297, -1,
      297, 291, 292, -1,
      297, 292, 298, -1,
      298, 292, 293, -1,
      298, 293, 299, -1,
      146, 265, 169, -1,
      169, 265, 294, -1,
      169, 294, 168, -1,
      168, 294, 295, -1,
      168, 295, 167, -1,
      167, 295, 296, -1,
      167, 296, 165, -1,
      165, 296, 297, -1,
      165, 297, 166, -1,
      166, 297, 298, -1,
      166, 298, 170, -1,
      170, 298, 299, -1,
      170, 299, 139, -1,
      143, 300, 301, -1,
      300, 302, 303, -1,
      302, 304, 305, -1,
      304, 306, 307, -1,
      306, 308, 309, -1,
      308, 131, 204, -1,
      308, 204, 309, -1,
      309, 204, 205, -1,
      309, 205, 310, -1,
      205, 206, 310, -1,
      310, 206, 207, -1,
      310, 207, 311, -1,
      207, 208, 311, -1,
      311, 208, 209, -1,
      311, 209, 312, -1,
      312, 209, 210, -1,
      312, 210, 313, -1,
      313, 210, 211, -1,
      211, 212, 313, -1,
      313, 212, 213, -1,
      313, 213, 314, -1,
      213, 214, 314, -1,
      314, 214, 136, -1,
      314, 136, 260, -1,
      306, 309, 307, -1,
      307, 309, 310, -1,
      307, 310, 315, -1,
      315, 310, 311, -1,
      315, 311, 316, -1,
      316, 311, 312, -1,
      316, 312, 317, -1,
      317, 312, 313, -1,
      317, 313, 318, -1,
      318, 313, 314, -1,
      318, 314, 319, -1,
      319, 314, 260, -1,
      319, 260, 261, -1,
      304, 307, 305, -1,
      305, 307, 315, -1,
      305, 315, 320, -1,
      320, 315, 316, -1,
      320, 316, 321, -1,
      321, 316, 317, -1,
      321, 317, 322, -1,
      322, 317, 318, -1,
      322, 318, 323, -1,
      323, 318, 319, -1,
      323, 319, 324, -1,
      324, 319, 261, -1,
      324, 261, 262, -1,
      302, 305, 303, -1,
      303, 305, 320, -1,
      303, 320, 325, -1,
      325, 320, 321, -1,
      325, 321, 326, -1,
      326, 321, 322, -1,
      326, 322, 327, -1,
      327, 322, 323, -1,
      327, 323, 328, -1,
      328, 323, 324, -1,
      328, 324, 329, -1,
      329, 324, 262, -1,
      329, 262, 263, -1,
      300, 303, 301, -1,
      301, 303, 325, -1,
      301, 325, 330, -1,
      330, 325, 326, -1,
      330, 326, 331, -1,
      331, 326, 327, -1,
      331, 327, 332, -1,
      332, 327, 328, -1,
      332, 328, 333, -1,
      333, 328, 329, -1,
      333, 329, 334, -1,
      334, 329, 263, -1,
      334, 263, 264, -1,
      143, 301, 163, -1,
      163, 301, 330, -1,
      163, 330, 162, -1,
      162, 330, 331, -1,
      162, 331, 161, -1,
      161, 331, 332, -1,
      161, 332, 159, -1,
      159, 332, 333, -1,
      159, 333, 160, -1,
      160, 333, 334, -1,
      160, 334, 164, -1,
      164, 334, 264, -1,
      164, 264, 141, -1,
      130, 128, 335, -1,
      130, 335, 275, -1,
      275, 335, 336, -1,
      275, 336, 281, -1,
      281, 336, 337, -1,
      281, 337, 287, -1,
      287, 337, 338, -1,
      287, 338, 293, -1,
      293, 338, 339, -1,
      293, 339, 299, -1,
      299, 339, 140, -1,
      299, 140, 139, -1,
      132, 131, 308, -1,
      132, 308, 340, -1,
      340, 308, 306, -1,
      340, 306, 341, -1,
      341, 306, 304, -1,
      341, 304, 342, -1,
      342, 304, 302, -1,
      342, 302, 343, -1,
      343, 302, 300, -1,
      343, 300, 344, -1,
      344, 300, 143, -1,
      344, 143, 142, -1,
      140, 339, 345, -1,
      339, 338, 346, -1,
      338, 337, 347, -1,
      337, 336, 348, -1,
      336, 335, 349, -1,
      335, 128, 193, -1,
      335, 193, 349, -1,
      349, 193, 194, -1,
      349, 194, 350, -1,
      194, 195, 350, -1,
      350, 195, 196, -1,
      350, 196, 351, -1,
      196, 197, 351, -1,
      351, 197, 198, -1,
      351, 198, 352, -1,
      352, 198, 199, -1,
      352, 199, 353, -1,
      353, 199, 200, -1,
      200, 201, 353, -1,
      353, 201, 202, -1,
      353, 202, 354, -1,
      202, 203, 354, -1,
      354, 203, 132, -1,
      354, 132, 340, -1,
      336, 349, 348, -1,
      348, 349, 350, -1,
      348, 350, 355, -1,
      355, 350, 351, -1,
      355, 351, 356, -1,
      356, 351, 352, -1,
      356, 352, 357, -1,
      357, 352, 353, -1,
      357, 353, 358, -1,
      358, 353, 354, -1,
      358, 354, 359, -1,
      359, 354, 340, -1,
      359, 340, 341, -1,
      337, 348, 347, -1,
      347, 348, 355, -1,
      347, 355, 360, -1,
      360, 355, 356, -1,
      360, 356, 361, -1,
      361, 356, 357, -1,
      361, 357, 362, -1,
      362, 357, 358, -1,
      362, 358, 363, -1,
      363, 358, 359, -1,
      363, 359, 364, -1,
      364, 359, 341, -1,
      364, 341, 342, -1,
      338, 347, 346, -1,
      346, 347, 360, -1,
      346, 360, 365, -1,
      365, 360, 361, -1,
      365, 361, 366, -1,
      366, 361, 362, -1,
      366, 362, 367, -1,
      367, 362, 363, -1,
      367, 363, 368, -1,
      368, 363, 364, -1,
      368, 364, 369, -1,
      369, 364, 342, -1,
      369, 342, 343, -1,
      339, 346, 345, -1,
      345, 346, 365, -1,
      345, 365, 370, -1,
      370, 365, 366, -1,
      370, 366, 371, -1,
      371, 366, 367, -1,
      371, 367, 372, -1,
      372, 367, 368, -1,
      372, 368, 373, -1,
      373, 368, 369, -1,
      373, 369, 374, -1,
      374, 369, 343, -1,
      374, 343, 344, -1,
      140, 345, 151, -1,
      151, 345, 370, -1,
      151, 370, 150, -1,
      150, 370, 371, -1,
      150, 371, 149, -1,
      149, 371, 372, -1,
      149, 372, 147, -1,
      147, 372, 373, -1,
      147, 373, 148, -1,
      148, 373, 374, -1,
      148, 374, 152, -1,
      152, 374, 344, -1,
      152, 344, 142, -1,
      375, 123, 376, -1,
      376, 123, 119, -1,
      376, 119, 377, -1,
      377, 119, 133, -1,
      377, 133, 378, -1,
      378, 133, 379, -1,
      380, 381, 382, -1,
      101, 100, 383, -1,
      383, 384, 101, -1,
      101, 384, 380, -1,
      101, 380, 135, -1,
      135, 380, 382, -1,
      375, 376, 383, -1,
      383, 376, 384, -1,
      376, 377, 384, -1,
      384, 377, 380, -1,
      377, 378, 380, -1,
      380, 378, 381, -1,
      378, 379, 381, -1,
      381, 379, 382, -1,
      123, 375, 114, -1,
      114, 375, 383, -1,
      114, 383, 100, -1,
      382, 379, 135, -1,
      135, 379, 133, -1,
      385, 386, 387, -1,
      3, 1, 388, -1,
      388, 389, 3, -1,
      3, 389, 385, -1,
      3, 385, 129, -1,
      129, 385, 387, -1,
      390, 35, 391, -1,
      391, 35, 36, -1,
      391, 36, 392, -1,
      392, 36, 127, -1,
      392, 127, 393, -1,
      393, 127, 394, -1,
      389, 388, 391, -1,
      391, 388, 390, -1,
      35, 390, 0, -1,
      0, 390, 388, -1,
      0, 388, 1, -1,
      387, 386, 394, -1,
      394, 386, 393, -1,
      386, 385, 393, -1,
      393, 385, 392, -1,
      385, 389, 392, -1,
      392, 389, 391, -1,
      394, 127, 387, -1,
      387, 127, 129, -1,
    ]
  }
}

Shape {
  appearance Appearance {
    material Material {
      diffuseColor 0.7922 0.8196 0.9333
      specularColor 0.3961 0.4118 0.4667
      ambientIntensity 0.2
      transparency 0.0000
      shininess 0.5
    }
  }
  geometry IndexedFaceSet {
    ccw TRUE
    solid FALSE
    coord DEF co Coordinate {
      point [
        0.287910 0.065419 0.059055,
        0.314317 0.065419 0.059055,
        0.391136 -0.131431 0.059055,
        0.213491 -0.131431 0.059055,
        0.242298 -0.131431 0.059055,
        0.192369 0.007387 0.059055,
        0.183221 0.024317 0.059055,
        0.124638 0.062379 0.059055,
        0.096198 0.065419 0.059055,
        0.040646 0.065419 0.059055,
        0.261091 -0.076217 0.059055,
        0.342411 -0.076217 0.059055,
        0.362329 -0.131431 0.059055,
        0.141212 -0.122544 0.059055,
        0.161766 -0.110600 0.059055,
        0.177969 -0.095086 0.059055,
        0.197656 -0.012007 0.059055,
        0.169301 0.039752 0.059055,
        0.169095 0.039933 0.059055,
        0.147669 0.054292 0.059055,
        0.040646 -0.131431 0.059055,
        0.094173 -0.131431 0.059055,
        0.118530 -0.129305 0.059055,
        0.189257 -0.077479 0.059055,
        0.196325 -0.056874 0.059055,
        0.199087 -0.030530 0.059055,
        -0.182675 -0.132631 0.059055,
        -0.103391 -0.131431 0.059055,
        -0.162783 -0.129844 0.059055,
        -0.141800 -0.121228 0.059055,
        -0.254490 -0.073348 0.059055,
        -0.259838 -0.056417 0.059055,
        -0.145328 -0.101577 0.059055,
        -0.261831 -0.035106 0.059055,
        -0.260892 -0.019791 0.059055,
        -0.141800 0.033611 0.059055,
        -0.141800 -0.099623 0.059055,
        -0.163973 0.043106 0.059055,
        -0.187900 0.046215 0.059055,
        -0.235642 0.029605 0.059055,
        -0.222017 0.038720 0.059055,
        -0.207283 0.044037 0.059055,
        -0.076983 -0.109826 0.059055,
        -0.076983 -0.042608 0.059055,
        0.002237 -0.109826 0.059055,
        -0.007366 -0.042608 0.059055,
        -0.007366 -0.021003 0.059055,
        -0.076983 -0.021003 0.059055,
        -0.076983 0.043814 0.059055,
        -0.002565 0.043814 0.059055,
        -0.002565 0.065419 0.059055,
        -0.305042 -0.109826 0.059055,
        -0.280410 -0.080354 0.059055,
        -0.305042 -0.131431 0.059055,
        -0.269923 -0.099071 0.059055,
        -0.255137 -0.114638 0.059055,
        0.002237 -0.131431 0.059055,
        -0.103391 0.065419 0.059055,
        -0.210686 -0.110167 0.059055,
        -0.225030 -0.104886 0.059055,
        -0.192326 -0.112226 0.059055,
        -0.237111 -0.096743 0.059055,
        -0.166196 -0.109326 0.059055,
        -0.246348 -0.086998 0.059055,
        -0.285406 -0.008733 0.059055,
        -0.288238 -0.036719 0.059055,
        -0.286334 -0.059517 0.059055,
        -0.239303 -0.124749 0.059055,
        -0.220223 -0.131317 0.059055,
        -0.207541 -0.132631 0.059055,
        -0.207896 0.066206 0.059055,
        -0.229841 0.059830 0.059055,
        -0.379461 0.065419 0.059055,
        -0.248539 0.049068 0.059055,
        -0.266311 0.031976 0.059055,
        -0.255645 0.001283 0.059055,
        -0.247530 0.016482 0.059055,
        -0.379461 -0.109826 0.059055,
        -0.277849 0.013572 0.059055,
        -0.141800 0.060018 0.059055,
        -0.164559 0.066194 0.059055,
        -0.188124 0.067820 0.059055,
        -0.405868 -0.131431 0.059055,
        -0.405868 0.065419 0.059055,
        -0.195964 -0.133832 0.059055,
        -0.190581 -0.133739 0.059055,
        0.391136 -0.131431 0.177165,
        0.362329 -0.131431 0.177165,
        0.342411 -0.076217 0.177165,
        0.314317 0.065419 0.177165,
        0.300888 0.041413 0.177165,
        0.287910 0.065419 0.177165,
        0.300250 0.041413 0.177165,
        0.298994 0.034437 0.177165,
        0.297100 0.027609 0.177165,
        0.267730 -0.054611 0.177165,
        0.213491 -0.131431 0.177165,
        0.333559 -0.054611 0.177165,
        0.303926 0.027609 0.177165,
        0.302172 0.034458 0.177165,
        0.242298 -0.131431 0.177165,
        0.261091 -0.076217 0.177165,
        0.333559 -0.054611 0.059055,
        0.267730 -0.054611 0.059055,
        0.303926 0.027609 0.059055,
        0.302172 0.034458 0.059055,
        0.300888 0.041413 0.059055,
        0.300250 0.041413 0.059055,
        0.298994 0.034437 0.059055,
        0.297100 0.027609 0.059055,
        0.147669 0.054292 0.177165,
        0.169095 0.039933 0.177165,
        0.150012 0.026362 0.177165,
        0.169301 0.039752 0.177165,
        0.159574 0.016209 0.177165,
        0.183221 0.024317 0.177165,
        0.166413 0.004068 0.177165,
        0.192369 0.007387 0.177165,
        0.171008 -0.011502 0.177165,
        0.197656 -0.012007 0.177165,
        0.172680 -0.031093 0.177165,
        0.199087 -0.030530 0.177165,
        0.170873 -0.051769 0.177165,
        0.196325 -0.056874 0.177165,
        0.165099 -0.070272 0.177165,
        0.189257 -0.077479 0.177165,
        0.156796 -0.083845 0.177165,
        0.177969 -0.095086 0.177165,
        0.145756 -0.094750 0.177165,
        0.161766 -0.110600 0.177165,
        0.132331 -0.102722 0.177165,
        0.141212 -0.122544 0.177165,
        0.115766 -0.107893 0.177165,
        0.118530 -0.129305 0.177165,
        0.094998 -0.109826 0.177165,
        0.094173 -0.131431 0.177165,
        0.067053 -0.109826 0.177165,
        0.040646 -0.131431 0.177165,
        0.067053 0.043814 0.177165,
        0.040646 0.065419 0.177165,
        0.096086 0.043814 0.177165,
        0.096198 0.065419 0.177165,
        0.119385 0.041337 0.177165,
        0.124638 0.062379 0.177165,
        0.135633 0.035651 0.177165,
        0.067053 0.043814 0.059055,
        0.096086 0.043814 0.059055,
        0.067053 -0.109826 0.059055,
        0.094998 -0.109826 0.059055,
        0.115766 -0.107893 0.059055,
        0.132331 -0.102722 0.059055,
        0.145756 -0.094750 0.059055,
        0.156796 -0.083845 0.059055,
        0.165099 -0.070272 0.059055,
        0.170873 -0.051769 0.059055,
        0.172680 -0.031093 0.059055,
        0.171008 -0.011502 0.059055,
        0.166413 0.004068 0.059055,
        0.159574 0.016209 0.059055,
        0.150012 0.026362 0.059055,
        0.135633 0.035651 0.059055,
        0.119385 0.041337 0.059055,
        0.002237 -0.131431 0.177165,
        0.002237 -0.109826 0.177165,
        -0.076983 -0.109826 0.177165,
        -0.076983 -0.042608 0.177165,
        -0.007366 -0.042608 0.177165,
        -0.007366 -0.021003 0.177165,
        -0.076983 -0.021003 0.177165,
        -0.076983 0.043814 0.177165,
        -0.002565 0.043814 0.177165,
        -0.002565 0.065419 0.177165,
        -0.103391 0.065419 0.177165,
        -0.103391 -0.131431 0.177165,
        -0.141800 -0.121228 0.177165,
        -0.141800 -0.099623 0.177165,
        -0.192326 -0.112226 0.177165,
        -0.166196 -0.109326 0.177165,
        -0.145328 -0.101577 0.177165,
        -0.261831 -0.035106 0.177165,
        -0.259838 -0.056417 0.177165,
        -0.254490 -0.073348 0.177165,
        -0.246348 -0.086998 0.177165,
        -0.237111 -0.096743 0.177165,
        -0.225030 -0.104886 0.177165,
        -0.210686 -0.110167 0.177165,
        -0.187900 0.046215 0.177165,
        -0.207283 0.044037 0.177165,
        -0.222017 0.038720 0.177165,
        -0.235642 0.029605 0.177165,
        -0.247530 0.016482 0.177165,
        -0.255645 0.001283 0.177165,
        -0.260892 -0.019791 0.177165,
        -0.141800 0.033611 0.177165,
        -0.163973 0.043106 0.177165,
        -0.141800 0.060018 0.177165,
        -0.188124 0.067820 0.177165,
        -0.164559 0.066194 0.177165,
        -0.288238 -0.036719 0.177165,
        -0.285406 -0.008733 0.177165,
        -0.277849 0.013572 0.177165,
        -0.266311 0.031976 0.177165,
        -0.248539 0.049068 0.177165,
        -0.229841 0.059830 0.177165,
        -0.207896 0.066206 0.177165,
        -0.195964 -0.133832 0.177165,
        -0.220223 -0.131317 0.177165,
        -0.239303 -0.124749 0.177165,
        -0.255137 -0.114638 0.177165,
        -0.269923 -0.099071 0.177165,
        -0.280410 -0.080354 0.177165,
        -0.286334 -0.059517 0.177165,
        -0.190581 -0.133739 0.177165,
        -0.162783 -0.129844 0.177165,
        -0.305042 -0.131431 0.177165,
        -0.305042 -0.109826 0.177165,
        -0.379461 -0.109826 0.177165,
        -0.379461 0.065419 0.177165,
        -0.405868 0.065419 0.177165,
        -0.405868 -0.131431 0.177165,
      ]
    }
    coordIndex [
      86, 87, 88, -1,
      89, 90, 91, -1,
      91, 90, 92, -1,
      91, 92, 93, -1,
      93, 94, 91, -1,
      91, 94, 95, -1,
      91, 95, 96, -1,
      97, 98, 89, -1,
      89, 98, 99, -1,
      89, 99, 90, -1,
      100, 96, 101, -1,
      101, 96, 95, -1,
      101, 95, 88, -1,
      88, 95, 97, -1,
      88, 97, 86, -1,
      86, 97, 89, -1,
      86, 89, 2, -1,
      2, 89, 1, -1,
      89, 91, 1, -1,
      1, 91, 0, -1,
      91, 96, 0, -1,
      0, 96, 3, -1,
      96, 100, 3, -1,
      3, 100, 4, -1,
      100, 101, 4, -1,
      4, 101, 10, -1,
      101, 88, 10, -1,
      10, 88, 11, -1,
      88, 87, 11, -1,
      11, 87, 12, -1,
      87, 86, 12, -1,
      12, 86, 2, -1,
      97, 95, 102, -1,
      102, 95, 103, -1,
      98, 97, 104, -1,
      104, 97, 102, -1,
      98, 104, 105, -1,
      98, 105, 99, -1,
      99, 105, 106, -1,
      99, 106, 90, -1,
      92, 90, 107, -1,
      107, 90, 106, -1,
      92, 107, 108, -1,
      92, 108, 93, -1,
      93, 108, 109, -1,
      93, 109, 94, -1,
      95, 94, 103, -1,
      103, 94, 109, -1,
      110, 111, 112, -1,
      112, 111, 113, -1,
      112, 113, 114, -1,
      114, 113, 115, -1,
      114, 115, 116, -1,
      116, 115, 117, -1,
      116, 117, 118, -1,
      118, 117, 119, -1,
      118, 119, 120, -1,
      120, 119, 121, -1,
      120, 121, 122, -1,
      122, 121, 123, -1,
      122, 123, 124, -1,
      124, 123, 125, -1,
      124, 125, 126, -1,
      126, 125, 127, -1,
      126, 127, 128, -1,
      128, 127, 129, -1,
      128, 129, 130, -1,
      130, 129, 131, -1,
      130, 131, 132, -1,
      132, 131, 133, -1,
      132, 133, 134, -1,
      134, 133, 135, -1,
      134, 135, 136, -1,
      136, 135, 137, -1,
      136, 137, 138, -1,
      138, 137, 139, -1,
      138, 139, 140, -1,
      140, 139, 141, -1,
      140, 141, 142, -1,
      142, 141, 143, -1,
      142, 143, 144, -1,
      144, 143, 110, -1,
      144, 110, 112, -1,
      137, 135, 20, -1,
      20, 135, 21, -1,
      121, 25, 24, -1,
      121, 24, 123, -1,
      123, 24, 23, -1,
      123, 23, 125, -1,
      125, 23, 15, -1,
      125, 15, 127, -1,
      127, 15, 14, -1,
      127, 14, 129, -1,
      129, 14, 13, -1,
      129, 13, 131, -1,
      131, 13, 22, -1,
      131, 22, 133, -1,
      133, 22, 21, -1,
      133, 21, 135, -1,
      141, 8, 7, -1,
      141, 7, 143, -1,
      143, 7, 19, -1,
      143, 19, 110, -1,
      110, 19, 18, -1,
      110, 18, 111, -1,
      111, 18, 17, -1,
      111, 17, 113, -1,
      113, 17, 6, -1,
      113, 6, 115, -1,
      115, 6, 5, -1,
      115, 5, 117, -1,
      117, 5, 16, -1,
      117, 16, 119, -1,
      119, 16, 25, -1,
      119, 25, 121, -1,
      141, 139, 8, -1,
      8, 139, 9, -1,
      139, 137, 9, -1,
      9, 137, 20, -1,
      138, 140, 145, -1,
      145, 140, 146, -1,
      136, 138, 147, -1,
      147, 138, 145, -1,
      134, 136, 148, -1,
      148, 136, 147, -1,
      134, 148, 149, -1,
      134, 149, 132, -1,
      132, 149, 150, -1,
      132, 150, 130, -1,
      130, 150, 151, -1,
      130, 151, 128, -1,
      128, 151, 152, -1,
      128, 152, 126, -1,
      126, 152, 153, -1,
      126, 153, 124, -1,
      124, 153, 154, -1,
      124, 154, 122, -1,
      122, 154, 155, -1,
      122, 155, 120, -1,
      120, 155, 156, -1,
      120, 156, 118, -1,
      118, 156, 157, -1,
      118, 157, 116, -1,
      116, 157, 158, -1,
      116, 158, 114, -1,
      114, 158, 159, -1,
      114, 159, 112, -1,
      112, 159, 160, -1,
      112, 160, 144, -1,
      144, 160, 161, -1,
      144, 161, 142, -1,
      142, 161, 146, -1,
      142, 146, 140, -1,
      162, 163, 56, -1,
      56, 163, 44, -1,
      163, 164, 44, -1,
      44, 164, 42, -1,
      164, 165, 42, -1,
      42, 165, 43, -1,
      165, 166, 43, -1,
      43, 166, 45, -1,
      166, 167, 45, -1,
      45, 167, 46, -1,
      167, 168, 46, -1,
      46, 168, 47, -1,
      168, 169, 47, -1,
      47, 169, 48, -1,
      169, 170, 48, -1,
      48, 170, 49, -1,
      170, 171, 49, -1,
      49, 171, 50, -1,
      171, 172, 50, -1,
      50, 172, 57, -1,
      172, 173, 57, -1,
      57, 173, 27, -1,
      173, 162, 27, -1,
      27, 162, 56, -1,
      172, 171, 170, -1,
      170, 169, 172, -1,
      172, 169, 168, -1,
      172, 168, 173, -1,
      163, 162, 164, -1,
      164, 162, 173, -1,
      164, 173, 165, -1,
      165, 173, 168, -1,
      165, 168, 166, -1,
      166, 168, 167, -1,
      174, 175, 29, -1,
      29, 175, 36, -1,
      176, 60, 62, -1,
      176, 62, 177, -1,
      177, 62, 32, -1,
      177, 32, 178, -1,
      178, 32, 36, -1,
      178, 36, 175, -1,
      179, 33, 31, -1,
      179, 31, 180, -1,
      180, 31, 30, -1,
      180, 30, 181, -1,
      181, 30, 63, -1,
      181, 63, 182, -1,
      182, 63, 61, -1,
      182, 61, 183, -1,
      183, 61, 59, -1,
      183, 59, 184, -1,
      184, 59, 58, -1,
      184, 58, 185, -1,
      185, 58, 60, -1,
      185, 60, 176, -1,
      186, 38, 41, -1,
      186, 41, 187, -1,
      187, 41, 40, -1,
      187, 40, 188, -1,
      188, 40, 39, -1,
      188, 39, 189, -1,
      189, 39, 76, -1,
      189, 76, 190, -1,
      190, 76, 75, -1,
      190, 75, 191, -1,
      191, 75, 34, -1,
      191, 34, 192, -1,
      192, 34, 33, -1,
      192, 33, 179, -1,
      193, 35, 37, -1,
      193, 37, 194, -1,
      194, 37, 38, -1,
      194, 38, 186, -1,
      193, 195, 35, -1,
      35, 195, 79, -1,
      196, 81, 80, -1,
      196, 80, 197, -1,
      197, 80, 79, -1,
      197, 79, 195, -1,
      198, 65, 64, -1,
      198, 64, 199, -1,
      199, 64, 78, -1,
      199, 78, 200, -1,
      200, 78, 74, -1,
      200, 74, 201, -1,
      201, 74, 73, -1,
      201, 73, 202, -1,
      202, 73, 71, -1,
      202, 71, 203, -1,
      203, 71, 70, -1,
      203, 70, 204, -1,
      204, 70, 81, -1,
      204, 81, 196, -1,
      205, 84, 69, -1,
      205, 69, 206, -1,
      69, 68, 206, -1,
      206, 68, 67, -1,
      206, 67, 207, -1,
      207, 67, 55, -1,
      207, 55, 208, -1,
      208, 55, 54, -1,
      208, 54, 209, -1,
      209, 54, 52, -1,
      209, 52, 210, -1,
      210, 52, 66, -1,
      210, 66, 211, -1,
      211, 66, 65, -1,
      211, 65, 198, -1,
      84, 205, 212, -1,
      174, 29, 28, -1,
      174, 28, 213, -1,
      213, 28, 26, -1,
      213, 26, 212, -1,
      212, 26, 85, -1,
      212, 85, 84, -1,
      176, 177, 213, -1,
      213, 177, 174, -1,
      174, 177, 178, -1,
      174, 178, 175, -1,
      213, 212, 176, -1,
      176, 212, 205, -1,
      176, 205, 185, -1,
      185, 205, 206, -1,
      185, 206, 184, -1,
      184, 206, 207, -1,
      184, 207, 183, -1,
      183, 207, 208, -1,
      183, 208, 182, -1,
      182, 208, 209, -1,
      182, 209, 181, -1,
      181, 209, 210, -1,
      181, 210, 180, -1,
      180, 210, 211, -1,
      180, 211, 179, -1,
      179, 211, 198, -1,
      179, 198, 192, -1,
      192, 198, 199, -1,
      192, 199, 191, -1,
      191, 199, 200, -1,
      191, 200, 190, -1,
      190, 200, 201, -1,
      190, 201, 189, -1,
      189, 201, 202, -1,
      189, 202, 188, -1,
      188, 202, 203, -1,
      188, 203, 187, -1,
      187, 203, 204, -1,
      187, 204, 186, -1,
      186, 204, 196, -1,
      186, 196, 194, -1,
      194, 196, 197, -1,
      194, 197, 193, -1,
      193, 197, 195, -1,
      214, 215, 53, -1,
      53, 215, 51, -1,
      215, 216, 51, -1,
      51, 216, 77, -1,
      216, 217, 77, -1,
      77, 217, 72, -1,
      217, 218, 72, -1,
      72, 218, 83, -1,
      218, 219, 83, -1,
      83, 219, 82, -1,
      219, 214, 82, -1,
      82, 214, 53, -1,
      215, 214, 216, -1,
      216, 214, 219, -1,
      216, 219, 217, -1,
      217, 219, 218, -1,
    ]
  }
}

Shape {
  appearance Appearance {
    material Material {
      diffuseColor 0.1137 0.1137 0.1137
      specularColor 0.0588 0.0588 0.0588
      ambientIntensity 0.2
      transparency 0.0000
      shininess 0.5
    }
  }
  geometry IndexedFaceSet {
    ccw TRUE
    solid FALSE
    coord DEF co Coordinate {
      point [
        0.333559 -0.054611 0.059055,
        0.267730 -0.054611 0.059055,
        0.303926 0.027609 0.059055,
        0.302172 0.034458 0.059055,
        0.300888 0.041413 0.059055,
        0.300250 0.041413 0.059055,
        0.298994 0.034437 0.059055,
        0.297100 0.027609 0.059055,
        0.067053 0.043814 0.059055,
        0.096086 0.043814 0.059055,
        0.067053 -0.109826 0.059055,
        0.094998 -0.109826 0.059055,
        0.115766 -0.107893 0.059055,
        0.132331 -0.102722 0.059055,
        0.145756 -0.094750 0.059055,
        0.156796 -0.083845 0.059055,
        0.165099 -0.070272 0.059055,
        0.170873 -0.051769 0.059055,
        0.172680 -0.031093 0.059055,
        0.171008 -0.011502 0.059055,
        0.166413 0.004068 0.059055,
        0.159574 0.016209 0.059055,
        0.150012 0.026362 0.059055,
        0.135633 0.035651 0.059055,
        0.119385 0.041337 0.059055,
      ]
    }
    coordIndex [
      5, 4, 6, -1,
      6, 4, 3, -1,
      6, 3, 7, -1,
      7, 3, 2, -1,
      7, 2, 1, -1,
      1, 2, 0, -1,
      10, 8, 11, -1,
      11, 8, 9, -1,
      11, 9, 12, -1,
      24, 20, 9, -1,
      9, 20, 19, -1,
      9, 19, 18, -1,
      24, 23, 20, -1,
      20, 23, 22, -1,
      20, 22, 21, -1,
      18, 17, 9, -1,
      9, 17, 16, -1,
      9, 16, 15, -1,
      15, 14, 9, -1,
      9, 14, 13, -1,
      9, 13, 12, -1,
    ]
  }
}
