#VRML V2.0 utf8

Shape {
  appearance Appearance {
    material Material {
      diffuseColor 0.2510 0.2510 0.2510
      specularColor 0.1255 0.1255 0.1255
      ambientIntensity 0.2
      transparency 0.0000
      shininess 0.5
    }
  }
  geometry IndexedFaceSet {
    ccw TRUE
    solid FALSE
    coord DEF co Coordinate {
      point [
        -0.100394 -0.199556 -0.098425,
        -0.100394 0.922491 -0.098425,
        -0.029022 0.922491 -0.098425,
        -0.029022 -0.465552 -0.098425,
        -0.021340 -0.465072 -0.098425,
        0.020911 -0.465072 -0.098425,
        -0.019419 -0.394974 -0.098425,
        -0.021340 -0.456430 -0.098425,
        -0.019419 -0.386331 -0.098425,
        0.036275 -0.460991 -0.098425,
        0.036275 -0.452348 -0.098425,
        0.020911 -0.386331 -0.098425,
        0.931102 -0.045276 -0.098425,
        0.955956 -0.045276 -0.098425,
        0.838583 -0.100394 -0.098425,
        0.955956 -0.465552 -0.098425,
        0.779528 -0.100394 -0.098425,
        0.779528 -0.199556 -0.098425,
        0.010348 -0.429543 -0.098425,
        0.010348 -0.456430 -0.098425,
        -0.017499 -0.429543 -0.098425,
        -0.017499 -0.420900 -0.098425,
        0.010348 -0.420900 -0.098425,
        0.010348 -0.394974 -0.098425,
        0.062468 -0.394884 -0.098425,
        0.068361 -0.397011 -0.098425,
        0.037686 -0.453130 -0.098425,
        0.073811 -0.400657 -0.098425,
        0.078567 -0.405907 -0.098425,
        0.084287 -0.426542 -0.098425,
        0.083490 -0.435066 -0.098425,
        0.081350 -0.441839 -0.098425,
        0.063829 -0.456566 -0.098425,
        0.056485 -0.457390 -0.098425,
        0.069567 -0.454454 -0.098425,
        0.074399 -0.451196 -0.098425,
        0.078094 -0.447298 -0.098425,
        0.046033 -0.456230 -0.098425,
        0.141902 -0.465072 -0.098425,
        0.062571 -0.465552 -0.098425,
        0.101572 -0.465072 -0.098425,
        0.067644 -0.465026 -0.098425,
        0.075276 -0.462399 -0.098425,
        0.100394 0.922491 -0.098425,
        0.100394 -0.199556 -0.098425,
        0.081813 -0.411986 -0.098425,
        0.083911 -0.420415 -0.098425,
        0.086079 -0.399709 -0.098425,
        0.078970 -0.392872 -0.098425,
        0.081609 -0.458354 -0.098425,
        0.087524 -0.452128 -0.098425,
        0.101572 -0.456430 -0.098425,
        0.091719 -0.444641 -0.098425,
        0.131339 -0.456430 -0.098425,
        0.094088 -0.436306 -0.098425,
        0.094850 -0.427187 -0.098425,
        0.131339 -0.386331 -0.098425,
        0.093717 -0.415993 -0.098425,
        0.090694 -0.407070 -0.098425,
        0.071491 -0.388567 -0.098425,
        0.062713 -0.386017 -0.098425,
        0.054805 -0.385371 -0.098425,
        0.045378 -0.386022 -0.098425,
        0.036275 -0.388492 -0.098425,
        0.036275 -0.399055 -0.098425,
        0.045144 -0.395257 -0.098425,
        0.054715 -0.394013 -0.098425,
        -0.058115 -0.465072 -0.098425,
        -0.036704 -0.465072 -0.098425,
        -0.036704 -0.386331 -0.098425,
        -0.838583 -0.100394 -0.098425,
        -0.779528 -0.100394 -0.098425,
        -0.779528 -0.199556 -0.098425,
        -0.955956 -0.465552 -0.098425,
        -0.955956 -0.045276 -0.098425,
        -0.931102 -0.045276 -0.098425,
        -0.105842 -0.465072 -0.098425,
        -0.096148 -0.443491 -0.098425,
        -0.091633 -0.450533 -0.098425,
        -0.165377 -0.465072 -0.098425,
        -0.176900 -0.465072 -0.098425,
        -0.146172 -0.386331 -0.098425,
        -0.085152 -0.456739 -0.098425,
        -0.076930 -0.461517 -0.098425,
        -0.067857 -0.464221 -0.098425,
        -0.117365 -0.465072 -0.098425,
        -0.124881 -0.442986 -0.098425,
        -0.157410 -0.442986 -0.098425,
        -0.058924 -0.386331 -0.098425,
        -0.070300 -0.387548 -0.098425,
        -0.079513 -0.390783 -0.098425,
        -0.088083 -0.396526 -0.098425,
        -0.088166 -0.396598 -0.098425,
        -0.093734 -0.402772 -0.098425,
        -0.135609 -0.386331 -0.098425,
        -0.097393 -0.409544 -0.098425,
        -0.099508 -0.417302 -0.098425,
        -0.100080 -0.424711 -0.098425,
        -0.098975 -0.435249 -0.098425,
        -0.916735 -0.780759 -0.098425,
        -0.952976 -0.756570 -0.098425,
        -0.954622 -0.751709 -0.098425,
        -0.926906 -0.779425 -0.098425,
        -0.931767 -0.777779 -0.098425,
        -0.950711 -0.761172 -0.098425,
        -0.936369 -0.775514 -0.098425,
        -0.940633 -0.772668 -0.098425,
        -0.947865 -0.765436 -0.098425,
        -0.944487 -0.769290 -0.098425,
        0.044668 -0.464437 -0.098425,
        0.052624 -0.465552 -0.098425,
        -0.029022 -0.780759 -0.098425,
        -0.955956 -0.741539 -0.098425,
        0.055787 -0.465995 -0.098425,
        0.057940 -0.466032 -0.098425,
        0.916735 -0.780759 -0.098425,
        0.955956 -0.741539 -0.098425,
        0.141902 -0.386331 -0.098425,
        0.954622 -0.751709 -0.098425,
        0.931767 -0.777779 -0.098425,
        0.926906 -0.779425 -0.098425,
        0.952976 -0.756570 -0.098425,
        0.950711 -0.761172 -0.098425,
        0.936369 -0.775514 -0.098425,
        0.947865 -0.765436 -0.098425,
        0.940633 -0.772668 -0.098425,
        0.944487 -0.769290 -0.098425,
        0.590551 0.922491 -0.098425,
        0.196850 0.922491 -0.098425,
        0.590551 0.931102 0.000000,
        0.196850 0.931102 0.000000,
        0.916735 0.922491 -0.098425,
        0.779528 0.922491 -0.098425,
        0.925347 0.931102 0.000000,
        0.779528 0.931102 0.000000,
        0.964567 -0.045276 -0.000000,
        0.964567 -0.750150 -0.000000,
        0.196850 0.804381 -0.098425,
        0.590551 0.804381 -0.098425,
        -0.955956 0.883271 -0.098425,
        -0.955956 0.045276 -0.098425,
        -0.964567 0.891882 0.000000,
        -0.964567 0.045276 0.000000,
        -0.196850 0.922491 -0.098425,
        -0.590551 0.922491 -0.098425,
        -0.196850 0.931102 0.000000,
        -0.590551 0.931102 0.000000,
        0.100394 0.931102 0.000000,
        -0.100394 0.931102 0.000000,
        -0.838583 0.100394 -0.098425,
        -0.931102 0.045276 -0.098425,
        -0.936369 0.917246 -0.098425,
        -0.931767 0.919512 -0.098425,
        -0.952976 0.898302 -0.098425,
        -0.916735 0.922491 -0.098425,
        -0.779528 0.100394 -0.098425,
        -0.779528 0.922491 -0.098425,
        -0.954622 0.893441 -0.098425,
        -0.926906 0.921157 -0.098425,
        -0.950711 0.902904 -0.098425,
        -0.947865 0.907168 -0.098425,
        -0.940633 0.914400 -0.098425,
        -0.944487 0.911022 -0.098425,
        -0.590551 0.804381 -0.098425,
        -0.196850 0.804381 -0.098425,
      ]
    }
    coordIndex [
      0, 1, 2, -1,
      3, 4, 5, -1,
      6, 7, 8, -1,
      8, 7, 2, -1,
      9, 5, 10, -1,
      10, 5, 11, -1,
      12, 13, 14, -1,
      14, 13, 15, -1,
      14, 15, 16, -1,
      16, 15, 17, -1,
      18, 19, 20, -1,
      20, 19, 7, -1,
      20, 7, 21, -1,
      21, 7, 6, -1,
      21, 6, 22, -1,
      22, 6, 23, -1,
      24, 25, 26, -1,
      26, 25, 27, -1,
      26, 27, 28, -1,
      29, 30, 26, -1,
      26, 30, 31, -1,
      32, 33, 34, -1,
      34, 33, 35, -1,
      31, 36, 26, -1,
      26, 36, 35, -1,
      26, 35, 37, -1,
      37, 35, 33, -1,
      38, 39, 40, -1,
      40, 39, 41, -1,
      40, 41, 42, -1,
      2, 43, 8, -1,
      8, 43, 44, -1,
      8, 44, 11, -1,
      28, 45, 26, -1,
      26, 45, 46, -1,
      26, 46, 29, -1,
      47, 48, 44, -1,
      42, 49, 40, -1,
      40, 49, 50, -1,
      40, 50, 51, -1,
      51, 50, 52, -1,
      51, 52, 53, -1,
      52, 54, 53, -1,
      53, 54, 55, -1,
      53, 55, 56, -1,
      56, 55, 57, -1,
      56, 57, 58, -1,
      48, 59, 44, -1,
      44, 59, 60, -1,
      44, 60, 61, -1,
      61, 62, 44, -1,
      44, 62, 63, -1,
      44, 63, 11, -1,
      11, 63, 64, -1,
      11, 64, 10, -1,
      10, 64, 65, -1,
      10, 65, 26, -1,
      26, 65, 66, -1,
      26, 66, 24, -1,
      67, 68, 3, -1,
      3, 68, 69, -1,
      70, 71, 72, -1,
      73, 74, 75, -1,
      76, 77, 78, -1,
      79, 3, 80, -1,
      80, 3, 73, -1,
      80, 73, 81, -1,
      78, 82, 76, -1,
      76, 82, 83, -1,
      76, 83, 84, -1,
      84, 67, 76, -1,
      76, 67, 3, -1,
      76, 3, 85, -1,
      85, 3, 79, -1,
      85, 79, 86, -1,
      86, 79, 87, -1,
      88, 0, 69, -1,
      69, 0, 2, -1,
      69, 2, 3, -1,
      3, 2, 7, -1,
      3, 7, 4, -1,
      88, 89, 0, -1,
      0, 89, 90, -1,
      0, 90, 91, -1,
      92, 93, 94, -1,
      94, 93, 95, -1,
      75, 70, 73, -1,
      73, 70, 72, -1,
      73, 72, 81, -1,
      81, 72, 0, -1,
      81, 0, 94, -1,
      94, 0, 91, -1,
      94, 91, 92, -1,
      95, 96, 94, -1,
      94, 96, 97, -1,
      94, 97, 76, -1,
      76, 97, 98, -1,
      76, 98, 77, -1,
      99, 100, 101, -1,
      99, 102, 100, -1,
      100, 102, 103, -1,
      100, 103, 104, -1,
      103, 105, 104, -1,
      104, 105, 106, -1,
      104, 106, 107, -1,
      107, 106, 108, -1,
      9, 109, 5, -1,
      5, 109, 110, -1,
      5, 110, 3, -1,
      3, 110, 111, -1,
      3, 111, 73, -1,
      73, 111, 99, -1,
      73, 99, 112, -1,
      112, 99, 101, -1,
      110, 113, 111, -1,
      111, 113, 114, -1,
      111, 114, 39, -1,
      115, 15, 116, -1,
      58, 47, 56, -1,
      56, 47, 44, -1,
      56, 44, 117, -1,
      117, 44, 17, -1,
      117, 17, 38, -1,
      38, 17, 15, -1,
      38, 15, 39, -1,
      39, 15, 115, -1,
      39, 115, 111, -1,
      118, 119, 116, -1,
      116, 119, 120, -1,
      116, 120, 115, -1,
      118, 121, 119, -1,
      119, 121, 122, -1,
      119, 122, 123, -1,
      123, 122, 124, -1,
      123, 124, 125, -1,
      125, 124, 126, -1,
      127, 128, 129, -1,
      129, 128, 130, -1,
      131, 132, 133, -1,
      133, 132, 134, -1,
      13, 135, 15, -1,
      15, 135, 136, -1,
      15, 136, 116, -1,
      137, 128, 138, -1,
      138, 128, 127, -1,
      139, 140, 141, -1,
      141, 140, 142, -1,
      143, 144, 145, -1,
      145, 144, 146, -1,
      147, 43, 148, -1,
      148, 43, 2, -1,
      148, 2, 1, -1,
      149, 150, 140, -1,
      151, 152, 153, -1,
      140, 139, 149, -1,
      149, 139, 154, -1,
      149, 154, 155, -1,
      155, 154, 156, -1,
      139, 157, 154, -1,
      154, 157, 153, -1,
      154, 153, 158, -1,
      158, 153, 152, -1,
      153, 159, 151, -1,
      151, 159, 160, -1,
      151, 160, 161, -1,
      161, 160, 162, -1,
      163, 144, 164, -1,
      164, 144, 143, -1,
    ]
  }
}

Shape {
  appearance Appearance {
    material Material {
      diffuseColor 1.0000 1.0000 1.0000
      specularColor 0.5020 0.5020 0.5020
      ambientIntensity 0.2
      transparency 0.0000
      shininess 0.5
    }
  }
  geometry IndexedFaceSet {
    ccw TRUE
    solid FALSE
    coord DEF co Coordinate {
      point [
        0.669094 -0.773870 0.177165,
        0.669094 -0.782481 0.078740,
        0.669094 -0.814348 0.177165,
        0.669094 -0.814348 0.078740,
        -0.830906 -0.773870 0.177165,
        -0.830906 -0.782481 0.078740,
        -0.830906 -0.814348 0.177165,
        -0.830906 -0.814348 0.078740,
        -0.330906 -0.773870 0.177165,
        -0.330906 -0.782481 0.078740,
        -0.330906 -0.814348 0.177165,
        -0.330906 -0.814348 0.078740,
        0.830906 -1.210630 -0.019685,
        0.830906 -1.210630 -0.118110,
        0.830906 -1.023915 -0.019685,
        0.830906 -1.023915 -0.118110,
        0.830906 -1.019237 -0.019121,
        0.830906 -0.995843 -0.114726,
        0.830906 -1.014826 -0.017461,
        0.830906 -0.969378 -0.104765,
        0.830906 -1.010936 -0.014800,
        0.830906 -0.946040 -0.088800,
        0.830906 -1.007791 -0.011291,
        0.830906 -0.927165 -0.067745,
        0.830906 -0.959444 0.057755,
        0.830906 -0.878819 0.001300,
        -0.669094 -1.210630 -0.019685,
        -0.669094 -1.210630 -0.118110,
        -0.669094 -1.023915 -0.019685,
        -0.669094 -1.023915 -0.118110,
        -0.669094 -1.019237 -0.019121,
        -0.669094 -0.995843 -0.114726,
        -0.669094 -1.014826 -0.017461,
        -0.669094 -0.969378 -0.104765,
        -0.669094 -1.010936 -0.014800,
        -0.669094 -0.946040 -0.088800,
        -0.669094 -1.007791 -0.011291,
        -0.669094 -0.927165 -0.067745,
        -0.669094 -0.959444 0.057755,
        -0.669094 -0.878819 0.001300,
        -0.169094 -1.210630 -0.019685,
        -0.169094 -1.210630 -0.118110,
        -0.169094 -1.023915 -0.019685,
        -0.169094 -1.023915 -0.118110,
        -0.169094 -1.019237 -0.019121,
        -0.169094 -0.995843 -0.114726,
        -0.169094 -1.014826 -0.017461,
        -0.169094 -0.969378 -0.104765,
        -0.169094 -1.010936 -0.014800,
        -0.169094 -0.946040 -0.088800,
        -0.169094 -1.007791 -0.011291,
        -0.169094 -0.927165 -0.067745,
        -0.169094 -0.959444 0.057755,
        -0.169094 -0.878819 0.001300,
      ]
    }
    coordIndex [
      0, 1, 2, -1,
      2, 1, 3, -1,
      4, 5, 6, -1,
      6, 5, 7, -1,
      8, 9, 10, -1,
      10, 9, 11, -1,
      12, 13, 14, -1,
      14, 13, 15, -1,
      14, 15, 16, -1,
      16, 15, 17, -1,
      16, 17, 18, -1,
      18, 17, 19, -1,
      18, 19, 20, -1,
      20, 19, 21, -1,
      20, 21, 22, -1,
      22, 21, 23, -1,
      22, 23, 24, -1,
      24, 23, 25, -1,
      26, 27, 28, -1,
      28, 27, 29, -1,
      28, 29, 30, -1,
      30, 29, 31, -1,
      30, 31, 32, -1,
      32, 31, 33, -1,
      32, 33, 34, -1,
      34, 33, 35, -1,
      34, 35, 36, -1,
      36, 35, 37, -1,
      36, 37, 38, -1,
      38, 37, 39, -1,
      40, 41, 42, -1,
      42, 41, 43, -1,
      42, 43, 44, -1,
      44, 43, 45, -1,
      44, 45, 46, -1,
      46, 45, 47, -1,
      46, 47, 48, -1,
      48, 47, 49, -1,
      48, 49, 50, -1,
      50, 49, 51, -1,
      50, 51, 52, -1,
      52, 51, 53, -1,
    ]
  }
}

Shape {
  appearance Appearance {
    material Material {
      diffuseColor 0.2510 0.2510 0.2510
      specularColor 0.1255 0.1255 0.1255
      ambientIntensity 0.2
      transparency 0.0000
      shininess 0.5
    }
  }
  geometry IndexedFaceSet {
    ccw TRUE
    solid FALSE
    coord DEF co Coordinate {
      point [
        0.669094 -0.773870 0.177165,
        0.669094 -0.782481 0.078740,
        -0.830906 -0.773870 0.177165,
        -0.830906 -0.782481 0.078740,
        -0.330906 -0.773870 0.177165,
        -0.330906 -0.782481 0.078740,
        -0.900246 -0.764270 0.286896,
        0.900246 -0.764270 0.286896,
        0.830906 -0.773870 0.177165,
        0.925347 -0.789370 0.000000,
        0.830906 -0.782481 0.078740,
        -0.669094 -0.782481 0.078740,
        -0.925347 -0.789370 -0.000000,
        -0.669094 -0.773870 0.177165,
        0.169094 -0.782481 0.078740,
        0.330906 -0.782481 0.078740,
        0.330906 -0.773870 0.177165,
        -0.169094 -0.773870 0.177165,
        -0.169094 -0.782481 0.078740,
        0.169094 -0.773870 0.177165,
      ]
    }
    coordIndex [
      6, 0, 7, -1,
      7, 0, 8, -1,
      7, 8, 9, -1,
      9, 8, 10, -1,
      9, 10, 1, -1,
      9, 11, 12, -1,
      12, 11, 3, -1,
      12, 3, 6, -1,
      6, 3, 2, -1,
      6, 2, 13, -1,
      14, 9, 15, -1,
      15, 9, 1, -1,
      15, 1, 16, -1,
      17, 6, 4, -1,
      4, 6, 13, -1,
      4, 13, 5, -1,
      13, 11, 5, -1,
      5, 11, 9, -1,
      5, 9, 18, -1,
      18, 9, 14, -1,
      18, 14, 17, -1,
      17, 14, 19, -1,
      17, 19, 6, -1,
      6, 19, 16, -1,
      6, 16, 0, -1,
      0, 16, 1, -1,
    ]
  }
}

Shape {
  appearance Appearance {
    material Material {
      diffuseColor 1.0000 1.0000 1.0000
      specularColor 0.5020 0.5020 0.5020
      ambientIntensity 0.2
      transparency 0.0000
      shininess 0.5
    }
  }
  geometry IndexedFaceSet {
    ccw TRUE
    solid FALSE
    coord DEF co Coordinate {
      point [
        0.169094 -0.782481 0.078740,
        0.169094 -0.773870 0.177165,
        0.169094 -0.814348 0.177165,
        0.169094 -0.814348 0.078740,
        0.330906 -1.210630 -0.019685,
        0.330906 -1.210630 -0.118110,
        0.330906 -1.023915 -0.019685,
        0.330906 -1.023915 -0.118110,
        0.330906 -1.019237 -0.019121,
        0.330906 -0.995843 -0.114726,
        0.330906 -1.014826 -0.017461,
        0.330906 -0.969378 -0.104765,
        0.330906 -1.010936 -0.014800,
        0.330906 -0.946040 -0.088800,
        0.330906 -1.007791 -0.011291,
        0.330906 -0.927165 -0.067745,
        0.330906 -0.959444 0.057755,
        0.330906 -0.878819 0.001300,
      ]
    }
    coordIndex [
      1, 0, 2, -1,
      2, 0, 3, -1,
      4, 5, 6, -1,
      6, 5, 7, -1,
      6, 7, 8, -1,
      8, 7, 9, -1,
      8, 9, 10, -1,
      10, 9, 11, -1,
      10, 11, 12, -1,
      12, 11, 13, -1,
      12, 13, 14, -1,
      14, 13, 15, -1,
      14, 15, 16, -1,
      16, 15, 17, -1,
    ]
  }
}

Shape {
  appearance Appearance {
    material Material {
      diffuseColor 0.2510 0.2510 0.2510
      specularColor 0.1255 0.1255 0.1255
      ambientIntensity 0.2
      transparency 0.0000
      shininess 0.5
    }
  }
  geometry IndexedFaceSet {
    ccw TRUE
    solid FALSE
    coord DEF co Coordinate {
      point [
        -0.955956 -0.465552 -0.098425,
        -0.955956 -0.045276 -0.098425,
        -0.916735 -0.780759 -0.098425,
        -0.029022 -0.780759 -0.098425,
        -0.955956 -0.741539 -0.098425,
        0.916735 -0.780759 -0.098425,
        0.590551 0.931102 0.000000,
        0.196850 0.931102 0.000000,
        0.916735 0.922491 -0.098425,
        0.779528 0.922491 -0.098425,
        0.925347 0.931102 0.000000,
        0.779528 0.931102 0.000000,
        0.964567 -0.045276 -0.000000,
        0.964567 -0.750150 -0.000000,
        -0.964567 0.891882 0.000000,
        -0.964567 0.045276 0.000000,
        -0.196850 0.931102 0.000000,
        -0.590551 0.931102 0.000000,
        0.100394 0.931102 0.000000,
        -0.100394 0.931102 0.000000,
        -0.916735 0.922491 -0.098425,
        -0.779528 0.922491 -0.098425,
        0.925347 -0.789370 0.000000,
        -0.925347 -0.789370 -0.000000,
        0.964567 0.891882 -0.000000,
        0.964567 0.045276 -0.000000,
        0.955956 0.883271 -0.098425,
        0.955956 0.045276 -0.098425,
        -0.964567 -0.045276 0.000000,
        -0.964567 -0.750150 -0.000000,
        -0.925347 0.931102 0.000000,
        -0.779528 0.931102 0.000000,
        0.931102 0.045276 -0.098425,
        0.838583 0.100394 -0.098425,
        0.952976 0.898302 -0.098425,
        0.954622 0.893441 -0.098425,
        0.926906 0.921157 -0.098425,
        0.931767 0.919512 -0.098425,
        0.950711 0.902904 -0.098425,
        0.779528 0.100394 -0.098425,
        0.936369 0.917246 -0.098425,
        0.940633 0.914400 -0.098425,
        0.947865 0.907168 -0.098425,
        0.944487 0.911022 -0.098425,
        0.939467 0.866782 0.286896,
        0.939467 -0.725050 0.286896,
        0.900246 0.906002 0.286896,
        0.720472 0.931102 0.000000,
        -0.900246 0.906002 0.286896,
        -0.720472 0.931102 0.000000,
        -0.939467 -0.725050 0.286896,
        -0.939467 0.866782 0.286896,
        -0.692440 -0.575327 0.322835,
        -0.694944 -0.594350 0.322835,
        0.900246 -0.725050 0.322835,
        -0.702287 -0.612076 0.322835,
        -0.713967 -0.627298 0.322835,
        -0.829589 -0.538578 0.322835,
        -0.900246 0.866782 0.322835,
        -0.836931 -0.556305 0.322835,
        -0.900246 -0.725050 0.322835,
        -0.817908 -0.523356 0.322835,
        -0.802686 -0.511676 0.322835,
        -0.784960 -0.504334 0.322835,
        -0.784960 -0.646320 0.322835,
        -0.802686 -0.638978 0.322835,
        -0.817908 -0.627298 0.322835,
        -0.829589 -0.612076 0.322835,
        -0.836931 -0.594350 0.322835,
        -0.839435 -0.575327 0.322835,
        -0.765937 -0.501830 0.322835,
        -0.746915 -0.504334 0.322835,
        0.900246 0.866782 0.322835,
        -0.729189 -0.511676 0.322835,
        -0.713967 -0.523356 0.322835,
        -0.702287 -0.538578 0.322835,
        -0.694944 -0.556305 0.322835,
        -0.729189 -0.638978 0.322835,
        -0.746915 -0.646320 0.322835,
        -0.765937 -0.648825 0.322835,
      ]
    }
    coordIndex [
      24, 25, 26, -1,
      26, 25, 27, -1,
      5, 22, 3, -1,
      3, 22, 23, -1,
      3, 23, 2, -1,
      28, 1, 29, -1,
      29, 1, 0, -1,
      29, 0, 4, -1,
      30, 31, 20, -1,
      20, 31, 21, -1,
      27, 32, 26, -1,
      26, 32, 33, -1,
      8, 34, 35, -1,
      8, 36, 34, -1,
      34, 36, 37, -1,
      34, 37, 38, -1,
      39, 9, 33, -1,
      33, 9, 8, -1,
      33, 8, 26, -1,
      26, 8, 35, -1,
      37, 40, 38, -1,
      38, 40, 41, -1,
      38, 41, 42, -1,
      42, 41, 43, -1,
      24, 44, 25, -1,
      25, 44, 45, -1,
      25, 45, 12, -1,
      12, 45, 13, -1,
      10, 11, 46, -1,
      46, 11, 47, -1,
      46, 47, 6, -1,
      6, 7, 46, -1,
      46, 7, 18, -1,
      46, 18, 48, -1,
      18, 19, 48, -1,
      48, 19, 16, -1,
      48, 16, 17, -1,
      17, 49, 48, -1,
      48, 49, 31, -1,
      48, 31, 30, -1,
      50, 51, 14, -1,
      14, 15, 50, -1,
      50, 15, 28, -1,
      50, 28, 29, -1,
      52, 53, 54, -1,
      54, 53, 55, -1,
      54, 55, 56, -1,
      57, 58, 59, -1,
      59, 58, 60, -1,
      57, 61, 58, -1,
      58, 61, 62, -1,
      58, 62, 63, -1,
      64, 65, 60, -1,
      60, 65, 66, -1,
      60, 66, 67, -1,
      67, 68, 60, -1,
      60, 68, 69, -1,
      60, 69, 59, -1,
      63, 70, 58, -1,
      58, 70, 71, -1,
      58, 71, 72, -1,
      72, 71, 73, -1,
      73, 74, 72, -1,
      72, 74, 75, -1,
      72, 75, 54, -1,
      54, 75, 76, -1,
      54, 76, 52, -1,
      56, 77, 54, -1,
      54, 77, 78, -1,
      54, 78, 60, -1,
      60, 78, 79, -1,
      60, 79, 64, -1,
    ]
  }
}

Shape {
  appearance Appearance {
    material Material {
      diffuseColor 0.0000 0.0000 0.0000
      specularColor 0.0000 0.0000 0.0000
      ambientIntensity 0.2
      transparency 0.0000
      shininess 0.5
    }
  }
  geometry IndexedFaceSet {
    ccw TRUE
    solid FALSE
    coord DEF co Coordinate {
      point [
        -0.692440 -0.575327 0.322835,
        -0.694944 -0.594350 0.322835,
        -0.702287 -0.612076 0.322835,
        -0.713967 -0.627298 0.322835,
        -0.829589 -0.538578 0.322835,
        -0.836931 -0.556305 0.322835,
        -0.817908 -0.523356 0.322835,
        -0.802686 -0.511676 0.322835,
        -0.784960 -0.504334 0.322835,
        -0.784960 -0.646320 0.322835,
        -0.802686 -0.638978 0.322835,
        -0.817908 -0.627298 0.322835,
        -0.829589 -0.612076 0.322835,
        -0.836931 -0.594350 0.322835,
        -0.839435 -0.575327 0.322835,
        -0.765937 -0.501830 0.322835,
        -0.746915 -0.504334 0.322835,
        -0.729189 -0.511676 0.322835,
        -0.713967 -0.523356 0.322835,
        -0.702287 -0.538578 0.322835,
        -0.694944 -0.556305 0.322835,
        -0.729189 -0.638978 0.322835,
        -0.746915 -0.646320 0.322835,
        -0.765937 -0.648825 0.322835,
        -0.692440 -0.575327 0.322441,
        -0.694944 -0.556305 0.322441,
        -0.702287 -0.538578 0.322441,
        -0.713967 -0.523356 0.322441,
        -0.729189 -0.511676 0.322441,
        -0.746915 -0.504334 0.322441,
        -0.765937 -0.501830 0.322441,
        -0.784960 -0.504334 0.322441,
        -0.802686 -0.511676 0.322441,
        -0.817908 -0.523356 0.322441,
        -0.829589 -0.538578 0.322441,
        -0.836931 -0.556305 0.322441,
        -0.839435 -0.575327 0.322441,
        -0.836931 -0.594350 0.322441,
        -0.829589 -0.612076 0.322441,
        -0.817908 -0.627298 0.322441,
        -0.802686 -0.638978 0.322441,
        -0.784960 -0.646320 0.322441,
        -0.765937 -0.648825 0.322441,
        -0.746915 -0.646320 0.322441,
        -0.729189 -0.638978 0.322441,
        -0.713967 -0.627298 0.322441,
        -0.702287 -0.612076 0.322441,
        -0.694944 -0.594350 0.322441,
        -0.765937 -0.575327 0.322441,
      ]
    }
    coordIndex [
      24, 0, 25, -1,
      25, 0, 20, -1,
      25, 20, 26, -1,
      26, 20, 19, -1,
      26, 19, 27, -1,
      27, 19, 18, -1,
      27, 18, 28, -1,
      28, 18, 17, -1,
      28, 17, 29, -1,
      29, 17, 16, -1,
      29, 16, 30, -1,
      30, 16, 15, -1,
      30, 15, 31, -1,
      31, 15, 8, -1,
      31, 8, 32, -1,
      32, 8, 7, -1,
      32, 7, 33, -1,
      33, 7, 6, -1,
      33, 6, 34, -1,
      34, 6, 4, -1,
      34, 4, 35, -1,
      35, 4, 5, -1,
      35, 5, 36, -1,
      36, 5, 14, -1,
      36, 14, 37, -1,
      37, 14, 13, -1,
      37, 13, 38, -1,
      38, 13, 12, -1,
      38, 12, 39, -1,
      39, 12, 11, -1,
      39, 11, 40, -1,
      40, 11, 10, -1,
      40, 10, 41, -1,
      41, 10, 9, -1,
      41, 9, 42, -1,
      42, 9, 23, -1,
      42, 23, 43, -1,
      43, 23, 22, -1,
      43, 22, 44, -1,
      44, 22, 21, -1,
      44, 21, 45, -1,
      45, 21, 3, -1,
      45, 3, 46, -1,
      46, 3, 2, -1,
      46, 2, 47, -1,
      47, 2, 1, -1,
      47, 1, 24, -1,
      24, 1, 0, -1,
      46, 47, 48, -1,
      48, 47, 24, -1,
      48, 24, 25, -1,
      43, 44, 48, -1,
      48, 44, 45, -1,
      48, 45, 46, -1,
      40, 41, 48, -1,
      48, 41, 42, -1,
      48, 42, 43, -1,
      37, 38, 48, -1,
      48, 38, 39, -1,
      48, 39, 40, -1,
      34, 35, 48, -1,
      48, 35, 36, -1,
      48, 36, 37, -1,
      31, 32, 48, -1,
      48, 32, 33, -1,
      48, 33, 34, -1,
      28, 29, 48, -1,
      48, 29, 30, -1,
      48, 30, 31, -1,
      25, 26, 48, -1,
      48, 26, 27, -1,
      48, 27, 28, -1,
    ]
  }
}

Shape {
  appearance Appearance {
    material Material {
      diffuseColor 1.0000 1.0000 1.0000
      specularColor 0.5020 0.5020 0.5020
      ambientIntensity 0.2
      transparency 0.0000
      shininess 0.5
    }
  }
  geometry IndexedFaceSet {
    ccw TRUE
    solid FALSE
    coord DEF co Coordinate {
      point [
        -0.100394 -0.199556 -0.098425,
        -0.100394 0.922491 -0.098425,
        0.931102 -0.045276 -0.098425,
        0.955956 -0.045276 -0.098425,
        0.838583 -0.100394 -0.098425,
        0.779528 -0.100394 -0.098425,
        0.779528 -0.199556 -0.098425,
        0.100394 0.922491 -0.098425,
        0.100394 -0.199556 -0.098425,
        -0.838583 -0.100394 -0.098425,
        -0.779528 -0.100394 -0.098425,
        -0.779528 -0.199556 -0.098425,
        -0.955956 -0.045276 -0.098425,
        -0.931102 -0.045276 -0.098425,
        0.590551 0.922491 -0.098425,
        0.196850 0.922491 -0.098425,
        0.590551 0.931102 0.000000,
        0.196850 0.931102 0.000000,
        0.779528 0.922491 -0.098425,
        0.779528 0.931102 0.000000,
        0.964567 -0.045276 -0.000000,
        0.196850 0.804381 -0.098425,
        0.590551 0.804381 -0.098425,
        -0.955956 0.045276 -0.098425,
        -0.964567 0.045276 0.000000,
        -0.196850 0.922491 -0.098425,
        -0.590551 0.922491 -0.098425,
        -0.196850 0.931102 0.000000,
        -0.590551 0.931102 0.000000,
        0.100394 0.931102 0.000000,
        -0.100394 0.931102 0.000000,
        -0.838583 0.100394 -0.098425,
        -0.931102 0.045276 -0.098425,
        -0.779528 0.100394 -0.098425,
        -0.779528 0.922491 -0.098425,
        -0.590551 0.804381 -0.098425,
        -0.196850 0.804381 -0.098425,
        0.669094 -0.773870 0.177165,
        0.669094 -0.782481 0.078740,
        0.669094 -0.814348 0.177165,
        0.669094 -0.814348 0.078740,
        -0.830906 -0.773870 0.177165,
        -0.830906 -0.782481 0.078740,
        -0.830906 -0.814348 0.177165,
        -0.830906 -0.814348 0.078740,
        -0.330906 -0.773870 0.177165,
        -0.330906 -0.782481 0.078740,
        -0.330906 -0.814348 0.177165,
        -0.330906 -0.814348 0.078740,
        0.830906 -1.210630 -0.019685,
        0.830906 -1.210630 -0.118110,
        0.830906 -1.023915 -0.019685,
        0.830906 -1.023915 -0.118110,
        0.830906 -1.019237 -0.019121,
        0.830906 -0.995843 -0.114726,
        0.830906 -1.014826 -0.017461,
        0.830906 -0.969378 -0.104765,
        0.830906 -1.010936 -0.014800,
        0.830906 -0.946040 -0.088800,
        0.830906 -1.007791 -0.011291,
        0.830906 -0.927165 -0.067745,
        0.830906 -0.959444 0.057755,
        0.830906 -0.878819 0.001300,
        -0.669094 -1.210630 -0.019685,
        -0.669094 -1.210630 -0.118110,
        -0.669094 -1.023915 -0.019685,
        -0.669094 -1.023915 -0.118110,
        -0.669094 -1.019237 -0.019121,
        -0.669094 -0.995843 -0.114726,
        -0.669094 -1.014826 -0.017461,
        -0.669094 -0.969378 -0.104765,
        -0.669094 -1.010936 -0.014800,
        -0.669094 -0.946040 -0.088800,
        -0.669094 -1.007791 -0.011291,
        -0.669094 -0.927165 -0.067745,
        -0.669094 -0.959444 0.057755,
        -0.669094 -0.878819 0.001300,
        -0.169094 -1.210630 -0.019685,
        -0.169094 -1.210630 -0.118110,
        -0.169094 -1.023915 -0.019685,
        -0.169094 -1.023915 -0.118110,
        -0.169094 -1.019237 -0.019121,
        -0.169094 -0.995843 -0.114726,
        -0.169094 -1.014826 -0.017461,
        -0.169094 -0.969378 -0.104765,
        -0.169094 -1.010936 -0.014800,
        -0.169094 -0.946040 -0.088800,
        -0.169094 -1.007791 -0.011291,
        -0.169094 -0.927165 -0.067745,
        -0.169094 -0.959444 0.057755,
        -0.169094 -0.878819 0.001300,
        0.830906 -0.773870 0.177165,
        0.830906 -0.782481 0.078740,
        -0.669094 -0.782481 0.078740,
        -0.669094 -0.773870 0.177165,
        0.169094 -0.782481 0.078740,
        0.330906 -0.782481 0.078740,
        0.330906 -0.773870 0.177165,
        -0.169094 -0.773870 0.177165,
        -0.169094 -0.782481 0.078740,
        0.169094 -0.773870 0.177165,
        0.169094 -0.814348 0.177165,
        0.169094 -0.814348 0.078740,
        0.330906 -1.210630 -0.019685,
        0.330906 -1.210630 -0.118110,
        0.330906 -1.023915 -0.019685,
        0.330906 -1.023915 -0.118110,
        0.330906 -1.019237 -0.019121,
        0.330906 -0.995843 -0.114726,
        0.330906 -1.014826 -0.017461,
        0.330906 -0.969378 -0.104765,
        0.330906 -1.010936 -0.014800,
        0.330906 -0.946040 -0.088800,
        0.330906 -1.007791 -0.011291,
        0.330906 -0.927165 -0.067745,
        0.330906 -0.959444 0.057755,
        0.330906 -0.878819 0.001300,
        0.964567 0.045276 -0.000000,
        0.955956 0.045276 -0.098425,
        -0.964567 -0.045276 0.000000,
        -0.779528 0.931102 0.000000,
        0.931102 0.045276 -0.098425,
        0.838583 0.100394 -0.098425,
        0.779528 0.100394 -0.098425,
        0.720472 0.931102 0.000000,
        -0.720472 0.931102 0.000000,
        0.330906 -0.814348 0.078740,
        0.330906 -0.814348 0.177165,
        0.169094 -0.959444 0.057755,
        0.169094 -0.878819 0.001300,
        0.169094 -1.007791 -0.011291,
        0.169094 -0.927165 -0.067745,
        0.169094 -1.010936 -0.014800,
        0.169094 -0.946040 -0.088800,
        0.169094 -1.014826 -0.017461,
        0.169094 -0.969378 -0.104765,
        0.169094 -1.019237 -0.019121,
        0.169094 -0.995843 -0.114726,
        0.169094 -1.023915 -0.019685,
        0.169094 -1.023915 -0.118110,
        0.169094 -1.210630 -0.019685,
        0.169094 -1.210630 -0.118110,
        0.350591 -0.830473 0.070346,
        0.350591 -0.878819 0.001300,
        0.149409 -0.830473 0.070346,
        0.149409 -0.878819 0.001300,
        0.350591 -0.814348 0.078740,
        0.350591 -0.819027 0.078176,
        0.149409 -0.814348 0.078740,
        0.149409 -0.819027 0.078176,
        0.149409 -0.823437 0.076516,
        0.350591 -0.823437 0.076516,
        0.149409 -0.827327 0.073855,
        0.350591 -0.827327 0.073855,
        0.149409 -0.814348 0.177165,
        0.149409 -0.842421 0.173781,
        0.350591 -0.842421 0.173781,
        0.350591 -0.814348 0.177165,
        0.149409 -0.868885 0.163820,
        0.350591 -0.868885 0.163820,
        0.149409 -0.892223 0.147855,
        0.350591 -0.892223 0.147855,
        0.149409 -0.911098 0.126800,
        0.350591 -0.911098 0.126800,
        0.149409 -0.959444 0.057755,
        0.350591 -0.959444 0.057755,
        -0.169094 -0.814348 0.078740,
        -0.169094 -0.814348 0.177165,
        -0.330906 -0.959444 0.057755,
        -0.330906 -0.878819 0.001300,
        -0.330906 -1.007791 -0.011291,
        -0.330906 -0.927165 -0.067745,
        -0.330906 -1.010936 -0.014800,
        -0.330906 -0.946040 -0.088800,
        -0.330906 -1.014826 -0.017461,
        -0.330906 -0.969378 -0.104765,
        -0.330906 -1.019237 -0.019121,
        -0.330906 -0.995843 -0.114726,
        -0.330906 -1.023915 -0.019685,
        -0.330906 -1.023915 -0.118110,
        -0.330906 -1.210630 -0.019685,
        -0.330906 -1.210630 -0.118110,
        -0.149409 -0.830473 0.070346,
        -0.149409 -0.878819 0.001300,
        -0.350591 -0.830473 0.070346,
        -0.350591 -0.878819 0.001300,
        -0.149409 -0.814348 0.078740,
        -0.149409 -0.819027 0.078176,
        -0.350591 -0.819027 0.078176,
        -0.350591 -0.814348 0.078740,
        -0.149409 -0.827327 0.073855,
        -0.350591 -0.827327 0.073855,
        -0.149409 -0.823437 0.076516,
        -0.350591 -0.823437 0.076516,
        -0.350591 -0.814348 0.177165,
        -0.350591 -0.842421 0.173781,
        -0.149409 -0.842421 0.173781,
        -0.149409 -0.814348 0.177165,
        -0.350591 -0.868885 0.163820,
        -0.149409 -0.868885 0.163820,
        -0.350591 -0.892223 0.147855,
        -0.149409 -0.892223 0.147855,
        -0.350591 -0.911098 0.126800,
        -0.149409 -0.911098 0.126800,
        -0.350591 -0.959444 0.057755,
        -0.149409 -0.959444 0.057755,
        -0.669094 -0.814348 0.078740,
        -0.669094 -0.814348 0.177165,
        -0.830906 -0.959444 0.057755,
        -0.830906 -0.878819 0.001300,
        -0.830906 -1.007791 -0.011291,
        -0.830906 -0.927165 -0.067745,
        -0.830906 -1.010936 -0.014800,
        -0.830906 -0.946040 -0.088800,
        -0.830906 -1.014826 -0.017461,
        -0.830906 -0.969378 -0.104765,
        -0.830906 -1.019237 -0.019121,
        -0.830906 -0.995843 -0.114726,
        -0.830906 -1.023915 -0.019685,
        -0.830906 -1.023915 -0.118110,
        -0.830906 -1.210630 -0.019685,
        -0.830906 -1.210630 -0.118110,
        -0.649409 -0.830473 0.070346,
        -0.649409 -0.878819 0.001300,
        -0.850591 -0.830473 0.070346,
        -0.850591 -0.878819 0.001300,
        -0.649409 -0.814348 0.078740,
        -0.649409 -0.819027 0.078176,
        -0.850591 -0.814348 0.078740,
        -0.850591 -0.819027 0.078176,
        -0.850591 -0.823437 0.076516,
        -0.649409 -0.823437 0.076516,
        -0.850591 -0.827327 0.073855,
        -0.649409 -0.827327 0.073855,
        -0.850591 -0.814348 0.177165,
        -0.850591 -0.842421 0.173781,
        -0.649409 -0.842421 0.173781,
        -0.649409 -0.814348 0.177165,
        -0.850591 -0.868885 0.163820,
        -0.649409 -0.868885 0.163820,
        -0.850591 -0.892223 0.147855,
        -0.649409 -0.892223 0.147855,
        -0.850591 -0.911098 0.126800,
        -0.649409 -0.911098 0.126800,
        -0.850591 -0.959444 0.057755,
        -0.649409 -0.959444 0.057755,
        0.830906 -0.814348 0.078740,
        0.830906 -0.814348 0.177165,
        0.669094 -0.959444 0.057755,
        0.669094 -0.878819 0.001300,
        0.669094 -1.007791 -0.011291,
        0.669094 -0.927165 -0.067745,
        0.669094 -1.010936 -0.014800,
        0.669094 -0.946040 -0.088800,
        0.669094 -1.014826 -0.017461,
        0.669094 -0.969378 -0.104765,
        0.669094 -1.019237 -0.019121,
        0.669094 -0.995843 -0.114726,
        0.669094 -1.023915 -0.019685,
        0.669094 -1.023915 -0.118110,
        0.669094 -1.210630 -0.019685,
        0.669094 -1.210630 -0.118110,
        0.649409 -0.878819 0.001300,
        0.649409 -0.830473 0.070346,
        0.850591 -0.830473 0.070346,
        0.850591 -0.878819 0.001300,
        0.850591 -0.814348 0.078740,
        0.850591 -0.819027 0.078176,
        0.649409 -0.819027 0.078176,
        0.649409 -0.814348 0.078740,
        0.850591 -0.827327 0.073855,
        0.649409 -0.827327 0.073855,
        0.850591 -0.823437 0.076516,
        0.649409 -0.823437 0.076516,
        0.649409 -0.814348 0.177165,
        0.649409 -0.842421 0.173781,
        0.850591 -0.842421 0.173781,
        0.850591 -0.814348 0.177165,
        0.649409 -0.868885 0.163820,
        0.850591 -0.868885 0.163820,
        0.649409 -0.892223 0.147855,
        0.850591 -0.892223 0.147855,
        0.649409 -0.911098 0.126800,
        0.850591 -0.911098 0.126800,
        0.649409 -0.959444 0.057755,
        0.850591 -0.959444 0.057755,
        -0.779528 -0.199556 -0.102362,
        -0.100394 -0.199556 -0.102362,
        -0.779528 0.100394 -0.102362,
        -0.838583 0.100394 -0.102362,
        -0.931102 0.045276 -0.102362,
        -0.931102 -0.045276 -0.102362,
        -0.838583 -0.100394 -0.102362,
        -0.779528 -0.100394 -0.102362,
        -0.196850 0.804381 -0.102362,
        -0.590551 0.804381 -0.102362,
        -0.881890 1.210630 0.000000,
        -0.964567 1.127953 0.000000,
        -0.964567 1.049213 0.000000,
        -0.720472 1.049213 0.000000,
        -0.590551 1.040602 0.000000,
        -0.196850 1.040602 0.000000,
        -0.100394 1.210630 0.000000,
        -1.009843 0.045276 0.000000,
        -1.009843 -0.045276 0.000000,
        -0.100394 1.210630 -0.102362,
        -0.881890 1.210630 -0.102362,
        -0.964567 1.127953 -0.102362,
        -0.964567 1.049213 -0.102362,
        -0.720472 1.049213 -0.102362,
        -0.720472 0.931102 -0.102362,
        -0.779528 0.931102 -0.102362,
        -1.009843 0.045276 -0.102362,
        -1.009843 -0.045276 -0.102362,
        -0.196850 1.040602 -0.102362,
        -0.590551 1.040602 -0.102362,
        0.100394 -0.199556 -0.102362,
        0.779528 -0.199556 -0.102362,
        0.779528 -0.100394 -0.102362,
        0.838583 -0.100394 -0.102362,
        0.931102 -0.045276 -0.102362,
        0.931102 0.045276 -0.102362,
        0.838583 0.100394 -0.102362,
        0.779528 0.100394 -0.102362,
        0.590551 0.804381 -0.102362,
        0.196850 0.804381 -0.102362,
        1.009843 -0.045276 0.000000,
        1.009843 0.045276 0.000000,
        0.964567 1.049213 0.000000,
        0.964567 1.127953 0.000000,
        0.720472 1.049213 0.000000,
        0.881890 1.210630 0.000000,
        0.100394 1.210630 0.000000,
        0.196850 1.040602 0.000000,
        0.590551 1.040602 0.000000,
        0.100394 1.210630 -0.102362,
        0.881890 1.210630 -0.102362,
        1.009843 -0.045276 -0.102362,
        1.009843 0.045276 -0.102362,
        0.779528 0.931102 -0.102362,
        0.720472 0.931102 -0.102362,
        0.720472 1.049213 -0.102362,
        0.964567 1.049213 -0.102362,
        0.964567 1.127953 -0.102362,
        0.590551 1.040602 -0.102362,
        0.196850 1.040602 -0.102362,
      ]
    }
    coordIndex [
      126, 102, 96, -1,
      96, 102, 95, -1,
      100, 101, 97, -1,
      97, 101, 127, -1,
      96, 97, 126, -1,
      126, 97, 127, -1,
      128, 129, 130, -1,
      130, 129, 131, -1,
      130, 131, 132, -1,
      132, 131, 133, -1,
      132, 133, 134, -1,
      134, 133, 135, -1,
      134, 135, 136, -1,
      136, 135, 137, -1,
      136, 137, 138, -1,
      138, 137, 139, -1,
      138, 139, 140, -1,
      140, 139, 141, -1,
      103, 105, 140, -1,
      140, 105, 138, -1,
      104, 103, 141, -1,
      141, 103, 140, -1,
      106, 104, 139, -1,
      139, 104, 141, -1,
      106, 139, 137, -1,
      106, 137, 108, -1,
      108, 137, 135, -1,
      108, 135, 110, -1,
      110, 135, 133, -1,
      110, 133, 112, -1,
      112, 133, 131, -1,
      112, 131, 114, -1,
      142, 143, 144, -1,
      144, 143, 116, -1,
      145, 144, 129, -1,
      129, 144, 116, -1,
      129, 116, 131, -1,
      131, 116, 114, -1,
      126, 146, 147, -1,
      126, 147, 102, -1,
      148, 102, 149, -1,
      149, 102, 147, -1,
      149, 147, 150, -1,
      150, 147, 151, -1,
      150, 151, 152, -1,
      152, 151, 153, -1,
      152, 153, 144, -1,
      144, 153, 142, -1,
      101, 154, 155, -1,
      156, 157, 127, -1,
      101, 155, 127, -1,
      127, 155, 156, -1,
      156, 155, 158, -1,
      156, 158, 159, -1,
      159, 158, 160, -1,
      159, 160, 161, -1,
      161, 160, 162, -1,
      161, 162, 163, -1,
      162, 164, 163, -1,
      163, 164, 128, -1,
      165, 163, 115, -1,
      115, 163, 128, -1,
      115, 128, 113, -1,
      113, 128, 130, -1,
      113, 130, 111, -1,
      111, 130, 132, -1,
      111, 132, 109, -1,
      109, 132, 134, -1,
      109, 134, 107, -1,
      107, 134, 136, -1,
      107, 136, 105, -1,
      105, 136, 138, -1,
      143, 165, 116, -1,
      116, 165, 115, -1,
      157, 146, 127, -1,
      127, 146, 126, -1,
      146, 157, 147, -1,
      147, 157, 156, -1,
      147, 156, 151, -1,
      151, 156, 159, -1,
      151, 159, 153, -1,
      153, 159, 161, -1,
      153, 161, 142, -1,
      142, 161, 163, -1,
      142, 163, 143, -1,
      143, 163, 165, -1,
      148, 154, 102, -1,
      102, 154, 101, -1,
      164, 145, 128, -1,
      128, 145, 129, -1,
      145, 164, 144, -1,
      144, 164, 162, -1,
      144, 162, 152, -1,
      152, 162, 160, -1,
      152, 160, 150, -1,
      150, 160, 158, -1,
      150, 158, 149, -1,
      149, 158, 155, -1,
      149, 155, 148, -1,
      148, 155, 154, -1,
      166, 48, 99, -1,
      99, 48, 46, -1,
      45, 47, 98, -1,
      98, 47, 167, -1,
      99, 98, 166, -1,
      166, 98, 167, -1,
      168, 169, 170, -1,
      170, 169, 171, -1,
      170, 171, 172, -1,
      172, 171, 173, -1,
      172, 173, 174, -1,
      174, 173, 175, -1,
      174, 175, 176, -1,
      176, 175, 177, -1,
      176, 177, 178, -1,
      178, 177, 179, -1,
      178, 179, 180, -1,
      180, 179, 181, -1,
      77, 79, 180, -1,
      180, 79, 178, -1,
      78, 77, 181, -1,
      181, 77, 180, -1,
      80, 78, 179, -1,
      179, 78, 181, -1,
      80, 179, 177, -1,
      80, 177, 82, -1,
      82, 177, 175, -1,
      82, 175, 84, -1,
      84, 175, 173, -1,
      84, 173, 86, -1,
      86, 173, 171, -1,
      86, 171, 88, -1,
      182, 183, 184, -1,
      184, 183, 90, -1,
      185, 184, 169, -1,
      169, 184, 90, -1,
      169, 90, 171, -1,
      171, 90, 88, -1,
      166, 186, 187, -1,
      188, 189, 48, -1,
      182, 184, 190, -1,
      190, 184, 191, -1,
      190, 191, 192, -1,
      192, 191, 193, -1,
      192, 193, 187, -1,
      187, 193, 188, -1,
      187, 188, 166, -1,
      166, 188, 48, -1,
      47, 194, 195, -1,
      196, 197, 167, -1,
      47, 195, 167, -1,
      167, 195, 196, -1,
      196, 195, 198, -1,
      196, 198, 199, -1,
      199, 198, 200, -1,
      199, 200, 201, -1,
      201, 200, 202, -1,
      201, 202, 203, -1,
      202, 204, 203, -1,
      203, 204, 168, -1,
      205, 203, 89, -1,
      89, 203, 168, -1,
      89, 168, 87, -1,
      87, 168, 170, -1,
      87, 170, 85, -1,
      85, 170, 172, -1,
      85, 172, 83, -1,
      83, 172, 174, -1,
      83, 174, 81, -1,
      81, 174, 176, -1,
      81, 176, 79, -1,
      79, 176, 178, -1,
      206, 44, 93, -1,
      93, 44, 42, -1,
      41, 43, 94, -1,
      94, 43, 207, -1,
      93, 94, 206, -1,
      206, 94, 207, -1,
      208, 209, 210, -1,
      210, 209, 211, -1,
      210, 211, 212, -1,
      212, 211, 213, -1,
      212, 213, 214, -1,
      214, 213, 215, -1,
      214, 215, 216, -1,
      216, 215, 217, -1,
      216, 217, 218, -1,
      218, 217, 219, -1,
      218, 219, 220, -1,
      220, 219, 221, -1,
      63, 65, 220, -1,
      220, 65, 218, -1,
      64, 63, 221, -1,
      221, 63, 220, -1,
      66, 64, 219, -1,
      219, 64, 221, -1,
      66, 219, 217, -1,
      66, 217, 68, -1,
      68, 217, 215, -1,
      68, 215, 70, -1,
      70, 215, 213, -1,
      70, 213, 72, -1,
      72, 213, 211, -1,
      72, 211, 74, -1,
      222, 223, 224, -1,
      224, 223, 76, -1,
      225, 224, 209, -1,
      209, 224, 76, -1,
      209, 76, 211, -1,
      211, 76, 74, -1,
      206, 226, 227, -1,
      206, 227, 44, -1,
      228, 44, 229, -1,
      229, 44, 227, -1,
      229, 227, 230, -1,
      230, 227, 231, -1,
      230, 231, 232, -1,
      232, 231, 233, -1,
      232, 233, 224, -1,
      224, 233, 222, -1,
      43, 234, 235, -1,
      236, 237, 207, -1,
      43, 235, 207, -1,
      207, 235, 236, -1,
      236, 235, 238, -1,
      236, 238, 239, -1,
      239, 238, 240, -1,
      239, 240, 241, -1,
      241, 240, 242, -1,
      241, 242, 243, -1,
      242, 244, 243, -1,
      243, 244, 208, -1,
      245, 243, 75, -1,
      75, 243, 208, -1,
      75, 208, 73, -1,
      73, 208, 210, -1,
      73, 210, 71, -1,
      71, 210, 212, -1,
      71, 212, 69, -1,
      69, 212, 214, -1,
      69, 214, 67, -1,
      67, 214, 216, -1,
      67, 216, 65, -1,
      65, 216, 218, -1,
      246, 40, 92, -1,
      92, 40, 38, -1,
      37, 39, 91, -1,
      91, 39, 247, -1,
      92, 91, 246, -1,
      246, 91, 247, -1,
      248, 249, 250, -1,
      250, 249, 251, -1,
      250, 251, 252, -1,
      252, 251, 253, -1,
      252, 253, 254, -1,
      254, 253, 255, -1,
      254, 255, 256, -1,
      256, 255, 257, -1,
      256, 257, 258, -1,
      258, 257, 259, -1,
      258, 259, 260, -1,
      260, 259, 261, -1,
      49, 51, 260, -1,
      260, 51, 258, -1,
      50, 49, 261, -1,
      261, 49, 260, -1,
      52, 50, 259, -1,
      259, 50, 261, -1,
      52, 259, 257, -1,
      52, 257, 54, -1,
      54, 257, 255, -1,
      54, 255, 56, -1,
      56, 255, 253, -1,
      56, 253, 58, -1,
      58, 253, 251, -1,
      58, 251, 60, -1,
      249, 262, 263, -1,
      264, 265, 62, -1,
      60, 251, 62, -1,
      62, 251, 249, -1,
      62, 249, 264, -1,
      264, 249, 263, -1,
      246, 266, 267, -1,
      268, 269, 40, -1,
      264, 263, 270, -1,
      270, 263, 271, -1,
      270, 271, 272, -1,
      272, 271, 273, -1,
      272, 273, 267, -1,
      267, 273, 268, -1,
      267, 268, 246, -1,
      246, 268, 40, -1,
      39, 274, 275, -1,
      276, 277, 247, -1,
      39, 275, 247, -1,
      247, 275, 276, -1,
      276, 275, 278, -1,
      276, 278, 279, -1,
      279, 278, 280, -1,
      279, 280, 281, -1,
      281, 280, 282, -1,
      281, 282, 283, -1,
      282, 284, 283, -1,
      283, 284, 248, -1,
      285, 283, 61, -1,
      61, 283, 248, -1,
      61, 248, 59, -1,
      59, 248, 250, -1,
      59, 250, 57, -1,
      57, 250, 252, -1,
      57, 252, 55, -1,
      55, 252, 254, -1,
      55, 254, 53, -1,
      53, 254, 256, -1,
      53, 256, 51, -1,
      51, 256, 258, -1,
      183, 205, 90, -1,
      90, 205, 89, -1,
      197, 186, 167, -1,
      167, 186, 166, -1,
      186, 197, 187, -1,
      187, 197, 196, -1,
      187, 196, 192, -1,
      192, 196, 199, -1,
      192, 199, 190, -1,
      190, 199, 201, -1,
      190, 201, 182, -1,
      182, 201, 203, -1,
      182, 203, 183, -1,
      183, 203, 205, -1,
      223, 245, 76, -1,
      76, 245, 75, -1,
      237, 226, 207, -1,
      207, 226, 206, -1,
      226, 237, 227, -1,
      227, 237, 236, -1,
      227, 236, 231, -1,
      231, 236, 239, -1,
      231, 239, 233, -1,
      233, 239, 241, -1,
      233, 241, 222, -1,
      222, 241, 243, -1,
      222, 243, 223, -1,
      223, 243, 245, -1,
      265, 285, 62, -1,
      62, 285, 61, -1,
      277, 266, 247, -1,
      247, 266, 246, -1,
      266, 277, 267, -1,
      267, 277, 276, -1,
      267, 276, 272, -1,
      272, 276, 279, -1,
      272, 279, 270, -1,
      270, 279, 281, -1,
      270, 281, 264, -1,
      264, 281, 283, -1,
      264, 283, 265, -1,
      265, 283, 285, -1,
      189, 194, 48, -1,
      48, 194, 47, -1,
      204, 185, 168, -1,
      168, 185, 169, -1,
      185, 204, 184, -1,
      184, 204, 202, -1,
      184, 202, 191, -1,
      191, 202, 200, -1,
      191, 200, 193, -1,
      193, 200, 198, -1,
      193, 198, 188, -1,
      188, 198, 195, -1,
      188, 195, 189, -1,
      189, 195, 194, -1,
      228, 234, 44, -1,
      44, 234, 43, -1,
      244, 225, 208, -1,
      208, 225, 209, -1,
      225, 244, 224, -1,
      224, 244, 242, -1,
      224, 242, 232, -1,
      232, 242, 240, -1,
      232, 240, 230, -1,
      230, 240, 238, -1,
      230, 238, 229, -1,
      229, 238, 235, -1,
      229, 235, 228, -1,
      228, 235, 234, -1,
      269, 274, 40, -1,
      40, 274, 39, -1,
      284, 262, 248, -1,
      248, 262, 249, -1,
      262, 284, 263, -1,
      263, 284, 282, -1,
      263, 282, 271, -1,
      271, 282, 280, -1,
      271, 280, 273, -1,
      273, 280, 278, -1,
      273, 278, 268, -1,
      268, 278, 275, -1,
      268, 275, 269, -1,
      269, 275, 274, -1,
      286, 287, 11, -1,
      11, 287, 0, -1,
      288, 289, 33, -1,
      33, 289, 31, -1,
      289, 290, 31, -1,
      31, 290, 32, -1,
      291, 292, 13, -1,
      13, 292, 9, -1,
      292, 293, 9, -1,
      9, 293, 10, -1,
      293, 286, 10, -1,
      10, 286, 11, -1,
      36, 294, 35, -1,
      35, 294, 295, -1,
      296, 297, 298, -1,
      125, 28, 299, -1,
      299, 28, 300, -1,
      27, 30, 301, -1,
      301, 30, 302, -1,
      301, 302, 300, -1,
      300, 302, 296, -1,
      300, 296, 299, -1,
      299, 296, 298, -1,
      24, 303, 119, -1,
      119, 303, 304, -1,
      0, 287, 1, -1,
      1, 287, 305, -1,
      1, 305, 30, -1,
      30, 305, 302, -1,
      306, 296, 305, -1,
      305, 296, 302, -1,
      307, 297, 306, -1,
      306, 297, 296, -1,
      308, 298, 307, -1,
      307, 298, 297, -1,
      309, 299, 308, -1,
      308, 299, 298, -1,
      310, 125, 309, -1,
      309, 125, 299, -1,
      311, 120, 310, -1,
      310, 120, 125, -1,
      288, 33, 311, -1,
      311, 33, 34, -1,
      311, 34, 120, -1,
      32, 290, 23, -1,
      23, 290, 312, -1,
      23, 312, 24, -1,
      24, 312, 303, -1,
      313, 304, 312, -1,
      312, 304, 303, -1,
      291, 13, 12, -1,
      119, 304, 12, -1,
      12, 304, 313, -1,
      12, 313, 291, -1,
      294, 36, 25, -1,
      27, 301, 25, -1,
      25, 301, 314, -1,
      25, 314, 294, -1,
      314, 301, 315, -1,
      315, 301, 300, -1,
      35, 295, 26, -1,
      26, 295, 315, -1,
      26, 315, 28, -1,
      28, 315, 300, -1,
      309, 308, 307, -1,
      286, 293, 287, -1,
      287, 293, 294, -1,
      287, 294, 305, -1,
      305, 294, 314, -1,
      305, 314, 306, -1,
      306, 314, 315, -1,
      313, 312, 291, -1,
      291, 312, 290, -1,
      291, 290, 292, -1,
      292, 290, 289, -1,
      292, 289, 293, -1,
      293, 289, 288, -1,
      293, 288, 294, -1,
      294, 288, 295, -1,
      288, 311, 295, -1,
      295, 311, 310, -1,
      295, 310, 315, -1,
      315, 310, 309, -1,
      315, 309, 306, -1,
      306, 309, 307, -1,
      316, 317, 8, -1,
      8, 317, 6, -1,
      317, 318, 6, -1,
      6, 318, 5, -1,
      318, 319, 5, -1,
      5, 319, 4, -1,
      319, 320, 4, -1,
      4, 320, 2, -1,
      321, 322, 121, -1,
      121, 322, 122, -1,
      322, 323, 122, -1,
      122, 323, 123, -1,
      22, 324, 21, -1,
      21, 324, 325, -1,
      326, 327, 20, -1,
      20, 327, 117, -1,
      328, 329, 330, -1,
      330, 329, 331, -1,
      29, 17, 332, -1,
      332, 17, 333, -1,
      332, 333, 334, -1,
      16, 124, 334, -1,
      334, 124, 330, -1,
      334, 330, 332, -1,
      332, 330, 331, -1,
      335, 332, 336, -1,
      336, 332, 331, -1,
      316, 8, 7, -1,
      29, 332, 7, -1,
      7, 332, 335, -1,
      7, 335, 316, -1,
      2, 320, 3, -1,
      3, 320, 337, -1,
      3, 337, 20, -1,
      20, 337, 326, -1,
      338, 327, 337, -1,
      337, 327, 326, -1,
      321, 121, 118, -1,
      117, 327, 118, -1,
      118, 327, 338, -1,
      118, 338, 321, -1,
      123, 323, 18, -1,
      18, 323, 339, -1,
      18, 339, 19, -1,
      340, 124, 339, -1,
      339, 124, 19, -1,
      341, 330, 340, -1,
      340, 330, 124, -1,
      342, 328, 341, -1,
      341, 328, 330, -1,
      343, 329, 342, -1,
      342, 329, 328, -1,
      336, 331, 343, -1,
      343, 331, 329, -1,
      324, 22, 14, -1,
      16, 334, 14, -1,
      14, 334, 344, -1,
      14, 344, 324, -1,
      344, 334, 345, -1,
      345, 334, 333, -1,
      21, 325, 15, -1,
      15, 325, 345, -1,
      15, 345, 17, -1,
      17, 345, 333, -1,
      344, 341, 324, -1,
      324, 341, 340, -1,
      336, 343, 342, -1,
      325, 316, 335, -1,
      342, 341, 336, -1,
      336, 341, 344, -1,
      336, 344, 335, -1,
      335, 344, 345, -1,
      335, 345, 325, -1,
      340, 339, 324, -1,
      324, 339, 323, -1,
      324, 323, 325, -1,
      338, 337, 321, -1,
      321, 337, 320, -1,
      321, 320, 322, -1,
      322, 320, 319, -1,
      322, 319, 323, -1,
      323, 319, 318, -1,
      323, 318, 325, -1,
      325, 318, 317, -1,
      325, 317, 316, -1,
    ]
  }
}

Shape {
  appearance Appearance {
    material Material {
      diffuseColor 0.0000 0.0000 0.0000
      specularColor 0.0000 0.0000 0.0000
      ambientIntensity 0.2
      transparency 0.0000
      shininess 0.5
    }
  }
  geometry IndexedFaceSet {
    ccw TRUE
    solid FALSE
    coord DEF co Coordinate {
      point [
        -0.021340 -0.465072 -0.098425,
        0.020911 -0.465072 -0.098425,
        -0.019419 -0.394974 -0.098425,
        -0.021340 -0.456430 -0.098425,
        -0.019419 -0.386331 -0.098425,
        0.036275 -0.460991 -0.098425,
        0.036275 -0.452348 -0.098425,
        0.020911 -0.386331 -0.098425,
        0.010348 -0.429543 -0.098425,
        0.010348 -0.456430 -0.098425,
        -0.017499 -0.429543 -0.098425,
        -0.017499 -0.420900 -0.098425,
        0.010348 -0.420900 -0.098425,
        0.010348 -0.394974 -0.098425,
        0.062468 -0.394884 -0.098425,
        0.068361 -0.397011 -0.098425,
        0.037686 -0.453130 -0.098425,
        0.073811 -0.400657 -0.098425,
        0.078567 -0.405907 -0.098425,
        0.084287 -0.426542 -0.098425,
        0.083490 -0.435066 -0.098425,
        0.081350 -0.441839 -0.098425,
        0.063829 -0.456566 -0.098425,
        0.056485 -0.457390 -0.098425,
        0.069567 -0.454454 -0.098425,
        0.074399 -0.451196 -0.098425,
        0.078094 -0.447298 -0.098425,
        0.046033 -0.456230 -0.098425,
        0.141902 -0.465072 -0.098425,
        0.062571 -0.465552 -0.098425,
        0.101572 -0.465072 -0.098425,
        0.067644 -0.465026 -0.098425,
        0.075276 -0.462399 -0.098425,
        0.081813 -0.411986 -0.098425,
        0.083911 -0.420415 -0.098425,
        0.086079 -0.399709 -0.098425,
        0.078970 -0.392872 -0.098425,
        0.081609 -0.458354 -0.098425,
        0.087524 -0.452128 -0.098425,
        0.101572 -0.456430 -0.098425,
        0.091719 -0.444641 -0.098425,
        0.131339 -0.456430 -0.098425,
        0.094088 -0.436306 -0.098425,
        0.094850 -0.427187 -0.098425,
        0.131339 -0.386331 -0.098425,
        0.093717 -0.415993 -0.098425,
        0.090694 -0.407070 -0.098425,
        0.071491 -0.388567 -0.098425,
        0.062713 -0.386017 -0.098425,
        0.054805 -0.385371 -0.098425,
        0.045378 -0.386022 -0.098425,
        0.036275 -0.388492 -0.098425,
        0.036275 -0.399055 -0.098425,
        0.045144 -0.395257 -0.098425,
        0.054715 -0.394013 -0.098425,
        -0.058115 -0.465072 -0.098425,
        -0.036704 -0.465072 -0.098425,
        -0.036704 -0.386331 -0.098425,
        -0.105842 -0.465072 -0.098425,
        -0.096148 -0.443491 -0.098425,
        -0.091633 -0.450533 -0.098425,
        -0.165377 -0.465072 -0.098425,
        -0.176900 -0.465072 -0.098425,
        -0.146172 -0.386331 -0.098425,
        -0.085152 -0.456739 -0.098425,
        -0.076930 -0.461517 -0.098425,
        -0.067857 -0.464221 -0.098425,
        -0.117365 -0.465072 -0.098425,
        -0.124881 -0.442986 -0.098425,
        -0.157410 -0.442986 -0.098425,
        -0.058924 -0.386331 -0.098425,
        -0.070300 -0.387548 -0.098425,
        -0.079513 -0.390783 -0.098425,
        -0.088083 -0.396526 -0.098425,
        -0.088166 -0.396598 -0.098425,
        -0.093734 -0.402772 -0.098425,
        -0.135609 -0.386331 -0.098425,
        -0.097393 -0.409544 -0.098425,
        -0.099508 -0.417302 -0.098425,
        -0.100080 -0.424711 -0.098425,
        -0.098975 -0.435249 -0.098425,
        0.044668 -0.464437 -0.098425,
        0.052624 -0.465552 -0.098425,
        0.055787 -0.465995 -0.098425,
        0.057940 -0.466032 -0.098425,
        0.141902 -0.386331 -0.098425,
        -0.146172 -0.386331 -0.098031,
        -0.176900 -0.465072 -0.098031,
        -0.165377 -0.465072 -0.098031,
        -0.157410 -0.442986 -0.098031,
        -0.124881 -0.442986 -0.098031,
        -0.117365 -0.465072 -0.098031,
        -0.105842 -0.465072 -0.098031,
        -0.135609 -0.386331 -0.098031,
        -0.127537 -0.434344 -0.098031,
        -0.153869 -0.434344 -0.098031,
        -0.139285 -0.401456 -0.098031,
        -0.140043 -0.398724 -0.098031,
        -0.140546 -0.395934 -0.098031,
        -0.140800 -0.395934 -0.098031,
        -0.141314 -0.398716 -0.098031,
        -0.142016 -0.401456 -0.098031,
        -0.127537 -0.434344 -0.098425,
        -0.153869 -0.434344 -0.098425,
        -0.139285 -0.401456 -0.098425,
        -0.140043 -0.398724 -0.098425,
        -0.140546 -0.395934 -0.098425,
        -0.140800 -0.395934 -0.098425,
        -0.141314 -0.398716 -0.098425,
        -0.142016 -0.401456 -0.098425,
        -0.058115 -0.465072 -0.098031,
        -0.036704 -0.465072 -0.098031,
        -0.036704 -0.386331 -0.098031,
        -0.058924 -0.386331 -0.098031,
        -0.100080 -0.424711 -0.098031,
        -0.099508 -0.417302 -0.098031,
        -0.097393 -0.409544 -0.098031,
        -0.093734 -0.402772 -0.098031,
        -0.088166 -0.396598 -0.098031,
        -0.088083 -0.396526 -0.098031,
        -0.079513 -0.390783 -0.098031,
        -0.070300 -0.387548 -0.098031,
        -0.067857 -0.464221 -0.098031,
        -0.076930 -0.461517 -0.098031,
        -0.085152 -0.456739 -0.098031,
        -0.091633 -0.450533 -0.098031,
        -0.096148 -0.443491 -0.098031,
        -0.098975 -0.435249 -0.098031,
        -0.084275 -0.406015 -0.098031,
        -0.080450 -0.401955 -0.098031,
        -0.074699 -0.398239 -0.098031,
        -0.068199 -0.395965 -0.098031,
        -0.058880 -0.394974 -0.098031,
        -0.047267 -0.394974 -0.098031,
        -0.047267 -0.456430 -0.098031,
        -0.058444 -0.456430 -0.098031,
        -0.066752 -0.455656 -0.098031,
        -0.073378 -0.453588 -0.098031,
        -0.078748 -0.450399 -0.098031,
        -0.083164 -0.446037 -0.098031,
        -0.086485 -0.440608 -0.098031,
        -0.088794 -0.433207 -0.098031,
        -0.089517 -0.424936 -0.098031,
        -0.088848 -0.417100 -0.098031,
        -0.087010 -0.410872 -0.098031,
        -0.058880 -0.394974 -0.098425,
        -0.047267 -0.394974 -0.098425,
        -0.068199 -0.395965 -0.098425,
        -0.074699 -0.398239 -0.098425,
        -0.080450 -0.401955 -0.098425,
        -0.084275 -0.406015 -0.098425,
        -0.087010 -0.410872 -0.098425,
        -0.088848 -0.417100 -0.098425,
        -0.089517 -0.424936 -0.098425,
        -0.088794 -0.433207 -0.098425,
        -0.086485 -0.440608 -0.098425,
        -0.083164 -0.446037 -0.098425,
        -0.078748 -0.450399 -0.098425,
        -0.073378 -0.453588 -0.098425,
        -0.066752 -0.455656 -0.098425,
        -0.058444 -0.456430 -0.098425,
        -0.047267 -0.456430 -0.098425,
        -0.021340 -0.456430 -0.098031,
        -0.021340 -0.465072 -0.098031,
        0.020911 -0.465072 -0.098031,
        0.020911 -0.386331 -0.098031,
        -0.019419 -0.386331 -0.098031,
        -0.019419 -0.394974 -0.098031,
        0.010348 -0.394974 -0.098031,
        0.010348 -0.420900 -0.098031,
        -0.017499 -0.420900 -0.098031,
        -0.017499 -0.429543 -0.098031,
        0.010348 -0.429543 -0.098031,
        0.010348 -0.456430 -0.098031,
        0.036275 -0.452348 -0.098031,
        0.036275 -0.460991 -0.098031,
        0.044668 -0.464437 -0.098031,
        0.057940 -0.466032 -0.098031,
        0.055787 -0.465995 -0.098031,
        0.067644 -0.465026 -0.098031,
        0.075276 -0.462399 -0.098031,
        0.081609 -0.458354 -0.098031,
        0.087524 -0.452128 -0.098031,
        0.091719 -0.444641 -0.098031,
        0.094088 -0.436306 -0.098031,
        0.094850 -0.427187 -0.098031,
        0.054805 -0.385371 -0.098031,
        0.062713 -0.386017 -0.098031,
        0.071491 -0.388567 -0.098031,
        0.078970 -0.392872 -0.098031,
        0.086079 -0.399709 -0.098031,
        0.090694 -0.407070 -0.098031,
        0.093717 -0.415993 -0.098031,
        0.036275 -0.388492 -0.098031,
        0.045378 -0.386022 -0.098031,
        0.036275 -0.399055 -0.098031,
        0.054715 -0.394013 -0.098031,
        0.045144 -0.395257 -0.098031,
        0.084287 -0.426542 -0.098031,
        0.083911 -0.420415 -0.098031,
        0.081813 -0.411986 -0.098031,
        0.078567 -0.405907 -0.098031,
        0.073811 -0.400657 -0.098031,
        0.068361 -0.397011 -0.098031,
        0.062468 -0.394884 -0.098031,
        0.056485 -0.457390 -0.098031,
        0.063829 -0.456566 -0.098031,
        0.069567 -0.454454 -0.098031,
        0.074399 -0.451196 -0.098031,
        0.078094 -0.447298 -0.098031,
        0.081350 -0.441839 -0.098031,
        0.083490 -0.435066 -0.098031,
        0.037686 -0.453130 -0.098031,
        0.046033 -0.456230 -0.098031,
        0.101572 -0.456430 -0.098031,
        0.101572 -0.465072 -0.098031,
        0.141902 -0.465072 -0.098031,
        0.141902 -0.386331 -0.098031,
        0.131339 -0.386331 -0.098031,
        0.131339 -0.456430 -0.098031,
      ]
    }
    coordIndex [
      86, 87, 63, -1,
      63, 87, 62, -1,
      87, 88, 62, -1,
      62, 88, 61, -1,
      88, 89, 61, -1,
      61, 89, 69, -1,
      89, 90, 69, -1,
      69, 90, 68, -1,
      90, 91, 68, -1,
      68, 91, 67, -1,
      91, 92, 67, -1,
      67, 92, 58, -1,
      92, 93, 58, -1,
      58, 93, 76, -1,
      93, 86, 76, -1,
      76, 86, 63, -1,
      94, 90, 95, -1,
      95, 90, 89, -1,
      96, 93, 94, -1,
      94, 93, 92, -1,
      94, 92, 90, -1,
      90, 92, 91, -1,
      96, 97, 93, -1,
      93, 97, 98, -1,
      93, 98, 86, -1,
      86, 98, 99, -1,
      86, 99, 100, -1,
      100, 101, 86, -1,
      86, 101, 95, -1,
      86, 95, 87, -1,
      87, 95, 89, -1,
      87, 89, 88, -1,
      94, 95, 102, -1,
      102, 95, 103, -1,
      96, 94, 104, -1,
      104, 94, 102, -1,
      96, 104, 105, -1,
      96, 105, 97, -1,
      97, 105, 106, -1,
      97, 106, 98, -1,
      99, 98, 107, -1,
      107, 98, 106, -1,
      99, 107, 108, -1,
      99, 108, 100, -1,
      100, 108, 109, -1,
      100, 109, 101, -1,
      95, 101, 103, -1,
      103, 101, 109, -1,
      110, 111, 55, -1,
      55, 111, 56, -1,
      111, 112, 56, -1,
      56, 112, 57, -1,
      112, 113, 57, -1,
      57, 113, 70, -1,
      114, 79, 78, -1,
      114, 78, 115, -1,
      115, 78, 77, -1,
      115, 77, 116, -1,
      116, 77, 75, -1,
      116, 75, 117, -1,
      117, 75, 74, -1,
      117, 74, 118, -1,
      118, 74, 73, -1,
      118, 73, 119, -1,
      119, 73, 72, -1,
      119, 72, 120, -1,
      120, 72, 71, -1,
      120, 71, 121, -1,
      121, 71, 70, -1,
      121, 70, 113, -1,
      110, 55, 66, -1,
      110, 66, 122, -1,
      122, 66, 65, -1,
      122, 65, 123, -1,
      123, 65, 64, -1,
      123, 64, 124, -1,
      124, 64, 60, -1,
      124, 60, 125, -1,
      125, 60, 59, -1,
      125, 59, 126, -1,
      126, 59, 80, -1,
      126, 80, 127, -1,
      127, 80, 79, -1,
      127, 79, 114, -1,
      116, 117, 128, -1,
      128, 117, 118, -1,
      128, 118, 129, -1,
      129, 118, 119, -1,
      129, 119, 130, -1,
      130, 119, 120, -1,
      130, 120, 131, -1,
      131, 120, 121, -1,
      131, 121, 132, -1,
      132, 121, 113, -1,
      132, 113, 133, -1,
      133, 113, 112, -1,
      133, 112, 134, -1,
      134, 112, 111, -1,
      134, 111, 135, -1,
      135, 111, 110, -1,
      135, 110, 136, -1,
      136, 110, 122, -1,
      136, 122, 137, -1,
      137, 122, 123, -1,
      137, 123, 138, -1,
      138, 123, 124, -1,
      138, 124, 139, -1,
      139, 124, 125, -1,
      139, 125, 140, -1,
      140, 125, 126, -1,
      140, 126, 141, -1,
      141, 126, 127, -1,
      141, 127, 142, -1,
      142, 127, 114, -1,
      142, 114, 143, -1,
      143, 114, 115, -1,
      143, 115, 144, -1,
      144, 115, 116, -1,
      144, 116, 128, -1,
      132, 133, 145, -1,
      145, 133, 146, -1,
      132, 145, 147, -1,
      132, 147, 131, -1,
      131, 147, 148, -1,
      131, 148, 130, -1,
      130, 148, 149, -1,
      130, 149, 129, -1,
      129, 149, 150, -1,
      129, 150, 128, -1,
      128, 150, 151, -1,
      128, 151, 144, -1,
      144, 151, 152, -1,
      144, 152, 143, -1,
      143, 152, 153, -1,
      143, 153, 142, -1,
      142, 153, 154, -1,
      142, 154, 141, -1,
      141, 154, 155, -1,
      141, 155, 140, -1,
      140, 155, 156, -1,
      140, 156, 139, -1,
      139, 156, 157, -1,
      139, 157, 138, -1,
      138, 157, 158, -1,
      138, 158, 137, -1,
      137, 158, 159, -1,
      137, 159, 136, -1,
      136, 159, 160, -1,
      136, 160, 135, -1,
      134, 135, 161, -1,
      161, 135, 160, -1,
      133, 134, 146, -1,
      146, 134, 161, -1,
      162, 163, 3, -1,
      3, 163, 0, -1,
      163, 164, 0, -1,
      0, 164, 1, -1,
      164, 165, 1, -1,
      1, 165, 7, -1,
      165, 166, 7, -1,
      7, 166, 4, -1,
      166, 167, 4, -1,
      4, 167, 2, -1,
      167, 168, 2, -1,
      2, 168, 13, -1,
      168, 169, 13, -1,
      13, 169, 12, -1,
      169, 170, 12, -1,
      12, 170, 11, -1,
      170, 171, 11, -1,
      11, 171, 10, -1,
      171, 172, 10, -1,
      10, 172, 8, -1,
      172, 173, 8, -1,
      8, 173, 9, -1,
      173, 162, 9, -1,
      9, 162, 3, -1,
      164, 163, 162, -1,
      162, 173, 164, -1,
      164, 173, 172, -1,
      164, 172, 165, -1,
      167, 166, 168, -1,
      168, 166, 165, -1,
      168, 165, 169, -1,
      169, 165, 172, -1,
      169, 172, 170, -1,
      170, 172, 171, -1,
      174, 175, 6, -1,
      6, 175, 5, -1,
      5, 175, 176, -1,
      177, 84, 83, -1,
      177, 83, 178, -1,
      178, 83, 82, -1,
      178, 82, 176, -1,
      176, 82, 81, -1,
      176, 81, 5, -1,
      84, 177, 29, -1,
      29, 177, 179, -1,
      29, 179, 31, -1,
      31, 179, 180, -1,
      31, 180, 32, -1,
      32, 180, 181, -1,
      32, 181, 37, -1,
      37, 181, 182, -1,
      37, 182, 38, -1,
      38, 182, 183, -1,
      38, 183, 40, -1,
      40, 183, 184, -1,
      40, 184, 42, -1,
      42, 184, 185, -1,
      42, 185, 43, -1,
      186, 49, 48, -1,
      186, 48, 187, -1,
      187, 48, 47, -1,
      187, 47, 188, -1,
      188, 47, 36, -1,
      188, 36, 189, -1,
      189, 36, 35, -1,
      189, 35, 190, -1,
      190, 35, 46, -1,
      190, 46, 191, -1,
      191, 46, 45, -1,
      191, 45, 192, -1,
      192, 45, 43, -1,
      192, 43, 185, -1,
      193, 51, 50, -1,
      193, 50, 194, -1,
      194, 50, 49, -1,
      194, 49, 186, -1,
      193, 195, 51, -1,
      51, 195, 52, -1,
      196, 54, 53, -1,
      196, 53, 197, -1,
      197, 53, 52, -1,
      197, 52, 195, -1,
      198, 19, 34, -1,
      198, 34, 199, -1,
      199, 34, 33, -1,
      199, 33, 200, -1,
      200, 33, 18, -1,
      200, 18, 201, -1,
      201, 18, 17, -1,
      201, 17, 202, -1,
      202, 17, 15, -1,
      202, 15, 203, -1,
      203, 15, 14, -1,
      203, 14, 204, -1,
      204, 14, 54, -1,
      204, 54, 196, -1,
      205, 23, 22, -1,
      205, 22, 206, -1,
      206, 22, 24, -1,
      206, 24, 207, -1,
      207, 24, 25, -1,
      207, 25, 208, -1,
      208, 25, 26, -1,
      208, 26, 209, -1,
      209, 26, 21, -1,
      209, 21, 210, -1,
      210, 21, 20, -1,
      210, 20, 211, -1,
      211, 20, 19, -1,
      211, 19, 198, -1,
      174, 6, 16, -1,
      174, 16, 212, -1,
      212, 16, 27, -1,
      212, 27, 213, -1,
      213, 27, 23, -1,
      213, 23, 205, -1,
      206, 177, 205, -1,
      205, 177, 178, -1,
      205, 178, 213, -1,
      213, 178, 176, -1,
      213, 176, 212, -1,
      212, 176, 175, -1,
      212, 175, 174, -1,
      195, 193, 197, -1,
      197, 193, 194, -1,
      197, 194, 196, -1,
      196, 194, 186, -1,
      196, 186, 204, -1,
      204, 186, 187, -1,
      204, 187, 203, -1,
      203, 187, 188, -1,
      203, 188, 202, -1,
      202, 188, 189, -1,
      202, 189, 201, -1,
      201, 189, 190, -1,
      201, 190, 200, -1,
      200, 190, 191, -1,
      200, 191, 199, -1,
      199, 191, 192, -1,
      199, 192, 198, -1,
      198, 192, 185, -1,
      198, 185, 211, -1,
      211, 185, 184, -1,
      211, 184, 210, -1,
      210, 184, 183, -1,
      210, 183, 209, -1,
      209, 183, 182, -1,
      209, 182, 208, -1,
      208, 182, 181, -1,
      208, 181, 207, -1,
      207, 181, 180, -1,
      207, 180, 206, -1,
      206, 180, 179, -1,
      206, 179, 177, -1,
      214, 215, 39, -1,
      39, 215, 30, -1,
      215, 216, 30, -1,
      30, 216, 28, -1,
      216, 217, 28, -1,
      28, 217, 85, -1,
      217, 218, 85, -1,
      85, 218, 44, -1,
      218, 219, 44, -1,
      44, 219, 41, -1,
      219, 214, 41, -1,
      41, 214, 39, -1,
      218, 217, 219, -1,
      219, 217, 216, -1,
      219, 216, 214, -1,
      214, 216, 215, -1,
    ]
  }
}

Shape {
  appearance Appearance {
    material Material {
      diffuseColor 0.2510 0.2510 0.2510
      specularColor 0.1255 0.1255 0.1255
      ambientIntensity 0.2
      transparency 0.0000
      shininess 0.5
    }
  }
  geometry IndexedFaceSet {
    ccw TRUE
    solid FALSE
    coord DEF co Coordinate {
      point [
        -0.916735 -0.780759 -0.098425,
        -0.952976 -0.756570 -0.098425,
        -0.954622 -0.751709 -0.098425,
        -0.926906 -0.779425 -0.098425,
        -0.931767 -0.777779 -0.098425,
        -0.950711 -0.761172 -0.098425,
        -0.936369 -0.775514 -0.098425,
        -0.940633 -0.772668 -0.098425,
        -0.947865 -0.765436 -0.098425,
        -0.944487 -0.769290 -0.098425,
        -0.955956 -0.741539 -0.098425,
        0.916735 -0.780759 -0.098425,
        0.955956 -0.741539 -0.098425,
        0.954622 -0.751709 -0.098425,
        0.931767 -0.777779 -0.098425,
        0.926906 -0.779425 -0.098425,
        0.952976 -0.756570 -0.098425,
        0.950711 -0.761172 -0.098425,
        0.936369 -0.775514 -0.098425,
        0.947865 -0.765436 -0.098425,
        0.940633 -0.772668 -0.098425,
        0.944487 -0.769290 -0.098425,
        0.916735 0.922491 -0.098425,
        0.925347 0.931102 0.000000,
        0.964567 -0.750150 -0.000000,
        -0.955956 0.883271 -0.098425,
        -0.964567 0.891882 0.000000,
        -0.936369 0.917246 -0.098425,
        -0.931767 0.919512 -0.098425,
        -0.952976 0.898302 -0.098425,
        -0.916735 0.922491 -0.098425,
        -0.954622 0.893441 -0.098425,
        -0.926906 0.921157 -0.098425,
        -0.950711 0.902904 -0.098425,
        -0.947865 0.907168 -0.098425,
        -0.940633 0.914400 -0.098425,
        -0.944487 0.911022 -0.098425,
        -0.900246 -0.764270 0.286896,
        0.900246 -0.764270 0.286896,
        0.925347 -0.789370 0.000000,
        -0.925347 -0.789370 -0.000000,
        0.964567 0.891882 -0.000000,
        0.955956 0.883271 -0.098425,
        -0.964567 -0.750150 -0.000000,
        -0.925347 0.931102 0.000000,
        0.952976 0.898302 -0.098425,
        0.954622 0.893441 -0.098425,
        0.926906 0.921157 -0.098425,
        0.931767 0.919512 -0.098425,
        0.950711 0.902904 -0.098425,
        0.936369 0.917246 -0.098425,
        0.940633 0.914400 -0.098425,
        0.947865 0.907168 -0.098425,
        0.944487 0.911022 -0.098425,
        0.939467 0.866782 0.286896,
        0.939467 -0.725050 0.286896,
        0.900246 0.906002 0.286896,
        -0.900246 0.906002 0.286896,
        -0.939467 -0.725050 0.286896,
        -0.939467 0.866782 0.286896,
        0.900246 -0.725050 0.322835,
        -0.900246 0.866782 0.322835,
        -0.900246 -0.725050 0.322835,
        0.900246 0.866782 0.322835,
        -0.127537 -0.434344 -0.098425,
        -0.153869 -0.434344 -0.098425,
        -0.139285 -0.401456 -0.098425,
        -0.140043 -0.398724 -0.098425,
        -0.140546 -0.395934 -0.098425,
        -0.140800 -0.395934 -0.098425,
        -0.141314 -0.398716 -0.098425,
        -0.142016 -0.401456 -0.098425,
        -0.058880 -0.394974 -0.098425,
        -0.047267 -0.394974 -0.098425,
        -0.068199 -0.395965 -0.098425,
        -0.074699 -0.398239 -0.098425,
        -0.080450 -0.401955 -0.098425,
        -0.084275 -0.406015 -0.098425,
        -0.087010 -0.410872 -0.098425,
        -0.088848 -0.417100 -0.098425,
        -0.089517 -0.424936 -0.098425,
        -0.088794 -0.433207 -0.098425,
        -0.086485 -0.440608 -0.098425,
        -0.083164 -0.446037 -0.098425,
        -0.078748 -0.450399 -0.098425,
        -0.073378 -0.453588 -0.098425,
        -0.066752 -0.455656 -0.098425,
        -0.058444 -0.456430 -0.098425,
        -0.047267 -0.456430 -0.098425,
        -0.935517 0.929769 0.000000,
        -0.940378 0.928123 0.000000,
        -0.944980 0.925857 0.000000,
        -0.949244 0.923012 0.000000,
        -0.953098 0.919633 0.000000,
        -0.956476 0.915779 0.000000,
        -0.959322 0.911515 0.000000,
        -0.961587 0.906913 -0.000000,
        -0.963233 0.902052 0.000000,
        -0.938067 0.876885 0.287657,
        -0.938055 0.876912 0.287659,
        -0.934113 0.886307 0.288136,
        -0.934098 0.886326 0.288136,
        -0.927875 0.894410 0.288299,
        -0.919791 0.900634 0.288136,
        -0.919771 0.900649 0.288136,
        -0.910377 0.904591 0.287659,
        -0.910350 0.904602 0.287657,
        -0.963233 -0.760320 0.000000,
        -0.961587 -0.765181 0.000000,
        -0.959322 -0.769783 0.000000,
        -0.956476 -0.774047 0.000000,
        -0.953098 -0.777901 0.000000,
        -0.949244 -0.781279 0.000000,
        -0.944980 -0.784125 0.000000,
        -0.940378 -0.786391 0.000000,
        -0.935517 -0.788036 0.000000,
        -0.933118 0.866782 0.305081,
        -0.926974 0.866782 0.312372,
        -0.926063 0.873699 0.312372,
        -0.918394 0.871644 0.318063,
        -0.909608 0.869291 0.321623,
        -0.908640 0.871628 0.321623,
        -0.905093 0.875176 0.321623,
        -0.907100 0.873635 0.321623,
        -0.902755 0.876144 0.321623,
        -0.909881 0.866782 0.321630,
        -0.936259 0.876431 0.296114,
        -0.932534 0.885423 0.296114,
        -0.926609 0.893145 0.296114,
        -0.918888 0.899070 0.296114,
        -0.909896 0.902794 0.296114,
        -0.900246 0.904065 0.296114,
        -0.900246 0.876417 0.321630,
        -0.926832 0.866782 0.312474,
        -0.919034 0.866782 0.318063,
        -0.918926 0.866782 0.318105,
        -0.909939 0.866782 0.321623,
        -0.916517 0.876176 0.318063,
        -0.913531 0.880067 0.318063,
        -0.909641 0.883053 0.318063,
        -0.905109 0.884930 0.318063,
        -0.900246 0.876474 0.321623,
        -0.900246 0.885462 0.318105,
        -0.900246 0.885570 0.318063,
        -0.900246 0.893368 0.312474,
        -0.923393 0.880145 0.312372,
        -0.919145 0.885681 0.312372,
        -0.913610 0.889928 0.312372,
        -0.907164 0.892598 0.312372,
        -0.937402 0.866782 0.296375,
        -0.933268 0.866782 0.304903,
        -0.932142 0.875328 0.304903,
        -0.928844 0.883293 0.304903,
        -0.923596 0.890131 0.304903,
        -0.916757 0.895379 0.304903,
        -0.908793 0.898678 0.304903,
        -0.937529 0.866782 0.296114,
        -0.900246 0.893509 0.312372,
        -0.900246 0.899654 0.305081,
        -0.900246 0.899803 0.304903,
        -0.900246 0.903938 0.296375,
        0.963233 0.902052 0.000000,
        0.961587 0.906913 0.000000,
        0.959322 0.911515 0.000000,
        0.956476 0.915779 0.000000,
        0.953098 0.919633 0.000000,
        0.949244 0.923012 0.000000,
        0.944980 0.925857 0.000000,
        0.940378 0.928123 0.000000,
        0.935517 0.929769 0.000000,
        -0.908938 -0.763065 0.287551,
        -0.910350 -0.762870 0.287657,
        -0.917109 -0.760033 0.288000,
        -0.919771 -0.758917 0.288136,
        -0.924412 -0.755344 0.288229,
        -0.927875 -0.752678 0.288299,
        -0.930541 -0.749215 0.288229,
        -0.934113 -0.744574 0.288136,
        -0.935230 -0.741913 0.288000,
        -0.938067 -0.735153 0.287657,
        -0.938262 -0.733741 0.287551,
        -0.937529 -0.725050 0.296114,
        -0.937402 -0.725050 0.296375,
        -0.933268 -0.725050 0.304903,
        -0.933118 -0.725050 0.305081,
        -0.926974 -0.725050 0.312372,
        -0.926832 -0.725050 0.312474,
        -0.919034 -0.725050 0.318063,
        -0.918926 -0.725050 0.318105,
        -0.909939 -0.725050 0.321623,
        -0.909881 -0.725050 0.321630,
        0.900246 0.904065 0.296114,
        0.900246 0.903938 0.296375,
        0.900246 0.899803 0.304903,
        0.900246 0.899654 0.305081,
        0.900246 0.893509 0.312372,
        0.900246 0.893368 0.312474,
        0.900246 0.885570 0.318063,
        0.900246 0.885462 0.318105,
        0.900246 0.876474 0.321623,
        0.900246 0.876417 0.321630,
        0.910350 0.904602 0.287657,
        0.910377 0.904591 0.287659,
        0.919771 0.900649 0.288136,
        0.919791 0.900634 0.288136,
        0.927875 0.894410 0.288299,
        0.934098 0.886326 0.288136,
        0.934113 0.886307 0.288136,
        0.938055 0.876912 0.287659,
        0.938067 0.876885 0.287657,
        -0.900246 -0.762206 0.296375,
        -0.900246 -0.758071 0.304903,
        -0.907594 -0.757243 0.304903,
        -0.900246 -0.757921 0.305081,
        -0.900246 -0.751777 0.312372,
        -0.906194 -0.751107 0.312372,
        -0.904427 -0.743367 0.318063,
        -0.902403 -0.734499 0.321623,
        -0.904452 -0.733782 0.321623,
        -0.908979 -0.729255 0.321623,
        -0.907824 -0.731093 0.321623,
        -0.909696 -0.727206 0.321623,
        -0.900246 -0.734684 0.321630,
        -0.908543 -0.761398 0.296114,
        -0.916423 -0.758640 0.296114,
        -0.923492 -0.754198 0.296114,
        -0.929395 -0.748295 0.296114,
        -0.933837 -0.741226 0.296114,
        -0.936594 -0.733346 0.296114,
        -0.900246 -0.751635 0.312474,
        -0.900246 -0.743837 0.318063,
        -0.900246 -0.743730 0.318105,
        -0.900246 -0.734742 0.321623,
        -0.911961 -0.739739 0.318063,
        -0.914935 -0.736764 0.318063,
        -0.917174 -0.733202 0.318063,
        -0.918563 -0.729230 0.318063,
        -0.908398 -0.741977 0.318063,
        -0.906289 -0.732627 0.321623,
        -0.911843 -0.749130 0.312372,
        -0.916911 -0.745946 0.312372,
        -0.921143 -0.741714 0.312372,
        -0.924327 -0.736646 0.312372,
        -0.926304 -0.730997 0.312372,
        -0.914574 -0.754801 0.304903,
        -0.920835 -0.750867 0.304903,
        -0.926063 -0.745638 0.304903,
        -0.929998 -0.739377 0.304903,
        -0.932440 -0.732398 0.304903,
        -0.900246 -0.762332 0.296114,
        0.907164 0.892598 0.312372,
        0.905109 0.884930 0.318063,
        0.902755 0.876144 0.321623,
        0.905093 0.875176 0.321623,
        0.908640 0.871628 0.321623,
        0.907100 0.873635 0.321623,
        0.909608 0.869291 0.321623,
        0.909896 0.902794 0.296114,
        0.918888 0.899070 0.296114,
        0.926609 0.893145 0.296114,
        0.932534 0.885423 0.296114,
        0.936259 0.876431 0.296114,
        0.937529 0.866782 0.296114,
        0.909881 0.866782 0.321630,
        0.909641 0.883053 0.318063,
        0.913531 0.880067 0.318063,
        0.916517 0.876176 0.318063,
        0.918394 0.871644 0.318063,
        0.909939 0.866782 0.321623,
        0.918926 0.866782 0.318105,
        0.919034 0.866782 0.318063,
        0.926832 0.866782 0.312474,
        0.913610 0.889928 0.312372,
        0.919145 0.885681 0.312372,
        0.923393 0.880145 0.312372,
        0.926063 0.873699 0.312372,
        0.908793 0.898678 0.304903,
        0.916757 0.895379 0.304903,
        0.923596 0.890131 0.304903,
        0.928844 0.883293 0.304903,
        0.932142 0.875328 0.304903,
        0.926974 0.866782 0.312372,
        0.933118 0.866782 0.305081,
        0.933268 0.866782 0.304903,
        0.937402 0.866782 0.296375,
        0.900246 -0.762332 0.296114,
        0.900246 -0.762206 0.296375,
        0.900246 -0.758071 0.304903,
        0.900246 -0.757921 0.305081,
        0.900246 -0.751777 0.312372,
        0.900246 -0.751635 0.312474,
        0.900246 -0.743837 0.318063,
        0.900246 -0.743730 0.318105,
        0.900246 -0.734742 0.321623,
        0.900246 -0.734684 0.321630,
        0.937529 -0.725050 0.296114,
        0.937402 -0.725050 0.296375,
        0.933268 -0.725050 0.304903,
        0.933118 -0.725050 0.305081,
        0.926974 -0.725050 0.312372,
        0.926832 -0.725050 0.312474,
        0.919034 -0.725050 0.318063,
        0.918926 -0.725050 0.318105,
        0.909939 -0.725050 0.321623,
        0.909881 -0.725050 0.321630,
        0.932440 -0.732398 0.304903,
        0.926304 -0.730997 0.312372,
        0.918563 -0.729230 0.318063,
        0.909696 -0.727206 0.321623,
        0.908979 -0.729255 0.321623,
        0.904452 -0.733782 0.321623,
        0.906289 -0.732627 0.321623,
        0.902403 -0.734499 0.321623,
        0.938262 -0.733741 0.287551,
        0.936594 -0.733346 0.296114,
        0.938067 -0.735153 0.287657,
        0.933837 -0.741226 0.296114,
        0.935230 -0.741913 0.288000,
        0.934113 -0.744574 0.288136,
        0.929395 -0.748295 0.296114,
        0.930541 -0.749215 0.288229,
        0.927875 -0.752678 0.288299,
        0.923492 -0.754198 0.296114,
        0.924412 -0.755344 0.288229,
        0.919771 -0.758917 0.288136,
        0.916423 -0.758640 0.296114,
        0.917109 -0.760033 0.288000,
        0.910350 -0.762870 0.287657,
        0.908543 -0.761398 0.296114,
        0.908938 -0.763065 0.287551,
        0.914935 -0.736764 0.318063,
        0.911961 -0.739739 0.318063,
        0.908398 -0.741977 0.318063,
        0.904427 -0.743367 0.318063,
        0.917174 -0.733202 0.318063,
        0.907824 -0.731093 0.321623,
        0.924327 -0.736646 0.312372,
        0.921143 -0.741714 0.312372,
        0.916911 -0.745946 0.312372,
        0.911843 -0.749130 0.312372,
        0.906194 -0.751107 0.312372,
        0.929998 -0.739377 0.304903,
        0.926063 -0.745638 0.304903,
        0.920835 -0.750867 0.304903,
        0.914574 -0.754801 0.304903,
        0.907594 -0.757243 0.304903,
        0.963233 -0.760320 -0.000000,
        0.961587 -0.765181 -0.000000,
        0.959322 -0.769783 -0.000000,
        0.956476 -0.774047 -0.000000,
        0.953098 -0.777901 -0.000000,
        0.949244 -0.781279 -0.000000,
        0.944980 -0.784125 -0.000000,
        0.940378 -0.786391 -0.000000,
        0.935517 -0.788036 -0.000000,
      ]
    }
    coordIndex [
      64, 65, 66, -1,
      66, 65, 71, -1,
      66, 71, 67, -1,
      67, 71, 70, -1,
      67, 70, 68, -1,
      68, 70, 69, -1,
      73, 88, 72, -1,
      72, 88, 87, -1,
      72, 87, 86, -1,
      80, 79, 72, -1,
      72, 79, 78, -1,
      72, 78, 74, -1,
      86, 85, 72, -1,
      72, 85, 84, -1,
      72, 84, 83, -1,
      83, 82, 72, -1,
      72, 82, 81, -1,
      72, 81, 80, -1,
      77, 76, 78, -1,
      78, 76, 75, -1,
      78, 75, 74, -1,
      44, 30, 32, -1,
      44, 32, 89, -1,
      89, 32, 28, -1,
      89, 28, 90, -1,
      90, 28, 27, -1,
      90, 27, 91, -1,
      91, 27, 92, -1,
      92, 27, 35, -1,
      92, 35, 93, -1,
      93, 35, 36, -1,
      93, 36, 94, -1,
      94, 36, 34, -1,
      94, 34, 95, -1,
      95, 34, 33, -1,
      95, 33, 96, -1,
      96, 33, 29, -1,
      96, 29, 97, -1,
      29, 31, 97, -1,
      97, 31, 25, -1,
      97, 25, 26, -1,
      59, 98, 26, -1,
      26, 98, 97, -1,
      97, 98, 96, -1,
      96, 98, 99, -1,
      96, 99, 95, -1,
      95, 99, 100, -1,
      95, 100, 94, -1,
      94, 100, 101, -1,
      94, 101, 93, -1,
      93, 101, 102, -1,
      93, 102, 92, -1,
      92, 102, 103, -1,
      92, 103, 91, -1,
      91, 103, 104, -1,
      91, 104, 90, -1,
      90, 104, 105, -1,
      90, 105, 89, -1,
      105, 106, 89, -1,
      89, 106, 57, -1,
      89, 57, 44, -1,
      43, 10, 2, -1,
      43, 2, 107, -1,
      107, 2, 1, -1,
      107, 1, 108, -1,
      108, 1, 5, -1,
      108, 5, 109, -1,
      109, 5, 110, -1,
      110, 5, 8, -1,
      110, 8, 111, -1,
      111, 8, 9, -1,
      111, 9, 112, -1,
      112, 9, 7, -1,
      112, 7, 113, -1,
      113, 7, 6, -1,
      113, 6, 114, -1,
      114, 6, 4, -1,
      114, 4, 115, -1,
      4, 3, 115, -1,
      115, 3, 0, -1,
      115, 0, 40, -1,
      116, 117, 118, -1,
      119, 120, 121, -1,
      61, 122, 123, -1,
      124, 122, 61, -1,
      121, 120, 61, -1,
      125, 61, 120, -1,
      126, 99, 98, -1,
      99, 126, 100, -1,
      100, 126, 127, -1,
      100, 127, 101, -1,
      101, 127, 128, -1,
      101, 128, 102, -1,
      102, 128, 129, -1,
      102, 129, 103, -1,
      103, 129, 104, -1,
      104, 129, 130, -1,
      104, 130, 105, -1,
      105, 130, 106, -1,
      106, 130, 131, -1,
      106, 131, 57, -1,
      132, 124, 61, -1,
      133, 134, 119, -1,
      119, 134, 135, -1,
      119, 135, 120, -1,
      120, 135, 136, -1,
      120, 136, 125, -1,
      137, 123, 138, -1,
      138, 123, 122, -1,
      138, 122, 139, -1,
      139, 122, 124, -1,
      139, 124, 140, -1,
      132, 141, 124, -1,
      124, 141, 142, -1,
      124, 142, 140, -1,
      140, 142, 143, -1,
      140, 143, 144, -1,
      118, 137, 145, -1,
      145, 137, 138, -1,
      145, 138, 146, -1,
      146, 138, 139, -1,
      146, 139, 147, -1,
      147, 139, 140, -1,
      147, 140, 148, -1,
      148, 140, 144, -1,
      149, 150, 151, -1,
      151, 150, 116, -1,
      116, 118, 151, -1,
      151, 118, 145, -1,
      151, 145, 152, -1,
      152, 145, 146, -1,
      152, 146, 153, -1,
      153, 146, 147, -1,
      153, 147, 154, -1,
      154, 147, 148, -1,
      154, 148, 155, -1,
      117, 133, 118, -1,
      118, 133, 119, -1,
      118, 119, 137, -1,
      137, 119, 121, -1,
      137, 121, 123, -1,
      123, 121, 61, -1,
      149, 126, 156, -1,
      156, 126, 98, -1,
      156, 98, 59, -1,
      144, 157, 148, -1,
      148, 157, 158, -1,
      148, 158, 155, -1,
      155, 158, 159, -1,
      155, 159, 160, -1,
      149, 151, 126, -1,
      126, 151, 152, -1,
      126, 152, 127, -1,
      127, 152, 153, -1,
      127, 153, 128, -1,
      128, 153, 154, -1,
      128, 154, 129, -1,
      129, 154, 155, -1,
      129, 155, 130, -1,
      130, 155, 160, -1,
      130, 160, 131, -1,
      41, 42, 46, -1,
      41, 46, 161, -1,
      161, 46, 45, -1,
      161, 45, 162, -1,
      162, 45, 49, -1,
      162, 49, 163, -1,
      163, 49, 164, -1,
      164, 49, 52, -1,
      164, 52, 165, -1,
      165, 52, 53, -1,
      165, 53, 166, -1,
      166, 53, 51, -1,
      166, 51, 167, -1,
      167, 51, 50, -1,
      167, 50, 168, -1,
      168, 50, 48, -1,
      168, 48, 169, -1,
      48, 47, 169, -1,
      169, 47, 22, -1,
      169, 22, 23, -1,
      40, 37, 170, -1,
      40, 170, 115, -1,
      115, 170, 171, -1,
      115, 171, 114, -1,
      114, 171, 172, -1,
      114, 172, 113, -1,
      113, 172, 173, -1,
      113, 173, 112, -1,
      112, 173, 174, -1,
      112, 174, 111, -1,
      111, 174, 175, -1,
      111, 175, 110, -1,
      110, 175, 176, -1,
      110, 176, 109, -1,
      109, 176, 177, -1,
      109, 177, 108, -1,
      108, 177, 178, -1,
      108, 178, 107, -1,
      107, 178, 179, -1,
      107, 179, 43, -1,
      43, 179, 180, -1,
      43, 180, 58, -1,
      59, 58, 156, -1,
      156, 58, 181, -1,
      156, 181, 149, -1,
      149, 181, 182, -1,
      149, 182, 150, -1,
      150, 182, 183, -1,
      150, 183, 116, -1,
      116, 183, 184, -1,
      116, 184, 117, -1,
      117, 184, 185, -1,
      117, 185, 133, -1,
      133, 185, 186, -1,
      133, 186, 134, -1,
      134, 186, 187, -1,
      134, 187, 135, -1,
      135, 187, 188, -1,
      135, 188, 136, -1,
      136, 188, 189, -1,
      136, 189, 125, -1,
      189, 190, 125, -1,
      125, 190, 62, -1,
      125, 62, 61, -1,
      56, 57, 191, -1,
      191, 57, 131, -1,
      191, 131, 192, -1,
      192, 131, 160, -1,
      192, 160, 193, -1,
      193, 160, 159, -1,
      193, 159, 194, -1,
      194, 159, 158, -1,
      194, 158, 195, -1,
      195, 158, 157, -1,
      195, 157, 196, -1,
      196, 157, 144, -1,
      196, 144, 197, -1,
      197, 144, 143, -1,
      197, 143, 198, -1,
      198, 143, 142, -1,
      198, 142, 199, -1,
      199, 142, 141, -1,
      199, 141, 200, -1,
      141, 132, 200, -1,
      200, 132, 61, -1,
      200, 61, 63, -1,
      56, 201, 23, -1,
      23, 201, 169, -1,
      169, 201, 168, -1,
      168, 201, 202, -1,
      168, 202, 167, -1,
      167, 202, 203, -1,
      167, 203, 166, -1,
      166, 203, 204, -1,
      166, 204, 165, -1,
      165, 204, 205, -1,
      165, 205, 164, -1,
      164, 205, 206, -1,
      164, 206, 163, -1,
      163, 206, 207, -1,
      163, 207, 162, -1,
      162, 207, 208, -1,
      162, 208, 161, -1,
      208, 209, 161, -1,
      161, 209, 54, -1,
      161, 54, 41, -1,
      210, 211, 212, -1,
      213, 214, 215, -1,
      216, 217, 218, -1,
      62, 219, 220, -1,
      221, 219, 62, -1,
      218, 217, 62, -1,
      222, 62, 217, -1,
      170, 223, 171, -1,
      171, 223, 224, -1,
      171, 224, 172, -1,
      172, 224, 173, -1,
      173, 224, 225, -1,
      173, 225, 174, -1,
      174, 225, 175, -1,
      175, 225, 226, -1,
      175, 226, 176, -1,
      176, 226, 177, -1,
      177, 226, 227, -1,
      177, 227, 178, -1,
      178, 227, 179, -1,
      179, 227, 228, -1,
      179, 228, 180, -1,
      180, 228, 181, -1,
      180, 181, 58, -1,
      190, 221, 62, -1,
      229, 230, 216, -1,
      216, 230, 231, -1,
      216, 231, 217, -1,
      217, 231, 232, -1,
      217, 232, 222, -1,
      233, 220, 234, -1,
      234, 220, 219, -1,
      234, 219, 235, -1,
      235, 219, 221, -1,
      235, 221, 236, -1,
      214, 229, 215, -1,
      215, 229, 216, -1,
      215, 216, 237, -1,
      237, 216, 218, -1,
      237, 218, 238, -1,
      238, 218, 62, -1,
      190, 189, 221, -1,
      221, 189, 188, -1,
      221, 188, 236, -1,
      236, 188, 187, -1,
      236, 187, 186, -1,
      239, 233, 240, -1,
      240, 233, 234, -1,
      240, 234, 241, -1,
      241, 234, 235, -1,
      241, 235, 242, -1,
      242, 235, 236, -1,
      242, 236, 243, -1,
      243, 236, 186, -1,
      212, 239, 244, -1,
      244, 239, 240, -1,
      244, 240, 245, -1,
      245, 240, 241, -1,
      245, 241, 246, -1,
      246, 241, 242, -1,
      246, 242, 247, -1,
      247, 242, 243, -1,
      247, 243, 248, -1,
      211, 213, 212, -1,
      212, 213, 215, -1,
      212, 215, 239, -1,
      239, 215, 237, -1,
      239, 237, 233, -1,
      233, 237, 238, -1,
      233, 238, 220, -1,
      220, 238, 62, -1,
      170, 37, 223, -1,
      223, 37, 249, -1,
      223, 249, 210, -1,
      186, 185, 243, -1,
      243, 185, 184, -1,
      243, 184, 248, -1,
      248, 184, 183, -1,
      248, 183, 182, -1,
      210, 212, 223, -1,
      223, 212, 244, -1,
      223, 244, 224, -1,
      224, 244, 245, -1,
      224, 245, 225, -1,
      225, 245, 246, -1,
      225, 246, 226, -1,
      226, 246, 247, -1,
      226, 247, 227, -1,
      227, 247, 248, -1,
      227, 248, 228, -1,
      228, 248, 182, -1,
      228, 182, 181, -1,
      194, 195, 250, -1,
      251, 252, 253, -1,
      63, 254, 255, -1,
      256, 254, 63, -1,
      253, 252, 63, -1,
      200, 63, 252, -1,
      257, 202, 201, -1,
      202, 257, 203, -1,
      203, 257, 258, -1,
      203, 258, 204, -1,
      204, 258, 259, -1,
      204, 259, 205, -1,
      205, 259, 260, -1,
      205, 260, 206, -1,
      206, 260, 207, -1,
      207, 260, 261, -1,
      207, 261, 208, -1,
      208, 261, 209, -1,
      209, 261, 262, -1,
      209, 262, 54, -1,
      263, 256, 63, -1,
      196, 197, 251, -1,
      251, 197, 198, -1,
      251, 198, 252, -1,
      252, 198, 199, -1,
      252, 199, 200, -1,
      264, 255, 265, -1,
      265, 255, 254, -1,
      265, 254, 266, -1,
      266, 254, 256, -1,
      266, 256, 267, -1,
      263, 268, 256, -1,
      256, 268, 269, -1,
      256, 269, 267, -1,
      267, 269, 270, -1,
      267, 270, 271, -1,
      250, 264, 272, -1,
      272, 264, 265, -1,
      272, 265, 273, -1,
      273, 265, 266, -1,
      273, 266, 274, -1,
      274, 266, 267, -1,
      274, 267, 275, -1,
      275, 267, 271, -1,
      192, 193, 276, -1,
      276, 193, 194, -1,
      194, 250, 276, -1,
      276, 250, 272, -1,
      276, 272, 277, -1,
      277, 272, 273, -1,
      277, 273, 278, -1,
      278, 273, 274, -1,
      278, 274, 279, -1,
      279, 274, 275, -1,
      279, 275, 280, -1,
      195, 196, 250, -1,
      250, 196, 251, -1,
      250, 251, 264, -1,
      264, 251, 253, -1,
      264, 253, 255, -1,
      255, 253, 63, -1,
      192, 257, 191, -1,
      191, 257, 201, -1,
      191, 201, 56, -1,
      271, 281, 275, -1,
      275, 281, 282, -1,
      275, 282, 280, -1,
      280, 282, 283, -1,
      280, 283, 284, -1,
      192, 276, 257, -1,
      257, 276, 277, -1,
      257, 277, 258, -1,
      258, 277, 278, -1,
      258, 278, 259, -1,
      259, 278, 279, -1,
      259, 279, 260, -1,
      260, 279, 280, -1,
      260, 280, 261, -1,
      261, 280, 284, -1,
      261, 284, 262, -1,
      37, 38, 249, -1,
      249, 38, 285, -1,
      249, 285, 210, -1,
      210, 285, 286, -1,
      210, 286, 211, -1,
      211, 286, 287, -1,
      211, 287, 213, -1,
      213, 287, 288, -1,
      213, 288, 214, -1,
      214, 288, 289, -1,
      214, 289, 229, -1,
      229, 289, 290, -1,
      229, 290, 230, -1,
      230, 290, 291, -1,
      230, 291, 231, -1,
      231, 291, 292, -1,
      231, 292, 232, -1,
      232, 292, 293, -1,
      232, 293, 222, -1,
      293, 294, 222, -1,
      222, 294, 60, -1,
      222, 60, 62, -1,
      55, 54, 295, -1,
      295, 54, 262, -1,
      295, 262, 296, -1,
      296, 262, 284, -1,
      296, 284, 297, -1,
      297, 284, 283, -1,
      297, 283, 298, -1,
      298, 283, 282, -1,
      298, 282, 299, -1,
      299, 282, 281, -1,
      299, 281, 300, -1,
      300, 281, 271, -1,
      300, 271, 301, -1,
      301, 271, 270, -1,
      301, 270, 302, -1,
      302, 270, 269, -1,
      302, 269, 303, -1,
      303, 269, 268, -1,
      303, 268, 304, -1,
      268, 263, 304, -1,
      304, 263, 63, -1,
      304, 63, 60, -1,
      296, 297, 305, -1,
      298, 299, 306, -1,
      307, 308, 309, -1,
      60, 310, 311, -1,
      312, 310, 60, -1,
      309, 308, 60, -1,
      304, 60, 308, -1,
      313, 314, 315, -1,
      315, 314, 316, -1,
      315, 316, 317, -1,
      317, 316, 318, -1,
      318, 316, 319, -1,
      318, 319, 320, -1,
      320, 319, 321, -1,
      321, 319, 322, -1,
      321, 322, 323, -1,
      323, 322, 324, -1,
      324, 322, 325, -1,
      324, 325, 326, -1,
      326, 325, 327, -1,
      327, 325, 328, -1,
      327, 328, 329, -1,
      329, 328, 285, -1,
      329, 285, 38, -1,
      294, 312, 60, -1,
      300, 301, 307, -1,
      307, 301, 302, -1,
      307, 302, 308, -1,
      308, 302, 303, -1,
      308, 303, 304, -1,
      330, 311, 331, -1,
      331, 311, 310, -1,
      331, 310, 332, -1,
      332, 310, 312, -1,
      332, 312, 333, -1,
      299, 300, 306, -1,
      306, 300, 307, -1,
      306, 307, 334, -1,
      334, 307, 309, -1,
      334, 309, 335, -1,
      335, 309, 60, -1,
      294, 293, 312, -1,
      312, 293, 292, -1,
      312, 292, 333, -1,
      333, 292, 291, -1,
      333, 291, 290, -1,
      336, 330, 337, -1,
      337, 330, 331, -1,
      337, 331, 338, -1,
      338, 331, 332, -1,
      338, 332, 339, -1,
      339, 332, 333, -1,
      339, 333, 340, -1,
      340, 333, 290, -1,
      305, 336, 341, -1,
      341, 336, 337, -1,
      341, 337, 342, -1,
      342, 337, 338, -1,
      342, 338, 343, -1,
      343, 338, 339, -1,
      343, 339, 344, -1,
      344, 339, 340, -1,
      344, 340, 345, -1,
      297, 298, 305, -1,
      305, 298, 306, -1,
      305, 306, 336, -1,
      336, 306, 334, -1,
      336, 334, 330, -1,
      330, 334, 335, -1,
      330, 335, 311, -1,
      311, 335, 60, -1,
      313, 55, 314, -1,
      314, 55, 295, -1,
      314, 295, 296, -1,
      290, 289, 340, -1,
      340, 289, 288, -1,
      340, 288, 345, -1,
      345, 288, 287, -1,
      345, 287, 286, -1,
      296, 305, 314, -1,
      314, 305, 341, -1,
      314, 341, 316, -1,
      316, 341, 342, -1,
      316, 342, 319, -1,
      319, 342, 343, -1,
      319, 343, 322, -1,
      322, 343, 344, -1,
      322, 344, 325, -1,
      325, 344, 345, -1,
      325, 345, 328, -1,
      328, 345, 286, -1,
      328, 286, 285, -1,
      24, 55, 313, -1,
      24, 313, 346, -1,
      346, 313, 315, -1,
      346, 315, 347, -1,
      347, 315, 317, -1,
      347, 317, 348, -1,
      348, 317, 318, -1,
      348, 318, 349, -1,
      349, 318, 320, -1,
      349, 320, 350, -1,
      350, 320, 321, -1,
      350, 321, 351, -1,
      351, 321, 323, -1,
      351, 323, 352, -1,
      352, 323, 324, -1,
      352, 324, 353, -1,
      353, 324, 326, -1,
      353, 326, 354, -1,
      354, 326, 327, -1,
      354, 327, 39, -1,
      39, 327, 329, -1,
      39, 329, 38, -1,
      39, 11, 15, -1,
      39, 15, 354, -1,
      354, 15, 14, -1,
      354, 14, 353, -1,
      353, 14, 18, -1,
      353, 18, 352, -1,
      352, 18, 351, -1,
      351, 18, 20, -1,
      351, 20, 350, -1,
      350, 20, 21, -1,
      350, 21, 349, -1,
      349, 21, 19, -1,
      349, 19, 348, -1,
      348, 19, 17, -1,
      348, 17, 347, -1,
      347, 17, 16, -1,
      347, 16, 346, -1,
      16, 13, 346, -1,
      346, 13, 12, -1,
      346, 12, 24, -1,
    ]
  }
}
