#VRML V2.0 utf8

Shape {
  appearance Appearance {
    material Material {
      diffuseColor 0.2078 0.2078 0.2078
      specularColor 0.0157 0.0157 0.0157
      ambientIntensity 0.2
      transparency 0.0000
      shininess 0.5
    }
  }
  geometry IndexedFaceSet {
    ccw TRUE
    solid FALSE
    coord DEF co Coordinate {
      point [
        -0.016324 0.423600 -0.190945,
        -0.008642 -0.034365 -0.190945,
        -0.016324 -0.043487 -0.190945,
        -0.008642 -0.043007 -0.190945,
        0.033609 -0.043007 -0.190945,
        -0.006722 0.027091 -0.190945,
        0.023046 0.027091 -0.190945,
        0.023046 0.001165 -0.190945,
        0.048972 -0.038926 -0.190945,
        0.048972 -0.030283 -0.190945,
        0.033609 0.035733 -0.190945,
        0.023046 -0.007478 -0.190945,
        0.023046 -0.034365 -0.190945,
        -0.004801 -0.007478 -0.190945,
        -0.004801 0.001165 -0.190945,
        0.154600 -0.043007 -0.190945,
        0.075269 -0.043487 -0.190945,
        0.114269 -0.043007 -0.190945,
        0.080342 -0.042961 -0.190945,
        0.087974 -0.040334 -0.190945,
        -0.006722 0.035733 -0.190945,
        0.103392 0.014994 -0.190945,
        0.098777 0.022356 -0.190945,
        0.144037 0.035733 -0.190945,
        0.075166 0.027181 -0.190945,
        0.081059 0.025054 -0.190945,
        0.050384 -0.031065 -0.190945,
        0.086509 0.021408 -0.190945,
        0.091264 0.016159 -0.190945,
        0.096985 -0.004477 -0.190945,
        0.096187 -0.013001 -0.190945,
        0.094048 -0.019774 -0.190945,
        0.076527 -0.034501 -0.190945,
        0.069183 -0.035325 -0.190945,
        0.082264 -0.032389 -0.190945,
        0.087097 -0.029131 -0.190945,
        0.090792 -0.025233 -0.190945,
        0.058731 -0.034165 -0.190945,
        0.094510 0.010079 -0.190945,
        0.096609 0.001650 -0.190945,
        0.094307 -0.036289 -0.190945,
        0.100222 -0.030063 -0.190945,
        0.114269 -0.034365 -0.190945,
        0.104417 -0.022576 -0.190945,
        0.144037 -0.034365 -0.190945,
        0.106786 -0.014241 -0.190945,
        0.107548 -0.005122 -0.190945,
        0.106415 0.006072 -0.190945,
        0.091668 0.029193 -0.190945,
        0.084189 0.033498 -0.190945,
        0.075411 0.036048 -0.190945,
        0.067502 0.036694 -0.190945,
        0.058076 0.036043 -0.190945,
        0.048972 0.033573 -0.190945,
        0.048972 0.023010 -0.190945,
        0.057842 0.026808 -0.190945,
        0.067412 0.028052 -0.190945,
        0.065322 -0.043487 -0.190945,
        0.068485 -0.043930 -0.190945,
        -0.016324 -0.423600 -0.190945,
        0.070638 -0.043967 -0.190945,
        0.154600 0.035733 -0.190945,
        0.364544 0.423600 -0.190945,
        0.364544 -0.043487 -0.190945,
        0.364544 -0.423600 -0.190945,
        -0.364544 -0.423600 -0.190945,
        -0.364544 -0.043487 -0.190945,
        0.057366 -0.042372 -0.190945,
        -0.093144 -0.043007 -0.190945,
        -0.083450 -0.021426 -0.190945,
        -0.078935 -0.028469 -0.190945,
        -0.152679 -0.043007 -0.190945,
        -0.164202 -0.043007 -0.190945,
        -0.133474 0.035733 -0.190945,
        -0.364544 0.423600 -0.190945,
        -0.122911 0.035733 -0.190945,
        -0.072454 -0.034674 -0.190945,
        -0.064232 -0.039452 -0.190945,
        -0.055159 -0.042156 -0.190945,
        -0.045417 -0.043007 -0.190945,
        -0.024006 -0.043007 -0.190945,
        -0.024006 0.035733 -0.190945,
        -0.046227 0.035733 -0.190945,
        -0.075468 0.025467 -0.190945,
        -0.081036 0.019293 -0.190945,
        -0.084695 0.012520 -0.190945,
        -0.057603 0.034517 -0.190945,
        -0.066815 0.031282 -0.190945,
        -0.075385 0.025539 -0.190945,
        -0.104667 -0.043007 -0.190945,
        -0.112184 -0.020921 -0.190945,
        -0.144712 -0.020921 -0.190945,
        -0.086810 0.004763 -0.190945,
        -0.087382 -0.002646 -0.190945,
        -0.086278 -0.013184 -0.190945,
        -0.393701 -0.452756 0.025591,
        -0.393701 -0.452756 -0.025591,
        -0.336614 -0.452756 0.025591,
        -0.336614 -0.452756 -0.025591,
        -0.253937 -0.452756 -0.025591,
        -0.139764 -0.452756 -0.025591,
        -0.253937 -0.452756 0.025591,
        -0.139764 -0.452756 0.025591,
        -0.057087 -0.452756 -0.025591,
        0.057087 -0.452756 -0.025591,
        -0.057087 -0.452756 0.025591,
        0.057087 -0.452756 0.025591,
        0.393701 -0.452756 -0.025591,
        0.393701 -0.452756 0.025591,
        0.336614 -0.452756 -0.025591,
        0.336614 -0.452756 0.025591,
        -0.393701 0.452756 -0.025591,
        -0.393701 0.452756 0.025591,
        -0.336614 0.452756 -0.025591,
        -0.336614 0.452756 0.025591,
        -0.253937 0.452756 0.025591,
        -0.139764 0.452756 0.025591,
        -0.253937 0.452756 -0.025591,
        -0.139764 0.452756 -0.025591,
        -0.057087 0.452756 0.025591,
        0.057087 0.452756 0.025591,
        -0.057087 0.452756 -0.025591,
        0.057087 0.452756 -0.025591,
        0.139764 0.452756 0.025591,
        0.253937 0.452756 0.025591,
        0.139764 0.452756 -0.025591,
        0.253937 0.452756 -0.025591,
        0.336614 0.452756 0.025591,
        0.393701 0.452756 0.025591,
        0.336614 0.452756 -0.025591,
        0.393701 0.452756 -0.025591,
        0.139764 -0.452756 -0.025591,
        0.253937 -0.452756 -0.025591,
        0.139764 -0.452756 0.025591,
        0.253937 -0.452756 0.025591,
        -0.376346 -0.435401 0.124016,
        -0.376346 0.435401 0.124016,
        0.376346 -0.435401 0.124016,
        0.376346 0.435401 0.124016,
        -0.220207 -0.307101 0.124016,
        -0.218865 -0.317291 0.124016,
        -0.268425 -0.355319 0.124016,
        -0.277920 -0.351386 0.124016,
        -0.220207 -0.327480 0.124016,
        -0.224140 -0.336976 0.124016,
        -0.230397 -0.345130 0.124016,
        -0.286074 -0.345130 0.124016,
        -0.292331 -0.336976 0.124016,
        -0.296264 -0.327480 0.124016,
        -0.224140 -0.297606 0.124016,
        -0.230397 -0.289452 0.124016,
        -0.286074 -0.289452 0.124016,
        -0.277920 -0.283195 0.124016,
        -0.268425 -0.279262 0.124016,
        -0.258235 -0.277920 0.124016,
        -0.248046 -0.279262 0.124016,
        -0.238550 -0.283195 0.124016,
        -0.238550 -0.351386 0.124016,
        -0.248046 -0.355319 0.124016,
        -0.258235 -0.356661 0.124016,
        -0.297606 -0.317291 0.124016,
        -0.296264 -0.307101 0.124016,
        -0.292331 -0.297606 0.124016,
      ]
    }
    coordIndex [
      0, 1, 2, -1,
      2, 1, 3, -1,
      2, 3, 4, -1,
      5, 6, 7, -1,
      8, 4, 9, -1,
      9, 4, 10, -1,
      11, 12, 13, -1,
      13, 12, 1, -1,
      13, 1, 14, -1,
      15, 16, 17, -1,
      17, 16, 18, -1,
      17, 18, 19, -1,
      7, 14, 5, -1,
      5, 14, 1, -1,
      5, 1, 20, -1,
      20, 1, 0, -1,
      20, 0, 10, -1,
      21, 22, 23, -1,
      24, 25, 26, -1,
      26, 25, 27, -1,
      26, 27, 28, -1,
      29, 30, 26, -1,
      26, 30, 31, -1,
      32, 33, 34, -1,
      34, 33, 35, -1,
      31, 36, 26, -1,
      26, 36, 35, -1,
      26, 35, 37, -1,
      37, 35, 33, -1,
      28, 38, 26, -1,
      26, 38, 39, -1,
      26, 39, 29, -1,
      19, 40, 17, -1,
      17, 40, 41, -1,
      17, 41, 42, -1,
      42, 41, 43, -1,
      42, 43, 44, -1,
      43, 45, 44, -1,
      44, 45, 46, -1,
      44, 46, 23, -1,
      23, 46, 47, -1,
      23, 47, 21, -1,
      48, 49, 0, -1,
      0, 49, 50, -1,
      0, 50, 51, -1,
      51, 52, 0, -1,
      0, 52, 53, -1,
      0, 53, 10, -1,
      10, 53, 54, -1,
      10, 54, 9, -1,
      9, 54, 55, -1,
      9, 55, 26, -1,
      26, 55, 56, -1,
      26, 56, 24, -1,
      57, 58, 59, -1,
      59, 58, 60, -1,
      59, 60, 16, -1,
      22, 48, 23, -1,
      23, 48, 0, -1,
      23, 0, 61, -1,
      61, 0, 62, -1,
      61, 62, 15, -1,
      15, 62, 63, -1,
      15, 63, 16, -1,
      16, 63, 64, -1,
      16, 64, 59, -1,
      65, 66, 59, -1,
      59, 66, 2, -1,
      59, 2, 57, -1,
      57, 2, 4, -1,
      57, 4, 67, -1,
      67, 4, 8, -1,
      68, 69, 70, -1,
      71, 2, 72, -1,
      72, 2, 66, -1,
      72, 66, 73, -1,
      73, 66, 74, -1,
      73, 74, 75, -1,
      75, 74, 0, -1,
      70, 76, 68, -1,
      68, 76, 77, -1,
      68, 77, 78, -1,
      79, 80, 2, -1,
      2, 80, 81, -1,
      2, 81, 0, -1,
      0, 81, 82, -1,
      83, 84, 75, -1,
      75, 84, 85, -1,
      82, 86, 0, -1,
      0, 86, 87, -1,
      0, 87, 75, -1,
      75, 87, 88, -1,
      75, 88, 83, -1,
      78, 79, 68, -1,
      68, 79, 2, -1,
      68, 2, 89, -1,
      89, 2, 71, -1,
      89, 71, 90, -1,
      90, 71, 91, -1,
      85, 92, 75, -1,
      75, 92, 93, -1,
      75, 93, 68, -1,
      68, 93, 94, -1,
      68, 94, 69, -1,
      95, 96, 97, -1,
      97, 96, 98, -1,
      99, 100, 101, -1,
      101, 100, 102, -1,
      103, 104, 105, -1,
      105, 104, 106, -1,
      107, 108, 109, -1,
      109, 108, 110, -1,
      111, 112, 113, -1,
      113, 112, 114, -1,
      115, 116, 117, -1,
      117, 116, 118, -1,
      119, 120, 121, -1,
      121, 120, 122, -1,
      123, 124, 125, -1,
      125, 124, 126, -1,
      127, 128, 129, -1,
      129, 128, 130, -1,
      95, 112, 96, -1,
      96, 112, 111, -1,
      131, 132, 133, -1,
      133, 132, 134, -1,
      128, 108, 130, -1,
      130, 108, 107, -1,
      135, 136, 95, -1,
      95, 136, 112, -1,
      95, 97, 135, -1,
      135, 97, 101, -1,
      135, 101, 102, -1,
      102, 105, 135, -1,
      135, 105, 106, -1,
      135, 106, 137, -1,
      137, 106, 133, -1,
      133, 134, 137, -1,
      137, 134, 110, -1,
      137, 110, 108, -1,
      138, 137, 128, -1,
      128, 137, 108, -1,
      128, 127, 138, -1,
      138, 127, 124, -1,
      124, 123, 138, -1,
      138, 123, 120, -1,
      138, 120, 136, -1,
      136, 120, 119, -1,
      136, 119, 116, -1,
      116, 115, 136, -1,
      136, 115, 114, -1,
      136, 114, 112, -1,
      139, 140, 137, -1,
      141, 142, 135, -1,
      140, 143, 137, -1,
      137, 143, 144, -1,
      137, 144, 145, -1,
      142, 146, 135, -1,
      135, 146, 147, -1,
      135, 147, 148, -1,
      139, 137, 149, -1,
      149, 137, 138, -1,
      149, 138, 150, -1,
      151, 152, 136, -1,
      136, 152, 153, -1,
      153, 154, 136, -1,
      136, 154, 155, -1,
      136, 155, 138, -1,
      138, 155, 156, -1,
      138, 156, 150, -1,
      145, 157, 137, -1,
      137, 157, 158, -1,
      137, 158, 135, -1,
      135, 158, 159, -1,
      135, 159, 141, -1,
      148, 160, 135, -1,
      135, 160, 161, -1,
      135, 161, 136, -1,
      136, 161, 162, -1,
      136, 162, 151, -1,
      64, 62, 107, -1,
      107, 62, 130, -1,
      98, 96, 65, -1,
      107, 109, 64, -1,
      64, 109, 132, -1,
      64, 132, 59, -1,
      59, 132, 131, -1,
      59, 131, 104, -1,
      104, 103, 59, -1,
      59, 103, 100, -1,
      59, 100, 65, -1,
      65, 100, 99, -1,
      65, 99, 98, -1,
      74, 65, 111, -1,
      111, 65, 96, -1,
      129, 130, 62, -1,
      121, 122, 0, -1,
      0, 122, 125, -1,
      0, 125, 62, -1,
      62, 125, 126, -1,
      62, 126, 129, -1,
      111, 113, 74, -1,
      74, 113, 117, -1,
      74, 117, 0, -1,
      0, 117, 118, -1,
      0, 118, 121, -1,
    ]
  }
}

Shape {
  appearance Appearance {
    material Material {
      diffuseColor 0.3490 0.3490 0.3490
      specularColor 0.0235 0.0235 0.0235
      ambientIntensity 0.2
      transparency 0.0000
      shininess 0.5
    }
  }
  geometry IndexedFaceSet {
    ccw TRUE
    solid FALSE
    coord DEF co Coordinate {
      point [
        -0.220207 -0.307101 0.124016,
        -0.218865 -0.317291 0.124016,
        -0.268425 -0.355319 0.124016,
        -0.277920 -0.351386 0.124016,
        -0.220207 -0.327480 0.124016,
        -0.224140 -0.336976 0.124016,
        -0.230397 -0.345130 0.124016,
        -0.286074 -0.345130 0.124016,
        -0.292331 -0.336976 0.124016,
        -0.296264 -0.327480 0.124016,
        -0.224140 -0.297606 0.124016,
        -0.230397 -0.289452 0.124016,
        -0.286074 -0.289452 0.124016,
        -0.277920 -0.283195 0.124016,
        -0.268425 -0.279262 0.124016,
        -0.258235 -0.277920 0.124016,
        -0.248046 -0.279262 0.124016,
        -0.238550 -0.283195 0.124016,
        -0.238550 -0.351386 0.124016,
        -0.248046 -0.355319 0.124016,
        -0.258235 -0.356661 0.124016,
        -0.297606 -0.317291 0.124016,
        -0.296264 -0.307101 0.124016,
        -0.292331 -0.297606 0.124016,
        -0.218865 -0.317291 0.116142,
        -0.220207 -0.307101 0.116142,
        -0.224140 -0.297606 0.116142,
        -0.230397 -0.289452 0.116142,
        -0.238550 -0.283195 0.116142,
        -0.248046 -0.279262 0.116142,
        -0.258235 -0.277920 0.116142,
        -0.268425 -0.279262 0.116142,
        -0.277920 -0.283195 0.116142,
        -0.286074 -0.289452 0.116142,
        -0.292331 -0.297606 0.116142,
        -0.296264 -0.307101 0.116142,
        -0.297606 -0.317291 0.116142,
        -0.296264 -0.327480 0.116142,
        -0.292331 -0.336976 0.116142,
        -0.286074 -0.345130 0.116142,
        -0.277920 -0.351386 0.116142,
        -0.268425 -0.355319 0.116142,
        -0.258235 -0.356661 0.116142,
        -0.248046 -0.355319 0.116142,
        -0.238550 -0.351386 0.116142,
        -0.230397 -0.345130 0.116142,
        -0.224140 -0.336976 0.116142,
        -0.220207 -0.327480 0.116142,
        -0.258235 -0.317291 0.116142,
      ]
    }
    coordIndex [
      24, 1, 25, -1,
      25, 1, 0, -1,
      25, 0, 26, -1,
      26, 0, 10, -1,
      26, 10, 27, -1,
      27, 10, 11, -1,
      27, 11, 28, -1,
      28, 11, 17, -1,
      28, 17, 29, -1,
      29, 17, 16, -1,
      29, 16, 30, -1,
      30, 16, 15, -1,
      30, 15, 31, -1,
      31, 15, 14, -1,
      31, 14, 32, -1,
      32, 14, 13, -1,
      32, 13, 33, -1,
      33, 13, 12, -1,
      33, 12, 34, -1,
      34, 12, 23, -1,
      34, 23, 35, -1,
      35, 23, 22, -1,
      35, 22, 36, -1,
      36, 22, 21, -1,
      36, 21, 37, -1,
      37, 21, 9, -1,
      37, 9, 38, -1,
      38, 9, 8, -1,
      38, 8, 39, -1,
      39, 8, 7, -1,
      39, 7, 40, -1,
      40, 7, 3, -1,
      40, 3, 41, -1,
      41, 3, 2, -1,
      41, 2, 42, -1,
      42, 2, 20, -1,
      42, 20, 43, -1,
      43, 20, 19, -1,
      43, 19, 44, -1,
      44, 19, 18, -1,
      44, 18, 45, -1,
      45, 18, 6, -1,
      45, 6, 46, -1,
      46, 6, 5, -1,
      46, 5, 47, -1,
      47, 5, 4, -1,
      47, 4, 24, -1,
      24, 4, 1, -1,
      46, 47, 48, -1,
      48, 47, 24, -1,
      48, 24, 25, -1,
      43, 44, 48, -1,
      48, 44, 45, -1,
      48, 45, 46, -1,
      40, 41, 48, -1,
      48, 41, 42, -1,
      48, 42, 43, -1,
      37, 38, 48, -1,
      48, 38, 39, -1,
      48, 39, 40, -1,
      34, 35, 48, -1,
      48, 35, 36, -1,
      48, 36, 37, -1,
      31, 32, 48, -1,
      48, 32, 33, -1,
      48, 33, 34, -1,
      28, 29, 48, -1,
      48, 29, 30, -1,
      48, 30, 31, -1,
      25, 26, 48, -1,
      48, 26, 27, -1,
      48, 27, 28, -1,
    ]
  }
}

Shape {
  appearance Appearance {
    material Material {
      diffuseColor 0.6667 0.6667 0.6667
      specularColor 0.4667 0.4667 0.4667
      ambientIntensity 0.2
      transparency 0.0000
      shininess 0.5
    }
  }
  geometry IndexedFaceSet {
    ccw TRUE
    solid FALSE
    coord DEF co Coordinate {
      point [
        -0.336614 -0.452756 0.025591,
        -0.336614 -0.452756 -0.025591,
        -0.253937 -0.452756 -0.025591,
        -0.139764 -0.452756 -0.025591,
        -0.253937 -0.452756 0.025591,
        -0.139764 -0.452756 0.025591,
        -0.057087 -0.452756 -0.025591,
        0.057087 -0.452756 -0.025591,
        -0.057087 -0.452756 0.025591,
        0.057087 -0.452756 0.025591,
        0.336614 -0.452756 -0.025591,
        0.336614 -0.452756 0.025591,
        -0.336614 0.452756 -0.025591,
        -0.336614 0.452756 0.025591,
        -0.253937 0.452756 0.025591,
        -0.139764 0.452756 0.025591,
        -0.253937 0.452756 -0.025591,
        -0.139764 0.452756 -0.025591,
        -0.057087 0.452756 0.025591,
        0.057087 0.452756 0.025591,
        -0.057087 0.452756 -0.025591,
        0.057087 0.452756 -0.025591,
        0.139764 0.452756 0.025591,
        0.253937 0.452756 0.025591,
        0.139764 0.452756 -0.025591,
        0.253937 0.452756 -0.025591,
        0.336614 0.452756 0.025591,
        0.336614 0.452756 -0.025591,
        0.139764 -0.452756 -0.025591,
        0.253937 -0.452756 -0.025591,
        0.139764 -0.452756 0.025591,
        0.253937 -0.452756 0.025591,
        0.336614 0.610236 -0.210630,
        0.336614 0.556083 -0.210630,
        0.253937 0.610236 -0.210630,
        0.253937 0.556083 -0.210630,
        0.336614 0.610236 -0.159449,
        0.253937 0.610236 -0.159449,
        0.336614 0.556083 -0.159449,
        0.253937 0.556083 -0.159449,
        0.336614 0.554156 -0.159209,
        0.253937 0.554156 -0.159209,
        0.336614 0.552346 -0.158506,
        0.253937 0.552346 -0.158506,
        0.336614 0.550763 -0.157380,
        0.253937 0.550763 -0.157380,
        0.336614 0.549504 -0.155902,
        0.253937 0.549504 -0.155902,
        0.336614 0.548645 -0.154160,
        0.253937 0.548645 -0.154160,
        0.336614 0.548239 -0.152261,
        0.253937 0.548239 -0.152261,
        0.336614 0.537395 -0.028318,
        0.253937 0.537395 -0.028318,
        0.253937 0.534346 -0.014076,
        0.336614 0.534346 -0.014076,
        0.253937 0.527904 -0.001013,
        0.336614 0.527904 -0.001013,
        0.253937 0.518461 0.010076,
        0.336614 0.518461 0.010076,
        0.253937 0.506592 0.018516,
        0.336614 0.506592 0.018516,
        0.253937 0.493018 0.023794,
        0.336614 0.493018 0.023794,
        0.253937 0.478565 0.025591,
        0.336614 0.478565 0.025591,
        0.336614 0.478565 -0.025591,
        0.253937 0.478565 -0.025591,
        0.336614 0.480491 -0.025830,
        0.253937 0.480491 -0.025830,
        0.336614 0.482302 -0.026534,
        0.253937 0.482302 -0.026534,
        0.336614 0.483884 -0.027659,
        0.253937 0.483884 -0.027659,
        0.336614 0.485143 -0.029138,
        0.253937 0.485143 -0.029138,
        0.336614 0.486002 -0.030880,
        0.253937 0.486002 -0.030880,
        0.336614 0.486409 -0.032778,
        0.253937 0.486409 -0.032778,
        0.336614 0.497252 -0.156722,
        0.253937 0.497252 -0.156722,
        0.253937 0.500301 -0.170964,
        0.336614 0.500301 -0.170964,
        0.253937 0.506743 -0.184026,
        0.336614 0.506743 -0.184026,
        0.253937 0.516185 -0.195115,
        0.336614 0.516185 -0.195115,
        0.253937 0.528055 -0.203555,
        0.336614 0.528055 -0.203555,
        0.253937 0.541629 -0.208834,
        0.336614 0.541629 -0.208834,
        0.139764 0.610236 -0.210630,
        0.139764 0.556083 -0.210630,
        0.057087 0.610236 -0.210630,
        0.057087 0.556083 -0.210630,
        0.139764 0.610236 -0.159449,
        0.057087 0.610236 -0.159449,
        0.139764 0.556083 -0.159449,
        0.057087 0.556083 -0.159449,
        0.139764 0.554156 -0.159209,
        0.057087 0.554156 -0.159209,
        0.139764 0.552346 -0.158506,
        0.057087 0.552346 -0.158506,
        0.139764 0.550763 -0.157380,
        0.057087 0.550763 -0.157380,
        0.139764 0.549504 -0.155902,
        0.057087 0.549504 -0.155902,
        0.139764 0.548645 -0.154160,
        0.057087 0.548645 -0.154160,
        0.139764 0.548239 -0.152261,
        0.057087 0.548239 -0.152261,
        0.139764 0.537395 -0.028318,
        0.057087 0.537395 -0.028318,
        0.057087 0.534346 -0.014076,
        0.139764 0.534346 -0.014076,
        0.057087 0.527904 -0.001013,
        0.139764 0.527904 -0.001013,
        0.057087 0.518461 0.010076,
        0.139764 0.518461 0.010076,
        0.057087 0.506592 0.018516,
        0.139764 0.506592 0.018516,
        0.057087 0.493018 0.023794,
        0.139764 0.493018 0.023794,
        0.057087 0.478565 0.025591,
        0.139764 0.478565 0.025591,
        0.139764 0.478565 -0.025591,
        0.057087 0.478565 -0.025591,
        0.139764 0.480491 -0.025830,
        0.057087 0.480491 -0.025830,
        0.139764 0.482302 -0.026534,
        0.057087 0.482302 -0.026534,
        0.139764 0.483884 -0.027659,
        0.057087 0.483884 -0.027659,
        0.139764 0.485143 -0.029138,
        0.057087 0.485143 -0.029138,
        0.139764 0.486002 -0.030880,
        0.057087 0.486002 -0.030880,
        0.139764 0.486409 -0.032778,
        0.057087 0.486409 -0.032778,
        0.139764 0.497252 -0.156722,
        0.057087 0.497252 -0.156722,
        0.057087 0.500301 -0.170964,
        0.139764 0.500301 -0.170964,
        0.057087 0.506743 -0.184026,
        0.139764 0.506743 -0.184026,
        0.057087 0.516185 -0.195115,
        0.139764 0.516185 -0.195115,
        0.057087 0.528055 -0.203555,
        0.139764 0.528055 -0.203555,
        0.057087 0.541629 -0.208834,
        0.139764 0.541629 -0.208834,
        -0.057087 0.610236 -0.210630,
        -0.057087 0.556083 -0.210630,
        -0.139764 0.610236 -0.210630,
        -0.139764 0.556083 -0.210630,
        -0.057087 0.610236 -0.159449,
        -0.139764 0.610236 -0.159449,
        -0.057087 0.556083 -0.159449,
        -0.139764 0.556083 -0.159449,
        -0.057087 0.554156 -0.159209,
        -0.139764 0.554156 -0.159209,
        -0.057087 0.552346 -0.158506,
        -0.139764 0.552346 -0.158506,
        -0.057087 0.550763 -0.157380,
        -0.139764 0.550763 -0.157380,
        -0.057087 0.549504 -0.155902,
        -0.139764 0.549504 -0.155902,
        -0.057087 0.548645 -0.154160,
        -0.139764 0.548645 -0.154160,
        -0.057087 0.548239 -0.152261,
        -0.139764 0.548239 -0.152261,
        -0.057087 0.537395 -0.028318,
        -0.139764 0.537395 -0.028318,
        -0.139764 0.534346 -0.014076,
        -0.057087 0.534346 -0.014076,
        -0.139764 0.527904 -0.001013,
        -0.057087 0.527904 -0.001013,
        -0.139764 0.518461 0.010076,
        -0.057087 0.518461 0.010076,
        -0.139764 0.506592 0.018516,
        -0.057087 0.506592 0.018516,
        -0.139764 0.493018 0.023794,
        -0.057087 0.493018 0.023794,
        -0.139764 0.478565 0.025591,
        -0.057087 0.478565 0.025591,
        -0.057087 0.478565 -0.025591,
        -0.139764 0.478565 -0.025591,
        -0.057087 0.480491 -0.025830,
        -0.139764 0.480491 -0.025830,
        -0.057087 0.482302 -0.026534,
        -0.139764 0.482302 -0.026534,
        -0.057087 0.483884 -0.027659,
        -0.139764 0.483884 -0.027659,
        -0.057087 0.485143 -0.029138,
        -0.139764 0.485143 -0.029138,
        -0.057087 0.486002 -0.030880,
        -0.139764 0.486002 -0.030880,
        -0.057087 0.486409 -0.032778,
        -0.139764 0.486409 -0.032778,
        -0.057087 0.497252 -0.156722,
        -0.139764 0.497252 -0.156722,
        -0.139764 0.500301 -0.170964,
        -0.057087 0.500301 -0.170964,
        -0.139764 0.506743 -0.184026,
        -0.057087 0.506743 -0.184026,
        -0.139764 0.516185 -0.195115,
        -0.057087 0.516185 -0.195115,
        -0.139764 0.528055 -0.203555,
        -0.057087 0.528055 -0.203555,
        -0.139764 0.541629 -0.208834,
        -0.057087 0.541629 -0.208834,
        -0.253937 0.610236 -0.210630,
        -0.253937 0.556083 -0.210630,
        -0.336614 0.610236 -0.210630,
        -0.336614 0.556083 -0.210630,
        -0.253937 0.610236 -0.159449,
        -0.336614 0.610236 -0.159449,
        -0.253937 0.556083 -0.159449,
        -0.336614 0.556083 -0.159449,
        -0.253937 0.554156 -0.159209,
        -0.336614 0.554156 -0.159209,
        -0.253937 0.552346 -0.158506,
        -0.336614 0.552346 -0.158506,
        -0.253937 0.550763 -0.157380,
        -0.336614 0.550763 -0.157380,
        -0.253937 0.549504 -0.155902,
        -0.336614 0.549504 -0.155902,
        -0.253937 0.548645 -0.154160,
        -0.336614 0.548645 -0.154160,
        -0.253937 0.548239 -0.152261,
        -0.336614 0.548239 -0.152261,
        -0.253937 0.537395 -0.028318,
        -0.336614 0.537395 -0.028318,
        -0.336614 0.534346 -0.014076,
        -0.253937 0.534346 -0.014076,
        -0.336614 0.527904 -0.001013,
        -0.253937 0.527904 -0.001013,
        -0.336614 0.518461 0.010076,
        -0.253937 0.518461 0.010076,
        -0.336614 0.506592 0.018516,
        -0.253937 0.506592 0.018516,
        -0.336614 0.493018 0.023794,
        -0.253937 0.493018 0.023794,
        -0.336614 0.478565 0.025591,
        -0.253937 0.478565 0.025591,
        -0.253937 0.478565 -0.025591,
        -0.336614 0.478565 -0.025591,
        -0.253937 0.480491 -0.025830,
        -0.336614 0.480491 -0.025830,
        -0.253937 0.482302 -0.026534,
        -0.336614 0.482302 -0.026534,
        -0.253937 0.483884 -0.027659,
        -0.336614 0.483884 -0.027659,
        -0.253937 0.485143 -0.029138,
        -0.336614 0.485143 -0.029138,
        -0.253937 0.486002 -0.030880,
        -0.336614 0.486002 -0.030880,
        -0.253937 0.486409 -0.032778,
        -0.336614 0.486409 -0.032778,
        -0.253937 0.497252 -0.156722,
        -0.336614 0.497252 -0.156722,
        -0.336614 0.500301 -0.170964,
        -0.253937 0.500301 -0.170964,
        -0.336614 0.506743 -0.184026,
        -0.253937 0.506743 -0.184026,
        -0.336614 0.516185 -0.195115,
        -0.253937 0.516185 -0.195115,
        -0.336614 0.528055 -0.203555,
        -0.253937 0.528055 -0.203555,
        -0.336614 0.541629 -0.208834,
        -0.253937 0.541629 -0.208834,
        0.336614 -0.556083 -0.210630,
        0.336614 -0.610236 -0.210630,
        0.253937 -0.556083 -0.210630,
        0.253937 -0.610236 -0.210630,
        0.253937 -0.541629 -0.208834,
        0.336614 -0.541629 -0.208834,
        0.253937 -0.528055 -0.203555,
        0.336614 -0.528055 -0.203555,
        0.253937 -0.516185 -0.195115,
        0.336614 -0.516185 -0.195115,
        0.253937 -0.506743 -0.184026,
        0.336614 -0.506743 -0.184026,
        0.253937 -0.500301 -0.170964,
        0.336614 -0.500301 -0.170964,
        0.253937 -0.497252 -0.156722,
        0.336614 -0.497252 -0.156722,
        0.336614 -0.486409 -0.032778,
        0.253937 -0.486409 -0.032778,
        0.336614 -0.486002 -0.030880,
        0.253937 -0.486002 -0.030880,
        0.336614 -0.485143 -0.029138,
        0.253937 -0.485143 -0.029138,
        0.336614 -0.483884 -0.027659,
        0.253937 -0.483884 -0.027659,
        0.336614 -0.482302 -0.026534,
        0.253937 -0.482302 -0.026534,
        0.336614 -0.480491 -0.025830,
        0.253937 -0.480491 -0.025830,
        0.336614 -0.478565 -0.025591,
        0.253937 -0.478565 -0.025591,
        0.336614 -0.478565 0.025591,
        0.253937 -0.478565 0.025591,
        0.253937 -0.493018 0.023794,
        0.336614 -0.493018 0.023794,
        0.253937 -0.506592 0.018516,
        0.336614 -0.506592 0.018516,
        0.253937 -0.518461 0.010076,
        0.336614 -0.518461 0.010076,
        0.253937 -0.527904 -0.001013,
        0.336614 -0.527904 -0.001013,
        0.253937 -0.534346 -0.014076,
        0.336614 -0.534346 -0.014076,
        0.253937 -0.537395 -0.028318,
        0.336614 -0.537395 -0.028318,
        0.336614 -0.548239 -0.152261,
        0.253937 -0.548239 -0.152261,
        0.336614 -0.548645 -0.154160,
        0.253937 -0.548645 -0.154160,
        0.336614 -0.549504 -0.155902,
        0.253937 -0.549504 -0.155902,
        0.336614 -0.550763 -0.157380,
        0.253937 -0.550763 -0.157380,
        0.336614 -0.552346 -0.158506,
        0.253937 -0.552346 -0.158506,
        0.336614 -0.554156 -0.159209,
        0.253937 -0.554156 -0.159209,
        0.336614 -0.556083 -0.159449,
        0.253937 -0.556083 -0.159449,
        0.336614 -0.610236 -0.159449,
        0.253937 -0.610236 -0.159449,
        0.139764 -0.556083 -0.210630,
        0.139764 -0.610236 -0.210630,
        0.057087 -0.556083 -0.210630,
        0.057087 -0.610236 -0.210630,
        0.057087 -0.541629 -0.208834,
        0.139764 -0.541629 -0.208834,
        0.057087 -0.528055 -0.203555,
        0.139764 -0.528055 -0.203555,
        0.057087 -0.516185 -0.195115,
        0.139764 -0.516185 -0.195115,
        0.057087 -0.506743 -0.184026,
        0.139764 -0.506743 -0.184026,
        0.057087 -0.500301 -0.170964,
        0.139764 -0.500301 -0.170964,
        0.057087 -0.497252 -0.156722,
        0.139764 -0.497252 -0.156722,
        0.139764 -0.486409 -0.032778,
        0.057087 -0.486409 -0.032778,
        0.139764 -0.486002 -0.030880,
        0.057087 -0.486002 -0.030880,
        0.139764 -0.485143 -0.029138,
        0.057087 -0.485143 -0.029138,
        0.139764 -0.483884 -0.027659,
        0.057087 -0.483884 -0.027659,
        0.139764 -0.482302 -0.026534,
        0.057087 -0.482302 -0.026534,
        0.139764 -0.480491 -0.025830,
        0.057087 -0.480491 -0.025830,
        0.139764 -0.478565 -0.025591,
        0.057087 -0.478565 -0.025591,
        0.139764 -0.478565 0.025591,
        0.057087 -0.478565 0.025591,
        0.057087 -0.493018 0.023794,
        0.139764 -0.493018 0.023794,
        0.057087 -0.506592 0.018516,
        0.139764 -0.506592 0.018516,
        0.057087 -0.518461 0.010076,
        0.139764 -0.518461 0.010076,
        0.057087 -0.527904 -0.001013,
        0.139764 -0.527904 -0.001013,
        0.057087 -0.534346 -0.014076,
        0.139764 -0.534346 -0.014076,
        0.057087 -0.537395 -0.028318,
        0.139764 -0.537395 -0.028318,
        0.139764 -0.548239 -0.152261,
        0.057087 -0.548239 -0.152261,
        0.139764 -0.548645 -0.154160,
        0.057087 -0.548645 -0.154160,
        0.139764 -0.549504 -0.155902,
        0.057087 -0.549504 -0.155902,
        0.139764 -0.550763 -0.157380,
        0.057087 -0.550763 -0.157380,
        0.139764 -0.552346 -0.158506,
        0.057087 -0.552346 -0.158506,
        0.139764 -0.554156 -0.159209,
        0.057087 -0.554156 -0.159209,
        0.139764 -0.556083 -0.159449,
        0.057087 -0.556083 -0.159449,
        0.139764 -0.610236 -0.159449,
        0.057087 -0.610236 -0.159449,
        -0.057087 -0.556083 -0.210630,
        -0.057087 -0.610236 -0.210630,
        -0.139764 -0.556083 -0.210630,
        -0.139764 -0.610236 -0.210630,
        -0.139764 -0.541629 -0.208834,
        -0.057087 -0.541629 -0.208834,
        -0.139764 -0.528055 -0.203555,
        -0.057087 -0.528055 -0.203555,
        -0.139764 -0.516185 -0.195115,
        -0.057087 -0.516185 -0.195115,
        -0.139764 -0.506743 -0.184026,
        -0.057087 -0.506743 -0.184026,
        -0.139764 -0.500301 -0.170964,
        -0.057087 -0.500301 -0.170964,
        -0.139764 -0.497252 -0.156722,
        -0.057087 -0.497252 -0.156722,
        -0.057087 -0.486409 -0.032778,
        -0.139764 -0.486409 -0.032778,
        -0.057087 -0.486002 -0.030880,
        -0.139764 -0.486002 -0.030880,
        -0.057087 -0.485143 -0.029138,
        -0.139764 -0.485143 -0.029138,
        -0.057087 -0.483884 -0.027659,
        -0.139764 -0.483884 -0.027659,
        -0.057087 -0.482302 -0.026534,
        -0.139764 -0.482302 -0.026534,
        -0.057087 -0.480491 -0.025830,
        -0.139764 -0.480491 -0.025830,
        -0.057087 -0.478565 -0.025591,
        -0.139764 -0.478565 -0.025591,
        -0.057087 -0.478565 0.025591,
        -0.139764 -0.478565 0.025591,
        -0.139764 -0.493018 0.023794,
        -0.057087 -0.493018 0.023794,
        -0.139764 -0.506592 0.018516,
        -0.057087 -0.506592 0.018516,
        -0.139764 -0.518461 0.010076,
        -0.057087 -0.518461 0.010076,
        -0.139764 -0.527904 -0.001013,
        -0.057087 -0.527904 -0.001013,
        -0.139764 -0.534346 -0.014076,
        -0.057087 -0.534346 -0.014076,
        -0.139764 -0.537395 -0.028318,
        -0.057087 -0.537395 -0.028318,
        -0.057087 -0.548239 -0.152261,
        -0.139764 -0.548239 -0.152261,
        -0.057087 -0.548645 -0.154160,
        -0.139764 -0.548645 -0.154160,
        -0.057087 -0.549504 -0.155902,
        -0.139764 -0.549504 -0.155902,
        -0.057087 -0.550763 -0.157380,
        -0.139764 -0.550763 -0.157380,
        -0.057087 -0.552346 -0.158506,
        -0.139764 -0.552346 -0.158506,
        -0.057087 -0.554156 -0.159209,
        -0.139764 -0.554156 -0.159209,
        -0.057087 -0.556083 -0.159449,
        -0.139764 -0.556083 -0.159449,
        -0.057087 -0.610236 -0.159449,
        -0.139764 -0.610236 -0.159449,
        -0.253937 -0.556083 -0.210630,
        -0.253937 -0.610236 -0.210630,
        -0.336614 -0.556083 -0.210630,
        -0.336614 -0.610236 -0.210630,
        -0.336614 -0.541629 -0.208834,
        -0.253937 -0.541629 -0.208834,
        -0.336614 -0.528055 -0.203555,
        -0.253937 -0.528055 -0.203555,
        -0.336614 -0.516185 -0.195115,
        -0.253937 -0.516185 -0.195115,
        -0.336614 -0.506743 -0.184026,
        -0.253937 -0.506743 -0.184026,
        -0.336614 -0.500301 -0.170964,
        -0.253937 -0.500301 -0.170964,
        -0.336614 -0.497252 -0.156722,
        -0.253937 -0.497252 -0.156722,
        -0.253937 -0.486409 -0.032778,
        -0.336614 -0.486409 -0.032778,
        -0.253937 -0.486002 -0.030880,
        -0.336614 -0.486002 -0.030880,
        -0.253937 -0.485143 -0.029138,
        -0.336614 -0.485143 -0.029138,
        -0.253937 -0.483884 -0.027659,
        -0.336614 -0.483884 -0.027659,
        -0.253937 -0.482302 -0.026534,
        -0.336614 -0.482302 -0.026534,
        -0.253937 -0.480491 -0.025830,
        -0.336614 -0.480491 -0.025830,
        -0.253937 -0.478565 -0.025591,
        -0.336614 -0.478565 -0.025591,
        -0.253937 -0.478565 0.025591,
        -0.336614 -0.478565 0.025591,
        -0.336614 -0.493018 0.023794,
        -0.253937 -0.493018 0.023794,
        -0.336614 -0.506592 0.018516,
        -0.253937 -0.506592 0.018516,
        -0.336614 -0.518461 0.010076,
        -0.253937 -0.518461 0.010076,
        -0.336614 -0.527904 -0.001013,
        -0.253937 -0.527904 -0.001013,
        -0.336614 -0.534346 -0.014076,
        -0.253937 -0.534346 -0.014076,
        -0.336614 -0.537395 -0.028318,
        -0.253937 -0.537395 -0.028318,
        -0.253937 -0.548239 -0.152261,
        -0.336614 -0.548239 -0.152261,
        -0.253937 -0.548645 -0.154160,
        -0.336614 -0.548645 -0.154160,
        -0.253937 -0.549504 -0.155902,
        -0.336614 -0.549504 -0.155902,
        -0.253937 -0.550763 -0.157380,
        -0.336614 -0.550763 -0.157380,
        -0.253937 -0.552346 -0.158506,
        -0.336614 -0.552346 -0.158506,
        -0.253937 -0.554156 -0.159209,
        -0.336614 -0.554156 -0.159209,
        -0.253937 -0.556083 -0.159449,
        -0.336614 -0.556083 -0.159449,
        -0.253937 -0.610236 -0.159449,
        -0.336614 -0.610236 -0.159449,
      ]
    }
    coordIndex [
      32, 33, 34, -1,
      34, 33, 35, -1,
      36, 32, 37, -1,
      37, 32, 34, -1,
      38, 36, 39, -1,
      39, 36, 37, -1,
      38, 39, 40, -1,
      40, 39, 41, -1,
      40, 41, 42, -1,
      42, 41, 43, -1,
      42, 43, 44, -1,
      44, 43, 45, -1,
      44, 45, 46, -1,
      46, 45, 47, -1,
      46, 47, 48, -1,
      48, 47, 49, -1,
      48, 49, 50, -1,
      50, 49, 51, -1,
      52, 50, 53, -1,
      53, 50, 51, -1,
      52, 53, 54, -1,
      52, 54, 55, -1,
      55, 54, 56, -1,
      55, 56, 57, -1,
      57, 56, 58, -1,
      57, 58, 59, -1,
      59, 58, 60, -1,
      59, 60, 61, -1,
      61, 60, 62, -1,
      61, 62, 63, -1,
      63, 62, 64, -1,
      63, 64, 65, -1,
      26, 65, 23, -1,
      23, 65, 64, -1,
      66, 27, 67, -1,
      67, 27, 25, -1,
      66, 67, 68, -1,
      68, 67, 69, -1,
      68, 69, 70, -1,
      70, 69, 71, -1,
      70, 71, 72, -1,
      72, 71, 73, -1,
      72, 73, 74, -1,
      74, 73, 75, -1,
      74, 75, 76, -1,
      76, 75, 77, -1,
      76, 77, 78, -1,
      78, 77, 79, -1,
      80, 78, 81, -1,
      81, 78, 79, -1,
      80, 81, 82, -1,
      80, 82, 83, -1,
      83, 82, 84, -1,
      83, 84, 85, -1,
      85, 84, 86, -1,
      85, 86, 87, -1,
      87, 86, 88, -1,
      87, 88, 89, -1,
      89, 88, 90, -1,
      89, 90, 91, -1,
      91, 90, 35, -1,
      91, 35, 33, -1,
      26, 27, 65, -1,
      65, 27, 66, -1,
      65, 66, 63, -1,
      63, 66, 68, -1,
      63, 68, 61, -1,
      61, 68, 70, -1,
      61, 70, 59, -1,
      59, 70, 72, -1,
      59, 72, 57, -1,
      57, 72, 74, -1,
      57, 74, 55, -1,
      55, 74, 76, -1,
      55, 76, 52, -1,
      52, 76, 78, -1,
      52, 78, 50, -1,
      50, 78, 80, -1,
      50, 80, 48, -1,
      48, 80, 83, -1,
      48, 83, 46, -1,
      46, 83, 85, -1,
      46, 85, 44, -1,
      44, 85, 87, -1,
      44, 87, 42, -1,
      42, 87, 89, -1,
      42, 89, 40, -1,
      40, 89, 91, -1,
      40, 91, 38, -1,
      38, 91, 33, -1,
      38, 33, 36, -1,
      36, 33, 32, -1,
      25, 23, 67, -1,
      67, 23, 64, -1,
      67, 64, 69, -1,
      69, 64, 62, -1,
      69, 62, 71, -1,
      71, 62, 60, -1,
      71, 60, 73, -1,
      73, 60, 58, -1,
      73, 58, 75, -1,
      75, 58, 56, -1,
      75, 56, 77, -1,
      77, 56, 54, -1,
      77, 54, 79, -1,
      79, 54, 53, -1,
      79, 53, 81, -1,
      81, 53, 51, -1,
      81, 51, 82, -1,
      82, 51, 49, -1,
      82, 49, 84, -1,
      84, 49, 47, -1,
      84, 47, 86, -1,
      86, 47, 45, -1,
      86, 45, 88, -1,
      88, 45, 43, -1,
      88, 43, 90, -1,
      90, 43, 41, -1,
      90, 41, 35, -1,
      35, 41, 39, -1,
      35, 39, 34, -1,
      34, 39, 37, -1,
      92, 93, 94, -1,
      94, 93, 95, -1,
      96, 92, 97, -1,
      97, 92, 94, -1,
      98, 96, 99, -1,
      99, 96, 97, -1,
      98, 99, 100, -1,
      100, 99, 101, -1,
      100, 101, 102, -1,
      102, 101, 103, -1,
      102, 103, 104, -1,
      104, 103, 105, -1,
      104, 105, 106, -1,
      106, 105, 107, -1,
      106, 107, 108, -1,
      108, 107, 109, -1,
      108, 109, 110, -1,
      110, 109, 111, -1,
      112, 110, 113, -1,
      113, 110, 111, -1,
      112, 113, 114, -1,
      112, 114, 115, -1,
      115, 114, 116, -1,
      115, 116, 117, -1,
      117, 116, 118, -1,
      117, 118, 119, -1,
      119, 118, 120, -1,
      119, 120, 121, -1,
      121, 120, 122, -1,
      121, 122, 123, -1,
      123, 122, 124, -1,
      123, 124, 125, -1,
      22, 125, 19, -1,
      19, 125, 124, -1,
      126, 24, 127, -1,
      127, 24, 21, -1,
      126, 127, 128, -1,
      128, 127, 129, -1,
      128, 129, 130, -1,
      130, 129, 131, -1,
      130, 131, 132, -1,
      132, 131, 133, -1,
      132, 133, 134, -1,
      134, 133, 135, -1,
      134, 135, 136, -1,
      136, 135, 137, -1,
      136, 137, 138, -1,
      138, 137, 139, -1,
      140, 138, 141, -1,
      141, 138, 139, -1,
      140, 141, 142, -1,
      140, 142, 143, -1,
      143, 142, 144, -1,
      143, 144, 145, -1,
      145, 144, 146, -1,
      145, 146, 147, -1,
      147, 146, 148, -1,
      147, 148, 149, -1,
      149, 148, 150, -1,
      149, 150, 151, -1,
      151, 150, 95, -1,
      151, 95, 93, -1,
      22, 24, 125, -1,
      125, 24, 126, -1,
      125, 126, 123, -1,
      123, 126, 128, -1,
      123, 128, 121, -1,
      121, 128, 130, -1,
      121, 130, 119, -1,
      119, 130, 132, -1,
      119, 132, 117, -1,
      117, 132, 134, -1,
      117, 134, 115, -1,
      115, 134, 136, -1,
      115, 136, 112, -1,
      112, 136, 138, -1,
      112, 138, 110, -1,
      110, 138, 140, -1,
      110, 140, 108, -1,
      108, 140, 143, -1,
      108, 143, 106, -1,
      106, 143, 145, -1,
      106, 145, 104, -1,
      104, 145, 147, -1,
      104, 147, 102, -1,
      102, 147, 149, -1,
      102, 149, 100, -1,
      100, 149, 151, -1,
      100, 151, 98, -1,
      98, 151, 93, -1,
      98, 93, 96, -1,
      96, 93, 92, -1,
      21, 19, 127, -1,
      127, 19, 124, -1,
      127, 124, 129, -1,
      129, 124, 122, -1,
      129, 122, 131, -1,
      131, 122, 120, -1,
      131, 120, 133, -1,
      133, 120, 118, -1,
      133, 118, 135, -1,
      135, 118, 116, -1,
      135, 116, 137, -1,
      137, 116, 114, -1,
      137, 114, 139, -1,
      139, 114, 113, -1,
      139, 113, 141, -1,
      141, 113, 111, -1,
      141, 111, 142, -1,
      142, 111, 109, -1,
      142, 109, 144, -1,
      144, 109, 107, -1,
      144, 107, 146, -1,
      146, 107, 105, -1,
      146, 105, 148, -1,
      148, 105, 103, -1,
      148, 103, 150, -1,
      150, 103, 101, -1,
      150, 101, 95, -1,
      95, 101, 99, -1,
      95, 99, 94, -1,
      94, 99, 97, -1,
      152, 153, 154, -1,
      154, 153, 155, -1,
      156, 152, 157, -1,
      157, 152, 154, -1,
      158, 156, 159, -1,
      159, 156, 157, -1,
      158, 159, 160, -1,
      160, 159, 161, -1,
      160, 161, 162, -1,
      162, 161, 163, -1,
      162, 163, 164, -1,
      164, 163, 165, -1,
      164, 165, 166, -1,
      166, 165, 167, -1,
      166, 167, 168, -1,
      168, 167, 169, -1,
      168, 169, 170, -1,
      170, 169, 171, -1,
      172, 170, 173, -1,
      173, 170, 171, -1,
      172, 173, 174, -1,
      172, 174, 175, -1,
      175, 174, 176, -1,
      175, 176, 177, -1,
      177, 176, 178, -1,
      177, 178, 179, -1,
      179, 178, 180, -1,
      179, 180, 181, -1,
      181, 180, 182, -1,
      181, 182, 183, -1,
      183, 182, 184, -1,
      183, 184, 185, -1,
      18, 185, 15, -1,
      15, 185, 184, -1,
      186, 20, 187, -1,
      187, 20, 17, -1,
      186, 187, 188, -1,
      188, 187, 189, -1,
      188, 189, 190, -1,
      190, 189, 191, -1,
      190, 191, 192, -1,
      192, 191, 193, -1,
      192, 193, 194, -1,
      194, 193, 195, -1,
      194, 195, 196, -1,
      196, 195, 197, -1,
      196, 197, 198, -1,
      198, 197, 199, -1,
      200, 198, 201, -1,
      201, 198, 199, -1,
      200, 201, 202, -1,
      200, 202, 203, -1,
      203, 202, 204, -1,
      203, 204, 205, -1,
      205, 204, 206, -1,
      205, 206, 207, -1,
      207, 206, 208, -1,
      207, 208, 209, -1,
      209, 208, 210, -1,
      209, 210, 211, -1,
      211, 210, 155, -1,
      211, 155, 153, -1,
      18, 20, 185, -1,
      185, 20, 186, -1,
      185, 186, 183, -1,
      183, 186, 188, -1,
      183, 188, 181, -1,
      181, 188, 190, -1,
      181, 190, 179, -1,
      179, 190, 192, -1,
      179, 192, 177, -1,
      177, 192, 194, -1,
      177, 194, 175, -1,
      175, 194, 196, -1,
      175, 196, 172, -1,
      172, 196, 198, -1,
      172, 198, 170, -1,
      170, 198, 200, -1,
      170, 200, 168, -1,
      168, 200, 203, -1,
      168, 203, 166, -1,
      166, 203, 205, -1,
      166, 205, 164, -1,
      164, 205, 207, -1,
      164, 207, 162, -1,
      162, 207, 209, -1,
      162, 209, 160, -1,
      160, 209, 211, -1,
      160, 211, 158, -1,
      158, 211, 153, -1,
      158, 153, 156, -1,
      156, 153, 152, -1,
      17, 15, 187, -1,
      187, 15, 184, -1,
      187, 184, 189, -1,
      189, 184, 182, -1,
      189, 182, 191, -1,
      191, 182, 180, -1,
      191, 180, 193, -1,
      193, 180, 178, -1,
      193, 178, 195, -1,
      195, 178, 176, -1,
      195, 176, 197, -1,
      197, 176, 174, -1,
      197, 174, 199, -1,
      199, 174, 173, -1,
      199, 173, 201, -1,
      201, 173, 171, -1,
      201, 171, 202, -1,
      202, 171, 169, -1,
      202, 169, 204, -1,
      204, 169, 167, -1,
      204, 167, 206, -1,
      206, 167, 165, -1,
      206, 165, 208, -1,
      208, 165, 163, -1,
      208, 163, 210, -1,
      210, 163, 161, -1,
      210, 161, 155, -1,
      155, 161, 159, -1,
      155, 159, 154, -1,
      154, 159, 157, -1,
      212, 213, 214, -1,
      214, 213, 215, -1,
      216, 212, 217, -1,
      217, 212, 214, -1,
      218, 216, 219, -1,
      219, 216, 217, -1,
      218, 219, 220, -1,
      220, 219, 221, -1,
      220, 221, 222, -1,
      222, 221, 223, -1,
      222, 223, 224, -1,
      224, 223, 225, -1,
      224, 225, 226, -1,
      226, 225, 227, -1,
      226, 227, 228, -1,
      228, 227, 229, -1,
      228, 229, 230, -1,
      230, 229, 231, -1,
      232, 230, 233, -1,
      233, 230, 231, -1,
      232, 233, 234, -1,
      232, 234, 235, -1,
      235, 234, 236, -1,
      235, 236, 237, -1,
      237, 236, 238, -1,
      237, 238, 239, -1,
      239, 238, 240, -1,
      239, 240, 241, -1,
      241, 240, 242, -1,
      241, 242, 243, -1,
      243, 242, 244, -1,
      243, 244, 245, -1,
      14, 245, 13, -1,
      13, 245, 244, -1,
      246, 16, 247, -1,
      247, 16, 12, -1,
      246, 247, 248, -1,
      248, 247, 249, -1,
      248, 249, 250, -1,
      250, 249, 251, -1,
      250, 251, 252, -1,
      252, 251, 253, -1,
      252, 253, 254, -1,
      254, 253, 255, -1,
      254, 255, 256, -1,
      256, 255, 257, -1,
      256, 257, 258, -1,
      258, 257, 259, -1,
      260, 258, 261, -1,
      261, 258, 259, -1,
      260, 261, 262, -1,
      260, 262, 263, -1,
      263, 262, 264, -1,
      263, 264, 265, -1,
      265, 264, 266, -1,
      265, 266, 267, -1,
      267, 266, 268, -1,
      267, 268, 269, -1,
      269, 268, 270, -1,
      269, 270, 271, -1,
      271, 270, 215, -1,
      271, 215, 213, -1,
      14, 16, 245, -1,
      245, 16, 246, -1,
      245, 246, 243, -1,
      243, 246, 248, -1,
      243, 248, 241, -1,
      241, 248, 250, -1,
      241, 250, 239, -1,
      239, 250, 252, -1,
      239, 252, 237, -1,
      237, 252, 254, -1,
      237, 254, 235, -1,
      235, 254, 256, -1,
      235, 256, 232, -1,
      232, 256, 258, -1,
      232, 258, 230, -1,
      230, 258, 260, -1,
      230, 260, 228, -1,
      228, 260, 263, -1,
      228, 263, 226, -1,
      226, 263, 265, -1,
      226, 265, 224, -1,
      224, 265, 267, -1,
      224, 267, 222, -1,
      222, 267, 269, -1,
      222, 269, 220, -1,
      220, 269, 271, -1,
      220, 271, 218, -1,
      218, 271, 213, -1,
      218, 213, 216, -1,
      216, 213, 212, -1,
      12, 13, 247, -1,
      247, 13, 244, -1,
      247, 244, 249, -1,
      249, 244, 242, -1,
      249, 242, 251, -1,
      251, 242, 240, -1,
      251, 240, 253, -1,
      253, 240, 238, -1,
      253, 238, 255, -1,
      255, 238, 236, -1,
      255, 236, 257, -1,
      257, 236, 234, -1,
      257, 234, 259, -1,
      259, 234, 233, -1,
      259, 233, 261, -1,
      261, 233, 231, -1,
      261, 231, 262, -1,
      262, 231, 229, -1,
      262, 229, 264, -1,
      264, 229, 227, -1,
      264, 227, 266, -1,
      266, 227, 225, -1,
      266, 225, 268, -1,
      268, 225, 223, -1,
      268, 223, 270, -1,
      270, 223, 221, -1,
      270, 221, 215, -1,
      215, 221, 219, -1,
      215, 219, 214, -1,
      214, 219, 217, -1,
      272, 273, 274, -1,
      274, 273, 275, -1,
      272, 274, 276, -1,
      272, 276, 277, -1,
      277, 276, 278, -1,
      277, 278, 279, -1,
      279, 278, 280, -1,
      279, 280, 281, -1,
      281, 280, 282, -1,
      281, 282, 283, -1,
      283, 282, 284, -1,
      283, 284, 285, -1,
      285, 284, 286, -1,
      285, 286, 287, -1,
      288, 287, 289, -1,
      289, 287, 286, -1,
      288, 289, 290, -1,
      290, 289, 291, -1,
      290, 291, 292, -1,
      292, 291, 293, -1,
      292, 293, 294, -1,
      294, 293, 295, -1,
      294, 295, 296, -1,
      296, 295, 297, -1,
      296, 297, 298, -1,
      298, 297, 299, -1,
      298, 299, 300, -1,
      300, 299, 301, -1,
      10, 300, 29, -1,
      29, 300, 301, -1,
      302, 11, 303, -1,
      303, 11, 31, -1,
      302, 303, 304, -1,
      302, 304, 305, -1,
      305, 304, 306, -1,
      305, 306, 307, -1,
      307, 306, 308, -1,
      307, 308, 309, -1,
      309, 308, 310, -1,
      309, 310, 311, -1,
      311, 310, 312, -1,
      311, 312, 313, -1,
      313, 312, 314, -1,
      313, 314, 315, -1,
      316, 315, 317, -1,
      317, 315, 314, -1,
      316, 317, 318, -1,
      318, 317, 319, -1,
      318, 319, 320, -1,
      320, 319, 321, -1,
      320, 321, 322, -1,
      322, 321, 323, -1,
      322, 323, 324, -1,
      324, 323, 325, -1,
      324, 325, 326, -1,
      326, 325, 327, -1,
      326, 327, 328, -1,
      328, 327, 329, -1,
      330, 328, 331, -1,
      331, 328, 329, -1,
      273, 330, 275, -1,
      275, 330, 331, -1,
      10, 11, 300, -1,
      300, 11, 302, -1,
      300, 302, 298, -1,
      298, 302, 305, -1,
      298, 305, 296, -1,
      296, 305, 307, -1,
      296, 307, 294, -1,
      294, 307, 309, -1,
      294, 309, 292, -1,
      292, 309, 311, -1,
      292, 311, 290, -1,
      290, 311, 313, -1,
      290, 313, 288, -1,
      288, 313, 315, -1,
      288, 315, 287, -1,
      287, 315, 316, -1,
      287, 316, 285, -1,
      285, 316, 318, -1,
      285, 318, 283, -1,
      283, 318, 320, -1,
      283, 320, 281, -1,
      281, 320, 322, -1,
      281, 322, 279, -1,
      279, 322, 324, -1,
      279, 324, 277, -1,
      277, 324, 326, -1,
      277, 326, 272, -1,
      272, 326, 328, -1,
      272, 328, 273, -1,
      273, 328, 330, -1,
      31, 29, 303, -1,
      303, 29, 301, -1,
      303, 301, 304, -1,
      304, 301, 299, -1,
      304, 299, 306, -1,
      306, 299, 297, -1,
      306, 297, 308, -1,
      308, 297, 295, -1,
      308, 295, 310, -1,
      310, 295, 293, -1,
      310, 293, 312, -1,
      312, 293, 291, -1,
      312, 291, 314, -1,
      314, 291, 289, -1,
      314, 289, 317, -1,
      317, 289, 286, -1,
      317, 286, 319, -1,
      319, 286, 284, -1,
      319, 284, 321, -1,
      321, 284, 282, -1,
      321, 282, 323, -1,
      323, 282, 280, -1,
      323, 280, 325, -1,
      325, 280, 278, -1,
      325, 278, 327, -1,
      327, 278, 276, -1,
      327, 276, 329, -1,
      329, 276, 274, -1,
      329, 274, 331, -1,
      331, 274, 275, -1,
      332, 333, 334, -1,
      334, 333, 335, -1,
      332, 334, 336, -1,
      332, 336, 337, -1,
      337, 336, 338, -1,
      337, 338, 339, -1,
      339, 338, 340, -1,
      339, 340, 341, -1,
      341, 340, 342, -1,
      341, 342, 343, -1,
      343, 342, 344, -1,
      343, 344, 345, -1,
      345, 344, 346, -1,
      345, 346, 347, -1,
      348, 347, 349, -1,
      349, 347, 346, -1,
      348, 349, 350, -1,
      350, 349, 351, -1,
      350, 351, 352, -1,
      352, 351, 353, -1,
      352, 353, 354, -1,
      354, 353, 355, -1,
      354, 355, 356, -1,
      356, 355, 357, -1,
      356, 357, 358, -1,
      358, 357, 359, -1,
      358, 359, 360, -1,
      360, 359, 361, -1,
      28, 360, 7, -1,
      7, 360, 361, -1,
      362, 30, 363, -1,
      363, 30, 9, -1,
      362, 363, 364, -1,
      362, 364, 365, -1,
      365, 364, 366, -1,
      365, 366, 367, -1,
      367, 366, 368, -1,
      367, 368, 369, -1,
      369, 368, 370, -1,
      369, 370, 371, -1,
      371, 370, 372, -1,
      371, 372, 373, -1,
      373, 372, 374, -1,
      373, 374, 375, -1,
      376, 375, 377, -1,
      377, 375, 374, -1,
      376, 377, 378, -1,
      378, 377, 379, -1,
      378, 379, 380, -1,
      380, 379, 381, -1,
      380, 381, 382, -1,
      382, 381, 383, -1,
      382, 383, 384, -1,
      384, 383, 385, -1,
      384, 385, 386, -1,
      386, 385, 387, -1,
      386, 387, 388, -1,
      388, 387, 389, -1,
      390, 388, 391, -1,
      391, 388, 389, -1,
      333, 390, 335, -1,
      335, 390, 391, -1,
      28, 30, 360, -1,
      360, 30, 362, -1,
      360, 362, 358, -1,
      358, 362, 365, -1,
      358, 365, 356, -1,
      356, 365, 367, -1,
      356, 367, 354, -1,
      354, 367, 369, -1,
      354, 369, 352, -1,
      352, 369, 371, -1,
      352, 371, 350, -1,
      350, 371, 373, -1,
      350, 373, 348, -1,
      348, 373, 375, -1,
      348, 375, 347, -1,
      347, 375, 376, -1,
      347, 376, 345, -1,
      345, 376, 378, -1,
      345, 378, 343, -1,
      343, 378, 380, -1,
      343, 380, 341, -1,
      341, 380, 382, -1,
      341, 382, 339, -1,
      339, 382, 384, -1,
      339, 384, 337, -1,
      337, 384, 386, -1,
      337, 386, 332, -1,
      332, 386, 388, -1,
      332, 388, 333, -1,
      333, 388, 390, -1,
      9, 7, 363, -1,
      363, 7, 361, -1,
      363, 361, 364, -1,
      364, 361, 359, -1,
      364, 359, 366, -1,
      366, 359, 357, -1,
      366, 357, 368, -1,
      368, 357, 355, -1,
      368, 355, 370, -1,
      370, 355, 353, -1,
      370, 353, 372, -1,
      372, 353, 351, -1,
      372, 351, 374, -1,
      374, 351, 349, -1,
      374, 349, 377, -1,
      377, 349, 346, -1,
      377, 346, 379, -1,
      379, 346, 344, -1,
      379, 344, 381, -1,
      381, 344, 342, -1,
      381, 342, 383, -1,
      383, 342, 340, -1,
      383, 340, 385, -1,
      385, 340, 338, -1,
      385, 338, 387, -1,
      387, 338, 336, -1,
      387, 336, 389, -1,
      389, 336, 334, -1,
      389, 334, 391, -1,
      391, 334, 335, -1,
      392, 393, 394, -1,
      394, 393, 395, -1,
      392, 394, 396, -1,
      392, 396, 397, -1,
      397, 396, 398, -1,
      397, 398, 399, -1,
      399, 398, 400, -1,
      399, 400, 401, -1,
      401, 400, 402, -1,
      401, 402, 403, -1,
      403, 402, 404, -1,
      403, 404, 405, -1,
      405, 404, 406, -1,
      405, 406, 407, -1,
      408, 407, 409, -1,
      409, 407, 406, -1,
      408, 409, 410, -1,
      410, 409, 411, -1,
      410, 411, 412, -1,
      412, 411, 413, -1,
      412, 413, 414, -1,
      414, 413, 415, -1,
      414, 415, 416, -1,
      416, 415, 417, -1,
      416, 417, 418, -1,
      418, 417, 419, -1,
      418, 419, 420, -1,
      420, 419, 421, -1,
      6, 420, 3, -1,
      3, 420, 421, -1,
      422, 8, 423, -1,
      423, 8, 5, -1,
      422, 423, 424, -1,
      422, 424, 425, -1,
      425, 424, 426, -1,
      425, 426, 427, -1,
      427, 426, 428, -1,
      427, 428, 429, -1,
      429, 428, 430, -1,
      429, 430, 431, -1,
      431, 430, 432, -1,
      431, 432, 433, -1,
      433, 432, 434, -1,
      433, 434, 435, -1,
      436, 435, 437, -1,
      437, 435, 434, -1,
      436, 437, 438, -1,
      438, 437, 439, -1,
      438, 439, 440, -1,
      440, 439, 441, -1,
      440, 441, 442, -1,
      442, 441, 443, -1,
      442, 443, 444, -1,
      444, 443, 445, -1,
      444, 445, 446, -1,
      446, 445, 447, -1,
      446, 447, 448, -1,
      448, 447, 449, -1,
      450, 448, 451, -1,
      451, 448, 449, -1,
      393, 450, 395, -1,
      395, 450, 451, -1,
      6, 8, 420, -1,
      420, 8, 422, -1,
      420, 422, 418, -1,
      418, 422, 425, -1,
      418, 425, 416, -1,
      416, 425, 427, -1,
      416, 427, 414, -1,
      414, 427, 429, -1,
      414, 429, 412, -1,
      412, 429, 431, -1,
      412, 431, 410, -1,
      410, 431, 433, -1,
      410, 433, 408, -1,
      408, 433, 435, -1,
      408, 435, 407, -1,
      407, 435, 436, -1,
      407, 436, 405, -1,
      405, 436, 438, -1,
      405, 438, 403, -1,
      403, 438, 440, -1,
      403, 440, 401, -1,
      401, 440, 442, -1,
      401, 442, 399, -1,
      399, 442, 444, -1,
      399, 444, 397, -1,
      397, 444, 446, -1,
      397, 446, 392, -1,
      392, 446, 448, -1,
      392, 448, 393, -1,
      393, 448, 450, -1,
      5, 3, 423, -1,
      423, 3, 421, -1,
      423, 421, 424, -1,
      424, 421, 419, -1,
      424, 419, 426, -1,
      426, 419, 417, -1,
      426, 417, 428, -1,
      428, 417, 415, -1,
      428, 415, 430, -1,
      430, 415, 413, -1,
      430, 413, 432, -1,
      432, 413, 411, -1,
      432, 411, 434, -1,
      434, 411, 409, -1,
      434, 409, 437, -1,
      437, 409, 406, -1,
      437, 406, 439, -1,
      439, 406, 404, -1,
      439, 404, 441, -1,
      441, 404, 402, -1,
      441, 402, 443, -1,
      443, 402, 400, -1,
      443, 400, 445, -1,
      445, 400, 398, -1,
      445, 398, 447, -1,
      447, 398, 396, -1,
      447, 396, 449, -1,
      449, 396, 394, -1,
      449, 394, 451, -1,
      451, 394, 395, -1,
      452, 453, 454, -1,
      454, 453, 455, -1,
      452, 454, 456, -1,
      452, 456, 457, -1,
      457, 456, 458, -1,
      457, 458, 459, -1,
      459, 458, 460, -1,
      459, 460, 461, -1,
      461, 460, 462, -1,
      461, 462, 463, -1,
      463, 462, 464, -1,
      463, 464, 465, -1,
      465, 464, 466, -1,
      465, 466, 467, -1,
      468, 467, 469, -1,
      469, 467, 466, -1,
      468, 469, 470, -1,
      470, 469, 471, -1,
      470, 471, 472, -1,
      472, 471, 473, -1,
      472, 473, 474, -1,
      474, 473, 475, -1,
      474, 475, 476, -1,
      476, 475, 477, -1,
      476, 477, 478, -1,
      478, 477, 479, -1,
      478, 479, 480, -1,
      480, 479, 481, -1,
      2, 480, 1, -1,
      1, 480, 481, -1,
      482, 4, 483, -1,
      483, 4, 0, -1,
      482, 483, 484, -1,
      482, 484, 485, -1,
      485, 484, 486, -1,
      485, 486, 487, -1,
      487, 486, 488, -1,
      487, 488, 489, -1,
      489, 488, 490, -1,
      489, 490, 491, -1,
      491, 490, 492, -1,
      491, 492, 493, -1,
      493, 492, 494, -1,
      493, 494, 495, -1,
      496, 495, 497, -1,
      497, 495, 494, -1,
      496, 497, 498, -1,
      498, 497, 499, -1,
      498, 499, 500, -1,
      500, 499, 501, -1,
      500, 501, 502, -1,
      502, 501, 503, -1,
      502, 503, 504, -1,
      504, 503, 505, -1,
      504, 505, 506, -1,
      506, 505, 507, -1,
      506, 507, 508, -1,
      508, 507, 509, -1,
      510, 508, 511, -1,
      511, 508, 509, -1,
      453, 510, 455, -1,
      455, 510, 511, -1,
      2, 4, 480, -1,
      480, 4, 482, -1,
      480, 482, 478, -1,
      478, 482, 485, -1,
      478, 485, 476, -1,
      476, 485, 487, -1,
      476, 487, 474, -1,
      474, 487, 489, -1,
      474, 489, 472, -1,
      472, 489, 491, -1,
      472, 491, 470, -1,
      470, 491, 493, -1,
      470, 493, 468, -1,
      468, 493, 495, -1,
      468, 495, 467, -1,
      467, 495, 496, -1,
      467, 496, 465, -1,
      465, 496, 498, -1,
      465, 498, 463, -1,
      463, 498, 500, -1,
      463, 500, 461, -1,
      461, 500, 502, -1,
      461, 502, 459, -1,
      459, 502, 504, -1,
      459, 504, 457, -1,
      457, 504, 506, -1,
      457, 506, 452, -1,
      452, 506, 508, -1,
      452, 508, 453, -1,
      453, 508, 510, -1,
      0, 1, 483, -1,
      483, 1, 481, -1,
      483, 481, 484, -1,
      484, 481, 479, -1,
      484, 479, 486, -1,
      486, 479, 477, -1,
      486, 477, 488, -1,
      488, 477, 475, -1,
      488, 475, 490, -1,
      490, 475, 473, -1,
      490, 473, 492, -1,
      492, 473, 471, -1,
      492, 471, 494, -1,
      494, 471, 469, -1,
      494, 469, 497, -1,
      497, 469, 466, -1,
      497, 466, 499, -1,
      499, 466, 464, -1,
      499, 464, 501, -1,
      501, 464, 462, -1,
      501, 462, 503, -1,
      503, 462, 460, -1,
      503, 460, 505, -1,
      505, 460, 458, -1,
      505, 458, 507, -1,
      507, 458, 456, -1,
      507, 456, 509, -1,
      509, 456, 454, -1,
      509, 454, 511, -1,
      511, 454, 455, -1,
    ]
  }
}

Shape {
  appearance Appearance {
    material Material {
      diffuseColor 1.0000 1.0000 1.0000
      specularColor 0.8784 0.8784 0.8784
      ambientIntensity 0.2
      transparency 0.0000
      shininess 0.5
    }
  }
  geometry IndexedFaceSet {
    ccw TRUE
    solid FALSE
    coord DEF co Coordinate {
      point [
        -0.008642 -0.034365 -0.190945,
        -0.008642 -0.043007 -0.190945,
        0.033609 -0.043007 -0.190945,
        -0.006722 0.027091 -0.190945,
        0.023046 0.027091 -0.190945,
        0.023046 0.001165 -0.190945,
        0.048972 -0.038926 -0.190945,
        0.048972 -0.030283 -0.190945,
        0.033609 0.035733 -0.190945,
        0.023046 -0.007478 -0.190945,
        0.023046 -0.034365 -0.190945,
        -0.004801 -0.007478 -0.190945,
        -0.004801 0.001165 -0.190945,
        0.154600 -0.043007 -0.190945,
        0.075269 -0.043487 -0.190945,
        0.114269 -0.043007 -0.190945,
        0.080342 -0.042961 -0.190945,
        0.087974 -0.040334 -0.190945,
        -0.006722 0.035733 -0.190945,
        0.103392 0.014994 -0.190945,
        0.098777 0.022356 -0.190945,
        0.144037 0.035733 -0.190945,
        0.075166 0.027181 -0.190945,
        0.081059 0.025054 -0.190945,
        0.050384 -0.031065 -0.190945,
        0.086509 0.021408 -0.190945,
        0.091264 0.016159 -0.190945,
        0.096985 -0.004477 -0.190945,
        0.096187 -0.013001 -0.190945,
        0.094048 -0.019774 -0.190945,
        0.076527 -0.034501 -0.190945,
        0.069183 -0.035325 -0.190945,
        0.082264 -0.032389 -0.190945,
        0.087097 -0.029131 -0.190945,
        0.090792 -0.025233 -0.190945,
        0.058731 -0.034165 -0.190945,
        0.094510 0.010079 -0.190945,
        0.096609 0.001650 -0.190945,
        0.094307 -0.036289 -0.190945,
        0.100222 -0.030063 -0.190945,
        0.114269 -0.034365 -0.190945,
        0.104417 -0.022576 -0.190945,
        0.144037 -0.034365 -0.190945,
        0.106786 -0.014241 -0.190945,
        0.107548 -0.005122 -0.190945,
        0.106415 0.006072 -0.190945,
        0.091668 0.029193 -0.190945,
        0.084189 0.033498 -0.190945,
        0.075411 0.036048 -0.190945,
        0.067502 0.036694 -0.190945,
        0.058076 0.036043 -0.190945,
        0.048972 0.033573 -0.190945,
        0.048972 0.023010 -0.190945,
        0.057842 0.026808 -0.190945,
        0.067412 0.028052 -0.190945,
        0.065322 -0.043487 -0.190945,
        0.068485 -0.043930 -0.190945,
        0.070638 -0.043967 -0.190945,
        0.154600 0.035733 -0.190945,
        0.057366 -0.042372 -0.190945,
        -0.093144 -0.043007 -0.190945,
        -0.083450 -0.021426 -0.190945,
        -0.078935 -0.028469 -0.190945,
        -0.152679 -0.043007 -0.190945,
        -0.164202 -0.043007 -0.190945,
        -0.133474 0.035733 -0.190945,
        -0.122911 0.035733 -0.190945,
        -0.072454 -0.034674 -0.190945,
        -0.064232 -0.039452 -0.190945,
        -0.055159 -0.042156 -0.190945,
        -0.045417 -0.043007 -0.190945,
        -0.024006 -0.043007 -0.190945,
        -0.024006 0.035733 -0.190945,
        -0.046227 0.035733 -0.190945,
        -0.075468 0.025467 -0.190945,
        -0.081036 0.019293 -0.190945,
        -0.084695 0.012520 -0.190945,
        -0.057603 0.034517 -0.190945,
        -0.066815 0.031282 -0.190945,
        -0.075385 0.025539 -0.190945,
        -0.104667 -0.043007 -0.190945,
        -0.112184 -0.020921 -0.190945,
        -0.144712 -0.020921 -0.190945,
        -0.086810 0.004763 -0.190945,
        -0.087382 -0.002646 -0.190945,
        -0.086278 -0.013184 -0.190945,
        -0.133474 0.035733 -0.183071,
        -0.164202 -0.043007 -0.183071,
        -0.152679 -0.043007 -0.183071,
        -0.144712 -0.020921 -0.183071,
        -0.112184 -0.020921 -0.183071,
        -0.104667 -0.043007 -0.183071,
        -0.093144 -0.043007 -0.183071,
        -0.122911 0.035733 -0.183071,
        -0.114839 -0.012279 -0.183071,
        -0.141171 -0.012279 -0.183071,
        -0.126587 0.020609 -0.183071,
        -0.127345 0.023341 -0.183071,
        -0.127848 0.026131 -0.183071,
        -0.128103 0.026131 -0.183071,
        -0.128617 0.023349 -0.183071,
        -0.129318 0.020609 -0.183071,
        -0.114839 -0.012279 -0.190945,
        -0.141171 -0.012279 -0.190945,
        -0.126587 0.020609 -0.190945,
        -0.127345 0.023341 -0.190945,
        -0.127848 0.026131 -0.190945,
        -0.128103 0.026131 -0.190945,
        -0.128617 0.023349 -0.190945,
        -0.129318 0.020609 -0.190945,
        -0.045417 -0.043007 -0.183071,
        -0.024006 -0.043007 -0.183071,
        -0.024006 0.035733 -0.183071,
        -0.046227 0.035733 -0.183071,
        -0.087382 -0.002646 -0.183071,
        -0.086810 0.004763 -0.183071,
        -0.084695 0.012520 -0.183071,
        -0.081036 0.019293 -0.183071,
        -0.075468 0.025467 -0.183071,
        -0.075385 0.025539 -0.183071,
        -0.066815 0.031282 -0.183071,
        -0.057603 0.034517 -0.183071,
        -0.055159 -0.042156 -0.183071,
        -0.064232 -0.039452 -0.183071,
        -0.072454 -0.034674 -0.183071,
        -0.078935 -0.028469 -0.183071,
        -0.083450 -0.021426 -0.183071,
        -0.086278 -0.013184 -0.183071,
        -0.071577 0.016050 -0.183071,
        -0.067752 0.020111 -0.183071,
        -0.062001 0.023826 -0.183071,
        -0.055502 0.026100 -0.183071,
        -0.046182 0.027091 -0.183071,
        -0.034569 0.027091 -0.183071,
        -0.034569 -0.034365 -0.183071,
        -0.045747 -0.034365 -0.183071,
        -0.054054 -0.033591 -0.183071,
        -0.060680 -0.031523 -0.183071,
        -0.066050 -0.028334 -0.183071,
        -0.070466 -0.023972 -0.183071,
        -0.073787 -0.018543 -0.183071,
        -0.076097 -0.011142 -0.183071,
        -0.076820 -0.002871 -0.183071,
        -0.076151 0.004965 -0.183071,
        -0.074313 0.011193 -0.183071,
        -0.046182 0.027091 -0.190945,
        -0.034569 0.027091 -0.190945,
        -0.055502 0.026100 -0.190945,
        -0.062001 0.023826 -0.190945,
        -0.067752 0.020111 -0.190945,
        -0.071577 0.016050 -0.190945,
        -0.074313 0.011193 -0.190945,
        -0.076151 0.004965 -0.190945,
        -0.076820 -0.002871 -0.190945,
        -0.076097 -0.011142 -0.190945,
        -0.073787 -0.018543 -0.190945,
        -0.070466 -0.023972 -0.190945,
        -0.066050 -0.028334 -0.190945,
        -0.060680 -0.031523 -0.190945,
        -0.054054 -0.033591 -0.190945,
        -0.045747 -0.034365 -0.190945,
        -0.034569 -0.034365 -0.190945,
        -0.008642 -0.034365 -0.183071,
        -0.008642 -0.043007 -0.183071,
        0.033609 -0.043007 -0.183071,
        0.033609 0.035733 -0.183071,
        -0.006722 0.035733 -0.183071,
        -0.006722 0.027091 -0.183071,
        0.023046 0.027091 -0.183071,
        0.023046 0.001165 -0.183071,
        -0.004801 0.001165 -0.183071,
        -0.004801 -0.007478 -0.183071,
        0.023046 -0.007478 -0.183071,
        0.023046 -0.034365 -0.183071,
        0.048972 -0.030283 -0.183071,
        0.048972 -0.038926 -0.183071,
        0.057366 -0.042372 -0.183071,
        0.070638 -0.043967 -0.183071,
        0.068485 -0.043930 -0.183071,
        0.107548 -0.005122 -0.183071,
        0.106786 -0.014241 -0.183071,
        0.104417 -0.022576 -0.183071,
        0.100222 -0.030063 -0.183071,
        0.094307 -0.036289 -0.183071,
        0.087974 -0.040334 -0.183071,
        0.080342 -0.042961 -0.183071,
        0.067502 0.036694 -0.183071,
        0.075411 0.036048 -0.183071,
        0.084189 0.033498 -0.183071,
        0.091668 0.029193 -0.183071,
        0.098777 0.022356 -0.183071,
        0.103392 0.014994 -0.183071,
        0.106415 0.006072 -0.183071,
        0.048972 0.033573 -0.183071,
        0.058076 0.036043 -0.183071,
        0.048972 0.023010 -0.183071,
        0.067412 0.028052 -0.183071,
        0.057842 0.026808 -0.183071,
        0.096985 -0.004477 -0.183071,
        0.096609 0.001650 -0.183071,
        0.094510 0.010079 -0.183071,
        0.091264 0.016159 -0.183071,
        0.086509 0.021408 -0.183071,
        0.081059 0.025054 -0.183071,
        0.075166 0.027181 -0.183071,
        0.069183 -0.035325 -0.183071,
        0.076527 -0.034501 -0.183071,
        0.082264 -0.032389 -0.183071,
        0.087097 -0.029131 -0.183071,
        0.090792 -0.025233 -0.183071,
        0.094048 -0.019774 -0.183071,
        0.096187 -0.013001 -0.183071,
        0.050384 -0.031065 -0.183071,
        0.058731 -0.034165 -0.183071,
        0.114269 -0.034365 -0.183071,
        0.114269 -0.043007 -0.183071,
        0.154600 -0.043007 -0.183071,
        0.154600 0.035733 -0.183071,
        0.144037 0.035733 -0.183071,
        0.144037 -0.034365 -0.183071,
      ]
    }
    coordIndex [
      86, 87, 65, -1,
      65, 87, 64, -1,
      87, 88, 64, -1,
      64, 88, 63, -1,
      88, 89, 63, -1,
      63, 89, 82, -1,
      89, 90, 82, -1,
      82, 90, 81, -1,
      90, 91, 81, -1,
      81, 91, 80, -1,
      91, 92, 80, -1,
      80, 92, 60, -1,
      92, 93, 60, -1,
      60, 93, 66, -1,
      93, 86, 66, -1,
      66, 86, 65, -1,
      94, 90, 95, -1,
      95, 90, 89, -1,
      96, 93, 94, -1,
      94, 93, 92, -1,
      94, 92, 90, -1,
      90, 92, 91, -1,
      96, 97, 93, -1,
      93, 97, 98, -1,
      93, 98, 86, -1,
      86, 98, 99, -1,
      86, 99, 100, -1,
      100, 101, 86, -1,
      86, 101, 95, -1,
      86, 95, 87, -1,
      87, 95, 89, -1,
      87, 89, 88, -1,
      94, 95, 102, -1,
      102, 95, 103, -1,
      96, 94, 104, -1,
      104, 94, 102, -1,
      96, 104, 105, -1,
      96, 105, 97, -1,
      97, 105, 106, -1,
      97, 106, 98, -1,
      99, 98, 107, -1,
      107, 98, 106, -1,
      99, 107, 108, -1,
      99, 108, 100, -1,
      100, 108, 109, -1,
      100, 109, 101, -1,
      95, 101, 103, -1,
      103, 101, 109, -1,
      110, 111, 70, -1,
      70, 111, 71, -1,
      111, 112, 71, -1,
      71, 112, 72, -1,
      112, 113, 72, -1,
      72, 113, 73, -1,
      114, 84, 83, -1,
      114, 83, 115, -1,
      115, 83, 76, -1,
      115, 76, 116, -1,
      116, 76, 75, -1,
      116, 75, 117, -1,
      117, 75, 74, -1,
      117, 74, 118, -1,
      118, 74, 79, -1,
      118, 79, 119, -1,
      119, 79, 78, -1,
      119, 78, 120, -1,
      120, 78, 77, -1,
      120, 77, 121, -1,
      121, 77, 73, -1,
      121, 73, 113, -1,
      110, 70, 69, -1,
      110, 69, 122, -1,
      122, 69, 68, -1,
      122, 68, 123, -1,
      123, 68, 67, -1,
      123, 67, 124, -1,
      124, 67, 62, -1,
      124, 62, 125, -1,
      125, 62, 61, -1,
      125, 61, 126, -1,
      126, 61, 85, -1,
      126, 85, 127, -1,
      127, 85, 84, -1,
      127, 84, 114, -1,
      116, 117, 128, -1,
      128, 117, 118, -1,
      128, 118, 129, -1,
      129, 118, 119, -1,
      129, 119, 130, -1,
      130, 119, 120, -1,
      130, 120, 131, -1,
      131, 120, 121, -1,
      131, 121, 132, -1,
      132, 121, 113, -1,
      132, 113, 133, -1,
      133, 113, 112, -1,
      133, 112, 134, -1,
      134, 112, 111, -1,
      134, 111, 135, -1,
      135, 111, 110, -1,
      135, 110, 136, -1,
      136, 110, 122, -1,
      136, 122, 137, -1,
      137, 122, 123, -1,
      137, 123, 138, -1,
      138, 123, 124, -1,
      138, 124, 139, -1,
      139, 124, 125, -1,
      139, 125, 140, -1,
      140, 125, 126, -1,
      140, 126, 141, -1,
      141, 126, 127, -1,
      141, 127, 142, -1,
      142, 127, 114, -1,
      142, 114, 143, -1,
      143, 114, 115, -1,
      143, 115, 144, -1,
      144, 115, 116, -1,
      144, 116, 128, -1,
      132, 133, 145, -1,
      145, 133, 146, -1,
      132, 145, 147, -1,
      132, 147, 131, -1,
      131, 147, 148, -1,
      131, 148, 130, -1,
      130, 148, 149, -1,
      130, 149, 129, -1,
      129, 149, 150, -1,
      129, 150, 128, -1,
      128, 150, 151, -1,
      128, 151, 144, -1,
      144, 151, 152, -1,
      144, 152, 143, -1,
      143, 152, 153, -1,
      143, 153, 142, -1,
      142, 153, 154, -1,
      142, 154, 141, -1,
      141, 154, 155, -1,
      141, 155, 140, -1,
      140, 155, 156, -1,
      140, 156, 139, -1,
      139, 156, 157, -1,
      139, 157, 138, -1,
      138, 157, 158, -1,
      138, 158, 137, -1,
      137, 158, 159, -1,
      137, 159, 136, -1,
      136, 159, 160, -1,
      136, 160, 135, -1,
      134, 135, 161, -1,
      161, 135, 160, -1,
      133, 134, 146, -1,
      146, 134, 161, -1,
      162, 163, 0, -1,
      0, 163, 1, -1,
      163, 164, 1, -1,
      1, 164, 2, -1,
      164, 165, 2, -1,
      2, 165, 8, -1,
      165, 166, 8, -1,
      8, 166, 18, -1,
      166, 167, 18, -1,
      18, 167, 3, -1,
      167, 168, 3, -1,
      3, 168, 4, -1,
      168, 169, 4, -1,
      4, 169, 5, -1,
      169, 170, 5, -1,
      5, 170, 12, -1,
      170, 171, 12, -1,
      12, 171, 11, -1,
      171, 172, 11, -1,
      11, 172, 9, -1,
      172, 173, 9, -1,
      9, 173, 10, -1,
      173, 162, 10, -1,
      10, 162, 0, -1,
      164, 163, 162, -1,
      162, 173, 164, -1,
      164, 173, 172, -1,
      164, 172, 165, -1,
      167, 166, 168, -1,
      168, 166, 165, -1,
      168, 165, 169, -1,
      169, 165, 172, -1,
      169, 172, 170, -1,
      170, 172, 171, -1,
      174, 175, 7, -1,
      7, 175, 6, -1,
      6, 175, 176, -1,
      177, 57, 56, -1,
      177, 56, 178, -1,
      178, 56, 55, -1,
      178, 55, 176, -1,
      176, 55, 59, -1,
      176, 59, 6, -1,
      179, 44, 43, -1,
      179, 43, 180, -1,
      180, 43, 41, -1,
      180, 41, 181, -1,
      181, 41, 39, -1,
      181, 39, 182, -1,
      182, 39, 38, -1,
      182, 38, 183, -1,
      183, 38, 17, -1,
      183, 17, 184, -1,
      184, 17, 16, -1,
      184, 16, 185, -1,
      185, 16, 177, -1,
      177, 16, 14, -1,
      177, 14, 57, -1,
      186, 49, 48, -1,
      186, 48, 187, -1,
      187, 48, 47, -1,
      187, 47, 188, -1,
      188, 47, 46, -1,
      188, 46, 189, -1,
      189, 46, 20, -1,
      189, 20, 190, -1,
      190, 20, 19, -1,
      190, 19, 191, -1,
      191, 19, 45, -1,
      191, 45, 192, -1,
      192, 45, 44, -1,
      192, 44, 179, -1,
      193, 51, 50, -1,
      193, 50, 194, -1,
      194, 50, 49, -1,
      194, 49, 186, -1,
      193, 195, 51, -1,
      51, 195, 52, -1,
      196, 54, 53, -1,
      196, 53, 197, -1,
      197, 53, 52, -1,
      197, 52, 195, -1,
      198, 27, 37, -1,
      198, 37, 199, -1,
      199, 37, 36, -1,
      199, 36, 200, -1,
      200, 36, 26, -1,
      200, 26, 201, -1,
      201, 26, 25, -1,
      201, 25, 202, -1,
      202, 25, 23, -1,
      202, 23, 203, -1,
      203, 23, 22, -1,
      203, 22, 204, -1,
      204, 22, 54, -1,
      204, 54, 196, -1,
      205, 31, 30, -1,
      205, 30, 206, -1,
      206, 30, 32, -1,
      206, 32, 207, -1,
      207, 32, 33, -1,
      207, 33, 208, -1,
      208, 33, 34, -1,
      208, 34, 209, -1,
      209, 34, 29, -1,
      209, 29, 210, -1,
      210, 29, 28, -1,
      210, 28, 211, -1,
      211, 28, 27, -1,
      211, 27, 198, -1,
      174, 7, 24, -1,
      174, 24, 212, -1,
      212, 24, 35, -1,
      212, 35, 213, -1,
      213, 35, 31, -1,
      213, 31, 205, -1,
      206, 177, 205, -1,
      205, 177, 178, -1,
      205, 178, 213, -1,
      213, 178, 176, -1,
      213, 176, 212, -1,
      212, 176, 175, -1,
      212, 175, 174, -1,
      195, 193, 197, -1,
      197, 193, 194, -1,
      197, 194, 196, -1,
      196, 194, 186, -1,
      196, 186, 204, -1,
      204, 186, 187, -1,
      204, 187, 203, -1,
      203, 187, 188, -1,
      203, 188, 202, -1,
      202, 188, 189, -1,
      202, 189, 201, -1,
      201, 189, 190, -1,
      201, 190, 200, -1,
      200, 190, 191, -1,
      200, 191, 199, -1,
      199, 191, 192, -1,
      199, 192, 198, -1,
      198, 192, 179, -1,
      198, 179, 211, -1,
      211, 179, 180, -1,
      211, 180, 210, -1,
      210, 180, 181, -1,
      210, 181, 209, -1,
      209, 181, 182, -1,
      209, 182, 208, -1,
      208, 182, 183, -1,
      208, 183, 207, -1,
      207, 183, 184, -1,
      207, 184, 206, -1,
      206, 184, 185, -1,
      206, 185, 177, -1,
      214, 215, 40, -1,
      40, 215, 15, -1,
      215, 216, 15, -1,
      15, 216, 13, -1,
      216, 217, 13, -1,
      13, 217, 58, -1,
      217, 218, 58, -1,
      58, 218, 21, -1,
      218, 219, 21, -1,
      21, 219, 42, -1,
      219, 214, 42, -1,
      42, 214, 40, -1,
      218, 217, 219, -1,
      219, 217, 216, -1,
      219, 216, 214, -1,
      214, 216, 215, -1,
    ]
  }
}

Shape {
  appearance Appearance {
    material Material {
      diffuseColor 0.2078 0.2078 0.2078
      specularColor 0.0157 0.0157 0.0157
      ambientIntensity 0.2
      transparency 0.0000
      shininess 0.5
    }
  }
  geometry IndexedFaceSet {
    ccw TRUE
    solid FALSE
    coord DEF co Coordinate {
      point [
        -0.114839 -0.012279 -0.190945,
        -0.141171 -0.012279 -0.190945,
        -0.126587 0.020609 -0.190945,
        -0.127345 0.023341 -0.190945,
        -0.127848 0.026131 -0.190945,
        -0.128103 0.026131 -0.190945,
        -0.128617 0.023349 -0.190945,
        -0.129318 0.020609 -0.190945,
        -0.046182 0.027091 -0.190945,
        -0.034569 0.027091 -0.190945,
        -0.055502 0.026100 -0.190945,
        -0.062001 0.023826 -0.190945,
        -0.067752 0.020111 -0.190945,
        -0.071577 0.016050 -0.190945,
        -0.074313 0.011193 -0.190945,
        -0.076151 0.004965 -0.190945,
        -0.076820 -0.002871 -0.190945,
        -0.076097 -0.011142 -0.190945,
        -0.073787 -0.018543 -0.190945,
        -0.070466 -0.023972 -0.190945,
        -0.066050 -0.028334 -0.190945,
        -0.060680 -0.031523 -0.190945,
        -0.054054 -0.033591 -0.190945,
        -0.045747 -0.034365 -0.190945,
        -0.034569 -0.034365 -0.190945,
      ]
    }
    coordIndex [
      0, 1, 2, -1,
      2, 1, 7, -1,
      2, 7, 3, -1,
      3, 7, 6, -1,
      3, 6, 4, -1,
      4, 6, 5, -1,
      9, 24, 8, -1,
      8, 24, 23, -1,
      8, 23, 22, -1,
      16, 15, 8, -1,
      8, 15, 14, -1,
      8, 14, 10, -1,
      22, 21, 8, -1,
      8, 21, 20, -1,
      8, 20, 19, -1,
      19, 18, 8, -1,
      8, 18, 17, -1,
      8, 17, 16, -1,
      13, 12, 14, -1,
      14, 12, 11, -1,
      14, 11, 10, -1,
    ]
  }
}
