#VRML V2.0 utf8

Shape {
  appearance Appearance {
    material Material {
      diffuseColor 0.5882 0.5725 0.5255
      specularColor 0.0431 0.0392 0.0392
      ambientIntensity 0.2
      transparency 0.0000
      shininess 0.5
    }
  }
  geometry IndexedFaceSet {
    ccw TRUE
    solid FALSE
    coord DEF co Coordinate {
      point [
        -1.318898 0.000000 0.590551,
        -1.318898 0.000000 1.082677,
        1.318898 0.000000 1.082677,
        1.771654 0.000000 0.590551,
        1.771654 0.000000 1.082677,
        2.362205 0.000000 1.082677,
        -1.082677 0.000000 0.071833,
        -1.279528 0.000000 0.071833,
        -2.362205 0.000000 1.082677,
        -1.771654 0.000000 1.082677,
        -1.771654 0.000000 0.590551,
        -1.082677 0.000000 -1.033268,
        0.103226 0.000000 -1.082677,
        -2.086614 0.000000 -1.082677,
        -2.086614 0.000000 0.216535,
        -2.362205 0.000000 0.216535,
        1.279528 0.000000 0.071833,
        2.086614 0.000000 0.216535,
        1.279528 0.000000 -1.033268,
        2.086614 0.000000 -1.082677,
        1.082677 0.000000 -1.033268,
        -1.279528 0.000000 -1.033268,
        -0.492126 0.000000 0.071833,
        -0.492126 0.000000 -1.033268,
        1.318898 0.000000 0.590551,
        0.492126 0.000000 -1.033268,
        0.492126 0.000000 0.071833,
        0.295276 0.000000 0.071833,
        -0.295276 0.000000 -1.033268,
        -0.295276 0.000000 0.071833,
        0.295276 0.000000 -1.033268,
        1.082677 0.000000 0.071833,
        2.362205 0.000000 0.216535,
        1.318898 -1.535433 1.082677,
        -1.318898 -1.535433 1.082677,
        2.362205 -2.098425 1.082677,
        1.771654 -1.535433 1.082677,
        2.047244 -2.098425 1.082677,
        2.047244 -2.413386 1.082677,
        -1.771654 -1.535433 1.082677,
        -2.362205 -2.098425 1.082677,
        -2.047244 -2.098425 1.082677,
        -2.047244 -2.413386 1.082677,
        1.318898 -1.535433 0.590551,
        1.771654 -1.535433 0.590551,
        1.771654 -2.334646 0.590551,
        0.629921 -0.444882 0.590551,
        1.318898 -0.444882 0.590551,
        0.629921 -2.334646 0.590551,
        0.708661 -2.413386 0.590551,
        1.850394 -2.413386 0.590551,
        0.168531 -1.405463 -1.082677,
        0.187914 -1.407641 -1.082677,
        0.125959 -1.553255 -1.082677,
        2.086614 0.574803 -1.082677,
        2.362205 0.574803 -1.082677,
        2.362205 -1.311024 -1.082677,
        2.047244 -1.311024 -1.082677,
        2.066929 -1.311024 -1.082677,
        2.185039 -1.311024 -1.082677,
        0.202648 -1.412958 -1.082677,
        0.216273 -1.422073 -1.082677,
        0.228160 -1.435196 -1.082677,
        0.242462 -1.486784 -1.082677,
        0.240469 -1.508094 -1.082677,
        0.235121 -1.525026 -1.082677,
        0.191317 -1.561844 -1.082677,
        0.172957 -1.563904 -1.082677,
        0.205661 -1.556564 -1.082677,
        0.217742 -1.548421 -1.082677,
        0.226980 -1.538676 -1.082677,
        0.146827 -1.561004 -1.082677,
        0.144604 -1.408572 -1.082677,
        0.122431 -1.551301 -1.082677,
        0.122431 -1.418067 -1.082677,
        0.122431 -1.391660 -1.082677,
        0.236276 -1.450395 -1.082677,
        0.241523 -1.471469 -1.082677,
        0.386499 -1.583109 -1.082677,
        0.188172 -1.584309 -1.082677,
        0.285673 -1.583109 -1.082677,
        0.200854 -1.582994 -1.082677,
        0.219934 -1.576427 -1.082677,
        0.235768 -1.566315 -1.082677,
        0.250554 -1.550749 -1.082677,
        0.285673 -1.561504 -1.082677,
        0.261041 -1.532031 -1.082677,
        0.360092 -1.561504 -1.082677,
        0.246942 -1.419702 -1.082677,
        0.229170 -1.402610 -1.082677,
        0.210472 -1.391848 -1.082677,
        0.188527 -1.385472 -1.082677,
        0.266965 -1.511195 -1.082677,
        0.268869 -1.488397 -1.082677,
        0.360092 -1.386259 -1.082677,
        0.266037 -1.460411 -1.082677,
        0.258480 -1.438106 -1.082677,
        0.168756 -1.383858 -1.082677,
        0.145191 -1.385484 -1.082677,
        0.122431 -1.572907 -1.082677,
        0.143415 -1.581522 -1.082677,
        0.103226 -1.584309 -1.082677,
        0.163306 -1.584309 -1.082677,
        0.103226 -2.413386 -1.082677,
        0.171213 -1.585417 -1.082677,
        0.176595 -1.585509 -1.082677,
        0.386499 -1.386259 -1.082677,
        2.047244 -1.584309 -1.082677,
        2.047244 -2.413386 -1.082677,
        -0.012003 -1.494286 -1.082677,
        0.057615 -1.494286 -1.082677,
        0.057615 -1.561504 -1.082677,
        -0.021606 -1.583109 -1.082677,
        -0.060015 -1.583109 -1.082677,
        -0.021606 -1.561504 -1.082677,
        -0.060015 -1.386259 -1.082677,
        0.084022 -1.583109 -1.082677,
        0.084022 -1.386259 -1.082677,
        -0.016804 -1.386259 -1.082677,
        -0.232859 -1.583109 -1.082677,
        -0.208626 -1.529157 -1.082677,
        -0.197337 -1.546764 -1.082677,
        -2.362205 0.574803 -1.082677,
        -2.086614 0.574803 -1.082677,
        0.057615 -1.407864 -1.082677,
        0.057615 -1.472681 -1.082677,
        -0.016804 -1.407864 -1.082677,
        -0.012003 -1.472681 -1.082677,
        -0.181135 -1.562278 -1.082677,
        -0.160581 -1.574222 -1.082677,
        -0.137898 -1.580983 -1.082677,
        -2.047244 -1.584309 -1.082677,
        -2.047244 -1.311024 -1.082677,
        -0.333685 -1.386259 -1.082677,
        -0.307279 -1.386259 -1.082677,
        -2.362205 -1.311024 -1.082677,
        -2.185039 -1.311024 -1.082677,
        -2.066929 -1.311024 -1.082677,
        -0.144007 -1.389299 -1.082677,
        -0.167038 -1.397386 -1.082677,
        -0.188464 -1.411745 -1.082677,
        -0.115567 -1.386259 -1.082677,
        -0.410505 -1.583109 -1.082677,
        -0.381698 -1.583109 -1.082677,
        -0.188670 -1.411926 -1.082677,
        -0.202590 -1.427361 -1.082677,
        -0.211738 -1.444291 -1.082677,
        -0.217025 -1.463685 -1.082677,
        -0.218456 -1.482208 -1.082677,
        -0.215694 -1.508552 -1.082677,
        -0.113542 -1.583109 -1.082677,
        -0.361780 -1.527895 -1.082677,
        -0.280459 -1.527895 -1.082677,
        -0.261667 -1.583109 -1.082677,
        -2.047244 -2.413386 -1.082677,
        2.047244 -2.098425 -0.807087,
        2.047244 -1.311024 -0.807087,
        2.066929 -2.098425 -0.807087,
        2.066929 -1.311024 -0.807087,
        -2.066929 -1.311024 -0.807087,
        -2.047244 -1.311024 -0.807087,
        -2.066929 -2.098425 -0.807087,
        -2.047244 -2.098425 -0.807087,
        -2.362205 -1.311024 -0.807087,
        -2.362205 -2.098425 -0.807087,
        -2.362205 -2.098425 -0.019685,
        -2.362205 -2.098425 0.846457,
        -2.362205 -1.311024 0.846457,
        -2.362205 -1.311024 0.334646,
        -2.362205 -0.236220 -0.019685,
        -2.362205 -0.236220 0.334646,
        -2.362205 0.574803 -0.115327,
        -2.066929 -2.098425 -0.216535,
        -2.047244 -2.098425 -0.019685,
        -2.185039 -2.098425 -0.216535,
        -2.185039 -2.098425 -0.807087,
        2.362205 -1.311024 0.846457,
        2.362205 -2.098425 0.846457,
        2.362205 -2.098425 -0.019685,
        2.362205 -2.098425 -0.807087,
        2.362205 -0.236220 -0.019685,
        2.362205 -1.311024 -0.807087,
        2.362205 0.574803 -0.115327,
        2.362205 -1.311024 0.334646,
        2.362205 -0.236220 0.334646,
        2.047244 -1.311024 0.846457,
        2.047244 -1.311024 0.334646,
        1.850394 -2.413386 -0.019685,
        2.047244 -2.413386 -0.019685,
        1.771654 -2.334646 -0.019685,
        2.047244 -2.098425 -0.019685,
        2.047244 -0.236220 -0.019685,
        2.047244 -1.763780 -0.019685,
        1.771654 -1.763780 -0.019685,
        2.047244 -2.098425 0.846457,
        -2.047244 -2.413386 0.334646,
        -1.850394 -2.413386 0.334646,
        -1.850394 -2.413386 0.590551,
        -0.708661 -2.413386 0.590551,
        -0.708661 -2.413386 0.944882,
        0.708661 -2.413386 0.944882,
        1.850394 -2.413386 0.334646,
        2.047244 -2.413386 0.334646,
        -1.850394 -2.413386 -0.885827,
        -1.850394 -2.413386 -0.019685,
        -2.047244 -2.413386 -0.019685,
        1.850394 -2.413386 -0.885827,
        1.771654 -1.722021 -0.002388,
        1.771654 -0.444882 -0.807087,
        1.771654 -1.734252 -0.011773,
        1.771654 -1.748495 -0.017673,
        1.771654 -1.704724 0.275591,
        1.771654 -1.706737 0.290875,
        1.771654 -2.334646 0.334646,
        1.771654 -1.763780 0.334646,
        1.771654 -1.748495 0.332633,
        1.771654 -1.734252 0.326734,
        1.771654 -2.334646 -0.807087,
        1.771654 -1.712636 0.009843,
        1.771654 -1.706737 0.024085,
        1.771654 -1.704724 0.039370,
        1.771654 -1.712636 0.305118,
        1.771654 -1.722021 0.317349,
        1.771654 -0.444882 0.590551,
        -1.771654 -2.334646 -0.807087,
        -1.771654 -2.334646 -0.019685,
        -1.771654 -0.444882 -0.807087,
        -1.771654 -0.444882 0.590551,
        -1.771654 -1.535433 0.590551,
        -1.771654 -1.734252 0.326734,
        -1.771654 -1.722021 0.317349,
        -1.771654 -1.748495 0.332633,
        -1.771654 -1.712636 0.305118,
        -1.771654 -1.706737 0.290875,
        -1.771654 -1.704724 0.275591,
        -1.771654 -1.704724 0.039370,
        -1.771654 -1.706737 0.024085,
        -1.771654 -1.712636 0.009843,
        -1.771654 -1.722021 -0.002388,
        -1.771654 -1.734252 -0.011773,
        -1.771654 -1.748495 -0.017673,
        -1.771654 -1.763780 -0.019685,
        -1.771654 -2.334646 0.590551,
        -1.771654 -2.334646 0.334646,
        -1.771654 -1.763780 0.334646,
        -1.318898 -1.535433 0.590551,
        -1.318898 -0.444882 0.590551,
        -0.629921 -0.444882 0.590551,
        -0.629921 -2.334646 0.590551,
        -0.492126 -0.444882 0.255906,
        -0.295276 -0.444882 0.255906,
        1.279528 -0.444882 0.255906,
        1.279528 -0.444882 0.059055,
        1.082677 -0.444882 0.059055,
        -1.082677 -0.444882 0.059055,
        -1.279528 -0.444882 0.059055,
        -1.279528 -0.444882 0.255906,
        0.629921 -0.444882 0.866142,
        -0.629921 -0.444882 0.866142,
        1.082677 -0.444882 0.255906,
        0.295276 -0.444882 0.059055,
        0.492126 -0.444882 0.059055,
        0.492126 -0.444882 0.255906,
        0.295276 -0.444882 0.255906,
        -0.295276 -0.444882 0.059055,
        -0.492126 -0.444882 0.059055,
        -1.082677 -0.444882 0.255906,
        0.629921 -2.334646 0.866142,
        -0.629921 -2.334646 0.866142,
        -2.047244 -0.236220 -0.019685,
        -2.047244 -1.763780 -0.019685,
        -2.047244 -1.763780 0.334646,
        -2.047244 -1.704724 0.039370,
        -2.047244 -1.704724 0.275591,
        -2.047244 -2.098425 0.846457,
        -2.047244 -1.748495 -0.017673,
        -2.047244 -1.722021 -0.002388,
        -2.047244 -1.311024 0.334646,
        -2.047244 -0.236220 0.334646,
        -2.047244 -1.734252 -0.011773,
        -2.047244 -1.712636 0.009843,
        -2.047244 -1.706737 0.024085,
        -2.047244 -1.706737 0.290875,
        -2.047244 -1.311024 0.846457,
        -2.047244 -1.712636 0.305118,
        -2.047244 -1.722021 0.317349,
        -2.047244 -1.734252 0.326734,
        -2.047244 -1.748495 0.332633,
        -2.086614 0.574803 -0.115327,
        2.047244 -1.763780 0.334646,
        2.047244 -1.704724 0.039370,
        2.047244 -1.704724 0.275591,
        2.047244 -1.748495 -0.017673,
        2.047244 -0.236220 0.334646,
        2.047244 -1.706737 0.024085,
        2.047244 -1.712636 0.009843,
        2.047244 -1.722021 -0.002388,
        2.047244 -1.734252 -0.011773,
        2.047244 -1.734252 0.326734,
        2.047244 -1.722021 0.317349,
        2.047244 -1.712636 0.305118,
        2.047244 -1.706737 0.290875,
        2.047244 -1.748495 0.332633,
        2.066929 -2.098425 -0.216535,
        2.185039 -2.098425 -0.807087,
        2.185039 -2.098425 -0.216535,
        2.086614 0.574803 -0.115327,
        2.185039 -1.311024 -0.807087,
        -2.185039 -1.311024 -0.807087,
      ]
    }
    coordIndex [
      0, 1, 2, -1,
      3, 4, 5, -1,
      2, 6, 7, -1,
      8, 9, 10, -1,
      11, 12, 13, -1,
      0, 14, 10, -1,
      10, 14, 15, -1,
      10, 15, 8, -1,
      16, 17, 18, -1,
      18, 17, 19, -1,
      18, 19, 20, -1,
      0, 2, 14, -1,
      14, 2, 7, -1,
      14, 7, 13, -1,
      13, 7, 21, -1,
      13, 21, 11, -1,
      22, 23, 11, -1,
      24, 25, 2, -1,
      2, 25, 26, -1,
      2, 26, 27, -1,
      11, 23, 12, -1,
      12, 23, 28, -1,
      12, 28, 29, -1,
      11, 6, 22, -1,
      22, 6, 2, -1,
      22, 2, 29, -1,
      29, 2, 27, -1,
      29, 27, 12, -1,
      12, 27, 30, -1,
      12, 30, 25, -1,
      19, 12, 20, -1,
      20, 12, 25, -1,
      20, 25, 31, -1,
      31, 25, 24, -1,
      31, 24, 16, -1,
      16, 24, 3, -1,
      16, 3, 17, -1,
      17, 3, 5, -1,
      17, 5, 32, -1,
      2, 1, 33, -1,
      33, 1, 34, -1,
      5, 4, 35, -1,
      35, 4, 36, -1,
      35, 36, 37, -1,
      37, 36, 33, -1,
      37, 33, 38, -1,
      9, 8, 39, -1,
      39, 8, 40, -1,
      39, 40, 34, -1,
      34, 40, 41, -1,
      34, 41, 33, -1,
      33, 41, 42, -1,
      33, 42, 38, -1,
      43, 44, 45, -1,
      46, 47, 48, -1,
      48, 47, 43, -1,
      48, 43, 49, -1,
      49, 43, 45, -1,
      49, 45, 50, -1,
      51, 52, 53, -1,
      54, 55, 19, -1,
      19, 55, 56, -1,
      57, 12, 58, -1,
      58, 12, 19, -1,
      58, 19, 59, -1,
      59, 19, 56, -1,
      52, 60, 53, -1,
      53, 60, 61, -1,
      53, 61, 62, -1,
      63, 64, 53, -1,
      53, 64, 65, -1,
      66, 67, 68, -1,
      68, 67, 69, -1,
      65, 70, 53, -1,
      53, 70, 69, -1,
      53, 69, 71, -1,
      71, 69, 67, -1,
      51, 53, 72, -1,
      72, 53, 73, -1,
      72, 73, 74, -1,
      74, 73, 12, -1,
      74, 12, 75, -1,
      62, 76, 53, -1,
      53, 76, 77, -1,
      53, 77, 63, -1,
      78, 79, 80, -1,
      80, 79, 81, -1,
      80, 81, 82, -1,
      82, 83, 80, -1,
      80, 83, 84, -1,
      80, 84, 85, -1,
      85, 84, 86, -1,
      85, 86, 87, -1,
      88, 89, 12, -1,
      12, 89, 90, -1,
      12, 90, 91, -1,
      86, 92, 87, -1,
      87, 92, 93, -1,
      87, 93, 94, -1,
      94, 93, 95, -1,
      94, 95, 96, -1,
      91, 97, 12, -1,
      12, 97, 98, -1,
      12, 98, 75, -1,
      99, 100, 101, -1,
      101, 100, 102, -1,
      101, 102, 103, -1,
      102, 104, 103, -1,
      103, 104, 105, -1,
      103, 105, 79, -1,
      96, 88, 94, -1,
      94, 88, 12, -1,
      94, 12, 106, -1,
      106, 12, 57, -1,
      106, 57, 78, -1,
      78, 57, 107, -1,
      78, 107, 79, -1,
      79, 107, 108, -1,
      79, 108, 103, -1,
      109, 110, 111, -1,
      112, 113, 114, -1,
      114, 113, 115, -1,
      101, 116, 117, -1,
      118, 13, 117, -1,
      117, 13, 12, -1,
      117, 12, 101, -1,
      101, 12, 73, -1,
      101, 73, 99, -1,
      119, 120, 121, -1,
      122, 123, 13, -1,
      124, 125, 126, -1,
      126, 125, 127, -1,
      126, 127, 115, -1,
      115, 127, 109, -1,
      115, 109, 114, -1,
      114, 109, 111, -1,
      121, 128, 119, -1,
      119, 128, 129, -1,
      119, 129, 130, -1,
      131, 132, 133, -1,
      133, 132, 13, -1,
      133, 13, 134, -1,
      135, 122, 136, -1,
      136, 122, 13, -1,
      136, 13, 137, -1,
      137, 13, 132, -1,
      138, 139, 134, -1,
      134, 139, 140, -1,
      138, 134, 141, -1,
      141, 134, 13, -1,
      141, 13, 115, -1,
      115, 13, 118, -1,
      115, 118, 126, -1,
      142, 143, 101, -1,
      140, 144, 134, -1,
      134, 144, 145, -1,
      134, 145, 146, -1,
      146, 147, 134, -1,
      134, 147, 148, -1,
      134, 148, 119, -1,
      119, 148, 149, -1,
      119, 149, 120, -1,
      150, 113, 101, -1,
      101, 113, 112, -1,
      101, 112, 116, -1,
      151, 152, 143, -1,
      143, 152, 153, -1,
      143, 153, 101, -1,
      101, 153, 119, -1,
      101, 119, 150, -1,
      150, 119, 130, -1,
      133, 142, 131, -1,
      131, 142, 101, -1,
      131, 101, 154, -1,
      154, 101, 103, -1,
      155, 156, 157, -1,
      157, 156, 158, -1,
      156, 57, 158, -1,
      158, 57, 58, -1,
      159, 160, 161, -1,
      161, 160, 162, -1,
      137, 132, 159, -1,
      159, 132, 160, -1,
      163, 164, 165, -1,
      166, 40, 167, -1,
      167, 40, 8, -1,
      167, 8, 168, -1,
      165, 169, 163, -1,
      163, 169, 122, -1,
      163, 122, 135, -1,
      168, 8, 170, -1,
      170, 8, 15, -1,
      170, 15, 169, -1,
      169, 15, 171, -1,
      169, 171, 122, -1,
      161, 162, 172, -1,
      172, 162, 173, -1,
      172, 173, 174, -1,
      174, 173, 165, -1,
      174, 165, 175, -1,
      175, 165, 164, -1,
      5, 35, 176, -1,
      176, 35, 177, -1,
      178, 179, 180, -1,
      180, 179, 181, -1,
      180, 181, 56, -1,
      55, 182, 32, -1,
      176, 183, 5, -1,
      5, 183, 184, -1,
      5, 184, 32, -1,
      32, 184, 180, -1,
      32, 180, 55, -1,
      55, 180, 56, -1,
      176, 185, 183, -1,
      183, 185, 186, -1,
      187, 188, 189, -1,
      189, 188, 190, -1,
      180, 191, 178, -1,
      178, 191, 192, -1,
      178, 192, 190, -1,
      190, 192, 193, -1,
      190, 193, 189, -1,
      194, 185, 177, -1,
      177, 185, 176, -1,
      195, 196, 42, -1,
      42, 196, 197, -1,
      42, 197, 198, -1,
      198, 199, 42, -1,
      42, 199, 200, -1,
      42, 200, 38, -1,
      201, 202, 50, -1,
      50, 202, 38, -1,
      50, 38, 49, -1,
      49, 38, 200, -1,
      203, 204, 205, -1,
      205, 154, 203, -1,
      203, 154, 103, -1,
      203, 103, 206, -1,
      206, 103, 108, -1,
      206, 108, 187, -1,
      187, 108, 188, -1,
      207, 208, 209, -1,
      209, 208, 210, -1,
      211, 212, 44, -1,
      213, 45, 214, -1,
      214, 45, 44, -1,
      214, 44, 215, -1,
      215, 44, 216, -1,
      210, 208, 193, -1,
      193, 208, 217, -1,
      193, 217, 189, -1,
      207, 218, 208, -1,
      208, 218, 219, -1,
      208, 219, 220, -1,
      212, 221, 44, -1,
      44, 221, 222, -1,
      44, 222, 216, -1,
      220, 211, 208, -1,
      208, 211, 44, -1,
      208, 44, 223, -1,
      223, 44, 36, -1,
      223, 36, 3, -1,
      3, 36, 4, -1,
      201, 50, 213, -1,
      213, 50, 45, -1,
      189, 217, 187, -1,
      187, 217, 206, -1,
      203, 224, 204, -1,
      204, 224, 225, -1,
      217, 208, 224, -1,
      224, 208, 226, -1,
      10, 9, 227, -1,
      227, 9, 39, -1,
      227, 39, 226, -1,
      226, 39, 228, -1,
      229, 230, 228, -1,
      229, 228, 231, -1,
      230, 232, 228, -1,
      228, 232, 233, -1,
      228, 233, 226, -1,
      226, 233, 234, -1,
      226, 234, 235, -1,
      235, 236, 226, -1,
      226, 236, 237, -1,
      226, 237, 238, -1,
      238, 239, 226, -1,
      226, 239, 240, -1,
      226, 240, 224, -1,
      224, 240, 241, -1,
      224, 241, 225, -1,
      242, 243, 228, -1,
      228, 243, 244, -1,
      228, 244, 231, -1,
      245, 246, 247, -1,
      198, 197, 242, -1,
      242, 228, 198, -1,
      198, 228, 245, -1,
      198, 245, 248, -1,
      248, 245, 247, -1,
      249, 250, 247, -1,
      251, 252, 208, -1,
      208, 252, 253, -1,
      208, 254, 226, -1,
      226, 254, 255, -1,
      226, 255, 227, -1,
      227, 255, 256, -1,
      250, 46, 247, -1,
      247, 46, 257, -1,
      247, 257, 258, -1,
      208, 223, 251, -1,
      251, 223, 47, -1,
      251, 47, 259, -1,
      259, 47, 46, -1,
      259, 46, 253, -1,
      260, 208, 261, -1,
      261, 208, 253, -1,
      261, 253, 262, -1,
      262, 253, 46, -1,
      262, 46, 263, -1,
      263, 46, 250, -1,
      263, 250, 260, -1,
      260, 250, 264, -1,
      260, 264, 208, -1,
      208, 264, 265, -1,
      208, 265, 254, -1,
      254, 265, 249, -1,
      254, 249, 266, -1,
      266, 249, 247, -1,
      266, 247, 256, -1,
      256, 247, 246, -1,
      256, 246, 227, -1,
      224, 203, 217, -1,
      217, 203, 206, -1,
      242, 197, 243, -1,
      243, 197, 196, -1,
      267, 257, 48, -1,
      48, 257, 46, -1,
      268, 258, 267, -1,
      267, 258, 257, -1,
      248, 247, 268, -1,
      268, 247, 258, -1,
      200, 267, 49, -1,
      49, 267, 48, -1,
      199, 268, 200, -1,
      200, 268, 267, -1,
      198, 248, 199, -1,
      199, 248, 268, -1,
      173, 205, 204, -1,
      269, 169, 270, -1,
      270, 169, 165, -1,
      270, 165, 241, -1,
      241, 165, 173, -1,
      241, 173, 225, -1,
      225, 173, 204, -1,
      196, 195, 243, -1,
      243, 195, 271, -1,
      243, 271, 244, -1,
      235, 234, 272, -1,
      272, 234, 273, -1,
      42, 41, 195, -1,
      195, 41, 274, -1,
      269, 270, 275, -1,
      276, 277, 278, -1,
      269, 275, 278, -1,
      278, 275, 279, -1,
      278, 279, 276, -1,
      276, 280, 277, -1,
      277, 280, 281, -1,
      277, 281, 272, -1,
      272, 273, 277, -1,
      277, 273, 282, -1,
      277, 282, 283, -1,
      283, 282, 284, -1,
      283, 284, 285, -1,
      285, 286, 283, -1,
      283, 286, 287, -1,
      283, 287, 274, -1,
      274, 287, 271, -1,
      274, 271, 195, -1,
      166, 167, 274, -1,
      274, 167, 283, -1,
      277, 283, 168, -1,
      168, 283, 167, -1,
      40, 166, 41, -1,
      41, 166, 274, -1,
      205, 173, 154, -1,
      154, 173, 162, -1,
      154, 162, 131, -1,
      131, 162, 160, -1,
      131, 160, 132, -1,
      169, 269, 170, -1,
      170, 269, 278, -1,
      170, 278, 168, -1,
      168, 278, 277, -1,
      14, 288, 15, -1,
      15, 288, 171, -1,
      288, 123, 171, -1,
      171, 123, 122, -1,
      13, 123, 14, -1,
      14, 123, 288, -1,
      235, 272, 236, -1,
      236, 272, 281, -1,
      236, 281, 237, -1,
      237, 281, 280, -1,
      237, 280, 238, -1,
      238, 280, 276, -1,
      238, 276, 239, -1,
      239, 276, 279, -1,
      239, 279, 240, -1,
      240, 279, 275, -1,
      240, 275, 241, -1,
      241, 275, 270, -1,
      273, 234, 282, -1,
      282, 234, 233, -1,
      282, 233, 284, -1,
      284, 233, 232, -1,
      284, 232, 285, -1,
      285, 232, 230, -1,
      285, 230, 286, -1,
      286, 230, 229, -1,
      286, 229, 287, -1,
      287, 229, 231, -1,
      287, 231, 271, -1,
      271, 231, 244, -1,
      213, 214, 201, -1,
      201, 214, 289, -1,
      201, 289, 202, -1,
      290, 291, 220, -1,
      220, 291, 211, -1,
      194, 37, 38, -1,
      292, 192, 191, -1,
      191, 293, 186, -1,
      290, 294, 186, -1,
      290, 186, 291, -1,
      294, 295, 186, -1,
      186, 295, 296, -1,
      186, 296, 191, -1,
      191, 296, 297, -1,
      191, 297, 292, -1,
      298, 299, 185, -1,
      185, 299, 300, -1,
      185, 300, 186, -1,
      186, 300, 301, -1,
      186, 301, 291, -1,
      38, 202, 194, -1,
      194, 202, 289, -1,
      194, 289, 185, -1,
      185, 289, 302, -1,
      185, 302, 298, -1,
      37, 194, 35, -1,
      35, 194, 177, -1,
      155, 157, 303, -1,
      304, 179, 305, -1,
      305, 179, 178, -1,
      305, 178, 303, -1,
      303, 178, 190, -1,
      303, 190, 155, -1,
      190, 188, 155, -1,
      155, 188, 108, -1,
      155, 108, 156, -1,
      156, 108, 107, -1,
      156, 107, 57, -1,
      184, 183, 293, -1,
      293, 183, 186, -1,
      180, 184, 191, -1,
      191, 184, 293, -1,
      306, 17, 182, -1,
      182, 17, 32, -1,
      54, 306, 55, -1,
      55, 306, 182, -1,
      54, 19, 306, -1,
      306, 19, 17, -1,
      290, 220, 294, -1,
      294, 220, 219, -1,
      294, 219, 295, -1,
      295, 219, 218, -1,
      295, 218, 296, -1,
      296, 218, 207, -1,
      296, 207, 297, -1,
      297, 207, 209, -1,
      297, 209, 292, -1,
      292, 209, 210, -1,
      292, 210, 192, -1,
      192, 210, 193, -1,
      211, 291, 212, -1,
      212, 291, 301, -1,
      212, 301, 221, -1,
      221, 301, 300, -1,
      221, 300, 222, -1,
      222, 300, 299, -1,
      222, 299, 216, -1,
      216, 299, 298, -1,
      216, 298, 215, -1,
      215, 298, 302, -1,
      215, 302, 214, -1,
      214, 302, 289, -1,
      307, 181, 304, -1,
      304, 181, 179, -1,
      59, 56, 307, -1,
      307, 56, 181, -1,
      164, 163, 175, -1,
      175, 163, 308, -1,
      163, 135, 308, -1,
      308, 135, 136, -1,
    ]
  }
}

Shape {
  appearance Appearance {
    material Material {
      diffuseColor 0.6667 0.6667 0.6667
      specularColor 0.4667 0.4667 0.4667
      ambientIntensity 0.2
      transparency 0.0000
      shininess 0.5
    }
  }
  geometry IndexedFaceSet {
    ccw TRUE
    solid FALSE
    coord DEF co Coordinate {
      point [
        -1.082677 0.000000 0.071833,
        -1.279528 0.000000 0.071833,
        -1.082677 0.000000 -1.033268,
        1.279528 0.000000 0.071833,
        1.279528 0.000000 -1.033268,
        1.082677 0.000000 -1.033268,
        -1.279528 0.000000 -1.033268,
        -0.492126 0.000000 0.071833,
        -0.492126 0.000000 -1.033268,
        0.492126 0.000000 -1.033268,
        0.492126 0.000000 0.071833,
        0.295276 0.000000 0.071833,
        -0.295276 0.000000 -1.033268,
        -0.295276 0.000000 0.071833,
        0.295276 0.000000 -1.033268,
        1.082677 0.000000 0.071833,
        2.066929 -1.311024 -1.082677,
        2.185039 -1.311024 -1.082677,
        -2.185039 -1.311024 -1.082677,
        -2.066929 -1.311024 -1.082677,
        2.066929 -2.098425 -0.807087,
        2.066929 -1.311024 -0.807087,
        -2.066929 -1.311024 -0.807087,
        -2.066929 -2.098425 -0.807087,
        -2.066929 -2.098425 -0.216535,
        -2.185039 -2.098425 -0.216535,
        -2.185039 -2.098425 -0.807087,
        -0.492126 -0.444882 0.255906,
        -0.295276 -0.444882 0.255906,
        1.279528 -0.444882 0.255906,
        1.279528 -0.444882 0.059055,
        1.082677 -0.444882 0.059055,
        -1.082677 -0.444882 0.059055,
        -1.279528 -0.444882 0.059055,
        -1.279528 -0.444882 0.255906,
        1.082677 -0.444882 0.255906,
        0.295276 -0.444882 0.059055,
        0.492126 -0.444882 0.059055,
        0.492126 -0.444882 0.255906,
        0.295276 -0.444882 0.255906,
        -0.295276 -0.444882 0.059055,
        -0.492126 -0.444882 0.059055,
        -1.082677 -0.444882 0.255906,
        2.066929 -2.098425 -0.216535,
        2.185039 -2.098425 -0.807087,
        2.185039 -2.098425 -0.216535,
        2.185039 -1.311024 -0.807087,
        -2.185039 -1.311024 -0.807087,
        1.135423 -2.216535 0.203159,
        1.135423 -2.216535 0.111801,
        1.226781 -2.216535 0.203159,
        1.226781 -2.216535 0.111801,
        1.082677 -2.019685 0.255906,
        1.082677 -2.019685 0.059055,
        1.279528 -2.019685 0.059055,
        1.279528 -2.019685 0.255906,
        1.082677 0.059828 -1.070995,
        1.279528 0.059828 -1.070995,
        1.082677 0.126567 -1.094420,
        1.279528 0.126567 -1.094420,
        1.082677 0.196850 -1.102362,
        1.279528 0.196850 -1.102362,
        1.279528 0.736220 -1.102362,
        1.082677 0.736220 -1.102362,
        1.135423 0.933071 -1.049616,
        1.135423 0.933071 -0.958258,
        1.226781 0.933071 -1.049616,
        1.226781 0.933071 -0.958258,
        1.082677 0.736220 -0.905512,
        1.082677 0.196850 -0.905512,
        1.279528 0.736220 -0.905512,
        1.279528 0.196850 -0.905512,
        1.279528 0.166281 -0.901487,
        1.082677 0.166281 -0.901487,
        1.279528 0.137795 -0.889688,
        1.082677 0.137795 -0.889688,
        1.279528 0.113334 -0.870918,
        1.082677 0.113334 -0.870918,
        1.279528 0.094564 -0.846457,
        1.082677 0.094564 -0.846457,
        1.279528 0.082765 -0.817971,
        1.082677 0.082765 -0.817971,
        1.279528 0.078740 -0.787402,
        1.082677 0.078740 -0.787402,
        1.279528 0.078740 -0.177165,
        1.082677 0.078740 -0.177165,
        1.082677 0.069744 -0.089352,
        1.279528 0.069744 -0.089352,
        1.082677 0.043128 -0.005187,
        1.279528 0.043128 -0.005187,
        0.348022 -2.216535 0.203159,
        0.348022 -2.216535 0.111801,
        0.439380 -2.216535 0.203159,
        0.439380 -2.216535 0.111801,
        0.295276 -2.019685 0.255906,
        0.295276 -2.019685 0.059055,
        0.492126 -2.019685 0.059055,
        0.492126 -2.019685 0.255906,
        0.295276 0.059828 -1.070995,
        0.492126 0.059828 -1.070995,
        0.295276 0.126567 -1.094420,
        0.492126 0.126567 -1.094420,
        0.295276 0.196850 -1.102362,
        0.492126 0.196850 -1.102362,
        0.492126 0.736220 -1.102362,
        0.295276 0.736220 -1.102362,
        0.348022 0.933071 -1.049616,
        0.348022 0.933071 -0.958258,
        0.439380 0.933071 -1.049616,
        0.439380 0.933071 -0.958258,
        0.295276 0.736220 -0.905512,
        0.295276 0.196850 -0.905512,
        0.492126 0.736220 -0.905512,
        0.492126 0.196850 -0.905512,
        0.492126 0.166281 -0.901487,
        0.295276 0.166281 -0.901487,
        0.492126 0.137795 -0.889688,
        0.295276 0.137795 -0.889688,
        0.492126 0.113334 -0.870918,
        0.295276 0.113334 -0.870918,
        0.492126 0.094564 -0.846457,
        0.295276 0.094564 -0.846457,
        0.492126 0.082765 -0.817971,
        0.295276 0.082765 -0.817971,
        0.492126 0.078740 -0.787402,
        0.295276 0.078740 -0.787402,
        0.492126 0.078740 -0.177165,
        0.295276 0.078740 -0.177165,
        0.295276 0.069744 -0.089352,
        0.492126 0.069744 -0.089352,
        0.295276 0.043128 -0.005187,
        0.492126 0.043128 -0.005187,
        -0.439380 -2.216535 0.203159,
        -0.439380 -2.216535 0.111801,
        -0.348022 -2.216535 0.203159,
        -0.348022 -2.216535 0.111801,
        -0.492126 -2.019685 0.255906,
        -0.492126 -2.019685 0.059055,
        -0.295276 -2.019685 0.059055,
        -0.295276 -2.019685 0.255906,
        -0.492126 0.059828 -1.070995,
        -0.295276 0.059828 -1.070995,
        -0.492126 0.126567 -1.094420,
        -0.295276 0.126567 -1.094420,
        -0.492126 0.196850 -1.102362,
        -0.295276 0.196850 -1.102362,
        -0.295276 0.736220 -1.102362,
        -0.492126 0.736220 -1.102362,
        -0.439380 0.933071 -1.049616,
        -0.439380 0.933071 -0.958258,
        -0.348022 0.933071 -1.049616,
        -0.348022 0.933071 -0.958258,
        -0.492126 0.736220 -0.905512,
        -0.492126 0.196850 -0.905512,
        -0.295276 0.736220 -0.905512,
        -0.295276 0.196850 -0.905512,
        -0.295276 0.166281 -0.901487,
        -0.492126 0.166281 -0.901487,
        -0.295276 0.137795 -0.889688,
        -0.492126 0.137795 -0.889688,
        -0.295276 0.113334 -0.870918,
        -0.492126 0.113334 -0.870918,
        -0.295276 0.094564 -0.846457,
        -0.492126 0.094564 -0.846457,
        -0.295276 0.082765 -0.817971,
        -0.492126 0.082765 -0.817971,
        -0.295276 0.078740 -0.787402,
        -0.492126 0.078740 -0.787402,
        -0.295276 0.078740 -0.177165,
        -0.492126 0.078740 -0.177165,
        -0.492126 0.069744 -0.089352,
        -0.295276 0.069744 -0.089352,
        -0.492126 0.043128 -0.005187,
        -0.295276 0.043128 -0.005187,
        -1.226781 -2.216535 0.203159,
        -1.226781 -2.216535 0.111801,
        -1.135423 -2.216535 0.203159,
        -1.135423 -2.216535 0.111801,
        -1.279528 -2.019685 0.255906,
        -1.279528 -2.019685 0.059055,
        -1.082677 -2.019685 0.059055,
        -1.082677 -2.019685 0.255906,
        -1.279528 0.059828 -1.070995,
        -1.082677 0.059828 -1.070995,
        -1.279528 0.126567 -1.094420,
        -1.082677 0.126567 -1.094420,
        -1.279528 0.196850 -1.102362,
        -1.082677 0.196850 -1.102362,
        -1.082677 0.736220 -1.102362,
        -1.279528 0.736220 -1.102362,
        -1.226781 0.933071 -1.049616,
        -1.226781 0.933071 -0.958258,
        -1.135423 0.933071 -1.049616,
        -1.135423 0.933071 -0.958258,
        -1.279528 0.736220 -0.905512,
        -1.279528 0.196850 -0.905512,
        -1.082677 0.736220 -0.905512,
        -1.082677 0.196850 -0.905512,
        -1.082677 0.166281 -0.901487,
        -1.279528 0.166281 -0.901487,
        -1.082677 0.137795 -0.889688,
        -1.279528 0.137795 -0.889688,
        -1.082677 0.113334 -0.870918,
        -1.279528 0.113334 -0.870918,
        -1.082677 0.094564 -0.846457,
        -1.279528 0.094564 -0.846457,
        -1.082677 0.082765 -0.817971,
        -1.279528 0.082765 -0.817971,
        -1.082677 0.078740 -0.787402,
        -1.279528 0.078740 -0.787402,
        -1.082677 0.078740 -0.177165,
        -1.279528 0.078740 -0.177165,
        -1.279528 0.069744 -0.089352,
        -1.082677 0.069744 -0.089352,
        -1.279528 0.043128 -0.005187,
        -1.082677 0.043128 -0.005187,
        -2.185039 -2.295276 -0.216535,
        -2.066929 -2.295276 -0.216535,
        -2.185039 -2.295276 -1.122047,
        -2.185039 -1.311024 -1.122047,
        -2.066929 -1.311024 -1.122047,
        -2.066929 -2.295276 -1.122047,
        2.185039 -1.311024 -1.122047,
        2.066929 -1.311024 -1.122047,
        2.185039 -2.295276 -1.122047,
        2.066929 -2.295276 -1.122047,
        2.066929 -2.295276 -0.216535,
        2.185039 -2.295276 -0.216535,
      ]
    }
    coordIndex [
      48, 49, 50, -1,
      50, 49, 51, -1,
      52, 35, 53, -1,
      53, 35, 31, -1,
      54, 30, 55, -1,
      55, 30, 29, -1,
      53, 31, 54, -1,
      54, 31, 30, -1,
      55, 29, 52, -1,
      52, 29, 35, -1,
      4, 5, 56, -1,
      4, 56, 57, -1,
      57, 56, 58, -1,
      57, 58, 59, -1,
      59, 58, 60, -1,
      59, 60, 61, -1,
      62, 61, 63, -1,
      63, 61, 60, -1,
      64, 65, 66, -1,
      66, 65, 67, -1,
      68, 69, 70, -1,
      70, 69, 71, -1,
      71, 69, 72, -1,
      72, 69, 73, -1,
      72, 73, 74, -1,
      74, 73, 75, -1,
      74, 75, 76, -1,
      76, 75, 77, -1,
      76, 77, 78, -1,
      78, 77, 79, -1,
      78, 79, 80, -1,
      80, 79, 81, -1,
      80, 81, 82, -1,
      82, 81, 83, -1,
      84, 82, 85, -1,
      85, 82, 83, -1,
      84, 85, 86, -1,
      84, 86, 87, -1,
      87, 86, 88, -1,
      87, 88, 89, -1,
      89, 88, 15, -1,
      89, 15, 3, -1,
      62, 70, 61, -1,
      61, 70, 71, -1,
      61, 71, 59, -1,
      59, 71, 72, -1,
      59, 72, 57, -1,
      57, 72, 74, -1,
      57, 74, 4, -1,
      4, 74, 76, -1,
      4, 76, 78, -1,
      78, 80, 4, -1,
      4, 80, 82, -1,
      4, 82, 84, -1,
      87, 89, 84, -1,
      84, 89, 3, -1,
      84, 3, 4, -1,
      83, 81, 5, -1,
      88, 86, 85, -1,
      68, 63, 69, -1,
      69, 63, 60, -1,
      69, 60, 73, -1,
      73, 60, 58, -1,
      73, 58, 75, -1,
      75, 58, 56, -1,
      75, 56, 77, -1,
      77, 56, 5, -1,
      77, 5, 79, -1,
      79, 5, 81, -1,
      83, 5, 85, -1,
      85, 5, 15, -1,
      85, 15, 88, -1,
      70, 67, 68, -1,
      68, 67, 65, -1,
      62, 66, 70, -1,
      70, 66, 67, -1,
      64, 63, 65, -1,
      65, 63, 68, -1,
      63, 64, 62, -1,
      62, 64, 66, -1,
      54, 51, 53, -1,
      53, 51, 49, -1,
      55, 50, 54, -1,
      54, 50, 51, -1,
      48, 52, 49, -1,
      49, 52, 53, -1,
      52, 48, 55, -1,
      55, 48, 50, -1,
      90, 91, 92, -1,
      92, 91, 93, -1,
      94, 39, 95, -1,
      95, 39, 36, -1,
      96, 37, 97, -1,
      97, 37, 38, -1,
      95, 36, 96, -1,
      96, 36, 37, -1,
      97, 38, 94, -1,
      94, 38, 39, -1,
      9, 14, 98, -1,
      9, 98, 99, -1,
      99, 98, 100, -1,
      99, 100, 101, -1,
      101, 100, 102, -1,
      101, 102, 103, -1,
      104, 103, 105, -1,
      105, 103, 102, -1,
      106, 107, 108, -1,
      108, 107, 109, -1,
      110, 111, 112, -1,
      112, 111, 113, -1,
      113, 111, 114, -1,
      114, 111, 115, -1,
      114, 115, 116, -1,
      116, 115, 117, -1,
      116, 117, 118, -1,
      118, 117, 119, -1,
      118, 119, 120, -1,
      120, 119, 121, -1,
      120, 121, 122, -1,
      122, 121, 123, -1,
      122, 123, 124, -1,
      124, 123, 125, -1,
      126, 124, 127, -1,
      127, 124, 125, -1,
      126, 127, 128, -1,
      126, 128, 129, -1,
      129, 128, 130, -1,
      129, 130, 131, -1,
      131, 130, 11, -1,
      131, 11, 10, -1,
      104, 112, 103, -1,
      103, 112, 113, -1,
      103, 113, 101, -1,
      101, 113, 114, -1,
      101, 114, 99, -1,
      99, 114, 116, -1,
      99, 116, 9, -1,
      9, 116, 118, -1,
      9, 118, 120, -1,
      120, 122, 9, -1,
      9, 122, 124, -1,
      9, 124, 126, -1,
      129, 131, 126, -1,
      126, 131, 10, -1,
      126, 10, 9, -1,
      125, 123, 14, -1,
      130, 128, 127, -1,
      110, 105, 111, -1,
      111, 105, 102, -1,
      111, 102, 115, -1,
      115, 102, 100, -1,
      115, 100, 117, -1,
      117, 100, 98, -1,
      117, 98, 119, -1,
      119, 98, 14, -1,
      119, 14, 121, -1,
      121, 14, 123, -1,
      125, 14, 127, -1,
      127, 14, 11, -1,
      127, 11, 130, -1,
      132, 133, 134, -1,
      134, 133, 135, -1,
      136, 27, 137, -1,
      137, 27, 41, -1,
      138, 40, 139, -1,
      139, 40, 28, -1,
      137, 41, 138, -1,
      138, 41, 40, -1,
      139, 28, 136, -1,
      136, 28, 27, -1,
      12, 8, 140, -1,
      12, 140, 141, -1,
      141, 140, 142, -1,
      141, 142, 143, -1,
      143, 142, 144, -1,
      143, 144, 145, -1,
      146, 145, 147, -1,
      147, 145, 144, -1,
      148, 149, 150, -1,
      150, 149, 151, -1,
      152, 153, 154, -1,
      154, 153, 155, -1,
      155, 153, 156, -1,
      156, 153, 157, -1,
      156, 157, 158, -1,
      158, 157, 159, -1,
      158, 159, 160, -1,
      160, 159, 161, -1,
      160, 161, 162, -1,
      162, 161, 163, -1,
      162, 163, 164, -1,
      164, 163, 165, -1,
      164, 165, 166, -1,
      166, 165, 167, -1,
      168, 166, 169, -1,
      169, 166, 167, -1,
      168, 169, 170, -1,
      168, 170, 171, -1,
      171, 170, 172, -1,
      171, 172, 173, -1,
      173, 172, 7, -1,
      173, 7, 13, -1,
      146, 154, 145, -1,
      145, 154, 155, -1,
      145, 155, 143, -1,
      143, 155, 156, -1,
      143, 156, 141, -1,
      141, 156, 158, -1,
      141, 158, 12, -1,
      12, 158, 160, -1,
      12, 160, 162, -1,
      162, 164, 12, -1,
      12, 164, 166, -1,
      12, 166, 168, -1,
      171, 173, 168, -1,
      168, 173, 13, -1,
      168, 13, 12, -1,
      167, 165, 8, -1,
      172, 170, 169, -1,
      152, 147, 153, -1,
      153, 147, 144, -1,
      153, 144, 157, -1,
      157, 144, 142, -1,
      157, 142, 159, -1,
      159, 142, 140, -1,
      159, 140, 161, -1,
      161, 140, 8, -1,
      161, 8, 163, -1,
      163, 8, 165, -1,
      167, 8, 169, -1,
      169, 8, 7, -1,
      169, 7, 172, -1,
      174, 175, 176, -1,
      176, 175, 177, -1,
      178, 34, 179, -1,
      179, 34, 33, -1,
      180, 32, 181, -1,
      181, 32, 42, -1,
      179, 33, 180, -1,
      180, 33, 32, -1,
      181, 42, 178, -1,
      178, 42, 34, -1,
      2, 6, 182, -1,
      2, 182, 183, -1,
      183, 182, 184, -1,
      183, 184, 185, -1,
      185, 184, 186, -1,
      185, 186, 187, -1,
      188, 187, 189, -1,
      189, 187, 186, -1,
      190, 191, 192, -1,
      192, 191, 193, -1,
      194, 195, 196, -1,
      196, 195, 197, -1,
      197, 195, 198, -1,
      198, 195, 199, -1,
      198, 199, 200, -1,
      200, 199, 201, -1,
      200, 201, 202, -1,
      202, 201, 203, -1,
      202, 203, 204, -1,
      204, 203, 205, -1,
      204, 205, 206, -1,
      206, 205, 207, -1,
      206, 207, 208, -1,
      208, 207, 209, -1,
      210, 208, 211, -1,
      211, 208, 209, -1,
      210, 211, 212, -1,
      210, 212, 213, -1,
      213, 212, 214, -1,
      213, 214, 215, -1,
      215, 214, 1, -1,
      215, 1, 0, -1,
      188, 196, 187, -1,
      187, 196, 197, -1,
      187, 197, 185, -1,
      185, 197, 198, -1,
      185, 198, 183, -1,
      183, 198, 200, -1,
      183, 200, 2, -1,
      2, 200, 202, -1,
      2, 202, 204, -1,
      204, 206, 2, -1,
      2, 206, 208, -1,
      2, 208, 210, -1,
      213, 215, 210, -1,
      210, 215, 0, -1,
      210, 0, 2, -1,
      209, 207, 6, -1,
      214, 212, 211, -1,
      194, 189, 195, -1,
      195, 189, 186, -1,
      195, 186, 199, -1,
      199, 186, 184, -1,
      199, 184, 201, -1,
      201, 184, 182, -1,
      201, 182, 203, -1,
      203, 182, 6, -1,
      203, 6, 205, -1,
      205, 6, 207, -1,
      209, 6, 211, -1,
      211, 6, 1, -1,
      211, 1, 214, -1,
      112, 109, 110, -1,
      110, 109, 107, -1,
      104, 108, 112, -1,
      112, 108, 109, -1,
      106, 105, 107, -1,
      107, 105, 110, -1,
      105, 106, 104, -1,
      104, 106, 108, -1,
      96, 93, 95, -1,
      95, 93, 91, -1,
      97, 92, 96, -1,
      96, 92, 93, -1,
      90, 94, 91, -1,
      91, 94, 95, -1,
      94, 90, 97, -1,
      97, 90, 92, -1,
      154, 151, 152, -1,
      152, 151, 149, -1,
      146, 150, 154, -1,
      154, 150, 151, -1,
      148, 147, 149, -1,
      149, 147, 152, -1,
      147, 148, 146, -1,
      146, 148, 150, -1,
      138, 135, 137, -1,
      137, 135, 133, -1,
      139, 134, 138, -1,
      138, 134, 135, -1,
      132, 136, 133, -1,
      133, 136, 137, -1,
      136, 132, 139, -1,
      139, 132, 134, -1,
      196, 193, 194, -1,
      194, 193, 191, -1,
      188, 192, 196, -1,
      196, 192, 193, -1,
      190, 189, 191, -1,
      191, 189, 194, -1,
      189, 190, 188, -1,
      188, 190, 192, -1,
      180, 177, 179, -1,
      179, 177, 175, -1,
      181, 176, 180, -1,
      180, 176, 177, -1,
      174, 178, 175, -1,
      175, 178, 179, -1,
      178, 174, 181, -1,
      181, 174, 176, -1,
      25, 216, 24, -1,
      24, 216, 217, -1,
      216, 25, 218, -1,
      218, 25, 26, -1,
      26, 47, 218, -1,
      218, 47, 18, -1,
      218, 18, 219, -1,
      19, 22, 23, -1,
      220, 19, 221, -1,
      221, 19, 23, -1,
      221, 23, 217, -1,
      217, 23, 24, -1,
      218, 219, 221, -1,
      221, 219, 220, -1,
      216, 218, 217, -1,
      217, 218, 221, -1,
      220, 219, 19, -1,
      19, 219, 18, -1,
      17, 222, 16, -1,
      16, 222, 223, -1,
      222, 224, 223, -1,
      223, 224, 225, -1,
      43, 226, 45, -1,
      45, 226, 227, -1,
      224, 227, 225, -1,
      225, 227, 226, -1,
      17, 46, 44, -1,
      222, 17, 224, -1,
      224, 17, 44, -1,
      224, 44, 227, -1,
      227, 44, 45, -1,
      226, 43, 225, -1,
      225, 43, 20, -1,
      20, 21, 225, -1,
      225, 21, 16, -1,
      225, 16, 223, -1,
    ]
  }
}

Shape {
  appearance Appearance {
    material Material {
      diffuseColor 1.0000 1.0000 1.0000
      specularColor 0.8784 0.8784 0.8784
      ambientIntensity 0.2
      transparency 0.0000
      shininess 0.5
    }
  }
  geometry IndexedFaceSet {
    ccw TRUE
    solid FALSE
    coord DEF co Coordinate {
      point [
        0.168531 -1.405463 -1.082677,
        0.187914 -1.407641 -1.082677,
        0.125959 -1.553255 -1.082677,
        0.202648 -1.412958 -1.082677,
        0.216273 -1.422073 -1.082677,
        0.228160 -1.435196 -1.082677,
        0.242462 -1.486784 -1.082677,
        0.240469 -1.508094 -1.082677,
        0.235121 -1.525026 -1.082677,
        0.191317 -1.561844 -1.082677,
        0.172957 -1.563904 -1.082677,
        0.205661 -1.556564 -1.082677,
        0.217742 -1.548421 -1.082677,
        0.226980 -1.538676 -1.082677,
        0.146827 -1.561004 -1.082677,
        0.144604 -1.408572 -1.082677,
        0.122431 -1.551301 -1.082677,
        0.122431 -1.418067 -1.082677,
        0.122431 -1.391660 -1.082677,
        0.236276 -1.450395 -1.082677,
        0.241523 -1.471469 -1.082677,
        0.386499 -1.583109 -1.082677,
        0.188172 -1.584309 -1.082677,
        0.285673 -1.583109 -1.082677,
        0.200854 -1.582994 -1.082677,
        0.219934 -1.576427 -1.082677,
        0.235768 -1.566315 -1.082677,
        0.250554 -1.550749 -1.082677,
        0.285673 -1.561504 -1.082677,
        0.261041 -1.532031 -1.082677,
        0.360092 -1.561504 -1.082677,
        0.246942 -1.419702 -1.082677,
        0.229170 -1.402610 -1.082677,
        0.210472 -1.391848 -1.082677,
        0.188527 -1.385472 -1.082677,
        0.266965 -1.511195 -1.082677,
        0.268869 -1.488397 -1.082677,
        0.360092 -1.386259 -1.082677,
        0.266037 -1.460411 -1.082677,
        0.258480 -1.438106 -1.082677,
        0.168756 -1.383858 -1.082677,
        0.145191 -1.385484 -1.082677,
        0.122431 -1.572907 -1.082677,
        0.143415 -1.581522 -1.082677,
        0.163306 -1.584309 -1.082677,
        0.171213 -1.585417 -1.082677,
        0.176595 -1.585509 -1.082677,
        0.386499 -1.386259 -1.082677,
        -0.012003 -1.494286 -1.082677,
        0.057615 -1.494286 -1.082677,
        0.057615 -1.561504 -1.082677,
        -0.021606 -1.583109 -1.082677,
        -0.060015 -1.583109 -1.082677,
        -0.021606 -1.561504 -1.082677,
        -0.060015 -1.386259 -1.082677,
        0.084022 -1.583109 -1.082677,
        0.084022 -1.386259 -1.082677,
        -0.016804 -1.386259 -1.082677,
        -0.232859 -1.583109 -1.082677,
        -0.208626 -1.529157 -1.082677,
        -0.197337 -1.546764 -1.082677,
        0.057615 -1.407864 -1.082677,
        0.057615 -1.472681 -1.082677,
        -0.016804 -1.407864 -1.082677,
        -0.012003 -1.472681 -1.082677,
        -0.181135 -1.562278 -1.082677,
        -0.160581 -1.574222 -1.082677,
        -0.137898 -1.580983 -1.082677,
        -0.333685 -1.386259 -1.082677,
        -0.307279 -1.386259 -1.082677,
        -0.144007 -1.389299 -1.082677,
        -0.167038 -1.397386 -1.082677,
        -0.188464 -1.411745 -1.082677,
        -0.115567 -1.386259 -1.082677,
        -0.410505 -1.583109 -1.082677,
        -0.381698 -1.583109 -1.082677,
        -0.188670 -1.411926 -1.082677,
        -0.202590 -1.427361 -1.082677,
        -0.211738 -1.444291 -1.082677,
        -0.217025 -1.463685 -1.082677,
        -0.218456 -1.482208 -1.082677,
        -0.215694 -1.508552 -1.082677,
        -0.113542 -1.583109 -1.082677,
        -0.361780 -1.527895 -1.082677,
        -0.280459 -1.527895 -1.082677,
        -0.261667 -1.583109 -1.082677,
        -0.333685 -1.386259 -1.074803,
        -0.410505 -1.583109 -1.074803,
        -0.381698 -1.583109 -1.074803,
        -0.361780 -1.527895 -1.074803,
        -0.280459 -1.527895 -1.074803,
        -0.261667 -1.583109 -1.074803,
        -0.232859 -1.583109 -1.074803,
        -0.307279 -1.386259 -1.074803,
        -0.287098 -1.506289 -1.074803,
        -0.352928 -1.506289 -1.074803,
        -0.316469 -1.424068 -1.074803,
        -0.318363 -1.417241 -1.074803,
        -0.319619 -1.410265 -1.074803,
        -0.320257 -1.410265 -1.074803,
        -0.321541 -1.417220 -1.074803,
        -0.323295 -1.424068 -1.074803,
        -0.287098 -1.506289 -1.082677,
        -0.352928 -1.506289 -1.082677,
        -0.316469 -1.424068 -1.082677,
        -0.318363 -1.417241 -1.082677,
        -0.319619 -1.410265 -1.082677,
        -0.320257 -1.410265 -1.082677,
        -0.321541 -1.417220 -1.082677,
        -0.323295 -1.424068 -1.082677,
        -0.113542 -1.583109 -1.074803,
        -0.060015 -1.583109 -1.074803,
        -0.060015 -1.386259 -1.074803,
        -0.115567 -1.386259 -1.074803,
        -0.218456 -1.482208 -1.074803,
        -0.217025 -1.463685 -1.074803,
        -0.211738 -1.444291 -1.074803,
        -0.202590 -1.427361 -1.074803,
        -0.188670 -1.411926 -1.074803,
        -0.188464 -1.411745 -1.074803,
        -0.167038 -1.397386 -1.074803,
        -0.144007 -1.389299 -1.074803,
        -0.137898 -1.580983 -1.074803,
        -0.160581 -1.574222 -1.074803,
        -0.181135 -1.562278 -1.074803,
        -0.197337 -1.546764 -1.074803,
        -0.208626 -1.529157 -1.074803,
        -0.215694 -1.508552 -1.074803,
        -0.178943 -1.435469 -1.074803,
        -0.169381 -1.425316 -1.074803,
        -0.155002 -1.416027 -1.074803,
        -0.138754 -1.410341 -1.074803,
        -0.115455 -1.407864 -1.074803,
        -0.086422 -1.407864 -1.074803,
        -0.086422 -1.561504 -1.074803,
        -0.114367 -1.561504 -1.074803,
        -0.135135 -1.559570 -1.074803,
        -0.151700 -1.554400 -1.074803,
        -0.165125 -1.546428 -1.074803,
        -0.176166 -1.535523 -1.074803,
        -0.184468 -1.521950 -1.074803,
        -0.190242 -1.503446 -1.074803,
        -0.192049 -1.482771 -1.074803,
        -0.190377 -1.463179 -1.074803,
        -0.185781 -1.447610 -1.074803,
        -0.115455 -1.407864 -1.082677,
        -0.086422 -1.407864 -1.082677,
        -0.138754 -1.410341 -1.082677,
        -0.155002 -1.416027 -1.082677,
        -0.169381 -1.425316 -1.082677,
        -0.178943 -1.435469 -1.082677,
        -0.185781 -1.447610 -1.082677,
        -0.190377 -1.463179 -1.082677,
        -0.192049 -1.482771 -1.082677,
        -0.190242 -1.503446 -1.082677,
        -0.184468 -1.521950 -1.082677,
        -0.176166 -1.535523 -1.082677,
        -0.165125 -1.546428 -1.082677,
        -0.151700 -1.554400 -1.082677,
        -0.135135 -1.559570 -1.082677,
        -0.114367 -1.561504 -1.082677,
        -0.086422 -1.561504 -1.082677,
        -0.021606 -1.561504 -1.074803,
        -0.021606 -1.583109 -1.074803,
        0.084022 -1.583109 -1.074803,
        0.084022 -1.386259 -1.074803,
        -0.016804 -1.386259 -1.074803,
        -0.016804 -1.407864 -1.074803,
        0.057615 -1.407864 -1.074803,
        0.057615 -1.472681 -1.074803,
        -0.012003 -1.472681 -1.074803,
        -0.012003 -1.494286 -1.074803,
        0.057615 -1.494286 -1.074803,
        0.057615 -1.561504 -1.074803,
        0.122431 -1.551301 -1.074803,
        0.122431 -1.572907 -1.074803,
        0.143415 -1.581522 -1.074803,
        0.176595 -1.585509 -1.074803,
        0.171213 -1.585417 -1.074803,
        0.268869 -1.488397 -1.074803,
        0.266965 -1.511195 -1.074803,
        0.261041 -1.532031 -1.074803,
        0.250554 -1.550749 -1.074803,
        0.235768 -1.566315 -1.074803,
        0.219934 -1.576427 -1.074803,
        0.200854 -1.582994 -1.074803,
        0.168756 -1.383858 -1.074803,
        0.188527 -1.385472 -1.074803,
        0.210472 -1.391848 -1.074803,
        0.229170 -1.402610 -1.074803,
        0.246942 -1.419702 -1.074803,
        0.258480 -1.438106 -1.074803,
        0.266037 -1.460411 -1.074803,
        0.122431 -1.391660 -1.074803,
        0.145191 -1.385484 -1.074803,
        0.122431 -1.418067 -1.074803,
        0.168531 -1.405463 -1.074803,
        0.144604 -1.408572 -1.074803,
        0.242462 -1.486784 -1.074803,
        0.241523 -1.471469 -1.074803,
        0.236276 -1.450395 -1.074803,
        0.228160 -1.435196 -1.074803,
        0.216273 -1.422073 -1.074803,
        0.202648 -1.412958 -1.074803,
        0.187914 -1.407641 -1.074803,
        0.172957 -1.563904 -1.074803,
        0.191317 -1.561844 -1.074803,
        0.205661 -1.556564 -1.074803,
        0.217742 -1.548421 -1.074803,
        0.226980 -1.538676 -1.074803,
        0.235121 -1.525026 -1.074803,
        0.240469 -1.508094 -1.074803,
        0.125959 -1.553255 -1.074803,
        0.146827 -1.561004 -1.074803,
        0.285673 -1.561504 -1.074803,
        0.285673 -1.583109 -1.074803,
        0.386499 -1.583109 -1.074803,
        0.386499 -1.386259 -1.074803,
        0.360092 -1.386259 -1.074803,
        0.360092 -1.561504 -1.074803,
      ]
    }
    coordIndex [
      86, 87, 68, -1,
      68, 87, 74, -1,
      87, 88, 74, -1,
      74, 88, 75, -1,
      88, 89, 75, -1,
      75, 89, 83, -1,
      89, 90, 83, -1,
      83, 90, 84, -1,
      90, 91, 84, -1,
      84, 91, 85, -1,
      91, 92, 85, -1,
      85, 92, 58, -1,
      92, 93, 58, -1,
      58, 93, 69, -1,
      93, 86, 69, -1,
      69, 86, 68, -1,
      94, 90, 95, -1,
      95, 90, 89, -1,
      96, 93, 94, -1,
      94, 93, 92, -1,
      94, 92, 90, -1,
      90, 92, 91, -1,
      96, 97, 93, -1,
      93, 97, 98, -1,
      93, 98, 86, -1,
      86, 98, 99, -1,
      86, 99, 100, -1,
      100, 101, 86, -1,
      86, 101, 95, -1,
      86, 95, 87, -1,
      87, 95, 89, -1,
      87, 89, 88, -1,
      94, 95, 102, -1,
      102, 95, 103, -1,
      96, 94, 104, -1,
      104, 94, 102, -1,
      96, 104, 105, -1,
      96, 105, 97, -1,
      97, 105, 106, -1,
      97, 106, 98, -1,
      99, 98, 107, -1,
      107, 98, 106, -1,
      99, 107, 108, -1,
      99, 108, 100, -1,
      100, 108, 109, -1,
      100, 109, 101, -1,
      95, 101, 103, -1,
      103, 101, 109, -1,
      110, 111, 82, -1,
      82, 111, 52, -1,
      111, 112, 52, -1,
      52, 112, 54, -1,
      112, 113, 54, -1,
      54, 113, 73, -1,
      114, 80, 79, -1,
      114, 79, 115, -1,
      115, 79, 78, -1,
      115, 78, 116, -1,
      116, 78, 77, -1,
      116, 77, 117, -1,
      117, 77, 76, -1,
      117, 76, 118, -1,
      118, 76, 72, -1,
      118, 72, 119, -1,
      119, 72, 71, -1,
      119, 71, 120, -1,
      120, 71, 70, -1,
      120, 70, 121, -1,
      121, 70, 73, -1,
      121, 73, 113, -1,
      110, 82, 67, -1,
      110, 67, 122, -1,
      122, 67, 66, -1,
      122, 66, 123, -1,
      123, 66, 65, -1,
      123, 65, 124, -1,
      124, 65, 60, -1,
      124, 60, 125, -1,
      125, 60, 59, -1,
      125, 59, 126, -1,
      126, 59, 81, -1,
      126, 81, 127, -1,
      127, 81, 80, -1,
      127, 80, 114, -1,
      116, 117, 128, -1,
      128, 117, 118, -1,
      128, 118, 129, -1,
      129, 118, 119, -1,
      129, 119, 130, -1,
      130, 119, 120, -1,
      130, 120, 131, -1,
      131, 120, 121, -1,
      131, 121, 132, -1,
      132, 121, 113, -1,
      132, 113, 133, -1,
      133, 113, 112, -1,
      133, 112, 134, -1,
      134, 112, 111, -1,
      134, 111, 135, -1,
      135, 111, 110, -1,
      135, 110, 136, -1,
      136, 110, 122, -1,
      136, 122, 137, -1,
      137, 122, 123, -1,
      137, 123, 138, -1,
      138, 123, 124, -1,
      138, 124, 139, -1,
      139, 124, 125, -1,
      139, 125, 140, -1,
      140, 125, 126, -1,
      140, 126, 141, -1,
      141, 126, 127, -1,
      141, 127, 142, -1,
      142, 127, 114, -1,
      142, 114, 143, -1,
      143, 114, 115, -1,
      143, 115, 144, -1,
      144, 115, 116, -1,
      144, 116, 128, -1,
      132, 133, 145, -1,
      145, 133, 146, -1,
      132, 145, 147, -1,
      132, 147, 131, -1,
      131, 147, 148, -1,
      131, 148, 130, -1,
      130, 148, 149, -1,
      130, 149, 129, -1,
      129, 149, 150, -1,
      129, 150, 128, -1,
      128, 150, 151, -1,
      128, 151, 144, -1,
      144, 151, 152, -1,
      144, 152, 143, -1,
      143, 152, 153, -1,
      143, 153, 142, -1,
      142, 153, 154, -1,
      142, 154, 141, -1,
      141, 154, 155, -1,
      141, 155, 140, -1,
      140, 155, 156, -1,
      140, 156, 139, -1,
      139, 156, 157, -1,
      139, 157, 138, -1,
      138, 157, 158, -1,
      138, 158, 137, -1,
      137, 158, 159, -1,
      137, 159, 136, -1,
      136, 159, 160, -1,
      136, 160, 135, -1,
      134, 135, 161, -1,
      161, 135, 160, -1,
      133, 134, 146, -1,
      146, 134, 161, -1,
      162, 163, 53, -1,
      53, 163, 51, -1,
      163, 164, 51, -1,
      51, 164, 55, -1,
      164, 165, 55, -1,
      55, 165, 56, -1,
      165, 166, 56, -1,
      56, 166, 57, -1,
      166, 167, 57, -1,
      57, 167, 63, -1,
      167, 168, 63, -1,
      63, 168, 61, -1,
      168, 169, 61, -1,
      61, 169, 62, -1,
      169, 170, 62, -1,
      62, 170, 64, -1,
      170, 171, 64, -1,
      64, 171, 48, -1,
      171, 172, 48, -1,
      48, 172, 49, -1,
      172, 173, 49, -1,
      49, 173, 50, -1,
      173, 162, 50, -1,
      50, 162, 53, -1,
      164, 163, 162, -1,
      162, 173, 164, -1,
      164, 173, 172, -1,
      164, 172, 165, -1,
      167, 166, 168, -1,
      168, 166, 165, -1,
      168, 165, 169, -1,
      169, 165, 172, -1,
      169, 172, 170, -1,
      170, 172, 171, -1,
      174, 175, 16, -1,
      16, 175, 42, -1,
      42, 175, 176, -1,
      177, 46, 45, -1,
      177, 45, 178, -1,
      178, 45, 44, -1,
      178, 44, 176, -1,
      176, 44, 43, -1,
      176, 43, 42, -1,
      179, 36, 35, -1,
      179, 35, 180, -1,
      180, 35, 29, -1,
      180, 29, 181, -1,
      181, 29, 27, -1,
      181, 27, 182, -1,
      182, 27, 26, -1,
      182, 26, 183, -1,
      183, 26, 25, -1,
      183, 25, 184, -1,
      184, 25, 24, -1,
      184, 24, 185, -1,
      185, 24, 177, -1,
      177, 24, 22, -1,
      177, 22, 46, -1,
      186, 40, 34, -1,
      186, 34, 187, -1,
      187, 34, 33, -1,
      187, 33, 188, -1,
      188, 33, 32, -1,
      188, 32, 189, -1,
      189, 32, 31, -1,
      189, 31, 190, -1,
      190, 31, 39, -1,
      190, 39, 191, -1,
      191, 39, 38, -1,
      191, 38, 192, -1,
      192, 38, 36, -1,
      192, 36, 179, -1,
      193, 18, 41, -1,
      193, 41, 194, -1,
      194, 41, 40, -1,
      194, 40, 186, -1,
      193, 195, 18, -1,
      18, 195, 17, -1,
      196, 0, 15, -1,
      196, 15, 197, -1,
      197, 15, 17, -1,
      197, 17, 195, -1,
      198, 6, 20, -1,
      198, 20, 199, -1,
      199, 20, 19, -1,
      199, 19, 200, -1,
      200, 19, 5, -1,
      200, 5, 201, -1,
      201, 5, 4, -1,
      201, 4, 202, -1,
      202, 4, 3, -1,
      202, 3, 203, -1,
      203, 3, 1, -1,
      203, 1, 204, -1,
      204, 1, 0, -1,
      204, 0, 196, -1,
      205, 10, 9, -1,
      205, 9, 206, -1,
      206, 9, 11, -1,
      206, 11, 207, -1,
      207, 11, 12, -1,
      207, 12, 208, -1,
      208, 12, 13, -1,
      208, 13, 209, -1,
      209, 13, 8, -1,
      209, 8, 210, -1,
      210, 8, 7, -1,
      210, 7, 211, -1,
      211, 7, 6, -1,
      211, 6, 198, -1,
      174, 16, 2, -1,
      174, 2, 212, -1,
      212, 2, 14, -1,
      212, 14, 213, -1,
      213, 14, 10, -1,
      213, 10, 205, -1,
      206, 177, 205, -1,
      205, 177, 178, -1,
      205, 178, 213, -1,
      213, 178, 176, -1,
      213, 176, 212, -1,
      212, 176, 175, -1,
      212, 175, 174, -1,
      195, 193, 197, -1,
      197, 193, 194, -1,
      197, 194, 196, -1,
      196, 194, 186, -1,
      196, 186, 204, -1,
      204, 186, 187, -1,
      204, 187, 203, -1,
      203, 187, 188, -1,
      203, 188, 202, -1,
      202, 188, 189, -1,
      202, 189, 201, -1,
      201, 189, 190, -1,
      201, 190, 200, -1,
      200, 190, 191, -1,
      200, 191, 199, -1,
      199, 191, 192, -1,
      199, 192, 198, -1,
      198, 192, 179, -1,
      198, 179, 211, -1,
      211, 179, 180, -1,
      211, 180, 210, -1,
      210, 180, 181, -1,
      210, 181, 209, -1,
      209, 181, 182, -1,
      209, 182, 208, -1,
      208, 182, 183, -1,
      208, 183, 207, -1,
      207, 183, 184, -1,
      207, 184, 206, -1,
      206, 184, 185, -1,
      206, 185, 177, -1,
      214, 215, 28, -1,
      28, 215, 23, -1,
      215, 216, 23, -1,
      23, 216, 21, -1,
      216, 217, 21, -1,
      21, 217, 47, -1,
      217, 218, 47, -1,
      47, 218, 37, -1,
      218, 219, 37, -1,
      37, 219, 30, -1,
      219, 214, 30, -1,
      30, 214, 28, -1,
      218, 217, 219, -1,
      219, 217, 216, -1,
      219, 216, 214, -1,
      214, 216, 215, -1,
    ]
  }
}

Shape {
  appearance Appearance {
    material Material {
      diffuseColor 0.5882 0.5725 0.5255
      specularColor 0.0431 0.0392 0.0392
      ambientIntensity 0.2
      transparency 0.0000
      shininess 0.5
    }
  }
  geometry IndexedFaceSet {
    ccw TRUE
    solid FALSE
    coord DEF co Coordinate {
      point [
        -1.318898 0.000000 0.590551,
        -1.318898 0.000000 1.082677,
        1.318898 0.000000 1.082677,
        1.771654 0.000000 0.590551,
        -1.771654 0.000000 0.590551,
        1.318898 0.000000 0.590551,
        1.318898 -1.535433 1.082677,
        -1.318898 -1.535433 1.082677,
        1.771654 -1.535433 1.082677,
        -1.771654 -1.535433 1.082677,
        1.318898 -1.535433 0.590551,
        1.771654 -1.535433 0.590551,
        1.318898 -0.444882 0.590551,
        1.771654 -0.444882 0.590551,
        -1.771654 -0.444882 0.590551,
        -1.771654 -1.535433 0.590551,
        -1.318898 -1.535433 0.590551,
        -1.318898 -0.444882 0.590551,
        -0.287098 -1.506289 -1.082677,
        -0.352928 -1.506289 -1.082677,
        -0.316469 -1.424068 -1.082677,
        -0.318363 -1.417241 -1.082677,
        -0.319619 -1.410265 -1.082677,
        -0.320257 -1.410265 -1.082677,
        -0.321541 -1.417220 -1.082677,
        -0.323295 -1.424068 -1.082677,
        -0.115455 -1.407864 -1.082677,
        -0.086422 -1.407864 -1.082677,
        -0.138754 -1.410341 -1.082677,
        -0.155002 -1.416027 -1.082677,
        -0.169381 -1.425316 -1.082677,
        -0.178943 -1.435469 -1.082677,
        -0.185781 -1.447610 -1.082677,
        -0.190377 -1.463179 -1.082677,
        -0.192049 -1.482771 -1.082677,
        -0.190242 -1.503446 -1.082677,
        -0.184468 -1.521950 -1.082677,
        -0.176166 -1.535523 -1.082677,
        -0.165125 -1.546428 -1.082677,
        -0.151700 -1.554400 -1.082677,
        -0.135135 -1.559570 -1.082677,
        -0.114367 -1.561504 -1.082677,
        -0.086422 -1.561504 -1.082677,
      ]
    }
    coordIndex [
      18, 19, 20, -1,
      20, 19, 25, -1,
      20, 25, 21, -1,
      21, 25, 24, -1,
      21, 24, 22, -1,
      22, 24, 23, -1,
      27, 42, 26, -1,
      26, 42, 41, -1,
      26, 41, 40, -1,
      34, 33, 26, -1,
      26, 33, 32, -1,
      26, 32, 28, -1,
      40, 39, 26, -1,
      26, 39, 38, -1,
      26, 38, 37, -1,
      37, 36, 26, -1,
      26, 36, 35, -1,
      26, 35, 34, -1,
      31, 30, 32, -1,
      32, 30, 29, -1,
      32, 29, 28, -1,
      4, 14, 0, -1,
      0, 14, 17, -1,
      16, 7, 17, -1,
      17, 7, 1, -1,
      17, 1, 0, -1,
      16, 15, 7, -1,
      7, 15, 9, -1,
      5, 12, 3, -1,
      3, 12, 13, -1,
      6, 10, 2, -1,
      2, 10, 12, -1,
      2, 12, 5, -1,
      11, 10, 8, -1,
      8, 10, 6, -1,
    ]
  }
}
