#VRML V2.0 utf8

Shape {
  appearance Appearance {
    material Material {
      diffuseColor 0.8314 0.6706 0.1294
      specularColor 0.6667 0.5373 0.1020
      ambientIntensity 0.2
      transparency 0.0000
      shininess 0.5
    }
  }
  geometry IndexedFaceSet {
    ccw TRUE
    solid FALSE
    coord DEF co Coordinate {
      point [
        -0.157874 0.137795 0.110630,
        -0.157874 -0.137795 0.110630,
        -0.157874 0.137795 -0.000394,
        -0.157874 -0.137795 -0.000394,
        -0.315354 0.137795 0.110630,
        -0.315354 0.137795 -0.000394,
        -0.315354 0.057631 0.110630,
        -0.315354 0.057631 -0.000394,
        -0.305857 0.056120 0.110630,
        -0.305857 0.056120 -0.000394,
        -0.296741 0.053059 0.110630,
        -0.296741 0.053059 -0.000394,
        -0.288258 0.048531 0.110630,
        -0.288258 0.048531 -0.000394,
        -0.280640 0.042662 0.110630,
        -0.280640 0.042662 -0.000394,
        -0.274099 0.035613 0.110630,
        -0.274099 0.035613 -0.000394,
        -0.268814 0.027579 0.110630,
        -0.268814 0.027579 -0.000394,
        -0.264931 0.018781 0.110630,
        -0.264931 0.018781 -0.000394,
        -0.262559 0.009462 0.110630,
        -0.262559 0.009462 -0.000394,
        -0.261760 -0.000121 0.110630,
        -0.261760 -0.000121 -0.000394,
        -0.262559 -0.009704 0.110630,
        -0.262559 -0.009704 -0.000394,
        -0.264931 -0.019023 0.110630,
        -0.264931 -0.019023 -0.000394,
        -0.268814 -0.027820 0.110630,
        -0.268814 -0.027820 -0.000394,
        -0.274099 -0.035855 0.110630,
        -0.274099 -0.035855 -0.000394,
        -0.280640 -0.042904 0.110630,
        -0.280640 -0.042904 -0.000394,
        -0.288258 -0.048772 0.110630,
        -0.288258 -0.048772 -0.000394,
        -0.296741 -0.053300 0.110630,
        -0.296741 -0.053300 -0.000394,
        -0.305857 -0.056362 0.110630,
        -0.305857 -0.056362 -0.000394,
        -0.315354 -0.057873 0.110630,
        -0.315354 -0.057873 -0.000394,
        -0.315354 -0.137795 0.110630,
        -0.315354 -0.137795 -0.000394,
        0.157874 -0.137795 0.110630,
        0.157874 0.137795 0.110630,
        0.157874 -0.137795 -0.000394,
        0.157874 0.137795 -0.000394,
        0.315354 0.137795 0.110630,
        0.315354 0.137795 -0.000394,
        0.315354 0.057631 0.110630,
        0.315354 0.057631 -0.000394,
        0.315354 -0.057873 0.110630,
        0.315354 -0.057873 -0.000394,
        0.305857 -0.056362 0.110630,
        0.305857 -0.056362 -0.000394,
        0.296741 -0.053300 0.110630,
        0.296741 -0.053300 -0.000394,
        0.288258 -0.048772 0.110630,
        0.288258 -0.048772 -0.000394,
        0.280640 -0.042904 0.110630,
        0.280640 -0.042904 -0.000394,
        0.274099 -0.035855 0.110630,
        0.274099 -0.035855 -0.000394,
        0.268814 -0.027820 0.110630,
        0.268814 -0.027820 -0.000394,
        0.264931 -0.019023 0.110630,
        0.264931 -0.019023 -0.000394,
        0.262559 -0.009704 0.110630,
        0.262559 -0.009704 -0.000394,
        0.261760 -0.000121 0.110630,
        0.261760 -0.000121 -0.000394,
        0.262559 0.009462 0.110630,
        0.262559 0.009462 -0.000394,
        0.264931 0.018781 0.110630,
        0.264931 0.018781 -0.000394,
        0.268814 0.027579 0.110630,
        0.268814 0.027579 -0.000394,
        0.274099 0.035613 0.110630,
        0.274099 0.035613 -0.000394,
        0.280640 0.042662 0.110630,
        0.280640 0.042662 -0.000394,
        0.288258 0.048531 0.110630,
        0.288258 0.048531 -0.000394,
        0.296741 0.053059 0.110630,
        0.296741 0.053059 -0.000394,
        0.305857 0.056120 0.110630,
        0.305857 0.056120 -0.000394,
        0.315354 -0.137795 0.110630,
        0.315354 -0.137795 -0.000394,
      ]
    }
    coordIndex [
      0, 1, 2, -1,
      2, 1, 3, -1,
      4, 0, 5, -1,
      5, 0, 2, -1,
      6, 4, 7, -1,
      7, 4, 5, -1,
      6, 7, 8, -1,
      8, 7, 9, -1,
      8, 9, 10, -1,
      10, 9, 11, -1,
      10, 11, 12, -1,
      12, 11, 13, -1,
      12, 13, 14, -1,
      14, 13, 15, -1,
      14, 15, 16, -1,
      16, 15, 17, -1,
      16, 17, 18, -1,
      18, 17, 19, -1,
      18, 19, 20, -1,
      20, 19, 21, -1,
      20, 21, 22, -1,
      22, 21, 23, -1,
      22, 23, 24, -1,
      24, 23, 25, -1,
      24, 25, 26, -1,
      26, 25, 27, -1,
      26, 27, 28, -1,
      28, 27, 29, -1,
      28, 29, 30, -1,
      30, 29, 31, -1,
      30, 31, 32, -1,
      32, 31, 33, -1,
      32, 33, 34, -1,
      34, 33, 35, -1,
      34, 35, 36, -1,
      36, 35, 37, -1,
      36, 37, 38, -1,
      38, 37, 39, -1,
      38, 39, 40, -1,
      40, 39, 41, -1,
      40, 41, 42, -1,
      42, 41, 43, -1,
      44, 42, 45, -1,
      45, 42, 43, -1,
      1, 44, 3, -1,
      3, 44, 45, -1,
      26, 28, 1, -1,
      10, 12, 0, -1,
      12, 14, 0, -1,
      0, 14, 16, -1,
      0, 16, 18, -1,
      18, 20, 0, -1,
      0, 20, 22, -1,
      0, 22, 1, -1,
      1, 22, 24, -1,
      1, 24, 26, -1,
      10, 0, 8, -1,
      8, 0, 4, -1,
      8, 4, 6, -1,
      28, 30, 1, -1,
      1, 30, 32, -1,
      1, 32, 34, -1,
      34, 36, 1, -1,
      1, 36, 38, -1,
      1, 38, 44, -1,
      44, 38, 40, -1,
      44, 40, 42, -1,
      45, 43, 41, -1,
      37, 35, 3, -1,
      21, 19, 2, -1,
      2, 19, 17, -1,
      2, 17, 15, -1,
      45, 41, 3, -1,
      3, 41, 39, -1,
      3, 39, 37, -1,
      29, 27, 3, -1,
      3, 27, 25, -1,
      3, 25, 2, -1,
      2, 25, 23, -1,
      2, 23, 21, -1,
      35, 33, 3, -1,
      3, 33, 31, -1,
      3, 31, 29, -1,
      15, 13, 2, -1,
      2, 13, 11, -1,
      2, 11, 5, -1,
      5, 11, 9, -1,
      5, 9, 7, -1,
      46, 47, 48, -1,
      48, 47, 49, -1,
      47, 50, 49, -1,
      49, 50, 51, -1,
      50, 52, 51, -1,
      51, 52, 53, -1,
      54, 55, 56, -1,
      56, 55, 57, -1,
      56, 57, 58, -1,
      58, 57, 59, -1,
      58, 59, 60, -1,
      60, 59, 61, -1,
      60, 61, 62, -1,
      62, 61, 63, -1,
      62, 63, 64, -1,
      64, 63, 65, -1,
      64, 65, 66, -1,
      66, 65, 67, -1,
      66, 67, 68, -1,
      68, 67, 69, -1,
      68, 69, 70, -1,
      70, 69, 71, -1,
      70, 71, 72, -1,
      72, 71, 73, -1,
      72, 73, 74, -1,
      74, 73, 75, -1,
      74, 75, 76, -1,
      76, 75, 77, -1,
      76, 77, 78, -1,
      78, 77, 79, -1,
      78, 79, 80, -1,
      80, 79, 81, -1,
      80, 81, 82, -1,
      82, 81, 83, -1,
      82, 83, 84, -1,
      84, 83, 85, -1,
      84, 85, 86, -1,
      86, 85, 87, -1,
      86, 87, 88, -1,
      88, 87, 89, -1,
      88, 89, 52, -1,
      52, 89, 53, -1,
      54, 90, 55, -1,
      55, 90, 91, -1,
      90, 46, 91, -1,
      91, 46, 48, -1,
      90, 54, 56, -1,
      90, 56, 46, -1,
      56, 58, 46, -1,
      46, 58, 60, -1,
      46, 60, 62, -1,
      62, 64, 46, -1,
      46, 64, 66, -1,
      46, 66, 68, -1,
      76, 78, 47, -1,
      47, 78, 80, -1,
      47, 80, 82, -1,
      82, 84, 47, -1,
      47, 84, 86, -1,
      47, 86, 50, -1,
      50, 86, 88, -1,
      50, 88, 52, -1,
      68, 70, 46, -1,
      46, 70, 72, -1,
      46, 72, 47, -1,
      47, 72, 74, -1,
      47, 74, 76, -1,
      77, 75, 49, -1,
      51, 53, 89, -1,
      49, 75, 48, -1,
      85, 83, 49, -1,
      75, 73, 48, -1,
      48, 73, 71, -1,
      48, 71, 69, -1,
      51, 89, 49, -1,
      49, 89, 87, -1,
      49, 87, 85, -1,
      83, 81, 49, -1,
      49, 81, 79, -1,
      49, 79, 77, -1,
      69, 67, 48, -1,
      48, 67, 65, -1,
      48, 65, 63, -1,
      63, 61, 48, -1,
      48, 61, 59, -1,
      48, 59, 91, -1,
      91, 59, 57, -1,
      91, 57, 55, -1,
    ]
  }
}

Shape {
  appearance Appearance {
    material Material {
      diffuseColor 0.8941 0.8941 0.8941
      specularColor 0.4471 0.4471 0.4471
      ambientIntensity 0.2
      transparency 0.0000
      shininess 0.5
    }
  }
  geometry IndexedFaceSet {
    ccw TRUE
    solid FALSE
    coord DEF co Coordinate {
      point [
        -0.224805 -0.146852 0.236220,
        -0.224805 0.146852 0.236220,
        -0.235827 -0.157874 0.110236,
        -0.235827 0.157874 0.110236,
        0.225592 -0.146852 0.236220,
        0.236614 -0.157874 0.110236,
        0.225592 0.146852 0.236220,
        0.236614 0.157874 0.110236,
      ]
    }
    coordIndex [
      0, 1, 2, -1,
      2, 1, 3, -1,
      4, 0, 5, -1,
      5, 0, 2, -1,
      6, 4, 7, -1,
      7, 4, 5, -1,
      1, 6, 3, -1,
      3, 6, 7, -1,
      4, 6, 0, -1,
      0, 6, 1, -1,
      7, 5, 3, -1,
      3, 5, 2, -1,
    ]
  }
}

Shape {
  appearance Appearance {
    material Material {
      diffuseColor 0.7961 0.8235 0.9373
      specularColor 0.3961 0.4118 0.4667
      ambientIntensity 0.2
      transparency 0.0000
      shininess 0.5
    }
  }
  geometry IndexedFaceSet {
    ccw TRUE
    solid FALSE
    coord DEF co Coordinate {
      point [
        0.300828 -0.057339 0.000000,
        0.314961 -0.059055 0.000000,
        0.314961 -0.157480 0.000000,
        -0.008789 -0.157480 0.000000,
        0.275800 -0.044204 0.000000,
        0.287517 -0.052291 0.000000,
        0.032034 -0.017403 0.000000,
        0.033615 -0.017625 0.000000,
        0.034692 -0.017643 0.000000,
        0.037007 -0.017403 0.000000,
        0.023859 -0.015123 0.000000,
        0.016177 -0.017163 0.000000,
        0.023859 -0.010802 0.000000,
        0.016177 0.022207 0.000000,
        -0.008789 -0.017403 0.000000,
        0.028056 -0.016846 0.000000,
        0.076672 -0.017163 0.000000,
        0.056507 -0.017163 0.000000,
        0.039544 -0.017140 0.000000,
        0.043359 -0.015827 0.000000,
        0.287517 0.052291 0.000000,
        0.275800 0.044204 0.000000,
        0.314961 0.157480 0.000000,
        0.314961 0.059055 0.000000,
        0.300828 0.057339 0.000000,
        -0.003988 0.022207 0.000000,
        -0.008789 0.157480 0.000000,
        0.051069 0.011837 0.000000,
        0.048761 0.015518 0.000000,
        0.071391 0.022207 0.000000,
        -0.003988 0.017886 0.000000,
        -0.004948 -0.012842 0.000000,
        -0.004948 -0.017163 0.000000,
        0.036956 0.017930 0.000000,
        0.039902 0.016867 0.000000,
        0.024565 -0.011193 0.000000,
        0.042627 0.015044 0.000000,
        0.045005 0.012419 0.000000,
        0.047865 0.002102 0.000000,
        0.047467 -0.002160 0.000000,
        0.046397 -0.005547 0.000000,
        0.037636 -0.012910 0.000000,
        0.033964 -0.013322 0.000000,
        0.040505 -0.011854 0.000000,
        0.042921 -0.010226 0.000000,
        0.044769 -0.008277 0.000000,
        0.028738 -0.012742 0.000000,
        0.046628 0.009380 0.000000,
        0.047677 0.005165 0.000000,
        0.045207 0.018937 0.000000,
        0.076672 0.022207 0.000000,
        0.010896 0.000601 0.000000,
        0.010896 -0.012842 0.000000,
        -0.003028 0.000601 0.000000,
        -0.003028 0.004922 0.000000,
        0.010896 0.004922 0.000000,
        0.010896 0.017886 0.000000,
        0.266359 0.033547 0.000000,
        0.259743 0.020941 0.000000,
        0.256336 0.007119 0.000000,
        0.256336 -0.007119 0.000000,
        0.258871 -0.017403 0.000000,
        0.259743 -0.020941 0.000000,
        0.266359 -0.033547 0.000000,
        0.046526 -0.013805 0.000000,
        0.049483 -0.010691 0.000000,
        0.056507 -0.012842 0.000000,
        0.051581 -0.006948 0.000000,
        0.071391 -0.012842 0.000000,
        0.052766 -0.002780 0.000000,
        0.053146 0.001779 0.000000,
        0.052580 0.007376 0.000000,
        0.041467 0.021089 0.000000,
        0.037078 0.022364 0.000000,
        0.033124 0.022687 0.000000,
        0.028411 0.022362 0.000000,
        0.023859 0.021126 0.000000,
        0.023859 0.015845 0.000000,
        0.028294 0.017744 0.000000,
        0.033079 0.018366 0.000000,
        -0.082728 -0.017163 0.000000,
        -0.076967 -0.017163 0.000000,
        -0.047199 -0.017163 0.000000,
        -0.042352 -0.006373 0.000000,
        -0.040095 -0.009894 0.000000,
        -0.036854 -0.012997 0.000000,
        -0.032743 -0.015386 0.000000,
        -0.028207 -0.016738 0.000000,
        -0.023335 -0.017163 0.000000,
        -0.012630 -0.017163 0.000000,
        -0.012630 0.022207 0.000000,
        -0.023741 0.022207 0.000000,
        -0.029429 0.021599 0.000000,
        -0.034035 0.019981 0.000000,
        -0.038320 0.017109 0.000000,
        -0.062083 0.022207 0.000000,
        -0.038361 0.017073 0.000000,
        -0.041145 0.013986 0.000000,
        -0.042975 0.010600 0.000000,
        -0.259743 0.020941 0.000000,
        -0.266359 0.033547 0.000000,
        -0.067365 0.022207 0.000000,
        -0.052961 -0.017163 0.000000,
        -0.056719 -0.006120 0.000000,
        -0.072983 -0.006120 0.000000,
        -0.044032 0.006721 0.000000,
        -0.044319 0.003017 0.000000,
        -0.043766 -0.002252 0.000000,
        -0.275800 0.044204 0.000000,
        -0.287517 0.052291 0.000000,
        -0.314961 0.157480 0.000000,
        -0.300828 0.057339 0.000000,
        -0.314961 0.059055 0.000000,
        -0.314961 -0.157480 0.000000,
        -0.314961 -0.059055 0.000000,
        -0.300828 -0.057339 0.000000,
        -0.275800 -0.044204 0.000000,
        -0.266359 -0.033547 0.000000,
        -0.259743 -0.020941 0.000000,
        -0.258871 -0.017403 0.000000,
        -0.256336 -0.007119 0.000000,
        -0.256336 0.007119 0.000000,
        -0.287517 -0.052291 0.000000,
      ]
    }
    coordIndex [
      0, 1, 2, -1,
      3, 4, 2, -1,
      2, 4, 5, -1,
      2, 5, 0, -1,
      6, 7, 3, -1,
      3, 7, 8, -1,
      3, 8, 9, -1,
      10, 11, 12, -1,
      12, 11, 13, -1,
      3, 14, 6, -1,
      6, 14, 11, -1,
      6, 11, 15, -1,
      15, 11, 10, -1,
      16, 9, 17, -1,
      17, 9, 18, -1,
      17, 18, 19, -1,
      20, 21, 16, -1,
      22, 23, 24, -1,
      13, 25, 26, -1,
      27, 28, 29, -1,
      25, 30, 26, -1,
      26, 30, 31, -1,
      26, 31, 14, -1,
      14, 31, 32, -1,
      14, 32, 11, -1,
      33, 34, 35, -1,
      35, 34, 36, -1,
      35, 36, 37, -1,
      38, 39, 35, -1,
      35, 39, 40, -1,
      41, 42, 43, -1,
      43, 42, 44, -1,
      40, 45, 35, -1,
      35, 45, 44, -1,
      35, 44, 46, -1,
      46, 44, 42, -1,
      37, 47, 35, -1,
      35, 47, 48, -1,
      35, 48, 38, -1,
      28, 49, 29, -1,
      29, 49, 26, -1,
      29, 26, 50, -1,
      50, 26, 22, -1,
      50, 22, 16, -1,
      16, 22, 24, -1,
      16, 24, 20, -1,
      51, 52, 53, -1,
      53, 52, 31, -1,
      53, 31, 54, -1,
      54, 31, 30, -1,
      54, 30, 55, -1,
      55, 30, 56, -1,
      21, 57, 16, -1,
      16, 57, 58, -1,
      16, 58, 59, -1,
      59, 60, 16, -1,
      16, 60, 61, -1,
      16, 61, 9, -1,
      9, 61, 62, -1,
      9, 62, 3, -1,
      3, 62, 63, -1,
      3, 63, 4, -1,
      19, 64, 17, -1,
      17, 64, 65, -1,
      17, 65, 66, -1,
      66, 65, 67, -1,
      66, 67, 68, -1,
      67, 69, 68, -1,
      68, 69, 70, -1,
      68, 70, 29, -1,
      29, 70, 71, -1,
      29, 71, 27, -1,
      49, 72, 26, -1,
      26, 72, 73, -1,
      26, 73, 74, -1,
      74, 75, 26, -1,
      26, 75, 76, -1,
      26, 76, 13, -1,
      13, 76, 77, -1,
      13, 77, 12, -1,
      12, 77, 78, -1,
      12, 78, 35, -1,
      35, 78, 79, -1,
      35, 79, 33, -1,
      80, 81, 14, -1,
      82, 83, 84, -1,
      84, 85, 82, -1,
      82, 85, 86, -1,
      82, 86, 87, -1,
      88, 89, 14, -1,
      14, 89, 90, -1,
      14, 90, 26, -1,
      26, 90, 91, -1,
      26, 91, 92, -1,
      93, 94, 95, -1,
      94, 96, 95, -1,
      95, 96, 97, -1,
      95, 97, 98, -1,
      99, 100, 101, -1,
      87, 88, 82, -1,
      82, 88, 14, -1,
      82, 14, 102, -1,
      102, 14, 81, -1,
      102, 81, 103, -1,
      103, 81, 104, -1,
      98, 105, 95, -1,
      95, 105, 106, -1,
      95, 106, 82, -1,
      82, 106, 107, -1,
      82, 107, 83, -1,
      108, 109, 110, -1,
      110, 109, 111, -1,
      110, 111, 112, -1,
      100, 108, 101, -1,
      101, 108, 110, -1,
      101, 110, 95, -1,
      95, 110, 26, -1,
      95, 26, 93, -1,
      93, 26, 92, -1,
      113, 114, 115, -1,
      116, 117, 3, -1,
      3, 117, 118, -1,
      3, 118, 14, -1,
      14, 118, 119, -1,
      14, 119, 80, -1,
      80, 119, 120, -1,
      80, 120, 101, -1,
      101, 120, 121, -1,
      101, 121, 99, -1,
      113, 115, 3, -1,
      3, 115, 122, -1,
      3, 122, 116, -1,
    ]
  }
}

Shape {
  appearance Appearance {
    material Material {
      diffuseColor 0.8314 0.6706 0.1294
      specularColor 0.6667 0.5373 0.1020
      ambientIntensity 0.2
      transparency 0.0000
      shininess 0.5
    }
  }
  geometry IndexedFaceSet {
    ccw TRUE
    solid FALSE
    coord DEF co Coordinate {
      point [
        0.314961 -0.059055 0.000000,
        0.314961 -0.157480 0.000000,
        0.314961 -0.059055 0.110236,
        0.314961 -0.157480 0.110236,
      ]
    }
    coordIndex [
      2, 3, 0, -1,
      0, 3, 1, -1,
    ]
  }
}

Shape {
  appearance Appearance {
    material Material {
      diffuseColor 1.0000 1.0000 1.0000
      specularColor 0.5020 0.5020 0.5020
      ambientIntensity 0.2
      transparency 0.0000
      shininess 0.5
    }
  }
  geometry IndexedFaceSet {
    ccw TRUE
    solid FALSE
    coord DEF co Coordinate {
      point [
        0.300828 -0.057339 0.000000,
        0.314961 -0.059055 0.000000,
        0.275800 -0.044204 0.000000,
        0.287517 -0.052291 0.000000,
        0.287517 0.052291 0.000000,
        0.275800 0.044204 0.000000,
        0.314961 0.059055 0.000000,
        0.300828 0.057339 0.000000,
        0.266359 0.033547 0.000000,
        0.259743 0.020941 0.000000,
        0.256336 0.007119 0.000000,
        0.256336 -0.007119 0.000000,
        0.258871 -0.017403 0.000000,
        0.259743 -0.020941 0.000000,
        0.266359 -0.033547 0.000000,
        0.314961 -0.059055 0.110236,
        0.300828 -0.057339 0.110236,
        0.287517 -0.052291 0.110236,
        0.275800 -0.044204 0.110236,
        0.266359 -0.033547 0.110236,
        0.259743 -0.020941 0.110236,
        0.256336 -0.007119 0.110236,
        0.256336 0.007119 0.110236,
        0.259743 0.020941 0.110236,
        0.266359 0.033547 0.110236,
        0.275800 0.044204 0.110236,
        0.287517 0.052291 0.110236,
        0.300828 0.057339 0.110236,
        0.314961 0.059055 0.110236,
      ]
    }
    coordIndex [
      15, 1, 16, -1,
      16, 1, 0, -1,
      16, 0, 17, -1,
      17, 0, 3, -1,
      17, 3, 18, -1,
      18, 3, 2, -1,
      18, 2, 19, -1,
      19, 2, 14, -1,
      19, 14, 20, -1,
      14, 13, 20, -1,
      20, 13, 12, -1,
      20, 12, 21, -1,
      21, 12, 11, -1,
      21, 11, 22, -1,
      22, 11, 10, -1,
      22, 10, 23, -1,
      23, 10, 9, -1,
      23, 9, 24, -1,
      24, 9, 8, -1,
      24, 8, 25, -1,
      25, 8, 5, -1,
      25, 5, 26, -1,
      26, 5, 4, -1,
      26, 4, 27, -1,
      27, 4, 7, -1,
      27, 7, 28, -1,
      28, 7, 6, -1,
    ]
  }
}

Shape {
  appearance Appearance {
    material Material {
      diffuseColor 0.8314 0.6706 0.1294
      specularColor 0.6667 0.5373 0.1020
      ambientIntensity 0.2
      transparency 0.0000
      shininess 0.5
    }
  }
  geometry IndexedFaceSet {
    ccw TRUE
    solid FALSE
    coord DEF co Coordinate {
      point [
        0.314961 0.157480 0.000000,
        0.314961 0.059055 0.000000,
        0.314961 0.059055 0.110236,
        0.314961 0.157480 0.110236,
      ]
    }
    coordIndex [
      3, 2, 0, -1,
      0, 2, 1, -1,
    ]
  }
}

Shape {
  appearance Appearance {
    material Material {
      diffuseColor 1.0000 1.0000 1.0000
      specularColor 0.5020 0.5020 0.5020
      ambientIntensity 0.2
      transparency 0.0000
      shininess 0.5
    }
  }
  geometry IndexedFaceSet {
    ccw TRUE
    solid FALSE
    coord DEF co Coordinate {
      point [
        0.314961 0.157480 0.000000,
        -0.008789 0.157480 0.000000,
        -0.314961 0.157480 0.000000,
        0.314961 0.157480 0.110236,
        -0.314961 0.157480 0.110236,
      ]
    }
    coordIndex [
      3, 0, 4, -1,
      4, 0, 1, -1,
      4, 1, 2, -1,
    ]
  }
}

Shape {
  appearance Appearance {
    material Material {
      diffuseColor 0.7961 0.8235 0.9373
      specularColor 0.3961 0.4118 0.4667
      ambientIntensity 0.2
      transparency 0.0000
      shininess 0.5
    }
  }
  geometry IndexedFaceSet {
    ccw TRUE
    solid FALSE
    coord DEF co Coordinate {
      point [
        -0.314961 0.157480 0.000000,
        -0.314961 0.059055 0.000000,
        -0.314961 0.157480 0.110236,
        -0.314961 0.059055 0.110236,
      ]
    }
    coordIndex [
      3, 2, 1, -1,
      1, 2, 0, -1,
    ]
  }
}

Shape {
  appearance Appearance {
    material Material {
      diffuseColor 1.0000 1.0000 1.0000
      specularColor 0.5020 0.5020 0.5020
      ambientIntensity 0.2
      transparency 0.0000
      shininess 0.5
    }
  }
  geometry IndexedFaceSet {
    ccw TRUE
    solid FALSE
    coord DEF co Coordinate {
      point [
        -0.259743 0.020941 0.000000,
        -0.266359 0.033547 0.000000,
        -0.275800 0.044204 0.000000,
        -0.287517 0.052291 0.000000,
        -0.300828 0.057339 0.000000,
        -0.314961 0.059055 0.000000,
        -0.314961 -0.059055 0.000000,
        -0.300828 -0.057339 0.000000,
        -0.275800 -0.044204 0.000000,
        -0.266359 -0.033547 0.000000,
        -0.259743 -0.020941 0.000000,
        -0.258871 -0.017403 0.000000,
        -0.256336 -0.007119 0.000000,
        -0.256336 0.007119 0.000000,
        -0.287517 -0.052291 0.000000,
        -0.314961 0.059055 0.110236,
        -0.300828 0.057339 0.110236,
        -0.287517 0.052291 0.110236,
        -0.275800 0.044204 0.110236,
        -0.266359 0.033547 0.110236,
        -0.259743 0.020941 0.110236,
        -0.256336 0.007119 0.110236,
        -0.256336 -0.007119 0.110236,
        -0.259743 -0.020941 0.110236,
        -0.266359 -0.033547 0.110236,
        -0.275800 -0.044204 0.110236,
        -0.287517 -0.052291 0.110236,
        -0.300828 -0.057339 0.110236,
        -0.314961 -0.059055 0.110236,
      ]
    }
    coordIndex [
      15, 5, 16, -1,
      16, 5, 4, -1,
      16, 4, 17, -1,
      17, 4, 3, -1,
      17, 3, 18, -1,
      18, 3, 2, -1,
      18, 2, 19, -1,
      19, 2, 1, -1,
      19, 1, 20, -1,
      20, 1, 0, -1,
      20, 0, 21, -1,
      21, 0, 13, -1,
      21, 13, 22, -1,
      13, 12, 22, -1,
      22, 12, 11, -1,
      22, 11, 23, -1,
      23, 11, 10, -1,
      23, 10, 24, -1,
      24, 10, 9, -1,
      24, 9, 25, -1,
      25, 9, 8, -1,
      25, 8, 26, -1,
      26, 8, 14, -1,
      26, 14, 27, -1,
      27, 14, 7, -1,
      27, 7, 28, -1,
      28, 7, 6, -1,
    ]
  }
}

Shape {
  appearance Appearance {
    material Material {
      diffuseColor 0.7961 0.8235 0.9373
      specularColor 0.3961 0.4118 0.4667
      ambientIntensity 0.2
      transparency 0.0000
      shininess 0.5
    }
  }
  geometry IndexedFaceSet {
    ccw TRUE
    solid FALSE
    coord DEF co Coordinate {
      point [
        -0.314961 -0.157480 0.000000,
        -0.314961 -0.059055 0.000000,
        -0.314961 -0.059055 0.110236,
        -0.314961 -0.157480 0.110236,
      ]
    }
    coordIndex [
      3, 2, 0, -1,
      0, 2, 1, -1,
    ]
  }
}

Shape {
  appearance Appearance {
    material Material {
      diffuseColor 1.0000 1.0000 1.0000
      specularColor 0.5020 0.5020 0.5020
      ambientIntensity 0.2
      transparency 0.0000
      shininess 0.5
    }
  }
  geometry IndexedFaceSet {
    ccw TRUE
    solid FALSE
    coord DEF co Coordinate {
      point [
        0.314961 -0.157480 0.000000,
        -0.008789 -0.157480 0.000000,
        -0.314961 -0.157480 0.000000,
        0.314961 -0.059055 0.110236,
        0.314961 -0.157480 0.110236,
        0.300828 -0.057339 0.110236,
        0.287517 -0.052291 0.110236,
        0.275800 -0.044204 0.110236,
        0.266359 -0.033547 0.110236,
        0.259743 -0.020941 0.110236,
        0.256336 -0.007119 0.110236,
        0.256336 0.007119 0.110236,
        0.259743 0.020941 0.110236,
        0.266359 0.033547 0.110236,
        0.275800 0.044204 0.110236,
        0.287517 0.052291 0.110236,
        0.300828 0.057339 0.110236,
        0.314961 0.059055 0.110236,
        0.314961 0.157480 0.110236,
        -0.314961 0.157480 0.110236,
        -0.314961 0.059055 0.110236,
        -0.300828 0.057339 0.110236,
        -0.287517 0.052291 0.110236,
        -0.275800 0.044204 0.110236,
        -0.266359 0.033547 0.110236,
        -0.259743 0.020941 0.110236,
        -0.256336 0.007119 0.110236,
        -0.256336 -0.007119 0.110236,
        -0.259743 -0.020941 0.110236,
        -0.266359 -0.033547 0.110236,
        -0.275800 -0.044204 0.110236,
        -0.287517 -0.052291 0.110236,
        -0.300828 -0.057339 0.110236,
        -0.314961 -0.059055 0.110236,
        -0.314961 -0.157480 0.110236,
      ]
    }
    coordIndex [
      0, 4, 1, -1,
      1, 4, 34, -1,
      1, 34, 2, -1,
      16, 17, 18, -1,
      12, 13, 19, -1,
      19, 13, 14, -1,
      19, 14, 18, -1,
      18, 14, 15, -1,
      18, 15, 16, -1,
      8, 27, 7, -1,
      7, 27, 28, -1,
      7, 28, 29, -1,
      30, 31, 34, -1,
      34, 31, 32, -1,
      34, 32, 33, -1,
      24, 25, 12, -1,
      12, 25, 26, -1,
      29, 30, 7, -1,
      7, 30, 34, -1,
      7, 34, 6, -1,
      6, 34, 4, -1,
      6, 4, 5, -1,
      5, 4, 3, -1,
      20, 21, 19, -1,
      19, 21, 22, -1,
      19, 22, 12, -1,
      12, 22, 23, -1,
      12, 23, 24, -1,
      8, 9, 27, -1,
      27, 9, 10, -1,
      27, 10, 26, -1,
      26, 10, 11, -1,
      26, 11, 12, -1,
    ]
  }
}

Shape {
  appearance Appearance {
    material Material {
      diffuseColor 0.8314 0.6706 0.1294
      specularColor 0.6667 0.5373 0.1020
      ambientIntensity 0.2
      transparency 0.0000
      shininess 0.5
    }
  }
  geometry IndexedFaceSet {
    ccw TRUE
    solid FALSE
    coord DEF co Coordinate {
      point [
        -0.082728 -0.017163 0.000000,
        -0.076967 -0.017163 0.000000,
        -0.067365 0.022207 0.000000,
        -0.056719 -0.006120 0.000000,
        -0.072983 -0.006120 0.000000,
        -0.067365 0.022207 0.003937,
        -0.082728 -0.017163 0.003937,
        -0.076967 -0.017163 0.003937,
        -0.072983 -0.006120 0.003937,
        -0.056719 -0.006120 0.003937,
      ]
    }
    coordIndex [
      5, 6, 2, -1,
      2, 6, 0, -1,
      6, 7, 0, -1,
      0, 7, 1, -1,
      7, 8, 1, -1,
      1, 8, 4, -1,
      8, 9, 4, -1,
      4, 9, 3, -1,
    ]
  }
}

Shape {
  appearance Appearance {
    material Material {
      diffuseColor 1.0000 1.0000 1.0000
      specularColor 0.8784 0.8784 0.8784
      ambientIntensity 0.2
      transparency 0.0000
      shininess 0.5
    }
  }
  geometry IndexedFaceSet {
    ccw TRUE
    solid FALSE
    coord DEF co Coordinate {
      point [
        -0.047199 -0.017163 0.000000,
        -0.052961 -0.017163 0.000000,
        -0.056719 -0.006120 0.000000,
        -0.056719 -0.006120 0.003937,
        -0.052961 -0.017163 0.003937,
        -0.047199 -0.017163 0.003937,
      ]
    }
    coordIndex [
      3, 4, 2, -1,
      2, 4, 1, -1,
      4, 5, 1, -1,
      1, 5, 0, -1,
    ]
  }
}

Shape {
  appearance Appearance {
    material Material {
      diffuseColor 0.8941 0.8941 0.8941
      specularColor 0.4471 0.4471 0.4471
      ambientIntensity 0.2
      transparency 0.0000
      shininess 0.5
    }
  }
  geometry IndexedFaceSet {
    ccw TRUE
    solid FALSE
    coord DEF co Coordinate {
      point [
        -0.047199 -0.017163 0.000000,
        -0.062083 0.022207 0.000000,
        -0.047199 -0.017163 0.003937,
        -0.062083 0.022207 0.003937,
      ]
    }
    coordIndex [
      2, 3, 0, -1,
      0, 3, 1, -1,
    ]
  }
}

Shape {
  appearance Appearance {
    material Material {
      diffuseColor 0.8314 0.6706 0.1294
      specularColor 0.6667 0.5373 0.1020
      ambientIntensity 0.2
      transparency 0.0000
      shininess 0.5
    }
  }
  geometry IndexedFaceSet {
    ccw TRUE
    solid FALSE
    coord DEF co Coordinate {
      point [
        -0.062083 0.022207 0.000000,
        -0.067365 0.022207 0.000000,
        -0.067365 0.022207 0.003937,
        -0.082728 -0.017163 0.003937,
        -0.076967 -0.017163 0.003937,
        -0.072983 -0.006120 0.003937,
        -0.056719 -0.006120 0.003937,
        -0.052961 -0.017163 0.003937,
        -0.047199 -0.017163 0.003937,
        -0.062083 0.022207 0.003937,
        -0.058047 -0.001799 0.003937,
        -0.071213 -0.001799 0.003937,
        -0.063921 0.014645 0.003937,
        -0.064300 0.016010 0.003937,
        -0.064551 0.017406 0.003937,
        -0.064679 0.017406 0.003937,
        -0.064935 0.016015 0.003937,
        -0.065286 0.014645 0.003937,
        -0.058047 -0.001799 0.000000,
        -0.071213 -0.001799 0.000000,
      ]
    }
    coordIndex [
      9, 2, 0, -1,
      0, 2, 1, -1,
      10, 6, 11, -1,
      11, 6, 5, -1,
      12, 9, 10, -1,
      10, 9, 8, -1,
      10, 8, 6, -1,
      6, 8, 7, -1,
      12, 13, 9, -1,
      9, 13, 14, -1,
      9, 14, 2, -1,
      2, 14, 15, -1,
      2, 15, 16, -1,
      16, 17, 2, -1,
      2, 17, 11, -1,
      2, 11, 3, -1,
      3, 11, 5, -1,
      3, 5, 4, -1,
      10, 11, 18, -1,
      18, 11, 19, -1,
    ]
  }
}

Shape {
  appearance Appearance {
    material Material {
      diffuseColor 1.0000 1.0000 1.0000
      specularColor 0.8784 0.8784 0.8784
      ambientIntensity 0.2
      transparency 0.0000
      shininess 0.5
    }
  }
  geometry IndexedFaceSet {
    ccw TRUE
    solid FALSE
    coord DEF co Coordinate {
      point [
        -0.058047 -0.001799 0.003937,
        -0.063921 0.014645 0.003937,
        -0.064300 0.016010 0.003937,
        -0.064551 0.017406 0.003937,
        -0.064679 0.017406 0.003937,
        -0.064935 0.016015 0.003937,
        -0.065286 0.014645 0.003937,
        -0.058047 -0.001799 0.000000,
        -0.063921 0.014645 0.000000,
        -0.064300 0.016010 0.000000,
        -0.064551 0.017406 0.000000,
        -0.064679 0.017406 0.000000,
        -0.064935 0.016015 0.000000,
        -0.065286 0.014645 0.000000,
      ]
    }
    coordIndex [
      1, 0, 8, -1,
      8, 0, 7, -1,
      1, 8, 9, -1,
      1, 9, 2, -1,
      2, 9, 10, -1,
      2, 10, 3, -1,
      4, 3, 11, -1,
      11, 3, 10, -1,
      4, 11, 12, -1,
      4, 12, 5, -1,
      5, 12, 13, -1,
      5, 13, 6, -1,
    ]
  }
}

Shape {
  appearance Appearance {
    material Material {
      diffuseColor 0.8941 0.8941 0.8941
      specularColor 0.4471 0.4471 0.4471
      ambientIntensity 0.2
      transparency 0.0000
      shininess 0.5
    }
  }
  geometry IndexedFaceSet {
    ccw TRUE
    solid FALSE
    coord DEF co Coordinate {
      point [
        -0.071213 -0.001799 0.003937,
        -0.065286 0.014645 0.003937,
        -0.071213 -0.001799 0.000000,
        -0.065286 0.014645 0.000000,
      ]
    }
    coordIndex [
      0, 1, 2, -1,
      2, 1, 3, -1,
    ]
  }
}

Shape {
  appearance Appearance {
    material Material {
      diffuseColor 1.0000 1.0000 1.0000
      specularColor 0.8784 0.8784 0.8784
      ambientIntensity 0.2
      transparency 0.0000
      shininess 0.5
    }
  }
  geometry IndexedFaceSet {
    ccw TRUE
    solid FALSE
    coord DEF co Coordinate {
      point [
        -0.042352 -0.006373 0.000000,
        -0.040095 -0.009894 0.000000,
        -0.036854 -0.012997 0.000000,
        -0.032743 -0.015386 0.000000,
        -0.028207 -0.016738 0.000000,
        -0.023335 -0.017163 0.000000,
        -0.012630 -0.017163 0.000000,
        -0.012630 0.022207 0.000000,
        -0.023741 0.022207 0.000000,
        -0.029429 0.021599 0.000000,
        -0.034035 0.019981 0.000000,
        -0.038320 0.017109 0.000000,
        -0.038361 0.017073 0.000000,
        -0.041145 0.013986 0.000000,
        -0.042975 0.010600 0.000000,
        -0.044032 0.006721 0.000000,
        -0.044319 0.003017 0.000000,
        -0.043766 -0.002252 0.000000,
        -0.023335 -0.017163 0.003937,
        -0.012630 -0.017163 0.003937,
        -0.012630 0.022207 0.003937,
        -0.023741 0.022207 0.003937,
        -0.044319 0.003017 0.003937,
        -0.044032 0.006721 0.003937,
        -0.042975 0.010600 0.003937,
        -0.041145 0.013986 0.003937,
        -0.038361 0.017073 0.003937,
        -0.038320 0.017109 0.003937,
        -0.034035 0.019981 0.003937,
        -0.029429 0.021599 0.003937,
        -0.028207 -0.016738 0.003937,
        -0.032743 -0.015386 0.003937,
        -0.036854 -0.012997 0.003937,
        -0.040095 -0.009894 0.003937,
        -0.042352 -0.006373 0.003937,
        -0.043766 -0.002252 0.003937,
        -0.036416 0.012365 0.003937,
        -0.034504 0.014395 0.003937,
        -0.031628 0.016253 0.003937,
        -0.028378 0.017391 0.003937,
        -0.023718 0.017886 0.003937,
        -0.017912 0.017886 0.003937,
        -0.017912 -0.012842 0.003937,
        -0.023501 -0.012842 0.003937,
        -0.027654 -0.012456 0.003937,
        -0.030967 -0.011421 0.003937,
        -0.033652 -0.009827 0.003937,
        -0.035860 -0.007646 0.003937,
        -0.037521 -0.004931 0.003937,
        -0.038676 -0.001231 0.003937,
        -0.039037 0.002904 0.003937,
        -0.038703 0.006823 0.003937,
        -0.037783 0.009937 0.003937,
      ]
    }
    coordIndex [
      18, 19, 5, -1,
      5, 19, 6, -1,
      19, 20, 6, -1,
      6, 20, 7, -1,
      20, 21, 7, -1,
      7, 21, 8, -1,
      22, 16, 15, -1,
      22, 15, 23, -1,
      23, 15, 14, -1,
      23, 14, 24, -1,
      24, 14, 13, -1,
      24, 13, 25, -1,
      25, 13, 12, -1,
      25, 12, 26, -1,
      26, 12, 11, -1,
      26, 11, 27, -1,
      27, 11, 10, -1,
      27, 10, 28, -1,
      28, 10, 9, -1,
      28, 9, 29, -1,
      29, 9, 8, -1,
      29, 8, 21, -1,
      18, 5, 4, -1,
      18, 4, 30, -1,
      30, 4, 3, -1,
      30, 3, 31, -1,
      31, 3, 2, -1,
      31, 2, 32, -1,
      32, 2, 1, -1,
      32, 1, 33, -1,
      33, 1, 0, -1,
      33, 0, 34, -1,
      34, 0, 17, -1,
      34, 17, 35, -1,
      35, 17, 16, -1,
      35, 16, 22, -1,
      24, 25, 36, -1,
      36, 25, 26, -1,
      36, 26, 37, -1,
      37, 26, 27, -1,
      37, 27, 38, -1,
      38, 27, 28, -1,
      38, 28, 39, -1,
      39, 28, 29, -1,
      39, 29, 40, -1,
      40, 29, 21, -1,
      40, 21, 41, -1,
      41, 21, 20, -1,
      41, 20, 42, -1,
      42, 20, 19, -1,
      42, 19, 43, -1,
      43, 19, 18, -1,
      43, 18, 44, -1,
      44, 18, 30, -1,
      44, 30, 45, -1,
      45, 30, 31, -1,
      45, 31, 46, -1,
      46, 31, 32, -1,
      46, 32, 47, -1,
      47, 32, 33, -1,
      47, 33, 48, -1,
      48, 33, 34, -1,
      48, 34, 49, -1,
      49, 34, 35, -1,
      49, 35, 50, -1,
      50, 35, 22, -1,
      50, 22, 51, -1,
      51, 22, 23, -1,
      51, 23, 52, -1,
      52, 23, 24, -1,
      52, 24, 36, -1,
    ]
  }
}

Shape {
  appearance Appearance {
    material Material {
      diffuseColor 0.8314 0.6706 0.1294
      specularColor 0.6667 0.5373 0.1020
      ambientIntensity 0.2
      transparency 0.0000
      shininess 0.5
    }
  }
  geometry IndexedFaceSet {
    ccw TRUE
    solid FALSE
    coord DEF co Coordinate {
      point [
        -0.023718 0.017886 0.003937,
        -0.017912 0.017886 0.003937,
        -0.023718 0.017886 0.000000,
        -0.017912 0.017886 0.000000,
      ]
    }
    coordIndex [
      0, 1, 2, -1,
      2, 1, 3, -1,
    ]
  }
}

Shape {
  appearance Appearance {
    material Material {
      diffuseColor 1.0000 1.0000 1.0000
      specularColor 0.8784 0.8784 0.8784
      ambientIntensity 0.2
      transparency 0.0000
      shininess 0.5
    }
  }
  geometry IndexedFaceSet {
    ccw TRUE
    solid FALSE
    coord DEF co Coordinate {
      point [
        -0.036416 0.012365 0.003937,
        -0.034504 0.014395 0.003937,
        -0.031628 0.016253 0.003937,
        -0.028378 0.017391 0.003937,
        -0.023718 0.017886 0.003937,
        -0.017912 -0.012842 0.003937,
        -0.023501 -0.012842 0.003937,
        -0.027654 -0.012456 0.003937,
        -0.030967 -0.011421 0.003937,
        -0.033652 -0.009827 0.003937,
        -0.035860 -0.007646 0.003937,
        -0.037521 -0.004931 0.003937,
        -0.038676 -0.001231 0.003937,
        -0.039037 0.002904 0.003937,
        -0.038703 0.006823 0.003937,
        -0.037783 0.009937 0.003937,
        -0.023718 0.017886 0.000000,
        -0.028378 0.017391 0.000000,
        -0.031628 0.016253 0.000000,
        -0.034504 0.014395 0.000000,
        -0.036416 0.012365 0.000000,
        -0.037783 0.009937 0.000000,
        -0.038703 0.006823 0.000000,
        -0.039037 0.002904 0.000000,
        -0.038676 -0.001231 0.000000,
        -0.037521 -0.004931 0.000000,
        -0.035860 -0.007646 0.000000,
        -0.033652 -0.009827 0.000000,
        -0.030967 -0.011421 0.000000,
        -0.027654 -0.012456 0.000000,
        -0.023501 -0.012842 0.000000,
        -0.017912 -0.012842 0.000000,
      ]
    }
    coordIndex [
      4, 16, 17, -1,
      4, 17, 3, -1,
      3, 17, 18, -1,
      3, 18, 2, -1,
      2, 18, 19, -1,
      2, 19, 1, -1,
      1, 19, 20, -1,
      1, 20, 0, -1,
      0, 20, 21, -1,
      0, 21, 15, -1,
      15, 21, 22, -1,
      15, 22, 14, -1,
      14, 22, 23, -1,
      14, 23, 13, -1,
      13, 23, 24, -1,
      13, 24, 12, -1,
      12, 24, 25, -1,
      12, 25, 11, -1,
      11, 25, 26, -1,
      11, 26, 10, -1,
      10, 26, 27, -1,
      10, 27, 9, -1,
      9, 27, 28, -1,
      9, 28, 8, -1,
      8, 28, 29, -1,
      8, 29, 7, -1,
      7, 29, 30, -1,
      7, 30, 6, -1,
      5, 6, 31, -1,
      31, 6, 30, -1,
    ]
  }
}

Shape {
  appearance Appearance {
    material Material {
      diffuseColor 0.8314 0.6706 0.1294
      specularColor 0.6667 0.5373 0.1020
      ambientIntensity 0.2
      transparency 0.0000
      shininess 0.5
    }
  }
  geometry IndexedFaceSet {
    ccw TRUE
    solid FALSE
    coord DEF co Coordinate {
      point [
        -0.017912 0.017886 0.003937,
        -0.017912 -0.012842 0.003937,
        -0.017912 0.017886 0.000000,
        -0.017912 -0.012842 0.000000,
      ]
    }
    coordIndex [
      0, 1, 2, -1,
      2, 1, 3, -1,
    ]
  }
}

Shape {
  appearance Appearance {
    material Material {
      diffuseColor 0.8941 0.8941 0.8941
      specularColor 0.4471 0.4471 0.4471
      ambientIntensity 0.2
      transparency 0.0000
      shininess 0.5
    }
  }
  geometry IndexedFaceSet {
    ccw TRUE
    solid FALSE
    coord DEF co Coordinate {
      point [
        -0.004948 -0.012842 0.000000,
        -0.004948 -0.017163 0.000000,
        -0.004948 -0.012842 0.003937,
        -0.004948 -0.017163 0.003937,
      ]
    }
    coordIndex [
      2, 3, 0, -1,
      0, 3, 1, -1,
    ]
  }
}

Shape {
  appearance Appearance {
    material Material {
      diffuseColor 1.0000 1.0000 1.0000
      specularColor 0.8784 0.8784 0.8784
      ambientIntensity 0.2
      transparency 0.0000
      shininess 0.5
    }
  }
  geometry IndexedFaceSet {
    ccw TRUE
    solid FALSE
    coord DEF co Coordinate {
      point [
        0.016177 -0.017163 0.000000,
        0.016177 0.022207 0.000000,
        -0.004948 -0.017163 0.000000,
        -0.004948 -0.017163 0.003937,
        0.016177 -0.017163 0.003937,
        0.016177 0.022207 0.003937,
      ]
    }
    coordIndex [
      3, 4, 2, -1,
      2, 4, 0, -1,
      4, 5, 0, -1,
      0, 5, 1, -1,
    ]
  }
}

Shape {
  appearance Appearance {
    material Material {
      diffuseColor 0.8314 0.6706 0.1294
      specularColor 0.6667 0.5373 0.1020
      ambientIntensity 0.2
      transparency 0.0000
      shininess 0.5
    }
  }
  geometry IndexedFaceSet {
    ccw TRUE
    solid FALSE
    coord DEF co Coordinate {
      point [
        0.016177 0.022207 0.000000,
        -0.003988 0.022207 0.000000,
        0.016177 0.022207 0.003937,
        -0.003988 0.022207 0.003937,
      ]
    }
    coordIndex [
      2, 3, 0, -1,
      0, 3, 1, -1,
    ]
  }
}

Shape {
  appearance Appearance {
    material Material {
      diffuseColor 1.0000 1.0000 1.0000
      specularColor 0.8784 0.8784 0.8784
      ambientIntensity 0.2
      transparency 0.0000
      shininess 0.5
    }
  }
  geometry IndexedFaceSet {
    ccw TRUE
    solid FALSE
    coord DEF co Coordinate {
      point [
        -0.003988 0.022207 0.000000,
        -0.003988 0.017886 0.000000,
        0.010896 0.004922 0.000000,
        0.010896 0.017886 0.000000,
        -0.003988 0.022207 0.003937,
        -0.003988 0.017886 0.003937,
        0.010896 0.017886 0.003937,
        0.010896 0.004922 0.003937,
      ]
    }
    coordIndex [
      4, 5, 0, -1,
      0, 5, 1, -1,
      5, 6, 1, -1,
      1, 6, 3, -1,
      6, 7, 3, -1,
      3, 7, 2, -1,
    ]
  }
}

Shape {
  appearance Appearance {
    material Material {
      diffuseColor 0.8314 0.6706 0.1294
      specularColor 0.6667 0.5373 0.1020
      ambientIntensity 0.2
      transparency 0.0000
      shininess 0.5
    }
  }
  geometry IndexedFaceSet {
    ccw TRUE
    solid FALSE
    coord DEF co Coordinate {
      point [
        -0.003028 0.004922 0.000000,
        0.010896 0.004922 0.000000,
        0.010896 0.004922 0.003937,
        -0.003028 0.004922 0.003937,
      ]
    }
    coordIndex [
      2, 3, 1, -1,
      1, 3, 0, -1,
    ]
  }
}

Shape {
  appearance Appearance {
    material Material {
      diffuseColor 1.0000 1.0000 1.0000
      specularColor 0.8784 0.8784 0.8784
      ambientIntensity 0.2
      transparency 0.0000
      shininess 0.5
    }
  }
  geometry IndexedFaceSet {
    ccw TRUE
    solid FALSE
    coord DEF co Coordinate {
      point [
        -0.004948 -0.012842 0.000000,
        0.010896 0.000601 0.000000,
        0.010896 -0.012842 0.000000,
        -0.003028 0.000601 0.000000,
        -0.003028 0.004922 0.000000,
        -0.004948 -0.012842 0.003937,
        -0.003028 0.004922 0.003937,
        -0.003028 0.000601 0.003937,
        0.010896 0.000601 0.003937,
        0.010896 -0.012842 0.003937,
      ]
    }
    coordIndex [
      6, 7, 4, -1,
      4, 7, 3, -1,
      7, 8, 3, -1,
      3, 8, 1, -1,
      8, 9, 1, -1,
      1, 9, 2, -1,
      9, 5, 2, -1,
      2, 5, 0, -1,
    ]
  }
}

Shape {
  appearance Appearance {
    material Material {
      diffuseColor 0.8314 0.6706 0.1294
      specularColor 0.6667 0.5373 0.1020
      ambientIntensity 0.2
      transparency 0.0000
      shininess 0.5
    }
  }
  geometry IndexedFaceSet {
    ccw TRUE
    solid FALSE
    coord DEF co Coordinate {
      point [
        -0.004948 -0.012842 0.003937,
        -0.004948 -0.017163 0.003937,
        0.016177 -0.017163 0.003937,
        0.016177 0.022207 0.003937,
        -0.003988 0.022207 0.003937,
        -0.003988 0.017886 0.003937,
        0.010896 0.017886 0.003937,
        0.010896 0.004922 0.003937,
        -0.003028 0.004922 0.003937,
        -0.003028 0.000601 0.003937,
        0.010896 0.000601 0.003937,
        0.010896 -0.012842 0.003937,
      ]
    }
    coordIndex [
      2, 1, 0, -1,
      0, 11, 2, -1,
      2, 11, 10, -1,
      2, 10, 3, -1,
      5, 4, 6, -1,
      6, 4, 3, -1,
      6, 3, 7, -1,
      7, 3, 10, -1,
      7, 10, 8, -1,
      8, 10, 9, -1,
    ]
  }
}

Shape {
  appearance Appearance {
    material Material {
      diffuseColor 1.0000 1.0000 1.0000
      specularColor 0.8784 0.8784 0.8784
      ambientIntensity 0.2
      transparency 0.0000
      shininess 0.5
    }
  }
  geometry IndexedFaceSet {
    ccw TRUE
    solid FALSE
    coord DEF co Coordinate {
      point [
        0.032034 -0.017403 0.000000,
        0.033615 -0.017625 0.000000,
        0.034692 -0.017643 0.000000,
        0.037007 -0.017403 0.000000,
        0.023859 -0.015123 0.000000,
        0.023859 -0.010802 0.000000,
        0.028056 -0.016846 0.000000,
        0.076672 -0.017163 0.000000,
        0.056507 -0.017163 0.000000,
        0.039544 -0.017140 0.000000,
        0.043359 -0.015827 0.000000,
        0.051069 0.011837 0.000000,
        0.048761 0.015518 0.000000,
        0.071391 0.022207 0.000000,
        0.036956 0.017930 0.000000,
        0.039902 0.016867 0.000000,
        0.024565 -0.011193 0.000000,
        0.042627 0.015044 0.000000,
        0.045005 0.012419 0.000000,
        0.047865 0.002102 0.000000,
        0.047467 -0.002160 0.000000,
        0.046397 -0.005547 0.000000,
        0.037636 -0.012910 0.000000,
        0.033964 -0.013322 0.000000,
        0.040505 -0.011854 0.000000,
        0.042921 -0.010226 0.000000,
        0.044769 -0.008277 0.000000,
        0.028738 -0.012742 0.000000,
        0.046628 0.009380 0.000000,
        0.047677 0.005165 0.000000,
        0.045207 0.018937 0.000000,
        0.076672 0.022207 0.000000,
        0.046526 -0.013805 0.000000,
        0.049483 -0.010691 0.000000,
        0.056507 -0.012842 0.000000,
        0.051581 -0.006948 0.000000,
        0.071391 -0.012842 0.000000,
        0.052766 -0.002780 0.000000,
        0.053146 0.001779 0.000000,
        0.052580 0.007376 0.000000,
        0.041467 0.021089 0.000000,
        0.037078 0.022364 0.000000,
        0.033124 0.022687 0.000000,
        0.028411 0.022362 0.000000,
        0.023859 0.021126 0.000000,
        0.023859 0.015845 0.000000,
        0.028294 0.017744 0.000000,
        0.033079 0.018366 0.000000,
        0.023859 -0.010802 0.003937,
        0.023859 -0.015123 0.003937,
        0.028056 -0.016846 0.003937,
        0.034692 -0.017643 0.003937,
        0.033615 -0.017625 0.003937,
        0.053146 0.001779 0.003937,
        0.052766 -0.002780 0.003937,
        0.051581 -0.006948 0.003937,
        0.049483 -0.010691 0.003937,
        0.046526 -0.013805 0.003937,
        0.043359 -0.015827 0.003937,
        0.039544 -0.017140 0.003937,
        0.033124 0.022687 0.003937,
        0.037078 0.022364 0.003937,
        0.041467 0.021089 0.003937,
        0.045207 0.018937 0.003937,
        0.048761 0.015518 0.003937,
        0.051069 0.011837 0.003937,
        0.052580 0.007376 0.003937,
        0.023859 0.021126 0.003937,
        0.028411 0.022362 0.003937,
        0.023859 0.015845 0.003937,
        0.033079 0.018366 0.003937,
        0.028294 0.017744 0.003937,
        0.047865 0.002102 0.003937,
        0.047677 0.005165 0.003937,
        0.046628 0.009380 0.003937,
        0.045005 0.012419 0.003937,
        0.042627 0.015044 0.003937,
        0.039902 0.016867 0.003937,
        0.036956 0.017930 0.003937,
        0.033964 -0.013322 0.003937,
        0.037636 -0.012910 0.003937,
        0.040505 -0.011854 0.003937,
        0.042921 -0.010226 0.003937,
        0.044769 -0.008277 0.003937,
        0.046397 -0.005547 0.003937,
        0.047467 -0.002160 0.003937,
        0.024565 -0.011193 0.003937,
        0.028738 -0.012742 0.003937,
        0.056507 -0.012842 0.003937,
        0.056507 -0.017163 0.003937,
        0.076672 -0.017163 0.003937,
        0.076672 0.022207 0.003937,
        0.071391 0.022207 0.003937,
        0.071391 -0.012842 0.003937,
      ]
    }
    coordIndex [
      48, 49, 5, -1,
      5, 49, 4, -1,
      4, 49, 50, -1,
      51, 2, 1, -1,
      51, 1, 52, -1,
      52, 1, 0, -1,
      52, 0, 50, -1,
      50, 0, 6, -1,
      50, 6, 4, -1,
      53, 38, 37, -1,
      53, 37, 54, -1,
      54, 37, 35, -1,
      54, 35, 55, -1,
      55, 35, 33, -1,
      55, 33, 56, -1,
      56, 33, 32, -1,
      56, 32, 57, -1,
      57, 32, 10, -1,
      57, 10, 58, -1,
      58, 10, 9, -1,
      58, 9, 59, -1,
      59, 9, 51, -1,
      51, 9, 3, -1,
      51, 3, 2, -1,
      60, 42, 41, -1,
      60, 41, 61, -1,
      61, 41, 40, -1,
      61, 40, 62, -1,
      62, 40, 30, -1,
      62, 30, 63, -1,
      63, 30, 12, -1,
      63, 12, 64, -1,
      64, 12, 11, -1,
      64, 11, 65, -1,
      65, 11, 39, -1,
      65, 39, 66, -1,
      66, 39, 38, -1,
      66, 38, 53, -1,
      67, 44, 43, -1,
      67, 43, 68, -1,
      68, 43, 42, -1,
      68, 42, 60, -1,
      67, 69, 44, -1,
      44, 69, 45, -1,
      70, 47, 46, -1,
      70, 46, 71, -1,
      71, 46, 45, -1,
      71, 45, 69, -1,
      72, 19, 29, -1,
      72, 29, 73, -1,
      73, 29, 28, -1,
      73, 28, 74, -1,
      74, 28, 18, -1,
      74, 18, 75, -1,
      75, 18, 17, -1,
      75, 17, 76, -1,
      76, 17, 15, -1,
      76, 15, 77, -1,
      77, 15, 14, -1,
      77, 14, 78, -1,
      78, 14, 47, -1,
      78, 47, 70, -1,
      79, 23, 22, -1,
      79, 22, 80, -1,
      80, 22, 24, -1,
      80, 24, 81, -1,
      81, 24, 25, -1,
      81, 25, 82, -1,
      82, 25, 26, -1,
      82, 26, 83, -1,
      83, 26, 21, -1,
      83, 21, 84, -1,
      84, 21, 20, -1,
      84, 20, 85, -1,
      85, 20, 19, -1,
      85, 19, 72, -1,
      48, 5, 16, -1,
      48, 16, 86, -1,
      86, 16, 27, -1,
      86, 27, 87, -1,
      87, 27, 23, -1,
      87, 23, 79, -1,
      80, 51, 79, -1,
      79, 51, 52, -1,
      79, 52, 87, -1,
      87, 52, 50, -1,
      87, 50, 86, -1,
      86, 50, 49, -1,
      86, 49, 48, -1,
      69, 67, 71, -1,
      71, 67, 68, -1,
      71, 68, 70, -1,
      70, 68, 60, -1,
      70, 60, 78, -1,
      78, 60, 61, -1,
      78, 61, 77, -1,
      77, 61, 62, -1,
      77, 62, 76, -1,
      76, 62, 63, -1,
      76, 63, 75, -1,
      75, 63, 64, -1,
      75, 64, 74, -1,
      74, 64, 65, -1,
      74, 65, 73, -1,
      73, 65, 66, -1,
      73, 66, 72, -1,
      72, 66, 53, -1,
      72, 53, 85, -1,
      85, 53, 54, -1,
      85, 54, 84, -1,
      84, 54, 55, -1,
      84, 55, 83, -1,
      83, 55, 56, -1,
      83, 56, 82, -1,
      82, 56, 57, -1,
      82, 57, 81, -1,
      81, 57, 58, -1,
      81, 58, 80, -1,
      80, 58, 59, -1,
      80, 59, 51, -1,
      88, 89, 34, -1,
      34, 89, 8, -1,
      89, 90, 8, -1,
      8, 90, 7, -1,
      90, 91, 7, -1,
      7, 91, 31, -1,
      91, 92, 31, -1,
      31, 92, 13, -1,
      92, 93, 13, -1,
      13, 93, 36, -1,
      93, 88, 36, -1,
      36, 88, 34, -1,
      92, 91, 93, -1,
      93, 91, 90, -1,
      93, 90, 88, -1,
      88, 90, 89, -1,
    ]
  }
}

Shape {
  appearance Appearance {
    material Material {
      diffuseColor 1.0000 1.0000 1.0000
      specularColor 0.5020 0.5020 0.5020
      ambientIntensity 0.2
      transparency 0.0000
      shininess 0.5
    }
  }
  geometry IndexedFaceSet {
    ccw TRUE
    solid FALSE
    coord DEF co Coordinate {
      point [
        -0.058047 -0.001799 0.000000,
        -0.071213 -0.001799 0.000000,
        -0.063921 0.014645 0.000000,
        -0.064300 0.016010 0.000000,
        -0.064551 0.017406 0.000000,
        -0.064679 0.017406 0.000000,
        -0.064935 0.016015 0.000000,
        -0.065286 0.014645 0.000000,
      ]
    }
    coordIndex [
      0, 1, 2, -1,
      2, 1, 7, -1,
      2, 7, 3, -1,
      3, 7, 6, -1,
      3, 6, 4, -1,
      4, 6, 5, -1,
    ]
  }
}

Shape {
  appearance Appearance {
    material Material {
      diffuseColor 0.7961 0.8235 0.9373
      specularColor 0.3961 0.4118 0.4667
      ambientIntensity 0.2
      transparency 0.0000
      shininess 0.5
    }
  }
  geometry IndexedFaceSet {
    ccw TRUE
    solid FALSE
    coord DEF co Coordinate {
      point [
        -0.023718 0.017886 0.000000,
        -0.017912 0.017886 0.000000,
        -0.028378 0.017391 0.000000,
        -0.031628 0.016253 0.000000,
        -0.034504 0.014395 0.000000,
        -0.036416 0.012365 0.000000,
        -0.037783 0.009937 0.000000,
        -0.038703 0.006823 0.000000,
        -0.039037 0.002904 0.000000,
        -0.038676 -0.001231 0.000000,
        -0.037521 -0.004931 0.000000,
        -0.035860 -0.007646 0.000000,
        -0.033652 -0.009827 0.000000,
        -0.030967 -0.011421 0.000000,
        -0.027654 -0.012456 0.000000,
        -0.023501 -0.012842 0.000000,
        -0.017912 -0.012842 0.000000,
      ]
    }
    coordIndex [
      1, 16, 0, -1,
      0, 16, 15, -1,
      0, 15, 14, -1,
      8, 7, 0, -1,
      0, 7, 6, -1,
      0, 6, 2, -1,
      14, 13, 0, -1,
      0, 13, 12, -1,
      0, 12, 11, -1,
      11, 10, 0, -1,
      0, 10, 9, -1,
      0, 9, 8, -1,
      5, 4, 6, -1,
      6, 4, 3, -1,
      6, 3, 2, -1,
    ]
  }
}
