M48
;Layer_Color=9474304
;FILE_FORMAT=4:4
METRIC,LZ
;TYPE=PLATED
T01F00S00C0.1999
T02F00S00C0.2000
T03F00S00C0.3000
T04F00S00C0.3048
T05F00S00C0.6000
T07F00S00C0.8800
T08F00S00C0.9000
T09F00S00C2.5000
T10F00S00C3.5000
%
T01
X00159004Y00139065
X00188858Y00132876
Y00126526
X00197607Y00125598
X00204941Y00122636
X00212164Y00119835
X00212847Y00128138
X00221371Y00133282
X00229243Y00133371
X00237272Y00133124
X00236723Y00128138
X00244089
X00242479Y00115016
X00240787Y00105278
X00243365Y00093002
X00248548Y00092236
X00244738Y00087156
X00229784Y00093002
X00223148Y00092236
X00261325Y00093002
X00266328Y00092236
X00268871Y00085888
X0027749Y00093002
X00282838Y00092236
X00291587Y00093002
X00299207
X0031496Y00098298
X00320421Y00102997
X00326898Y00107696
X00330454Y00115824
X00335051Y00124806
X00338577Y00128555
X00337391Y0013586
X00328536Y00139449
X00351262Y00131961
X00351409Y00122936
X00378841Y00124714
X00384438Y00126526
X00388756Y00120176
Y0011408
X0039028Y00107476
Y00102396
X0040386Y00100711
X0040894
X00413893Y00100838
X00410083Y00094869
X00410972Y00074168
X00405892
X00400939Y00074041
X00416052Y00074422
X00384937Y00086995
X00374532Y000836
X00378596Y00107984
X00374904Y00133096
X00338709Y00097917
X00333892Y00085632
X00310594Y00107861
X00314117Y00111628
X00285171Y00105278
X00265168
X00257556
X00251582Y00117343
X00258912Y00134143
X00258389Y0014172
X00240246Y00142332
X00272195Y00134804
X00281244Y00134823
Y00141323
X00198425Y00138298
X00430911Y00107823
X00461137Y00136779
X00473329Y00141097
X00545719Y00296545
X00539496Y00284734
X00535357Y00288356
X00533028Y0028172
X0053369Y00267171
X00487784Y00260892
X0047324Y00260175
X00471927Y00269108
X00459876Y00275624
X00444636Y00275854
X00448252Y0026094
X00449665Y00256091
X00454952Y00257244
X00454111Y00249487
X00452815Y00236152
X00454187Y00230691
X00445815Y00235708
X00439342Y00235658
X00432943Y00235301
X00426603Y00235514
X00426827Y00242032
X00420036Y0024188
X00420161Y00248707
X00426486Y00248649
X00426221Y00255177
X00432721
X00433311Y00248516
X00442303Y00255964
X00408262Y00256183
X00407741Y00248873
X00407137Y00241905
X00407342Y00235801
X00400355Y00236012
X00400202Y00242105
X00400213Y00248701
X003937Y00248763
X00393474Y00255425
X00385153Y00257066
X00380919Y00248482
X00380858Y00235545
X00374358
Y00229553
X0038085Y0022905
X00380822Y00222933
X00387322
X0038735Y0021605
X0038085
X00374358Y00216045
X0038085Y0020955
X0038735Y0020955
X00393624Y00209311
Y00215811
X00393243Y0022193
X00393624Y00228811
Y00235311
X00387124
X0039304Y00241702
X00400366Y00229013
X00400558Y00222372
X00406964Y00222817
X00413378Y00222522
X0041347Y00229345
X00419185Y00229142
X00419382Y00235492
X00426554Y00228306
X00432914Y00222964
X00439332Y00222567
X00446601Y0022234
X00445865Y00209554
X00439423Y00209476
X00433085Y00209779
X00433027Y00216263
X00426551Y00216213
X00420178Y00216363
X00420277Y00209965
X0042584Y00209812
X00426362Y0020305
X004327Y00203096
X00419796Y00203134
X00413355Y00203043
X00406862Y0020305
X00400439
X00393939
X00393863Y00196551
X00400362
X00406862
Y00190051
X00400362
X00393863Y00190051
Y00183551
X00400362
X00406862
X00413355Y00183543
Y00190043
X00419829Y00190018
X00426263Y00190574
X00426522Y00183378
X0042607Y00177328
X00419699Y00176556
X00420218Y00183129
X00426524Y00170376
X00413451Y00170104
X00406608Y00170297
X00406875Y00177063
X00400211Y00177173
X00393822Y0017701
X00393863Y00170551
X00380863
X00374363
Y00164051
X00380863Y00164051
X00380628Y00157006
X00385708Y00156752
X00374557Y00157412
X00367858Y00157546
X00362628Y0015729
X00357398Y00157036
X00352351Y00155824
X00352547Y00163698
X00353944Y00168753
X00361358Y00170546
Y00164046
X00367858
Y00170546
X00367602Y00183546
X00361104
X00361358Y00190046
X00367695Y00190173
X00374363Y00184021
X00380863
Y00190051
X0038085Y00196551
X00380863Y0020305
X00387363Y00196551
X00387464Y00183449
X00381066Y00177254
X00374109Y00196804
X00367858Y00203045
Y00209545
X0036133Y00209645
Y00216043
X00361358Y00222545
Y00229045
X00367858
Y00222545
X00352803Y00220178
X00352877Y00211303
X00352547Y00206294
X00352877Y00201267
X00352826Y00192438
X00353182Y00183256
X003545Y00178354
X00333497Y00187828
X00328417
X00323337
X00314604
X003099Y00185446
X0030765Y00177828
X00304536Y00166871
X00297429Y00169921
X00300863Y00156962
X00296337Y00154432
X00289245Y00154323
X00281244
Y00160823
Y00166612
X00273243Y00167323
Y00160823
Y00154323
Y00147823
X00258364Y00148255
X00264101Y00154567
X0025572Y00161676
X00257241Y00173061
X00265242
Y00186822
Y00193322
X00273243
Y00187584
X00281244Y00186017
Y00193322
X00289245
X00296484
X00301239Y00195448
X00306779Y00197434
X00314447Y00206294
X00306779Y00215151
X00301239Y0021714
X00296484Y00219322
X00289245
X00281244
Y00226627
X00273243Y00225062
Y00219324
X00265242
Y00225824
X00258003Y00226586
X00257241Y00218435
X00249972Y00219284
X00240279Y00226436
X00233243Y00225824
X00233088Y00232156
Y00239418
X00241089
X00250825Y00237376
X00257241Y00239583
X00265242
X00273243Y00245324
Y00251824
Y00258324
X00273404Y0026423
X00265966Y00264848
X00265242Y00258321
X00258026Y00263967
X00258204Y00270691
X00258408Y00277406
X00266074Y00272322
X00280298Y00277909
X00281244Y00258323
Y00251824
Y00246032
X00297429Y00242489
X00304287Y00246248
X00301721Y00255898
X00296007Y00258
X00289441Y00257749
X00306217Y00234818
X00315717Y00225166
X00323337Y0022476
X00328417
X00333497Y00224658
X00338577Y00206294
X00361155Y00202842
X00352575Y00229728
X00353949Y0023478
X00353987Y00244488
X00352339Y00249228
X00352397Y00257203
X00357144Y00255451
X00362882Y00255298
X00361358Y00248544
X00367858
Y00242044
X00361358
X00372232Y00256408
X00401554Y00257366
X00401036Y00285872
X00406166Y00294452
X00419534Y00284006
X00415172Y00278672
X00392725Y00277673
X00348397Y0028954
X00336037Y00288158
X00330957Y00290698
X00325834Y00290909
X00337393Y00295865
X00336037Y00300858
X00328417Y00309748
X00328969Y00315405
X00330708Y00321564
X00332486Y00328676
Y0033528
X00331492Y00342203
X00323478Y00328456
X00318398
X00310524
X00304428
X00303412Y00320328
X00299461Y00312415
X00289301
X00285124Y0032099
X00264917
X00271521Y00312415
X00253741
X00242057
X00231897
X00234483Y00300792
X00244597
X00236977Y00289428
X00231892Y00289679
X0023102Y00278165
X00221334Y00281248
X00211836Y00288848
X00205006Y00288239
X00201812Y0029696
X00200471Y00304692
X00202828Y00309406
X00218356Y00310589
X00213424Y00295
X00195716Y00293912
X00192527Y00286888
Y00270378
X0019143Y002625
X00191456Y00257394
X00187646Y00254854
X0018762Y0025996
X00187646Y00265014
X00199896Y00250191
X00209283Y00252903
X00210483Y00257998
X00217691Y00258623
Y00252123
Y00245623
X00225242Y00245324
Y00238824
Y00225875
Y00218562
X00232913Y00214402
X00231897Y00206294
X00232913Y00198438
X00221529Y00202758
X00216225Y00200838
X0020924Y00199822
Y00193322
Y00186822
Y00180323
X00217241
Y00186822
X00225242Y00186772
Y00180323
Y00173823
X00225323Y00166688
X00225242Y00160823
Y00154323
Y00147823
X00233243Y00154323
X00240248Y00154077
X00240114Y00148202
X0024176Y00163645
X00242057Y00174635
X00250825Y00175268
X00258003Y0018606
X00256733Y00194973
X00250091Y00193322
X00241221Y00186772
X00233243Y00180323
Y00173823
X00217241Y00167323
Y00160823
Y00154323
X00210294Y00154513
X00209268Y00160094
X0020924Y00167323
X00201558Y00173516
X00200288Y00181136
X00201239Y00186822
X00200604Y00193322
Y00199822
X00200598Y00212824
Y00219324
X00201239Y00225824
X00199018Y00230959
X00196478Y00235746
X00209296Y00238044
X00209339Y00245105
X0020924Y00225824
Y00219324
Y00212824
X00216225Y00211808
X00221529Y00210203
X00217241Y00225824
X00225692Y00252123
Y00258623
Y00265123
X0024004Y00265174
Y00271674
X00240193Y00258623
X00233693
X00243683Y00250835
X00254594Y00252705
X00245867Y00206294
X00158124Y00207552
Y00201456
Y00192312
Y00186216
Y0017504
Y00168944
Y0016234
Y00156244
X00160401Y00149987
X00160274Y00145161
X00198526Y00147188
X00199898Y00160592
X00193938Y00159546
Y00164626
X00190128Y00167166
Y00162086
Y00157006
X00158378Y00216696
Y00226856
X00154568Y00231936
X00156854Y0023981
Y00245906
X00157108Y00252256
Y00276386
X00153035Y00272923
X00149488Y00284006
X00145678Y00280196
X00265176Y00300791
X00280157Y00300792
X00294127
X00318516Y00313436
X00322453Y00317119
X00299593Y00335661
X00351617Y00333375
X00365252Y00372618
X00365388Y00377478
Y00386368
Y00391448
X00383168
Y00386368
Y00377478
Y00371128
X00405765Y00368681
X00428244Y00371856
X0042799Y00377444
X00427618Y00386368
Y00391638
X00444128
Y00386368
X00460638
Y00391638
X00461137Y00377825
X00459359Y00373126
X00474726Y00372999
X00475361Y00377571
X00475878Y00386368
Y00391638
X00442468Y00370586
X00436626Y00368681
X00435492Y00336584
X00427364Y00314232
X00443484Y00307594
X00444636Y00298992
X00455812Y00320328
X00457073Y00346075
X00471805Y00335026
X0049442Y00311184
X00495436Y0029188
X00506349Y00321818
X00526669Y00319278
X0051866Y00349972
X00519811Y0035535
X00408568Y00397798
X00403488
X00408063Y00228757
X00406723Y00215426
X00399931Y00215303
X00413355Y00196543
X00439427Y00189973
X00445856Y00177043
Y0016996
X00445861Y00164051
X00451748Y00163864
X00452079Y00157821
X00446527Y00157348
X00453027Y00170713
X00453526Y00195614
X00476504Y00185293
X00475116Y00211295
X004233Y00155736
X00400255Y00157443
X00400542Y00163943
X00338033Y00275349
X00339339Y00283586
X00328473Y00274717
X00249677Y0032099
X00131445Y00298958
X00131191Y00293116
T02
X000265Y00035
X00018Y00052
X00035
X000435Y00069
X000265
X00018Y00086
X00035
X000435Y00103
Y00137
X00067691Y00138938
X00075438Y00114808
X000945Y00069
X001455Y00035
X001795
X001965
X002135
X00244094Y00035941
X00250444Y00042164
X00253111Y00048387
X00178054Y00089027
X00362331Y00069342
X00361569Y00064008
X00368808Y00070485
X00379857Y00075692
X00384429Y00079629
X00389128Y00076327
X00434848Y00080137
X00447421Y00075438
X0045466Y00075565
X00460629Y00075819
X00458089Y00071628
X00466979Y00099314
X00472186Y00103759
X0045466Y00108966
X00435356Y00102362
X00437388Y00131318
X00409956Y00135509
X00409067Y00114173
X00429387Y00053086
X00527939Y00098171
X00538988
X00519303Y00131699
X00516001Y00139319
X00497332Y0014224
X00488061Y00142367
X00546608Y00126111
X0054356Y00120269
X00543814Y00111633
X00544195Y00105537
X00547624Y00100068
X00547497Y00094361
X00569976Y00104394
X00583946Y00105029
X00599567Y00108077
X00598043Y00115697
X00607949Y00112903
X00623443Y00116713
X0061849Y00090805
X00613283
X00621411Y00081915
X00627253Y00083058
X00629158Y00088519
X00635Y00088392
X00646684Y00084328
X00646868Y00092456
X00651668
X00656717Y0008735
Y0008255
X00681042Y00087689
X00684437Y00084294
X00675329Y00110109
X00670529
X00664114Y00124714
X00659314
X00653796Y0012037
Y0011557
X00649986Y00125699
Y00130499
X00649408Y00141859
X00654208
X00631571Y00141447
X00681228Y00128975
Y00124175
X00717931Y0011303
X00713232Y00108204
X00709549Y00102235
X00756666Y00096266
X00735076Y00070485
X00706628Y00044831
X00706499Y00035
X00722503Y00027813
X00732Y00018
X00748999
X00749173Y00028321
X00766Y00018
X00782999
X00799999
X00833999
X00850999
X00859499Y00035
X00842499
X00825499Y00069
X00823976Y00081788
X00818515Y00082042
X00811911
X00808499Y00069
X00829818Y00082055
X00827532Y00117221
X00821817
X00833628Y00117475
X00842499Y00137
X00852551Y00129667
X00884999Y00086
X00906018Y00068326
X00901999Y00018
X00918999
X00689483Y00042164
X00680339Y0004191
X00666877Y00051562
X00643509Y00050546
X00631698Y0005207
X00597281Y00094996
X00580771Y00125857
X00565495Y00124
X00560023Y00123444
X00570357Y00138303
X01043305Y00141732
X01019584Y0010033
X01046499Y00069
X01063499
X01080499
X01097499
X01114499
X01131499
X01148499
X01139999Y00052
X01122999
X01105999
X01088999
X01071999
X01054999
X01037999
X01063499Y00035
X01080499
X01097499
X01114499
X01131499
X01148499
X01139999Y00018
X01122999
X01105999
X01088999
X01071999
X01020999
X01003999
X00986999
X00969999
X00952999
X00961499Y00035
X00978499
X00995499
X01012499
X01071999Y00086
X01088999
X01105999
X01122999Y0012
X01139999
X01148499Y00137
X01131499
X01122999Y00154
X01139999
X01148499Y00171
X01131499
X01105999Y00188
X01088999
X01097499Y00205
X01080499
Y00171
X01057783Y00169672
X01057529Y00174879
X01057402Y00180213
X01020999Y00188
X0101219Y00193421
X01012063Y00222123
X01002538Y00250571
X00959993Y00266065
X00952627Y00265684
X00950087Y0027432
X00955929
X00955421Y00281305
X00949833Y00281051
X00987044Y003556
X00986917Y00362839
X00995172Y00362585
X00994791Y00355473
X01002919Y00355854
X01002665Y00362585
X01000125Y00405892
X01006475Y00405765
X01013714Y00405384
X01013587Y00399288
X01009523Y00411099
X010033
X00996823Y00410972
X01114499Y00409
X01131499
X01148499
X01139999Y00392
X01122999
X01105999
X01114499Y00375
X01131499
X01148499
X01105999Y00358
X01097499Y00341
X01080499
X01088999Y00324
X01105999
X01114499Y00307
X01131499
X01148499
X01139999Y0029
X01122999
X01105999
X01114499Y00273
X01131499
X01148499
X01139999Y00256
X01122999
X01105999
X01114499Y00239
X01131499
X01148499
X01105999Y00222
X01043051Y00213614
X01105999Y00426
X01122999
X01139999
Y00494
X01122999
X01131499Y00511
X01148499
X01139999Y00528
X01071753Y00524002
X01066292Y0051943
X01062736Y0053213
X01070102Y00538607
X01019683Y00536067
X01019556Y00528447
X01080499Y00477
X00858266Y00490601
X008636Y00509905
X00863981Y00518414
X00869569Y00521208
X00869696Y00513969
X0086995Y00506222
X00876046Y00510159
X00875411Y00518287
X0078867Y00506984
X00782999Y00494
X00748999Y00528
X00714999
X007235Y00511
X00727075Y00447167
X00727202Y00439928
X00740499Y00443
X00699516Y00439547
X00685546Y00453009
X00665988Y00429768
X00625475Y00438658
X0064008Y00459994
X00632333Y00482219
X00621499Y00477
X006045
X00655499
X0064389Y00495808
X0063Y00528
X005842Y00521589
X00577342Y00521462
X00545846Y00444373
X00545973Y00433197
X0055626Y00430911
X00577342Y00406654
X00587248Y0039116
X00587121Y00382778
X006045Y00375
X00576072Y00366395
X00544068Y0036322
X00544576Y00353568
X00544703Y00347218
X00545084Y00331343
X00577723Y00319151
X0058293
X00580898Y00296291
X00575818
X00627888Y00288163
X00634111Y00285496
X00621411Y0031623
X00605409Y00332232
X00629666Y00348615
X00638175
X00634111Y00353314
X00663999Y00358
X00681
X006895Y00375
X00672499
X00681Y00392
X00692658Y00407035
X00706499Y00375
X00732Y00358
X00663999Y00324
X00678434Y00295783
X00693801Y00269494
X00694182Y00263906
X00693928Y00257937
X00700659Y00258191
X0070104Y00263271
X00669671Y0025654
X00669798Y00251079
Y00245745
Y00240665
X0066294Y00225171
X00660968Y0021723
X00657079Y00213341
X00638556Y00189865
X00621411Y00199898
X00613283Y00200025
X00606044Y00199898
X00598043Y00199771
X00575056Y002159
Y00225679
X00564769Y00218821
X00564134Y00212344
X00611124Y00145923
X00631571Y00146247
X00674243Y00162687
X00697865Y00184404
X00708533Y00188722
X00715899Y00182626
X00716534Y00175895
X00742696Y00180594
X00743839Y00195453
X00766Y00188
X00778637Y00161671
X00755396Y00156464
X00804799Y00159385
X00804926Y00164719
Y00169926
X00769112Y00229489
Y00236601
X00769239Y0024384
X0076454Y00247396
X00764032Y0024003
X00764159Y00232918
Y00225806
X00871982Y00223901
X00909955Y00226949
X00921131Y00227203
X00904875Y002794
X00904748Y00286512
X00904621Y00293624
X00900049Y00289941
X00900176Y00282575
X00910082Y00289687
X00890651Y003048
X00878586Y00340741
X00884999Y00358
X00807974Y00403987
X00542544Y00382651
X00542671Y00374523
X00649478Y00255524
X00655701Y00255651
X00914146Y00155194
X00914273Y00149098
X00921385
X00921258Y00155194
X00927735Y00155321
X00927608Y00148971
X00520446Y00151384
X00516128Y00145415
X00493014Y0014605
X00476377Y00153797
X0048387Y00209042
X00514858Y00199644
X00520319Y00199771
X00526288Y00206502
X00526161Y00212217
X00532511Y00223266
X00513969Y00242951
X00509524Y00238633
X00511937Y00190246
X00508635Y0018669
X0044577Y00248539
X00388874Y00285369
X00389721Y00303107
X00393785Y00314029
X00401193Y00315214
X00383921Y00328168
X00378079Y00327152
X00427355Y00345059
X00460375Y00363855
X0047244Y00365252
X00480314Y00369443
X00485394Y0037592
X00489839Y00381508
X00495681Y00387858
X00520281Y00363686
X0051058Y00326477
X00537464Y00445262
X00522605Y00487807
Y00496062
X00519557Y00532765
X00520065Y0053848
X00493268Y00535432
X00496697Y00529844
X00468757Y00522986
X0042291Y00534416
X00406019Y00537845
X00401574Y00527939
X0038354Y00510413
X00377825Y00511937
X00370332Y00472567
X00359156Y00482727
X00338201Y00494538
Y00501396
X00295275Y00515747
X00291338Y00519684
X00284988Y00513588
X0027178Y00526415
X00270637Y00535432
X0027686Y00535559
X00264287Y00535686
X00251312Y00526648
X00247904Y00513969
X002475Y00477
X00267843Y00477774
X00275463Y00477901
X00283464
X00294152Y00469773
X00308102Y0047244
X00311531Y00445262
X00334645Y00445389
X003337Y00423672
X00349758Y00398907
X00310007Y00387604
X00308229Y00361442
X00297053Y00361188
X00299085Y00347599
X00308356Y00348107
X00280543Y00356108
X00275717Y00360934
X00282321Y00366776
X00276987Y00380492
X00272288Y00384556
X00284607Y00390525
X00268605Y00400304
X00265176Y00416687
X00273304
X00251841Y00416306
X00257556Y00440309
X00273304Y00439547
X00236728Y00457835
X00231775Y00452882
X00186182Y00458089
X00180975Y00463931
X00152273Y00463423
X001524Y00470789
X00151892Y00455803
X00143383Y00415671
X00154051Y00398018
X00178816Y00403606
X00188214Y00393319
X00194437Y00398653
X00196342Y00387604
X00188468Y00380873
X00189992Y00361696
X00189738Y00354965
X00185674Y00337439
X00180975Y00342138
X00205994Y00330581
X00215011Y00371221
X00214503Y00382778
X00214122Y00389128
X00221742Y00396748
X0023749Y0039624
X00239395Y00385953
X00250444Y00386334
X0023749Y00375666
X00223647Y00376428
X00201803Y00426085
X00192405Y00426339
X00179197Y00432943
X00192532Y00488442
X00192405Y00495554
X00192024Y00503047
X00168783Y00534162
X00143637Y00320294
Y00314579
X00144272Y00146431
X00390937Y00155669
X00406781Y00156464
X00383667Y00455041
Y0046101
X00423496Y00474599
X00423164Y00506984
X00470408Y00462788
X00138938Y00406654
X00111506Y00413004
X00111379Y004191
X0008128Y00402717
X00085471Y00387731
X0008255Y00357505
X00086487Y00334899
X00117983Y00317373
X001285Y00239
X00130429Y00224028
X0012Y00222
X00078994Y00262001
X00044196Y00162814
X0004445Y00153035
X00018Y00154
X00052959Y00391922
Y0039751
Y00403352
X00076581Y00431927
X00062611Y00480187
X000435Y00477
X00035Y0046
X00018
X00059309Y00523494
X00072136Y00528828
X00077978Y00527812
X00123698Y00524256
X00113538Y00509905
X00121158Y00559689
X00126238Y00566547
X0012065Y00571373
X00119761Y00582041
X00112776Y00592455
Y00597027
X00132207Y00604139
X00140208Y00604393
X00138811Y00596265
X00138938Y00589026
X00140462Y00654177
X00140843Y00666369
X00140462Y00673481
X00134843Y00716692
X00120396Y00741172
X00110998Y00740537
X0009652Y00718693
X00105537Y00705358
X00085725Y00700278
X00070993Y00708406
X00064008Y00731266
X00063754Y0074041
Y00758063
X00063881Y00767207
X00064135Y00776097
X00094869Y00781812
X00098552Y00788162
X00111506Y00790575
X00132715Y00778891
X00139319Y00820166
Y00826008
X00139192Y00832612
Y00839343
X00139065Y00845693
Y00852297
X00136779Y00858266
Y00864489
X00130175Y0086487
X00123571Y00865886
X00122428Y00872617
X00122174Y00879729
X00122301Y0088646
X00122555Y00893064
X001115Y00884999
X000945
X00103Y00833999
X0012
X001285Y00850999
X00085344Y00821436
X00052Y00833999
X00035
X000435Y00817
X000265
Y00782999
X00035Y00766
X00077343Y00606176
X00077089Y00546176
X00163068Y00562356
X00168021Y00567436
X00177927Y00569976
X00179705Y00564515
X00175149Y00559959
X00183134Y00552704
X00196723Y00550291
X00203962Y00573405
X00211836Y00565658
X00238506Y00566166
X00233553Y0057531
X00237617Y00582168
Y0058928
X00237363Y00596646
X00244602Y00596138
X00235712Y00604393
X00212979Y00602996
X00220091Y00586232
X00228727Y00586867
X0022606Y00579247
X00270891Y00578612
X00274193Y00574081
X00277876Y00569341
X00282194Y00573151
X00294767Y00577596
X00300609Y00577215
X00306578
X00307975Y00555879
X00292735Y00546481
X00273558Y00564642
X00279273Y00588122
X00275971Y0059817
X00270637Y00598043
X00270956Y00609662
X00272034Y0061722
X00262509Y00624205
X00270002Y00634873
X00264414Y00643001
X00254635Y00643509
X00245999Y0064135
X00245872Y00646486
X0024003Y00641985
X00235529Y00635635
X00222061Y00626556
X00205994Y00629793
X0020371Y00636272
X0019685Y00632841
X00196342Y00626999
X00194056Y00620522
X00188214Y00621157
X00179959Y00604774
X00174244Y00597154
X00179323Y00579332
X00236601Y0054229
X00324358Y00568325
X00322072Y00604266
X00320675Y00642747
X00320548Y00648335
X00327025Y00648716
X00327152Y00643001
X00352552Y00643382
X00352806Y00634619
X00352425Y00653669
X00298323Y00639572
X00280162Y00646176
X00292735Y00693166
X0028829Y00698373
X003175Y00704596
X00318008Y00734187
X00304927Y00751967
X00342392Y00747141
X00346456Y00742823
X00352679Y00740156
X00359283Y0074041
X00355219Y0072898
X00359791Y00723265
X00392303Y00715645
X00397637Y0070993
X0040386Y00701929
X00399923Y00683514
X00401066Y00677291
X00390906Y00687832
X00392Y00732
X00409
X00443
X00455168Y00728472
Y00721995
Y00735711
Y00741553
X004685Y00748999
X004855
X005025
X005195
X005365
X00521843Y00785241
X00507238Y00790829
X004515Y00817
X00443Y00867999
X00426
X004175Y00884999
X00426Y00901999
X004345Y00918999
X004175
X00426Y00935999
X00443
X0046
X00477
X004855Y00918999
X004685
X00494Y00901999
X004855Y00884999
X00477Y00867999
X0046
X00494
X005195Y00884999
X00528Y00901999
X00392
X003835Y00918999
X003665
X003495
X003325
X00341Y00901999
X003325Y00884999
X003155
X002985
X002815
X002645
X002475
X002305
X002135
X001965
X00174498Y0088519
Y00879094
X00174244Y00871093
X00168402Y00865505
X00164973Y00859663
X00163322Y00853186
X00158242Y0084455
Y00838073
Y00832104
X00171Y00833999
X00188
X001965Y00817
X001795
Y00850999
X001965
X00188Y00867999
X00205
X00222
X00256
X00273
X0029Y00833999
X002985Y00817
X003325
X00251841Y0079375
X00247015
X00231775Y00780923
X00200533Y00772668
X00192913Y00772541
X00202692Y00761873
X00215646Y00756539
Y00736092
X00205867Y00740156
X0019558Y00744601
X00187325Y00751205
X00225806Y00732028
X00240411Y00727456
X00240538Y00680085
X00246634Y00680212
X00252476
X00256286Y00686816
X00180594Y00683387
X00180721Y00677672
Y006731
X00156591Y00660908
X0016002Y00863981
X00174244Y00891667
X00239Y00833999
X00392Y00867999
Y00935999
X00375
X00358
X00341
X004345Y00748999
X005195Y00681
X00511Y00663999
X00528
X00494Y0063
X00467868Y00580263
X00539242Y00578739
X0053594Y00568706
X00535813Y00562356
X00423037Y00541147
X00404495Y00607187
X00404622Y00613029
Y00618998
X00395478Y00626999
Y00610108
X00395986Y00601345
X00580263Y00608584
X005875Y00647
X005705
X00562Y00663999
X00545
X00579
X00596
X00613
X00623824Y00676529
X00631571Y00671322
X006045Y00647
X0064897Y00630047
X00706501Y00630174
X00706499Y00613
X00714999Y00562
X007235Y00545
X00706499
X00638499
X0063Y00562
X00647
X00638499Y00579
X00621499
X00556514Y00540385
X00562Y00697999
X00579
X005875Y00748999
X005705
X005535
X00546354Y00770763
X00575437Y00822071
X00587248Y0082931
X00579Y00901999
X00562
X00545
X005705Y00918999
X005875
X00579Y00935999
X00613Y00901999
X0063
X00647
X00663999
X00672499Y00884999
X00655499
X00638499
X00672499Y00918999
X006895
X00697999Y00935999
X00714999
X00732
X00748999
X00740499Y00918999
X007235
X00732Y00901999
X00748999
X00740499Y00884999
X00697999Y00867999
X006895Y00782999
X00685419Y0072898
X00684784Y00711962
X00663956Y00710819
X00656209Y00753872
X00638499Y00748999
X00729234Y0071628
Y00707009
X00735076Y00711454
X00741807Y00645795
X00742188Y00638302
X00787273Y00623951
X00801751Y006477
X00817245Y00639191
X00824357Y00638937
X00850773Y00652399
X00867664Y00632968
X00872744Y00637159
X00901999Y0063
X00922528Y00637667
X00932688Y00636397
X00917829Y00659257
X00902589Y00660146
X00907288Y00673227
X00894715Y00677418
X00896112Y0069342
X00884047Y00687705
X00874522Y00682244
X00867664Y00702818
X00859155Y00707644
X00854329Y00697738
X00827786Y00701167
X00821309Y00706628
X00820293Y00731139
X00832104Y00722884
X00833247Y00742823
X00822833Y00757936
X00823341Y00765048
X00825499Y00817
X00867999Y00833999
X00859499Y00850999
X00913892Y00838073
X00930275Y00852805
X00922655Y00775462
X00917448Y00772922
X00913638Y00749935
X00908431Y00747522
X00902716Y00750443
X00883031Y0075057
X00872744Y00750951
X00872617Y00720979
X00883285Y00720725
X0089154Y00721995
X00910717Y00728218
X00919607Y00734822
X00932688Y00745871
X00919353Y00705612
X00915162Y00691007
X0086741Y00776605
X00762635Y00788289
X00758444Y00793115
X00762635Y00797814
X00762381Y00806831
X00757809Y00802386
X00749808Y0080772
X00791499Y00918999
X00808499
X00825499
X00817Y00935999
X00799999
X00782999
X00791972Y00672973
X00852551Y00615569
X0086868Y00597789
X00865124Y00567817
Y00561467
X00865251Y00554863
X00872998Y00555117
Y00561467
Y00567817
X00812165Y0056515
X00984758Y0054356
X01019302Y00545084
Y00553466
X00995499Y00579
X00999617Y00615823
X00998347Y00625094
X00989203Y00627507
X00983615Y00639445
X00988441Y00651764
X00978789Y00654558
X00967867Y00657352
X00986999Y00663999
X00983361Y00675894
X00985012Y00683006
X00978408Y00687832
X00967359Y00700786
X00979932Y00717423
X00968883Y00732663
X01027176Y00706247
X01030478Y0069088
X01060831Y00689102
X01071999Y00697999
X01080499Y00681
X01064387Y00723519
X01054862Y00727075
X01071999Y00732
X01071372Y00751967
X01070991Y00760857
X01072007Y00782574
Y00791083
X01048131Y00790448
X01041019Y00801624
X01040003Y00812038
X01027303Y00798449
X01020699Y00790829
X01028446Y00772287
X00990219Y00804545
X00993394Y00810641
X0099314Y00815848
X01003999Y00833999
X01012499Y00884999
X00995499
X01029499
X01046499
X01063499
Y00817
X01080499
X01139999Y00799999
X01148499Y00782999
X01139999Y00766
X01148499Y00748999
X01139999Y00732
X01148499Y00714999
X01139999Y00697999
X01114499Y00714999
Y00748999
X01139999Y0063
Y00562
X01148499Y00545
X01076579Y00543687
X01071999Y00562
X01080499Y00579
X01082802Y00601853
X01071999Y00596
X01067181Y00608838
X01071626Y00613918
X01076002Y00618051
X01061593Y00626618
X01051687Y00623697
X01011809Y00622427
X01103503Y00590296
X00825499Y00952999
X00808499
X00791499
X00740499
X007235
X00706499
X00672499
X00663999Y00969999
X00647
X0063
X00613
X00596
X00579
X00562
X00545
X00681
X00528
X00511
X00494
X00477
X0046
X00443
X00426
X004345Y00952999
X004175
X003835
X003665
X003495
X003325
X004515
X004685
X004855
X005195
X005365
T03
X00123063Y00013335
X00119126Y00020955
X00118872Y00029972
X00127508Y00028829
X0012827Y0002032
X00140716Y00068453
X00143637Y00075946
X00148463Y00065532
X0067056Y00087376
X00960247Y00432816
X0106807Y00507492
X00743204Y00393827
X00677037Y00406908
X00659638Y00393954
X0065278Y00372999
X00593979Y00406908
X00652526Y00241173
X00930656Y0016764
X00495202Y00192913
X00484759Y00395351
X00307975Y00498729
X00069215Y00498475
X000635Y0049022
X00051943Y00526161
X00046482Y00531876
X00039751Y00376047
X0008128Y00149352
X00088011Y00145923
X00050419Y00689356
X00022987Y00755142
X00241173Y0079375
X00336931Y00752729
X00438277Y0070104
X00269621Y00623443
X00176149Y00619252
X00176276Y00628777
X00174752Y00609346
X00929005Y00687705
X00985393Y00809371
T04
X00111714Y00116159
Y00126159
X00121714
Y00116159
X00966671Y00181943
Y00191943
X00976671
Y00181943
T05
X00513461Y00061468
X00526161
X00538861
T07
X00555371Y00937641
X0060198Y00938022
X0062738
X0065278
X00529971Y00937641
X00504571
T08
X00863092Y00881253
X00888492
X00913892
X00939292
X00964692
X00999236Y00848487
X01024636
X01050036
X01075436
X01100836
T09
X00805Y00216
T10
X0036Y00884
X00455Y00894
X00705
X008Y00884
M30
