#VRML V2.0 utf8

Shape {
  appearance Appearance {
    material Material {
      diffuseColor 0.9137 0.9137 0.9137
      specularColor 0.4588 0.4588 0.4588
      ambientIntensity 0.2
      transparency 0.0000
      shininess 0.5
    }
  }
  geometry IndexedFaceSet {
    ccw TRUE
    solid FALSE
    coord DEF co Coordinate {
      point [
        -1.137963 0.177165 -2.667323,
        -1.137963 0.177165 -3.336614,
        -1.137963 0.000000 -2.667323,
        -1.137963 0.000000 -3.336614,
        -1.167490 0.177165 -2.667323,
        -1.167490 0.000000 -2.667323,
        -1.167490 0.177165 -2.273622,
        -1.167490 0.000000 -2.273622,
        -1.137963 0.177165 -2.273622,
        -1.137963 0.000000 -2.273622,
        -1.137963 0.177165 -1.604331,
        -1.137963 0.000000 -1.604331,
        -0.925364 0.177165 -1.604331,
        -0.925364 0.000000 -1.604331,
        -0.925364 0.177165 -1.368110,
        -0.925364 0.000000 -1.368110,
        -0.649774 0.177165 -1.368110,
        -0.649774 0.000000 -1.368110,
        -0.649774 0.177165 -1.879921,
        -0.649774 0.000000 -1.879921,
        -0.862372 0.177165 -1.879921,
        -0.862372 0.000000 -1.879921,
        -0.862372 0.177165 -2.273622,
        -0.862372 0.000000 -2.273622,
        -0.832771 0.177165 -2.273622,
        -0.832771 0.000000 -2.273622,
        -0.832771 0.177165 -2.667323,
        -0.832771 0.000000 -2.667323,
        -0.862372 0.177165 -2.667323,
        -0.862372 0.000000 -2.667323,
        -0.862372 0.177165 -3.336614,
        -0.862372 0.000000 -3.336614,
        -0.137889 0.177165 -1.368110,
        -0.137889 0.177165 -3.336614,
        -0.137889 0.000000 -1.368110,
        -0.137889 0.000000 -3.336614,
        0.137701 0.177165 -1.368110,
        0.137701 0.000000 -1.368110,
        0.137701 0.177165 -3.336614,
        0.137701 0.000000 -3.336614,
        0.649586 0.177165 -1.368110,
        0.649586 0.177165 -1.879921,
        0.649586 0.000000 -1.368110,
        0.649586 0.000000 -1.879921,
        0.925176 0.177165 -1.368110,
        0.925176 0.000000 -1.368110,
        0.925176 0.177165 -1.604331,
        0.925176 0.000000 -1.604331,
        1.137775 0.177165 -1.604331,
        1.137775 0.000000 -1.604331,
        1.137775 0.177165 -2.273622,
        1.137775 0.000000 -2.273622,
        1.167302 0.177165 -2.273622,
        1.167302 0.000000 -2.273622,
        1.167302 0.177165 -2.667323,
        1.167302 0.000000 -2.667323,
        1.137775 0.177165 -2.667323,
        1.137775 0.000000 -2.667323,
        1.137775 0.177165 -3.336614,
        1.137775 0.000000 -3.336614,
        0.862184 0.177165 -3.336614,
        0.862184 0.000000 -3.336614,
        0.862184 0.177165 -2.667323,
        0.862184 0.000000 -2.667323,
        0.832583 0.177165 -2.667323,
        0.832583 0.000000 -2.667323,
        0.832583 0.177165 -2.273622,
        0.832583 0.000000 -2.273622,
        0.862184 0.177165 -2.273622,
        0.862184 0.000000 -2.273622,
        0.862184 0.177165 -1.879921,
        0.862184 0.000000 -1.879921,
      ]
    }
    coordIndex [
      0, 1, 2, -1,
      2, 1, 3, -1,
      4, 0, 5, -1,
      5, 0, 2, -1,
      6, 4, 7, -1,
      7, 4, 5, -1,
      8, 6, 9, -1,
      9, 6, 7, -1,
      10, 8, 11, -1,
      11, 8, 9, -1,
      12, 10, 13, -1,
      13, 10, 11, -1,
      14, 12, 15, -1,
      15, 12, 13, -1,
      16, 14, 17, -1,
      17, 14, 15, -1,
      18, 16, 19, -1,
      19, 16, 17, -1,
      20, 18, 21, -1,
      21, 18, 19, -1,
      22, 20, 23, -1,
      23, 20, 21, -1,
      24, 22, 25, -1,
      25, 22, 23, -1,
      26, 24, 27, -1,
      27, 24, 25, -1,
      28, 26, 29, -1,
      29, 26, 27, -1,
      30, 28, 31, -1,
      31, 28, 29, -1,
      1, 30, 3, -1,
      3, 30, 31, -1,
      28, 6, 26, -1,
      26, 6, 8, -1,
      4, 6, 0, -1,
      0, 6, 28, -1,
      0, 28, 1, -1,
      1, 28, 30, -1,
      24, 26, 22, -1,
      22, 26, 8, -1,
      22, 8, 20, -1,
      20, 8, 10, -1,
      20, 10, 18, -1,
      18, 10, 12, -1,
      18, 12, 16, -1,
      16, 12, 14, -1,
      3, 31, 2, -1,
      2, 31, 29, -1,
      27, 25, 29, -1,
      29, 25, 23, -1,
      17, 15, 19, -1,
      19, 15, 13, -1,
      19, 13, 21, -1,
      21, 13, 11, -1,
      21, 11, 23, -1,
      23, 11, 9, -1,
      23, 9, 29, -1,
      29, 9, 7, -1,
      29, 7, 2, -1,
      2, 7, 5, -1,
      32, 33, 34, -1,
      34, 33, 35, -1,
      36, 32, 37, -1,
      37, 32, 34, -1,
      38, 36, 39, -1,
      39, 36, 37, -1,
      33, 38, 35, -1,
      35, 38, 39, -1,
      36, 38, 32, -1,
      32, 38, 33, -1,
      39, 37, 35, -1,
      35, 37, 34, -1,
      40, 41, 42, -1,
      42, 41, 43, -1,
      44, 40, 45, -1,
      45, 40, 42, -1,
      46, 44, 47, -1,
      47, 44, 45, -1,
      48, 46, 49, -1,
      49, 46, 47, -1,
      50, 48, 51, -1,
      51, 48, 49, -1,
      52, 50, 53, -1,
      53, 50, 51, -1,
      54, 52, 55, -1,
      55, 52, 53, -1,
      56, 54, 57, -1,
      57, 54, 55, -1,
      58, 56, 59, -1,
      59, 56, 57, -1,
      60, 58, 61, -1,
      61, 58, 59, -1,
      62, 60, 63, -1,
      63, 60, 61, -1,
      64, 62, 65, -1,
      65, 62, 63, -1,
      66, 64, 67, -1,
      67, 64, 65, -1,
      68, 66, 69, -1,
      69, 66, 67, -1,
      70, 68, 71, -1,
      71, 68, 69, -1,
      41, 70, 43, -1,
      43, 70, 71, -1,
      58, 60, 56, -1,
      56, 60, 62, -1,
      64, 66, 62, -1,
      62, 66, 68, -1,
      40, 44, 41, -1,
      41, 44, 46, -1,
      41, 46, 70, -1,
      70, 46, 48, -1,
      70, 48, 68, -1,
      68, 48, 50, -1,
      68, 50, 62, -1,
      62, 50, 52, -1,
      62, 52, 56, -1,
      56, 52, 54, -1,
      63, 53, 65, -1,
      65, 53, 51, -1,
      55, 53, 57, -1,
      57, 53, 63, -1,
      57, 63, 59, -1,
      59, 63, 61, -1,
      67, 65, 69, -1,
      69, 65, 51, -1,
      69, 51, 71, -1,
      71, 51, 49, -1,
      71, 49, 43, -1,
      43, 49, 47, -1,
      43, 47, 42, -1,
      42, 47, 45, -1,
    ]
  }
}

Shape {
  appearance Appearance {
    material Material {
      diffuseColor 0.5020 0.5020 0.5020
      specularColor 0.2510 0.2510 0.2510
      ambientIntensity 0.2
      transparency 0.0000
      shininess 0.5
    }
  }
  geometry IndexedFaceSet {
    ccw TRUE
    solid FALSE
    coord DEF co Coordinate {
      point [
        0.984252 0.669291 -1.368110,
        0.984252 -0.433071 -1.368110,
        -0.024486 0.669291 -1.368110,
        0.787402 -0.433071 -1.368110,
        0.778607 -0.550427 -1.368110,
        0.752420 -0.665161 -1.368110,
        0.709424 -0.774711 -1.368110,
        0.650582 -0.876630 -1.368110,
        0.058843 -1.218271 -1.368110,
        -0.058843 -1.218271 -1.368110,
        -0.175213 -1.200731 -1.368110,
        -0.287670 -1.166043 -1.368110,
        -0.393701 -1.114981 -1.368110,
        -0.490937 -1.048686 -1.368110,
        -0.577206 -0.968640 -1.368110,
        0.577206 -0.968640 -1.368110,
        0.490937 -1.048686 -1.368110,
        0.393701 -1.114981 -1.368110,
        -0.650582 -0.876630 -1.368110,
        -0.709424 -0.774711 -1.368110,
        -0.752420 -0.665161 -1.368110,
        0.287670 -1.166043 -1.368110,
        0.175213 -1.200731 -1.368110,
        -0.984252 -0.433071 -1.368110,
        -0.984252 0.669291 -1.368110,
        -0.787402 -0.433071 -1.368110,
        -0.778607 -0.550427 -1.368110,
        -0.782786 -0.433071 0.390251,
        -0.768993 -0.433071 0.474386,
        -0.984252 -0.433071 1.368110,
        -0.746183 -0.433071 0.556537,
        -0.714626 -0.433071 0.635739,
        -0.127387 -0.433071 1.082147,
        -0.042629 -0.433071 1.091365,
        0.042629 -0.433071 1.091365,
        0.984252 -0.433071 1.368110,
        0.127387 -0.433071 1.082147,
        0.210652 -0.433071 1.063819,
        -0.787402 -0.433071 0.305118,
        -0.674691 -0.433071 0.711066,
        -0.626845 -0.433071 0.781633,
        -0.571650 -0.433071 0.846614,
        0.441880 -0.433071 0.956842,
        0.509753 -0.433071 0.905246,
        0.674691 -0.433071 0.711066,
        0.714626 -0.433071 0.635739,
        0.746183 -0.433071 0.556537,
        0.768993 -0.433071 0.474386,
        0.787402 -0.433071 0.305118,
        0.782786 -0.433071 0.390251,
        -0.509753 -0.433071 0.905246,
        -0.441880 -0.433071 0.956842,
        -0.368826 -0.433071 1.000797,
        -0.291447 -0.433071 1.036596,
        -0.210652 -0.433071 1.063819,
        0.291447 -0.433071 1.036596,
        0.368826 -0.433071 1.000797,
        0.571650 -0.433071 0.846614,
        0.626845 -0.433071 0.781633,
        0.101119 0.669291 0.540862,
        0.112748 0.669291 0.539556,
        0.075576 0.669291 0.452187,
        -0.010083 0.669291 0.539422,
        0.034569 0.669291 0.539422,
        0.034569 0.669291 0.500532,
        -0.007202 0.669291 0.500532,
        -0.007202 0.669291 0.487569,
        -0.024486 0.669291 0.433555,
        0.141461 0.669291 0.444351,
        0.150332 0.669291 0.453691,
        0.171404 0.669291 0.434275,
        0.086763 0.669291 0.538997,
        0.073459 0.669291 0.453360,
        0.073459 0.669291 0.533300,
        -0.010083 0.669291 0.552385,
        -0.024486 0.669291 1.368110,
        0.050413 0.669291 0.552385,
        0.984252 0.669291 1.368110,
        0.155088 0.669291 0.521276,
        0.148165 0.669291 0.532319,
        0.216056 0.669291 0.552385,
        0.137502 0.669291 0.542574,
        0.126283 0.669291 0.549032,
        0.984252 0.669291 0.433555,
        0.231899 0.669291 0.434275,
        0.231899 0.669291 0.552385,
        0.171404 0.669291 0.447238,
        0.156624 0.669291 0.464921,
        0.216056 0.669291 0.447238,
        0.113117 0.669291 0.552857,
        0.101254 0.669291 0.553826,
        0.087114 0.669291 0.552850,
        0.073459 0.669291 0.549144,
        0.050413 0.669291 0.434275,
        0.073459 0.669291 0.440396,
        0.112903 0.669291 0.433555,
        0.120513 0.669291 0.434344,
        0.131960 0.669291 0.438284,
        0.121589 0.669291 0.536366,
        0.129764 0.669291 0.530897,
        0.136896 0.669291 0.523023,
        0.145477 0.669291 0.492070,
        0.144281 0.669291 0.479283,
        0.141072 0.669291 0.469124,
        0.114791 0.669291 0.447033,
        0.103774 0.669291 0.445798,
        0.123396 0.669291 0.450202,
        0.130645 0.669291 0.455087,
        0.136188 0.669291 0.460935,
        0.088096 0.669291 0.447538,
        0.160179 0.669291 0.477423,
        0.161321 0.669291 0.491102,
        0.159622 0.669291 0.507894,
        0.141766 0.669291 0.513903,
        0.144914 0.669291 0.501259,
        0.034569 0.669291 0.487569,
        0.034569 0.669291 0.447238,
        -0.012963 0.669291 0.447238,
        -0.012963 0.669291 0.434275,
        0.105957 0.669291 0.432835,
        0.102728 0.669291 0.432890,
        0.097983 0.669291 0.433555,
        -0.229019 0.669291 0.434275,
        -0.246303 0.669291 0.434275,
        -0.984252 0.669291 0.433555,
        -0.200211 0.669291 0.552385,
        -0.984252 0.669291 1.368110,
        -0.184367 0.669291 0.552385,
        -0.068125 0.669291 0.434275,
        -0.036009 0.669291 0.434275,
        -0.036009 0.669291 0.552385,
        -0.069340 0.669291 0.552385,
        -0.113202 0.669291 0.536985,
        -0.121554 0.669291 0.527724,
        -0.127043 0.669291 0.517566,
        -0.139716 0.669291 0.434275,
        -0.125176 0.669291 0.466646,
        -0.118402 0.669291 0.456082,
        -0.086404 0.669291 0.550561,
        -0.100223 0.669291 0.545709,
        -0.113078 0.669291 0.537093,
        -0.108681 0.669291 0.446774,
        -0.096348 0.669291 0.439607,
        -0.082739 0.669291 0.435550,
        -0.157000 0.669291 0.434275,
        -0.168276 0.669291 0.467403,
        -0.217068 0.669291 0.467403,
        -0.130215 0.669291 0.505929,
        -0.131074 0.669291 0.494815,
        -0.129416 0.669291 0.479009,
        0.086049 0.669291 0.435227,
      ]
    }
    coordIndex [
      0, 1, 2, -1,
      2, 1, 3, -1,
      2, 3, 4, -1,
      4, 5, 2, -1,
      2, 5, 6, -1,
      2, 6, 7, -1,
      8, 9, 2, -1,
      2, 9, 10, -1,
      2, 10, 11, -1,
      11, 12, 2, -1,
      2, 12, 13, -1,
      2, 13, 14, -1,
      7, 15, 2, -1,
      2, 15, 16, -1,
      2, 16, 17, -1,
      14, 18, 2, -1,
      2, 18, 19, -1,
      2, 19, 20, -1,
      17, 21, 2, -1,
      2, 21, 22, -1,
      2, 22, 8, -1,
      23, 24, 25, -1,
      25, 24, 2, -1,
      25, 2, 26, -1,
      26, 2, 20, -1,
      27, 28, 29, -1,
      29, 28, 30, -1,
      29, 30, 31, -1,
      32, 33, 29, -1,
      29, 33, 34, -1,
      29, 34, 35, -1,
      35, 34, 36, -1,
      35, 36, 37, -1,
      27, 29, 38, -1,
      38, 29, 23, -1,
      38, 23, 25, -1,
      31, 39, 29, -1,
      29, 39, 40, -1,
      29, 40, 41, -1,
      35, 42, 43, -1,
      44, 45, 35, -1,
      35, 45, 46, -1,
      35, 46, 47, -1,
      3, 1, 48, -1,
      48, 1, 35, -1,
      48, 35, 49, -1,
      49, 35, 47, -1,
      41, 50, 29, -1,
      29, 50, 51, -1,
      29, 51, 52, -1,
      52, 53, 29, -1,
      29, 53, 54, -1,
      29, 54, 32, -1,
      37, 55, 35, -1,
      35, 55, 56, -1,
      35, 56, 42, -1,
      43, 57, 35, -1,
      35, 57, 58, -1,
      35, 58, 44, -1,
      59, 60, 61, -1,
      62, 63, 64, -1,
      65, 66, 67, -1,
      68, 69, 70, -1,
      59, 61, 71, -1,
      71, 61, 72, -1,
      71, 72, 73, -1,
      64, 65, 62, -1,
      62, 65, 67, -1,
      62, 67, 74, -1,
      74, 67, 75, -1,
      74, 75, 76, -1,
      76, 75, 77, -1,
      78, 79, 80, -1,
      80, 79, 81, -1,
      80, 81, 82, -1,
      83, 84, 77, -1,
      77, 84, 85, -1,
      77, 85, 80, -1,
      70, 69, 86, -1,
      86, 69, 87, -1,
      86, 87, 88, -1,
      82, 89, 80, -1,
      80, 89, 90, -1,
      80, 90, 77, -1,
      77, 90, 91, -1,
      77, 91, 76, -1,
      91, 92, 76, -1,
      76, 92, 73, -1,
      76, 73, 93, -1,
      93, 73, 72, -1,
      93, 72, 94, -1,
      95, 96, 70, -1,
      70, 96, 97, -1,
      70, 97, 68, -1,
      60, 98, 61, -1,
      61, 98, 99, -1,
      61, 99, 100, -1,
      101, 102, 61, -1,
      61, 102, 103, -1,
      104, 105, 106, -1,
      106, 105, 107, -1,
      103, 108, 61, -1,
      61, 108, 107, -1,
      61, 107, 109, -1,
      109, 107, 105, -1,
      87, 110, 88, -1,
      88, 110, 111, -1,
      88, 111, 80, -1,
      80, 111, 112, -1,
      80, 112, 78, -1,
      100, 113, 61, -1,
      61, 113, 114, -1,
      61, 114, 101, -1,
      115, 116, 66, -1,
      66, 116, 117, -1,
      66, 117, 67, -1,
      67, 117, 118, -1,
      67, 118, 93, -1,
      70, 84, 95, -1,
      95, 84, 83, -1,
      95, 83, 119, -1,
      119, 83, 0, -1,
      119, 0, 120, -1,
      120, 0, 2, -1,
      120, 2, 121, -1,
      122, 67, 123, -1,
      123, 67, 124, -1,
      123, 124, 125, -1,
      125, 124, 126, -1,
      125, 126, 127, -1,
      127, 126, 75, -1,
      128, 129, 67, -1,
      67, 129, 130, -1,
      67, 130, 75, -1,
      75, 130, 131, -1,
      132, 133, 127, -1,
      127, 133, 134, -1,
      135, 136, 137, -1,
      131, 138, 75, -1,
      75, 138, 139, -1,
      75, 139, 127, -1,
      127, 139, 140, -1,
      127, 140, 132, -1,
      137, 141, 135, -1,
      135, 141, 142, -1,
      135, 142, 143, -1,
      143, 128, 135, -1,
      135, 128, 67, -1,
      135, 67, 144, -1,
      144, 67, 122, -1,
      144, 122, 145, -1,
      145, 122, 146, -1,
      134, 147, 127, -1,
      127, 147, 148, -1,
      127, 148, 135, -1,
      135, 148, 149, -1,
      135, 149, 136, -1,
      94, 150, 93, -1,
      93, 150, 121, -1,
      93, 121, 67, -1,
      67, 121, 2, -1,
      67, 2, 124, -1,
      124, 2, 24, -1,
      1, 0, 35, -1,
      35, 0, 83, -1,
      35, 83, 77, -1,
      35, 77, 29, -1,
      29, 77, 75, -1,
      29, 75, 126, -1,
      24, 23, 124, -1,
      124, 23, 29, -1,
      124, 29, 126, -1,
    ]
  }
}

Shape {
  appearance Appearance {
    material Material {
      diffuseColor 0.7529 0.7529 0.7529
      specularColor 0.3765 0.3765 0.3765
      ambientIntensity 0.2
      transparency 0.0000
      shininess 0.5
    }
  }
  geometry IndexedFaceSet {
    ccw TRUE
    solid FALSE
    coord DEF co Coordinate {
      point [
        -0.229019 0.669291 0.434275,
        -0.246303 0.669291 0.434275,
        -0.200211 0.669291 0.552385,
        -0.184367 0.669291 0.552385,
        -0.139716 0.669291 0.434275,
        -0.157000 0.669291 0.434275,
        -0.168276 0.669291 0.467403,
        -0.217068 0.669291 0.467403,
        -0.172259 0.673228 0.480367,
        -0.189881 0.673228 0.529699,
        -0.184367 0.673228 0.552385,
        -0.139716 0.673228 0.434275,
        -0.157000 0.673228 0.434275,
        -0.168276 0.673228 0.467403,
        -0.191018 0.673228 0.533796,
        -0.191772 0.673228 0.537981,
        -0.200211 0.673228 0.552385,
        -0.192154 0.673228 0.537981,
        -0.192925 0.673228 0.533808,
        -0.193977 0.673228 0.529699,
        -0.211757 0.673228 0.480367,
        -0.246303 0.673228 0.434275,
        -0.229019 0.673228 0.434275,
        -0.217068 0.673228 0.467403,
        -0.172259 0.669291 0.480367,
        -0.211757 0.669291 0.480367,
        -0.193977 0.669291 0.529699,
        -0.192154 0.669291 0.537981,
        -0.192925 0.669291 0.533808,
        -0.191772 0.669291 0.537981,
        -0.189881 0.669291 0.529699,
        -0.191018 0.669291 0.533796,
      ]
    }
    coordIndex [
      8, 9, 10, -1,
      11, 12, 13, -1,
      9, 14, 10, -1,
      10, 14, 15, -1,
      10, 15, 16, -1,
      16, 15, 17, -1,
      16, 17, 18, -1,
      18, 19, 16, -1,
      16, 19, 20, -1,
      16, 20, 21, -1,
      22, 21, 23, -1,
      23, 21, 20, -1,
      23, 20, 13, -1,
      13, 20, 8, -1,
      13, 8, 11, -1,
      11, 8, 10, -1,
      16, 21, 2, -1,
      2, 21, 1, -1,
      10, 16, 3, -1,
      3, 16, 2, -1,
      11, 10, 4, -1,
      4, 10, 3, -1,
      12, 11, 5, -1,
      5, 11, 4, -1,
      13, 12, 6, -1,
      6, 12, 5, -1,
      23, 13, 7, -1,
      7, 13, 6, -1,
      22, 23, 0, -1,
      0, 23, 7, -1,
      21, 22, 1, -1,
      1, 22, 0, -1,
      8, 20, 24, -1,
      24, 20, 25, -1,
      20, 19, 25, -1,
      25, 19, 26, -1,
      17, 27, 28, -1,
      17, 28, 18, -1,
      18, 28, 26, -1,
      18, 26, 19, -1,
      17, 15, 27, -1,
      27, 15, 29, -1,
      9, 30, 31, -1,
      9, 31, 14, -1,
      14, 31, 29, -1,
      14, 29, 15, -1,
      9, 8, 30, -1,
      30, 8, 24, -1,
    ]
  }
}

Shape {
  appearance Appearance {
    material Material {
      diffuseColor 0.5020 0.5020 0.5020
      specularColor 0.2510 0.2510 0.2510
      ambientIntensity 0.2
      transparency 0.0000
      shininess 0.5
    }
  }
  geometry IndexedFaceSet {
    ccw TRUE
    solid FALSE
    coord DEF co Coordinate {
      point [
        -0.172259 0.669291 0.480367,
        -0.211757 0.669291 0.480367,
        -0.193977 0.669291 0.529699,
        -0.192154 0.669291 0.537981,
        -0.192925 0.669291 0.533808,
        -0.191772 0.669291 0.537981,
        -0.189881 0.669291 0.529699,
        -0.191018 0.669291 0.533796,
      ]
    }
    coordIndex [
      0, 1, 6, -1,
      6, 1, 2, -1,
      6, 2, 7, -1,
      7, 2, 4, -1,
      7, 4, 5, -1,
      5, 4, 3, -1,
    ]
  }
}

Shape {
  appearance Appearance {
    material Material {
      diffuseColor 0.7529 0.7529 0.7529
      specularColor 0.3765 0.3765 0.3765
      ambientIntensity 0.2
      transparency 0.0000
      shininess 0.5
    }
  }
  geometry IndexedFaceSet {
    ccw TRUE
    solid FALSE
    coord DEF co Coordinate {
      point [
        -0.068125 0.669291 0.434275,
        -0.036009 0.669291 0.434275,
        -0.036009 0.669291 0.552385,
        -0.069340 0.669291 0.552385,
        -0.113202 0.669291 0.536985,
        -0.121554 0.669291 0.527724,
        -0.127043 0.669291 0.517566,
        -0.125176 0.669291 0.466646,
        -0.118402 0.669291 0.456082,
        -0.086404 0.669291 0.550561,
        -0.100223 0.669291 0.545709,
        -0.113078 0.669291 0.537093,
        -0.108681 0.669291 0.446774,
        -0.096348 0.669291 0.439607,
        -0.082739 0.669291 0.435550,
        -0.130215 0.669291 0.505929,
        -0.131074 0.669291 0.494815,
        -0.129416 0.669291 0.479009,
        -0.127043 0.673228 0.517566,
        -0.121554 0.673228 0.527724,
        -0.107366 0.673228 0.522859,
        -0.113202 0.673228 0.536985,
        -0.101629 0.673228 0.528950,
        -0.113078 0.673228 0.537093,
        -0.093002 0.673228 0.534524,
        -0.100223 0.673228 0.545709,
        -0.083252 0.673228 0.537936,
        -0.086404 0.673228 0.550561,
        -0.069273 0.673228 0.539422,
        -0.069340 0.673228 0.552385,
        -0.051853 0.673228 0.539422,
        -0.036009 0.673228 0.552385,
        -0.051853 0.673228 0.447238,
        -0.036009 0.673228 0.434275,
        -0.068620 0.673228 0.447238,
        -0.068125 0.673228 0.434275,
        -0.081081 0.673228 0.448398,
        -0.082739 0.673228 0.435550,
        -0.091020 0.673228 0.451500,
        -0.096348 0.673228 0.439607,
        -0.099075 0.673228 0.456283,
        -0.108681 0.673228 0.446774,
        -0.105699 0.673228 0.462827,
        -0.118402 0.673228 0.456082,
        -0.110681 0.673228 0.470970,
        -0.125176 0.673228 0.466646,
        -0.114145 0.673228 0.482072,
        -0.129416 0.673228 0.479009,
        -0.115230 0.673228 0.494478,
        -0.131074 0.673228 0.494815,
        -0.114226 0.673228 0.506233,
        -0.130215 0.673228 0.505929,
        -0.111469 0.673228 0.515574,
        -0.069273 0.669291 0.539422,
        -0.051853 0.669291 0.539422,
        -0.051853 0.669291 0.447238,
        -0.068620 0.669291 0.447238,
        -0.115230 0.669291 0.494478,
        -0.114145 0.669291 0.482072,
        -0.110681 0.669291 0.470970,
        -0.105699 0.669291 0.462827,
        -0.099075 0.669291 0.456283,
        -0.091020 0.669291 0.451500,
        -0.081081 0.669291 0.448398,
        -0.083252 0.669291 0.537936,
        -0.093002 0.669291 0.534524,
        -0.101629 0.669291 0.528950,
        -0.107366 0.669291 0.522859,
        -0.111469 0.669291 0.515574,
        -0.114226 0.669291 0.506233,
      ]
    }
    coordIndex [
      18, 19, 20, -1,
      20, 19, 21, -1,
      20, 21, 22, -1,
      22, 21, 23, -1,
      22, 23, 24, -1,
      24, 23, 25, -1,
      24, 25, 26, -1,
      26, 25, 27, -1,
      26, 27, 28, -1,
      28, 27, 29, -1,
      28, 29, 30, -1,
      30, 29, 31, -1,
      30, 31, 32, -1,
      32, 31, 33, -1,
      32, 33, 34, -1,
      34, 33, 35, -1,
      34, 35, 36, -1,
      36, 35, 37, -1,
      36, 37, 38, -1,
      38, 37, 39, -1,
      38, 39, 40, -1,
      40, 39, 41, -1,
      40, 41, 42, -1,
      42, 41, 43, -1,
      42, 43, 44, -1,
      44, 43, 45, -1,
      44, 45, 46, -1,
      46, 45, 47, -1,
      46, 47, 48, -1,
      48, 47, 49, -1,
      48, 49, 50, -1,
      50, 49, 51, -1,
      50, 51, 52, -1,
      52, 51, 18, -1,
      52, 18, 20, -1,
      35, 33, 0, -1,
      0, 33, 1, -1,
      35, 0, 14, -1,
      35, 14, 37, -1,
      37, 14, 13, -1,
      37, 13, 39, -1,
      39, 13, 12, -1,
      39, 12, 41, -1,
      41, 12, 8, -1,
      41, 8, 43, -1,
      43, 8, 7, -1,
      43, 7, 45, -1,
      45, 7, 17, -1,
      45, 17, 47, -1,
      47, 17, 16, -1,
      47, 16, 49, -1,
      49, 16, 15, -1,
      49, 15, 51, -1,
      51, 15, 6, -1,
      51, 6, 18, -1,
      18, 6, 5, -1,
      18, 5, 19, -1,
      19, 5, 4, -1,
      19, 4, 21, -1,
      21, 4, 11, -1,
      21, 11, 23, -1,
      23, 11, 10, -1,
      23, 10, 25, -1,
      25, 10, 9, -1,
      25, 9, 27, -1,
      27, 9, 3, -1,
      27, 3, 29, -1,
      31, 29, 2, -1,
      2, 29, 3, -1,
      33, 31, 1, -1,
      1, 31, 2, -1,
      28, 30, 53, -1,
      53, 30, 54, -1,
      30, 32, 54, -1,
      54, 32, 55, -1,
      32, 34, 55, -1,
      55, 34, 56, -1,
      48, 57, 58, -1,
      48, 58, 46, -1,
      46, 58, 59, -1,
      46, 59, 44, -1,
      44, 59, 60, -1,
      44, 60, 42, -1,
      42, 60, 61, -1,
      42, 61, 40, -1,
      40, 61, 62, -1,
      40, 62, 38, -1,
      38, 62, 63, -1,
      38, 63, 36, -1,
      36, 63, 56, -1,
      36, 56, 34, -1,
      28, 53, 64, -1,
      28, 64, 26, -1,
      26, 64, 65, -1,
      26, 65, 24, -1,
      24, 65, 66, -1,
      24, 66, 22, -1,
      22, 66, 67, -1,
      22, 67, 20, -1,
      20, 67, 68, -1,
      20, 68, 52, -1,
      52, 68, 69, -1,
      52, 69, 50, -1,
      50, 69, 57, -1,
      50, 57, 48, -1,
    ]
  }
}

Shape {
  appearance Appearance {
    material Material {
      diffuseColor 0.5020 0.5020 0.5020
      specularColor 0.2510 0.2510 0.2510
      ambientIntensity 0.2
      transparency 0.0000
      shininess 0.5
    }
  }
  geometry IndexedFaceSet {
    ccw TRUE
    solid FALSE
    coord DEF co Coordinate {
      point [
        -0.069273 0.669291 0.539422,
        -0.051853 0.669291 0.539422,
        -0.051853 0.669291 0.447238,
        -0.068620 0.669291 0.447238,
        -0.115230 0.669291 0.494478,
        -0.114145 0.669291 0.482072,
        -0.110681 0.669291 0.470970,
        -0.105699 0.669291 0.462827,
        -0.099075 0.669291 0.456283,
        -0.091020 0.669291 0.451500,
        -0.081081 0.669291 0.448398,
        -0.083252 0.669291 0.537936,
        -0.093002 0.669291 0.534524,
        -0.101629 0.669291 0.528950,
        -0.107366 0.669291 0.522859,
        -0.111469 0.669291 0.515574,
        -0.114226 0.669291 0.506233,
      ]
    }
    coordIndex [
      1, 2, 0, -1,
      0, 2, 3, -1,
      0, 3, 10, -1,
      4, 16, 0, -1,
      0, 16, 15, -1,
      0, 15, 11, -1,
      10, 9, 0, -1,
      0, 9, 8, -1,
      0, 8, 7, -1,
      7, 6, 0, -1,
      0, 6, 5, -1,
      0, 5, 4, -1,
      14, 13, 15, -1,
      15, 13, 12, -1,
      15, 12, 11, -1,
    ]
  }
}

Shape {
  appearance Appearance {
    material Material {
      diffuseColor 0.7529 0.7529 0.7529
      specularColor 0.3765 0.3765 0.3765
      ambientIntensity 0.2
      transparency 0.0000
      shininess 0.5
    }
  }
  geometry IndexedFaceSet {
    ccw TRUE
    solid FALSE
    coord DEF co Coordinate {
      point [
        0.101119 0.669291 0.540862,
        0.112748 0.669291 0.539556,
        0.075576 0.669291 0.452187,
        -0.010083 0.669291 0.539422,
        0.034569 0.669291 0.539422,
        0.034569 0.669291 0.500532,
        -0.007202 0.669291 0.500532,
        -0.007202 0.669291 0.487569,
        0.141461 0.669291 0.444351,
        0.150332 0.669291 0.453691,
        0.171404 0.669291 0.434275,
        0.086763 0.669291 0.538997,
        0.073459 0.669291 0.453360,
        0.073459 0.669291 0.533300,
        -0.010083 0.669291 0.552385,
        0.050413 0.669291 0.552385,
        0.155088 0.669291 0.521276,
        0.148165 0.669291 0.532319,
        0.216056 0.669291 0.552385,
        0.137502 0.669291 0.542574,
        0.126283 0.669291 0.549032,
        0.231899 0.669291 0.434275,
        0.231899 0.669291 0.552385,
        0.171404 0.669291 0.447238,
        0.156624 0.669291 0.464921,
        0.216056 0.669291 0.447238,
        0.113117 0.669291 0.552857,
        0.101254 0.669291 0.553826,
        0.087114 0.669291 0.552850,
        0.073459 0.669291 0.549144,
        0.050413 0.669291 0.434275,
        0.073459 0.669291 0.440396,
        0.112903 0.669291 0.433555,
        0.120513 0.669291 0.434344,
        0.131960 0.669291 0.438284,
        0.121589 0.669291 0.536366,
        0.129764 0.669291 0.530897,
        0.136896 0.669291 0.523023,
        0.145477 0.669291 0.492070,
        0.144281 0.669291 0.479283,
        0.141072 0.669291 0.469124,
        0.114791 0.669291 0.447033,
        0.103774 0.669291 0.445798,
        0.123396 0.669291 0.450202,
        0.130645 0.669291 0.455087,
        0.136188 0.669291 0.460935,
        0.088096 0.669291 0.447538,
        0.160179 0.669291 0.477423,
        0.161321 0.669291 0.491102,
        0.159622 0.669291 0.507894,
        0.141766 0.669291 0.513903,
        0.144914 0.669291 0.501259,
        0.034569 0.669291 0.487569,
        0.034569 0.669291 0.447238,
        -0.012963 0.669291 0.447238,
        -0.012963 0.669291 0.434275,
        0.105957 0.669291 0.432835,
        0.102728 0.669291 0.432890,
        0.097983 0.669291 0.433555,
        0.086049 0.669291 0.435227,
        -0.012963 0.673228 0.447238,
        -0.012963 0.673228 0.434275,
        0.034569 0.673228 0.447238,
        0.034569 0.673228 0.487569,
        -0.007202 0.673228 0.487569,
        -0.007202 0.673228 0.500532,
        0.034569 0.673228 0.500532,
        0.034569 0.673228 0.539422,
        -0.010083 0.673228 0.539422,
        -0.010083 0.673228 0.552385,
        0.050413 0.673228 0.552385,
        0.050413 0.673228 0.434275,
        0.073459 0.673228 0.453360,
        0.073459 0.673228 0.440396,
        0.075576 0.673228 0.452187,
        0.088096 0.673228 0.447538,
        0.103774 0.673228 0.445798,
        0.114791 0.673228 0.447033,
        0.123396 0.673228 0.450202,
        0.130645 0.673228 0.455087,
        0.136188 0.673228 0.460935,
        0.141072 0.673228 0.469124,
        0.144281 0.673228 0.479283,
        0.145477 0.673228 0.492070,
        0.144914 0.673228 0.501259,
        0.141766 0.673228 0.513903,
        0.136896 0.673228 0.523023,
        0.129764 0.673228 0.530897,
        0.121589 0.673228 0.536366,
        0.112748 0.673228 0.539556,
        0.101119 0.673228 0.540862,
        0.086763 0.673228 0.538997,
        0.073459 0.673228 0.533300,
        0.073459 0.673228 0.549144,
        0.087114 0.673228 0.552850,
        0.101254 0.673228 0.553826,
        0.113117 0.673228 0.552857,
        0.126283 0.673228 0.549032,
        0.137502 0.673228 0.542574,
        0.148165 0.673228 0.532319,
        0.155088 0.673228 0.521276,
        0.159622 0.673228 0.507894,
        0.161321 0.673228 0.491102,
        0.160179 0.673228 0.477423,
        0.156624 0.673228 0.464921,
        0.150332 0.673228 0.453691,
        0.141461 0.673228 0.444351,
        0.131960 0.673228 0.438284,
        0.120513 0.673228 0.434344,
        0.105957 0.673228 0.432835,
        0.086049 0.673228 0.435227,
        0.102728 0.673228 0.432890,
        0.171404 0.673228 0.447238,
        0.171404 0.673228 0.434275,
        0.216056 0.673228 0.447238,
        0.216056 0.673228 0.552385,
        0.231899 0.673228 0.552385,
        0.231899 0.673228 0.434275,
      ]
    }
    coordIndex [
      60, 61, 54, -1,
      54, 61, 55, -1,
      62, 60, 53, -1,
      53, 60, 54, -1,
      63, 62, 52, -1,
      52, 62, 53, -1,
      64, 63, 7, -1,
      7, 63, 52, -1,
      65, 64, 6, -1,
      6, 64, 7, -1,
      66, 65, 5, -1,
      5, 65, 6, -1,
      67, 66, 4, -1,
      4, 66, 5, -1,
      68, 67, 3, -1,
      3, 67, 4, -1,
      69, 68, 14, -1,
      14, 68, 3, -1,
      70, 69, 15, -1,
      15, 69, 14, -1,
      71, 70, 30, -1,
      30, 70, 15, -1,
      61, 71, 55, -1,
      55, 71, 30, -1,
      71, 61, 60, -1,
      60, 62, 71, -1,
      71, 62, 63, -1,
      71, 63, 70, -1,
      68, 69, 67, -1,
      67, 69, 70, -1,
      67, 70, 66, -1,
      66, 70, 63, -1,
      66, 63, 65, -1,
      65, 63, 64, -1,
      72, 73, 12, -1,
      12, 73, 31, -1,
      72, 12, 2, -1,
      72, 2, 74, -1,
      74, 2, 46, -1,
      74, 46, 75, -1,
      75, 46, 42, -1,
      75, 42, 76, -1,
      76, 42, 41, -1,
      76, 41, 77, -1,
      77, 41, 43, -1,
      77, 43, 78, -1,
      78, 43, 44, -1,
      78, 44, 79, -1,
      79, 44, 45, -1,
      79, 45, 80, -1,
      80, 45, 40, -1,
      80, 40, 81, -1,
      81, 40, 39, -1,
      81, 39, 82, -1,
      82, 39, 38, -1,
      82, 38, 83, -1,
      83, 38, 51, -1,
      83, 51, 84, -1,
      84, 51, 50, -1,
      84, 50, 85, -1,
      85, 50, 37, -1,
      85, 37, 86, -1,
      86, 37, 36, -1,
      86, 36, 87, -1,
      87, 36, 35, -1,
      87, 35, 88, -1,
      88, 35, 1, -1,
      88, 1, 89, -1,
      89, 1, 0, -1,
      89, 0, 90, -1,
      90, 0, 11, -1,
      90, 11, 91, -1,
      91, 11, 13, -1,
      91, 13, 92, -1,
      93, 92, 29, -1,
      29, 92, 13, -1,
      93, 29, 28, -1,
      93, 28, 94, -1,
      94, 28, 27, -1,
      94, 27, 95, -1,
      95, 27, 26, -1,
      95, 26, 96, -1,
      96, 26, 20, -1,
      96, 20, 97, -1,
      97, 20, 19, -1,
      97, 19, 98, -1,
      98, 19, 17, -1,
      98, 17, 99, -1,
      99, 17, 16, -1,
      99, 16, 100, -1,
      100, 16, 49, -1,
      100, 49, 101, -1,
      101, 49, 48, -1,
      101, 48, 102, -1,
      102, 48, 47, -1,
      102, 47, 103, -1,
      103, 47, 24, -1,
      103, 24, 104, -1,
      104, 24, 9, -1,
      104, 9, 105, -1,
      105, 9, 8, -1,
      105, 8, 106, -1,
      106, 8, 34, -1,
      106, 34, 107, -1,
      107, 34, 33, -1,
      107, 33, 108, -1,
      108, 33, 109, -1,
      109, 33, 32, -1,
      109, 32, 56, -1,
      31, 73, 110, -1,
      109, 56, 57, -1,
      109, 57, 111, -1,
      111, 57, 58, -1,
      111, 58, 110, -1,
      110, 58, 59, -1,
      110, 59, 31, -1,
      77, 109, 76, -1,
      76, 109, 111, -1,
      76, 111, 75, -1,
      75, 111, 110, -1,
      75, 110, 74, -1,
      74, 110, 73, -1,
      74, 73, 72, -1,
      92, 93, 91, -1,
      91, 93, 94, -1,
      91, 94, 90, -1,
      90, 94, 95, -1,
      90, 95, 89, -1,
      89, 95, 96, -1,
      89, 96, 88, -1,
      88, 96, 97, -1,
      88, 97, 87, -1,
      87, 97, 98, -1,
      87, 98, 86, -1,
      86, 98, 99, -1,
      86, 99, 85, -1,
      85, 99, 100, -1,
      85, 100, 84, -1,
      84, 100, 101, -1,
      84, 101, 83, -1,
      83, 101, 102, -1,
      83, 102, 82, -1,
      82, 102, 103, -1,
      82, 103, 81, -1,
      81, 103, 104, -1,
      81, 104, 80, -1,
      80, 104, 105, -1,
      80, 105, 79, -1,
      79, 105, 106, -1,
      79, 106, 78, -1,
      78, 106, 107, -1,
      78, 107, 77, -1,
      77, 107, 108, -1,
      77, 108, 109, -1,
      112, 113, 23, -1,
      23, 113, 10, -1,
      114, 112, 25, -1,
      25, 112, 23, -1,
      115, 114, 18, -1,
      18, 114, 25, -1,
      116, 115, 22, -1,
      22, 115, 18, -1,
      117, 116, 21, -1,
      21, 116, 22, -1,
      113, 117, 10, -1,
      10, 117, 21, -1,
      115, 116, 114, -1,
      114, 116, 117, -1,
      114, 117, 112, -1,
      112, 117, 113, -1,
    ]
  }
}

Shape {
  appearance Appearance {
    material Material {
      diffuseColor 0.5020 0.5020 0.5020
      specularColor 0.2510 0.2510 0.2510
      ambientIntensity 0.2
      transparency 0.0000
      shininess 0.5
    }
  }
  geometry IndexedFaceSet {
    ccw TRUE
    solid FALSE
    coord DEF co Coordinate {
      point [
        0.787402 -0.433071 -1.368110,
        0.778607 -0.550427 -1.368110,
        0.752420 -0.665161 -1.368110,
        0.709424 -0.774711 -1.368110,
        0.650582 -0.876630 -1.368110,
        0.058843 -1.218271 -1.368110,
        -0.058843 -1.218271 -1.368110,
        -0.175213 -1.200731 -1.368110,
        -0.287670 -1.166043 -1.368110,
        -0.393701 -1.114981 -1.368110,
        -0.490937 -1.048686 -1.368110,
        -0.577206 -0.968640 -1.368110,
        0.577206 -0.968640 -1.368110,
        0.490937 -1.048686 -1.368110,
        0.393701 -1.114981 -1.368110,
        -0.650582 -0.876630 -1.368110,
        -0.709424 -0.774711 -1.368110,
        -0.752420 -0.665161 -1.368110,
        0.287670 -1.166043 -1.368110,
        0.175213 -1.200731 -1.368110,
        -0.787402 -0.433071 -1.368110,
        -0.778607 -0.550427 -1.368110,
        -0.782786 -0.433071 0.390251,
        -0.768993 -0.433071 0.474386,
        -0.746183 -0.433071 0.556537,
        -0.714626 -0.433071 0.635739,
        -0.127387 -0.433071 1.082147,
        -0.042629 -0.433071 1.091365,
        0.042629 -0.433071 1.091365,
        0.127387 -0.433071 1.082147,
        0.210652 -0.433071 1.063819,
        -0.787402 -0.433071 0.305118,
        -0.674691 -0.433071 0.711066,
        -0.626845 -0.433071 0.781633,
        -0.571650 -0.433071 0.846614,
        0.441880 -0.433071 0.956842,
        0.509753 -0.433071 0.905246,
        0.674691 -0.433071 0.711066,
        0.714626 -0.433071 0.635739,
        0.746183 -0.433071 0.556537,
        0.768993 -0.433071 0.474386,
        0.787402 -0.433071 0.305118,
        0.782786 -0.433071 0.390251,
        -0.509753 -0.433071 0.905246,
        -0.441880 -0.433071 0.956842,
        -0.368826 -0.433071 1.000797,
        -0.291447 -0.433071 1.036596,
        -0.210652 -0.433071 1.063819,
        0.291447 -0.433071 1.036596,
        0.368826 -0.433071 1.000797,
        0.571650 -0.433071 0.846614,
        0.626845 -0.433071 0.781633,
        0.782786 -0.517737 0.314017,
        0.782786 -0.518204 0.305118,
        0.777532 -0.550251 0.305118,
        0.751612 -0.664937 0.305118,
        0.768993 -0.602339 0.305118,
        0.768993 -0.601412 0.322811,
        0.649628 -0.875983 0.305118,
        0.674691 -0.839019 0.305118,
        0.674691 -0.836795 0.347551,
        0.576903 -0.968382 0.305118,
        0.626845 -0.909586 0.305118,
        0.626845 -0.906976 0.354928,
        0.393172 -1.114101 0.305118,
        0.441880 -1.084794 0.305118,
        0.441880 -1.081224 0.373242,
        0.174970 -1.199626 0.305118,
        0.210652 -1.191772 0.305118,
        0.210652 -1.187615 0.384424,
        -0.714626 -0.761881 0.339678,
        -0.746183 -0.683112 0.331398,
        -0.746183 -0.684489 0.305118,
        -0.768993 -0.546333 0.430909,
        -0.782786 -0.490036 0.368384,
        -0.782786 -0.496337 0.362083,
        -0.782786 -0.518204 0.305118,
        -0.782786 -0.517737 0.314017,
        -0.782786 -0.483111 0.373992,
        -0.768993 -0.532564 0.442059,
        -0.746183 -0.580851 0.508520,
        -0.782786 -0.475637 0.378846,
        -0.782786 -0.510844 0.339745,
        -0.768993 -0.587705 0.373966,
        -0.768993 -0.579661 0.389752,
        -0.768993 -0.601412 0.322811,
        -0.782786 -0.516344 0.322818,
        -0.768993 -0.517705 0.451709,
        -0.746183 -0.558780 0.522853,
        -0.714626 -0.598381 0.591444,
        -0.782786 -0.467698 0.382891,
        -0.746183 -0.650806 0.430828,
        -0.746183 -0.636473 0.452898,
        -0.777532 -0.550251 0.305118,
        -0.768993 -0.602339 0.305118,
        -0.751612 -0.664937 0.305118,
        -0.768993 -0.501919 0.459752,
        -0.746183 -0.535332 0.534800,
        -0.714626 -0.567547 0.607156,
        -0.674691 -0.598185 0.675970,
        -0.782786 -0.459378 0.386085,
        -0.714626 -0.700549 0.499452,
        -0.714626 -0.678770 0.526347,
        -0.768993 -0.485378 0.466102,
        -0.746183 -0.510763 0.544231,
        -0.714626 -0.535239 0.619557,
        -0.674691 -0.558516 0.691198,
        -0.626845 -0.580322 0.758311,
        -0.782786 -0.450771 0.388391,
        -0.674691 -0.734749 0.576750,
        -0.674691 -0.704703 0.606796,
        -0.768993 -0.468264 0.470687,
        -0.746183 -0.485344 0.551043,
        -0.714626 -0.501811 0.628515,
        -0.674691 -0.517472 0.702195,
        -0.626845 -0.532144 0.771220,
        -0.571650 -0.545654 0.834781,
        -0.782786 -0.441970 0.389785,
        -0.626845 -0.751922 0.659238,
        -0.626845 -0.713159 0.690627,
        -0.714626 -0.763692 0.305118,
        -0.708925 -0.774447 0.305118,
        -0.674691 -0.836795 0.347551,
        -0.674691 -0.839019 0.305118,
        -0.626845 -0.906976 0.354928,
        -0.649628 -0.875983 0.305118,
        -0.768993 -0.450764 0.473459,
        -0.746183 -0.459351 0.555159,
        -0.714626 -0.467630 0.633928,
        -0.674691 -0.475504 0.708842,
        -0.626845 -0.482880 0.779023,
        -0.571650 -0.489672 0.843647,
        -0.509753 -0.495801 0.901958,
        -0.571650 -0.751354 0.743197,
        -0.571650 -0.703819 0.774067,
        -0.626845 -0.909586 0.305118,
        -0.576903 -0.968382 0.305118,
        -0.571650 -0.971600 0.361720,
        -0.571650 -0.974567 0.305118,
        -0.509753 -1.029911 0.367848,
        -0.509753 -0.733135 0.824844,
        -0.509753 -0.677165 0.853362,
        -0.441880 -0.698151 0.900497,
        -0.441880 -0.634465 0.924944,
        -0.509753 -1.033198 0.305118,
        -0.490367 -1.047936 0.305118,
        -0.441880 -1.081224 0.373242,
        -0.368826 -0.505789 0.996986,
        -0.441880 -0.501194 0.953272,
        -0.441880 -0.568572 0.942600,
        -0.509753 -0.557844 0.892131,
        -0.509753 -0.618520 0.875874,
        -0.571650 -0.600402 0.820111,
        -0.571650 -0.653317 0.799799,
        -0.626845 -0.626887 0.740436,
        -0.626845 -0.671328 0.717792,
        -0.674691 -0.636045 0.656679,
        -0.674691 -0.671681 0.633537,
        -0.714626 -0.627405 0.572596,
        -0.714626 -0.654300 0.550818,
        -0.746183 -0.601303 0.491959,
        -0.746183 -0.619911 0.473350,
        -0.768993 -0.558861 0.418381,
        -0.768993 -0.570011 0.404611,
        -0.782786 -0.501945 0.355158,
        -0.782786 -0.506798 0.347685,
        -0.368826 -0.648047 0.966748,
        -0.368826 -0.577711 0.985594,
        -0.441880 -1.084794 0.305118,
        -0.393172 -1.114101 0.305118,
        -0.368826 -1.124939 0.377836,
        -0.368826 -1.128750 0.305118,
        -0.291447 -1.160541 0.381578,
        -0.291447 -0.585154 1.020611,
        -0.291447 -0.509531 1.032589,
        -0.210652 -0.512377 1.059663,
        -0.291447 -1.164548 0.305118,
        -0.287603 -1.165844 0.305118,
        -0.210652 -1.187615 0.384424,
        -0.210652 -1.191772 0.305118,
        -0.174970 -1.199626 0.305118,
        -0.127387 -1.205843 0.386340,
        -0.127387 -1.210100 0.305118,
        -0.058766 -1.217563 0.305118,
        -0.042629 -1.215011 0.387303,
        -0.042629 -1.219318 0.305118,
        0.042629 -1.215011 0.387303,
        -0.768993 -0.598640 0.340311,
        -0.746183 -0.678995 0.357391,
        -0.714626 -0.756467 0.373858,
        -0.674691 -0.830148 0.389519,
        -0.626845 -0.899173 0.404191,
        -0.571650 -0.962733 0.417701,
        -0.509753 -1.020084 0.429892,
        -0.441880 -1.070553 0.440619,
        -0.368826 -1.113547 0.449758,
        -0.291447 -1.148564 0.457201,
        -0.210652 -1.175192 0.462861,
        -0.127387 -1.193120 0.466672,
        -0.042629 -1.202136 0.468588,
        0.042629 -1.202136 0.468588,
        0.127387 -1.193120 0.466672,
        0.127387 -1.205843 0.386340,
        0.210652 -1.175192 0.462861,
        -0.782786 -0.514037 0.331426,
        0.127387 -1.210100 0.305118,
        0.058766 -1.217563 0.305118,
        0.042629 -1.219318 0.305118,
        -0.768993 -0.594054 0.357425,
        -0.746183 -0.672184 0.382811,
        -0.714626 -0.747511 0.407286,
        -0.674691 -0.819150 0.430563,
        -0.626845 -0.886264 0.452369,
        -0.571650 -0.948064 0.472450,
        -0.509753 -1.003826 0.490568,
        -0.441880 -1.052897 0.506512,
        -0.368826 -1.094701 0.520094,
        -0.291447 -1.128748 0.531157,
        -0.210652 -1.154638 0.539570,
        -0.127387 -1.172069 0.545233,
        -0.042629 -1.180836 0.548082,
        0.042629 -1.180836 0.548082,
        0.127387 -1.172069 0.545233,
        0.210652 -1.154638 0.539570,
        0.291447 -1.128748 0.531157,
        -0.746183 -0.662753 0.407379,
        -0.714626 -0.735109 0.439594,
        -0.674691 -0.803923 0.470232,
        -0.626845 -0.868389 0.498934,
        -0.571650 -0.927752 0.525364,
        -0.509753 -0.981315 0.549212,
        -0.441880 -1.028450 0.570198,
        -0.368826 -1.068605 0.588076,
        -0.291447 -1.101309 0.602637,
        -0.210652 -1.126178 0.613709,
        -0.127387 -1.142922 0.621164,
        -0.042629 -1.151343 0.624913,
        0.042629 -1.151343 0.624913,
        0.127387 -1.142922 0.621164,
        0.210652 -1.126178 0.613709,
        0.291447 -1.101309 0.602637,
        0.368826 -1.068605 0.588076,
        -0.714626 -0.719397 0.470429,
        -0.674691 -0.784632 0.508092,
        -0.626845 -0.845745 0.543376,
        -0.571650 -0.902020 0.575866,
        -0.509753 -0.952796 0.605182,
        -0.441880 -0.997480 0.630980,
        -0.368826 -1.035546 0.652957,
        -0.291447 -1.066549 0.670857,
        -0.210652 -1.090125 0.684469,
        -0.127387 -1.105998 0.693633,
        -0.042629 -1.113981 0.698241,
        0.042629 -1.113981 0.698241,
        0.127387 -1.105998 0.693633,
        0.210652 -1.090125 0.684469,
        0.291447 -1.066549 0.670857,
        0.368826 -1.035546 0.652957,
        0.441880 -0.997480 0.630980,
        0.291447 -1.164548 0.305118,
        0.368826 -1.128750 0.305118,
        0.368826 -1.124939 0.377836,
        -0.674691 -0.761490 0.543728,
        -0.626845 -0.818580 0.585207,
        -0.571650 -0.871150 0.623401,
        -0.509753 -0.918584 0.657864,
        -0.441880 -0.960326 0.688192,
        -0.368826 -0.995887 0.714028,
        -0.291447 -1.024849 0.735070,
        -0.210652 -1.046873 0.751071,
        -0.127387 -1.061700 0.761844,
        -0.042629 -1.069158 0.767262,
        0.042629 -1.069158 0.767262,
        0.127387 -1.061700 0.761844,
        0.210652 -1.046873 0.751071,
        0.291447 -1.024849 0.735070,
        0.368826 -0.995887 0.714028,
        0.441880 -0.960326 0.688192,
        0.509753 -0.918584 0.657864,
        -0.626845 -0.787191 0.623969,
        -0.571650 -0.835481 0.667450,
        -0.509753 -0.879053 0.706682,
        -0.441880 -0.917396 0.741206,
        -0.368826 -0.950061 0.770618,
        -0.291447 -0.976665 0.794572,
        -0.210652 -0.996895 0.812788,
        -0.127387 -1.010516 0.825052,
        -0.042629 -1.017366 0.831220,
        0.042629 -1.017366 0.831220,
        0.127387 -1.010516 0.825052,
        0.210652 -0.996895 0.812788,
        0.291447 -0.976665 0.794572,
        0.368826 -0.950061 0.770618,
        0.441880 -0.917396 0.741206,
        0.509753 -0.879053 0.706682,
        0.571650 -0.835481 0.667450,
        -0.571650 -0.795402 0.707528,
        -0.509753 -0.834635 0.751100,
        -0.441880 -0.869159 0.789443,
        -0.368826 -0.898571 0.822108,
        -0.291447 -0.922525 0.848712,
        -0.210652 -0.940741 0.868943,
        -0.127387 -0.953005 0.882563,
        -0.042629 -0.959173 0.889413,
        0.042629 -0.959173 0.889413,
        0.127387 -0.953005 0.882563,
        0.210652 -0.940741 0.868943,
        0.291447 -0.922525 0.848712,
        0.368826 -0.898571 0.822108,
        0.441880 -0.869159 0.789443,
        0.509753 -0.834635 0.751100,
        0.571650 -0.795402 0.707528,
        0.626845 -0.751922 0.659238,
        0.509753 -1.033198 0.305118,
        0.571650 -0.974567 0.305118,
        0.571650 -0.971600 0.361720,
        -0.509753 -0.785817 0.790631,
        -0.441880 -0.816144 0.832374,
        -0.368826 -0.841981 0.867934,
        -0.291447 -0.863023 0.896896,
        -0.210652 -0.879024 0.918920,
        -0.127387 -0.889797 0.933748,
        -0.042629 -0.895215 0.941205,
        0.042629 -0.895215 0.941205,
        0.127387 -0.889797 0.933748,
        0.210652 -0.879024 0.918920,
        0.291447 -0.863023 0.896896,
        0.368826 -0.841981 0.867934,
        0.441880 -0.816144 0.832374,
        0.509753 -0.785817 0.790631,
        0.571650 -0.751354 0.743197,
        0.626845 -0.713159 0.690627,
        0.674691 -0.671681 0.633537,
        -0.441880 -0.758933 0.869527,
        -0.368826 -0.780910 0.907594,
        -0.291447 -0.798810 0.938596,
        -0.210652 -0.812421 0.962172,
        -0.127387 -0.821585 0.978045,
        -0.042629 -0.826194 0.986028,
        0.042629 -0.826194 0.986028,
        0.127387 -0.821585 0.978045,
        0.210652 -0.812421 0.962172,
        0.291447 -0.798810 0.938596,
        0.368826 -0.780910 0.907594,
        0.441880 -0.758933 0.869527,
        0.509753 -0.733135 0.824844,
        0.571650 -0.703819 0.774067,
        0.626845 -0.671328 0.717792,
        0.674691 -0.636045 0.656679,
        0.714626 -0.598381 0.591444,
        -0.368826 -0.716029 0.940652,
        -0.291447 -0.730590 0.973356,
        -0.210652 -0.741662 0.998226,
        -0.127387 -0.749117 1.014969,
        -0.042629 -0.752866 1.023390,
        0.042629 -0.752866 1.023390,
        0.127387 -0.749117 1.014969,
        0.210652 -0.741662 0.998226,
        0.291447 -0.730590 0.973356,
        0.368826 -0.716029 0.940652,
        0.441880 -0.698151 0.900497,
        0.509753 -0.677165 0.853362,
        0.571650 -0.653317 0.799799,
        0.626845 -0.626887 0.740436,
        0.674691 -0.598185 0.675970,
        0.714626 -0.567547 0.607156,
        0.746183 -0.535332 0.534800,
        -0.291447 -0.659110 1.000795,
        -0.210652 -0.667522 1.026685,
        -0.127387 -0.673186 1.044117,
        -0.042629 -0.676035 1.052883,
        0.042629 -0.676035 1.052883,
        0.127387 -0.673186 1.044117,
        0.210652 -0.667522 1.026685,
        0.291447 -0.659110 1.000795,
        0.368826 -0.648047 0.966748,
        0.441880 -0.634465 0.924944,
        0.509753 -0.618520 0.875874,
        0.571650 -0.600402 0.820111,
        0.626845 -0.580322 0.758311,
        0.674691 -0.558516 0.691198,
        0.714626 -0.535239 0.619557,
        0.746183 -0.510763 0.544231,
        0.768993 -0.485378 0.466102,
        0.714626 -0.763692 0.305118,
        0.746183 -0.684489 0.305118,
        0.746183 -0.683112 0.331398,
        -0.210652 -0.590814 1.047239,
        -0.127387 -0.594624 1.065167,
        -0.042629 -0.596541 1.074183,
        0.042629 -0.596541 1.074183,
        0.127387 -0.594624 1.065167,
        0.210652 -0.590814 1.047239,
        0.291447 -0.585154 1.020611,
        0.368826 -0.577711 0.985594,
        0.441880 -0.568572 0.942600,
        0.509753 -0.557844 0.892131,
        0.571650 -0.545654 0.834781,
        0.626845 -0.532144 0.771220,
        0.674691 -0.517472 0.702195,
        0.714626 -0.501811 0.628515,
        0.746183 -0.485344 0.551043,
        0.768993 -0.468264 0.470687,
        0.782786 -0.450771 0.388391,
        -0.127387 -0.514293 1.077890,
        -0.042629 -0.515256 1.087058,
        0.042629 -0.515256 1.087058,
        0.127387 -0.514293 1.077890,
        0.210652 -0.512377 1.059663,
        0.291447 -0.509531 1.032589,
        0.368826 -0.505789 0.996986,
        0.441880 -0.501194 0.953272,
        0.509753 -0.495801 0.901958,
        0.571650 -0.489672 0.843647,
        0.626845 -0.482880 0.779023,
        0.674691 -0.475504 0.708842,
        0.714626 -0.467630 0.633928,
        0.746183 -0.459351 0.555159,
        0.768993 -0.450764 0.473459,
        0.782786 -0.441970 0.389785,
        0.291447 -1.148564 0.457201,
        0.368826 -1.094701 0.520094,
        0.441880 -1.028450 0.570198,
        0.509753 -0.952796 0.605182,
        0.571650 -0.871150 0.623401,
        0.626845 -0.787191 0.623969,
        0.674691 -0.704703 0.606796,
        0.714626 -0.627405 0.572596,
        0.746183 -0.558780 0.522853,
        0.768993 -0.501919 0.459752,
        0.782786 -0.459378 0.386085,
        0.287603 -1.165844 0.305118,
        0.291447 -1.160541 0.381578,
        0.368826 -1.113547 0.449758,
        0.441880 -1.052897 0.506512,
        0.509753 -0.981315 0.549212,
        0.571650 -0.902020 0.575866,
        0.626845 -0.818580 0.585207,
        0.674691 -0.734749 0.576750,
        0.714626 -0.654300 0.550818,
        0.746183 -0.580851 0.508520,
        0.768993 -0.517705 0.451709,
        0.782786 -0.467698 0.382891,
        0.441880 -1.070553 0.440619,
        0.509753 -1.003826 0.490568,
        0.571650 -0.927752 0.525364,
        0.626845 -0.845745 0.543376,
        0.674691 -0.761490 0.543728,
        0.714626 -0.678770 0.526347,
        0.746183 -0.601303 0.491959,
        0.768993 -0.532564 0.442059,
        0.782786 -0.475637 0.378846,
        0.509753 -1.020084 0.429892,
        0.571650 -0.948064 0.472450,
        0.626845 -0.868389 0.498934,
        0.674691 -0.784632 0.508092,
        0.714626 -0.700549 0.499452,
        0.746183 -0.619911 0.473350,
        0.768993 -0.546333 0.430909,
        0.782786 -0.483111 0.373992,
        0.490367 -1.047936 0.305118,
        0.509753 -1.029911 0.367848,
        0.571650 -0.962733 0.417701,
        0.626845 -0.886264 0.452369,
        0.674691 -0.803923 0.470232,
        0.714626 -0.719397 0.470429,
        0.746183 -0.636473 0.452898,
        0.768993 -0.558861 0.418381,
        0.782786 -0.490036 0.368384,
        0.626845 -0.899173 0.404191,
        0.674691 -0.819150 0.430563,
        0.714626 -0.735109 0.439594,
        0.746183 -0.650806 0.430828,
        0.768993 -0.570011 0.404611,
        0.782786 -0.496337 0.362083,
        0.674691 -0.830148 0.389519,
        0.714626 -0.747511 0.407286,
        0.746183 -0.662753 0.407379,
        0.768993 -0.579661 0.389752,
        0.782786 -0.501945 0.355158,
        0.714626 -0.756467 0.373858,
        0.746183 -0.672184 0.382811,
        0.768993 -0.587705 0.373966,
        0.782786 -0.506798 0.347685,
        0.708925 -0.774447 0.305118,
        0.714626 -0.761881 0.339678,
        0.746183 -0.678995 0.357391,
        0.768993 -0.594054 0.357425,
        0.782786 -0.510844 0.339745,
        0.768993 -0.598640 0.340311,
        0.782786 -0.514037 0.331426,
        0.782786 -0.516344 0.322818,
      ]
    }
    coordIndex [
      52, 53, 41, -1,
      53, 52, 54, -1,
      55, 56, 57, -1,
      58, 59, 60, -1,
      61, 62, 63, -1,
      64, 65, 66, -1,
      67, 68, 69, -1,
      70, 71, 72, -1,
      73, 74, 75, -1,
      31, 76, 77, -1,
      75, 74, 31, -1,
      78, 31, 74, -1,
      78, 74, 79, -1,
      79, 74, 73, -1,
      79, 73, 80, -1,
      81, 31, 78, -1,
      82, 83, 84, -1,
      77, 76, 85, -1,
      86, 31, 77, -1,
      81, 78, 87, -1,
      87, 78, 79, -1,
      87, 79, 88, -1,
      88, 79, 80, -1,
      88, 80, 89, -1,
      90, 31, 81, -1,
      84, 91, 92, -1,
      76, 93, 85, -1,
      85, 93, 94, -1,
      85, 94, 71, -1,
      71, 94, 95, -1,
      71, 95, 72, -1,
      90, 81, 96, -1,
      96, 81, 87, -1,
      96, 87, 97, -1,
      97, 87, 88, -1,
      97, 88, 98, -1,
      98, 88, 89, -1,
      98, 89, 99, -1,
      100, 31, 90, -1,
      92, 101, 102, -1,
      100, 90, 103, -1,
      103, 90, 96, -1,
      103, 96, 104, -1,
      104, 96, 97, -1,
      104, 97, 105, -1,
      105, 97, 98, -1,
      105, 98, 106, -1,
      106, 98, 99, -1,
      106, 99, 107, -1,
      108, 31, 100, -1,
      102, 109, 110, -1,
      108, 100, 111, -1,
      111, 100, 103, -1,
      111, 103, 112, -1,
      112, 103, 104, -1,
      112, 104, 113, -1,
      113, 104, 105, -1,
      113, 105, 114, -1,
      114, 105, 106, -1,
      114, 106, 115, -1,
      115, 106, 107, -1,
      115, 107, 116, -1,
      117, 31, 108, -1,
      110, 118, 119, -1,
      72, 120, 70, -1,
      70, 120, 121, -1,
      70, 121, 122, -1,
      122, 121, 123, -1,
      122, 123, 124, -1,
      124, 123, 125, -1,
      117, 108, 126, -1,
      126, 108, 111, -1,
      126, 111, 127, -1,
      127, 111, 112, -1,
      127, 112, 128, -1,
      128, 112, 113, -1,
      128, 113, 129, -1,
      129, 113, 114, -1,
      129, 114, 130, -1,
      130, 114, 115, -1,
      130, 115, 131, -1,
      131, 115, 116, -1,
      131, 116, 132, -1,
      22, 31, 117, -1,
      119, 133, 134, -1,
      125, 135, 124, -1,
      124, 135, 136, -1,
      124, 136, 137, -1,
      137, 136, 138, -1,
      137, 138, 139, -1,
      22, 117, 23, -1,
      23, 117, 126, -1,
      23, 126, 24, -1,
      24, 126, 127, -1,
      24, 127, 25, -1,
      25, 127, 128, -1,
      25, 128, 32, -1,
      32, 128, 129, -1,
      32, 129, 33, -1,
      33, 129, 130, -1,
      33, 130, 34, -1,
      34, 130, 131, -1,
      34, 131, 43, -1,
      43, 131, 132, -1,
      43, 132, 44, -1,
      134, 140, 141, -1,
      141, 142, 143, -1,
      138, 144, 139, -1,
      139, 144, 145, -1,
      139, 145, 146, -1,
      46, 45, 147, -1,
      147, 45, 148, -1,
      147, 148, 149, -1,
      149, 148, 150, -1,
      149, 150, 151, -1,
      151, 150, 152, -1,
      151, 152, 153, -1,
      153, 152, 154, -1,
      153, 154, 155, -1,
      155, 154, 156, -1,
      155, 156, 157, -1,
      157, 156, 158, -1,
      157, 158, 159, -1,
      159, 158, 160, -1,
      159, 160, 161, -1,
      161, 160, 162, -1,
      161, 162, 163, -1,
      163, 162, 164, -1,
      163, 164, 165, -1,
      165, 164, 31, -1,
      143, 166, 167, -1,
      145, 168, 146, -1,
      146, 168, 169, -1,
      146, 169, 170, -1,
      170, 169, 171, -1,
      170, 171, 172, -1,
      167, 173, 174, -1,
      174, 175, 47, -1,
      171, 176, 172, -1,
      172, 176, 177, -1,
      172, 177, 178, -1,
      177, 179, 178, -1,
      178, 179, 180, -1,
      178, 180, 181, -1,
      180, 182, 181, -1,
      181, 182, 183, -1,
      181, 183, 184, -1,
      184, 183, 185, -1,
      184, 185, 186, -1,
      86, 77, 187, -1,
      187, 77, 85, -1,
      187, 85, 188, -1,
      188, 85, 71, -1,
      188, 71, 189, -1,
      189, 71, 70, -1,
      189, 70, 190, -1,
      190, 70, 122, -1,
      190, 122, 191, -1,
      191, 122, 124, -1,
      191, 124, 192, -1,
      192, 124, 137, -1,
      192, 137, 193, -1,
      193, 137, 139, -1,
      193, 139, 194, -1,
      194, 139, 146, -1,
      194, 146, 195, -1,
      195, 146, 170, -1,
      195, 170, 196, -1,
      196, 170, 172, -1,
      196, 172, 197, -1,
      197, 172, 178, -1,
      197, 178, 198, -1,
      198, 178, 181, -1,
      198, 181, 199, -1,
      199, 181, 184, -1,
      199, 184, 200, -1,
      200, 184, 186, -1,
      200, 186, 201, -1,
      201, 186, 202, -1,
      201, 202, 203, -1,
      204, 31, 86, -1,
      205, 202, 206, -1,
      206, 202, 186, -1,
      206, 186, 207, -1,
      207, 186, 185, -1,
      204, 86, 208, -1,
      208, 86, 187, -1,
      208, 187, 209, -1,
      209, 187, 188, -1,
      209, 188, 210, -1,
      210, 188, 189, -1,
      210, 189, 211, -1,
      211, 189, 190, -1,
      211, 190, 212, -1,
      212, 190, 191, -1,
      212, 191, 213, -1,
      213, 191, 192, -1,
      213, 192, 214, -1,
      214, 192, 193, -1,
      214, 193, 215, -1,
      215, 193, 194, -1,
      215, 194, 216, -1,
      216, 194, 195, -1,
      216, 195, 217, -1,
      217, 195, 196, -1,
      217, 196, 218, -1,
      218, 196, 197, -1,
      218, 197, 219, -1,
      219, 197, 198, -1,
      219, 198, 220, -1,
      220, 198, 199, -1,
      220, 199, 221, -1,
      221, 199, 200, -1,
      221, 200, 222, -1,
      222, 200, 201, -1,
      222, 201, 223, -1,
      223, 201, 203, -1,
      223, 203, 224, -1,
      82, 31, 204, -1,
      82, 204, 83, -1,
      83, 204, 208, -1,
      83, 208, 225, -1,
      225, 208, 209, -1,
      225, 209, 226, -1,
      226, 209, 210, -1,
      226, 210, 227, -1,
      227, 210, 211, -1,
      227, 211, 228, -1,
      228, 211, 212, -1,
      228, 212, 229, -1,
      229, 212, 213, -1,
      229, 213, 230, -1,
      230, 213, 214, -1,
      230, 214, 231, -1,
      231, 214, 215, -1,
      231, 215, 232, -1,
      232, 215, 216, -1,
      232, 216, 233, -1,
      233, 216, 217, -1,
      233, 217, 234, -1,
      234, 217, 218, -1,
      234, 218, 235, -1,
      235, 218, 219, -1,
      235, 219, 236, -1,
      236, 219, 220, -1,
      236, 220, 237, -1,
      237, 220, 221, -1,
      237, 221, 238, -1,
      238, 221, 222, -1,
      238, 222, 239, -1,
      239, 222, 223, -1,
      239, 223, 240, -1,
      240, 223, 224, -1,
      240, 224, 241, -1,
      84, 83, 91, -1,
      91, 83, 225, -1,
      91, 225, 242, -1,
      242, 225, 226, -1,
      242, 226, 243, -1,
      243, 226, 227, -1,
      243, 227, 244, -1,
      244, 227, 228, -1,
      244, 228, 245, -1,
      245, 228, 229, -1,
      245, 229, 246, -1,
      246, 229, 230, -1,
      246, 230, 247, -1,
      247, 230, 231, -1,
      247, 231, 248, -1,
      248, 231, 232, -1,
      248, 232, 249, -1,
      249, 232, 233, -1,
      249, 233, 250, -1,
      250, 233, 234, -1,
      250, 234, 251, -1,
      251, 234, 235, -1,
      251, 235, 252, -1,
      252, 235, 236, -1,
      252, 236, 253, -1,
      253, 236, 237, -1,
      253, 237, 254, -1,
      254, 237, 238, -1,
      254, 238, 255, -1,
      255, 238, 239, -1,
      255, 239, 256, -1,
      256, 239, 240, -1,
      256, 240, 257, -1,
      257, 240, 241, -1,
      257, 241, 258, -1,
      259, 260, 261, -1,
      92, 91, 101, -1,
      101, 91, 242, -1,
      101, 242, 262, -1,
      262, 242, 243, -1,
      262, 243, 263, -1,
      263, 243, 244, -1,
      263, 244, 264, -1,
      264, 244, 245, -1,
      264, 245, 265, -1,
      265, 245, 246, -1,
      265, 246, 266, -1,
      266, 246, 247, -1,
      266, 247, 267, -1,
      267, 247, 248, -1,
      267, 248, 268, -1,
      268, 248, 249, -1,
      268, 249, 269, -1,
      269, 249, 250, -1,
      269, 250, 270, -1,
      270, 250, 251, -1,
      270, 251, 271, -1,
      271, 251, 252, -1,
      271, 252, 272, -1,
      272, 252, 253, -1,
      272, 253, 273, -1,
      273, 253, 254, -1,
      273, 254, 274, -1,
      274, 254, 255, -1,
      274, 255, 275, -1,
      275, 255, 256, -1,
      275, 256, 276, -1,
      276, 256, 257, -1,
      276, 257, 277, -1,
      277, 257, 258, -1,
      277, 258, 278, -1,
      102, 101, 109, -1,
      109, 101, 262, -1,
      109, 262, 279, -1,
      279, 262, 263, -1,
      279, 263, 280, -1,
      280, 263, 264, -1,
      280, 264, 281, -1,
      281, 264, 265, -1,
      281, 265, 282, -1,
      282, 265, 266, -1,
      282, 266, 283, -1,
      283, 266, 267, -1,
      283, 267, 284, -1,
      284, 267, 268, -1,
      284, 268, 285, -1,
      285, 268, 269, -1,
      285, 269, 286, -1,
      286, 269, 270, -1,
      286, 270, 287, -1,
      287, 270, 271, -1,
      287, 271, 288, -1,
      288, 271, 272, -1,
      288, 272, 289, -1,
      289, 272, 273, -1,
      289, 273, 290, -1,
      290, 273, 274, -1,
      290, 274, 291, -1,
      291, 274, 275, -1,
      291, 275, 292, -1,
      292, 275, 276, -1,
      292, 276, 293, -1,
      293, 276, 277, -1,
      293, 277, 294, -1,
      294, 277, 278, -1,
      294, 278, 295, -1,
      110, 109, 118, -1,
      118, 109, 279, -1,
      118, 279, 296, -1,
      296, 279, 280, -1,
      296, 280, 297, -1,
      297, 280, 281, -1,
      297, 281, 298, -1,
      298, 281, 282, -1,
      298, 282, 299, -1,
      299, 282, 283, -1,
      299, 283, 300, -1,
      300, 283, 284, -1,
      300, 284, 301, -1,
      301, 284, 285, -1,
      301, 285, 302, -1,
      302, 285, 286, -1,
      302, 286, 303, -1,
      303, 286, 287, -1,
      303, 287, 304, -1,
      304, 287, 288, -1,
      304, 288, 305, -1,
      305, 288, 289, -1,
      305, 289, 306, -1,
      306, 289, 290, -1,
      306, 290, 307, -1,
      307, 290, 291, -1,
      307, 291, 308, -1,
      308, 291, 292, -1,
      308, 292, 309, -1,
      309, 292, 293, -1,
      309, 293, 310, -1,
      310, 293, 294, -1,
      310, 294, 311, -1,
      311, 294, 295, -1,
      311, 295, 312, -1,
      313, 314, 315, -1,
      119, 118, 133, -1,
      133, 118, 296, -1,
      133, 296, 316, -1,
      316, 296, 297, -1,
      316, 297, 317, -1,
      317, 297, 298, -1,
      317, 298, 318, -1,
      318, 298, 299, -1,
      318, 299, 319, -1,
      319, 299, 300, -1,
      319, 300, 320, -1,
      320, 300, 301, -1,
      320, 301, 321, -1,
      321, 301, 302, -1,
      321, 302, 322, -1,
      322, 302, 303, -1,
      322, 303, 323, -1,
      323, 303, 304, -1,
      323, 304, 324, -1,
      324, 304, 305, -1,
      324, 305, 325, -1,
      325, 305, 306, -1,
      325, 306, 326, -1,
      326, 306, 307, -1,
      326, 307, 327, -1,
      327, 307, 308, -1,
      327, 308, 328, -1,
      328, 308, 309, -1,
      328, 309, 329, -1,
      329, 309, 310, -1,
      329, 310, 330, -1,
      330, 310, 311, -1,
      330, 311, 331, -1,
      331, 311, 312, -1,
      331, 312, 332, -1,
      134, 133, 140, -1,
      140, 133, 316, -1,
      140, 316, 333, -1,
      333, 316, 317, -1,
      333, 317, 334, -1,
      334, 317, 318, -1,
      334, 318, 335, -1,
      335, 318, 319, -1,
      335, 319, 336, -1,
      336, 319, 320, -1,
      336, 320, 337, -1,
      337, 320, 321, -1,
      337, 321, 338, -1,
      338, 321, 322, -1,
      338, 322, 339, -1,
      339, 322, 323, -1,
      339, 323, 340, -1,
      340, 323, 324, -1,
      340, 324, 341, -1,
      341, 324, 325, -1,
      341, 325, 342, -1,
      342, 325, 326, -1,
      342, 326, 343, -1,
      343, 326, 327, -1,
      343, 327, 344, -1,
      344, 327, 328, -1,
      344, 328, 345, -1,
      345, 328, 329, -1,
      345, 329, 346, -1,
      346, 329, 330, -1,
      346, 330, 347, -1,
      347, 330, 331, -1,
      347, 331, 348, -1,
      348, 331, 332, -1,
      348, 332, 349, -1,
      141, 140, 142, -1,
      142, 140, 333, -1,
      142, 333, 350, -1,
      350, 333, 334, -1,
      350, 334, 351, -1,
      351, 334, 335, -1,
      351, 335, 352, -1,
      352, 335, 336, -1,
      352, 336, 353, -1,
      353, 336, 337, -1,
      353, 337, 354, -1,
      354, 337, 338, -1,
      354, 338, 355, -1,
      355, 338, 339, -1,
      355, 339, 356, -1,
      356, 339, 340, -1,
      356, 340, 357, -1,
      357, 340, 341, -1,
      357, 341, 358, -1,
      358, 341, 342, -1,
      358, 342, 359, -1,
      359, 342, 343, -1,
      359, 343, 360, -1,
      360, 343, 344, -1,
      360, 344, 361, -1,
      361, 344, 345, -1,
      361, 345, 362, -1,
      362, 345, 346, -1,
      362, 346, 363, -1,
      363, 346, 347, -1,
      363, 347, 364, -1,
      364, 347, 348, -1,
      364, 348, 365, -1,
      365, 348, 349, -1,
      365, 349, 366, -1,
      143, 142, 166, -1,
      166, 142, 350, -1,
      166, 350, 367, -1,
      367, 350, 351, -1,
      367, 351, 368, -1,
      368, 351, 352, -1,
      368, 352, 369, -1,
      369, 352, 353, -1,
      369, 353, 370, -1,
      370, 353, 354, -1,
      370, 354, 371, -1,
      371, 354, 355, -1,
      371, 355, 372, -1,
      372, 355, 356, -1,
      372, 356, 373, -1,
      373, 356, 357, -1,
      373, 357, 374, -1,
      374, 357, 358, -1,
      374, 358, 375, -1,
      375, 358, 359, -1,
      375, 359, 376, -1,
      376, 359, 360, -1,
      376, 360, 377, -1,
      377, 360, 361, -1,
      377, 361, 378, -1,
      378, 361, 362, -1,
      378, 362, 379, -1,
      379, 362, 363, -1,
      379, 363, 380, -1,
      380, 363, 364, -1,
      380, 364, 381, -1,
      381, 364, 365, -1,
      381, 365, 382, -1,
      382, 365, 366, -1,
      382, 366, 383, -1,
      384, 385, 386, -1,
      167, 166, 173, -1,
      173, 166, 367, -1,
      173, 367, 387, -1,
      387, 367, 368, -1,
      387, 368, 388, -1,
      388, 368, 369, -1,
      388, 369, 389, -1,
      389, 369, 370, -1,
      389, 370, 390, -1,
      390, 370, 371, -1,
      390, 371, 391, -1,
      391, 371, 372, -1,
      391, 372, 392, -1,
      392, 372, 373, -1,
      392, 373, 393, -1,
      393, 373, 374, -1,
      393, 374, 394, -1,
      394, 374, 375, -1,
      394, 375, 395, -1,
      395, 375, 376, -1,
      395, 376, 396, -1,
      396, 376, 377, -1,
      396, 377, 397, -1,
      397, 377, 378, -1,
      397, 378, 398, -1,
      398, 378, 379, -1,
      398, 379, 399, -1,
      399, 379, 380, -1,
      399, 380, 400, -1,
      400, 380, 381, -1,
      400, 381, 401, -1,
      401, 381, 382, -1,
      401, 382, 402, -1,
      402, 382, 383, -1,
      402, 383, 403, -1,
      47, 175, 26, -1,
      26, 175, 404, -1,
      26, 404, 27, -1,
      27, 404, 405, -1,
      27, 405, 28, -1,
      28, 405, 406, -1,
      28, 406, 29, -1,
      29, 406, 407, -1,
      29, 407, 30, -1,
      30, 407, 408, -1,
      30, 408, 48, -1,
      48, 408, 409, -1,
      48, 409, 49, -1,
      49, 409, 410, -1,
      49, 410, 35, -1,
      35, 410, 411, -1,
      35, 411, 36, -1,
      36, 411, 412, -1,
      36, 412, 50, -1,
      50, 412, 413, -1,
      50, 413, 51, -1,
      51, 413, 414, -1,
      51, 414, 37, -1,
      37, 414, 415, -1,
      37, 415, 38, -1,
      38, 415, 416, -1,
      38, 416, 39, -1,
      39, 416, 417, -1,
      39, 417, 40, -1,
      40, 417, 418, -1,
      40, 418, 42, -1,
      42, 418, 419, -1,
      42, 419, 41, -1,
      174, 173, 175, -1,
      175, 173, 387, -1,
      175, 387, 404, -1,
      404, 387, 388, -1,
      404, 388, 405, -1,
      405, 388, 389, -1,
      405, 389, 406, -1,
      406, 389, 390, -1,
      406, 390, 407, -1,
      407, 390, 391, -1,
      407, 391, 408, -1,
      408, 391, 392, -1,
      408, 392, 409, -1,
      409, 392, 393, -1,
      409, 393, 410, -1,
      410, 393, 394, -1,
      410, 394, 411, -1,
      411, 394, 395, -1,
      411, 395, 412, -1,
      412, 395, 396, -1,
      412, 396, 413, -1,
      413, 396, 397, -1,
      413, 397, 414, -1,
      414, 397, 398, -1,
      414, 398, 415, -1,
      415, 398, 399, -1,
      415, 399, 416, -1,
      416, 399, 400, -1,
      416, 400, 417, -1,
      417, 400, 401, -1,
      417, 401, 418, -1,
      418, 401, 402, -1,
      418, 402, 419, -1,
      419, 402, 403, -1,
      419, 403, 41, -1,
      205, 67, 202, -1,
      202, 67, 69, -1,
      202, 69, 203, -1,
      203, 69, 420, -1,
      203, 420, 224, -1,
      224, 420, 421, -1,
      224, 421, 241, -1,
      241, 421, 422, -1,
      241, 422, 258, -1,
      258, 422, 423, -1,
      258, 423, 278, -1,
      278, 423, 424, -1,
      278, 424, 295, -1,
      295, 424, 425, -1,
      295, 425, 312, -1,
      312, 425, 426, -1,
      312, 426, 332, -1,
      332, 426, 427, -1,
      332, 427, 349, -1,
      349, 427, 428, -1,
      349, 428, 366, -1,
      366, 428, 429, -1,
      366, 429, 383, -1,
      383, 429, 430, -1,
      383, 430, 403, -1,
      403, 430, 41, -1,
      68, 431, 69, -1,
      69, 431, 432, -1,
      69, 432, 420, -1,
      420, 432, 433, -1,
      420, 433, 421, -1,
      421, 433, 434, -1,
      421, 434, 422, -1,
      422, 434, 435, -1,
      422, 435, 423, -1,
      423, 435, 436, -1,
      423, 436, 424, -1,
      424, 436, 437, -1,
      424, 437, 425, -1,
      425, 437, 438, -1,
      425, 438, 426, -1,
      426, 438, 439, -1,
      426, 439, 427, -1,
      427, 439, 440, -1,
      427, 440, 428, -1,
      428, 440, 441, -1,
      428, 441, 429, -1,
      429, 441, 442, -1,
      429, 442, 430, -1,
      430, 442, 41, -1,
      431, 259, 432, -1,
      432, 259, 261, -1,
      432, 261, 433, -1,
      433, 261, 443, -1,
      433, 443, 434, -1,
      434, 443, 444, -1,
      434, 444, 435, -1,
      435, 444, 445, -1,
      435, 445, 436, -1,
      436, 445, 446, -1,
      436, 446, 437, -1,
      437, 446, 447, -1,
      437, 447, 438, -1,
      438, 447, 448, -1,
      438, 448, 439, -1,
      439, 448, 449, -1,
      439, 449, 440, -1,
      440, 449, 450, -1,
      440, 450, 441, -1,
      441, 450, 451, -1,
      441, 451, 442, -1,
      442, 451, 41, -1,
      260, 64, 261, -1,
      261, 64, 66, -1,
      261, 66, 443, -1,
      443, 66, 452, -1,
      443, 452, 444, -1,
      444, 452, 453, -1,
      444, 453, 445, -1,
      445, 453, 454, -1,
      445, 454, 446, -1,
      446, 454, 455, -1,
      446, 455, 447, -1,
      447, 455, 456, -1,
      447, 456, 448, -1,
      448, 456, 457, -1,
      448, 457, 449, -1,
      449, 457, 458, -1,
      449, 458, 450, -1,
      450, 458, 459, -1,
      450, 459, 451, -1,
      451, 459, 41, -1,
      65, 460, 66, -1,
      66, 460, 461, -1,
      66, 461, 452, -1,
      452, 461, 462, -1,
      452, 462, 453, -1,
      453, 462, 463, -1,
      453, 463, 454, -1,
      454, 463, 464, -1,
      454, 464, 455, -1,
      455, 464, 465, -1,
      455, 465, 456, -1,
      456, 465, 466, -1,
      456, 466, 457, -1,
      457, 466, 467, -1,
      457, 467, 458, -1,
      458, 467, 468, -1,
      458, 468, 459, -1,
      459, 468, 41, -1,
      460, 313, 461, -1,
      461, 313, 315, -1,
      461, 315, 462, -1,
      462, 315, 469, -1,
      462, 469, 463, -1,
      463, 469, 470, -1,
      463, 470, 464, -1,
      464, 470, 471, -1,
      464, 471, 465, -1,
      465, 471, 472, -1,
      465, 472, 466, -1,
      466, 472, 473, -1,
      466, 473, 467, -1,
      467, 473, 474, -1,
      467, 474, 468, -1,
      468, 474, 41, -1,
      314, 61, 315, -1,
      315, 61, 63, -1,
      315, 63, 469, -1,
      469, 63, 475, -1,
      469, 475, 470, -1,
      470, 475, 476, -1,
      470, 476, 471, -1,
      471, 476, 477, -1,
      471, 477, 472, -1,
      472, 477, 478, -1,
      472, 478, 473, -1,
      473, 478, 479, -1,
      473, 479, 474, -1,
      474, 479, 41, -1,
      62, 58, 63, -1,
      63, 58, 60, -1,
      63, 60, 475, -1,
      475, 60, 480, -1,
      475, 480, 476, -1,
      476, 480, 481, -1,
      476, 481, 477, -1,
      477, 481, 482, -1,
      477, 482, 478, -1,
      478, 482, 483, -1,
      478, 483, 479, -1,
      479, 483, 41, -1,
      59, 484, 60, -1,
      60, 484, 485, -1,
      60, 485, 480, -1,
      480, 485, 486, -1,
      480, 486, 481, -1,
      481, 486, 487, -1,
      481, 487, 482, -1,
      482, 487, 488, -1,
      482, 488, 483, -1,
      483, 488, 41, -1,
      484, 384, 485, -1,
      485, 384, 386, -1,
      485, 386, 486, -1,
      486, 386, 489, -1,
      486, 489, 487, -1,
      487, 489, 490, -1,
      487, 490, 488, -1,
      488, 490, 41, -1,
      385, 55, 386, -1,
      386, 55, 57, -1,
      386, 57, 489, -1,
      489, 57, 491, -1,
      489, 491, 490, -1,
      490, 491, 41, -1,
      47, 46, 174, -1,
      174, 46, 147, -1,
      174, 147, 167, -1,
      167, 147, 149, -1,
      167, 149, 143, -1,
      143, 149, 151, -1,
      143, 151, 141, -1,
      141, 151, 153, -1,
      141, 153, 134, -1,
      134, 153, 155, -1,
      134, 155, 119, -1,
      119, 155, 157, -1,
      119, 157, 110, -1,
      110, 157, 159, -1,
      110, 159, 102, -1,
      102, 159, 161, -1,
      102, 161, 92, -1,
      92, 161, 163, -1,
      92, 163, 84, -1,
      84, 163, 165, -1,
      84, 165, 82, -1,
      82, 165, 31, -1,
      45, 44, 148, -1,
      148, 44, 132, -1,
      148, 132, 150, -1,
      150, 132, 116, -1,
      150, 116, 152, -1,
      152, 116, 107, -1,
      152, 107, 154, -1,
      154, 107, 99, -1,
      154, 99, 156, -1,
      156, 99, 89, -1,
      156, 89, 158, -1,
      158, 89, 80, -1,
      158, 80, 160, -1,
      160, 80, 73, -1,
      160, 73, 162, -1,
      162, 73, 75, -1,
      162, 75, 164, -1,
      164, 75, 31, -1,
      56, 54, 57, -1,
      57, 54, 52, -1,
      57, 52, 491, -1,
      491, 52, 41, -1,
      41, 53, 0, -1,
      0, 53, 1, -1,
      53, 54, 1, -1,
      1, 54, 56, -1,
      1, 56, 2, -1,
      384, 3, 385, -1,
      385, 3, 2, -1,
      385, 2, 55, -1,
      55, 2, 56, -1,
      384, 484, 3, -1,
      3, 484, 59, -1,
      3, 59, 4, -1,
      59, 58, 4, -1,
      4, 58, 62, -1,
      4, 62, 12, -1,
      12, 62, 61, -1,
      12, 61, 13, -1,
      13, 61, 314, -1,
      13, 314, 313, -1,
      64, 14, 65, -1,
      65, 14, 13, -1,
      65, 13, 460, -1,
      460, 13, 313, -1,
      64, 260, 14, -1,
      14, 260, 259, -1,
      14, 259, 18, -1,
      259, 431, 18, -1,
      18, 431, 68, -1,
      18, 68, 19, -1,
      206, 5, 205, -1,
      205, 5, 19, -1,
      205, 19, 67, -1,
      67, 19, 68, -1,
      206, 207, 5, -1,
      5, 207, 185, -1,
      5, 185, 6, -1,
      185, 183, 6, -1,
      6, 183, 182, -1,
      6, 182, 7, -1,
      182, 180, 7, -1,
      7, 180, 179, -1,
      7, 179, 8, -1,
      8, 179, 177, -1,
      8, 177, 9, -1,
      9, 177, 176, -1,
      9, 176, 171, -1,
      145, 10, 168, -1,
      168, 10, 9, -1,
      168, 9, 169, -1,
      169, 9, 171, -1,
      145, 144, 10, -1,
      10, 144, 138, -1,
      10, 138, 11, -1,
      138, 136, 11, -1,
      11, 136, 135, -1,
      11, 135, 15, -1,
      121, 16, 123, -1,
      123, 16, 15, -1,
      123, 15, 125, -1,
      125, 15, 135, -1,
      121, 120, 16, -1,
      16, 120, 72, -1,
      16, 72, 17, -1,
      72, 95, 17, -1,
      17, 95, 94, -1,
      17, 94, 21, -1,
      31, 20, 76, -1,
      76, 20, 21, -1,
      76, 21, 93, -1,
      93, 21, 94, -1,
    ]
  }
}
