G04*
G04 #@! TF.GenerationSoftware,Altium Limited,Altium Designer,25.6.2 (33)*
G04*
G04 Layer_Color=2752767*
%FSLAX44Y44*%
%MOMM*%
G71*
G04*
G04 #@! TF.SameCoordinates,3BC4927B-2D28-470F-A7A7-476B94ED2865*
G04*
G04*
G04 #@! TF.FilePolarity,Positive*
G04*
G01*
G75*
%ADD13C,0.1270*%
%ADD239C,0.1016*%
%ADD296C,0.1693*%
D13*
X994156Y848487D02*
X999236Y853567D01*
X1004316Y848487D01*
X999236Y843407D01*
X994156Y848487D01*
X842832Y840105D02*
Y837565D01*
X847912D01*
Y840105D01*
X850452D01*
Y845185D01*
X847912D01*
Y847725D01*
X842832D01*
Y845185D01*
X840292D01*
Y840105D01*
X842832D01*
X945829Y814705D02*
Y812165D01*
X950909D01*
Y814705D01*
X953449D01*
Y819785D01*
X950909D01*
Y822325D01*
X945829D01*
Y819785D01*
X943289D01*
Y814705D01*
X945829D01*
X312861Y814070D02*
Y811530D01*
X317941D01*
Y814070D01*
X320481D01*
Y819150D01*
X317941D01*
Y821690D01*
X312861D01*
Y819150D01*
X310321D01*
Y814070D01*
X312861D01*
X209864Y839470D02*
Y836930D01*
X214944D01*
Y839470D01*
X217484D01*
Y844550D01*
X214944D01*
Y847090D01*
X209864D01*
Y844550D01*
X207324D01*
Y839470D01*
X209864D01*
X622300Y932942D02*
X624840Y938022D01*
X622300Y943102D01*
X627380Y940562D01*
X632460Y943102D01*
X629920Y938022D01*
X632460Y932942D01*
X627380Y935482D01*
X622300Y932942D01*
X524891Y932561D02*
X527431Y937641D01*
X524891Y942721D01*
X529971Y940181D01*
X535051Y942721D01*
X532511Y937641D01*
X535051Y932561D01*
X529971Y935101D01*
X524891Y932561D01*
X883412Y881253D02*
X888492Y886333D01*
X893572Y881253D01*
X888492Y876173D01*
X883412Y881253D01*
X959612D02*
X964692Y886333D01*
X969772Y881253D01*
X964692Y876173D01*
X959612Y881253D01*
X934212D02*
X939292Y886333D01*
X944372Y881253D01*
X939292Y876173D01*
X934212Y881253D01*
X908812D02*
X913892Y886333D01*
X918972Y881253D01*
X913892Y876173D01*
X908812Y881253D01*
X858012D02*
X863092Y886333D01*
X868172Y881253D01*
X863092Y876173D01*
X858012Y881253D01*
X499491Y932561D02*
X502031Y937641D01*
X499491Y942721D01*
X504571Y940181D01*
X509651Y942721D01*
X507111Y937641D01*
X509651Y932561D01*
X504571Y935101D01*
X499491Y932561D01*
X550291D02*
X552831Y937641D01*
X550291Y942721D01*
X555371Y940181D01*
X560451Y942721D01*
X557911Y937641D01*
X560451Y932561D01*
X555371Y935101D01*
X550291Y932561D01*
X647700Y932942D02*
X650240Y938022D01*
X647700Y943102D01*
X652780Y940562D01*
X657860Y943102D01*
X655320Y938022D01*
X657860Y932942D01*
X652780Y935482D01*
X647700Y932942D01*
X596900D02*
X599440Y938022D01*
X596900Y943102D01*
X601980Y940562D01*
X607060Y943102D01*
X604520Y938022D01*
X607060Y932942D01*
X601980Y935482D01*
X596900Y932942D01*
X209864Y814070D02*
Y811530D01*
X214944D01*
Y814070D01*
X217484D01*
Y819150D01*
X214944D01*
Y821690D01*
X209864D01*
Y819150D01*
X207324D01*
Y814070D01*
X209864D01*
X312861Y839470D02*
Y836930D01*
X317941D01*
Y839470D01*
X320481D01*
Y844550D01*
X317941D01*
Y847090D01*
X312861D01*
Y844550D01*
X310321D01*
Y839470D01*
X312861D01*
X945829Y840105D02*
Y837565D01*
X950909D01*
Y840105D01*
X953449D01*
Y845185D01*
X950909D01*
Y847725D01*
X945829D01*
Y845185D01*
X943289D01*
Y840105D01*
X945829D01*
X842832Y814705D02*
Y812165D01*
X847912D01*
Y814705D01*
X850452D01*
Y819785D01*
X847912D01*
Y822325D01*
X842832D01*
Y819785D01*
X840292D01*
Y814705D01*
X842832D01*
X1019556Y848487D02*
X1024636Y853567D01*
X1029716Y848487D01*
X1024636Y843407D01*
X1019556Y848487D01*
X1044956D02*
X1050036Y853567D01*
X1055116Y848487D01*
X1050036Y843407D01*
X1044956Y848487D01*
X1070356D02*
X1075436Y853567D01*
X1080516Y848487D01*
X1075436Y843407D01*
X1070356Y848487D01*
X1095756D02*
X1100836Y853567D01*
X1105916Y848487D01*
X1100836Y843407D01*
X1095756Y848487D01*
X705000Y888920D02*
X707540Y891460D01*
X710080D01*
X707540Y894000D01*
X710080Y896540D01*
X707540D01*
X705000Y899080D01*
X702460Y896540D01*
X699920D01*
X702460Y894000D01*
X699920Y891460D01*
X702460D01*
X705000Y888920D01*
X455000D02*
X457540Y891460D01*
X460080D01*
X457540Y894000D01*
X460080Y896540D01*
X457540D01*
X455000Y899080D01*
X452460Y896540D01*
X449920D01*
X452460Y894000D01*
X449920Y891460D01*
X452460D01*
X455000Y888920D01*
X800000Y878920D02*
X802540Y881460D01*
X805080D01*
X802540Y884000D01*
X805080Y886540D01*
X802540D01*
X800000Y889080D01*
X797460Y886540D01*
X794920D01*
X797460Y884000D01*
X794920Y881460D01*
X797460D01*
X800000Y878920D01*
X360000D02*
X362540Y881460D01*
X365080D01*
X362540Y884000D01*
X365080Y886540D01*
X362540D01*
X360000Y889080D01*
X357460Y886540D01*
X354920D01*
X357460Y884000D01*
X354920Y881460D01*
X357460D01*
X360000Y878920D01*
X805000Y210920D02*
X799920Y221080D01*
X810080D01*
X805000Y210920D01*
X195208Y176056D02*
Y186216D01*
X205368D01*
Y176056D01*
X195208D01*
X449106Y225611D02*
Y235771D01*
X459267D01*
Y225611D01*
X449106D01*
X369278Y224473D02*
Y234633D01*
X379438D01*
Y224473D01*
X369278D01*
X415138Y178049D02*
Y188209D01*
X425298D01*
Y178049D01*
X415138D01*
X414105Y224062D02*
Y234222D01*
X424265D01*
Y224062D01*
X414105D01*
X375770Y223970D02*
Y234130D01*
X385930D01*
Y223970D01*
X375770D01*
X408275Y178463D02*
Y188623D01*
X418435D01*
Y178463D01*
X408275D01*
X356278Y223965D02*
Y234125D01*
X366438D01*
Y223965D01*
X356278D01*
X356024Y178466D02*
Y188626D01*
X366184D01*
Y178466D01*
X356024D01*
X362522D02*
Y188626D01*
X372682D01*
Y178466D01*
X362522D01*
X375783Y178941D02*
Y189101D01*
X385943D01*
Y178941D01*
X375783D01*
X153298Y221776D02*
Y231936D01*
X163458D01*
Y221776D01*
X153298D01*
X153044Y181136D02*
Y191296D01*
X163204D01*
Y181136D01*
X153044D01*
X403488Y392718D02*
Y402878D01*
X413648D01*
Y392718D01*
X403488D01*
X398408D02*
Y402878D01*
X408568D01*
Y392718D01*
X398408D01*
X204160Y220744D02*
Y230904D01*
X214320D01*
Y220744D01*
X204160D01*
X228163D02*
Y230904D01*
X238323D01*
Y220744D01*
X228163D01*
X204160Y181742D02*
Y191902D01*
X214320D01*
Y181742D01*
X204160D01*
X439048Y386558D02*
Y396718D01*
X449208D01*
Y386558D01*
X439048D01*
X422538D02*
Y396718D01*
X432698D01*
Y386558D01*
X422538D01*
X360308Y386368D02*
Y396528D01*
X370468D01*
Y386368D01*
X360308D01*
X378088D02*
Y396528D01*
X388248D01*
Y386368D01*
X378088D01*
X360308Y381288D02*
Y391448D01*
X370468D01*
Y381288D01*
X360308D01*
X470798D02*
Y391448D01*
X480958D01*
Y381288D01*
X470798D01*
X455558D02*
Y391448D01*
X465718D01*
Y381288D01*
X455558D01*
X378088D02*
Y391448D01*
X388248D01*
Y381288D01*
X378088D01*
X439048D02*
Y391448D01*
X449208D01*
Y381288D01*
X439048D01*
X422538D02*
Y391448D01*
X432698D01*
Y381288D01*
X422538D01*
X323337Y182748D02*
Y192908D01*
X333497D01*
Y182748D01*
X323337D01*
Y219680D02*
Y229840D01*
X333497D01*
Y219680D01*
X323337D01*
X382242Y217853D02*
Y228013D01*
X392402D01*
Y217853D01*
X382242D01*
X434347Y184893D02*
Y195053D01*
X444507D01*
Y184893D01*
X434347D01*
X414749Y184938D02*
Y195098D01*
X424909D01*
Y184938D01*
X414749D01*
X434252Y217487D02*
Y227647D01*
X444412D01*
Y217487D01*
X434252D01*
X362778Y217465D02*
Y227625D01*
X372938D01*
Y217465D01*
X362778D01*
X408275Y184963D02*
Y195123D01*
X418435D01*
Y184963D01*
X408275D01*
X401782Y184971D02*
Y195131D01*
X411942D01*
Y184971D01*
X401782D01*
X395282D02*
Y195131D01*
X405442D01*
Y184971D01*
X395282D01*
X388783Y184971D02*
Y195131D01*
X398943D01*
Y184971D01*
X388783D01*
X362615Y185093D02*
Y195253D01*
X372775D01*
Y185093D01*
X362615D01*
X441521Y217260D02*
Y227420D01*
X451681D01*
Y217260D01*
X441521D01*
X388163Y216850D02*
Y227010D01*
X398323D01*
Y216850D01*
X388163D01*
X400812Y69088D02*
Y79248D01*
X410972D01*
Y69088D01*
X400812D01*
X410972Y69342D02*
Y79502D01*
X421132D01*
Y69342D01*
X410972D01*
X395859Y68961D02*
Y79121D01*
X406019D01*
Y68961D01*
X395859D01*
X405892Y69088D02*
Y79248D01*
X416052D01*
Y69088D01*
X405892D01*
X153044Y187232D02*
Y197392D01*
X163204D01*
Y187232D01*
X153044D01*
X195518Y214244D02*
Y224404D01*
X205678D01*
Y214244D01*
X195518D01*
X260162D02*
Y224404D01*
X270322D01*
Y214244D01*
X260162D01*
X276164Y214242D02*
Y224402D01*
X286324D01*
Y214242D01*
X276164D01*
X291404D02*
Y224402D01*
X301564D01*
Y214242D01*
X291404D01*
X244892Y214204D02*
Y224364D01*
X255052D01*
Y214204D01*
X244892D01*
X195524Y188242D02*
Y198402D01*
X205684D01*
Y188242D01*
X195524D01*
X245011D02*
Y198402D01*
X255171D01*
Y188242D01*
X245011D01*
X260162D02*
Y198402D01*
X270322D01*
Y188242D01*
X260162D01*
X276164D02*
Y198402D01*
X286324D01*
Y188242D01*
X276164D01*
X291404D02*
Y198402D01*
X301564D01*
Y188242D01*
X291404D01*
X153044Y202472D02*
Y212632D01*
X163204D01*
Y202472D01*
X153044D01*
X220162Y213482D02*
Y223642D01*
X230322D01*
Y213482D01*
X220162D01*
X299348Y323376D02*
Y333536D01*
X309508D01*
Y323376D01*
X299348D01*
X305444D02*
Y333536D01*
X315604D01*
Y323376D01*
X305444D01*
X244597Y315910D02*
Y326070D01*
X254757D01*
Y315910D01*
X244597D01*
X259837D02*
Y326070D01*
X269997D01*
Y315910D01*
X259837D01*
X280044D02*
Y326070D01*
X290204D01*
Y315910D01*
X280044D01*
X218068Y87156D02*
Y97316D01*
X228228D01*
Y87156D01*
X218068D01*
X243468D02*
Y97316D01*
X253628D01*
Y87156D01*
X243468D01*
X261248D02*
Y97316D01*
X271408D01*
Y87156D01*
X261248D01*
X277758D02*
Y97316D01*
X287918D01*
Y87156D01*
X277758D01*
X298332Y315248D02*
Y325408D01*
X308492D01*
Y315248D01*
X298332D01*
X224704Y87922D02*
Y98082D01*
X234864D01*
Y87922D01*
X224704D01*
X238285D02*
Y98082D01*
X248445D01*
Y87922D01*
X238285D01*
X256245D02*
Y98082D01*
X266405D01*
Y87922D01*
X256245D01*
X272410D02*
Y98082D01*
X282570D01*
Y87922D01*
X272410D01*
X286507D02*
Y98082D01*
X296667D01*
Y87922D01*
X286507D01*
X294127D02*
Y98082D01*
X304287D01*
Y87922D01*
X294127D01*
X323889Y310325D02*
Y320485D01*
X334049D01*
Y310325D01*
X323889D01*
X309880Y93218D02*
Y103378D01*
X320040D01*
Y93218D01*
X309880D01*
X448446Y190534D02*
Y200694D01*
X458606D01*
Y190534D01*
X448446D01*
X226817Y307335D02*
Y317495D01*
X236977D01*
Y307335D01*
X226817D01*
X236977D02*
Y317495D01*
X247137D01*
Y307335D01*
X236977D01*
X248661D02*
Y317495D01*
X258821D01*
Y307335D01*
X248661D01*
X266441D02*
Y317495D01*
X276601D01*
Y307335D01*
X266441D01*
X284221D02*
Y317495D01*
X294381D01*
Y307335D01*
X284221D01*
X294381D02*
Y317495D01*
X304541D01*
Y307335D01*
X294381D01*
X213276Y305509D02*
Y315669D01*
X223436D01*
Y305509D01*
X213276D01*
X153298Y211616D02*
Y221776D01*
X163458D01*
Y211616D01*
X153298D01*
X323337Y304668D02*
Y314828D01*
X333497D01*
Y304668D01*
X323337D01*
X321818Y102616D02*
Y112776D01*
X331978D01*
Y102616D01*
X321818D01*
X235707Y100198D02*
Y110358D01*
X245867D01*
Y100198D01*
X235707D01*
X252476D02*
Y110358D01*
X262636D01*
Y100198D01*
X252476D01*
X260088D02*
Y110358D01*
X270248D01*
Y100198D01*
X260088D01*
X280091D02*
Y110358D01*
X290251D01*
Y100198D01*
X280091D01*
X438404Y302514D02*
Y312674D01*
X448564D01*
Y302514D01*
X438404D01*
X415098Y211283D02*
Y221443D01*
X425258D01*
Y211283D01*
X415098D01*
X421471Y211133D02*
Y221293D01*
X431631D01*
Y211133D01*
X421471D01*
X305514Y102781D02*
Y112941D01*
X315674D01*
Y102781D01*
X305514D01*
X373516Y102904D02*
Y113064D01*
X383676D01*
Y102904D01*
X373516D01*
X375770Y210970D02*
Y221130D01*
X385930D01*
Y210970D01*
X375770D01*
X369278Y210965D02*
Y221125D01*
X379438D01*
Y210965D01*
X369278D01*
X356250Y210963D02*
Y221123D01*
X366410D01*
Y210963D01*
X356250D01*
X388783Y191471D02*
Y201631D01*
X398943D01*
Y191471D01*
X388783D01*
X315341Y97917D02*
Y108077D01*
X325501D01*
Y97917D01*
X315341D01*
X388544Y210731D02*
Y220891D01*
X398704D01*
Y210731D01*
X388544D01*
X369029Y191724D02*
Y201884D01*
X379189D01*
Y191724D01*
X369029D01*
X330957Y295778D02*
Y305938D01*
X341117D01*
Y295778D01*
X330957D01*
X229403Y295712D02*
Y305872D01*
X239563D01*
Y295712D01*
X229403D01*
X239517D02*
Y305872D01*
X249677D01*
Y295712D01*
X239517D01*
X275077D02*
Y305872D01*
X285237D01*
Y295712D01*
X275077D01*
X289047D02*
Y305872D01*
X299207D01*
Y295712D01*
X289047D01*
X260096Y295711D02*
Y305871D01*
X270256D01*
Y295711D01*
X260096D01*
X439556Y293912D02*
Y304072D01*
X449716D01*
Y293912D01*
X439556D01*
X346329Y117856D02*
Y128016D01*
X356489D01*
Y117856D01*
X346329D01*
X401643Y210346D02*
Y220506D01*
X411803D01*
Y210346D01*
X401643D01*
X394851Y210223D02*
Y220383D01*
X405011D01*
Y210223D01*
X394851D01*
X246502Y112263D02*
Y122423D01*
X256662D01*
Y112263D01*
X246502D01*
X208344Y289920D02*
Y300080D01*
X218504D01*
Y289920D01*
X208344D01*
X301699Y192354D02*
Y202514D01*
X311859D01*
Y192354D01*
X301699D01*
Y210071D02*
Y220231D01*
X311859D01*
Y210071D01*
X301699D01*
X401086Y289372D02*
Y299532D01*
X411246D01*
Y289372D01*
X401086D01*
X190636Y288832D02*
Y298992D01*
X200796D01*
Y288832D01*
X190636D01*
X207084Y114755D02*
Y124915D01*
X217244D01*
Y114755D01*
X207084D01*
X490356Y286800D02*
Y296960D01*
X500516D01*
Y286800D01*
X490356D01*
X320754Y285829D02*
Y295989D01*
X330914D01*
Y285829D01*
X320754D01*
X226812Y284599D02*
Y294759D01*
X236972D01*
Y284599D01*
X226812D01*
X343317Y284460D02*
Y294620D01*
X353477D01*
Y284460D01*
X343317D01*
X199926Y283159D02*
Y293319D01*
X210086D01*
Y283159D01*
X199926D01*
X330957Y283078D02*
Y293238D01*
X341117D01*
Y283078D01*
X330957D01*
X329971Y119726D02*
Y129886D01*
X340131D01*
Y119726D01*
X329971D01*
X227833Y209322D02*
Y219482D01*
X237993D01*
Y209322D01*
X227833D01*
X192527Y120518D02*
Y130678D01*
X202687D01*
Y120518D01*
X192527D01*
X187447Y281808D02*
Y291968D01*
X197607D01*
Y281808D01*
X187447D01*
X183778Y121446D02*
Y131606D01*
X193938D01*
Y121446D01*
X183778D01*
X227833Y193358D02*
Y203518D01*
X237993D01*
Y193358D01*
X227833D01*
X207767Y123058D02*
Y133218D01*
X217927D01*
Y123058D01*
X207767D01*
X231643D02*
Y133218D01*
X241803D01*
Y123058D01*
X231643D01*
X239009D02*
Y133218D01*
X249169D01*
Y123058D01*
X239009D01*
X414454Y278926D02*
Y289086D01*
X424614D01*
Y278926D01*
X414454D01*
X144408D02*
Y289086D01*
X154568D01*
Y278926D01*
X144408D01*
X527948Y276640D02*
Y286800D01*
X538108D01*
Y276640D01*
X527948D01*
X216254Y276168D02*
Y286328D01*
X226414D01*
Y276168D01*
X216254D01*
X346182Y126881D02*
Y137041D01*
X356342D01*
Y126881D01*
X346182D01*
X140598Y275116D02*
Y285276D01*
X150758D01*
Y275116D01*
X140598D01*
X183778Y127796D02*
Y137956D01*
X193938D01*
Y127796D01*
X183778D01*
X216291Y128202D02*
Y138362D01*
X226451D01*
Y128202D01*
X216291D01*
X410092Y273592D02*
Y283752D01*
X420252D01*
Y273592D01*
X410092D01*
X275218Y272829D02*
Y282989D01*
X285378D01*
Y272829D01*
X275218D01*
X276164Y129743D02*
Y139903D01*
X286324D01*
Y129743D01*
X276164D01*
X387645Y272593D02*
Y282753D01*
X397805D01*
Y272593D01*
X387645D01*
X253328Y272326D02*
Y282486D01*
X263488D01*
Y272326D01*
X253328D01*
X332311Y130780D02*
Y140940D01*
X342471D01*
Y130780D01*
X332311D01*
X152028Y271306D02*
Y281466D01*
X162188D01*
Y271306D01*
X152028D01*
X439556Y270774D02*
Y280934D01*
X449716D01*
Y270774D01*
X439556D01*
X454796Y270544D02*
Y280704D01*
X464956D01*
Y270544D01*
X454796D01*
X332953Y270269D02*
Y280429D01*
X343113D01*
Y270269D01*
X332953D01*
X193345Y133218D02*
Y143378D01*
X203505D01*
Y133218D01*
X193345D01*
X153924Y133985D02*
Y144145D01*
X164084D01*
Y133985D01*
X153924D01*
X234960Y266594D02*
Y276754D01*
X245120D01*
Y266594D01*
X234960D01*
X204160Y207744D02*
Y217904D01*
X214320D01*
Y207744D01*
X204160D01*
Y194742D02*
Y204902D01*
X214320D01*
Y194742D01*
X204160D01*
X466847Y264028D02*
Y274188D01*
X477007D01*
Y264028D01*
X466847D01*
X193446Y142108D02*
Y152268D01*
X203606D01*
Y142108D01*
X193446D01*
X235034Y143122D02*
Y153282D01*
X245194D01*
Y143122D01*
X235034D01*
X253284Y143175D02*
Y153335D01*
X263444D01*
Y143175D01*
X253284D01*
X252946Y258887D02*
Y269047D01*
X263106D01*
Y258887D01*
X252946D01*
X443172Y255860D02*
Y266020D01*
X453332D01*
Y255860D01*
X443172D01*
X468160Y255095D02*
Y265255D01*
X478320D01*
Y255095D01*
X468160D01*
X220612Y253543D02*
Y263703D01*
X230772D01*
Y253543D01*
X220612D01*
X235113D02*
Y263703D01*
X245273D01*
Y253543D01*
X235113D01*
X235168Y148997D02*
Y159157D01*
X245328D01*
Y148997D01*
X235168D01*
X268163Y253244D02*
Y263404D01*
X278323D01*
Y253244D01*
X268163D01*
X220162Y149243D02*
Y159403D01*
X230322D01*
Y149243D01*
X220162D01*
X268163D02*
Y159403D01*
X278323D01*
Y149243D01*
X268163D01*
X284165D02*
Y159403D01*
X294325D01*
Y149243D01*
X284165D01*
X205214Y149433D02*
Y159593D01*
X215373D01*
Y149433D01*
X205214D01*
X205403Y252918D02*
Y263078D01*
X215563D01*
Y252918D01*
X205403D01*
X284361Y252669D02*
Y262829D01*
X294521D01*
Y252669D01*
X284361D01*
X396474Y252286D02*
Y262446D01*
X406634D01*
Y252286D01*
X396474D01*
X347317Y252123D02*
Y262283D01*
X357477D01*
Y252123D01*
X347317D01*
X380073Y251986D02*
Y262146D01*
X390233D01*
Y251986D01*
X380073D01*
X418220Y150656D02*
Y160816D01*
X428380D01*
Y150656D01*
X418220D01*
X347271Y150744D02*
Y160904D01*
X357431D01*
Y150744D01*
X347271D01*
X367152Y251328D02*
Y261488D01*
X377312D01*
Y251328D01*
X367152D01*
X153044Y151164D02*
Y161324D01*
X163204D01*
Y151164D01*
X153044D01*
X470036Y206215D02*
Y216375D01*
X480196D01*
Y206215D01*
X470036D01*
X296641Y250818D02*
Y260978D01*
X306801D01*
Y250818D01*
X296641D01*
X295783Y151882D02*
Y162042D01*
X305943D01*
Y151882D01*
X295783D01*
X441447Y152268D02*
Y162428D01*
X451607D01*
Y152268D01*
X441447D01*
X427641Y250097D02*
Y260257D01*
X437801D01*
Y250097D01*
X427641D01*
X369478Y152332D02*
Y162492D01*
X379637D01*
Y152332D01*
X369478D01*
X362778Y152466D02*
Y162626D01*
X372938D01*
Y152466D01*
X362778D01*
X446999Y152741D02*
Y162901D01*
X457159D01*
Y152741D01*
X446999D01*
X153044Y196376D02*
Y206536D01*
X163204D01*
Y196376D01*
X153044D01*
X249514Y247625D02*
Y257785D01*
X259674D01*
Y247625D01*
X249514D01*
X152028Y247176D02*
Y257336D01*
X162188D01*
Y247176D01*
X152028D01*
X220612Y247043D02*
Y257203D01*
X230772D01*
Y247043D01*
X220612D01*
X194818Y155512D02*
Y165672D01*
X204978D01*
Y155512D01*
X194818D01*
X268163Y246744D02*
Y256904D01*
X278323D01*
Y246744D01*
X268163D01*
X220162Y155743D02*
Y165903D01*
X230322D01*
Y155743D01*
X220162D01*
X268163D02*
Y165903D01*
X278323D01*
Y155743D01*
X268163D01*
X250640Y156596D02*
Y166756D01*
X260800D01*
Y156596D01*
X250640D01*
X238603Y245755D02*
Y255915D01*
X248763D01*
Y245755D01*
X238603D01*
X153044Y157260D02*
Y167420D01*
X163204D01*
Y157260D01*
X153044D01*
X194816Y245111D02*
Y255271D01*
X204976D01*
Y245111D01*
X194816D01*
X449031Y244407D02*
Y254567D01*
X459191D01*
Y244407D01*
X449031D01*
X236680Y158565D02*
Y168725D01*
X246840D01*
Y158565D01*
X236680D01*
X446668Y158784D02*
Y168944D01*
X456828D01*
Y158784D01*
X446668D01*
X421406Y243569D02*
Y253729D01*
X431566D01*
Y243569D01*
X421406D01*
X395462Y158862D02*
Y169023D01*
X405622D01*
Y158862D01*
X395462D01*
X356278Y243464D02*
Y253624D01*
X366438D01*
Y243464D01*
X356278D01*
X362778D02*
Y253624D01*
X372938D01*
Y243464D01*
X362778D01*
X356278Y158966D02*
Y169126D01*
X366438D01*
Y158966D01*
X356278D01*
X362778D02*
Y169126D01*
X372938D01*
Y158966D01*
X362778D01*
X375783Y158971D02*
Y169131D01*
X385943D01*
Y158971D01*
X375783D01*
X440781D02*
Y169131D01*
X450941D01*
Y158971D01*
X440781D01*
X369283Y158971D02*
Y169131D01*
X379443D01*
Y158971D01*
X369283D01*
X299207Y241168D02*
Y251328D01*
X309367D01*
Y241168D01*
X299207D01*
X276164Y240952D02*
Y251112D01*
X286324D01*
Y240952D01*
X276164D01*
Y161532D02*
Y171692D01*
X286324D01*
Y161532D01*
X276164D01*
X151774Y240826D02*
Y250986D01*
X161934D01*
Y240826D01*
X151774D01*
X299456Y161791D02*
Y171951D01*
X309616D01*
Y161791D01*
X299456D01*
X212611Y240543D02*
Y250703D01*
X222771D01*
Y240543D01*
X212611D01*
X216449Y205123D02*
Y215283D01*
X226609D01*
Y205123D01*
X216449D01*
X212161Y162243D02*
Y172403D01*
X222321D01*
Y162243D01*
X212161D01*
X348907Y239408D02*
Y249568D01*
X359067D01*
Y239408D01*
X348907D01*
X348864Y163673D02*
Y173833D01*
X359024D01*
Y163673D01*
X348864D01*
X153044Y163864D02*
Y174024D01*
X163204D01*
Y163864D01*
X153044D01*
X415197Y204885D02*
Y215045D01*
X425358D01*
Y204885D01*
X415197D01*
X440776Y164880D02*
Y175040D01*
X450936D01*
Y164880D01*
X440776D01*
X401528Y165217D02*
Y175377D01*
X411688D01*
Y165217D01*
X401528D01*
X395122Y237025D02*
Y247185D01*
X405282D01*
Y237025D01*
X395122D01*
X388783Y165471D02*
Y175631D01*
X398943D01*
Y165471D01*
X388783D01*
X369283D02*
Y175631D01*
X379443D01*
Y165471D01*
X369283D01*
X402057Y236825D02*
Y246985D01*
X412217D01*
Y236825D01*
X402057D01*
X414956Y236800D02*
Y246960D01*
X425116D01*
Y236800D01*
X414956D01*
X447947Y165633D02*
Y175793D01*
X458106D01*
Y165633D01*
X447947D01*
X216449Y197678D02*
Y207838D01*
X226609D01*
Y197678D01*
X216449D01*
X420760Y204732D02*
Y214892D01*
X430920D01*
Y204732D01*
X420760D01*
X151774Y234730D02*
Y244890D01*
X161934D01*
Y234730D01*
X151774D01*
X228008Y234338D02*
Y244498D01*
X238168D01*
Y234338D01*
X228008D01*
X440785Y204474D02*
Y214634D01*
X450945D01*
Y204474D01*
X440785D01*
X408275Y197963D02*
Y208123D01*
X418435D01*
Y197963D01*
X408275D01*
X362778Y204465D02*
Y214625D01*
X372938D01*
Y204465D01*
X362778D01*
Y197965D02*
Y208125D01*
X372938D01*
Y197965D01*
X362778D01*
X228163Y168743D02*
Y178903D01*
X238323D01*
Y168743D01*
X228163D01*
X375783Y197970D02*
Y208130D01*
X385943D01*
Y197970D01*
X375783D01*
X414716Y198053D02*
Y208214D01*
X424877D01*
Y198053D01*
X414716D01*
X153044Y169960D02*
Y180120D01*
X163204D01*
Y169960D01*
X153044D01*
X245745Y232296D02*
Y242456D01*
X255905D01*
Y232296D01*
X245745D01*
Y170188D02*
Y180348D01*
X255905D01*
Y170188D01*
X245745D01*
X388544Y204231D02*
Y214391D01*
X398704D01*
Y204231D01*
X388544D01*
X402262Y230721D02*
Y240881D01*
X412422D01*
Y230721D01*
X402262D01*
X191398Y230666D02*
Y240826D01*
X201558D01*
Y230666D01*
X191398D01*
X434262Y230578D02*
Y240738D01*
X444422D01*
Y230578D01*
X434262D01*
X375778Y230465D02*
Y240625D01*
X385938D01*
Y230465D01*
X375778D01*
X369278D02*
Y240625D01*
X379438D01*
Y230465D01*
X369278D01*
X440776Y171963D02*
Y182123D01*
X450936D01*
Y171963D01*
X440776D01*
X414302Y230412D02*
Y240572D01*
X424462D01*
Y230412D01*
X414302D01*
X375986Y172174D02*
Y182334D01*
X386146D01*
Y172174D01*
X375986D01*
X420990Y172248D02*
Y182408D01*
X431150D01*
Y172248D01*
X420990D01*
X301137Y229738D02*
Y239898D01*
X311297D01*
Y229738D01*
X301137D01*
X348869Y229700D02*
Y239860D01*
X359029D01*
Y229700D01*
X348869D01*
X302570Y172748D02*
Y182908D01*
X312730D01*
Y172748D01*
X302570D01*
X349420Y173274D02*
Y183434D01*
X359580D01*
Y173274D01*
X349420D01*
X204160Y175243D02*
Y185403D01*
X214320D01*
Y175243D01*
X204160D01*
X212161D02*
Y185403D01*
X222321D01*
Y175243D01*
X212161D01*
X220162D02*
Y185403D01*
X230322D01*
Y175243D01*
X220162D01*
X226817Y201214D02*
Y211374D01*
X236977D01*
Y201214D01*
X226817D01*
X240787D02*
Y211374D01*
X250947D01*
Y201214D01*
X240787D01*
X309367D02*
Y211374D01*
X319527D01*
Y201214D01*
X309367D01*
X333497D02*
Y211374D01*
X343657D01*
Y201214D01*
X333497D01*
X347467D02*
Y211374D01*
X357627D01*
Y201214D01*
X347467D01*
X470798Y386558D02*
Y396718D01*
X480958D01*
Y386558D01*
X470798D01*
X455558D02*
Y396718D01*
X465718D01*
Y386558D01*
X455558D01*
X327406Y323596D02*
Y333756D01*
X337566D01*
Y323596D01*
X327406D01*
X395956Y280792D02*
Y290952D01*
X406116D01*
Y280792D01*
X395956D01*
X106634Y111079D02*
X109174D01*
X111714Y113619D01*
X114254Y111079D01*
X116794D01*
Y113619D01*
X114254Y116159D01*
X116794Y118699D01*
Y121239D01*
X114254D01*
X111714Y118699D01*
X109174Y121239D01*
X106634D01*
Y118699D01*
X109174Y116159D01*
X106634Y113619D01*
Y111079D01*
Y121079D02*
X109174D01*
X111714Y123619D01*
X114254Y121079D01*
X116794D01*
Y123619D01*
X114254Y126159D01*
X116794Y128699D01*
Y131239D01*
X114254D01*
X111714Y128699D01*
X109174Y131239D01*
X106634D01*
Y128699D01*
X109174Y126159D01*
X106634Y123619D01*
Y121079D01*
X116634Y111079D02*
X119174D01*
X121714Y113619D01*
X124254Y111079D01*
X126794D01*
Y113619D01*
X124254Y116159D01*
X126794Y118699D01*
Y121239D01*
X124254D01*
X121714Y118699D01*
X119174Y121239D01*
X116634D01*
Y118699D01*
X119174Y116159D01*
X116634Y113619D01*
Y111079D01*
Y121079D02*
X119174D01*
X121714Y123619D01*
X124254Y121079D01*
X126794D01*
Y123619D01*
X124254Y126159D01*
X126794Y128699D01*
Y131239D01*
X124254D01*
X121714Y128699D01*
X119174Y131239D01*
X116634D01*
Y128699D01*
X119174Y126159D01*
X116634Y123619D01*
Y121079D01*
X961591Y176863D02*
X964131D01*
X966671Y179403D01*
X969211Y176863D01*
X971751D01*
Y179403D01*
X969211Y181943D01*
X971751Y184483D01*
Y187023D01*
X969211D01*
X966671Y184483D01*
X964131Y187023D01*
X961591D01*
Y184483D01*
X964131Y181943D01*
X961591Y179403D01*
Y176863D01*
Y186863D02*
X964131D01*
X966671Y189403D01*
X969211Y186863D01*
X971751D01*
Y189403D01*
X969211Y191943D01*
X971751Y194483D01*
Y197023D01*
X969211D01*
X966671Y194483D01*
X964131Y197023D01*
X961591D01*
Y194483D01*
X964131Y191943D01*
X961591Y189403D01*
Y186863D01*
X971591Y176863D02*
X974131D01*
X976671Y179403D01*
X979211Y176863D01*
X981751D01*
Y179403D01*
X979211Y181943D01*
X981751Y184483D01*
Y187023D01*
X979211D01*
X976671Y184483D01*
X974131Y187023D01*
X971591D01*
Y184483D01*
X974131Y181943D01*
X971591Y179403D01*
Y176863D01*
Y186863D02*
X974131D01*
X976671Y189403D01*
X979211Y186863D01*
X981751D01*
Y189403D01*
X979211Y191943D01*
X981751Y194483D01*
Y197023D01*
X979211D01*
X976671Y194483D01*
X974131Y197023D01*
X971591D01*
Y194483D01*
X974131Y191943D01*
X971591Y189403D01*
Y186863D01*
X126111Y288036D02*
Y298196D01*
X136271D01*
Y288036D01*
X126111D01*
X346537Y328295D02*
Y338455D01*
X356697D01*
Y328295D01*
X346537D01*
X451993Y340995D02*
Y351155D01*
X462153D01*
Y340995D01*
X451993D01*
X501269Y316738D02*
Y326898D01*
X511429D01*
Y316738D01*
X501269D01*
X528610Y262092D02*
Y272251D01*
X538770D01*
Y262092D01*
X528610D01*
X379857Y81915D02*
Y92075D01*
X390017D01*
Y81915D01*
X379857D01*
X187447Y265298D02*
Y275458D01*
X197607D01*
Y265298D01*
X187447D01*
X328812Y80552D02*
Y90712D01*
X338972D01*
Y80552D01*
X328812D01*
X327406Y330200D02*
Y340360D01*
X337566D01*
Y330200D01*
X327406D01*
X294513Y330581D02*
Y340741D01*
X304673D01*
Y330581D01*
X294513D01*
X456057Y131699D02*
Y141859D01*
X466217D01*
Y131699D01*
X456057D01*
X538734Y106553D02*
Y116713D01*
X548894D01*
Y106553D01*
X538734D01*
X540766Y108585D02*
Y114681D01*
X546862D01*
Y108585D01*
X540766D01*
X650621Y250571D02*
Y260731D01*
X660781D01*
Y250571D01*
X650621D01*
X652653Y252603D02*
Y258699D01*
X658749D01*
Y252603D01*
X652653D01*
X644398Y250444D02*
Y260604D01*
X654558D01*
Y250444D01*
X644398D01*
X646430Y252476D02*
Y258572D01*
X652526D01*
Y252476D01*
X646430D01*
X471424Y180213D02*
Y190373D01*
X481584D01*
Y180213D01*
X471424D01*
X468249Y136017D02*
Y146177D01*
X478409D01*
Y136017D01*
X468249D01*
X540639Y291465D02*
Y301625D01*
X550799D01*
Y291465D01*
X540639D01*
X539115Y100457D02*
Y110617D01*
X549275D01*
Y100457D01*
X539115D01*
X541147Y102489D02*
Y108585D01*
X547243D01*
Y102489D01*
X541147D01*
X608203Y85725D02*
Y95885D01*
X618363D01*
Y85725D01*
X608203D01*
X610235Y87757D02*
Y93853D01*
X616331D01*
Y87757D01*
X610235D01*
X613410Y85725D02*
Y95885D01*
X623570D01*
Y85725D01*
X613410D01*
X615442Y87757D02*
Y93853D01*
X621538D01*
Y87757D01*
X615442D01*
X622808Y283083D02*
Y293243D01*
X632968D01*
Y283083D01*
X622808D01*
X624840Y285115D02*
Y291211D01*
X630936D01*
Y285115D01*
X624840D01*
X629031Y280416D02*
Y290576D01*
X639191D01*
Y280416D01*
X629031D01*
X631063Y282448D02*
Y288544D01*
X637159D01*
Y282448D01*
X631063D01*
X482704Y255812D02*
Y265972D01*
X492864D01*
Y255812D01*
X482704D01*
X369824Y128016D02*
Y138176D01*
X379984D01*
Y128016D01*
X369824D01*
X489340Y306104D02*
Y316264D01*
X499500D01*
Y306104D01*
X489340D01*
X822706Y696087D02*
Y706247D01*
X832866D01*
Y696087D01*
X822706D01*
X824738Y698119D02*
Y704215D01*
X830834D01*
Y698119D01*
X824738D01*
X816229Y701548D02*
Y711708D01*
X826389D01*
Y701548D01*
X816229D01*
X818261Y703580D02*
Y709676D01*
X824357D01*
Y703580D01*
X818261D01*
X534162Y573659D02*
Y583819D01*
X544322D01*
Y573659D01*
X534162D01*
X536194Y575691D02*
Y581787D01*
X542290D01*
Y575691D01*
X536194D01*
X530860Y563626D02*
Y573786D01*
X541020D01*
Y563626D01*
X530860D01*
X532892Y565658D02*
Y571754D01*
X538988D01*
Y565658D01*
X532892D01*
X530733Y557276D02*
Y567436D01*
X540893D01*
Y557276D01*
X530733D01*
X532765Y559308D02*
Y565404D01*
X538861D01*
Y559308D01*
X532765D01*
X131699Y859409D02*
Y869569D01*
X141859D01*
Y859409D01*
X131699D01*
X133731Y861441D02*
Y867537D01*
X139827D01*
Y861441D01*
X133731D01*
X131699Y853186D02*
Y863346D01*
X141859D01*
Y853186D01*
X131699D01*
X133731Y855218D02*
Y861314D01*
X139827D01*
Y855218D01*
X133731D01*
X133985Y847217D02*
Y857377D01*
X144145D01*
Y847217D01*
X133985D01*
X136017Y849249D02*
Y855345D01*
X142113D01*
Y849249D01*
X136017D01*
X133985Y840613D02*
Y850773D01*
X144145D01*
Y840613D01*
X133985D01*
X136017Y842645D02*
Y848741D01*
X142113D01*
Y842645D01*
X136017D01*
X134112Y834263D02*
Y844423D01*
X144272D01*
Y834263D01*
X134112D01*
X136144Y836295D02*
Y842391D01*
X142240D01*
Y836295D01*
X136144D01*
X134112Y827532D02*
Y837692D01*
X144272D01*
Y827532D01*
X134112D01*
X136144Y829564D02*
Y835660D01*
X142240D01*
Y829564D01*
X136144D01*
X134239Y820928D02*
Y831088D01*
X144399D01*
Y820928D01*
X134239D01*
X136271Y822960D02*
Y829056D01*
X142367D01*
Y822960D01*
X136271D01*
X134239Y815086D02*
Y825246D01*
X144399D01*
Y815086D01*
X134239D01*
X136271Y817118D02*
Y823214D01*
X142367D01*
Y817118D01*
X136271D01*
X153162Y827024D02*
Y837184D01*
X163322D01*
Y827024D01*
X153162D01*
X155194Y829056D02*
Y835152D01*
X161290D01*
Y829056D01*
X155194D01*
X153162Y832993D02*
Y843153D01*
X163322D01*
Y832993D01*
X153162D01*
X155194Y835025D02*
Y841121D01*
X161290D01*
Y835025D01*
X155194D01*
X153162Y839470D02*
Y849630D01*
X163322D01*
Y839470D01*
X153162D01*
X155194Y841502D02*
Y847598D01*
X161290D01*
Y841502D01*
X155194D01*
X158242Y848106D02*
Y858266D01*
X168402D01*
Y848106D01*
X158242D01*
X160274Y850138D02*
Y856234D01*
X166370D01*
Y850138D01*
X160274D01*
X154940Y858901D02*
Y869061D01*
X165100D01*
Y858901D01*
X154940D01*
X156972Y860933D02*
Y867029D01*
X163068D01*
Y860933D01*
X156972D01*
X159893Y854583D02*
Y864743D01*
X170053D01*
Y854583D01*
X159893D01*
X161925Y856615D02*
Y862711D01*
X168021D01*
Y856615D01*
X161925D01*
X163322Y860425D02*
Y870585D01*
X173482D01*
Y860425D01*
X163322D01*
X165354Y862457D02*
Y868553D01*
X171450D01*
Y862457D01*
X165354D01*
X169164Y866013D02*
Y876173D01*
X179324D01*
Y866013D01*
X169164D01*
X171196Y868045D02*
Y874141D01*
X177292D01*
Y868045D01*
X171196D01*
X169418Y874014D02*
Y884174D01*
X179578D01*
Y874014D01*
X169418D01*
X171450Y876046D02*
Y882142D01*
X177546D01*
Y876046D01*
X171450D01*
X117475Y887984D02*
Y898144D01*
X127635D01*
Y887984D01*
X117475D01*
X119507Y890016D02*
Y896112D01*
X125603D01*
Y890016D01*
X119507D01*
X117221Y881380D02*
Y891540D01*
X127381D01*
Y881380D01*
X117221D01*
X119253Y883412D02*
Y889508D01*
X125349D01*
Y883412D01*
X119253D01*
X117094Y874649D02*
Y884809D01*
X127254D01*
Y874649D01*
X117094D01*
X119126Y876681D02*
Y882777D01*
X125222D01*
Y876681D01*
X119126D01*
X117348Y867537D02*
Y877697D01*
X127508D01*
Y867537D01*
X117348D01*
X119380Y869569D02*
Y875665D01*
X125476D01*
Y869569D01*
X119380D01*
X118491Y860806D02*
Y870966D01*
X128651D01*
Y860806D01*
X118491D01*
X120523Y862838D02*
Y868934D01*
X126619D01*
Y862838D01*
X120523D01*
X125095Y859790D02*
Y869950D01*
X135255D01*
Y859790D01*
X125095D01*
X127127Y861822D02*
Y867918D01*
X133223D01*
Y861822D01*
X127127D01*
X169418Y880110D02*
Y890270D01*
X179578D01*
Y880110D01*
X169418D01*
X171450Y882142D02*
Y888238D01*
X177546D01*
Y882142D01*
X171450D01*
X169164Y886587D02*
Y896747D01*
X179324D01*
Y886587D01*
X169164D01*
X171196Y888619D02*
Y894715D01*
X177292D01*
Y888619D01*
X171196D01*
X21420Y29920D02*
Y40080D01*
X31580D01*
Y29920D01*
X21420D01*
X23452Y31952D02*
Y38048D01*
X29548D01*
Y31952D01*
X23452D01*
X12920Y46920D02*
Y57080D01*
X23080D01*
Y46920D01*
X12920D01*
X14952Y48952D02*
Y55048D01*
X21048D01*
Y48952D01*
X14952D01*
X21420Y63920D02*
Y74080D01*
X31580D01*
Y63920D01*
X21420D01*
X23452Y65952D02*
Y72048D01*
X29548D01*
Y65952D01*
X23452D01*
X12920Y80920D02*
Y91080D01*
X23080D01*
Y80920D01*
X12920D01*
X14952Y82952D02*
Y89048D01*
X21048D01*
Y82952D01*
X14952D01*
X12920Y148920D02*
Y159080D01*
X23080D01*
Y148920D01*
X12920D01*
X14952Y150952D02*
Y157048D01*
X21048D01*
Y150952D01*
X14952D01*
X12920Y454920D02*
Y465080D01*
X23080D01*
Y454920D01*
X12920D01*
X14952Y456952D02*
Y463048D01*
X21048D01*
Y456952D01*
X14952D01*
X21420Y777919D02*
Y788080D01*
X31580D01*
Y777919D01*
X21420D01*
X23452Y779951D02*
Y786048D01*
X29548D01*
Y779951D01*
X23452D01*
X21420Y811919D02*
Y822079D01*
X31580D01*
Y811919D01*
X21420D01*
X23452Y813951D02*
Y820048D01*
X29548D01*
Y813951D01*
X23452D01*
X29920Y46920D02*
Y57080D01*
X40080D01*
Y46920D01*
X29920D01*
X31952Y48952D02*
Y55048D01*
X38048D01*
Y48952D01*
X31952D01*
X38420Y63920D02*
Y74080D01*
X48580D01*
Y63920D01*
X38420D01*
X40452Y65952D02*
Y72048D01*
X46548D01*
Y65952D01*
X40452D01*
X29920Y80920D02*
Y91080D01*
X40080D01*
Y80920D01*
X29920D01*
X31952Y82952D02*
Y89048D01*
X38048D01*
Y82952D01*
X31952D01*
X38420Y97920D02*
Y108080D01*
X48580D01*
Y97920D01*
X38420D01*
X40452Y99952D02*
Y106048D01*
X46548D01*
Y99952D01*
X40452D01*
X38420Y131920D02*
Y142080D01*
X48580D01*
Y131920D01*
X38420D01*
X40452Y133952D02*
Y140048D01*
X46548D01*
Y133952D01*
X40452D01*
X29920Y454920D02*
Y465080D01*
X40080D01*
Y454920D01*
X29920D01*
X31952Y456952D02*
Y463048D01*
X38048D01*
Y456952D01*
X31952D01*
X38420Y471920D02*
Y482080D01*
X48580D01*
Y471920D01*
X38420D01*
X40452Y473952D02*
Y480048D01*
X46548D01*
Y473952D01*
X40452D01*
X29920Y760919D02*
Y771079D01*
X40080D01*
Y760919D01*
X29920D01*
X31952Y762952D02*
Y769047D01*
X38048D01*
Y762952D01*
X31952D01*
X38420Y811919D02*
Y822079D01*
X48580D01*
Y811919D01*
X38420D01*
X40452Y813951D02*
Y820048D01*
X46548D01*
Y813951D01*
X40452D01*
X29920Y828919D02*
Y839079D01*
X40080D01*
Y828919D01*
X29920D01*
X31952Y830951D02*
Y837047D01*
X38048D01*
Y830951D01*
X31952D01*
X46920Y828919D02*
Y839079D01*
X57080D01*
Y828919D01*
X46920D01*
X48952Y830951D02*
Y837047D01*
X55048D01*
Y830951D01*
X48952D01*
X89420Y63920D02*
Y74080D01*
X99580D01*
Y63920D01*
X89420D01*
X91452Y65952D02*
Y72048D01*
X97548D01*
Y65952D01*
X91452D01*
X89420Y879919D02*
Y890079D01*
X99580D01*
Y879919D01*
X89420D01*
X91452Y881951D02*
Y888047D01*
X97548D01*
Y881951D01*
X91452D01*
X97920Y828919D02*
Y839079D01*
X108080D01*
Y828919D01*
X97920D01*
X99952Y830951D02*
Y837047D01*
X106048D01*
Y830951D01*
X99952D01*
X106420Y879919D02*
Y890079D01*
X116580D01*
Y879919D01*
X106420D01*
X108452Y881951D02*
Y888047D01*
X114548D01*
Y881951D01*
X108452D01*
X114920Y216920D02*
Y227080D01*
X125080D01*
Y216920D01*
X114920D01*
X116952Y218952D02*
Y225048D01*
X123048D01*
Y218952D01*
X116952D01*
X123420Y233920D02*
Y244080D01*
X133580D01*
Y233920D01*
X123420D01*
X125452Y235952D02*
Y242048D01*
X131548D01*
Y235952D01*
X125452D01*
X114920Y828919D02*
Y839079D01*
X125080D01*
Y828919D01*
X114920D01*
X116952Y830951D02*
Y837047D01*
X123048D01*
Y830951D01*
X116952D01*
X123420Y845919D02*
Y856079D01*
X133580D01*
Y845919D01*
X123420D01*
X125452Y847951D02*
Y854047D01*
X131548D01*
Y847951D01*
X125452D01*
X140420Y29920D02*
Y40080D01*
X150580D01*
Y29920D01*
X140420D01*
X142452Y31952D02*
Y38048D01*
X148548D01*
Y31952D01*
X142452D01*
X174420Y29920D02*
Y40080D01*
X184580D01*
Y29920D01*
X174420D01*
X176452Y31952D02*
Y38048D01*
X182548D01*
Y31952D01*
X176452D01*
X174420Y811919D02*
Y822079D01*
X184580D01*
Y811919D01*
X174420D01*
X176452Y813951D02*
Y820048D01*
X182548D01*
Y813951D01*
X176452D01*
X165920Y828919D02*
Y839079D01*
X176080D01*
Y828919D01*
X165920D01*
X167952Y830951D02*
Y837047D01*
X174048D01*
Y830951D01*
X167952D01*
X174420Y845919D02*
Y856079D01*
X184580D01*
Y845919D01*
X174420D01*
X176452Y847951D02*
Y854047D01*
X182548D01*
Y847951D01*
X176452D01*
X191420Y29920D02*
Y40080D01*
X201580D01*
Y29920D01*
X191420D01*
X193452Y31952D02*
Y38048D01*
X199548D01*
Y31952D01*
X193452D01*
X191420Y811919D02*
Y822079D01*
X201580D01*
Y811919D01*
X191420D01*
X193452Y813951D02*
Y820048D01*
X199548D01*
Y813951D01*
X193452D01*
X182920Y828919D02*
Y839079D01*
X193080D01*
Y828919D01*
X182920D01*
X184952Y830951D02*
Y837047D01*
X191048D01*
Y830951D01*
X184952D01*
X191420Y845919D02*
Y856079D01*
X201580D01*
Y845919D01*
X191420D01*
X193452Y847951D02*
Y854047D01*
X199548D01*
Y847951D01*
X193452D01*
X182920Y862919D02*
Y873079D01*
X193080D01*
Y862919D01*
X182920D01*
X184952Y864951D02*
Y871047D01*
X191048D01*
Y864951D01*
X184952D01*
X191420Y879919D02*
Y890079D01*
X201580D01*
Y879919D01*
X191420D01*
X193452Y881951D02*
Y888047D01*
X199548D01*
Y881951D01*
X193452D01*
X208420Y29920D02*
Y40080D01*
X218580D01*
Y29920D01*
X208420D01*
X210452Y31952D02*
Y38048D01*
X216548D01*
Y31952D01*
X210452D01*
X199920Y862919D02*
Y873079D01*
X210080D01*
Y862919D01*
X199920D01*
X201952Y864951D02*
Y871047D01*
X208048D01*
Y864951D01*
X201952D01*
X208420Y879919D02*
Y890079D01*
X218580D01*
Y879919D01*
X208420D01*
X210452Y881951D02*
Y888047D01*
X216548D01*
Y881951D01*
X210452D01*
X216920Y862919D02*
Y873079D01*
X227080D01*
Y862919D01*
X216920D01*
X218952Y864951D02*
Y871047D01*
X225048D01*
Y864951D01*
X218952D01*
X225420Y879919D02*
Y890079D01*
X235580D01*
Y879919D01*
X225420D01*
X227452Y881951D02*
Y888047D01*
X233548D01*
Y881951D01*
X227452D01*
X242420Y471920D02*
Y482080D01*
X252580D01*
Y471920D01*
X242420D01*
X244452Y473952D02*
Y480048D01*
X250548D01*
Y473952D01*
X244452D01*
X233920Y828919D02*
Y839079D01*
X244080D01*
Y828919D01*
X233920D01*
X235952Y830951D02*
Y837047D01*
X242048D01*
Y830951D01*
X235952D01*
X242420Y879919D02*
Y890079D01*
X252580D01*
Y879919D01*
X242420D01*
X244452Y881951D02*
Y888047D01*
X250548D01*
Y881951D01*
X244452D01*
X250920Y862919D02*
Y873079D01*
X261080D01*
Y862919D01*
X250920D01*
X252952Y864951D02*
Y871047D01*
X259048D01*
Y864951D01*
X252952D01*
X259420Y879919D02*
Y890079D01*
X269580D01*
Y879919D01*
X259420D01*
X261452Y881951D02*
Y888047D01*
X267548D01*
Y881951D01*
X261452D01*
X267920Y862919D02*
Y873079D01*
X278080D01*
Y862919D01*
X267920D01*
X269952Y864951D02*
Y871047D01*
X276048D01*
Y864951D01*
X269952D01*
X276420Y879919D02*
Y890079D01*
X286580D01*
Y879919D01*
X276420D01*
X278452Y881951D02*
Y888047D01*
X284548D01*
Y881951D01*
X278452D01*
X293420Y811919D02*
Y822079D01*
X303580D01*
Y811919D01*
X293420D01*
X295452Y813951D02*
Y820048D01*
X301548D01*
Y813951D01*
X295452D01*
X284920Y828919D02*
Y839079D01*
X295080D01*
Y828919D01*
X284920D01*
X286952Y830951D02*
Y837047D01*
X293048D01*
Y830951D01*
X286952D01*
X293420Y879919D02*
Y890079D01*
X303580D01*
Y879919D01*
X293420D01*
X295452Y881951D02*
Y888047D01*
X301548D01*
Y881951D01*
X295452D01*
X310420Y879919D02*
Y890079D01*
X320580D01*
Y879919D01*
X310420D01*
X312452Y881951D02*
Y888047D01*
X318548D01*
Y881951D01*
X312452D01*
X327420Y811919D02*
Y822079D01*
X337580D01*
Y811919D01*
X327420D01*
X329452Y813951D02*
Y820048D01*
X335548D01*
Y813951D01*
X329452D01*
X327420Y879919D02*
Y890079D01*
X337580D01*
Y879919D01*
X327420D01*
X329452Y881951D02*
Y888047D01*
X335548D01*
Y881951D01*
X329452D01*
X327420Y913919D02*
Y924079D01*
X337580D01*
Y913919D01*
X327420D01*
X329452Y915951D02*
Y922047D01*
X335548D01*
Y915951D01*
X329452D01*
X327420Y947919D02*
Y958079D01*
X337580D01*
Y947919D01*
X327420D01*
X329452Y949951D02*
Y956047D01*
X335548D01*
Y949951D01*
X329452D01*
X335920Y896919D02*
Y907079D01*
X346080D01*
Y896919D01*
X335920D01*
X337952Y898951D02*
Y905047D01*
X344048D01*
Y898951D01*
X337952D01*
X344420Y913919D02*
Y924079D01*
X354580D01*
Y913919D01*
X344420D01*
X346452Y915951D02*
Y922047D01*
X352548D01*
Y915951D01*
X346452D01*
X335920Y930919D02*
Y941079D01*
X346080D01*
Y930919D01*
X335920D01*
X337952Y932951D02*
Y939047D01*
X344048D01*
Y932951D01*
X337952D01*
X344420Y947919D02*
Y958079D01*
X354580D01*
Y947919D01*
X344420D01*
X346452Y949951D02*
Y956047D01*
X352548D01*
Y949951D01*
X346452D01*
X361420Y913919D02*
Y924079D01*
X371580D01*
Y913919D01*
X361420D01*
X363452Y915951D02*
Y922047D01*
X369548D01*
Y915951D01*
X363452D01*
X352920Y930919D02*
Y941079D01*
X363080D01*
Y930919D01*
X352920D01*
X354952Y932951D02*
Y939047D01*
X361048D01*
Y932951D01*
X354952D01*
X361420Y947919D02*
Y958079D01*
X371580D01*
Y947919D01*
X361420D01*
X363452Y949951D02*
Y956047D01*
X369548D01*
Y949951D01*
X363452D01*
X378420Y913919D02*
Y924079D01*
X388580D01*
Y913919D01*
X378420D01*
X380452Y915951D02*
Y922047D01*
X386548D01*
Y915951D01*
X380452D01*
X369920Y930919D02*
Y941079D01*
X380080D01*
Y930919D01*
X369920D01*
X371952Y932951D02*
Y939047D01*
X378048D01*
Y932951D01*
X371952D01*
X378420Y947919D02*
Y958079D01*
X388580D01*
Y947919D01*
X378420D01*
X380452Y949951D02*
Y956047D01*
X386548D01*
Y949951D01*
X380452D01*
X386920Y726919D02*
Y737079D01*
X397080D01*
Y726919D01*
X386920D01*
X388952Y728951D02*
Y735048D01*
X395048D01*
Y728951D01*
X388952D01*
X386920Y862919D02*
Y873079D01*
X397080D01*
Y862919D01*
X386920D01*
X388952Y864951D02*
Y871047D01*
X395048D01*
Y864951D01*
X388952D01*
X386920Y896919D02*
Y907079D01*
X397080D01*
Y896919D01*
X386920D01*
X388952Y898951D02*
Y905047D01*
X395048D01*
Y898951D01*
X388952D01*
X386920Y930919D02*
Y941079D01*
X397080D01*
Y930919D01*
X386920D01*
X388952Y932951D02*
Y939047D01*
X395048D01*
Y932951D01*
X388952D01*
X403920Y726919D02*
Y737079D01*
X414080D01*
Y726919D01*
X403920D01*
X405952Y728951D02*
Y735048D01*
X412048D01*
Y728951D01*
X405952D01*
X412420Y879919D02*
Y890079D01*
X422580D01*
Y879919D01*
X412420D01*
X414452Y881951D02*
Y888047D01*
X420548D01*
Y881951D01*
X414452D01*
X412420Y913919D02*
Y924079D01*
X422580D01*
Y913919D01*
X412420D01*
X414452Y915951D02*
Y922047D01*
X420548D01*
Y915951D01*
X414452D01*
X412420Y947919D02*
Y958079D01*
X422580D01*
Y947919D01*
X412420D01*
X414452Y949951D02*
Y956047D01*
X420548D01*
Y949951D01*
X414452D01*
X429420Y743920D02*
Y754080D01*
X439580D01*
Y743920D01*
X429420D01*
X431452Y745952D02*
Y752048D01*
X437548D01*
Y745952D01*
X431452D01*
X420920Y862919D02*
Y873079D01*
X431080D01*
Y862919D01*
X420920D01*
X422952Y864951D02*
Y871047D01*
X429048D01*
Y864951D01*
X422952D01*
X420920Y896919D02*
Y907079D01*
X431080D01*
Y896919D01*
X420920D01*
X422952Y898951D02*
Y905047D01*
X429048D01*
Y898951D01*
X422952D01*
X429420Y913919D02*
Y924079D01*
X439580D01*
Y913919D01*
X429420D01*
X431452Y915951D02*
Y922047D01*
X437548D01*
Y915951D01*
X431452D01*
X420920Y930919D02*
Y941079D01*
X431080D01*
Y930919D01*
X420920D01*
X422952Y932951D02*
Y939047D01*
X429048D01*
Y932951D01*
X422952D01*
X429420Y947919D02*
Y958079D01*
X439580D01*
Y947919D01*
X429420D01*
X431452Y949951D02*
Y956047D01*
X437548D01*
Y949951D01*
X431452D01*
X420920Y964919D02*
Y975079D01*
X431080D01*
Y964919D01*
X420920D01*
X422952Y966951D02*
Y973047D01*
X429048D01*
Y966951D01*
X422952D01*
X437920Y726919D02*
Y737079D01*
X448080D01*
Y726919D01*
X437920D01*
X439952Y728951D02*
Y735048D01*
X446048D01*
Y728951D01*
X439952D01*
X446420Y811919D02*
Y822079D01*
X456580D01*
Y811919D01*
X446420D01*
X448452Y813951D02*
Y820048D01*
X454548D01*
Y813951D01*
X448452D01*
X437920Y862919D02*
Y873079D01*
X448080D01*
Y862919D01*
X437920D01*
X439952Y864951D02*
Y871047D01*
X446048D01*
Y864951D01*
X439952D01*
X437920Y930919D02*
Y941079D01*
X448080D01*
Y930919D01*
X437920D01*
X439952Y932951D02*
Y939047D01*
X446048D01*
Y932951D01*
X439952D01*
X446420Y947919D02*
Y958079D01*
X456580D01*
Y947919D01*
X446420D01*
X448452Y949951D02*
Y956047D01*
X454548D01*
Y949951D01*
X448452D01*
X437920Y964919D02*
Y975079D01*
X448080D01*
Y964919D01*
X437920D01*
X439952Y966951D02*
Y973047D01*
X446048D01*
Y966951D01*
X439952D01*
X463420Y743920D02*
Y754080D01*
X473580D01*
Y743920D01*
X463420D01*
X465452Y745952D02*
Y752048D01*
X471548D01*
Y745952D01*
X465452D01*
X454920Y862919D02*
Y873079D01*
X465080D01*
Y862919D01*
X454920D01*
X456952Y864951D02*
Y871047D01*
X463048D01*
Y864951D01*
X456952D01*
X463420Y913919D02*
Y924079D01*
X473580D01*
Y913919D01*
X463420D01*
X465452Y915951D02*
Y922047D01*
X471548D01*
Y915951D01*
X465452D01*
X454920Y930919D02*
Y941079D01*
X465080D01*
Y930919D01*
X454920D01*
X456952Y932951D02*
Y939047D01*
X463048D01*
Y932951D01*
X456952D01*
X463420Y947919D02*
Y958079D01*
X473580D01*
Y947919D01*
X463420D01*
X465452Y949951D02*
Y956047D01*
X471548D01*
Y949951D01*
X465452D01*
X454920Y964919D02*
Y975079D01*
X465080D01*
Y964919D01*
X454920D01*
X456952Y966951D02*
Y973047D01*
X463048D01*
Y966951D01*
X456952D01*
X480420Y743920D02*
Y754080D01*
X490580D01*
Y743920D01*
X480420D01*
X482452Y745952D02*
Y752048D01*
X488548D01*
Y745952D01*
X482452D01*
X471920Y862919D02*
Y873079D01*
X482080D01*
Y862919D01*
X471920D01*
X473952Y864951D02*
Y871047D01*
X480048D01*
Y864951D01*
X473952D01*
X480420Y879919D02*
Y890079D01*
X490580D01*
Y879919D01*
X480420D01*
X482452Y881951D02*
Y888047D01*
X488548D01*
Y881951D01*
X482452D01*
X480420Y913919D02*
Y924079D01*
X490580D01*
Y913919D01*
X480420D01*
X482452Y915951D02*
Y922047D01*
X488548D01*
Y915951D01*
X482452D01*
X471920Y930919D02*
Y941079D01*
X482080D01*
Y930919D01*
X471920D01*
X473952Y932951D02*
Y939047D01*
X480048D01*
Y932951D01*
X473952D01*
X480420Y947919D02*
Y958079D01*
X490580D01*
Y947919D01*
X480420D01*
X482452Y949951D02*
Y956047D01*
X488548D01*
Y949951D01*
X482452D01*
X471920Y964919D02*
Y975079D01*
X482080D01*
Y964919D01*
X471920D01*
X473952Y966951D02*
Y973047D01*
X480048D01*
Y966951D01*
X473952D01*
X488920Y624920D02*
Y635080D01*
X499080D01*
Y624920D01*
X488920D01*
X490952Y626952D02*
Y633048D01*
X497048D01*
Y626952D01*
X490952D01*
X497420Y743920D02*
Y754080D01*
X507580D01*
Y743920D01*
X497420D01*
X499452Y745952D02*
Y752048D01*
X505548D01*
Y745952D01*
X499452D01*
X488920Y862919D02*
Y873079D01*
X499080D01*
Y862919D01*
X488920D01*
X490952Y864951D02*
Y871047D01*
X497048D01*
Y864951D01*
X490952D01*
X488920Y896919D02*
Y907079D01*
X499080D01*
Y896919D01*
X488920D01*
X490952Y898951D02*
Y905047D01*
X497048D01*
Y898951D01*
X490952D01*
X488920Y964919D02*
Y975079D01*
X499080D01*
Y964919D01*
X488920D01*
X490952Y966951D02*
Y973047D01*
X497048D01*
Y966951D01*
X490952D01*
X505920Y658920D02*
Y669080D01*
X516080D01*
Y658920D01*
X505920D01*
X507952Y660952D02*
Y667048D01*
X514048D01*
Y660952D01*
X507952D01*
X514420Y675919D02*
Y686079D01*
X524580D01*
Y675919D01*
X514420D01*
X516452Y677952D02*
Y684047D01*
X522548D01*
Y677952D01*
X516452D01*
X514420Y743920D02*
Y754080D01*
X524580D01*
Y743920D01*
X514420D01*
X516452Y745952D02*
Y752048D01*
X522548D01*
Y745952D01*
X516452D01*
X514420Y879919D02*
Y890079D01*
X524580D01*
Y879919D01*
X514420D01*
X516452Y881951D02*
Y888047D01*
X522548D01*
Y881951D01*
X516452D01*
X514420Y947919D02*
Y958079D01*
X524580D01*
Y947919D01*
X514420D01*
X516452Y949951D02*
Y956047D01*
X522548D01*
Y949951D01*
X516452D01*
X505920Y964919D02*
Y975079D01*
X516080D01*
Y964919D01*
X505920D01*
X507952Y966951D02*
Y973047D01*
X514048D01*
Y966951D01*
X507952D01*
X522920Y658920D02*
Y669080D01*
X533080D01*
Y658920D01*
X522920D01*
X524952Y660952D02*
Y667048D01*
X531048D01*
Y660952D01*
X524952D01*
X531420Y743920D02*
Y754080D01*
X541580D01*
Y743920D01*
X531420D01*
X533452Y745952D02*
Y752048D01*
X539548D01*
Y745952D01*
X533452D01*
X522920Y896919D02*
Y907079D01*
X533080D01*
Y896919D01*
X522920D01*
X524952Y898951D02*
Y905047D01*
X531048D01*
Y898951D01*
X524952D01*
X531420Y947919D02*
Y958079D01*
X541580D01*
Y947919D01*
X531420D01*
X533452Y949951D02*
Y956047D01*
X539548D01*
Y949951D01*
X533452D01*
X522920Y964919D02*
Y975079D01*
X533080D01*
Y964919D01*
X522920D01*
X524952Y966951D02*
Y973047D01*
X531048D01*
Y966951D01*
X524952D01*
X539920Y658920D02*
Y669080D01*
X550080D01*
Y658920D01*
X539920D01*
X541952Y660952D02*
Y667048D01*
X548048D01*
Y660952D01*
X541952D01*
X548420Y743920D02*
Y754080D01*
X558580D01*
Y743920D01*
X548420D01*
X550452Y745952D02*
Y752048D01*
X556548D01*
Y745952D01*
X550452D01*
X539920Y896919D02*
Y907079D01*
X550080D01*
Y896919D01*
X539920D01*
X541952Y898951D02*
Y905047D01*
X548048D01*
Y898951D01*
X541952D01*
X539920Y964919D02*
Y975079D01*
X550080D01*
Y964919D01*
X539920D01*
X541952Y966951D02*
Y973047D01*
X548048D01*
Y966951D01*
X541952D01*
X565420Y641919D02*
Y652079D01*
X575580D01*
Y641919D01*
X565420D01*
X567452Y643951D02*
Y650048D01*
X573548D01*
Y643951D01*
X567452D01*
X556920Y658920D02*
Y669080D01*
X567080D01*
Y658920D01*
X556920D01*
X558952Y660952D02*
Y667048D01*
X565048D01*
Y660952D01*
X558952D01*
X556920Y692919D02*
Y703080D01*
X567080D01*
Y692919D01*
X556920D01*
X558952Y694951D02*
Y701048D01*
X565048D01*
Y694951D01*
X558952D01*
X565420Y743920D02*
Y754080D01*
X575580D01*
Y743920D01*
X565420D01*
X567452Y745952D02*
Y752048D01*
X573548D01*
Y745952D01*
X567452D01*
X556920Y896919D02*
Y907079D01*
X567080D01*
Y896919D01*
X556920D01*
X558952Y898951D02*
Y905047D01*
X565048D01*
Y898951D01*
X558952D01*
X565420Y913919D02*
Y924079D01*
X575580D01*
Y913919D01*
X565420D01*
X567452Y915951D02*
Y922047D01*
X573548D01*
Y915951D01*
X567452D01*
X556920Y964919D02*
Y975079D01*
X567080D01*
Y964919D01*
X556920D01*
X558952Y966951D02*
Y973047D01*
X565048D01*
Y966951D01*
X558952D01*
X582420Y641919D02*
Y652079D01*
X592580D01*
Y641919D01*
X582420D01*
X584452Y643951D02*
Y650048D01*
X590548D01*
Y643951D01*
X584452D01*
X573920Y658920D02*
Y669080D01*
X584080D01*
Y658920D01*
X573920D01*
X575952Y660952D02*
Y667048D01*
X582048D01*
Y660952D01*
X575952D01*
X573920Y692919D02*
Y703080D01*
X584080D01*
Y692919D01*
X573920D01*
X575952Y694951D02*
Y701048D01*
X582048D01*
Y694951D01*
X575952D01*
X582420Y743920D02*
Y754080D01*
X592580D01*
Y743920D01*
X582420D01*
X584452Y745952D02*
Y752048D01*
X590548D01*
Y745952D01*
X584452D01*
X573920Y896919D02*
Y907079D01*
X584080D01*
Y896919D01*
X573920D01*
X575952Y898951D02*
Y905047D01*
X582048D01*
Y898951D01*
X575952D01*
X582420Y913919D02*
Y924079D01*
X592580D01*
Y913919D01*
X582420D01*
X584452Y915951D02*
Y922047D01*
X590548D01*
Y915951D01*
X584452D01*
X573920Y930919D02*
Y941079D01*
X584080D01*
Y930919D01*
X573920D01*
X575952Y932951D02*
Y939047D01*
X582048D01*
Y932951D01*
X575952D01*
X573920Y964919D02*
Y975079D01*
X584080D01*
Y964919D01*
X573920D01*
X575952Y966951D02*
Y973047D01*
X582048D01*
Y966951D01*
X575952D01*
X599420Y369920D02*
Y380080D01*
X609580D01*
Y369920D01*
X599420D01*
X601452Y371952D02*
Y378048D01*
X607548D01*
Y371952D01*
X601452D01*
X599420Y471920D02*
Y482080D01*
X609580D01*
Y471920D01*
X599420D01*
X601452Y473952D02*
Y480048D01*
X607548D01*
Y473952D01*
X601452D01*
X599420Y641919D02*
Y652079D01*
X609580D01*
Y641919D01*
X599420D01*
X601452Y643951D02*
Y650048D01*
X607548D01*
Y643951D01*
X601452D01*
X590920Y658920D02*
Y669080D01*
X601080D01*
Y658920D01*
X590920D01*
X592952Y660952D02*
Y667048D01*
X599048D01*
Y660952D01*
X592952D01*
X590920Y964919D02*
Y975079D01*
X601080D01*
Y964919D01*
X590920D01*
X592952Y966951D02*
Y973047D01*
X599048D01*
Y966951D01*
X592952D01*
X616419Y471920D02*
Y482080D01*
X626580D01*
Y471920D01*
X616419D01*
X618451Y473952D02*
Y480048D01*
X624548D01*
Y473952D01*
X618451D01*
X616419Y573920D02*
Y584080D01*
X626580D01*
Y573920D01*
X616419D01*
X618451Y575952D02*
Y582048D01*
X624548D01*
Y575952D01*
X618451D01*
X607920Y658920D02*
Y669080D01*
X618080D01*
Y658920D01*
X607920D01*
X609952Y660952D02*
Y667048D01*
X616048D01*
Y660952D01*
X609952D01*
X607920Y896919D02*
Y907079D01*
X618080D01*
Y896919D01*
X607920D01*
X609952Y898951D02*
Y905047D01*
X616048D01*
Y898951D01*
X609952D01*
X607920Y964919D02*
Y975079D01*
X618080D01*
Y964919D01*
X607920D01*
X609952Y966951D02*
Y973047D01*
X616048D01*
Y966951D01*
X609952D01*
X624920Y522920D02*
Y533080D01*
X635080D01*
Y522920D01*
X624920D01*
X626952Y524952D02*
Y531048D01*
X633048D01*
Y524952D01*
X626952D01*
X633419Y539920D02*
Y550080D01*
X643579D01*
Y539920D01*
X633419D01*
X635452Y541952D02*
Y548048D01*
X641547D01*
Y541952D01*
X635452D01*
X624920Y556920D02*
Y567080D01*
X635080D01*
Y556920D01*
X624920D01*
X626952Y558952D02*
Y565048D01*
X633048D01*
Y558952D01*
X626952D01*
X633419Y573920D02*
Y584080D01*
X643579D01*
Y573920D01*
X633419D01*
X635452Y575952D02*
Y582048D01*
X641547D01*
Y575952D01*
X635452D01*
X633419Y743920D02*
Y754080D01*
X643579D01*
Y743920D01*
X633419D01*
X635452Y745952D02*
Y752048D01*
X641547D01*
Y745952D01*
X635452D01*
X633419Y879919D02*
Y890079D01*
X643579D01*
Y879919D01*
X633419D01*
X635452Y881951D02*
Y888047D01*
X641547D01*
Y881951D01*
X635452D01*
X624920Y896919D02*
Y907079D01*
X635080D01*
Y896919D01*
X624920D01*
X626952Y898951D02*
Y905047D01*
X633048D01*
Y898951D01*
X626952D01*
X624920Y964919D02*
Y975079D01*
X635080D01*
Y964919D01*
X624920D01*
X626952Y966951D02*
Y973047D01*
X633048D01*
Y966951D01*
X626952D01*
X650419Y471920D02*
Y482080D01*
X660580D01*
Y471920D01*
X650419D01*
X652451Y473952D02*
Y480048D01*
X658548D01*
Y473952D01*
X652451D01*
X641919Y556920D02*
Y567080D01*
X652079D01*
Y556920D01*
X641919D01*
X643951Y558952D02*
Y565048D01*
X650048D01*
Y558952D01*
X643951D01*
X650419Y879919D02*
Y890079D01*
X660580D01*
Y879919D01*
X650419D01*
X652451Y881951D02*
Y888047D01*
X658548D01*
Y881951D01*
X652451D01*
X641919Y896919D02*
Y907079D01*
X652079D01*
Y896919D01*
X641919D01*
X643951Y898951D02*
Y905047D01*
X650048D01*
Y898951D01*
X643951D01*
X641919Y964919D02*
Y975079D01*
X652079D01*
Y964919D01*
X641919D01*
X643951Y966951D02*
Y973047D01*
X650048D01*
Y966951D01*
X643951D01*
X658920Y318920D02*
Y329080D01*
X669080D01*
Y318920D01*
X658920D01*
X660952Y320952D02*
Y327048D01*
X667048D01*
Y320952D01*
X660952D01*
X658920Y352920D02*
Y363080D01*
X669080D01*
Y352920D01*
X658920D01*
X660952Y354952D02*
Y361048D01*
X667048D01*
Y354952D01*
X660952D01*
X667420Y369920D02*
Y380080D01*
X677579D01*
Y369920D01*
X667420D01*
X669452Y371952D02*
Y378048D01*
X675547D01*
Y371952D01*
X669452D01*
X667420Y879919D02*
Y890079D01*
X677579D01*
Y879919D01*
X667420D01*
X669452Y881951D02*
Y888047D01*
X675547D01*
Y881951D01*
X669452D01*
X658920Y896919D02*
Y907079D01*
X669080D01*
Y896919D01*
X658920D01*
X660952Y898951D02*
Y905047D01*
X667048D01*
Y898951D01*
X660952D01*
X667420Y913919D02*
Y924079D01*
X677579D01*
Y913919D01*
X667420D01*
X669452Y915951D02*
Y922047D01*
X675547D01*
Y915951D01*
X669452D01*
X667420Y947919D02*
Y958079D01*
X677579D01*
Y947919D01*
X667420D01*
X669452Y949951D02*
Y956047D01*
X675547D01*
Y949951D01*
X669452D01*
X658920Y964919D02*
Y975079D01*
X669080D01*
Y964919D01*
X658920D01*
X660952Y966951D02*
Y973047D01*
X667048D01*
Y966951D01*
X660952D01*
X675919Y352920D02*
Y363080D01*
X686079D01*
Y352920D01*
X675919D01*
X677952Y354952D02*
Y361048D01*
X684047D01*
Y354952D01*
X677952D01*
X684419Y369920D02*
Y380080D01*
X694579D01*
Y369920D01*
X684419D01*
X686451Y371952D02*
Y378048D01*
X692548D01*
Y371952D01*
X686451D01*
X675919Y386920D02*
Y397080D01*
X686079D01*
Y386920D01*
X675919D01*
X677952Y388952D02*
Y395048D01*
X684047D01*
Y388952D01*
X677952D01*
X684419Y777919D02*
Y788080D01*
X694579D01*
Y777919D01*
X684419D01*
X686451Y779951D02*
Y786048D01*
X692548D01*
Y779951D01*
X686451D01*
X684419Y913919D02*
Y924079D01*
X694579D01*
Y913919D01*
X684419D01*
X686451Y915951D02*
Y922047D01*
X692548D01*
Y915951D01*
X686451D01*
X675919Y964919D02*
Y975079D01*
X686079D01*
Y964919D01*
X675919D01*
X677952Y966951D02*
Y973047D01*
X684047D01*
Y966951D01*
X677952D01*
X701420Y29920D02*
Y40080D01*
X711580D01*
Y29920D01*
X701420D01*
X703452Y31952D02*
Y38048D01*
X709548D01*
Y31952D01*
X703452D01*
X701420Y369920D02*
Y380080D01*
X711580D01*
Y369920D01*
X701420D01*
X703452Y371952D02*
Y378048D01*
X709548D01*
Y371952D01*
X703452D01*
X701420Y539920D02*
Y550080D01*
X711580D01*
Y539920D01*
X701420D01*
X703452Y541952D02*
Y548048D01*
X709548D01*
Y541952D01*
X703452D01*
X701420Y607920D02*
Y618080D01*
X711580D01*
Y607920D01*
X701420D01*
X703452Y609952D02*
Y616048D01*
X709548D01*
Y609952D01*
X703452D01*
X692919Y862919D02*
Y873079D01*
X703080D01*
Y862919D01*
X692919D01*
X694951Y864951D02*
Y871047D01*
X701048D01*
Y864951D01*
X694951D01*
X692919Y930919D02*
Y941079D01*
X703080D01*
Y930919D01*
X692919D01*
X694951Y932951D02*
Y939047D01*
X701048D01*
Y932951D01*
X694951D01*
X701420Y947919D02*
Y958079D01*
X711580D01*
Y947919D01*
X701420D01*
X703452Y949951D02*
Y956047D01*
X709548D01*
Y949951D01*
X703452D01*
X718419Y505920D02*
Y516080D01*
X728579D01*
Y505920D01*
X718419D01*
X720452Y507952D02*
Y514048D01*
X726547D01*
Y507952D01*
X720452D01*
X709920Y522920D02*
Y533080D01*
X720079D01*
Y522920D01*
X709920D01*
X711952Y524952D02*
Y531048D01*
X718047D01*
Y524952D01*
X711952D01*
X718419Y539920D02*
Y550080D01*
X728579D01*
Y539920D01*
X718419D01*
X720452Y541952D02*
Y548048D01*
X726547D01*
Y541952D01*
X720452D01*
X709920Y556920D02*
Y567080D01*
X720079D01*
Y556920D01*
X709920D01*
X711952Y558952D02*
Y565048D01*
X718047D01*
Y558952D01*
X711952D01*
X718419Y913919D02*
Y924079D01*
X728579D01*
Y913919D01*
X718419D01*
X720452Y915951D02*
Y922047D01*
X726547D01*
Y915951D01*
X720452D01*
X709920Y930919D02*
Y941079D01*
X720079D01*
Y930919D01*
X709920D01*
X711952Y932951D02*
Y939047D01*
X718047D01*
Y932951D01*
X711952D01*
X718419Y947919D02*
Y958079D01*
X728579D01*
Y947919D01*
X718419D01*
X720452Y949951D02*
Y956047D01*
X726547D01*
Y949951D01*
X720452D01*
X726919Y12920D02*
Y23080D01*
X737079D01*
Y12920D01*
X726919D01*
X728951Y14952D02*
Y21048D01*
X735048D01*
Y14952D01*
X728951D01*
X726919Y352920D02*
Y363080D01*
X737079D01*
Y352920D01*
X726919D01*
X728951Y354952D02*
Y361048D01*
X735048D01*
Y354952D01*
X728951D01*
X735419Y437920D02*
Y448080D01*
X745580D01*
Y437920D01*
X735419D01*
X737451Y439952D02*
Y446048D01*
X743548D01*
Y439952D01*
X737451D01*
X735419Y879919D02*
Y890079D01*
X745580D01*
Y879919D01*
X735419D01*
X737451Y881951D02*
Y888047D01*
X743548D01*
Y881951D01*
X737451D01*
X726919Y896919D02*
Y907079D01*
X737079D01*
Y896919D01*
X726919D01*
X728951Y898951D02*
Y905047D01*
X735048D01*
Y898951D01*
X728951D01*
X735419Y913919D02*
Y924079D01*
X745580D01*
Y913919D01*
X735419D01*
X737451Y915951D02*
Y922047D01*
X743548D01*
Y915951D01*
X737451D01*
X726919Y930919D02*
Y941079D01*
X737079D01*
Y930919D01*
X726919D01*
X728951Y932951D02*
Y939047D01*
X735048D01*
Y932951D01*
X728951D01*
X735419Y947919D02*
Y958079D01*
X745580D01*
Y947919D01*
X735419D01*
X737451Y949951D02*
Y956047D01*
X743548D01*
Y949951D01*
X737451D01*
X743920Y12920D02*
Y23080D01*
X754080D01*
Y12920D01*
X743920D01*
X745952Y14952D02*
Y21048D01*
X752048D01*
Y14952D01*
X745952D01*
X743920Y522920D02*
Y533080D01*
X754080D01*
Y522920D01*
X743920D01*
X745952Y524952D02*
Y531048D01*
X752048D01*
Y524952D01*
X745952D01*
X743920Y896919D02*
Y907079D01*
X754080D01*
Y896919D01*
X743920D01*
X745952Y898951D02*
Y905047D01*
X752048D01*
Y898951D01*
X745952D01*
X743920Y930919D02*
Y941079D01*
X754080D01*
Y930919D01*
X743920D01*
X745952Y932951D02*
Y939047D01*
X752048D01*
Y932951D01*
X745952D01*
X760919Y12920D02*
Y23080D01*
X771079D01*
Y12920D01*
X760919D01*
X762952Y14952D02*
Y21048D01*
X769047D01*
Y14952D01*
X762952D01*
X760919Y182920D02*
Y193080D01*
X771079D01*
Y182920D01*
X760919D01*
X762952Y184952D02*
Y191048D01*
X769047D01*
Y184952D01*
X762952D01*
X777919Y12920D02*
Y23080D01*
X788080D01*
Y12920D01*
X777919D01*
X779951Y14952D02*
Y21048D01*
X786048D01*
Y14952D01*
X779951D01*
X777919Y488920D02*
Y499080D01*
X788080D01*
Y488920D01*
X777919D01*
X779951Y490952D02*
Y497048D01*
X786048D01*
Y490952D01*
X779951D01*
X786420Y913919D02*
Y924079D01*
X796580D01*
Y913919D01*
X786420D01*
X788452Y915951D02*
Y922047D01*
X794548D01*
Y915951D01*
X788452D01*
X777919Y930919D02*
Y941079D01*
X788080D01*
Y930919D01*
X777919D01*
X779951Y932951D02*
Y939047D01*
X786048D01*
Y932951D01*
X779951D01*
X786420Y947919D02*
Y958079D01*
X796580D01*
Y947919D01*
X786420D01*
X788452Y949951D02*
Y956047D01*
X794548D01*
Y949951D01*
X788452D01*
X794920Y12920D02*
Y23080D01*
X805079D01*
Y12920D01*
X794920D01*
X796952Y14952D02*
Y21048D01*
X803047D01*
Y14952D01*
X796952D01*
X803419Y63920D02*
Y74080D01*
X813579D01*
Y63920D01*
X803419D01*
X805451Y65952D02*
Y72048D01*
X811547D01*
Y65952D01*
X805451D01*
X803419Y913919D02*
Y924079D01*
X813579D01*
Y913919D01*
X803419D01*
X805451Y915951D02*
Y922047D01*
X811547D01*
Y915951D01*
X805451D01*
X794920Y930919D02*
Y941079D01*
X805079D01*
Y930919D01*
X794920D01*
X796952Y932951D02*
Y939047D01*
X803047D01*
Y932951D01*
X796952D01*
X803419Y947919D02*
Y958079D01*
X813579D01*
Y947919D01*
X803419D01*
X805451Y949951D02*
Y956047D01*
X811547D01*
Y949951D01*
X805451D01*
X820419Y63920D02*
Y74080D01*
X830579D01*
Y63920D01*
X820419D01*
X822451Y65952D02*
Y72048D01*
X828547D01*
Y65952D01*
X822451D01*
X820419Y811919D02*
Y822079D01*
X830579D01*
Y811919D01*
X820419D01*
X822451Y813951D02*
Y820048D01*
X828547D01*
Y813951D01*
X822451D01*
X820419Y913919D02*
Y924079D01*
X830579D01*
Y913919D01*
X820419D01*
X822451Y915951D02*
Y922047D01*
X828547D01*
Y915951D01*
X822451D01*
X811919Y930919D02*
Y941079D01*
X822079D01*
Y930919D01*
X811919D01*
X813951Y932951D02*
Y939047D01*
X820048D01*
Y932951D01*
X813951D01*
X820419Y947919D02*
Y958079D01*
X830579D01*
Y947919D01*
X820419D01*
X822451Y949951D02*
Y956047D01*
X828547D01*
Y949951D01*
X822451D01*
X828919Y12920D02*
Y23080D01*
X839079D01*
Y12920D01*
X828919D01*
X830951Y14952D02*
Y21048D01*
X837047D01*
Y14952D01*
X830951D01*
X837419Y29920D02*
Y40080D01*
X847579D01*
Y29920D01*
X837419D01*
X839451Y31952D02*
Y38048D01*
X845547D01*
Y31952D01*
X839451D01*
X837419Y131920D02*
Y142080D01*
X847579D01*
Y131920D01*
X837419D01*
X839451Y133952D02*
Y140048D01*
X845547D01*
Y133952D01*
X839451D01*
X845919Y12920D02*
Y23080D01*
X856079D01*
Y12920D01*
X845919D01*
X847951Y14952D02*
Y21048D01*
X854047D01*
Y14952D01*
X847951D01*
X854419Y29920D02*
Y40080D01*
X864579D01*
Y29920D01*
X854419D01*
X856451Y31952D02*
Y38048D01*
X862547D01*
Y31952D01*
X856451D01*
X854419Y845919D02*
Y856079D01*
X864579D01*
Y845919D01*
X854419D01*
X856451Y847951D02*
Y854047D01*
X862547D01*
Y847951D01*
X856451D01*
X862919Y828919D02*
Y839079D01*
X873079D01*
Y828919D01*
X862919D01*
X864951Y830951D02*
Y837047D01*
X871047D01*
Y830951D01*
X864951D01*
X879919Y80920D02*
Y91080D01*
X890079D01*
Y80920D01*
X879919D01*
X881951Y82952D02*
Y89048D01*
X888047D01*
Y82952D01*
X881951D01*
X879919Y352920D02*
Y363080D01*
X890079D01*
Y352920D01*
X879919D01*
X881951Y354952D02*
Y361048D01*
X888047D01*
Y354952D01*
X881951D01*
X896919Y12920D02*
Y23080D01*
X907079D01*
Y12920D01*
X896919D01*
X898951Y14952D02*
Y21048D01*
X905047D01*
Y14952D01*
X898951D01*
X896919Y624920D02*
Y635080D01*
X907079D01*
Y624920D01*
X896919D01*
X898951Y626952D02*
Y633048D01*
X905047D01*
Y626952D01*
X898951D01*
X913919Y12920D02*
Y23080D01*
X924079D01*
Y12920D01*
X913919D01*
X915951Y14952D02*
Y21048D01*
X922047D01*
Y14952D01*
X915951D01*
X947919Y12920D02*
Y23080D01*
X958079D01*
Y12920D01*
X947919D01*
X949951Y14952D02*
Y21048D01*
X956047D01*
Y14952D01*
X949951D01*
X956419Y29920D02*
Y40080D01*
X966579D01*
Y29920D01*
X956419D01*
X958451Y31952D02*
Y38048D01*
X964547D01*
Y31952D01*
X958451D01*
X964919Y12920D02*
Y23080D01*
X975079D01*
Y12920D01*
X964919D01*
X966951Y14952D02*
Y21048D01*
X973047D01*
Y14952D01*
X966951D01*
X973419Y29920D02*
Y40080D01*
X983579D01*
Y29920D01*
X973419D01*
X975451Y31952D02*
Y38048D01*
X981547D01*
Y31952D01*
X975451D01*
X981919Y12920D02*
Y23080D01*
X992079D01*
Y12920D01*
X981919D01*
X983951Y14952D02*
Y21048D01*
X990047D01*
Y14952D01*
X983951D01*
X990419Y29920D02*
Y40080D01*
X1000579D01*
Y29920D01*
X990419D01*
X992451Y31952D02*
Y38048D01*
X998547D01*
Y31952D01*
X992451D01*
X990419Y573920D02*
Y584080D01*
X1000579D01*
Y573920D01*
X990419D01*
X992451Y575952D02*
Y582048D01*
X998547D01*
Y575952D01*
X992451D01*
X981919Y658920D02*
Y669080D01*
X992079D01*
Y658920D01*
X981919D01*
X983951Y660952D02*
Y667048D01*
X990047D01*
Y660952D01*
X983951D01*
X990419Y879919D02*
Y890079D01*
X1000579D01*
Y879919D01*
X990419D01*
X992451Y881951D02*
Y888047D01*
X998547D01*
Y881951D01*
X992451D01*
X998919Y12920D02*
Y23080D01*
X1009079D01*
Y12920D01*
X998919D01*
X1000951Y14952D02*
Y21048D01*
X1007047D01*
Y14952D01*
X1000951D01*
X1007419Y29920D02*
Y40080D01*
X1017579D01*
Y29920D01*
X1007419D01*
X1009451Y31952D02*
Y38048D01*
X1015547D01*
Y31952D01*
X1009451D01*
X998919Y828919D02*
Y839079D01*
X1009079D01*
Y828919D01*
X998919D01*
X1000951Y830951D02*
Y837047D01*
X1007047D01*
Y830951D01*
X1000951D01*
X1007419Y879919D02*
Y890079D01*
X1017579D01*
Y879919D01*
X1007419D01*
X1009451Y881951D02*
Y888047D01*
X1015547D01*
Y881951D01*
X1009451D01*
X1015919Y12920D02*
Y23080D01*
X1026079D01*
Y12920D01*
X1015919D01*
X1017951Y14952D02*
Y21048D01*
X1024047D01*
Y14952D01*
X1017951D01*
X1015919Y182920D02*
Y193080D01*
X1026079D01*
Y182920D01*
X1015919D01*
X1017951Y184952D02*
Y191048D01*
X1024047D01*
Y184952D01*
X1017951D01*
X1024419Y879919D02*
Y890079D01*
X1034579D01*
Y879919D01*
X1024419D01*
X1026451Y881951D02*
Y888047D01*
X1032547D01*
Y881951D01*
X1026451D01*
X1032919Y46920D02*
Y57080D01*
X1043079D01*
Y46920D01*
X1032919D01*
X1034951Y48952D02*
Y55048D01*
X1041047D01*
Y48952D01*
X1034951D01*
X1041419Y63920D02*
Y74080D01*
X1051579D01*
Y63920D01*
X1041419D01*
X1043451Y65952D02*
Y72048D01*
X1049547D01*
Y65952D01*
X1043451D01*
X1041419Y879919D02*
Y890079D01*
X1051579D01*
Y879919D01*
X1041419D01*
X1043451Y881951D02*
Y888047D01*
X1049547D01*
Y881951D01*
X1043451D01*
X1058419Y29920D02*
Y40080D01*
X1068579D01*
Y29920D01*
X1058419D01*
X1060451Y31952D02*
Y38048D01*
X1066547D01*
Y31952D01*
X1060451D01*
X1049919Y46920D02*
Y57080D01*
X1060079D01*
Y46920D01*
X1049919D01*
X1051951Y48952D02*
Y55048D01*
X1058047D01*
Y48952D01*
X1051951D01*
X1058419Y63920D02*
Y74080D01*
X1068579D01*
Y63920D01*
X1058419D01*
X1060451Y65952D02*
Y72048D01*
X1066547D01*
Y65952D01*
X1060451D01*
X1058419Y811919D02*
Y822079D01*
X1068579D01*
Y811919D01*
X1058419D01*
X1060451Y813951D02*
Y820048D01*
X1066547D01*
Y813951D01*
X1060451D01*
X1058419Y879919D02*
Y890079D01*
X1068579D01*
Y879919D01*
X1058419D01*
X1060451Y881951D02*
Y888047D01*
X1066547D01*
Y881951D01*
X1060451D01*
X1066919Y12920D02*
Y23080D01*
X1077079D01*
Y12920D01*
X1066919D01*
X1068951Y14952D02*
Y21048D01*
X1075047D01*
Y14952D01*
X1068951D01*
X1075419Y29920D02*
Y40080D01*
X1085579D01*
Y29920D01*
X1075419D01*
X1077451Y31952D02*
Y38048D01*
X1083547D01*
Y31952D01*
X1077451D01*
X1066919Y46920D02*
Y57080D01*
X1077079D01*
Y46920D01*
X1066919D01*
X1068951Y48952D02*
Y55048D01*
X1075047D01*
Y48952D01*
X1068951D01*
X1075419Y63920D02*
Y74080D01*
X1085579D01*
Y63920D01*
X1075419D01*
X1077451Y65952D02*
Y72048D01*
X1083547D01*
Y65952D01*
X1077451D01*
X1066919Y80920D02*
Y91080D01*
X1077079D01*
Y80920D01*
X1066919D01*
X1068951Y82952D02*
Y89048D01*
X1075047D01*
Y82952D01*
X1068951D01*
X1075419Y165920D02*
Y176080D01*
X1085579D01*
Y165920D01*
X1075419D01*
X1077451Y167952D02*
Y174048D01*
X1083547D01*
Y167952D01*
X1077451D01*
X1075419Y199920D02*
Y210080D01*
X1085579D01*
Y199920D01*
X1075419D01*
X1077451Y201952D02*
Y208048D01*
X1083547D01*
Y201952D01*
X1077451D01*
X1075419Y335920D02*
Y346080D01*
X1085579D01*
Y335920D01*
X1075419D01*
X1077451Y337952D02*
Y344048D01*
X1083547D01*
Y337952D01*
X1077451D01*
X1075419Y471920D02*
Y482080D01*
X1085579D01*
Y471920D01*
X1075419D01*
X1077451Y473952D02*
Y480048D01*
X1083547D01*
Y473952D01*
X1077451D01*
X1066919Y556920D02*
Y567080D01*
X1077079D01*
Y556920D01*
X1066919D01*
X1068951Y558952D02*
Y565048D01*
X1075047D01*
Y558952D01*
X1068951D01*
X1075419Y573920D02*
Y584080D01*
X1085579D01*
Y573920D01*
X1075419D01*
X1077451Y575952D02*
Y582048D01*
X1083547D01*
Y575952D01*
X1077451D01*
X1066919Y590920D02*
Y601080D01*
X1077079D01*
Y590920D01*
X1066919D01*
X1068951Y592952D02*
Y599048D01*
X1075047D01*
Y592952D01*
X1068951D01*
X1075419Y675919D02*
Y686079D01*
X1085579D01*
Y675919D01*
X1075419D01*
X1077451Y677952D02*
Y684047D01*
X1083547D01*
Y677952D01*
X1077451D01*
X1066919Y692919D02*
Y703080D01*
X1077079D01*
Y692919D01*
X1066919D01*
X1068951Y694951D02*
Y701048D01*
X1075047D01*
Y694951D01*
X1068951D01*
X1066919Y726919D02*
Y737079D01*
X1077079D01*
Y726919D01*
X1066919D01*
X1068951Y728951D02*
Y735048D01*
X1075047D01*
Y728951D01*
X1068951D01*
X1075419Y811919D02*
Y822079D01*
X1085579D01*
Y811919D01*
X1075419D01*
X1077451Y813951D02*
Y820048D01*
X1083547D01*
Y813951D01*
X1077451D01*
X1083919Y12920D02*
Y23080D01*
X1094079D01*
Y12920D01*
X1083919D01*
X1085951Y14952D02*
Y21048D01*
X1092047D01*
Y14952D01*
X1085951D01*
X1092419Y29920D02*
Y40080D01*
X1102579D01*
Y29920D01*
X1092419D01*
X1094451Y31952D02*
Y38048D01*
X1100547D01*
Y31952D01*
X1094451D01*
X1083919Y46920D02*
Y57080D01*
X1094079D01*
Y46920D01*
X1083919D01*
X1085951Y48952D02*
Y55048D01*
X1092047D01*
Y48952D01*
X1085951D01*
X1092419Y63920D02*
Y74080D01*
X1102579D01*
Y63920D01*
X1092419D01*
X1094451Y65952D02*
Y72048D01*
X1100547D01*
Y65952D01*
X1094451D01*
X1083919Y80920D02*
Y91080D01*
X1094079D01*
Y80920D01*
X1083919D01*
X1085951Y82952D02*
Y89048D01*
X1092047D01*
Y82952D01*
X1085951D01*
X1083919Y182920D02*
Y193080D01*
X1094079D01*
Y182920D01*
X1083919D01*
X1085951Y184952D02*
Y191048D01*
X1092047D01*
Y184952D01*
X1085951D01*
X1092419Y199920D02*
Y210080D01*
X1102579D01*
Y199920D01*
X1092419D01*
X1094451Y201952D02*
Y208048D01*
X1100547D01*
Y201952D01*
X1094451D01*
X1083919Y318920D02*
Y329080D01*
X1094079D01*
Y318920D01*
X1083919D01*
X1085951Y320952D02*
Y327048D01*
X1092047D01*
Y320952D01*
X1085951D01*
X1092419Y335920D02*
Y346080D01*
X1102579D01*
Y335920D01*
X1092419D01*
X1094451Y337952D02*
Y344048D01*
X1100547D01*
Y337952D01*
X1094451D01*
X1100919Y12920D02*
Y23080D01*
X1111079D01*
Y12920D01*
X1100919D01*
X1102951Y14952D02*
Y21048D01*
X1109047D01*
Y14952D01*
X1102951D01*
X1109419Y29920D02*
Y40080D01*
X1119579D01*
Y29920D01*
X1109419D01*
X1111451Y31952D02*
Y38048D01*
X1117547D01*
Y31952D01*
X1111451D01*
X1100919Y46920D02*
Y57080D01*
X1111079D01*
Y46920D01*
X1100919D01*
X1102951Y48952D02*
Y55048D01*
X1109047D01*
Y48952D01*
X1102951D01*
X1109419Y63920D02*
Y74080D01*
X1119579D01*
Y63920D01*
X1109419D01*
X1111451Y65952D02*
Y72048D01*
X1117547D01*
Y65952D01*
X1111451D01*
X1100919Y80920D02*
Y91080D01*
X1111079D01*
Y80920D01*
X1100919D01*
X1102951Y82952D02*
Y89048D01*
X1109047D01*
Y82952D01*
X1102951D01*
X1100919Y182920D02*
Y193080D01*
X1111079D01*
Y182920D01*
X1100919D01*
X1102951Y184952D02*
Y191048D01*
X1109047D01*
Y184952D01*
X1102951D01*
X1100919Y216920D02*
Y227080D01*
X1111079D01*
Y216920D01*
X1100919D01*
X1102951Y218952D02*
Y225048D01*
X1109047D01*
Y218952D01*
X1102951D01*
X1109419Y233920D02*
Y244080D01*
X1119579D01*
Y233920D01*
X1109419D01*
X1111451Y235952D02*
Y242048D01*
X1117547D01*
Y235952D01*
X1111451D01*
X1100919Y250920D02*
Y261080D01*
X1111079D01*
Y250920D01*
X1100919D01*
X1102951Y252952D02*
Y259048D01*
X1109047D01*
Y252952D01*
X1102951D01*
X1109419Y267920D02*
Y278080D01*
X1119579D01*
Y267920D01*
X1109419D01*
X1111451Y269952D02*
Y276048D01*
X1117547D01*
Y269952D01*
X1111451D01*
X1100919Y284920D02*
Y295080D01*
X1111079D01*
Y284920D01*
X1100919D01*
X1102951Y286952D02*
Y293048D01*
X1109047D01*
Y286952D01*
X1102951D01*
X1109419Y301920D02*
Y312080D01*
X1119579D01*
Y301920D01*
X1109419D01*
X1111451Y303952D02*
Y310048D01*
X1117547D01*
Y303952D01*
X1111451D01*
X1100919Y318920D02*
Y329080D01*
X1111079D01*
Y318920D01*
X1100919D01*
X1102951Y320952D02*
Y327048D01*
X1109047D01*
Y320952D01*
X1102951D01*
X1100919Y352920D02*
Y363080D01*
X1111079D01*
Y352920D01*
X1100919D01*
X1102951Y354952D02*
Y361048D01*
X1109047D01*
Y354952D01*
X1102951D01*
X1109419Y369920D02*
Y380080D01*
X1119579D01*
Y369920D01*
X1109419D01*
X1111451Y371952D02*
Y378048D01*
X1117547D01*
Y371952D01*
X1111451D01*
X1100919Y386920D02*
Y397080D01*
X1111079D01*
Y386920D01*
X1100919D01*
X1102951Y388952D02*
Y395048D01*
X1109047D01*
Y388952D01*
X1102951D01*
X1109419Y403920D02*
Y414080D01*
X1119579D01*
Y403920D01*
X1109419D01*
X1111451Y405952D02*
Y412048D01*
X1117547D01*
Y405952D01*
X1111451D01*
X1100919Y420920D02*
Y431080D01*
X1111079D01*
Y420920D01*
X1100919D01*
X1102951Y422952D02*
Y429048D01*
X1109047D01*
Y422952D01*
X1102951D01*
X1109419Y709920D02*
Y720079D01*
X1119579D01*
Y709920D01*
X1109419D01*
X1111451Y711952D02*
Y718047D01*
X1117547D01*
Y711952D01*
X1111451D01*
X1109419Y743920D02*
Y754080D01*
X1119579D01*
Y743920D01*
X1109419D01*
X1111451Y745952D02*
Y752048D01*
X1117547D01*
Y745952D01*
X1111451D01*
X1117919Y12920D02*
Y23080D01*
X1128079D01*
Y12920D01*
X1117919D01*
X1119951Y14952D02*
Y21048D01*
X1126047D01*
Y14952D01*
X1119951D01*
X1126419Y29920D02*
Y40080D01*
X1136579D01*
Y29920D01*
X1126419D01*
X1128451Y31952D02*
Y38048D01*
X1134547D01*
Y31952D01*
X1128451D01*
X1117919Y46920D02*
Y57080D01*
X1128079D01*
Y46920D01*
X1117919D01*
X1119951Y48952D02*
Y55048D01*
X1126047D01*
Y48952D01*
X1119951D01*
X1126419Y63920D02*
Y74080D01*
X1136579D01*
Y63920D01*
X1126419D01*
X1128451Y65952D02*
Y72048D01*
X1134547D01*
Y65952D01*
X1128451D01*
X1117919Y114920D02*
Y125080D01*
X1128079D01*
Y114920D01*
X1117919D01*
X1119951Y116952D02*
Y123048D01*
X1126047D01*
Y116952D01*
X1119951D01*
X1126419Y131920D02*
Y142080D01*
X1136579D01*
Y131920D01*
X1126419D01*
X1128451Y133952D02*
Y140048D01*
X1134547D01*
Y133952D01*
X1128451D01*
X1117919Y148920D02*
Y159080D01*
X1128079D01*
Y148920D01*
X1117919D01*
X1119951Y150952D02*
Y157048D01*
X1126047D01*
Y150952D01*
X1119951D01*
X1126419Y165920D02*
Y176080D01*
X1136579D01*
Y165920D01*
X1126419D01*
X1128451Y167952D02*
Y174048D01*
X1134547D01*
Y167952D01*
X1128451D01*
X1126419Y233920D02*
Y244080D01*
X1136579D01*
Y233920D01*
X1126419D01*
X1128451Y235952D02*
Y242048D01*
X1134547D01*
Y235952D01*
X1128451D01*
X1117919Y250920D02*
Y261080D01*
X1128079D01*
Y250920D01*
X1117919D01*
X1119951Y252952D02*
Y259048D01*
X1126047D01*
Y252952D01*
X1119951D01*
X1126419Y267920D02*
Y278080D01*
X1136579D01*
Y267920D01*
X1126419D01*
X1128451Y269952D02*
Y276048D01*
X1134547D01*
Y269952D01*
X1128451D01*
X1117919Y284920D02*
Y295080D01*
X1128079D01*
Y284920D01*
X1117919D01*
X1119951Y286952D02*
Y293048D01*
X1126047D01*
Y286952D01*
X1119951D01*
X1126419Y301920D02*
Y312080D01*
X1136579D01*
Y301920D01*
X1126419D01*
X1128451Y303952D02*
Y310048D01*
X1134547D01*
Y303952D01*
X1128451D01*
X1126419Y369920D02*
Y380080D01*
X1136579D01*
Y369920D01*
X1126419D01*
X1128451Y371952D02*
Y378048D01*
X1134547D01*
Y371952D01*
X1128451D01*
X1117919Y386920D02*
Y397080D01*
X1128079D01*
Y386920D01*
X1117919D01*
X1119951Y388952D02*
Y395048D01*
X1126047D01*
Y388952D01*
X1119951D01*
X1126419Y403920D02*
Y414080D01*
X1136579D01*
Y403920D01*
X1126419D01*
X1128451Y405952D02*
Y412048D01*
X1134547D01*
Y405952D01*
X1128451D01*
X1117919Y420920D02*
Y431080D01*
X1128079D01*
Y420920D01*
X1117919D01*
X1119951Y422952D02*
Y429048D01*
X1126047D01*
Y422952D01*
X1119951D01*
X1117919Y488920D02*
Y499080D01*
X1128079D01*
Y488920D01*
X1117919D01*
X1119951Y490952D02*
Y497048D01*
X1126047D01*
Y490952D01*
X1119951D01*
X1126419Y505920D02*
Y516080D01*
X1136579D01*
Y505920D01*
X1126419D01*
X1128451Y507952D02*
Y514048D01*
X1134547D01*
Y507952D01*
X1128451D01*
X1134919Y12920D02*
Y23080D01*
X1145079D01*
Y12920D01*
X1134919D01*
X1136951Y14952D02*
Y21048D01*
X1143047D01*
Y14952D01*
X1136951D01*
X1143419Y29920D02*
Y40080D01*
X1153579D01*
Y29920D01*
X1143419D01*
X1145451Y31952D02*
Y38048D01*
X1151547D01*
Y31952D01*
X1145451D01*
X1134919Y46920D02*
Y57080D01*
X1145079D01*
Y46920D01*
X1134919D01*
X1136951Y48952D02*
Y55048D01*
X1143047D01*
Y48952D01*
X1136951D01*
X1143419Y63920D02*
Y74080D01*
X1153579D01*
Y63920D01*
X1143419D01*
X1145451Y65952D02*
Y72048D01*
X1151547D01*
Y65952D01*
X1145451D01*
X1134919Y114920D02*
Y125080D01*
X1145079D01*
Y114920D01*
X1134919D01*
X1136951Y116952D02*
Y123048D01*
X1143047D01*
Y116952D01*
X1136951D01*
X1143419Y131920D02*
Y142080D01*
X1153579D01*
Y131920D01*
X1143419D01*
X1145451Y133952D02*
Y140048D01*
X1151547D01*
Y133952D01*
X1145451D01*
X1134919Y148920D02*
Y159080D01*
X1145079D01*
Y148920D01*
X1134919D01*
X1136951Y150952D02*
Y157048D01*
X1143047D01*
Y150952D01*
X1136951D01*
X1143419Y165920D02*
Y176080D01*
X1153579D01*
Y165920D01*
X1143419D01*
X1145451Y167952D02*
Y174048D01*
X1151547D01*
Y167952D01*
X1145451D01*
X1143419Y233920D02*
Y244080D01*
X1153579D01*
Y233920D01*
X1143419D01*
X1145451Y235952D02*
Y242048D01*
X1151547D01*
Y235952D01*
X1145451D01*
X1134919Y250920D02*
Y261080D01*
X1145079D01*
Y250920D01*
X1134919D01*
X1136951Y252952D02*
Y259048D01*
X1143047D01*
Y252952D01*
X1136951D01*
X1143419Y267920D02*
Y278080D01*
X1153579D01*
Y267920D01*
X1143419D01*
X1145451Y269952D02*
Y276048D01*
X1151547D01*
Y269952D01*
X1145451D01*
X1134919Y284920D02*
Y295080D01*
X1145079D01*
Y284920D01*
X1134919D01*
X1136951Y286952D02*
Y293048D01*
X1143047D01*
Y286952D01*
X1136951D01*
X1143419Y301920D02*
Y312080D01*
X1153579D01*
Y301920D01*
X1143419D01*
X1145451Y303952D02*
Y310048D01*
X1151547D01*
Y303952D01*
X1145451D01*
X1143419Y369920D02*
Y380080D01*
X1153579D01*
Y369920D01*
X1143419D01*
X1145451Y371952D02*
Y378048D01*
X1151547D01*
Y371952D01*
X1145451D01*
X1134919Y386920D02*
Y397080D01*
X1145079D01*
Y386920D01*
X1134919D01*
X1136951Y388952D02*
Y395048D01*
X1143047D01*
Y388952D01*
X1136951D01*
X1143419Y403920D02*
Y414080D01*
X1153579D01*
Y403920D01*
X1143419D01*
X1145451Y405952D02*
Y412048D01*
X1151547D01*
Y405952D01*
X1145451D01*
X1134919Y420920D02*
Y431080D01*
X1145079D01*
Y420920D01*
X1134919D01*
X1136951Y422952D02*
Y429048D01*
X1143047D01*
Y422952D01*
X1136951D01*
X1134919Y488920D02*
Y499080D01*
X1145079D01*
Y488920D01*
X1134919D01*
X1136951Y490952D02*
Y497048D01*
X1143047D01*
Y490952D01*
X1136951D01*
X1143419Y505920D02*
Y516080D01*
X1153579D01*
Y505920D01*
X1143419D01*
X1145451Y507952D02*
Y514048D01*
X1151547D01*
Y507952D01*
X1145451D01*
X1134919Y522920D02*
Y533080D01*
X1145079D01*
Y522920D01*
X1134919D01*
X1136951Y524952D02*
Y531048D01*
X1143047D01*
Y524952D01*
X1136951D01*
X1143419Y539920D02*
Y550080D01*
X1153579D01*
Y539920D01*
X1143419D01*
X1145451Y541952D02*
Y548048D01*
X1151547D01*
Y541952D01*
X1145451D01*
X1134919Y556920D02*
Y567080D01*
X1145079D01*
Y556920D01*
X1134919D01*
X1136951Y558952D02*
Y565048D01*
X1143047D01*
Y558952D01*
X1136951D01*
X1134919Y624920D02*
Y635080D01*
X1145079D01*
Y624920D01*
X1134919D01*
X1136951Y626952D02*
Y633048D01*
X1143047D01*
Y626952D01*
X1136951D01*
X1134919Y692919D02*
Y703080D01*
X1145079D01*
Y692919D01*
X1134919D01*
X1136951Y694951D02*
Y701048D01*
X1143047D01*
Y694951D01*
X1136951D01*
X1143419Y709920D02*
Y720079D01*
X1153579D01*
Y709920D01*
X1143419D01*
X1145451Y711952D02*
Y718047D01*
X1151547D01*
Y711952D01*
X1145451D01*
X1134919Y726919D02*
Y737079D01*
X1145079D01*
Y726919D01*
X1134919D01*
X1136951Y728951D02*
Y735048D01*
X1143047D01*
Y728951D01*
X1136951D01*
X1143419Y743920D02*
Y754080D01*
X1153579D01*
Y743920D01*
X1143419D01*
X1145451Y745952D02*
Y752048D01*
X1151547D01*
Y745952D01*
X1145451D01*
X1134919Y760919D02*
Y771079D01*
X1145079D01*
Y760919D01*
X1134919D01*
X1136951Y762952D02*
Y769047D01*
X1143047D01*
Y762952D01*
X1136951D01*
X1143419Y777919D02*
Y788080D01*
X1153579D01*
Y777919D01*
X1143419D01*
X1145451Y779951D02*
Y786048D01*
X1151547D01*
Y779951D01*
X1145451D01*
X1134919Y794920D02*
Y805079D01*
X1145079D01*
Y794920D01*
X1134919D01*
X1136951Y796952D02*
Y803047D01*
X1143047D01*
Y796952D01*
X1136951D01*
X1071499Y538607D02*
Y548767D01*
X1081659D01*
Y538607D01*
X1071499D01*
X1073531Y540639D02*
Y546735D01*
X1079627D01*
Y540639D01*
X1073531D01*
X1065022Y533527D02*
Y543687D01*
X1075182D01*
Y533527D01*
X1065022D01*
X1067054Y535559D02*
Y541655D01*
X1073150D01*
Y535559D01*
X1067054D01*
X1057656Y527050D02*
Y537210D01*
X1067816D01*
Y527050D01*
X1057656D01*
X1059688Y529082D02*
Y535178D01*
X1065784D01*
Y529082D01*
X1059688D01*
X626618Y46990D02*
Y57150D01*
X636778D01*
Y46990D01*
X626618D01*
X628650Y49022D02*
Y55118D01*
X634746D01*
Y49022D01*
X628650D01*
X675259Y36830D02*
Y46990D01*
X685419D01*
Y36830D01*
X675259D01*
X677291Y38862D02*
Y44958D01*
X683387D01*
Y38862D01*
X677291D01*
X684403Y37084D02*
Y47244D01*
X694563D01*
Y37084D01*
X684403D01*
X686435Y39116D02*
Y45212D01*
X692531D01*
Y39116D01*
X686435D01*
X638429Y45466D02*
Y55626D01*
X648589D01*
Y45466D01*
X638429D01*
X640461Y47498D02*
Y53594D01*
X646557D01*
Y47498D01*
X640461D01*
X694436Y434467D02*
Y444627D01*
X704596D01*
Y434467D01*
X694436D01*
X696468Y436499D02*
Y442595D01*
X702564D01*
Y436499D01*
X696468D01*
X721995Y442087D02*
Y452247D01*
X732155D01*
Y442087D01*
X721995D01*
X724027Y444119D02*
Y450215D01*
X730123D01*
Y444119D01*
X724027D01*
X722122Y434848D02*
Y445008D01*
X732282D01*
Y434848D01*
X722122D01*
X724154Y436880D02*
Y442976D01*
X730250D01*
Y436880D01*
X724154D01*
X540766Y439293D02*
Y449453D01*
X550926D01*
Y439293D01*
X540766D01*
X542798Y441325D02*
Y447421D01*
X548894D01*
Y441325D01*
X542798D01*
X532384Y440182D02*
Y450342D01*
X542544D01*
Y440182D01*
X532384D01*
X534416Y442214D02*
Y448310D01*
X540512D01*
Y442214D01*
X534416D01*
X627253Y477139D02*
Y487299D01*
X637413D01*
Y477139D01*
X627253D01*
X629285Y479171D02*
Y485267D01*
X635381D01*
Y479171D01*
X629285D01*
X635000Y454914D02*
Y465074D01*
X645160D01*
Y454914D01*
X635000D01*
X637032Y456946D02*
Y463042D01*
X643128D01*
Y456946D01*
X637032D01*
X620395Y433578D02*
Y443738D01*
X630555D01*
Y433578D01*
X620395D01*
X622427Y435610D02*
Y441706D01*
X628523D01*
Y435610D01*
X622427D01*
X551180Y425831D02*
Y435991D01*
X561340D01*
Y425831D01*
X551180D01*
X553212Y427863D02*
Y433959D01*
X559308D01*
Y427863D01*
X553212D01*
X712851Y107950D02*
Y118110D01*
X723011D01*
Y107950D01*
X712851D01*
X714883Y109982D02*
Y116078D01*
X720979D01*
Y109982D01*
X714883D01*
X708152Y103124D02*
Y113284D01*
X718312D01*
Y103124D01*
X708152D01*
X710184Y105156D02*
Y111252D01*
X716280D01*
Y105156D01*
X710184D01*
X704469Y97155D02*
Y107315D01*
X714629D01*
Y97155D01*
X704469D01*
X706501Y99187D02*
Y105283D01*
X712597D01*
Y99187D01*
X706501D01*
X744093Y23241D02*
Y33401D01*
X754253D01*
Y23241D01*
X744093D01*
X746125Y25273D02*
Y31369D01*
X752221D01*
Y25273D01*
X746125D01*
X717423Y22733D02*
Y32893D01*
X727583D01*
Y22733D01*
X717423D01*
X719455Y24765D02*
Y30861D01*
X725551D01*
Y24765D01*
X719455D01*
X701548Y39751D02*
Y49911D01*
X711708D01*
Y39751D01*
X701548D01*
X703580Y41783D02*
Y47879D01*
X709676D01*
Y41783D01*
X703580D01*
X506857Y185166D02*
Y195326D01*
X517017D01*
Y185166D01*
X506857D01*
X508889Y187198D02*
Y193294D01*
X514985D01*
Y187198D01*
X508889D01*
X503555Y181610D02*
Y191770D01*
X513715D01*
Y181610D01*
X503555D01*
X505587Y183642D02*
Y189738D01*
X511683D01*
Y183642D01*
X505587D01*
X184912Y356616D02*
Y366776D01*
X195072D01*
Y356616D01*
X184912D01*
X186944Y358648D02*
Y364744D01*
X193040D01*
Y358648D01*
X186944D01*
X184658Y349885D02*
Y360045D01*
X194818D01*
Y349885D01*
X184658D01*
X186690Y351917D02*
Y358013D01*
X192786D01*
Y351917D01*
X186690D01*
X218567Y371348D02*
Y381508D01*
X228727D01*
Y371348D01*
X218567D01*
X220599Y373380D02*
Y379476D01*
X226695D01*
Y373380D01*
X220599D01*
X216662Y391668D02*
Y401828D01*
X226822D01*
Y391668D01*
X216662D01*
X218694Y393700D02*
Y399796D01*
X224790D01*
Y393700D01*
X218694D01*
X189357Y393573D02*
Y403733D01*
X199517D01*
Y393573D01*
X189357D01*
X191389Y395605D02*
Y401701D01*
X197485D01*
Y395605D01*
X191389D01*
X209042Y384048D02*
Y394208D01*
X219202D01*
Y384048D01*
X209042D01*
X211074Y386080D02*
Y392176D01*
X217170D01*
Y386080D01*
X211074D01*
X209423Y377698D02*
Y387858D01*
X219583D01*
Y377698D01*
X209423D01*
X211455Y379730D02*
Y385826D01*
X217551D01*
Y379730D01*
X211455D01*
X196723Y421005D02*
Y431165D01*
X206883D01*
Y421005D01*
X196723D01*
X198755Y423037D02*
Y429133D01*
X204851D01*
Y423037D01*
X198755D01*
X187325Y421259D02*
Y431419D01*
X197485D01*
Y421259D01*
X187325D01*
X189357Y423291D02*
Y429387D01*
X195453D01*
Y423291D01*
X189357D01*
X174117Y427863D02*
Y438023D01*
X184277D01*
Y427863D01*
X174117D01*
X176149Y429895D02*
Y435991D01*
X182245D01*
Y429895D01*
X176149D01*
X191262Y382524D02*
Y392684D01*
X201422D01*
Y382524D01*
X191262D01*
X193294Y384556D02*
Y390652D01*
X199390D01*
Y384556D01*
X193294D01*
X232410Y370586D02*
Y380746D01*
X242570D01*
Y370586D01*
X232410D01*
X234442Y372618D02*
Y378714D01*
X240538D01*
Y372618D01*
X234442D01*
X271907Y375412D02*
Y385572D01*
X282067D01*
Y375412D01*
X271907D01*
X273939Y377444D02*
Y383540D01*
X280035D01*
Y377444D01*
X273939D01*
X267208Y379476D02*
Y389636D01*
X277368D01*
Y379476D01*
X267208D01*
X269240Y381508D02*
Y387604D01*
X275336D01*
Y381508D01*
X269240D01*
X232410Y391160D02*
Y401320D01*
X242570D01*
Y391160D01*
X232410D01*
X234442Y393192D02*
Y399288D01*
X240538D01*
Y393192D01*
X234442D01*
X268224Y411607D02*
Y421767D01*
X278384D01*
Y411607D01*
X268224D01*
X270256Y413639D02*
Y419735D01*
X276352D01*
Y413639D01*
X270256D01*
X260096Y411607D02*
Y421767D01*
X270256D01*
Y411607D01*
X260096D01*
X262128Y413639D02*
Y419735D01*
X268224D01*
Y413639D01*
X262128D01*
X180594Y332359D02*
Y342519D01*
X190754D01*
Y332359D01*
X180594D01*
X182626Y334391D02*
Y340487D01*
X188722D01*
Y334391D01*
X182626D01*
X175895Y337058D02*
Y347218D01*
X186055D01*
Y337058D01*
X175895D01*
X177927Y339090D02*
Y345186D01*
X184023D01*
Y339090D01*
X177927D01*
X148971Y392938D02*
Y403098D01*
X159131D01*
Y392938D01*
X148971D01*
X151003Y394970D02*
Y401066D01*
X157099D01*
Y394970D01*
X151003D01*
X133858Y401574D02*
Y411734D01*
X144018D01*
Y401574D01*
X133858D01*
X135890Y403606D02*
Y409702D01*
X141986D01*
Y403606D01*
X135890D01*
X186944Y497967D02*
Y508127D01*
X197104D01*
Y497967D01*
X186944D01*
X188976Y499999D02*
Y506095D01*
X195072D01*
Y499999D01*
X188976D01*
X187325Y490474D02*
Y500634D01*
X197485D01*
Y490474D01*
X187325D01*
X189357Y492506D02*
Y498602D01*
X195453D01*
Y492506D01*
X189357D01*
X187452Y483362D02*
Y493522D01*
X197612D01*
Y483362D01*
X187452D01*
X189484Y485394D02*
Y491490D01*
X195580D01*
Y485394D01*
X189484D01*
X147320Y465709D02*
Y475869D01*
X157480D01*
Y465709D01*
X147320D01*
X149352Y467741D02*
Y473837D01*
X155448D01*
Y467741D01*
X149352D01*
X147193Y458343D02*
Y468503D01*
X157353D01*
Y458343D01*
X147193D01*
X149225Y460375D02*
Y466471D01*
X155321D01*
Y460375D01*
X149225D01*
X146812Y450723D02*
Y460883D01*
X156972D01*
Y450723D01*
X146812D01*
X148844Y452755D02*
Y458851D01*
X154940D01*
Y452755D01*
X148844D01*
X279908Y508508D02*
Y518668D01*
X290068D01*
Y508508D01*
X279908D01*
X281940Y510540D02*
Y516636D01*
X288036D01*
Y510540D01*
X281940D01*
X242824Y508889D02*
Y519049D01*
X252984D01*
Y508889D01*
X242824D01*
X244856Y510921D02*
Y517017D01*
X250952D01*
Y510921D01*
X244856D01*
X333121Y489458D02*
Y499618D01*
X343281D01*
Y489458D01*
X333121D01*
X335153Y491490D02*
Y497586D01*
X341249D01*
Y491490D01*
X335153D01*
X333121Y496316D02*
Y506476D01*
X343281D01*
Y496316D01*
X333121D01*
X335153Y498348D02*
Y504444D01*
X341249D01*
Y498348D01*
X335153D01*
X239522Y591058D02*
Y601218D01*
X249682D01*
Y591058D01*
X239522D01*
X241554Y593090D02*
Y599186D01*
X247650D01*
Y593090D01*
X241554D01*
X232283Y591566D02*
Y601726D01*
X242443D01*
Y591566D01*
X232283D01*
X234315Y593598D02*
Y599694D01*
X240411D01*
Y593598D01*
X234315D01*
X232537Y584200D02*
Y594360D01*
X242697D01*
Y584200D01*
X232537D01*
X234569Y586232D02*
Y592328D01*
X240665D01*
Y586232D01*
X234569D01*
X232537Y577088D02*
Y587248D01*
X242697D01*
Y577088D01*
X232537D01*
X234569Y579120D02*
Y585216D01*
X240665D01*
Y579120D01*
X234569D01*
X228473Y570230D02*
Y580390D01*
X238633D01*
Y570230D01*
X228473D01*
X230505Y572262D02*
Y578358D01*
X236601D01*
Y572262D01*
X230505D01*
X220980Y574167D02*
Y584327D01*
X231140D01*
Y574167D01*
X220980D01*
X223012Y576199D02*
Y582295D01*
X229108D01*
Y576199D01*
X223012D01*
X215011Y581152D02*
Y591312D01*
X225171D01*
Y581152D01*
X215011D01*
X217043Y583184D02*
Y589280D01*
X223139D01*
Y583184D01*
X217043D01*
X223647Y581787D02*
Y591947D01*
X233807D01*
Y581787D01*
X223647D01*
X225679Y583819D02*
Y589915D01*
X231775D01*
Y583819D01*
X225679D01*
X206756Y560578D02*
Y570738D01*
X216916D01*
Y560578D01*
X206756D01*
X208788Y562610D02*
Y568706D01*
X214884D01*
Y562610D01*
X208788D01*
X198882Y568325D02*
Y578485D01*
X209042D01*
Y568325D01*
X198882D01*
X200914Y570357D02*
Y576453D01*
X207010D01*
Y570357D01*
X200914D01*
X207899Y597916D02*
Y608076D01*
X218059D01*
Y597916D01*
X207899D01*
X209931Y599948D02*
Y606044D01*
X216027D01*
Y599948D01*
X209931D01*
X230632Y599313D02*
Y609473D01*
X240792D01*
Y599313D01*
X230632D01*
X232664Y601345D02*
Y607441D01*
X238760D01*
Y601345D01*
X232664D01*
X233426Y561086D02*
Y571246D01*
X243586D01*
Y561086D01*
X233426D01*
X235458Y563118D02*
Y569214D01*
X241554D01*
Y563118D01*
X235458D01*
X287655Y541401D02*
Y551561D01*
X297815D01*
Y541401D01*
X287655D01*
X289687Y543433D02*
Y549529D01*
X295783D01*
Y543433D01*
X289687D01*
X319278Y563245D02*
Y573405D01*
X329438D01*
Y563245D01*
X319278D01*
X321310Y565277D02*
Y571373D01*
X327406D01*
Y565277D01*
X321310D01*
X316992Y599186D02*
Y609346D01*
X327152D01*
Y599186D01*
X316992D01*
X319024Y601218D02*
Y607314D01*
X325120D01*
Y601218D01*
X319024D01*
X293243Y634492D02*
Y644652D01*
X303403D01*
Y634492D01*
X293243D01*
X295275Y636524D02*
Y642620D01*
X301371D01*
Y636524D01*
X295275D01*
X283210Y693293D02*
Y703453D01*
X293370D01*
Y693293D01*
X283210D01*
X285242Y695325D02*
Y701421D01*
X291338D01*
Y695325D01*
X285242D01*
X287655Y688086D02*
Y698246D01*
X297815D01*
Y688086D01*
X287655D01*
X289687Y690118D02*
Y696214D01*
X295783D01*
Y690118D01*
X289687D01*
X347345Y648589D02*
Y658749D01*
X357505D01*
Y648589D01*
X347345D01*
X349377Y650621D02*
Y656717D01*
X355473D01*
Y650621D01*
X349377D01*
X347472Y638302D02*
Y648462D01*
X357632D01*
Y638302D01*
X347472D01*
X349504Y640334D02*
Y646430D01*
X355600D01*
Y640334D01*
X349504D01*
X347726Y629539D02*
Y639699D01*
X357886D01*
Y629539D01*
X347726D01*
X349758Y631571D02*
Y637667D01*
X355854D01*
Y631571D01*
X349758D01*
X126365Y293878D02*
Y304038D01*
X136525D01*
Y293878D01*
X126365D01*
X181102Y453009D02*
Y463169D01*
X191262D01*
Y453009D01*
X181102D01*
X183134Y455041D02*
Y461137D01*
X189230D01*
Y455041D01*
X183134D01*
X175895Y458851D02*
Y469011D01*
X186055D01*
Y458851D01*
X175895D01*
X177927Y460883D02*
Y466979D01*
X184023D01*
Y460883D01*
X177927D01*
X277241Y361696D02*
Y371856D01*
X287401D01*
Y361696D01*
X277241D01*
X279273Y363728D02*
Y369824D01*
X285369D01*
Y363728D01*
X279273D01*
X114681Y576961D02*
Y587121D01*
X124841D01*
Y576961D01*
X114681D01*
X116713Y578993D02*
Y585089D01*
X122809D01*
Y578993D01*
X116713D01*
X121158Y561467D02*
Y571627D01*
X131318D01*
Y561467D01*
X121158D01*
X123190Y563499D02*
Y569595D01*
X129286D01*
Y563499D01*
X123190D01*
X488188Y530352D02*
Y540512D01*
X498348D01*
Y530352D01*
X488188D01*
X490220Y532384D02*
Y538480D01*
X496316D01*
Y532384D01*
X490220D01*
X491617Y524764D02*
Y534924D01*
X501777D01*
Y524764D01*
X491617D01*
X493649Y526796D02*
Y532892D01*
X499745D01*
Y526796D01*
X493649D01*
X514985Y533400D02*
Y543560D01*
X525145D01*
Y533400D01*
X514985D01*
X517017Y535432D02*
Y541528D01*
X523113D01*
Y535432D01*
X517017D01*
X514477Y527685D02*
Y537845D01*
X524637D01*
Y527685D01*
X514477D01*
X516509Y529717D02*
Y535813D01*
X522605D01*
Y529717D01*
X516509D01*
X551434Y535305D02*
Y545465D01*
X561594D01*
Y535305D01*
X551434D01*
X553466Y537337D02*
Y543433D01*
X559562D01*
Y537337D01*
X553466D01*
X517525Y482727D02*
Y492887D01*
X527685D01*
Y482727D01*
X517525D01*
X519557Y484759D02*
Y490855D01*
X525653D01*
Y484759D01*
X519557D01*
X517525Y490982D02*
Y501142D01*
X527685D01*
Y490982D01*
X517525D01*
X519557Y493014D02*
Y499110D01*
X525653D01*
Y493014D01*
X519557D01*
X579120Y516509D02*
Y526669D01*
X589280D01*
Y516509D01*
X579120D01*
X581152Y518541D02*
Y524637D01*
X587248D01*
Y518541D01*
X581152D01*
X572262Y516382D02*
Y526542D01*
X582422D01*
Y516382D01*
X572262D01*
X574294Y518414D02*
Y524510D01*
X580390D01*
Y518414D01*
X574294D01*
X1022096Y701167D02*
Y711327D01*
X1032256D01*
Y701167D01*
X1022096D01*
X1024128Y703199D02*
Y709295D01*
X1030224D01*
Y703199D01*
X1024128D01*
X1049782Y721995D02*
Y732155D01*
X1059942D01*
Y721995D01*
X1049782D01*
X1051814Y724027D02*
Y730123D01*
X1057910D01*
Y724027D01*
X1051814D01*
X1059307Y718439D02*
Y728599D01*
X1069467D01*
Y718439D01*
X1059307D01*
X1061339Y720471D02*
Y726567D01*
X1067435D01*
Y720471D01*
X1061339D01*
X983361Y646684D02*
Y656844D01*
X993521D01*
Y646684D01*
X983361D01*
X985393Y648716D02*
Y654812D01*
X991489D01*
Y648716D01*
X985393D01*
X974852Y712343D02*
Y722503D01*
X985012D01*
Y712343D01*
X974852D01*
X976884Y714375D02*
Y720471D01*
X982980D01*
Y714375D01*
X976884D01*
X1056513Y621538D02*
Y631698D01*
X1066673D01*
Y621538D01*
X1056513D01*
X1058545Y623570D02*
Y629666D01*
X1064641D01*
Y623570D01*
X1058545D01*
X1046607Y618617D02*
Y628777D01*
X1056767D01*
Y618617D01*
X1046607D01*
X1048639Y620649D02*
Y626745D01*
X1054735D01*
Y620649D01*
X1048639D01*
X994537Y610743D02*
Y620903D01*
X1004697D01*
Y610743D01*
X994537D01*
X996569Y612775D02*
Y618871D01*
X1002665D01*
Y612775D01*
X996569D01*
X1077722Y596773D02*
Y606933D01*
X1087882D01*
Y596773D01*
X1077722D01*
X1079754Y598805D02*
Y604901D01*
X1085850D01*
Y598805D01*
X1079754D01*
X1014222Y548386D02*
Y558546D01*
X1024382D01*
Y548386D01*
X1014222D01*
X1016254Y550418D02*
Y556514D01*
X1022350D01*
Y550418D01*
X1016254D01*
X1014222Y540004D02*
Y550164D01*
X1024382D01*
Y540004D01*
X1014222D01*
X1016254Y542036D02*
Y548132D01*
X1022350D01*
Y542036D01*
X1016254D01*
X1014603Y530987D02*
Y541147D01*
X1024763D01*
Y530987D01*
X1014603D01*
X1016635Y533019D02*
Y539115D01*
X1022731D01*
Y533019D01*
X1016635D01*
X1014476Y523367D02*
Y533527D01*
X1024636D01*
Y523367D01*
X1014476D01*
X1016508Y525399D02*
Y531495D01*
X1022604D01*
Y525399D01*
X1016508D01*
X1066927Y786003D02*
Y796163D01*
X1077087D01*
Y786003D01*
X1066927D01*
X1068959Y788035D02*
Y794131D01*
X1075055D01*
Y788035D01*
X1068959D01*
X1066927Y777494D02*
Y787654D01*
X1077087D01*
Y777494D01*
X1066927D01*
X1068959Y779526D02*
Y785622D01*
X1075055D01*
Y779526D01*
X1068959D01*
X1065911Y755777D02*
Y765937D01*
X1076071D01*
Y755777D01*
X1065911D01*
X1067943Y757809D02*
Y763905D01*
X1074039D01*
Y757809D01*
X1067943D01*
X1066292Y746887D02*
Y757047D01*
X1076452D01*
Y746887D01*
X1066292D01*
X1068324Y748919D02*
Y755015D01*
X1074420D01*
Y748919D01*
X1068324D01*
X1035939Y796544D02*
Y806704D01*
X1046099D01*
Y796544D01*
X1035939D01*
X1037971Y798576D02*
Y804672D01*
X1044067D01*
Y798576D01*
X1037971D01*
X1023366Y767207D02*
Y777367D01*
X1033526D01*
Y767207D01*
X1023366D01*
X1025398Y769239D02*
Y775335D01*
X1031494D01*
Y769239D01*
X1025398D01*
X738759Y190373D02*
Y200533D01*
X748919D01*
Y190373D01*
X738759D01*
X740791Y192405D02*
Y198501D01*
X746887D01*
Y192405D01*
X740791D01*
X710819Y177546D02*
Y187706D01*
X720979D01*
Y177546D01*
X710819D01*
X712851Y179578D02*
Y185674D01*
X718947D01*
Y179578D01*
X712851D01*
X711454Y170815D02*
Y180975D01*
X721614D01*
Y170815D01*
X711454D01*
X713486Y172847D02*
Y178943D01*
X719582D01*
Y172847D01*
X713486D01*
X737616Y175514D02*
Y185674D01*
X747776D01*
Y175514D01*
X737616D01*
X739648Y177546D02*
Y183642D01*
X745744D01*
Y177546D01*
X739648D01*
X692785Y179324D02*
Y189484D01*
X702945D01*
Y179324D01*
X692785D01*
X694817Y181356D02*
Y187452D01*
X700913D01*
Y181356D01*
X694817D01*
X669163Y157607D02*
Y167767D01*
X679323D01*
Y157607D01*
X669163D01*
X671195Y159639D02*
Y165735D01*
X677291D01*
Y159639D01*
X671195D01*
X569976Y220599D02*
Y230759D01*
X580136D01*
Y220599D01*
X569976D01*
X572008Y222631D02*
Y228727D01*
X578104D01*
Y222631D01*
X572008D01*
X569976Y210820D02*
Y220980D01*
X580136D01*
Y210820D01*
X569976D01*
X572008Y212852D02*
Y218948D01*
X578104D01*
Y212852D01*
X572008D01*
X559689Y213741D02*
Y223901D01*
X569849D01*
Y213741D01*
X559689D01*
X561721Y215773D02*
Y221869D01*
X567817D01*
Y215773D01*
X561721D01*
X559054Y207264D02*
Y217424D01*
X569214D01*
Y207264D01*
X559054D01*
X561086Y209296D02*
Y215392D01*
X567182D01*
Y209296D01*
X561086D01*
X537464Y377571D02*
Y387731D01*
X547624D01*
Y377571D01*
X537464D01*
X539496Y379603D02*
Y385699D01*
X545592D01*
Y379603D01*
X539496D01*
X537591Y369443D02*
Y379603D01*
X547751D01*
Y369443D01*
X537591D01*
X539623Y371475D02*
Y377571D01*
X545719D01*
Y371475D01*
X539623D01*
X582168Y386080D02*
Y396240D01*
X592328D01*
Y386080D01*
X582168D01*
X584200Y388112D02*
Y394208D01*
X590296D01*
Y388112D01*
X584200D01*
X582041Y377698D02*
Y387858D01*
X592201D01*
Y377698D01*
X582041D01*
X584073Y379730D02*
Y385826D01*
X590169D01*
Y379730D01*
X584073D01*
X135763Y661289D02*
Y671449D01*
X145923D01*
Y661289D01*
X135763D01*
X137795Y663321D02*
Y669417D01*
X143891D01*
Y663321D01*
X137795D01*
X135382Y668401D02*
Y678561D01*
X145542D01*
Y668401D01*
X135382D01*
X137414Y670433D02*
Y676529D01*
X143510D01*
Y670433D01*
X137414D01*
X317373Y312039D02*
Y322199D01*
X327533D01*
Y312039D01*
X317373D01*
X313436Y308356D02*
Y318516D01*
X323596D01*
Y308356D01*
X313436D01*
X456057Y372745D02*
Y382905D01*
X466217D01*
Y372745D01*
X456057D01*
X454279Y368046D02*
Y378206D01*
X464439D01*
Y368046D01*
X454279D01*
X470281Y372491D02*
Y382651D01*
X480441D01*
Y372491D01*
X470281D01*
X469646Y367919D02*
Y378079D01*
X479806D01*
Y367919D01*
X469646D01*
X241935Y788670D02*
Y798830D01*
X252095D01*
Y788670D01*
X241935D01*
X243967Y790702D02*
Y796798D01*
X250063D01*
Y790702D01*
X243967D01*
X246761Y788670D02*
Y798830D01*
X256921D01*
Y788670D01*
X246761D01*
X248793Y790702D02*
Y796798D01*
X254889D01*
Y790702D01*
X248793D01*
X175641Y668020D02*
Y678180D01*
X185801D01*
Y668020D01*
X175641D01*
X177673Y670052D02*
Y676148D01*
X183769D01*
Y670052D01*
X177673D01*
X373761Y119634D02*
Y129794D01*
X383921D01*
Y119634D01*
X373761D01*
X437388Y365506D02*
Y375666D01*
X447548D01*
Y365506D01*
X437388D01*
X431546Y363601D02*
Y373761D01*
X441706D01*
Y363601D01*
X431546D01*
X422910Y372364D02*
Y382524D01*
X433070D01*
Y372364D01*
X422910D01*
X423164Y366776D02*
Y376936D01*
X433324D01*
Y366776D01*
X423164D01*
X325374Y110744D02*
Y120904D01*
X335534D01*
Y110744D01*
X325374D01*
X333629Y92837D02*
Y102997D01*
X343789D01*
Y92837D01*
X333629D01*
X985139Y799465D02*
Y809625D01*
X995299D01*
Y799465D01*
X985139D01*
X987171Y801497D02*
Y807593D01*
X993267D01*
Y801497D01*
X987171D01*
X988314Y805561D02*
Y815721D01*
X998474D01*
Y805561D01*
X988314D01*
X990346Y807593D02*
Y813689D01*
X996442D01*
Y807593D01*
X990346D01*
X988060Y810768D02*
Y820928D01*
X998220D01*
Y810768D01*
X988060D01*
X990092Y812800D02*
Y818896D01*
X996188D01*
Y812800D01*
X990092D01*
X925195Y847725D02*
Y857885D01*
X935355D01*
Y847725D01*
X925195D01*
X927227Y849757D02*
Y855853D01*
X933323D01*
Y849757D01*
X927227D01*
X570357Y816991D02*
Y827151D01*
X580517D01*
Y816991D01*
X570357D01*
X572389Y819023D02*
Y825119D01*
X578485D01*
Y819023D01*
X572389D01*
X582168Y824230D02*
Y834390D01*
X592328D01*
Y824230D01*
X582168D01*
X584200Y826262D02*
Y832358D01*
X590296D01*
Y826262D01*
X584200D01*
X796671Y642620D02*
Y652780D01*
X806831D01*
Y642620D01*
X796671D01*
X798703Y644652D02*
Y650748D01*
X804799D01*
Y644652D01*
X798703D01*
X658876Y705739D02*
Y715899D01*
X669036D01*
Y705739D01*
X658876D01*
X660908Y707771D02*
Y713867D01*
X667004D01*
Y707771D01*
X660908D01*
X753364Y788035D02*
Y798195D01*
X763524D01*
Y788035D01*
X753364D01*
X755396Y790067D02*
Y796163D01*
X761492D01*
Y790067D01*
X755396D01*
X752729Y797306D02*
Y807466D01*
X762889D01*
Y797306D01*
X752729D01*
X754761Y799338D02*
Y805434D01*
X760857D01*
Y799338D01*
X754761D01*
X757555Y783209D02*
Y793369D01*
X767715D01*
Y783209D01*
X757555D01*
X759587Y785241D02*
Y791337D01*
X765683D01*
Y785241D01*
X759587D01*
X757555Y792734D02*
Y802894D01*
X767715D01*
Y792734D01*
X757555D01*
X759587Y794766D02*
Y800862D01*
X765683D01*
Y794766D01*
X759587D01*
X757301Y801751D02*
Y811911D01*
X767461D01*
Y801751D01*
X757301D01*
X759333Y803783D02*
Y809879D01*
X765429D01*
Y803783D01*
X759333D01*
X502158Y785749D02*
Y795909D01*
X512318D01*
Y785749D01*
X502158D01*
X504190Y787781D02*
Y793877D01*
X510286D01*
Y787781D01*
X504190D01*
X226695Y775843D02*
Y786003D01*
X236855D01*
Y775843D01*
X226695D01*
X228727Y777875D02*
Y783971D01*
X234823D01*
Y777875D01*
X228727D01*
X744728Y802640D02*
Y812800D01*
X754888D01*
Y802640D01*
X744728D01*
X746760Y804672D02*
Y810768D01*
X752856D01*
Y804672D01*
X746760D01*
X80264Y816356D02*
Y826516D01*
X90424D01*
Y816356D01*
X80264D01*
X82296Y818388D02*
Y824484D01*
X88392D01*
Y818388D01*
X82296D01*
X337312Y742061D02*
Y752221D01*
X347472D01*
Y742061D01*
X337312D01*
X339344Y744093D02*
Y750189D01*
X345440D01*
Y744093D01*
X339344D01*
X341376Y737743D02*
Y747903D01*
X351536D01*
Y737743D01*
X341376D01*
X343408Y739775D02*
Y745871D01*
X349504D01*
Y739775D01*
X343408D01*
X347599Y735076D02*
Y745236D01*
X357759D01*
Y735076D01*
X347599D01*
X349631Y737108D02*
Y743204D01*
X355727D01*
Y737108D01*
X349631D01*
X354203Y735330D02*
Y745490D01*
X364363D01*
Y735330D01*
X354203D01*
X356235Y737362D02*
Y743458D01*
X362331D01*
Y737362D01*
X356235D01*
X395986Y672211D02*
Y682371D01*
X406146D01*
Y672211D01*
X395986D01*
X398018Y674243D02*
Y680339D01*
X404114D01*
Y674243D01*
X398018D01*
X450088Y723392D02*
Y733552D01*
X460248D01*
Y723392D01*
X450088D01*
X452120Y725424D02*
Y731520D01*
X458216D01*
Y725424D01*
X452120D01*
X450088Y716915D02*
Y727075D01*
X460248D01*
Y716915D01*
X450088D01*
X452120Y718947D02*
Y725043D01*
X458216D01*
Y718947D01*
X452120D01*
X450088Y730631D02*
Y740791D01*
X460248D01*
Y730631D01*
X450088D01*
X452120Y732663D02*
Y738759D01*
X458216D01*
Y732663D01*
X452120D01*
X450088Y736473D02*
Y746633D01*
X460248D01*
Y736473D01*
X450088D01*
X452120Y738505D02*
Y744601D01*
X458216D01*
Y738505D01*
X452120D01*
X782193Y618871D02*
Y629031D01*
X792353D01*
Y618871D01*
X782193D01*
X784225Y620903D02*
Y626999D01*
X790321D01*
Y620903D01*
X784225D01*
X917575Y770382D02*
Y780542D01*
X927735D01*
Y770382D01*
X917575D01*
X919607Y772414D02*
Y778510D01*
X925703D01*
Y772414D01*
X919607D01*
X912368Y767842D02*
Y778002D01*
X922528D01*
Y767842D01*
X912368D01*
X914400Y769874D02*
Y775970D01*
X920496D01*
Y769874D01*
X914400D01*
X618744Y671449D02*
Y681609D01*
X628904D01*
Y671449D01*
X618744D01*
X620776Y673481D02*
Y679577D01*
X626872D01*
Y673481D01*
X620776D01*
X626491Y666242D02*
Y676402D01*
X636651D01*
Y666242D01*
X626491D01*
X628523Y668274D02*
Y674370D01*
X634619D01*
Y668274D01*
X628523D01*
X516763Y780161D02*
Y790321D01*
X526923D01*
Y780161D01*
X516763D01*
X518795Y782193D02*
Y788289D01*
X524891D01*
Y782193D01*
X518795D01*
X862330Y771525D02*
Y781685D01*
X872490D01*
Y771525D01*
X862330D01*
X864362Y773557D02*
Y779653D01*
X870458D01*
Y773557D01*
X864362D01*
X886460Y716915D02*
Y727075D01*
X896620D01*
Y716915D01*
X886460D01*
X888492Y718947D02*
Y725043D01*
X894588D01*
Y718947D01*
X888492D01*
X914527Y729742D02*
Y739902D01*
X924687D01*
Y729742D01*
X914527D01*
X916559Y731774D02*
Y737870D01*
X922655D01*
Y731774D01*
X916559D01*
X908558Y744855D02*
Y755015D01*
X918718D01*
Y744855D01*
X908558D01*
X910590Y746887D02*
Y752983D01*
X916686D01*
Y746887D01*
X910590D01*
X903351Y742442D02*
Y752602D01*
X913511D01*
Y742442D01*
X903351D01*
X905383Y744474D02*
Y750570D01*
X911479D01*
Y744474D01*
X905383D01*
X818261Y759968D02*
Y770128D01*
X828421D01*
Y759968D01*
X818261D01*
X820293Y762000D02*
Y768096D01*
X826389D01*
Y762000D01*
X820293D01*
X817753Y752856D02*
Y763016D01*
X827913D01*
Y752856D01*
X817753D01*
X819785Y754888D02*
Y760984D01*
X825881D01*
Y754888D01*
X819785D01*
X541274Y765683D02*
Y775843D01*
X551434D01*
Y765683D01*
X541274D01*
X543306Y767715D02*
Y773811D01*
X549402D01*
Y767715D01*
X543306D01*
X910082Y685927D02*
Y696087D01*
X920242D01*
Y685927D01*
X910082D01*
X912114Y687959D02*
Y694055D01*
X918210D01*
Y687959D01*
X912114D01*
X867537Y715899D02*
Y726059D01*
X877697D01*
Y715899D01*
X867537D01*
X869569Y717931D02*
Y724027D01*
X875665D01*
Y717931D01*
X869569D01*
X877951Y745490D02*
Y755650D01*
X888111D01*
Y745490D01*
X877951D01*
X879983Y747522D02*
Y753618D01*
X886079D01*
Y747522D01*
X879983D01*
X679704Y706882D02*
Y717042D01*
X689864D01*
Y706882D01*
X679704D01*
X681736Y708914D02*
Y715010D01*
X687832D01*
Y708914D01*
X681736D01*
X651129Y748792D02*
Y758952D01*
X661289D01*
Y748792D01*
X651129D01*
X653161Y750824D02*
Y756920D01*
X659257D01*
Y750824D01*
X653161D01*
X849249Y692658D02*
Y702818D01*
X859409D01*
Y692658D01*
X849249D01*
X851281Y694690D02*
Y700786D01*
X857377D01*
Y694690D01*
X851281D01*
X984123Y622427D02*
Y632587D01*
X994283D01*
Y622427D01*
X984123D01*
X986155Y624459D02*
Y630555D01*
X992251D01*
Y624459D01*
X986155D01*
X993267Y620014D02*
Y630174D01*
X1003427D01*
Y620014D01*
X993267D01*
X995299Y622046D02*
Y628142D01*
X1001395D01*
Y622046D01*
X995299D01*
X978535Y634365D02*
Y644525D01*
X988695D01*
Y634365D01*
X978535D01*
X980567Y636397D02*
Y642493D01*
X986663D01*
Y636397D01*
X980567D01*
X973709Y649478D02*
Y659638D01*
X983869D01*
Y649478D01*
X973709D01*
X975741Y651510D02*
Y657606D01*
X981837D01*
Y651510D01*
X975741D01*
X1098423Y585216D02*
Y595376D01*
X1108583D01*
Y585216D01*
X1098423D01*
X1100455Y587248D02*
Y593344D01*
X1106551D01*
Y587248D01*
X1100455D01*
X862584Y697738D02*
Y707898D01*
X872744D01*
Y697738D01*
X862584D01*
X864616Y699770D02*
Y705866D01*
X870712D01*
Y699770D01*
X864616D01*
X854075Y702564D02*
Y712724D01*
X864235D01*
Y702564D01*
X854075D01*
X856107Y704596D02*
Y710692D01*
X862203D01*
Y704596D01*
X856107D01*
X908812Y832993D02*
Y843153D01*
X918972D01*
Y832993D01*
X908812D01*
X910844Y835025D02*
Y841121D01*
X916940D01*
Y835025D01*
X910844D01*
X905637Y723138D02*
Y733298D01*
X915797D01*
Y723138D01*
X905637D01*
X907669Y725170D02*
Y731266D01*
X913765D01*
Y725170D01*
X907669D01*
X927608Y740791D02*
Y750951D01*
X937768D01*
Y740791D01*
X927608D01*
X929640Y742823D02*
Y748919D01*
X935736D01*
Y742823D01*
X929640D01*
X914273Y700532D02*
Y710692D01*
X924433D01*
Y700532D01*
X914273D01*
X916305Y702564D02*
Y708660D01*
X922401D01*
Y702564D01*
X916305D01*
X643890Y624967D02*
Y635127D01*
X654050D01*
Y624967D01*
X643890D01*
X645922Y626999D02*
Y633095D01*
X652018D01*
Y626999D01*
X645922D01*
X701421Y625094D02*
Y635254D01*
X711581D01*
Y625094D01*
X701421D01*
X703453Y627126D02*
Y633222D01*
X709549D01*
Y627126D01*
X703453D01*
X786892Y667893D02*
Y678053D01*
X797052D01*
Y667893D01*
X786892D01*
X788924Y669925D02*
Y676021D01*
X795020D01*
Y669925D01*
X788924D01*
X462788Y575183D02*
Y585343D01*
X472948D01*
Y575183D01*
X462788D01*
X464820Y577215D02*
Y583311D01*
X470916D01*
Y577215D01*
X464820D01*
X680339Y723900D02*
Y734060D01*
X690499D01*
Y723900D01*
X680339D01*
X682371Y725932D02*
Y732028D01*
X688467D01*
Y725932D01*
X682371D01*
X575183Y603504D02*
Y613664D01*
X585343D01*
Y603504D01*
X575183D01*
X577215Y605536D02*
Y611632D01*
X583311D01*
Y605536D01*
X577215D01*
X463677Y517906D02*
Y528066D01*
X473837D01*
Y517906D01*
X463677D01*
X465709Y519938D02*
Y526034D01*
X471805D01*
Y519938D01*
X465709D01*
X736727Y640715D02*
Y650875D01*
X746887D01*
Y640715D01*
X736727D01*
X738759Y642747D02*
Y648843D01*
X744855D01*
Y642747D01*
X738759D01*
X737108Y633222D02*
Y643382D01*
X747268D01*
Y633222D01*
X737108D01*
X739140Y635254D02*
Y641350D01*
X745236D01*
Y635254D01*
X739140D01*
X847471Y610489D02*
Y620649D01*
X857631D01*
Y610489D01*
X847471D01*
X849503Y612521D02*
Y618617D01*
X855599D01*
Y612521D01*
X849503D01*
X1034923Y806958D02*
Y817118D01*
X1045083D01*
Y806958D01*
X1034923D01*
X1036955Y808990D02*
Y815086D01*
X1043051D01*
Y808990D01*
X1036955D01*
X978281Y670814D02*
Y680974D01*
X988441D01*
Y670814D01*
X978281D01*
X980313Y672846D02*
Y678942D01*
X986409D01*
Y672846D01*
X980313D01*
X863600Y592709D02*
Y602869D01*
X873760D01*
Y592709D01*
X863600D01*
X865632Y594741D02*
Y600837D01*
X871728D01*
Y594741D01*
X865632D01*
X638810Y490728D02*
Y500888D01*
X648970D01*
Y490728D01*
X638810D01*
X640842Y492760D02*
Y498856D01*
X646938D01*
Y492760D01*
X640842D01*
X680466Y447929D02*
Y458089D01*
X690626D01*
Y447929D01*
X680466D01*
X682498Y449961D02*
Y456057D01*
X688594D01*
Y449961D01*
X682498D01*
X963803Y727583D02*
Y737743D01*
X973963D01*
Y727583D01*
X963803D01*
X965835Y729615D02*
Y735711D01*
X971931D01*
Y729615D01*
X965835D01*
X962279Y695706D02*
Y705866D01*
X972439D01*
Y695706D01*
X962279D01*
X964311Y697738D02*
Y703834D01*
X970407D01*
Y697738D01*
X964311D01*
X962787Y652272D02*
Y662432D01*
X972947D01*
Y652272D01*
X962787D01*
X964819Y654304D02*
Y660400D01*
X970915D01*
Y654304D01*
X964819D01*
X979932Y677926D02*
Y688086D01*
X990092D01*
Y677926D01*
X979932D01*
X981964Y679958D02*
Y686054D01*
X988060D01*
Y679958D01*
X981964D01*
X973328Y682752D02*
Y692912D01*
X983488D01*
Y682752D01*
X973328D01*
X975360Y684784D02*
Y690880D01*
X981456D01*
Y684784D01*
X975360D01*
X47879Y386842D02*
Y397002D01*
X58039D01*
Y386842D01*
X47879D01*
X49911Y388874D02*
Y394970D01*
X56007D01*
Y388874D01*
X49911D01*
X47879Y392430D02*
Y402590D01*
X58039D01*
Y392430D01*
X47879D01*
X49911Y394462D02*
Y400558D01*
X56007D01*
Y394462D01*
X49911D01*
X47879Y398272D02*
Y408432D01*
X58039D01*
Y398272D01*
X47879D01*
X49911Y400304D02*
Y406400D01*
X56007D01*
Y400304D01*
X49911D01*
X695579Y253111D02*
Y263271D01*
X705739D01*
Y253111D01*
X695579D01*
X697611Y255143D02*
Y261239D01*
X703707D01*
Y255143D01*
X697611D01*
X129763Y711612D02*
Y721772D01*
X139923D01*
Y711612D01*
X129763D01*
X131795Y713644D02*
Y719740D01*
X137891D01*
Y713644D01*
X131795D01*
X190500Y739521D02*
Y749681D01*
X200660D01*
Y739521D01*
X190500D01*
X192532Y741553D02*
Y747649D01*
X198628D01*
Y741553D01*
X192532D01*
X200787Y735076D02*
Y745236D01*
X210947D01*
Y735076D01*
X200787D01*
X202819Y737108D02*
Y743204D01*
X208915D01*
Y737108D01*
X202819D01*
X527431Y218186D02*
Y228346D01*
X537591D01*
Y218186D01*
X527431D01*
X529463Y220218D02*
Y226314D01*
X535559D01*
Y220218D01*
X529463D01*
X471297Y148717D02*
Y158877D01*
X481457D01*
Y148717D01*
X471297D01*
X473329Y150749D02*
Y156845D01*
X479425D01*
Y150749D01*
X473329D01*
X449580Y103886D02*
Y114046D01*
X459740D01*
Y103886D01*
X449580D01*
X451612Y105918D02*
Y112014D01*
X457708D01*
Y105918D01*
X451612D01*
X432308Y126238D02*
Y136398D01*
X442468D01*
Y126238D01*
X432308D01*
X434340Y128270D02*
Y134366D01*
X440436D01*
Y128270D01*
X434340D01*
X403987Y109093D02*
Y119253D01*
X414147D01*
Y109093D01*
X403987D01*
X406019Y111125D02*
Y117221D01*
X412115D01*
Y111125D01*
X406019D01*
X504444Y233553D02*
Y243713D01*
X514604D01*
Y233553D01*
X504444D01*
X506476Y235585D02*
Y241681D01*
X512572D01*
Y235585D01*
X506476D01*
X508889Y237871D02*
Y248031D01*
X519049D01*
Y237871D01*
X508889D01*
X510921Y239903D02*
Y245999D01*
X517017D01*
Y239903D01*
X510921D01*
X467106Y98679D02*
Y108839D01*
X477266D01*
Y98679D01*
X467106D01*
X469138Y100711D02*
Y106807D01*
X475234D01*
Y100711D01*
X469138D01*
X461899Y94234D02*
Y104394D01*
X472059D01*
Y94234D01*
X461899D01*
X463931Y96266D02*
Y102362D01*
X470027D01*
Y96266D01*
X463931D01*
X807085Y560070D02*
Y570230D01*
X817245D01*
Y560070D01*
X807085D01*
X809117Y562102D02*
Y568198D01*
X815213D01*
Y562102D01*
X809117D01*
X783590Y501904D02*
Y512064D01*
X793750D01*
Y501904D01*
X783590D01*
X785622Y503936D02*
Y510032D01*
X791718D01*
Y503936D01*
X785622D01*
X845693Y647319D02*
Y657479D01*
X855853D01*
Y647319D01*
X845693D01*
X847725Y649351D02*
Y655447D01*
X853821D01*
Y649351D01*
X847725D01*
X853186Y485521D02*
Y495681D01*
X863346D01*
Y485521D01*
X853186D01*
X855218Y487553D02*
Y493649D01*
X861314D01*
Y487553D01*
X855218D01*
X802894Y398907D02*
Y409067D01*
X813054D01*
Y398907D01*
X802894D01*
X804926Y400939D02*
Y407035D01*
X811022D01*
Y400939D01*
X804926D01*
X750316Y151384D02*
Y161544D01*
X760476D01*
Y151384D01*
X750316D01*
X752348Y153416D02*
Y159512D01*
X758444D01*
Y153416D01*
X752348D01*
X703453Y183642D02*
Y193802D01*
X713613D01*
Y183642D01*
X703453D01*
X705485Y185674D02*
Y191770D01*
X711581D01*
Y185674D01*
X705485D01*
X657860Y220091D02*
Y230251D01*
X668020D01*
Y220091D01*
X657860D01*
X659892Y222123D02*
Y228219D01*
X665988D01*
Y222123D01*
X659892D01*
X651999Y208261D02*
Y218421D01*
X662159D01*
Y208261D01*
X651999D01*
X654031Y210293D02*
Y216389D01*
X660127D01*
Y210293D01*
X654031D01*
X655888Y212150D02*
Y222310D01*
X666048D01*
Y212150D01*
X655888D01*
X657920Y214182D02*
Y220278D01*
X664016D01*
Y214182D01*
X657920D01*
X660908Y424688D02*
Y434848D01*
X671068D01*
Y424688D01*
X660908D01*
X662940Y426720D02*
Y432816D01*
X669036D01*
Y426720D01*
X662940D01*
X624586Y343535D02*
Y353695D01*
X634746D01*
Y343535D01*
X624586D01*
X626618Y345567D02*
Y351663D01*
X632714D01*
Y345567D01*
X626618D01*
X629031Y348234D02*
Y358394D01*
X639191D01*
Y348234D01*
X629031D01*
X631063Y350266D02*
Y356362D01*
X637159D01*
Y350266D01*
X631063D01*
X633095Y343535D02*
Y353695D01*
X643255D01*
Y343535D01*
X633095D01*
X635127Y345567D02*
Y351663D01*
X641223D01*
Y345567D01*
X635127D01*
X606044Y140843D02*
Y151003D01*
X616204D01*
Y140843D01*
X606044D01*
X608076Y142875D02*
Y148971D01*
X614172D01*
Y142875D01*
X608076D01*
X594487Y102997D02*
Y113157D01*
X604647D01*
Y102997D01*
X594487D01*
X596519Y105029D02*
Y111125D01*
X602615D01*
Y105029D01*
X596519D01*
X592201Y89916D02*
Y100076D01*
X602361D01*
Y89916D01*
X592201D01*
X594233Y91948D02*
Y98044D01*
X600329D01*
Y91948D01*
X594233D01*
X624078Y83439D02*
Y93599D01*
X634238D01*
Y83439D01*
X624078D01*
X626110Y85471D02*
Y91567D01*
X632206D01*
Y85471D01*
X626110D01*
X616331Y76835D02*
Y86995D01*
X626491D01*
Y76835D01*
X616331D01*
X618363Y78867D02*
Y84963D01*
X624459D01*
Y78867D01*
X618363D01*
X622173Y77978D02*
Y88138D01*
X632333D01*
Y77978D01*
X622173D01*
X624205Y80010D02*
Y86106D01*
X630301D01*
Y80010D01*
X624205D01*
X629920Y83312D02*
Y93472D01*
X640080D01*
Y83312D01*
X629920D01*
X631952Y85344D02*
Y91440D01*
X638048D01*
Y85344D01*
X631952D01*
X641604Y79248D02*
Y89408D01*
X651764D01*
Y79248D01*
X641604D01*
X643636Y81280D02*
Y87376D01*
X649732D01*
Y81280D01*
X643636D01*
X564896Y99314D02*
Y109474D01*
X575056D01*
Y99314D01*
X564896D01*
X566928Y101346D02*
Y107442D01*
X573024D01*
Y101346D01*
X566928D01*
X533908Y93091D02*
Y103251D01*
X544068D01*
Y93091D01*
X533908D01*
X535940Y95123D02*
Y101219D01*
X542036D01*
Y95123D01*
X535940D01*
X542417Y89281D02*
Y99441D01*
X552577D01*
Y89281D01*
X542417D01*
X544449Y91313D02*
Y97409D01*
X550545D01*
Y91313D01*
X544449D01*
X522859Y93091D02*
Y103251D01*
X533019D01*
Y93091D01*
X522859D01*
X524891Y95123D02*
Y101219D01*
X530987D01*
Y95123D01*
X524891D01*
X424307Y48006D02*
Y58166D01*
X434467D01*
Y48006D01*
X424307D01*
X426339Y50038D02*
Y56134D01*
X432435D01*
Y50038D01*
X426339D01*
X453009Y66548D02*
Y76708D01*
X463169D01*
Y66548D01*
X453009D01*
X455041Y68580D02*
Y74676D01*
X461137D01*
Y68580D01*
X455041D01*
X455549Y70739D02*
Y80899D01*
X465709D01*
Y70739D01*
X455549D01*
X457581Y72771D02*
Y78867D01*
X463677D01*
Y72771D01*
X457581D01*
X449580Y70485D02*
Y80645D01*
X459740D01*
Y70485D01*
X449580D01*
X451612Y72517D02*
Y78613D01*
X457708D01*
Y72517D01*
X451612D01*
X676148Y123895D02*
Y134055D01*
X686308D01*
Y123895D01*
X676148D01*
X678180Y125927D02*
Y132023D01*
X684276D01*
Y125927D01*
X678180D01*
X665449Y105029D02*
Y115189D01*
X675609D01*
Y105029D01*
X665449D01*
X667481Y107061D02*
Y113157D01*
X673577D01*
Y107061D01*
X667481D01*
X618363Y111633D02*
Y121793D01*
X628523D01*
Y111633D01*
X618363D01*
X620395Y113665D02*
Y119761D01*
X626491D01*
Y113665D01*
X620395D01*
X442341Y70358D02*
Y80518D01*
X452501D01*
Y70358D01*
X442341D01*
X444373Y72390D02*
Y78486D01*
X450469D01*
Y72390D01*
X444373D01*
X384048Y71247D02*
Y81407D01*
X394208D01*
Y71247D01*
X384048D01*
X386080Y73279D02*
Y79375D01*
X392176D01*
Y73279D01*
X386080D01*
X676148Y119095D02*
Y129255D01*
X686308D01*
Y119095D01*
X676148D01*
X678180Y121127D02*
Y127223D01*
X684276D01*
Y121127D01*
X678180D01*
X670249Y105029D02*
Y115189D01*
X680409D01*
Y105029D01*
X670249D01*
X672281Y107061D02*
Y113157D01*
X678377D01*
Y107061D01*
X672281D01*
X828167Y737743D02*
Y747903D01*
X838327D01*
Y737743D01*
X828167D01*
X830199Y739775D02*
Y745871D01*
X836295D01*
Y739775D01*
X830199D01*
X878205Y715645D02*
Y725805D01*
X888365D01*
Y715645D01*
X878205D01*
X880237Y717677D02*
Y723773D01*
X886333D01*
Y717677D01*
X880237D01*
X724154Y711200D02*
Y721360D01*
X734314D01*
Y711200D01*
X724154D01*
X726186Y713232D02*
Y719328D01*
X732282D01*
Y713232D01*
X726186D01*
X729996Y706374D02*
Y716534D01*
X740156D01*
Y706374D01*
X729996D01*
X732028Y708406D02*
Y714502D01*
X738124D01*
Y708406D01*
X732028D01*
X891032Y688340D02*
Y698500D01*
X901192D01*
Y688340D01*
X891032D01*
X893064Y690372D02*
Y696468D01*
X899160D01*
Y690372D01*
X893064D01*
X724154Y701929D02*
Y712089D01*
X734314D01*
Y701929D01*
X724154D01*
X726186Y703961D02*
Y710057D01*
X732282D01*
Y703961D01*
X726186D01*
X482981Y137287D02*
Y147447D01*
X493141D01*
Y137287D01*
X482981D01*
X485013Y139319D02*
Y145415D01*
X491109D01*
Y139319D01*
X485013D01*
X487934Y140970D02*
Y151130D01*
X498094D01*
Y140970D01*
X487934D01*
X489966Y143002D02*
Y149098D01*
X496062D01*
Y143002D01*
X489966D01*
X492252Y137160D02*
Y147320D01*
X502412D01*
Y137160D01*
X492252D01*
X494284Y139192D02*
Y145288D01*
X500380D01*
Y139192D01*
X494284D01*
X633476Y184785D02*
Y194945D01*
X643636D01*
Y184785D01*
X633476D01*
X635508Y186817D02*
Y192913D01*
X641604D01*
Y186817D01*
X635508D01*
X661797Y46482D02*
Y56642D01*
X671957D01*
Y46482D01*
X661797D01*
X663829Y48514D02*
Y54610D01*
X669925D01*
Y48514D01*
X663829D01*
X867664Y745871D02*
Y756031D01*
X877824D01*
Y745871D01*
X867664D01*
X869696Y747903D02*
Y753999D01*
X875792D01*
Y747903D01*
X869696D01*
X815213Y726059D02*
Y736219D01*
X825373D01*
Y726059D01*
X815213D01*
X817245Y728091D02*
Y734187D01*
X823341D01*
Y728091D01*
X817245D01*
X897636Y745363D02*
Y755523D01*
X907796D01*
Y745363D01*
X897636D01*
X899668Y747395D02*
Y753491D01*
X905764D01*
Y747395D01*
X899668D01*
X827024Y717804D02*
Y727964D01*
X837184D01*
Y717804D01*
X827024D01*
X829056Y719836D02*
Y725932D01*
X835152D01*
Y719836D01*
X829056D01*
X878967Y682625D02*
Y692785D01*
X889127D01*
Y682625D01*
X878967D01*
X880999Y684657D02*
Y690753D01*
X887095D01*
Y684657D01*
X880999D01*
X869442Y677164D02*
Y687324D01*
X879602D01*
Y677164D01*
X869442D01*
X871474Y679196D02*
Y685292D01*
X877570D01*
Y679196D01*
X871474D01*
X889635Y672338D02*
Y682498D01*
X899795D01*
Y672338D01*
X889635D01*
X891667Y674370D02*
Y680466D01*
X897763D01*
Y674370D01*
X891667D01*
X902208Y668147D02*
Y678307D01*
X912368D01*
Y668147D01*
X902208D01*
X904240Y670179D02*
Y676275D01*
X910336D01*
Y670179D01*
X904240D01*
X912749Y654177D02*
Y664337D01*
X922909D01*
Y654177D01*
X912749D01*
X914781Y656209D02*
Y662305D01*
X920877D01*
Y656209D01*
X914781D01*
X897509Y655066D02*
Y665226D01*
X907669D01*
Y655066D01*
X897509D01*
X899541Y657098D02*
Y663194D01*
X905637D01*
Y657098D01*
X899541D01*
X819277Y633857D02*
Y644017D01*
X829437D01*
Y633857D01*
X819277D01*
X821309Y635889D02*
Y641985D01*
X827405D01*
Y635889D01*
X821309D01*
X812165Y634111D02*
Y644271D01*
X822325D01*
Y634111D01*
X812165D01*
X814197Y636143D02*
Y642239D01*
X820293D01*
Y636143D01*
X814197D01*
X862584Y627888D02*
Y638048D01*
X872744D01*
Y627888D01*
X862584D01*
X864616Y629920D02*
Y636016D01*
X870712D01*
Y629920D01*
X864616D01*
X867664Y632079D02*
Y642239D01*
X877824D01*
Y632079D01*
X867664D01*
X869696Y634111D02*
Y640207D01*
X875792D01*
Y634111D01*
X869696D01*
X917448Y632587D02*
Y642747D01*
X927608D01*
Y632587D01*
X917448D01*
X919480Y634619D02*
Y640715D01*
X925576D01*
Y634619D01*
X919480D01*
X927608Y631317D02*
Y641477D01*
X937768D01*
Y631317D01*
X927608D01*
X929640Y633349D02*
Y639445D01*
X935736D01*
Y633349D01*
X929640D01*
X1043051Y785368D02*
Y795528D01*
X1053211D01*
Y785368D01*
X1043051D01*
X1045083Y787400D02*
Y793496D01*
X1051179D01*
Y787400D01*
X1045083D01*
X1055751Y684022D02*
Y694182D01*
X1065911D01*
Y684022D01*
X1055751D01*
X1057783Y686054D02*
Y692150D01*
X1063879D01*
Y686054D01*
X1057783D01*
X799846Y159639D02*
Y169799D01*
X810006D01*
Y159639D01*
X799846D01*
X801878Y161671D02*
Y167767D01*
X807974D01*
Y161671D01*
X801878D01*
X799719Y154305D02*
Y164465D01*
X809879D01*
Y154305D01*
X799719D01*
X801751Y156337D02*
Y162433D01*
X807847D01*
Y156337D01*
X801751D01*
X799846Y164846D02*
Y175006D01*
X810006D01*
Y164846D01*
X799846D01*
X801878Y166878D02*
Y172974D01*
X807974D01*
Y166878D01*
X801878D01*
X187833Y767461D02*
Y777621D01*
X197993D01*
Y767461D01*
X187833D01*
X189865Y769493D02*
Y775589D01*
X195961D01*
Y769493D01*
X189865D01*
X195453Y767588D02*
Y777748D01*
X205613D01*
Y767588D01*
X195453D01*
X197485Y769620D02*
Y775716D01*
X203581D01*
Y769620D01*
X197485D01*
X197612Y756793D02*
Y766953D01*
X207772D01*
Y756793D01*
X197612D01*
X199644Y758825D02*
Y764921D01*
X205740D01*
Y758825D01*
X199644D01*
X818896Y76708D02*
Y86868D01*
X829056D01*
Y76708D01*
X818896D01*
X820928Y78740D02*
Y84836D01*
X827024D01*
Y78740D01*
X820928D01*
X813435Y76962D02*
Y87122D01*
X823595D01*
Y76962D01*
X813435D01*
X815467Y78994D02*
Y85090D01*
X821563D01*
Y78994D01*
X815467D01*
X806831Y76962D02*
Y87122D01*
X816991D01*
Y76962D01*
X806831D01*
X808863Y78994D02*
Y85090D01*
X814959D01*
Y78994D01*
X808863D01*
X824738Y76975D02*
Y87135D01*
X834898D01*
Y76975D01*
X824738D01*
X826770Y79007D02*
Y85103D01*
X832866D01*
Y79007D01*
X826770D01*
X909193Y144018D02*
Y154178D01*
X919353D01*
Y144018D01*
X909193D01*
X911225Y146050D02*
Y152146D01*
X917321D01*
Y146050D01*
X911225D01*
X916305Y144018D02*
Y154178D01*
X926465D01*
Y144018D01*
X916305D01*
X918337Y146050D02*
Y152146D01*
X924433D01*
Y146050D01*
X918337D01*
X922528Y143891D02*
Y154051D01*
X932688D01*
Y143891D01*
X922528D01*
X924560Y145923D02*
Y152019D01*
X930656D01*
Y145923D01*
X924560D01*
X922655Y150241D02*
Y160401D01*
X932815D01*
Y150241D01*
X922655D01*
X924687Y152273D02*
Y158369D01*
X930783D01*
Y152273D01*
X924687D01*
X916178Y150114D02*
Y160274D01*
X926338D01*
Y150114D01*
X916178D01*
X918210Y152146D02*
Y158242D01*
X924306D01*
Y152146D01*
X918210D01*
X909066Y150114D02*
Y160274D01*
X919226D01*
Y150114D01*
X909066D01*
X911098Y152146D02*
Y158242D01*
X917194D01*
Y152146D01*
X911098D01*
X1038225Y136652D02*
Y146812D01*
X1048385D01*
Y136652D01*
X1038225D01*
X1040257Y138684D02*
Y144780D01*
X1046353D01*
Y138684D01*
X1040257D01*
X1052703Y164592D02*
Y174752D01*
X1062863D01*
Y164592D01*
X1052703D01*
X1054735Y166624D02*
Y172720D01*
X1060831D01*
Y166624D01*
X1054735D01*
X1052449Y169799D02*
Y179959D01*
X1062609D01*
Y169799D01*
X1052449D01*
X1054481Y171831D02*
Y177927D01*
X1060577D01*
Y171831D01*
X1054481D01*
X1052322Y175133D02*
Y185293D01*
X1062482D01*
Y175133D01*
X1052322D01*
X1054354Y177165D02*
Y183261D01*
X1060450D01*
Y177165D01*
X1054354D01*
X900938Y63246D02*
Y73406D01*
X911098D01*
Y63246D01*
X900938D01*
X902970Y65278D02*
Y71374D01*
X909066D01*
Y65278D01*
X902970D01*
X816737Y112141D02*
Y122301D01*
X826897D01*
Y112141D01*
X816737D01*
X818769Y114173D02*
Y120269D01*
X824865D01*
Y114173D01*
X818769D01*
X822452Y112141D02*
Y122301D01*
X832612D01*
Y112141D01*
X822452D01*
X824484Y114173D02*
Y120269D01*
X830580D01*
Y114173D01*
X824484D01*
X828548Y112395D02*
Y122555D01*
X838708D01*
Y112395D01*
X828548D01*
X830580Y114427D02*
Y120523D01*
X836676D01*
Y114427D01*
X830580D01*
X773557Y156591D02*
Y166751D01*
X783717D01*
Y156591D01*
X773557D01*
X775589Y158623D02*
Y164719D01*
X781685D01*
Y158623D01*
X775589D01*
X751586Y91186D02*
Y101346D01*
X761746D01*
Y91186D01*
X751586D01*
X753618Y93218D02*
Y99314D01*
X759714D01*
Y93218D01*
X753618D01*
X729996Y65405D02*
Y75565D01*
X740156D01*
Y65405D01*
X729996D01*
X732028Y67437D02*
Y73533D01*
X738124D01*
Y67437D01*
X732028D01*
X847471Y124587D02*
Y134747D01*
X857631D01*
Y124587D01*
X847471D01*
X849503Y126619D02*
Y132715D01*
X855599D01*
Y126619D01*
X849503D01*
X1014504Y95250D02*
Y105410D01*
X1024664D01*
Y95250D01*
X1014504D01*
X1016536Y97282D02*
Y103378D01*
X1022632D01*
Y97282D01*
X1016536D01*
X1037971Y208534D02*
Y218694D01*
X1048131D01*
Y208534D01*
X1037971D01*
X1040003Y210566D02*
Y216662D01*
X1046099D01*
Y210566D01*
X1040003D01*
X1066673Y518922D02*
Y529082D01*
X1076833D01*
Y518922D01*
X1066673D01*
X1068705Y520954D02*
Y527050D01*
X1074801D01*
Y520954D01*
X1068705D01*
X1061212Y514350D02*
Y524510D01*
X1071372D01*
Y514350D01*
X1061212D01*
X1063244Y516382D02*
Y522478D01*
X1069340D01*
Y516382D01*
X1063244D01*
X997458Y245491D02*
Y255651D01*
X1007618D01*
Y245491D01*
X997458D01*
X999490Y247523D02*
Y253619D01*
X1005586D01*
Y247523D01*
X999490D01*
X1006983Y217043D02*
Y227203D01*
X1017143D01*
Y217043D01*
X1006983D01*
X1009015Y219075D02*
Y225171D01*
X1015111D01*
Y219075D01*
X1009015D01*
X1007110Y188341D02*
Y198501D01*
X1017270D01*
Y188341D01*
X1007110D01*
X1009142Y190373D02*
Y196469D01*
X1015238D01*
Y190373D01*
X1009142D01*
X916051Y222123D02*
Y232283D01*
X926211D01*
Y222123D01*
X916051D01*
X918083Y224155D02*
Y230251D01*
X924179D01*
Y224155D01*
X918083D01*
X904875Y221869D02*
Y232029D01*
X915035D01*
Y221869D01*
X904875D01*
X906907Y223901D02*
Y229997D01*
X913003D01*
Y223901D01*
X906907D01*
X979678Y538480D02*
Y548640D01*
X989838D01*
Y538480D01*
X979678D01*
X981710Y540512D02*
Y546608D01*
X987806D01*
Y540512D01*
X981710D01*
X530277Y283276D02*
Y293436D01*
X540437D01*
Y283276D01*
X530277D01*
X534416Y279654D02*
Y289814D01*
X544576D01*
Y279654D01*
X534416D01*
X1062101Y603758D02*
Y613918D01*
X1072261D01*
Y603758D01*
X1062101D01*
X1064133Y605790D02*
Y611886D01*
X1070229D01*
Y605790D01*
X1064133D01*
X1066546Y608838D02*
Y618998D01*
X1076706D01*
Y608838D01*
X1066546D01*
X1068578Y610870D02*
Y616966D01*
X1074674D01*
Y610870D01*
X1068578D01*
X1070922Y612971D02*
Y623131D01*
X1081082D01*
Y612971D01*
X1070922D01*
X1072954Y615003D02*
Y621099D01*
X1079050D01*
Y615003D01*
X1072954D01*
X1006729Y617347D02*
Y627507D01*
X1016889D01*
Y617347D01*
X1006729D01*
X1008761Y619379D02*
Y625475D01*
X1014857D01*
Y619379D01*
X1008761D01*
X1022223Y793369D02*
Y803529D01*
X1032383D01*
Y793369D01*
X1022223D01*
X1024255Y795401D02*
Y801497D01*
X1030351D01*
Y795401D01*
X1024255D01*
X1025398Y685800D02*
Y695960D01*
X1035558D01*
Y685800D01*
X1025398D01*
X1027430Y687832D02*
Y693928D01*
X1033526D01*
Y687832D01*
X1027430D01*
X1015619Y785749D02*
Y795909D01*
X1025779D01*
Y785749D01*
X1015619D01*
X1017651Y787781D02*
Y793877D01*
X1023747D01*
Y787781D01*
X1017651D01*
X866902Y218821D02*
Y228981D01*
X877062D01*
Y218821D01*
X866902D01*
X868934Y220853D02*
Y226949D01*
X875030D01*
Y220853D01*
X868934D01*
X954913Y260985D02*
Y271145D01*
X965073D01*
Y260985D01*
X954913D01*
X956945Y263017D02*
Y269113D01*
X963041D01*
Y263017D01*
X956945D01*
X947547Y260604D02*
Y270764D01*
X957707D01*
Y260604D01*
X947547D01*
X949579Y262636D02*
Y268732D01*
X955675D01*
Y262636D01*
X949579D01*
X950849Y269240D02*
Y279400D01*
X961009D01*
Y269240D01*
X950849D01*
X952881Y271272D02*
Y277368D01*
X958977D01*
Y271272D01*
X952881D01*
X945007Y269240D02*
Y279400D01*
X955167D01*
Y269240D01*
X945007D01*
X947039Y271272D02*
Y277368D01*
X953135D01*
Y271272D01*
X947039D01*
X944753Y275971D02*
Y286131D01*
X954913D01*
Y275971D01*
X944753D01*
X946785Y278003D02*
Y284099D01*
X952881D01*
Y278003D01*
X946785D01*
X950341Y276225D02*
Y286385D01*
X960501D01*
Y276225D01*
X950341D01*
X952373Y278257D02*
Y284353D01*
X958469D01*
Y278257D01*
X952373D01*
X759460Y242316D02*
Y252476D01*
X769620D01*
Y242316D01*
X759460D01*
X761492Y244348D02*
Y250444D01*
X767588D01*
Y244348D01*
X761492D01*
X867918Y550037D02*
Y560197D01*
X878078D01*
Y550037D01*
X867918D01*
X869950Y552069D02*
Y558165D01*
X876046D01*
Y552069D01*
X869950D01*
X860171Y549783D02*
Y559943D01*
X870331D01*
Y549783D01*
X860171D01*
X862203Y551815D02*
Y557911D01*
X868299D01*
Y551815D01*
X862203D01*
X867918Y556387D02*
Y566547D01*
X878078D01*
Y556387D01*
X867918D01*
X869950Y558419D02*
Y564515D01*
X876046D01*
Y558419D01*
X869950D01*
X860044Y556387D02*
Y566547D01*
X870204D01*
Y556387D01*
X860044D01*
X862076Y558419D02*
Y564515D01*
X868172D01*
Y558419D01*
X862076D01*
X867918Y562737D02*
Y572897D01*
X878078D01*
Y562737D01*
X867918D01*
X869950Y564769D02*
Y570865D01*
X876046D01*
Y564769D01*
X869950D01*
X860044Y562737D02*
Y572897D01*
X870204D01*
Y562737D01*
X860044D01*
X862076Y564769D02*
Y570865D01*
X868172D01*
Y564769D01*
X862076D01*
X759079Y220726D02*
Y230886D01*
X769239D01*
Y220726D01*
X759079D01*
X761111Y222758D02*
Y228854D01*
X767207D01*
Y222758D01*
X761111D01*
X759079Y227838D02*
Y237998D01*
X769239D01*
Y227838D01*
X759079D01*
X761111Y229870D02*
Y235966D01*
X767207D01*
Y229870D01*
X761111D01*
X758952Y234950D02*
Y245110D01*
X769112D01*
Y234950D01*
X758952D01*
X760984Y236982D02*
Y243078D01*
X767080D01*
Y236982D01*
X760984D01*
X764032Y224409D02*
Y234569D01*
X774192D01*
Y224409D01*
X764032D01*
X766064Y226441D02*
Y232537D01*
X772160D01*
Y226441D01*
X766064D01*
X764032Y231521D02*
Y241681D01*
X774192D01*
Y231521D01*
X764032D01*
X766064Y233553D02*
Y239649D01*
X772160D01*
Y233553D01*
X766064D01*
X764159Y238760D02*
Y248920D01*
X774319D01*
Y238760D01*
X764159D01*
X766191Y240792D02*
Y246888D01*
X772287D01*
Y240792D01*
X766191D01*
X1001395Y400685D02*
Y410845D01*
X1011555D01*
Y400685D01*
X1001395D01*
X1003427Y402717D02*
Y408813D01*
X1009523D01*
Y402717D01*
X1003427D01*
X995045Y400812D02*
Y410972D01*
X1005205D01*
Y400812D01*
X995045D01*
X997077Y402844D02*
Y408940D01*
X1003173D01*
Y402844D01*
X997077D01*
X991743Y405892D02*
Y416052D01*
X1001903D01*
Y405892D01*
X991743D01*
X993775Y407924D02*
Y414020D01*
X999871D01*
Y407924D01*
X993775D01*
X998220Y406019D02*
Y416179D01*
X1008380D01*
Y406019D01*
X998220D01*
X1000252Y408051D02*
Y414147D01*
X1006348D01*
Y408051D01*
X1000252D01*
X1004443Y406019D02*
Y416179D01*
X1014603D01*
Y406019D01*
X1004443D01*
X1006475Y408051D02*
Y414147D01*
X1012571D01*
Y408051D01*
X1006475D01*
X1008634Y400304D02*
Y410464D01*
X1018794D01*
Y400304D01*
X1008634D01*
X1010666Y402336D02*
Y408432D01*
X1016762D01*
Y402336D01*
X1010666D01*
X1008507Y394208D02*
Y404368D01*
X1018667D01*
Y394208D01*
X1008507D01*
X1010539Y396240D02*
Y402336D01*
X1016635D01*
Y396240D01*
X1010539D01*
X905002Y284607D02*
Y294767D01*
X915162D01*
Y284607D01*
X905002D01*
X907034Y286639D02*
Y292735D01*
X913130D01*
Y286639D01*
X907034D01*
X894969Y284861D02*
Y295021D01*
X905129D01*
Y284861D01*
X894969D01*
X897001Y286893D02*
Y292989D01*
X903097D01*
Y286893D01*
X897001D01*
X895096Y277495D02*
Y287655D01*
X905256D01*
Y277495D01*
X895096D01*
X897128Y279527D02*
Y285623D01*
X903224D01*
Y279527D01*
X897128D01*
X899795Y274320D02*
Y284480D01*
X909955D01*
Y274320D01*
X899795D01*
X901827Y276352D02*
Y282448D01*
X907923D01*
Y276352D01*
X901827D01*
X899668Y281432D02*
Y291592D01*
X909828D01*
Y281432D01*
X899668D01*
X901700Y283464D02*
Y289560D01*
X907796D01*
Y283464D01*
X901700D01*
X899541Y288544D02*
Y298704D01*
X909701D01*
Y288544D01*
X899541D01*
X901573Y290576D02*
Y296672D01*
X907669D01*
Y290576D01*
X901573D01*
X873506Y335661D02*
Y345821D01*
X883666D01*
Y335661D01*
X873506D01*
X875538Y337693D02*
Y343789D01*
X881634D01*
Y337693D01*
X875538D01*
X885571Y299720D02*
Y309880D01*
X895731D01*
Y299720D01*
X885571D01*
X887603Y301752D02*
Y307848D01*
X893699D01*
Y301752D01*
X887603D01*
X981964Y350520D02*
Y360680D01*
X992124D01*
Y350520D01*
X981964D01*
X983996Y352552D02*
Y358648D01*
X990092D01*
Y352552D01*
X983996D01*
X989711Y350393D02*
Y360553D01*
X999871D01*
Y350393D01*
X989711D01*
X991743Y352425D02*
Y358521D01*
X997839D01*
Y352425D01*
X991743D01*
X997839Y350774D02*
Y360934D01*
X1007999D01*
Y350774D01*
X997839D01*
X999871Y352806D02*
Y358902D01*
X1005967D01*
Y352806D01*
X999871D01*
X997585Y357505D02*
Y367665D01*
X1007745D01*
Y357505D01*
X997585D01*
X999617Y359537D02*
Y365633D01*
X1005713D01*
Y359537D01*
X999617D01*
X990092Y357505D02*
Y367665D01*
X1000252D01*
Y357505D01*
X990092D01*
X992124Y359537D02*
Y365633D01*
X998220D01*
Y359537D01*
X992124D01*
X981837Y357759D02*
Y367919D01*
X991997D01*
Y357759D01*
X981837D01*
X983869Y359791D02*
Y365887D01*
X989965D01*
Y359791D01*
X983869D01*
X858901Y513334D02*
Y523494D01*
X869061D01*
Y513334D01*
X858901D01*
X860933Y515366D02*
Y521462D01*
X867029D01*
Y515366D01*
X860933D01*
X870331Y513207D02*
Y523367D01*
X880491D01*
Y513207D01*
X870331D01*
X872363Y515239D02*
Y521335D01*
X878459D01*
Y515239D01*
X872363D01*
X858520Y504825D02*
Y514985D01*
X868680D01*
Y504825D01*
X858520D01*
X860552Y506857D02*
Y512953D01*
X866648D01*
Y506857D01*
X860552D01*
X870966Y505079D02*
Y515239D01*
X881126D01*
Y505079D01*
X870966D01*
X872998Y507111D02*
Y513207D01*
X879094D01*
Y507111D01*
X872998D01*
X864870Y501142D02*
Y511302D01*
X875030D01*
Y501142D01*
X864870D01*
X866902Y503174D02*
Y509270D01*
X872998D01*
Y503174D01*
X866902D01*
X864616Y508889D02*
Y519049D01*
X874776D01*
Y508889D01*
X864616D01*
X866648Y510921D02*
Y517017D01*
X872744D01*
Y510921D01*
X866648D01*
X864489Y516128D02*
Y526288D01*
X874649D01*
Y516128D01*
X864489D01*
X866521Y518160D02*
Y524256D01*
X872617D01*
Y518160D01*
X866521D01*
X664718Y235585D02*
Y245745D01*
X674878D01*
Y235585D01*
X664718D01*
X666750Y237617D02*
Y243713D01*
X672846D01*
Y237617D01*
X666750D01*
X664718Y240665D02*
Y250825D01*
X674878D01*
Y240665D01*
X664718D01*
X666750Y242697D02*
Y248793D01*
X672846D01*
Y242697D01*
X666750D01*
X664718Y245999D02*
Y256159D01*
X674878D01*
Y245999D01*
X664718D01*
X666750Y248031D02*
Y254127D01*
X672846D01*
Y248031D01*
X666750D01*
X664591Y251460D02*
Y261620D01*
X674751D01*
Y251460D01*
X664591D01*
X666623Y253492D02*
Y259588D01*
X672719D01*
Y253492D01*
X666623D01*
X688848Y252857D02*
Y263017D01*
X699008D01*
Y252857D01*
X688848D01*
X690880Y254889D02*
Y260985D01*
X696976D01*
Y254889D01*
X690880D01*
X695960Y258191D02*
Y268351D01*
X706120D01*
Y258191D01*
X695960D01*
X697992Y260223D02*
Y266319D01*
X704088D01*
Y260223D01*
X697992D01*
X689102Y258826D02*
Y268986D01*
X699262D01*
Y258826D01*
X689102D01*
X691134Y260858D02*
Y266954D01*
X697230D01*
Y260858D01*
X691134D01*
X688721Y264414D02*
Y274574D01*
X698881D01*
Y264414D01*
X688721D01*
X690753Y266446D02*
Y272542D01*
X696849D01*
Y266446D01*
X690753D01*
X515366Y146304D02*
Y156464D01*
X525526D01*
Y146304D01*
X515366D01*
X517398Y148336D02*
Y154432D01*
X523494D01*
Y148336D01*
X517398D01*
X602869Y107823D02*
Y117983D01*
X613029D01*
Y107823D01*
X602869D01*
X604901Y109855D02*
Y115951D01*
X610997D01*
Y109855D01*
X604901D01*
X511048Y140335D02*
Y150495D01*
X521208D01*
Y140335D01*
X511048D01*
X513080Y142367D02*
Y148463D01*
X519176D01*
Y142367D01*
X513080D01*
X592963Y110617D02*
Y120777D01*
X603123D01*
Y110617D01*
X592963D01*
X594995Y112649D02*
Y118745D01*
X601091D01*
Y112649D01*
X594995D01*
X510921Y134239D02*
Y144399D01*
X521081D01*
Y134239D01*
X510921D01*
X512953Y136271D02*
Y142367D01*
X519049D01*
Y136271D01*
X512953D01*
X575691Y120777D02*
Y130937D01*
X585851D01*
Y120777D01*
X575691D01*
X577723Y122809D02*
Y128905D01*
X583819D01*
Y122809D01*
X577723D01*
X578866Y99949D02*
Y110109D01*
X589026D01*
Y99949D01*
X578866D01*
X580898Y101981D02*
Y108077D01*
X586994D01*
Y101981D01*
X580898D01*
X514223Y126619D02*
Y136779D01*
X524383D01*
Y126619D01*
X514223D01*
X516255Y128651D02*
Y134747D01*
X522351D01*
Y128651D01*
X516255D01*
X600329Y327152D02*
Y337312D01*
X610489D01*
Y327152D01*
X600329D01*
X602361Y329184D02*
Y335280D01*
X608457D01*
Y329184D01*
X602361D01*
X430276Y97282D02*
Y107442D01*
X440436D01*
Y97282D01*
X430276D01*
X432308Y99314D02*
Y105410D01*
X438404D01*
Y99314D01*
X432308D01*
X429768Y75057D02*
Y85217D01*
X439928D01*
Y75057D01*
X429768D01*
X431800Y77089D02*
Y83185D01*
X437896D01*
Y77089D01*
X431800D01*
X646588Y87376D02*
Y97536D01*
X656748D01*
Y87376D01*
X646588D01*
X648620Y89408D02*
Y95504D01*
X654716D01*
Y89408D01*
X648620D01*
X641788Y87376D02*
Y97536D01*
X651948D01*
Y87376D01*
X641788D01*
X643820Y89408D02*
Y95504D01*
X649916D01*
Y89408D01*
X643820D01*
X651637Y77470D02*
Y87630D01*
X661797D01*
Y77470D01*
X651637D01*
X653669Y79502D02*
Y85598D01*
X659765D01*
Y79502D01*
X653669D01*
X651637Y82270D02*
Y92430D01*
X661797D01*
Y82270D01*
X651637D01*
X653669Y84302D02*
Y90398D01*
X659765D01*
Y84302D01*
X653669D01*
X648716Y110490D02*
Y120650D01*
X658876D01*
Y110490D01*
X648716D01*
X650748Y112522D02*
Y118618D01*
X656844D01*
Y112522D01*
X650748D01*
X648716Y115290D02*
Y125450D01*
X658876D01*
Y115290D01*
X648716D01*
X650748Y117322D02*
Y123418D01*
X656844D01*
Y117322D01*
X650748D01*
X626491Y136367D02*
Y146527D01*
X636651D01*
Y136367D01*
X626491D01*
X628523Y138399D02*
Y144495D01*
X634619D01*
Y138399D01*
X628523D01*
X626491Y141167D02*
Y151327D01*
X636651D01*
Y141167D01*
X626491D01*
X628523Y143199D02*
Y149295D01*
X634619D01*
Y143199D01*
X628523D01*
X644906Y120619D02*
Y130779D01*
X655066D01*
Y120619D01*
X644906D01*
X646938Y122651D02*
Y128747D01*
X653034D01*
Y122651D01*
X646938D01*
X644906Y125419D02*
Y135579D01*
X655066D01*
Y125419D01*
X644906D01*
X646938Y127451D02*
Y133547D01*
X653034D01*
Y127451D01*
X646938D01*
X675963Y82608D02*
Y92768D01*
X686123D01*
Y82608D01*
X675963D01*
X677995Y84641D02*
Y90737D01*
X684090D01*
Y84641D01*
X677995D01*
X644328Y136779D02*
Y146939D01*
X654488D01*
Y136779D01*
X644328D01*
X646360Y138811D02*
Y144907D01*
X652456D01*
Y138811D01*
X646360D01*
X679357Y79214D02*
Y89374D01*
X689517D01*
Y79214D01*
X679357D01*
X681389Y81246D02*
Y87342D01*
X687485D01*
Y81246D01*
X681389D01*
X649128Y136779D02*
Y146939D01*
X659288D01*
Y136779D01*
X649128D01*
X651160Y138811D02*
Y144907D01*
X657256D01*
Y138811D01*
X651160D01*
X654234Y119634D02*
Y129794D01*
X664394D01*
Y119634D01*
X654234D01*
X656266Y121666D02*
Y127762D01*
X662362D01*
Y121666D01*
X656266D01*
X659034Y119634D02*
Y129794D01*
X669194D01*
Y119634D01*
X659034D01*
X661066Y121666D02*
Y127762D01*
X667162D01*
Y121666D01*
X661066D01*
X390906Y596265D02*
Y606425D01*
X401066D01*
Y596265D01*
X390906D01*
X392938Y598297D02*
Y604393D01*
X399034D01*
Y598297D01*
X392938D01*
X248031Y43307D02*
Y53467D01*
X258191D01*
Y43307D01*
X248031D01*
X250063Y45339D02*
Y51435D01*
X256159D01*
Y45339D01*
X250063D01*
X245364Y37084D02*
Y47244D01*
X255524D01*
Y37084D01*
X245364D01*
X247396Y39116D02*
Y45212D01*
X253492D01*
Y39116D01*
X247396D01*
X239014Y30861D02*
Y41021D01*
X249174D01*
Y30861D01*
X239014D01*
X241046Y32893D02*
Y38989D01*
X247142D01*
Y32893D01*
X241046D01*
X542544Y94988D02*
Y105148D01*
X552704D01*
Y94988D01*
X542544D01*
X544576Y97020D02*
Y103116D01*
X550672D01*
Y97020D01*
X544576D01*
X541528Y121031D02*
Y131191D01*
X551688D01*
Y121031D01*
X541528D01*
X543560Y123063D02*
Y129159D01*
X549656D01*
Y123063D01*
X543560D01*
X554943Y118364D02*
Y128524D01*
X565103D01*
Y118364D01*
X554943D01*
X556975Y120396D02*
Y126492D01*
X563071D01*
Y120396D01*
X556975D01*
X565277Y133223D02*
Y143383D01*
X575437D01*
Y133223D01*
X565277D01*
X567309Y135255D02*
Y141351D01*
X573405D01*
Y135255D01*
X567309D01*
X560415Y118920D02*
Y129080D01*
X570575D01*
Y118920D01*
X560415D01*
X562447Y120952D02*
Y127048D01*
X568543D01*
Y120952D01*
X562447D01*
X538480Y115189D02*
Y125349D01*
X548640D01*
Y115189D01*
X538480D01*
X540512Y117221D02*
Y123317D01*
X546608D01*
Y117221D01*
X540512D01*
X616331Y311150D02*
Y321310D01*
X626491D01*
Y311150D01*
X616331D01*
X618363Y313182D02*
Y319278D01*
X624459D01*
Y313182D01*
X618363D01*
X673354Y290703D02*
Y300863D01*
X683514D01*
Y290703D01*
X673354D01*
X675386Y292735D02*
Y298831D01*
X681482D01*
Y292735D01*
X675386D01*
X270637Y355854D02*
Y366014D01*
X280797D01*
Y355854D01*
X270637D01*
X272669Y357886D02*
Y363982D01*
X278765D01*
Y357886D01*
X272669D01*
X303276Y343027D02*
Y353187D01*
X313436D01*
Y343027D01*
X303276D01*
X305308Y345059D02*
Y351155D01*
X311404D01*
Y345059D01*
X305308D01*
X687578Y401955D02*
Y412115D01*
X697738D01*
Y401955D01*
X687578D01*
X689610Y403987D02*
Y410083D01*
X695706D01*
Y403987D01*
X689610D01*
X572262Y401574D02*
Y411734D01*
X582422D01*
Y401574D01*
X572262D01*
X574294Y403606D02*
Y409702D01*
X580390D01*
Y403606D01*
X574294D01*
X374777Y70612D02*
Y80772D01*
X384937D01*
Y70612D01*
X374777D01*
X376809Y72644D02*
Y78740D01*
X382905D01*
Y72644D01*
X376809D01*
X379349Y74549D02*
Y84709D01*
X389509D01*
Y74549D01*
X379349D01*
X381381Y76581D02*
Y82677D01*
X387477D01*
Y76581D01*
X381381D01*
X405003Y89789D02*
Y99949D01*
X415163D01*
Y89789D01*
X405003D01*
X398780Y95631D02*
Y105791D01*
X408940D01*
Y95631D01*
X398780D01*
X403860D02*
Y105791D01*
X414020D01*
Y95631D01*
X403860D01*
X408813Y95758D02*
Y105918D01*
X418973D01*
Y95758D01*
X408813D01*
X369452Y78520D02*
Y88680D01*
X379612D01*
Y78520D01*
X369452D01*
X363728Y65405D02*
Y75565D01*
X373888D01*
Y65405D01*
X363728D01*
X365760Y67437D02*
Y73533D01*
X371856D01*
Y67437D01*
X365760D01*
X357251Y64262D02*
Y74422D01*
X367411D01*
Y64262D01*
X357251D01*
X359283Y66294D02*
Y72390D01*
X365379D01*
Y66294D01*
X359283D01*
X356489Y58928D02*
Y69088D01*
X366649D01*
Y58928D01*
X356489D01*
X358521Y60960D02*
Y67056D01*
X364617D01*
Y60960D01*
X358521D01*
X263525Y395224D02*
Y405384D01*
X273685D01*
Y395224D01*
X263525D01*
X265557Y397256D02*
Y403352D01*
X271653D01*
Y397256D01*
X265557D01*
X303149Y356362D02*
Y366522D01*
X313309D01*
Y356362D01*
X303149D01*
X305181Y358394D02*
Y364490D01*
X311277D01*
Y358394D01*
X305181D01*
X54229Y518414D02*
Y528574D01*
X64389D01*
Y518414D01*
X54229D01*
X56261Y520446D02*
Y526542D01*
X62357D01*
Y520446D01*
X56261D01*
X365252Y467487D02*
Y477647D01*
X375412D01*
Y467487D01*
X365252D01*
X367284Y469519D02*
Y475615D01*
X373380D01*
Y469519D01*
X367284D01*
X259207Y530606D02*
Y540766D01*
X269367D01*
Y530606D01*
X259207D01*
X261239Y532638D02*
Y538734D01*
X267335D01*
Y532638D01*
X261239D01*
X265557Y530352D02*
Y540512D01*
X275717D01*
Y530352D01*
X265557D01*
X267589Y532384D02*
Y538480D01*
X273685D01*
Y532384D01*
X267589D01*
X271780Y530479D02*
Y540639D01*
X281940D01*
Y530479D01*
X271780D01*
X273812Y532511D02*
Y538607D01*
X279908D01*
Y532511D01*
X273812D01*
X270891Y593090D02*
Y603250D01*
X281051D01*
Y593090D01*
X270891D01*
X272923Y595122D02*
Y601218D01*
X279019D01*
Y595122D01*
X272923D01*
X72898Y522732D02*
Y532892D01*
X83058D01*
Y522732D01*
X72898D01*
X74930Y524764D02*
Y530860D01*
X81026D01*
Y524764D01*
X74930D01*
X67056Y523748D02*
Y533908D01*
X77216D01*
Y523748D01*
X67056D01*
X69088Y525780D02*
Y531876D01*
X75184D01*
Y525780D01*
X69088D01*
X77470Y352425D02*
Y362585D01*
X87630D01*
Y352425D01*
X77470D01*
X79502Y354457D02*
Y360553D01*
X85598D01*
Y354457D01*
X79502D01*
X76200Y397637D02*
Y407797D01*
X86360D01*
Y397637D01*
X76200D01*
X78232Y399669D02*
Y405765D01*
X84328D01*
Y399669D01*
X78232D01*
X80391Y382651D02*
Y392811D01*
X90551D01*
Y382651D01*
X80391D01*
X82423Y384683D02*
Y390779D01*
X88519D01*
Y384683D01*
X82423D01*
X71501Y426847D02*
Y437007D01*
X81661D01*
Y426847D01*
X71501D01*
X73533Y428879D02*
Y434975D01*
X79629D01*
Y428879D01*
X73533D01*
X540893Y428117D02*
Y438277D01*
X551053D01*
Y428117D01*
X540893D01*
X542925Y430149D02*
Y436245D01*
X549021D01*
Y430149D01*
X542925D01*
X465328Y457708D02*
Y467868D01*
X475488D01*
Y457708D01*
X465328D01*
X467360Y459740D02*
Y465836D01*
X473456D01*
Y459740D01*
X467360D01*
X538988Y358140D02*
Y368300D01*
X549148D01*
Y358140D01*
X538988D01*
X541020Y360172D02*
Y366268D01*
X547116D01*
Y360172D01*
X541020D01*
X515201Y358606D02*
Y368766D01*
X525361D01*
Y358606D01*
X515201D01*
X517233Y360638D02*
Y366734D01*
X523329D01*
Y360638D01*
X517233D01*
X570992Y361315D02*
Y371475D01*
X581152D01*
Y361315D01*
X570992D01*
X573024Y363347D02*
Y369443D01*
X579120D01*
Y363347D01*
X573024D01*
X513579Y344892D02*
Y355052D01*
X523740D01*
Y344892D01*
X513579D01*
X514731Y350271D02*
Y360430D01*
X524891D01*
Y350271D01*
X514731D01*
X539496Y348488D02*
Y358648D01*
X549656D01*
Y348488D01*
X539496D01*
X541528Y350520D02*
Y356616D01*
X547624D01*
Y350520D01*
X541528D01*
X539623Y342138D02*
Y352298D01*
X549783D01*
Y342138D01*
X539623D01*
X541655Y344170D02*
Y350266D01*
X547751D01*
Y344170D01*
X541655D01*
X385826Y682752D02*
Y692912D01*
X395986D01*
Y682752D01*
X385826D01*
X387858Y684784D02*
Y690880D01*
X393954D01*
Y684784D01*
X387858D01*
X312928Y729107D02*
Y739267D01*
X323088D01*
Y729107D01*
X312928D01*
X314960Y731139D02*
Y737235D01*
X321056D01*
Y731139D01*
X314960D01*
X383794Y280289D02*
Y290449D01*
X393954D01*
Y280289D01*
X383794D01*
X385826Y282321D02*
Y288417D01*
X391922D01*
Y282321D01*
X385826D01*
X422275Y339979D02*
Y350139D01*
X432435D01*
Y339979D01*
X422275D01*
X424307Y342011D02*
Y348107D01*
X430403D01*
Y342011D01*
X424307D01*
X344678Y393827D02*
Y403987D01*
X354838D01*
Y393827D01*
X344678D01*
X346710Y395859D02*
Y401955D01*
X352806D01*
Y395859D01*
X346710D01*
X592963Y194691D02*
Y204851D01*
X603123D01*
Y194691D01*
X592963D01*
X594995Y196723D02*
Y202819D01*
X601091D01*
Y196723D01*
X594995D01*
X600964Y194818D02*
Y204978D01*
X611124D01*
Y194818D01*
X600964D01*
X602996Y196850D02*
Y202946D01*
X609092D01*
Y196850D01*
X602996D01*
X608203Y194945D02*
Y205105D01*
X618363D01*
Y194945D01*
X608203D01*
X610235Y196977D02*
Y203073D01*
X616331D01*
Y196977D01*
X610235D01*
X616331Y194818D02*
Y204978D01*
X626491D01*
Y194818D01*
X616331D01*
X618363Y196850D02*
Y202946D01*
X624459D01*
Y196850D01*
X618363D01*
X106426Y407924D02*
Y418084D01*
X116586D01*
Y407924D01*
X106426D01*
X108458Y409956D02*
Y416052D01*
X114554D01*
Y409956D01*
X108458D01*
X107696Y591947D02*
Y602107D01*
X117856D01*
Y591947D01*
X107696D01*
X109728Y593979D02*
Y600075D01*
X115824D01*
Y593979D01*
X109728D01*
X107696Y587375D02*
Y597535D01*
X117856D01*
Y587375D01*
X107696D01*
X109728Y589407D02*
Y595503D01*
X115824D01*
Y589407D01*
X109728D01*
X240919Y636270D02*
Y646430D01*
X251079D01*
Y636270D01*
X240919D01*
X242951Y638302D02*
Y644398D01*
X249047D01*
Y638302D01*
X242951D01*
X240792Y641406D02*
Y651566D01*
X250952D01*
Y641406D01*
X240792D01*
X242824Y643438D02*
Y649534D01*
X248920D01*
Y643438D01*
X242824D01*
X521081Y207137D02*
Y217297D01*
X531241D01*
Y207137D01*
X521081D01*
X523113Y209169D02*
Y215265D01*
X529209D01*
Y209169D01*
X523113D01*
X521208Y201422D02*
Y211582D01*
X531368D01*
Y201422D01*
X521208D01*
X523240Y203454D02*
Y209550D01*
X529336D01*
Y203454D01*
X523240D01*
X417830Y529336D02*
Y539496D01*
X427990D01*
Y529336D01*
X417830D01*
X419862Y531368D02*
Y537464D01*
X425958D01*
Y531368D01*
X419862D01*
X417957Y536067D02*
Y546227D01*
X428117D01*
Y536067D01*
X417957D01*
X419989Y538099D02*
Y544195D01*
X426085D01*
Y538099D01*
X419989D01*
X540004Y326263D02*
Y336423D01*
X550164D01*
Y326263D01*
X540004D01*
X542036Y328295D02*
Y334391D01*
X548132D01*
Y328295D01*
X542036D01*
X575818Y291211D02*
Y301371D01*
X585978D01*
Y291211D01*
X575818D01*
X577850Y293243D02*
Y299339D01*
X583946D01*
Y293243D01*
X577850D01*
X570738Y291211D02*
Y301371D01*
X580898D01*
Y291211D01*
X570738D01*
X572770Y293243D02*
Y299339D01*
X578866D01*
Y293243D01*
X572770D01*
X418084Y501904D02*
Y512064D01*
X428244D01*
Y501904D01*
X418084D01*
X420116Y503936D02*
Y510032D01*
X426212D01*
Y503936D01*
X420116D01*
X265557Y592963D02*
Y603123D01*
X275717D01*
Y592963D01*
X265557D01*
X267589Y594995D02*
Y601091D01*
X273685D01*
Y594995D01*
X267589D01*
X266954Y612140D02*
Y622300D01*
X277114D01*
Y612140D01*
X266954D01*
X268986Y614172D02*
Y620268D01*
X275082D01*
Y614172D01*
X268986D01*
X265876Y604582D02*
Y614742D01*
X276036D01*
Y604582D01*
X265876D01*
X267908Y606614D02*
Y612710D01*
X274004D01*
Y606614D01*
X267908D01*
X257429Y619125D02*
Y629285D01*
X267589D01*
Y619125D01*
X257429D01*
X259461Y621157D02*
Y627253D01*
X265557D01*
Y621157D01*
X259461D01*
X174625Y559435D02*
Y569595D01*
X184785D01*
Y559435D01*
X174625D01*
X176657Y561467D02*
Y567563D01*
X182753D01*
Y561467D01*
X176657D01*
X170069Y554879D02*
Y565039D01*
X180229D01*
Y554879D01*
X170069D01*
X172101Y556911D02*
Y563007D01*
X178197D01*
Y556911D01*
X172101D01*
X390398Y621919D02*
Y632079D01*
X400558D01*
Y621919D01*
X390398D01*
X392430Y623951D02*
Y630047D01*
X398526D01*
Y623951D01*
X392430D01*
X572643Y314071D02*
Y324231D01*
X582803D01*
Y314071D01*
X572643D01*
X574675Y316103D02*
Y322199D01*
X580771D01*
Y316103D01*
X574675D01*
X577850Y314071D02*
Y324231D01*
X588010D01*
Y314071D01*
X577850D01*
X579882Y316103D02*
Y322199D01*
X585978D01*
Y316103D01*
X579882D01*
X509778Y194564D02*
Y204724D01*
X519938D01*
Y194564D01*
X509778D01*
X511810Y196596D02*
Y202692D01*
X517906D01*
Y196596D01*
X511810D01*
X515239Y194691D02*
Y204851D01*
X525399D01*
Y194691D01*
X515239D01*
X517271Y196723D02*
Y202819D01*
X523367D01*
Y196723D01*
X517271D01*
X183134Y616077D02*
Y626237D01*
X193294D01*
Y616077D01*
X183134D01*
X185166Y618109D02*
Y624205D01*
X191262D01*
Y618109D01*
X185166D01*
X174879Y599694D02*
Y609854D01*
X185039D01*
Y599694D01*
X174879D01*
X176911Y601726D02*
Y607822D01*
X183007D01*
Y601726D01*
X176911D01*
X378587Y449961D02*
Y460121D01*
X388747D01*
Y449961D01*
X378587D01*
X380619Y451993D02*
Y458089D01*
X386715D01*
Y451993D01*
X380619D01*
X378587Y455930D02*
Y466090D01*
X388747D01*
Y455930D01*
X378587D01*
X380619Y457962D02*
Y464058D01*
X386715D01*
Y457962D01*
X380619D01*
X390398Y605028D02*
Y615188D01*
X400558D01*
Y605028D01*
X390398D01*
X392430Y607060D02*
Y613156D01*
X398526D01*
Y607060D01*
X392430D01*
X399542Y613918D02*
Y624078D01*
X409702D01*
Y613918D01*
X399542D01*
X401574Y615950D02*
Y622046D01*
X407670D01*
Y615950D01*
X401574D01*
X399542Y607949D02*
Y618109D01*
X409702D01*
Y607949D01*
X399542D01*
X401574Y609981D02*
Y616077D01*
X407670D01*
Y609981D01*
X401574D01*
X399415Y602107D02*
Y612267D01*
X409575D01*
Y602107D01*
X399415D01*
X401447Y604139D02*
Y610235D01*
X407543D01*
Y604139D01*
X401447D01*
X301498Y572135D02*
Y582295D01*
X311658D01*
Y572135D01*
X301498D01*
X303530Y574167D02*
Y580263D01*
X309626D01*
Y574167D01*
X303530D01*
X295529Y572135D02*
Y582295D01*
X305689D01*
Y572135D01*
X295529D01*
X297561Y574167D02*
Y580263D01*
X303657D01*
Y574167D01*
X297561D01*
X289687Y572516D02*
Y582676D01*
X299847D01*
Y572516D01*
X289687D01*
X291719Y574548D02*
Y580644D01*
X297815D01*
Y574548D01*
X291719D01*
X303022Y467360D02*
Y477520D01*
X313182D01*
Y467360D01*
X303022D01*
X305054Y469392D02*
Y475488D01*
X311150D01*
Y469392D01*
X305054D01*
X135382Y649097D02*
Y659257D01*
X145542D01*
Y649097D01*
X135382D01*
X137414Y651129D02*
Y657225D01*
X143510D01*
Y651129D01*
X137414D01*
X289072Y464693D02*
Y474853D01*
X299232D01*
Y464693D01*
X289072D01*
X291104Y466725D02*
Y472821D01*
X297200D01*
Y466725D01*
X291104D01*
X278384Y472821D02*
Y482981D01*
X288544D01*
Y472821D01*
X278384D01*
X280416Y474853D02*
Y480949D01*
X286512D01*
Y474853D01*
X280416D01*
X262763Y472694D02*
Y482854D01*
X272923D01*
Y472694D01*
X262763D01*
X264795Y474726D02*
Y480822D01*
X270891D01*
Y474726D01*
X264795D01*
X270383Y472821D02*
Y482981D01*
X280543D01*
Y472821D01*
X270383D01*
X272415Y474853D02*
Y480949D01*
X278511D01*
Y474853D01*
X272415D01*
X200914Y325501D02*
Y335661D01*
X211074D01*
Y325501D01*
X200914D01*
X202946Y327533D02*
Y333629D01*
X209042D01*
Y327533D01*
X202946D01*
X251206Y681736D02*
Y691896D01*
X261366D01*
Y681736D01*
X251206D01*
X253238Y683768D02*
Y689864D01*
X259334D01*
Y683768D01*
X253238D01*
X294005Y342519D02*
Y352679D01*
X304165D01*
Y342519D01*
X294005D01*
X296037Y344551D02*
Y350647D01*
X302133D01*
Y344551D01*
X296037D01*
X378460Y505333D02*
Y515493D01*
X388620D01*
Y505333D01*
X378460D01*
X380492Y507365D02*
Y513461D01*
X386588D01*
Y507365D01*
X380492D01*
X372745Y506857D02*
Y517017D01*
X382905D01*
Y506857D01*
X372745D01*
X374777Y508889D02*
Y514985D01*
X380873D01*
Y508889D01*
X374777D01*
X354076Y477647D02*
Y487807D01*
X364236D01*
Y477647D01*
X354076D01*
X356108Y479679D02*
Y485775D01*
X362204D01*
Y479679D01*
X356108D01*
X138557Y309499D02*
Y319659D01*
X148717D01*
Y309499D01*
X138557D01*
X140589Y311531D02*
Y317627D01*
X146685D01*
Y311531D01*
X140589D01*
X138557Y315214D02*
Y325374D01*
X148717D01*
Y315214D01*
X138557D01*
X140589Y317246D02*
Y323342D01*
X146685D01*
Y317246D01*
X140589D01*
X231648Y452755D02*
Y462915D01*
X241808D01*
Y452755D01*
X231648D01*
X233680Y454787D02*
Y460883D01*
X239776D01*
Y454787D01*
X233680D01*
X226695Y447802D02*
Y457962D01*
X236855D01*
Y447802D01*
X226695D01*
X228727Y449834D02*
Y455930D01*
X234823D01*
Y449834D01*
X228727D01*
X268224Y434467D02*
Y444627D01*
X278384D01*
Y434467D01*
X268224D01*
X270256Y436499D02*
Y442595D01*
X276352D01*
Y436499D01*
X270256D01*
X395133Y243621D02*
Y253781D01*
X405293D01*
Y243621D01*
X395133D01*
X105918Y735457D02*
Y745617D01*
X116078D01*
Y735457D01*
X105918D01*
X107950Y737489D02*
Y743585D01*
X114046D01*
Y737489D01*
X107950D01*
X65913Y703326D02*
Y713486D01*
X76073D01*
Y703326D01*
X65913D01*
X67945Y705358D02*
Y711454D01*
X74041D01*
Y705358D01*
X67945D01*
X304927Y382524D02*
Y392684D01*
X315087D01*
Y382524D01*
X304927D01*
X306959Y384556D02*
Y390652D01*
X313055D01*
Y384556D01*
X306959D01*
X252476Y435229D02*
Y445389D01*
X262636D01*
Y435229D01*
X252476D01*
X254508Y437261D02*
Y443357D01*
X260604D01*
Y437261D01*
X254508D01*
X163703Y529082D02*
Y539242D01*
X173863D01*
Y529082D01*
X163703D01*
X165735Y531114D02*
Y537210D01*
X171831D01*
Y531114D01*
X165735D01*
X157988Y557276D02*
Y567436D01*
X168148D01*
Y557276D01*
X157988D01*
X160020Y559308D02*
Y565404D01*
X166116D01*
Y559308D01*
X160020D01*
X162941Y562356D02*
Y572516D01*
X173101D01*
Y562356D01*
X162941D01*
X164973Y564388D02*
Y570484D01*
X171069D01*
Y564388D01*
X164973D01*
X286258Y514604D02*
Y524764D01*
X296418D01*
Y514604D01*
X286258D01*
X288290Y516636D02*
Y522732D01*
X294386D01*
Y516636D01*
X288290D01*
X272796Y564261D02*
Y574421D01*
X282956D01*
Y564261D01*
X272796D01*
X274828Y566293D02*
Y572389D01*
X280924D01*
Y566293D01*
X274828D01*
X269113Y569001D02*
Y579161D01*
X279273D01*
Y569001D01*
X269113D01*
X271145Y571033D02*
Y577129D01*
X277241D01*
Y571033D01*
X271145D01*
X265811Y573532D02*
Y583692D01*
X275971D01*
Y573532D01*
X265811D01*
X267843Y575564D02*
Y581660D01*
X273939D01*
Y575564D01*
X267843D01*
X290195Y510667D02*
Y520827D01*
X300355D01*
Y510667D01*
X290195D01*
X292227Y512699D02*
Y518795D01*
X298323D01*
Y512699D01*
X292227D01*
X396113Y310134D02*
Y320294D01*
X406273D01*
Y310134D01*
X396113D01*
X398145Y312166D02*
Y318262D01*
X404241D01*
Y312166D01*
X398145D01*
X400685Y363601D02*
Y373761D01*
X410845D01*
Y363601D01*
X400685D01*
X275463Y351028D02*
Y361188D01*
X285623D01*
Y351028D01*
X275463D01*
X277495Y353060D02*
Y359156D01*
X283591D01*
Y353060D01*
X277495D01*
X115570Y566293D02*
Y576453D01*
X125730D01*
Y566293D01*
X115570D01*
X117602Y568325D02*
Y574421D01*
X123698D01*
Y568325D01*
X117602D01*
X127127Y599059D02*
Y609219D01*
X137287D01*
Y599059D01*
X127127D01*
X129159Y601091D02*
Y607187D01*
X135255D01*
Y601091D01*
X129159D01*
X505500Y321397D02*
Y331557D01*
X515660D01*
Y321397D01*
X505500D01*
X507532Y323429D02*
Y329525D01*
X513628D01*
Y323429D01*
X507532D01*
X449872Y252164D02*
Y262324D01*
X460032D01*
Y252164D01*
X449872D01*
X440690Y243459D02*
Y253619D01*
X450850D01*
Y243459D01*
X440690D01*
X442722Y245491D02*
Y251587D01*
X448818D01*
Y245491D01*
X442722D01*
X478790Y203962D02*
Y214122D01*
X488950D01*
Y203962D01*
X478790D01*
X480822Y205994D02*
Y212090D01*
X486918D01*
Y205994D01*
X480822D01*
X425831Y102743D02*
Y112903D01*
X435991D01*
Y102743D01*
X425831D01*
X521589Y314198D02*
Y324358D01*
X531749D01*
Y314198D01*
X521589D01*
X277114Y568071D02*
Y578231D01*
X287274D01*
Y568071D01*
X277114D01*
X279146Y570103D02*
Y576199D01*
X285242D01*
Y570103D01*
X279146D01*
X401701Y151384D02*
Y161544D01*
X411861D01*
Y151384D01*
X401701D01*
X403733Y153416D02*
Y159512D01*
X409829D01*
Y153416D01*
X403733D01*
X385857Y150589D02*
Y160749D01*
X396017D01*
Y150589D01*
X385857D01*
X387889Y152621D02*
Y158717D01*
X393985D01*
Y152621D01*
X387889D01*
X138303Y410591D02*
Y420751D01*
X148463D01*
Y410591D01*
X138303D01*
X140335Y412623D02*
Y418719D01*
X146431D01*
Y412623D01*
X140335D01*
X404876Y130429D02*
Y140589D01*
X415036D01*
Y130429D01*
X404876D01*
X406908Y132461D02*
Y138557D01*
X413004D01*
Y132461D01*
X406908D01*
X414619Y171476D02*
Y181636D01*
X424779D01*
Y171476D01*
X414619D01*
X466725Y329946D02*
Y340106D01*
X476885D01*
Y329946D01*
X466725D01*
X234315Y380873D02*
Y391033D01*
X244475D01*
Y380873D01*
X234315D01*
X236347Y382905D02*
Y389001D01*
X242443D01*
Y382905D01*
X236347D01*
X209931Y366141D02*
Y376301D01*
X220091D01*
Y366141D01*
X209931D01*
X211963Y368173D02*
Y374269D01*
X218059D01*
Y368173D01*
X211963D01*
X421442Y178298D02*
Y188458D01*
X431602D01*
Y178298D01*
X421442D01*
X408371Y165024D02*
Y175184D01*
X418531D01*
Y165024D01*
X408371D01*
X395174Y152363D02*
Y162523D01*
X405335D01*
Y152363D01*
X395174D01*
X204188Y155014D02*
Y165174D01*
X214348D01*
Y155014D01*
X204188D01*
X245364Y381254D02*
Y391414D01*
X255524D01*
Y381254D01*
X245364D01*
X247396Y383286D02*
Y389382D01*
X253492D01*
Y383286D01*
X247396D01*
X388620Y243683D02*
Y253843D01*
X398780D01*
Y243683D01*
X388620D01*
X173736Y398526D02*
Y408686D01*
X183896D01*
Y398526D01*
X173736D01*
X175768Y400558D02*
Y406654D01*
X181864D01*
Y400558D01*
X175768D01*
X246761Y411226D02*
Y421386D01*
X256921D01*
Y411226D01*
X246761D01*
X248793Y413258D02*
Y419354D01*
X254889D01*
Y413258D01*
X248793D01*
X116078Y554609D02*
Y564769D01*
X126238D01*
Y554609D01*
X116078D01*
X118110Y556641D02*
Y562737D01*
X124206D01*
Y556641D01*
X118110D01*
X112903Y312293D02*
Y322453D01*
X123063D01*
Y312293D01*
X112903D01*
X114935Y314325D02*
Y320421D01*
X121031D01*
Y314325D01*
X114935D01*
X106299Y414020D02*
Y424180D01*
X116459D01*
Y414020D01*
X106299D01*
X108331Y416052D02*
Y422148D01*
X114427D01*
Y416052D01*
X108331D01*
X108458Y504825D02*
Y514985D01*
X118618D01*
Y504825D01*
X108458D01*
X110490Y506857D02*
Y512953D01*
X116586D01*
Y506857D01*
X110490D01*
X125349Y218948D02*
Y229108D01*
X135509D01*
Y218948D01*
X125349D01*
X127381Y220980D02*
Y227076D01*
X133477D01*
Y220980D01*
X127381D01*
X81407Y329819D02*
Y339979D01*
X91567D01*
Y329819D01*
X81407D01*
X83439Y331851D02*
Y337947D01*
X89535D01*
Y331851D01*
X83439D01*
X72009Y541096D02*
Y551256D01*
X82169D01*
Y541096D01*
X72009D01*
X74041Y543128D02*
Y549224D01*
X80137D01*
Y543128D01*
X74041D01*
X72263Y601096D02*
Y611256D01*
X82423D01*
Y601096D01*
X72263D01*
X74295Y603128D02*
Y609224D01*
X80391D01*
Y603128D01*
X74295D01*
X73914Y256921D02*
Y267081D01*
X84074D01*
Y256921D01*
X73914D01*
X75946Y258953D02*
Y265049D01*
X82042D01*
Y258953D01*
X75946D01*
X57531Y475107D02*
Y485267D01*
X67691D01*
Y475107D01*
X57531D01*
X59563Y477139D02*
Y483235D01*
X65659D01*
Y477139D01*
X59563D01*
X62611Y133858D02*
Y144018D01*
X72771D01*
Y133858D01*
X62611D01*
X64643Y135890D02*
Y141986D01*
X70739D01*
Y135890D01*
X64643D01*
X139192Y141351D02*
Y151511D01*
X149352D01*
Y141351D01*
X139192D01*
X141224Y143383D02*
Y149479D01*
X147320D01*
Y143383D01*
X141224D01*
X172974Y83947D02*
Y94107D01*
X183134D01*
Y83947D01*
X172974D01*
X175006Y85979D02*
Y92075D01*
X181102D01*
Y85979D01*
X175006D01*
X39370Y147955D02*
Y158115D01*
X49530D01*
Y147955D01*
X39370D01*
X41402Y149987D02*
Y156083D01*
X47498D01*
Y149987D01*
X41402D01*
X39116Y157734D02*
Y167894D01*
X49276D01*
Y157734D01*
X39116D01*
X41148Y159766D02*
Y165862D01*
X47244D01*
Y159766D01*
X41148D01*
X151511Y655828D02*
Y665988D01*
X161671D01*
Y655828D01*
X151511D01*
X153543Y657860D02*
Y663956D01*
X159639D01*
Y657860D01*
X153543D01*
X230449Y630555D02*
Y640715D01*
X240609D01*
Y630555D01*
X230449D01*
X232481Y632587D02*
Y638683D01*
X238577D01*
Y632587D01*
X232481D01*
X175641Y672592D02*
Y682752D01*
X185801D01*
Y672592D01*
X175641D01*
X177673Y674624D02*
Y680720D01*
X183769D01*
Y674624D01*
X177673D01*
X175514Y678307D02*
Y688467D01*
X185674D01*
Y678307D01*
X175514D01*
X177546Y680339D02*
Y686435D01*
X183642D01*
Y680339D01*
X177546D01*
X200914Y624713D02*
Y634873D01*
X211074D01*
Y624713D01*
X200914D01*
X202946Y626745D02*
Y632841D01*
X209042D01*
Y626745D01*
X202946D01*
X191770Y627761D02*
Y637921D01*
X201930D01*
Y627761D01*
X191770D01*
X193802Y629793D02*
Y635889D01*
X199898D01*
Y629793D01*
X193802D01*
X191262Y621919D02*
Y632079D01*
X201422D01*
Y621919D01*
X191262D01*
X193294Y623951D02*
Y630047D01*
X199390D01*
Y623951D01*
X193294D01*
X188976Y615442D02*
Y625602D01*
X199136D01*
Y615442D01*
X188976D01*
X191008Y617474D02*
Y623570D01*
X197104D01*
Y617474D01*
X191008D01*
X198630Y631192D02*
Y641352D01*
X208790D01*
Y631192D01*
X198630D01*
X200662Y633224D02*
Y639320D01*
X206758D01*
Y633224D01*
X200662D01*
X266700Y521335D02*
Y531495D01*
X276860D01*
Y521335D01*
X266700D01*
X268732Y523367D02*
Y529463D01*
X274828D01*
Y523367D01*
X268732D01*
X246232Y521568D02*
Y531728D01*
X256392D01*
Y521568D01*
X246232D01*
X248264Y523600D02*
Y529696D01*
X254360D01*
Y523600D01*
X248264D01*
X118618Y519176D02*
Y529336D01*
X128778D01*
Y519176D01*
X118618D01*
X120650Y521208D02*
Y527304D01*
X126746D01*
Y521208D01*
X120650D01*
X302895Y550799D02*
Y560959D01*
X313055D01*
Y550799D01*
X302895D01*
X304927Y552831D02*
Y558927D01*
X311023D01*
Y552831D01*
X304927D01*
X418416Y469519D02*
Y479679D01*
X428576D01*
Y469519D01*
X418416D01*
X420448Y471551D02*
Y477647D01*
X426544D01*
Y471551D01*
X420448D01*
X91440Y713613D02*
Y723773D01*
X101600D01*
Y713613D01*
X91440D01*
X93472Y715645D02*
Y721741D01*
X99568D01*
Y715645D01*
X93472D01*
X80645Y695198D02*
Y705358D01*
X90805D01*
Y695198D01*
X80645D01*
X82677Y697230D02*
Y703326D01*
X88773D01*
Y697230D01*
X82677D01*
X100457Y700278D02*
Y710438D01*
X110617D01*
Y700278D01*
X100457D01*
X102489Y702310D02*
Y708406D01*
X108585D01*
Y702310D01*
X102489D01*
X394843Y678434D02*
Y688594D01*
X405003D01*
Y678434D01*
X394843D01*
X396875Y680466D02*
Y686562D01*
X402971D01*
Y680466D01*
X396875D01*
X115316Y736092D02*
Y746252D01*
X125476D01*
Y736092D01*
X115316D01*
X117348Y738124D02*
Y744220D01*
X123444D01*
Y738124D01*
X117348D01*
X93472Y783082D02*
Y793242D01*
X103632D01*
Y783082D01*
X93472D01*
X95504Y785114D02*
Y791210D01*
X101600D01*
Y785114D01*
X95504D01*
X387223Y710565D02*
Y720725D01*
X397383D01*
Y710565D01*
X387223D01*
X389255Y712597D02*
Y718693D01*
X395351D01*
Y712597D01*
X389255D01*
X89789Y776732D02*
Y786892D01*
X99949D01*
Y776732D01*
X89789D01*
X91821Y778764D02*
Y784860D01*
X97917D01*
Y778764D01*
X91821D01*
X392557Y704850D02*
Y715010D01*
X402717D01*
Y704850D01*
X392557D01*
X394589Y706882D02*
Y712978D01*
X400685D01*
Y706882D01*
X394589D01*
X312420Y699516D02*
Y709676D01*
X322580D01*
Y699516D01*
X312420D01*
X314452Y701548D02*
Y707644D01*
X320548D01*
Y701548D01*
X314452D01*
X398780Y696849D02*
Y707009D01*
X408940D01*
Y696849D01*
X398780D01*
X400812Y698881D02*
Y704977D01*
X406908D01*
Y698881D01*
X400812D01*
X106426Y785495D02*
Y795655D01*
X116586D01*
Y785495D01*
X106426D01*
X108458Y787527D02*
Y793623D01*
X114554D01*
Y787527D01*
X108458D01*
X350139Y723900D02*
Y734060D01*
X360299D01*
Y723900D01*
X350139D01*
X352171Y725932D02*
Y732028D01*
X358267D01*
Y725932D01*
X352171D01*
X127635Y773811D02*
Y783971D01*
X137795D01*
Y773811D01*
X127635D01*
X129667Y775843D02*
Y781939D01*
X135763D01*
Y775843D01*
X129667D01*
X354711Y718185D02*
Y728345D01*
X364871D01*
Y718185D01*
X354711D01*
X356743Y720217D02*
Y726313D01*
X362839D01*
Y720217D01*
X356743D01*
X264922Y629793D02*
Y639953D01*
X275082D01*
Y629793D01*
X264922D01*
X266954Y631825D02*
Y637921D01*
X273050D01*
Y631825D01*
X266954D01*
X275082Y641096D02*
Y651256D01*
X285242D01*
Y641096D01*
X275082D01*
X277114Y643128D02*
Y649224D01*
X283210D01*
Y643128D01*
X277114D01*
X400939Y532765D02*
Y542925D01*
X411099D01*
Y532765D01*
X400939D01*
X402971Y534797D02*
Y540893D01*
X409067D01*
Y534797D01*
X402971D01*
X182245Y746125D02*
Y756285D01*
X192405D01*
Y746125D01*
X182245D01*
X184277Y748157D02*
Y754253D01*
X190373D01*
Y748157D01*
X184277D01*
X210566Y731012D02*
Y741172D01*
X220726D01*
Y731012D01*
X210566D01*
X212598Y733044D02*
Y739140D01*
X218694D01*
Y733044D01*
X212598D01*
X220726Y726948D02*
Y737108D01*
X230886D01*
Y726948D01*
X220726D01*
X222758Y728980D02*
Y735076D01*
X228854D01*
Y728980D01*
X222758D01*
X235331Y722376D02*
Y732536D01*
X245491D01*
Y722376D01*
X235331D01*
X237363Y724408D02*
Y730504D01*
X243459D01*
Y724408D01*
X237363D01*
X299847Y746887D02*
Y757047D01*
X310007D01*
Y746887D01*
X299847D01*
X301879Y748919D02*
Y755015D01*
X307975D01*
Y748919D01*
X301879D01*
X328620Y418592D02*
Y428752D01*
X338780D01*
Y418592D01*
X328620D01*
X330652Y420624D02*
Y426720D01*
X336748D01*
Y420624D01*
X330652D01*
X329565Y440309D02*
Y450469D01*
X339725D01*
Y440309D01*
X329565D01*
X331597Y442341D02*
Y448437D01*
X337693D01*
Y442341D01*
X331597D01*
X306451Y440182D02*
Y450342D01*
X316611D01*
Y440182D01*
X306451D01*
X308483Y442214D02*
Y448310D01*
X314579D01*
Y442214D01*
X308483D01*
X396494Y522859D02*
Y533019D01*
X406654D01*
Y522859D01*
X396494D01*
X398526Y524891D02*
Y530987D01*
X404622D01*
Y524891D01*
X398526D01*
X59055Y771017D02*
Y781177D01*
X69215D01*
Y771017D01*
X59055D01*
X61087Y773049D02*
Y779145D01*
X67183D01*
Y773049D01*
X61087D01*
X58801Y762127D02*
Y772287D01*
X68961D01*
Y762127D01*
X58801D01*
X60833Y764159D02*
Y770255D01*
X66929D01*
Y764159D01*
X60833D01*
X58674Y752983D02*
Y763143D01*
X68834D01*
Y752983D01*
X58674D01*
X60706Y755015D02*
Y761111D01*
X66802D01*
Y755015D01*
X60706D01*
X58674Y735330D02*
Y745490D01*
X68834D01*
Y735330D01*
X58674D01*
X60706Y737362D02*
Y743458D01*
X66802D01*
Y737362D01*
X60706D01*
X58928Y726186D02*
Y736346D01*
X69088D01*
Y726186D01*
X58928D01*
X60960Y728218D02*
Y734314D01*
X67056D01*
Y728218D01*
X60960D01*
X210566Y751459D02*
Y761619D01*
X220726D01*
Y751459D01*
X210566D01*
X212598Y753491D02*
Y759587D01*
X218694D01*
Y753491D01*
X212598D01*
X234950Y636905D02*
Y647065D01*
X245110D01*
Y636905D01*
X234950D01*
X236982Y638937D02*
Y645033D01*
X243078D01*
Y638937D01*
X236982D01*
X259334Y637921D02*
Y648081D01*
X269494D01*
Y637921D01*
X259334D01*
X261366Y639953D02*
Y646049D01*
X267462D01*
Y639953D01*
X261366D01*
X249555Y638429D02*
Y648589D01*
X259715D01*
Y638429D01*
X249555D01*
X251587Y640461D02*
Y646557D01*
X257683D01*
Y640461D01*
X251587D01*
X274193Y583042D02*
Y593202D01*
X284353D01*
Y583042D01*
X274193D01*
X276225Y585074D02*
Y591170D01*
X282321D01*
Y585074D01*
X276225D01*
X268478Y559562D02*
Y569722D01*
X278638D01*
Y559562D01*
X268478D01*
X270510Y561594D02*
Y567690D01*
X276606D01*
Y561594D01*
X270510D01*
X490601Y382778D02*
Y392938D01*
X500761D01*
Y382778D01*
X490601D01*
X492633Y384810D02*
Y390906D01*
X498729D01*
Y384810D01*
X492633D01*
X484759Y376428D02*
Y386588D01*
X494919D01*
Y376428D01*
X484759D01*
X486791Y378460D02*
Y384556D01*
X492887D01*
Y378460D01*
X486791D01*
X480314Y370840D02*
Y381000D01*
X490474D01*
Y370840D01*
X480314D01*
X482346Y372872D02*
Y378968D01*
X488442D01*
Y372872D01*
X482346D01*
X475234Y364363D02*
Y374523D01*
X485394D01*
Y364363D01*
X475234D01*
X477266Y366395D02*
Y372491D01*
X483362D01*
Y366395D01*
X477266D01*
X455295Y358775D02*
Y368935D01*
X465455D01*
Y358775D01*
X455295D01*
X457327Y360807D02*
Y366903D01*
X463423D01*
Y360807D01*
X457327D01*
X279527Y385445D02*
Y395605D01*
X289687D01*
Y385445D01*
X279527D01*
X281559Y387477D02*
Y393573D01*
X287655D01*
Y387477D01*
X281559D01*
X372999Y322072D02*
Y332232D01*
X383159D01*
Y322072D01*
X372999D01*
X375031Y324104D02*
Y330200D01*
X381127D01*
Y324104D01*
X375031D01*
X291973Y356108D02*
Y366268D01*
X302133D01*
Y356108D01*
X291973D01*
X294005Y358140D02*
Y364236D01*
X300101D01*
Y358140D01*
X294005D01*
X231521Y537210D02*
Y547370D01*
X241681D01*
Y537210D01*
X231521D01*
X233553Y539242D02*
Y545338D01*
X239649D01*
Y539242D01*
X233553D01*
X191643Y545211D02*
Y555371D01*
X201803D01*
Y545211D01*
X191643D01*
X193675Y547243D02*
Y553339D01*
X199771D01*
Y547243D01*
X193675D01*
X178054Y547624D02*
Y557784D01*
X188214D01*
Y547624D01*
X178054D01*
X180086Y549656D02*
Y555752D01*
X186182D01*
Y549656D01*
X180086D01*
X172847Y564896D02*
Y575056D01*
X183007D01*
Y564896D01*
X172847D01*
X174879Y566928D02*
Y573024D01*
X180975D01*
Y566928D01*
X174879D01*
X174243Y574252D02*
Y584412D01*
X184403D01*
Y574252D01*
X174243D01*
X176275Y576284D02*
Y582380D01*
X182371D01*
Y576284D01*
X176275D01*
X169164Y592074D02*
Y602234D01*
X179324D01*
Y592074D01*
X169164D01*
X171196Y594106D02*
Y600202D01*
X177292D01*
Y594106D01*
X171196D01*
X135128Y599313D02*
Y609473D01*
X145288D01*
Y599313D01*
X135128D01*
X137160Y601345D02*
Y607441D01*
X143256D01*
Y601345D01*
X137160D01*
X133731Y591185D02*
Y601345D01*
X143891D01*
Y591185D01*
X133731D01*
X135763Y593217D02*
Y599313D01*
X141859D01*
Y593217D01*
X135763D01*
X133858Y583946D02*
Y594106D01*
X144018D01*
Y583946D01*
X133858D01*
X135890Y585978D02*
Y592074D01*
X141986D01*
Y585978D01*
X135890D01*
X70358Y109728D02*
Y119888D01*
X80518D01*
Y109728D01*
X70358D01*
X72390Y111760D02*
Y117856D01*
X78486D01*
Y111760D01*
X72390D01*
X430412Y331504D02*
Y341664D01*
X440572D01*
Y331504D01*
X430412D01*
X216981Y621476D02*
Y631636D01*
X227141D01*
Y621476D01*
X216981D01*
X219013Y623508D02*
Y629604D01*
X225109D01*
Y623508D01*
X219013D01*
X155194Y140081D02*
Y150241D01*
X165354D01*
Y140081D01*
X155194D01*
X155321Y144907D02*
Y155067D01*
X165481D01*
Y144907D01*
X155321D01*
X388705Y308949D02*
Y319109D01*
X398865D01*
Y308949D01*
X388705D01*
X390737Y310981D02*
Y317077D01*
X396833D01*
Y310981D01*
X390737D01*
X384641Y298027D02*
Y308187D01*
X394801D01*
Y298027D01*
X384641D01*
X386673Y300059D02*
Y306155D01*
X392769D01*
Y300059D01*
X386673D01*
X247396Y675132D02*
Y685292D01*
X257556D01*
Y675132D01*
X247396D01*
X249428Y677164D02*
Y683260D01*
X255524D01*
Y677164D01*
X249428D01*
X241554Y675132D02*
Y685292D01*
X251714D01*
Y675132D01*
X241554D01*
X243586Y677164D02*
Y683260D01*
X249682D01*
Y677164D01*
X243586D01*
X235458Y675005D02*
Y685165D01*
X245618D01*
Y675005D01*
X235458D01*
X237490Y677037D02*
Y683133D01*
X243586D01*
Y677037D01*
X237490D01*
X315468Y643255D02*
Y653415D01*
X325628D01*
Y643255D01*
X315468D01*
X317500Y645287D02*
Y651383D01*
X323596D01*
Y645287D01*
X317500D01*
X315595Y637667D02*
Y647827D01*
X325755D01*
Y637667D01*
X315595D01*
X317627Y639699D02*
Y645795D01*
X323723D01*
Y639699D01*
X317627D01*
X322072Y637921D02*
Y648081D01*
X332232D01*
Y637921D01*
X322072D01*
X324104Y639953D02*
Y646049D01*
X330200D01*
Y639953D01*
X324104D01*
X321945Y643636D02*
Y653796D01*
X332105D01*
Y643636D01*
X321945D01*
X323977Y645668D02*
Y651764D01*
X330073D01*
Y645668D01*
X323977D01*
X467360Y360172D02*
Y370332D01*
X477520D01*
Y360172D01*
X467360D01*
X469392Y362204D02*
Y368300D01*
X475488D01*
Y362204D01*
X469392D01*
X183134Y388239D02*
Y398399D01*
X193294D01*
Y388239D01*
X183134D01*
X185166Y390271D02*
Y396367D01*
X191262D01*
Y390271D01*
X185166D01*
X378841Y323088D02*
Y333248D01*
X389001D01*
Y323088D01*
X378841D01*
X380873Y325120D02*
Y331216D01*
X386969D01*
Y325120D01*
X380873D01*
X183388Y375793D02*
Y385953D01*
X193548D01*
Y375793D01*
X183388D01*
X185420Y377825D02*
Y383921D01*
X191516D01*
Y377825D01*
X185420D01*
X325628Y316484D02*
Y326644D01*
X335788D01*
Y316484D01*
X325628D01*
X403182Y251103D02*
Y261264D01*
X413342D01*
Y251103D01*
X403182D01*
X402661Y243793D02*
Y253953D01*
X412821D01*
Y243793D01*
X402661D01*
X149488Y226856D02*
Y237016D01*
X159648D01*
Y226856D01*
X149488D01*
X228008Y227076D02*
Y237236D01*
X238168D01*
Y227076D01*
X228008D01*
X228163Y175243D02*
Y185403D01*
X238323D01*
Y175243D01*
X228163D01*
X427863Y230221D02*
Y240381D01*
X438023D01*
Y230221D01*
X427863D01*
X388544Y230231D02*
Y240391D01*
X398704D01*
Y230231D01*
X388544D01*
X382044D02*
Y240391D01*
X392204D01*
Y230231D01*
X382044D01*
X395131Y172093D02*
Y182253D01*
X405291D01*
Y172093D01*
X395131D01*
X421523Y230434D02*
Y240594D01*
X431683D01*
Y230434D01*
X421523D01*
X401795Y171983D02*
Y182143D01*
X411955D01*
Y171983D01*
X401795D01*
X388742Y171930D02*
Y182090D01*
X398902D01*
Y171930D01*
X388742D01*
X440735Y230628D02*
Y240788D01*
X450895D01*
Y230628D01*
X440735D01*
X395275Y230932D02*
Y241092D01*
X405435D01*
Y230932D01*
X395275D01*
X447735Y231072D02*
Y241232D01*
X457895D01*
Y231072D01*
X447735D01*
X236977Y169555D02*
Y179715D01*
X247137D01*
Y169555D01*
X236977D01*
X204216Y232964D02*
Y243124D01*
X214376D01*
Y232964D01*
X204216D01*
X434343Y204396D02*
Y214556D01*
X444503D01*
Y204396D01*
X434343D01*
X427620Y198016D02*
Y208176D01*
X437780D01*
Y198016D01*
X427620D01*
X395359Y197970D02*
Y208130D01*
X405519D01*
Y197970D01*
X395359D01*
X401782D02*
Y208130D01*
X411942D01*
Y197970D01*
X401782D01*
X388859D02*
Y208130D01*
X399019D01*
Y197970D01*
X388859D01*
X421282D02*
Y208130D01*
X431442D01*
Y197970D01*
X421282D01*
X220162Y168743D02*
Y178903D01*
X230322D01*
Y168743D01*
X220162D01*
Y233744D02*
Y243904D01*
X230322D01*
Y233744D01*
X220162D01*
X382270Y204470D02*
Y214630D01*
X392430D01*
Y204470D01*
X382270D01*
X375770Y204471D02*
Y214631D01*
X385930D01*
Y204471D01*
X375770D01*
X196478Y168436D02*
Y178596D01*
X206638D01*
Y168436D01*
X196478D01*
X236009Y234338D02*
Y244498D01*
X246169D01*
Y234338D01*
X236009D01*
X260162Y167981D02*
Y178141D01*
X270322D01*
Y167981D01*
X260162D01*
X252161D02*
Y178141D01*
X262321D01*
Y167981D01*
X252161D01*
X260162Y234503D02*
Y244663D01*
X270322D01*
Y234503D01*
X260162D01*
X252161D02*
Y244663D01*
X262321D01*
Y234503D01*
X252161D01*
X356250Y204564D02*
Y214725D01*
X366410D01*
Y204564D01*
X356250D01*
X356075Y197762D02*
Y207922D01*
X366235D01*
Y197762D01*
X356075D01*
X428005Y204699D02*
Y214859D01*
X438165D01*
Y204699D01*
X428005D01*
X387960Y236622D02*
Y246782D01*
X398120D01*
Y236622D01*
X387960D01*
X421747Y236952D02*
Y247112D01*
X431907D01*
Y236952D01*
X421747D01*
X375783Y165471D02*
Y175631D01*
X385943D01*
Y165471D01*
X375783D01*
X362778Y165466D02*
Y175626D01*
X372938D01*
Y165466D01*
X362778D01*
X356278D02*
Y175626D01*
X366438D01*
Y165466D01*
X356278D01*
X362778Y236964D02*
Y247124D01*
X372938D01*
Y236964D01*
X362778D01*
X356278D02*
Y247124D01*
X366438D01*
Y236964D01*
X356278D01*
X421444Y165296D02*
Y175456D01*
X431604D01*
Y165296D01*
X421444D01*
X292349Y237409D02*
Y247569D01*
X302509D01*
Y237409D01*
X292349D01*
Y164841D02*
Y175001D01*
X302509D01*
Y164841D01*
X292349D01*
X204259Y240025D02*
Y250185D01*
X214419D01*
Y240025D01*
X204259D01*
X268163Y162243D02*
Y172403D01*
X278323D01*
Y162243D01*
X268163D01*
X204160D02*
Y172403D01*
X214320D01*
Y162243D01*
X204160D01*
X268163Y240244D02*
Y250404D01*
X278323D01*
Y240244D01*
X268163D01*
X220162D02*
Y250404D01*
X230322D01*
Y240244D01*
X220162D01*
X185048Y162086D02*
Y172246D01*
X195208D01*
Y162086D01*
X185048D01*
X220243Y161608D02*
Y171768D01*
X230403D01*
Y161608D01*
X220243D01*
X188858Y159546D02*
Y169706D01*
X199018D01*
Y159546D01*
X188858D01*
X375839Y243402D02*
Y253562D01*
X385998D01*
Y243402D01*
X375839D01*
X428231Y243436D02*
Y253596D01*
X438391D01*
Y243436D01*
X428231D01*
X415081Y243627D02*
Y253787D01*
X425241D01*
Y243627D01*
X415081D01*
X347467Y158618D02*
Y168778D01*
X357627D01*
Y158618D01*
X347467D01*
X347259Y244148D02*
Y254308D01*
X357419D01*
Y244148D01*
X347259D01*
X185048Y157006D02*
Y167166D01*
X195208D01*
Y157006D01*
X185048D01*
X276164Y155743D02*
Y165903D01*
X286324D01*
Y155743D01*
X276164D01*
X212161D02*
Y165903D01*
X222321D01*
Y155743D01*
X212161D01*
X276164Y246744D02*
Y256904D01*
X286324D01*
Y246744D01*
X276164D01*
X212611Y247043D02*
Y257203D01*
X222771D01*
Y247043D01*
X212611D01*
X204203Y247823D02*
Y257983D01*
X214363D01*
Y247823D01*
X204203D01*
X188858Y154466D02*
Y164626D01*
X199018D01*
Y154466D01*
X188858D01*
X182566Y249774D02*
Y259934D01*
X192726D01*
Y249774D01*
X182566D01*
X421141Y250097D02*
Y260257D01*
X431301D01*
Y250097D01*
X421141D01*
X357802Y250218D02*
Y260378D01*
X367962D01*
Y250218D01*
X357802D01*
X357548Y152210D02*
Y162370D01*
X367708D01*
Y152210D01*
X357548D01*
X388394Y250345D02*
Y260505D01*
X398554D01*
Y250345D01*
X388394D01*
X352064Y250371D02*
Y260531D01*
X362224D01*
Y250371D01*
X352064D01*
X352318Y151956D02*
Y162116D01*
X362478D01*
Y151956D01*
X352318D01*
X185048Y151926D02*
Y162086D01*
X195208D01*
Y151926D01*
X185048D01*
X375548D02*
Y162086D01*
X385708D01*
Y151926D01*
X375548D01*
X380628Y151672D02*
Y161832D01*
X390788D01*
Y151672D01*
X380628D01*
X437223Y250884D02*
Y261044D01*
X447383D01*
Y250884D01*
X437223D01*
X444585Y251011D02*
Y261171D01*
X454745D01*
Y251011D01*
X444585D01*
X347797Y206223D02*
Y216383D01*
X357957D01*
Y206223D01*
X347797D01*
Y196187D02*
Y206347D01*
X357957D01*
Y196187D01*
X347797D01*
X186376Y252314D02*
Y262474D01*
X196536D01*
Y252314D01*
X186376D01*
X290927Y252920D02*
Y263080D01*
X301087D01*
Y252920D01*
X290927D01*
X259021Y149487D02*
Y159647D01*
X269181D01*
Y149487D01*
X259021D01*
X291257Y149352D02*
Y159512D01*
X301417D01*
Y149352D01*
X291257D01*
X276164Y149243D02*
Y159403D01*
X286324D01*
Y149243D01*
X276164D01*
X228163D02*
Y159403D01*
X238323D01*
Y149243D01*
X228163D01*
X212161D02*
Y159403D01*
X222321D01*
Y149243D01*
X212161D01*
X260162Y253241D02*
Y263401D01*
X270322D01*
Y253241D01*
X260162D01*
X276164Y253243D02*
Y263403D01*
X286324D01*
Y253243D01*
X276164D01*
X228613Y253543D02*
Y263703D01*
X238773D01*
Y253543D01*
X228613D01*
X212611D02*
Y263703D01*
X222771D01*
Y253543D01*
X212611D01*
X182540Y254880D02*
Y265040D01*
X192700D01*
Y254880D01*
X182540D01*
X211145Y195758D02*
Y205918D01*
X221305D01*
Y195758D01*
X211145D01*
Y206728D02*
Y216888D01*
X221305D01*
Y206728D01*
X211145D01*
X186350Y257420D02*
Y267580D01*
X196510D01*
Y257420D01*
X186350D01*
X268324Y259150D02*
Y269310D01*
X278484D01*
Y259150D01*
X268324D01*
X268163Y142743D02*
Y152903D01*
X278323D01*
Y142743D01*
X268163D01*
X220162D02*
Y152903D01*
X230322D01*
Y142743D01*
X220162D01*
X260886Y259768D02*
Y269928D01*
X271046D01*
Y259768D01*
X260886D01*
X182566Y259934D02*
Y270094D01*
X192726D01*
Y259934D01*
X182566D01*
X220612Y260043D02*
Y270203D01*
X230772D01*
Y260043D01*
X220612D01*
X234960Y260094D02*
Y270254D01*
X245120D01*
Y260094D01*
X234960D01*
X235166Y137252D02*
Y147412D01*
X245326D01*
Y137252D01*
X235166D01*
X253124Y265611D02*
Y275771D01*
X263284D01*
Y265611D01*
X253124D01*
X253309Y136640D02*
Y146800D01*
X263469D01*
Y136640D01*
X253309D01*
X195524Y194742D02*
Y204902D01*
X205684D01*
Y194742D01*
X195524D01*
X276164Y136243D02*
Y146403D01*
X286324D01*
Y136243D01*
X276164D01*
X195518Y207744D02*
Y217904D01*
X205678D01*
Y207744D01*
X195518D01*
X260994Y267242D02*
Y277402D01*
X271154D01*
Y267242D01*
X260994D01*
X147955Y267843D02*
Y278003D01*
X158115D01*
Y267843D01*
X147955D01*
X323456Y134369D02*
Y144529D01*
X333616D01*
Y134369D01*
X323456D01*
X323393Y269637D02*
Y279797D01*
X333553D01*
Y269637D01*
X323393D01*
X267115Y129724D02*
Y139884D01*
X277276D01*
Y129724D01*
X267115D01*
X225940Y273085D02*
Y283244D01*
X236100D01*
Y273085D01*
X225940D01*
X253832Y129063D02*
Y139223D01*
X263992D01*
Y129063D01*
X253832D01*
X224163Y128291D02*
Y138451D01*
X234323D01*
Y128291D01*
X224163D01*
X232192Y128044D02*
Y138204D01*
X242352D01*
Y128044D01*
X232192D01*
X334259Y278506D02*
Y288666D01*
X344419D01*
Y278506D01*
X334259D01*
X333497Y123475D02*
Y133635D01*
X343657D01*
Y123475D01*
X333497D01*
X379358Y121446D02*
Y131606D01*
X389518D01*
Y121446D01*
X379358D01*
X206756Y283768D02*
Y293928D01*
X216916D01*
Y283768D01*
X206756D01*
X231897Y284348D02*
Y294508D01*
X242057D01*
Y284348D01*
X231897D01*
X199861Y117556D02*
Y127716D01*
X210021D01*
Y117556D01*
X199861D01*
X325877Y285618D02*
Y295778D01*
X336037D01*
Y285618D01*
X325877D01*
X383676Y115096D02*
Y125256D01*
X393836D01*
Y115096D01*
X383676D01*
X332313Y290785D02*
Y300945D01*
X342473D01*
Y290785D01*
X332313D01*
X196732Y291880D02*
Y302040D01*
X206892D01*
Y291880D01*
X196732D01*
X237399Y109936D02*
Y120096D01*
X247559D01*
Y109936D01*
X237399D01*
X383676Y109000D02*
Y119160D01*
X393836D01*
Y109000D01*
X383676D01*
X309037Y106548D02*
Y116708D01*
X319197D01*
Y106548D01*
X309037D01*
X395282Y191471D02*
Y201631D01*
X405442D01*
Y191471D01*
X395282D01*
X401782D02*
Y201631D01*
X411942D01*
Y191471D01*
X401782D01*
X382283D02*
Y201631D01*
X392443D01*
Y191471D01*
X382283D01*
X375770D02*
Y201631D01*
X385930D01*
Y191471D01*
X375770D01*
X408275Y191463D02*
Y201623D01*
X418435D01*
Y191463D01*
X408275D01*
X382270Y210970D02*
Y221130D01*
X392430D01*
Y210970D01*
X382270D01*
X195392Y299612D02*
Y309772D01*
X205551D01*
Y299612D01*
X195392D01*
X385200Y102396D02*
Y112556D01*
X395360D01*
Y102396D01*
X385200D01*
X427947Y211183D02*
Y221343D01*
X438107D01*
Y211183D01*
X427947D01*
X197748Y304326D02*
Y314486D01*
X207908D01*
Y304326D01*
X197748D01*
X385200Y97316D02*
Y107476D01*
X395360D01*
Y97316D01*
X385200D01*
X422284Y309152D02*
Y319312D01*
X432444D01*
Y309152D01*
X422284D01*
X296159Y190368D02*
Y200528D01*
X306319D01*
Y190368D01*
X296159D01*
Y212060D02*
Y222220D01*
X306319D01*
Y212060D01*
X296159D01*
X251653Y189893D02*
Y200053D01*
X261813D01*
Y189893D01*
X251653D01*
X450732Y315248D02*
Y325408D01*
X460892D01*
Y315248D01*
X450732D01*
X239658Y82076D02*
Y92236D01*
X249818D01*
Y82076D01*
X239658D01*
X263791Y80808D02*
Y90968D01*
X273951D01*
Y80808D01*
X263791D01*
X252161Y213355D02*
Y223515D01*
X262321D01*
Y213355D01*
X252161D01*
X318398Y323376D02*
Y333536D01*
X328558D01*
Y323376D01*
X318398D01*
X313318D02*
Y333536D01*
X323478D01*
Y323376D01*
X313318D01*
X284165Y188242D02*
Y198402D01*
X294325D01*
Y188242D01*
X284165D01*
X268163D02*
Y198402D01*
X278323D01*
Y188242D01*
X268163D01*
X204160D02*
Y198402D01*
X214320D01*
Y188242D01*
X204160D01*
X284165Y214242D02*
Y224402D01*
X294325D01*
Y214242D01*
X284165D01*
X268163Y214244D02*
Y224404D01*
X278323D01*
Y214244D01*
X268163D01*
X204160D02*
Y224404D01*
X214320D01*
Y214244D01*
X204160D01*
X347746Y187358D02*
Y197518D01*
X357906D01*
Y187358D01*
X347746D01*
X347723Y215098D02*
Y225258D01*
X357883D01*
Y215098D01*
X347723D01*
X421183Y185494D02*
Y195654D01*
X431343D01*
Y185494D01*
X421183D01*
X326412Y337123D02*
Y347283D01*
X336572D01*
Y337123D01*
X326412D01*
X395478Y217292D02*
Y227452D01*
X405638D01*
Y217292D01*
X395478D01*
X408298Y217442D02*
Y227602D01*
X418458D01*
Y217442D01*
X408298D01*
X375783Y184971D02*
Y195131D01*
X385943D01*
Y184971D01*
X375783D01*
X356278Y184966D02*
Y195126D01*
X366438D01*
Y184966D01*
X356278D01*
Y217465D02*
Y227625D01*
X366438D01*
Y217465D01*
X356278D01*
X401884Y217737D02*
Y227897D01*
X412044D01*
Y217737D01*
X401884D01*
X375742Y217853D02*
Y228013D01*
X385902D01*
Y217853D01*
X375742D01*
X427834Y217884D02*
Y228044D01*
X437994D01*
Y217884D01*
X427834D01*
X378088Y366048D02*
Y376208D01*
X388248D01*
Y366048D01*
X378088D01*
X360172Y367538D02*
Y377698D01*
X370332D01*
Y367538D01*
X360172D01*
X378088Y372398D02*
Y382558D01*
X388248D01*
Y372398D01*
X378088D01*
X360308D02*
Y382558D01*
X370468D01*
Y372398D01*
X360308D01*
X328417Y219578D02*
Y229738D01*
X338577D01*
Y219578D01*
X328417D01*
Y182748D02*
Y192908D01*
X338577D01*
Y182748D01*
X328417D01*
X318257D02*
Y192908D01*
X328417D01*
Y182748D01*
X318257D01*
Y219680D02*
Y229840D01*
X328417D01*
Y219680D01*
X318257D01*
X309524Y182748D02*
Y192908D01*
X319684D01*
Y182748D01*
X309524D01*
X268163Y182504D02*
Y192664D01*
X278323D01*
Y182504D01*
X268163D01*
Y219982D02*
Y230142D01*
X278323D01*
Y219982D01*
X268163D01*
X310637Y220086D02*
Y230246D01*
X320797D01*
Y220086D01*
X310637D01*
X260162Y181742D02*
Y191902D01*
X270322D01*
Y181742D01*
X260162D01*
X212161D02*
Y191902D01*
X222321D01*
Y181742D01*
X212161D01*
X196159D02*
Y191902D01*
X206319D01*
Y181742D01*
X196159D01*
X236141Y181692D02*
Y191852D01*
X246301D01*
Y181692D01*
X236141D01*
X220162D02*
Y191852D01*
X230322D01*
Y181692D01*
X220162D01*
X260162Y220744D02*
Y230904D01*
X270322D01*
Y220744D01*
X260162D01*
X212161D02*
Y230904D01*
X222321D01*
Y220744D01*
X212161D01*
X196159D02*
Y230904D01*
X206319D01*
Y220744D01*
X196159D01*
X220162Y220795D02*
Y230955D01*
X230322D01*
Y220795D01*
X220162D01*
X235199Y221356D02*
Y231516D01*
X245359D01*
Y221356D01*
X235199D01*
X252923Y180980D02*
Y191140D01*
X263083D01*
Y180980D01*
X252923D01*
X276164Y180937D02*
Y191097D01*
X286324D01*
Y180937D01*
X276164D01*
X252923Y221506D02*
Y231666D01*
X263083D01*
Y221506D01*
X252923D01*
X276164Y221547D02*
Y231707D01*
X286324D01*
Y221547D01*
X276164D01*
X304820Y180366D02*
Y190526D01*
X314980D01*
Y180366D01*
X304820D01*
X421474Y223226D02*
Y233386D01*
X431634D01*
Y223226D01*
X421474D01*
X369283Y178941D02*
Y189101D01*
X379443D01*
Y178941D01*
X369283D01*
X402983Y223678D02*
Y233838D01*
X413143D01*
Y223678D01*
X402983D01*
X388544Y223731D02*
Y233891D01*
X398704D01*
Y223731D01*
X388544D01*
X395286Y223933D02*
Y234093D01*
X405446D01*
Y223933D01*
X395286D01*
X395282Y178471D02*
Y188631D01*
X405442D01*
Y178471D01*
X395282D01*
X401782D02*
Y188631D01*
X411942D01*
Y178471D01*
X401782D01*
X388783D02*
Y188631D01*
X398943D01*
Y178471D01*
X388783D01*
X362778Y223965D02*
Y234125D01*
X372938D01*
Y223965D01*
X362778D01*
X382384Y178369D02*
Y188529D01*
X392544D01*
Y178369D01*
X382384D01*
X348102Y178176D02*
Y188336D01*
X358262D01*
Y178176D01*
X348102D01*
X408390Y224265D02*
Y234425D01*
X418550D01*
Y224265D01*
X408390D01*
X347495Y224648D02*
Y234808D01*
X357655D01*
Y224648D01*
X347495D01*
X193938Y225879D02*
Y236039D01*
X204098D01*
Y225879D01*
X193938D01*
D239*
X42799Y376047D02*
G03*
X42799Y376047I-3048J0D01*
G01*
X673608Y87376D02*
G03*
X673608Y87376I-3048J0D01*
G01*
X655574Y241173D02*
G03*
X655574Y241173I-3048J0D01*
G01*
X244221Y793750D02*
G03*
X244221Y793750I-3048J0D01*
G01*
X441325Y701040D02*
G03*
X441325Y701040I-3048J0D01*
G01*
X932053Y687705D02*
G03*
X932053Y687705I-3048J0D01*
G01*
X988441Y809371D02*
G03*
X988441Y809371I-3048J0D01*
G01*
X662686Y393954D02*
G03*
X662686Y393954I-3048J0D01*
G01*
X655828Y372999D02*
G03*
X655828Y372999I-3048J0D01*
G01*
X746252Y393827D02*
G03*
X746252Y393827I-3048J0D01*
G01*
X1071118Y507492D02*
G03*
X1071118Y507492I-3048J0D01*
G01*
X963295Y432816D02*
G03*
X963295Y432816I-3048J0D01*
G01*
X933704Y167640D02*
G03*
X933704Y167640I-3048J0D01*
G01*
X680085Y406908D02*
G03*
X680085Y406908I-3048J0D01*
G01*
X597027D02*
G03*
X597027Y406908I-3048J0D01*
G01*
X498250Y192913D02*
G03*
X498250Y192913I-3048J0D01*
G01*
X272669Y623443D02*
G03*
X272669Y623443I-3048J0D01*
G01*
X311023Y498729D02*
G03*
X311023Y498729I-3048J0D01*
G01*
X487807Y395351D02*
G03*
X487807Y395351I-3048J0D01*
G01*
X177800Y609346D02*
G03*
X177800Y609346I-3048J0D01*
G01*
X179197Y619252D02*
G03*
X179197Y619252I-3048J0D01*
G01*
X339979Y752729D02*
G03*
X339979Y752729I-3048J0D01*
G01*
X54991Y526161D02*
G03*
X54991Y526161I-3048J0D01*
G01*
X49530Y531876D02*
G03*
X49530Y531876I-3048J0D01*
G01*
X66548Y490220D02*
G03*
X66548Y490220I-3048J0D01*
G01*
X72263Y498475D02*
G03*
X72263Y498475I-3048J0D01*
G01*
X84328Y149352D02*
G03*
X84328Y149352I-3048J0D01*
G01*
X53467Y689356D02*
G03*
X53467Y689356I-3048J0D01*
G01*
X26035Y755142D02*
G03*
X26035Y755142I-3048J0D01*
G01*
X179324Y628777D02*
G03*
X179324Y628777I-3048J0D01*
G01*
X143764Y68453D02*
G03*
X143764Y68453I-3048J0D01*
G01*
X151511Y65532D02*
G03*
X151511Y65532I-3048J0D01*
G01*
X146685Y75946D02*
G03*
X146685Y75946I-3048J0D01*
G01*
X91059Y145923D02*
G03*
X91059Y145923I-3048J0D01*
G01*
X126111Y13335D02*
G03*
X126111Y13335I-3048J0D01*
G01*
X131318Y20320D02*
G03*
X131318Y20320I-3048J0D01*
G01*
X130556Y28829D02*
G03*
X130556Y28829I-3048J0D01*
G01*
X122174Y20955D02*
G03*
X122174Y20955I-3048J0D01*
G01*
X121920Y29972D02*
G03*
X121920Y29972I-3048J0D01*
G01*
D296*
X543941Y61468D02*
G03*
X543941Y61468I-5080J0D01*
G01*
X518541D02*
G03*
X518541Y61468I-5080J0D01*
G01*
X531241D02*
G03*
X531241Y61468I-5080J0D01*
G01*
X44831Y376047D02*
G03*
X44831Y376047I-5080J0D01*
G01*
X675640Y87376D02*
G03*
X675640Y87376I-5080J0D01*
G01*
X657606Y241173D02*
G03*
X657606Y241173I-5080J0D01*
G01*
X246253Y793750D02*
G03*
X246253Y793750I-5080J0D01*
G01*
X443357Y701040D02*
G03*
X443357Y701040I-5080J0D01*
G01*
X934085Y687705D02*
G03*
X934085Y687705I-5080J0D01*
G01*
X990473Y809371D02*
G03*
X990473Y809371I-5080J0D01*
G01*
X664718Y393954D02*
G03*
X664718Y393954I-5080J0D01*
G01*
X657860Y372999D02*
G03*
X657860Y372999I-5080J0D01*
G01*
X748284Y393827D02*
G03*
X748284Y393827I-5080J0D01*
G01*
X1073150Y507492D02*
G03*
X1073150Y507492I-5080J0D01*
G01*
X965327Y432816D02*
G03*
X965327Y432816I-5080J0D01*
G01*
X935736Y167640D02*
G03*
X935736Y167640I-5080J0D01*
G01*
X682117Y406908D02*
G03*
X682117Y406908I-5080J0D01*
G01*
X599059D02*
G03*
X599059Y406908I-5080J0D01*
G01*
X500282Y192913D02*
G03*
X500282Y192913I-5080J0D01*
G01*
X274701Y623443D02*
G03*
X274701Y623443I-5080J0D01*
G01*
X313055Y498729D02*
G03*
X313055Y498729I-5080J0D01*
G01*
X489839Y395351D02*
G03*
X489839Y395351I-5080J0D01*
G01*
X179832Y609346D02*
G03*
X179832Y609346I-5080J0D01*
G01*
X181229Y619252D02*
G03*
X181229Y619252I-5080J0D01*
G01*
X342011Y752729D02*
G03*
X342011Y752729I-5080J0D01*
G01*
X57023Y526161D02*
G03*
X57023Y526161I-5080J0D01*
G01*
X51562Y531876D02*
G03*
X51562Y531876I-5080J0D01*
G01*
X68580Y490220D02*
G03*
X68580Y490220I-5080J0D01*
G01*
X74295Y498475D02*
G03*
X74295Y498475I-5080J0D01*
G01*
X86360Y149352D02*
G03*
X86360Y149352I-5080J0D01*
G01*
X55499Y689356D02*
G03*
X55499Y689356I-5080J0D01*
G01*
X28067Y755142D02*
G03*
X28067Y755142I-5080J0D01*
G01*
X181356Y628777D02*
G03*
X181356Y628777I-5080J0D01*
G01*
X145796Y68453D02*
G03*
X145796Y68453I-5080J0D01*
G01*
X153543Y65532D02*
G03*
X153543Y65532I-5080J0D01*
G01*
X148717Y75946D02*
G03*
X148717Y75946I-5080J0D01*
G01*
X93091Y145923D02*
G03*
X93091Y145923I-5080J0D01*
G01*
X128143Y13335D02*
G03*
X128143Y13335I-5080J0D01*
G01*
X133350Y20320D02*
G03*
X133350Y20320I-5080J0D01*
G01*
X132588Y28829D02*
G03*
X132588Y28829I-5080J0D01*
G01*
X124206Y20955D02*
G03*
X124206Y20955I-5080J0D01*
G01*
X123952Y29972D02*
G03*
X123952Y29972I-5080J0D01*
G01*
M02*
