G04*
G04 #@! TF.GenerationSoftware,Altium Limited,Altium Designer,25.6.2 (33)*
G04*
G04 Layer_Color=255*
%FSLAX44Y44*%
%MOMM*%
G71*
G04*
G04 #@! TF.SameCoordinates,3BC4927B-2D28-470F-A7A7-476B94ED2865*
G04*
G04*
G04 #@! TF.FilePolarity,Positive*
G04*
G01*
G75*
%ADD25R,0.8000X0.9000*%
%ADD26R,0.5600X0.6000*%
%ADD27R,0.9652X0.9652*%
%ADD28R,0.6000X0.5600*%
%ADD29R,1.0160X1.4224*%
%ADD30R,0.9652X0.9652*%
%ADD31C,0.7000*%
%ADD32R,0.9000X0.8000*%
%ADD33R,0.5499X0.5499*%
%ADD34R,0.5499X0.5499*%
%ADD35R,0.8001X0.8999*%
%ADD36R,0.8999X0.8001*%
%ADD37C,0.3000*%
%ADD38C,0.2499*%
%ADD39R,3.5000X1.5000*%
%ADD40R,3.5000X1.0000*%
%ADD41R,1.5000X3.5000*%
%ADD42R,1.0000X3.5000*%
%ADD43R,2.5000X1.0000*%
%ADD44R,2.3000X1.0000*%
%ADD48R,1.4000X1.1999*%
%ADD49R,1.1999X1.4000*%
%ADD50R,1.1001X0.5999*%
%ADD51R,0.6000X1.5000*%
%ADD52R,1.5000X0.6000*%
%ADD54R,0.8620X1.2700*%
%ADD56R,1.7000X2.0000*%
%ADD57R,1.2700X0.8620*%
%ADD59R,1.0000X2.3000*%
%ADD60R,1.0000X2.5000*%
%ADD61R,0.8000X0.5500*%
%ADD62R,1.9000X1.3000*%
G04:AMPARAMS|DCode=63|XSize=1.47mm|YSize=0.28mm|CornerRadius=0.035mm|HoleSize=0mm|Usage=FLASHONLY|Rotation=180.000|XOffset=0mm|YOffset=0mm|HoleType=Round|Shape=RoundedRectangle|*
%AMROUNDEDRECTD63*
21,1,1.4700,0.2100,0,0,180.0*
21,1,1.4000,0.2800,0,0,180.0*
1,1,0.0700,-0.7000,0.1050*
1,1,0.0700,0.7000,0.1050*
1,1,0.0700,0.7000,-0.1050*
1,1,0.0700,-0.7000,-0.1050*
%
%ADD63ROUNDEDRECTD63*%
%ADD64R,1.2000X0.9500*%
%ADD65R,2.0000X1.7000*%
%ADD66R,0.5999X1.1001*%
%ADD67R,3.4000X2.5000*%
%ADD68O,0.7000X2.2000*%
%ADD70R,0.2000X1.0000*%
%ADD73R,1.4224X1.0160*%
%ADD74R,2.8000X1.0000*%
%ADD75R,1.7000X0.6000*%
%ADD76R,1.6000X0.8000*%
%ADD77R,0.9650X0.9650*%
%ADD78R,0.8890X1.2192*%
%ADD79R,0.7000X1.2000*%
%ADD81O,0.5999X1.1001*%
G04:AMPARAMS|DCode=82|XSize=0.28mm|YSize=1.47mm|CornerRadius=0.035mm|HoleSize=0mm|Usage=FLASHONLY|Rotation=180.000|XOffset=0mm|YOffset=0mm|HoleType=Round|Shape=RoundedRectangle|*
%AMROUNDEDRECTD82*
21,1,0.2800,1.4000,0,0,180.0*
21,1,0.2100,1.4700,0,0,180.0*
1,1,0.0700,-0.1050,0.7000*
1,1,0.0700,0.1050,0.7000*
1,1,0.0700,0.1050,-0.7000*
1,1,0.0700,-0.1050,-0.7000*
%
%ADD82ROUNDEDRECTD82*%
%ADD84R,0.7620X0.9652*%
%ADD85R,0.9650X0.9650*%
%ADD86R,1.2192X0.8890*%
%ADD87C,1.0000*%
%ADD88C,0.3100*%
%ADD89C,0.3100*%
%ADD95C,0.6000*%
%ADD96O,1.1001X0.5999*%
%ADD101R,0.6500X0.8001*%
%ADD102R,1.7300X0.9700*%
%ADD103R,0.7000X2.0000*%
%AMCUSTOMSHAPE202*
4,1,4,0.2750,0.2750,-0.2750,0.2750,-0.2750,-0.2750,0.2750,-0.2750,0.2750,0.2750,0.0*%
%ADD202CUSTOMSHAPE202*%

%AMCUSTOMSHAPE203*
4,1,4,-0.2750,-0.2750,0.2750,-0.2750,0.2750,0.2750,-0.2750,0.2750,-0.2750,-0.2750,0.0*%
%ADD203CUSTOMSHAPE203*%

%AMCUSTOMSHAPE204*
4,1,4,-0.2750,0.2750,-0.2750,-0.2750,0.2750,-0.2750,0.2750,0.2750,-0.2750,0.2750,0.0*%
%ADD204CUSTOMSHAPE204*%

%AMCUSTOMSHAPE205*
4,1,4,0.2750,-0.2750,0.2750,0.2750,-0.2750,0.2750,-0.2750,-0.2750,0.2750,-0.2750,0.0*%
%ADD205CUSTOMSHAPE205*%

%ADD206R,1.7280X1.4850*%
%ADD207O,2.0380X0.5740*%
%ADD208R,2.4000X3.2000*%
%ADD209O,0.6300X1.8650*%
%ADD210O,0.1500X0.7400*%
%ADD211O,0.7400X0.1500*%
%ADD212R,5.5000X5.5000*%
%ADD213R,1.0500X2.2000*%
%ADD214O,1.8650X0.6300*%
%ADD215C,0.2500*%
%ADD216R,1.2000X3.5000*%
%ADD217R,3.5000X1.2000*%
%ADD218R,0.6500X0.2500*%
%ADD219R,0.2500X0.6500*%
%ADD220R,0.8000X0.8640*%
%ADD221R,3.2000X2.4000*%
%ADD222R,2.1200X1.4000*%
%ADD223R,0.8640X0.8000*%
%ADD224R,2.7200X1.3000*%
%ADD225R,2.0475X2.2410*%
%AMCUSTOMSHAPE226*
4,1,4,0.0000,0.3888,-0.3888,0.0000,0.0000,-0.3888,0.3888,0.0000,0.0000,0.3888,0.0*%
%ADD226CUSTOMSHAPE226*%

%ADD227R,2.1000X0.8000*%
%ADD228R,1.4000X2.1200*%
%ADD229R,1.0000X1.0500*%
%ADD230R,0.8500X1.7000*%
%ADD231R,2.8080X1.2825*%
%ADD232R,3.8200X2.1240*%
%ADD233R,2.4000X3.2000*%
%ADD234R,0.8000X2.1000*%
%ADD260C,1.5000*%
%ADD261C,1.5001*%
%ADD262C,1.5240*%
%ADD263R,1.0000X1.0000*%
%ADD264C,1.0000*%
%ADD265R,1.5000X1.5000*%
%ADD266R,1.5240X1.5240*%
%ADD267C,3.5000*%
%ADD268C,2.5000*%
G36*
G01X486194Y286611D02*
G01X485178D01*
G03X484753Y286126I64J-485D01*
G01Y283967D01*
G03X485178Y283609I424J72D01*
G01X486194D01*
G03Y286611I-1J1501D01*
D02*
G37*
G36*
G01X532544Y269826D02*
G01Y268810D01*
G03X533029Y268385I485J64D01*
G01X535188D01*
G03X535546Y268810I-72J424D01*
G01Y269826D01*
G03X532544I-1501J-1D01*
D02*
G37*
G36*
G01X335992Y310752D02*
G01X334976D01*
G03X334551Y310267I64J-485D01*
G01Y308108D01*
G03X334976Y307750I424J72D01*
G01X335992D01*
G03Y310752I-1J1501D01*
D02*
G37*
G36*
G01X335831Y330304D02*
G01X334815D01*
G03X334390Y329819I64J-485D01*
G01Y327660D01*
G03X334815Y327302I424J72D01*
G01X335831D01*
G03Y330304I-1J1501D01*
D02*
G37*
G36*
G01X335958Y336908D02*
G01X334942D01*
G03X334517Y336423I64J-485D01*
G01Y334264D01*
G03X334942Y333906I424J72D01*
G01X335958D01*
G03Y336908I-1J1501D01*
D02*
G37*
G36*
G01X335911Y316906D02*
G01X334895D01*
G03X334470Y316421I64J-485D01*
G01Y314262D01*
G03X334895Y313904I424J72D01*
G01X335911D01*
G03Y316906I-1J1501D01*
D02*
G37*
G36*
G01X145888Y274886D02*
G01X146904D01*
G03X147329Y275371I-64J485D01*
G01Y277530D01*
G03X146904Y277888I-424J-72D01*
G01X145888D01*
G03Y274886I1J-1501D01*
D02*
G37*
G36*
G01X323258Y353164D02*
G01X322242D01*
G03X321817Y352679I64J-485D01*
G01Y350520D01*
G03X322242Y350162I424J72D01*
G01X323258D01*
G03Y353164I-1J1501D01*
D02*
G37*
G36*
G01X328760Y350162D02*
G01X329776D01*
G03X330201Y350647I-64J485D01*
G01Y352806D01*
G03X329776Y353164I-424J-72D01*
G01X328760D01*
G03Y350162I1J-1501D01*
D02*
G37*
G36*
G01X341495Y346512D02*
G01X342511D01*
G03X342936Y346997I-64J485D01*
G01Y349156D01*
G03X342511Y349514I-424J-72D01*
G01X341495D01*
G03Y346512I1J-1501D01*
D02*
G37*
G36*
G01X367630Y84220D02*
G01Y83204D01*
G03X368115Y82779I485J64D01*
G01X370274D01*
G03X370632Y83204I-72J424D01*
G01Y84220D01*
G03X367630I-1501J-1D01*
D02*
G37*
G36*
G01X361534D02*
G01Y83204D01*
G03X362019Y82779I485J64D01*
G01X364178D01*
G03X364536Y83204I-72J424D01*
G01Y84220D01*
G03X361534I-1501J-1D01*
D02*
G37*
G36*
G01X140386Y277888D02*
G01X139369D01*
G03X138945Y277403I64J-485D01*
G01Y275244D01*
G03X139369Y274886I424J72D01*
G01X140386D01*
G03Y277888I-1J1501D01*
D02*
G37*
G36*
G01X486194Y279499D02*
G01X485178D01*
G03X484753Y279014I64J-485D01*
G01Y276855D01*
G03X485178Y276497I424J72D01*
G01X486194D01*
G03Y279499I-1J1501D01*
D02*
G37*
G36*
G01X491696Y276497D02*
G01X492712D01*
G03X493137Y276982I-64J485D01*
G01Y279141D01*
G03X492712Y279499I-424J-72D01*
G01X491696D01*
G03Y276497I1J-1501D01*
D02*
G37*
G36*
G01X376578Y317670D02*
G01Y316654D01*
G03X377063Y316229I485J64D01*
G01X379222D01*
G03X379580Y316654I-72J424D01*
G01Y317670D01*
G03X376578I-1501J-1D01*
D02*
G37*
G36*
G01X379580Y323172D02*
G01Y324188D01*
G03X379095Y324613I-485J-64D01*
G01X376936D01*
G03X376578Y324188I72J-424D01*
G01Y323172D01*
G03X379580I1501J1D01*
D02*
G37*
G36*
G01X451707Y343564D02*
G01X452425Y344282D01*
G03X452383Y344926I-388J298D01*
G01X450856Y346452D01*
G03X450303Y346405I-249J-351D01*
G01X449584Y345686D01*
G03X451707Y343564I1062J-1060D01*
D02*
G37*
G36*
G01X445694Y341796D02*
G01X444975Y341077D01*
G03X445018Y340434I388J-298D01*
G01X446544Y338907D01*
G03X447098Y338955I249J351D01*
G01X447816Y339673D01*
G03X445694Y341796I-1062J1060D01*
D02*
G37*
G36*
G01X485968Y272719D02*
G01X484952D01*
G03X484527Y272234I64J-485D01*
G01Y270075D01*
G03X484952Y269717I424J72D01*
G01X485968D01*
G03Y272719I-1J1501D01*
D02*
G37*
G36*
G01X491470Y269717D02*
G01X492486D01*
G03X492911Y270202I-64J485D01*
G01Y272361D01*
G03X492486Y272719I-424J-72D01*
G01X491470D01*
G03Y269717I1J-1501D01*
D02*
G37*
G36*
G01X448741Y304204D02*
G01X448023Y303486D01*
G03X448065Y302842I388J-298D01*
G01X449592Y301316D01*
G03X450145Y301363I249J351D01*
G01X450864Y302081D01*
G03X448741Y304204I-1062J1060D01*
D02*
G37*
G36*
G01X454754Y305972D02*
G01X455473Y306691D01*
G03X455430Y307334I-388J298D01*
G01X453904Y308860D01*
G03X453350Y308813I-249J-351D01*
G01X452632Y308095D01*
G03X454754Y305972I1062J-1060D01*
D02*
G37*
G36*
G01X370632Y89722D02*
G01Y90738D01*
G03X370147Y91163I-485J-64D01*
G01X367988D01*
G03X367630Y90738I72J-424D01*
G01Y89722D01*
G03X370632I1501J1D01*
D02*
G37*
G36*
G01X364536D02*
G01Y90738D01*
G03X364051Y91163I-485J-64D01*
G01X361892D01*
G03X361534Y90738I72J-424D01*
G01Y89722D01*
G03X364536I1501J1D01*
D02*
G37*
G36*
G01X419277Y308267D02*
G01X418559Y307549D01*
G03X418601Y306906I388J-298D01*
G01X420128Y305379D01*
G03X420681Y305427I249J351D01*
G01X421400Y306145D01*
G03X419277Y308267I-1062J1060D01*
D02*
G37*
G36*
G01X425290Y310035D02*
G01X426009Y310754D01*
G03X425966Y311397I-388J298D01*
G01X424440Y312924D01*
G03X423886Y312876I-249J-351D01*
G01X423168Y312158D01*
G03X425290Y310035I1062J-1060D01*
D02*
G37*
G36*
G01X433419Y332388D02*
G01X434137Y333106D01*
G03X434095Y333750I-388J298D01*
G01X432568Y335276D01*
G03X432015Y335229I-249J-351D01*
G01X431296Y334510D01*
G03X433419Y332388I1062J-1060D01*
D02*
G37*
G36*
G01X427406Y330620D02*
G01X426687Y329901D01*
G03X426730Y329258I388J-298D01*
G01X428256Y327731D01*
G03X428810Y327779I249J351D01*
G01X429528Y328497D01*
G03X427406Y330620I-1062J1060D01*
D02*
G37*
G36*
G01X335993Y349514D02*
G01X334977D01*
G03X334552Y349029I64J-485D01*
G01Y346870D01*
G03X334977Y346512I424J72D01*
G01X335993D01*
G03Y349514I-1J1501D01*
D02*
G37*
G36*
G01X335782Y322942D02*
G01X334766D01*
G03X334341Y322457I64J-485D01*
G01Y320298D01*
G03X334766Y319940I424J72D01*
G01X335782D01*
G03Y322942I-1J1501D01*
D02*
G37*
G36*
G01X341284Y319940D02*
G01X342300D01*
G03X342725Y320425I-64J485D01*
G01Y322584D01*
G03X342300Y322942I-424J-72D01*
G01X341284D01*
G03Y319940I1J-1501D01*
D02*
G37*
G36*
G01X341495Y340332D02*
G01X342511D01*
G03X342936Y340817I-64J485D01*
G01Y342976D01*
G03X342511Y343334I-424J-72D01*
G01X341495D01*
G03Y340332I1J-1501D01*
D02*
G37*
G36*
G01X335993Y343334D02*
G01X334977D01*
G03X334552Y342849I64J-485D01*
G01Y340690D01*
G03X334977Y340332I424J72D01*
G01X335993D01*
G03Y343334I-1J1501D01*
D02*
G37*
G36*
G01X341413Y313904D02*
G01X342429D01*
G03X342854Y314389I-64J485D01*
G01Y316548D01*
G03X342429Y316906I-424J-72D01*
G01X341413D01*
G03Y313904I1J-1501D01*
D02*
G37*
G36*
G01X341460Y333906D02*
G01X342476D01*
G03X342901Y334391I-64J485D01*
G01Y336550D01*
G03X342476Y336908I-424J-72D01*
G01X341460D01*
G03Y333906I1J-1501D01*
D02*
G37*
G36*
G01X341333Y327302D02*
G01X342349D01*
G03X342774Y327787I-64J485D01*
G01Y329946D01*
G03X342349Y330304I-424J-72D01*
G01X341333D01*
G03Y327302I1J-1501D01*
D02*
G37*
G36*
G01X341494Y307750D02*
G01X342510D01*
G03X342935Y308235I-64J485D01*
G01Y310394D01*
G03X342510Y310752I-424J-72D01*
G01X341494D01*
G03Y307750I1J-1501D01*
D02*
G37*
G36*
G01X535546Y275328D02*
G01Y276344D01*
G03X535061Y276769I-485J-64D01*
G01X532902D01*
G03X532544Y276344I72J-424D01*
G01Y275328D01*
G03X535546I1501J1D01*
D02*
G37*
G36*
G01X491696Y283609D02*
G01X492712D01*
G03X493137Y284094I-64J485D01*
G01Y286253D01*
G03X492712Y286611I-424J-72D01*
G01X491696D01*
G03Y283609I1J-1501D01*
D02*
G37*
D25*
X81026Y168656D02*
D03*
X96266D02*
D03*
X996950Y230378D02*
D03*
X128905Y508000D02*
D03*
X144145D02*
D03*
X108077Y23114D02*
D03*
X92837D02*
D03*
X1057910Y187325D02*
D03*
X1073150D02*
D03*
X1012190Y230378D02*
D03*
D26*
X1051560Y711581D02*
D03*
Y801370D02*
D03*
Y771271D02*
D03*
Y741045D02*
D03*
X110871Y606298D02*
D03*
X109855Y635889D02*
D03*
X110871Y582803D02*
D03*
X110744Y567436D02*
D03*
X434213Y41275D02*
D03*
X1055370Y198755D02*
D03*
X989076Y154686D02*
D03*
X906018Y87376D02*
D03*
X1008507Y109855D02*
D03*
X1022350Y600837D02*
D03*
X970407Y425450D02*
D03*
X856742Y210820D02*
D03*
X946658Y319278D02*
D03*
X637032Y830580D02*
D03*
X343154Y969177D02*
D03*
X102870Y9398D02*
D03*
X96774Y155829D02*
D03*
X130429Y494157D02*
D03*
X808482Y253619D02*
D03*
X818007Y969193D02*
D03*
X903351Y858139D02*
D03*
X1005586Y693166D02*
D03*
X933196Y258318D02*
D03*
X923036D02*
D03*
X1002157Y735711D02*
D03*
X1012317D02*
D03*
X995426Y693166D02*
D03*
X913511Y858139D02*
D03*
X903605Y846074D02*
D03*
X913765D02*
D03*
X739140Y799338D02*
D03*
X749300D02*
D03*
X739394Y787273D02*
D03*
X749554D02*
D03*
X807847Y969193D02*
D03*
X394335Y829564D02*
D03*
X404495D02*
D03*
X1002284Y244856D02*
D03*
X1012444D02*
D03*
X818642Y253619D02*
D03*
X808736Y265176D02*
D03*
X818896D02*
D03*
X869315Y340614D02*
D03*
X859155D02*
D03*
X580517Y131318D02*
D03*
X570357D02*
D03*
X477139Y78232D02*
D03*
X466979D02*
D03*
X140589Y494157D02*
D03*
X134747Y415671D02*
D03*
X124587D02*
D03*
X130429Y180467D02*
D03*
X120269D02*
D03*
X86614Y155829D02*
D03*
X189230Y100219D02*
D03*
X179070D02*
D03*
X188849Y112776D02*
D03*
X178689D02*
D03*
X92710Y9398D02*
D03*
X111125Y45339D02*
D03*
X100965D02*
D03*
X353314Y969177D02*
D03*
X647192Y830580D02*
D03*
X662305Y859663D02*
D03*
X672465D02*
D03*
X982091Y319405D02*
D03*
X971931D02*
D03*
X956818Y319278D02*
D03*
X846582Y210820D02*
D03*
X846709Y222377D02*
D03*
X856869D02*
D03*
X960247Y425450D02*
D03*
X551815Y84074D02*
D03*
X561975D02*
D03*
X212725Y790829D02*
D03*
X345694Y840740D02*
D03*
X999236Y154686D02*
D03*
X104902Y437896D02*
D03*
X94742D02*
D03*
X1012190Y600837D02*
D03*
X1011682Y651383D02*
D03*
X1021842D02*
D03*
X1018667Y109855D02*
D03*
X862584Y122682D02*
D03*
X852424D02*
D03*
X906018Y75692D02*
D03*
X916178D02*
D03*
Y87376D02*
D03*
X778764Y154305D02*
D03*
X788924D02*
D03*
X805180Y153543D02*
D03*
X815340D02*
D03*
X100965Y56261D02*
D03*
X111125D02*
D03*
X1053338Y159893D02*
D03*
X1043178D02*
D03*
X1053465Y148844D02*
D03*
X1043305D02*
D03*
X1065530Y198755D02*
D03*
X444373Y41275D02*
D03*
X434467Y53086D02*
D03*
X444627D02*
D03*
X101473Y352552D02*
D03*
X91313D02*
D03*
X101473Y340868D02*
D03*
X91313D02*
D03*
X1059815Y575056D02*
D03*
X1049655D02*
D03*
X1050798Y519811D02*
D03*
X1060958D02*
D03*
X1061212Y507238D02*
D03*
X1051052D02*
D03*
X100584Y567436D02*
D03*
X100711Y582803D02*
D03*
X99695Y635889D02*
D03*
X100711Y606298D02*
D03*
X1061720Y741045D02*
D03*
Y771271D02*
D03*
Y801370D02*
D03*
Y711581D02*
D03*
X222885Y790829D02*
D03*
X355854Y840740D02*
D03*
X612394Y913765D02*
D03*
X602234D02*
D03*
X514731Y913638D02*
D03*
X504571D02*
D03*
D27*
X513636Y99797D02*
D03*
X735028Y42951D02*
D03*
X875538Y103682D02*
D03*
X139240Y398628D02*
D03*
X279781Y787604D02*
D03*
X109093Y527608D02*
D03*
X939498Y114833D02*
D03*
X139367Y362306D02*
D03*
D28*
X720598Y52070D02*
D03*
X1064895Y149606D02*
D03*
X89662Y56515D02*
D03*
X588899Y72263D02*
D03*
X847217Y587375D02*
D03*
X1020826Y569976D02*
D03*
X687324Y279654D02*
D03*
X153797Y405384D02*
D03*
X154051Y389763D02*
D03*
X373761Y806196D02*
D03*
X429768Y853186D02*
D03*
X705993Y828167D02*
D03*
X1025906Y713105D02*
D03*
X561848Y61214D02*
D03*
Y71374D02*
D03*
X756793Y88900D02*
D03*
Y78740D02*
D03*
X1025906Y723265D02*
D03*
X705993Y818007D02*
D03*
X643890Y501904D02*
D03*
Y512064D02*
D03*
X429768Y843026D02*
D03*
X417068Y843280D02*
D03*
Y853440D02*
D03*
X405892Y843153D02*
D03*
Y853313D02*
D03*
X373761Y816356D02*
D03*
X488950Y487680D02*
D03*
Y477520D02*
D03*
X500253Y487807D02*
D03*
Y477647D02*
D03*
X154051Y379603D02*
D03*
X153797Y415544D02*
D03*
X95504Y527812D02*
D03*
Y537972D02*
D03*
X687324Y269494D02*
D03*
X1008888Y579882D02*
D03*
Y569722D02*
D03*
X1020826Y580136D02*
D03*
X895350Y491490D02*
D03*
Y501650D02*
D03*
X847217Y577215D02*
D03*
X836168Y577088D02*
D03*
Y587248D02*
D03*
X591312Y105156D02*
D03*
Y94996D02*
D03*
X588899Y82423D02*
D03*
X866521Y817118D02*
D03*
X474472Y640842D02*
D03*
Y651002D02*
D03*
X486156Y640842D02*
D03*
Y651002D02*
D03*
X497713Y640715D02*
D03*
Y650875D02*
D03*
X474091Y477266D02*
D03*
Y487426D02*
D03*
X925449Y123825D02*
D03*
Y133985D02*
D03*
X89662Y46355D02*
D03*
X921131Y209804D02*
D03*
Y219964D02*
D03*
X909828Y209677D02*
D03*
Y219837D02*
D03*
X1064895Y159766D02*
D03*
X720598Y62230D02*
D03*
X529717Y91059D02*
D03*
Y80899D02*
D03*
X152908Y343408D02*
D03*
Y353568D02*
D03*
X866521Y806958D02*
D03*
X985520Y815975D02*
D03*
Y826135D02*
D03*
D29*
X978583Y230211D02*
D03*
X1041956Y669377D02*
D03*
X151813Y437856D02*
D03*
X113363Y162346D02*
D03*
X709882Y88813D02*
D03*
X740204Y88733D02*
D03*
X143685Y162266D02*
D03*
X121491Y437936D02*
D03*
X1011634Y669457D02*
D03*
X948261Y230291D02*
D03*
D30*
X769899Y140129D02*
D03*
X1031367Y614299D02*
D03*
X121183Y481505D02*
D03*
X493370Y502364D02*
D03*
X494030Y673735D02*
D03*
X719938Y269446D02*
D03*
X805586Y140002D02*
D03*
X458495Y64183D02*
D03*
X1040815Y560578D02*
D03*
D31*
X374142Y402717D02*
D03*
X379603Y335788D02*
D03*
D32*
X436626Y812038D02*
D03*
X360299Y800735D02*
D03*
X647319Y860806D02*
D03*
X718820Y832739D02*
D03*
X574548Y67818D02*
D03*
Y83058D02*
D03*
X718820Y817499D02*
D03*
X647319Y845566D02*
D03*
X360299Y815975D02*
D03*
X436626Y796798D02*
D03*
D33*
X24582Y694309D02*
D03*
X24836Y703961D02*
D03*
X738688Y195453D02*
D03*
X504119Y186817D02*
D03*
X283520Y545084D02*
D03*
X280853Y513714D02*
D03*
X251658Y513841D02*
D03*
X131755Y317373D02*
D03*
X194629Y297977D02*
D03*
X172165Y231174D02*
D03*
X229823Y86646D02*
D03*
X215203Y303059D02*
D03*
X501146Y314528D02*
D03*
X311103Y321343D02*
D03*
X334447Y632840D02*
D03*
X325445D02*
D03*
X33838Y703961D02*
D03*
X33584Y694309D02*
D03*
X320105Y321343D02*
D03*
X510147Y314528D02*
D03*
X206201Y303059D02*
D03*
X238825Y86646D02*
D03*
X181167Y231174D02*
D03*
X185627Y297977D02*
D03*
X122753Y317373D02*
D03*
X260660Y513841D02*
D03*
X271851Y513714D02*
D03*
X274518Y545084D02*
D03*
X495117Y186817D02*
D03*
X638627Y207772D02*
D03*
X647629D02*
D03*
X729686Y195453D02*
D03*
D34*
X51943Y855401D02*
D03*
X755396Y138374D02*
D03*
X275336Y460939D02*
D03*
X624332Y292100D02*
D03*
X264033Y460812D02*
D03*
X338074Y490022D02*
D03*
X398653Y349433D02*
D03*
X159766Y471114D02*
D03*
X183388Y472130D02*
D03*
X231521Y495371D02*
D03*
X274956Y656915D02*
D03*
X186436Y454716D02*
D03*
X167269Y137265D02*
D03*
X344170Y106990D02*
D03*
X333382Y106898D02*
D03*
X105029Y653613D02*
D03*
X623443Y131501D02*
D03*
X613283D02*
D03*
X105156Y854400D02*
D03*
X22987Y770184D02*
D03*
X202057Y499292D02*
D03*
X201803Y510102D02*
D03*
X222250Y495371D02*
D03*
X240792Y495498D02*
D03*
X231521Y467303D02*
D03*
X202438D02*
D03*
X305562Y768675D02*
D03*
Y777677D02*
D03*
X221742Y467430D02*
D03*
Y476432D02*
D03*
X202438Y476305D02*
D03*
X212217Y467430D02*
D03*
Y476432D02*
D03*
X231521Y476305D02*
D03*
X240792Y504500D02*
D03*
X222250Y504373D02*
D03*
X201803Y519104D02*
D03*
X202057Y490290D02*
D03*
X22987Y761182D02*
D03*
X105156Y863402D02*
D03*
X623443Y122499D02*
D03*
X613283D02*
D03*
X264033Y451810D02*
D03*
X338074Y481020D02*
D03*
X105029Y662615D02*
D03*
X333382Y97896D02*
D03*
X344170Y97988D02*
D03*
X167269Y146267D02*
D03*
X130915Y272761D02*
D03*
Y263759D02*
D03*
X186436Y445714D02*
D03*
X274956Y665917D02*
D03*
X231521Y504373D02*
D03*
X183388Y481132D02*
D03*
X159766Y480116D02*
D03*
X398653Y340431D02*
D03*
X607695Y207970D02*
D03*
Y216972D02*
D03*
X624332Y301102D02*
D03*
X275336Y451937D02*
D03*
X755396Y147376D02*
D03*
X148661Y843082D02*
D03*
Y834080D02*
D03*
X51943Y846399D02*
D03*
D35*
X652429Y248158D02*
D03*
X652414Y234188D02*
D03*
X655559Y262382D02*
D03*
X154066Y612393D02*
D03*
X153939Y626109D02*
D03*
X227696Y690118D02*
D03*
X157728Y284006D02*
D03*
X167000Y172880D02*
D03*
X166609Y257937D02*
D03*
X166452Y244523D02*
D03*
X166618Y191296D02*
D03*
X166619Y205266D02*
D03*
X291108Y84615D02*
D03*
X166619Y219235D02*
D03*
X306318Y336076D02*
D03*
X742711Y138303D02*
D03*
X203215Y690118D02*
D03*
X148321Y548385D02*
D03*
X265034Y816102D02*
D03*
X742584Y123952D02*
D03*
X728584D02*
D03*
X279034Y816102D02*
D03*
X162321Y548385D02*
D03*
X189215Y690118D02*
D03*
X728711Y138303D02*
D03*
X202580Y532257D02*
D03*
X188580D02*
D03*
X320318Y336076D02*
D03*
X180619Y219235D02*
D03*
X277108Y84615D02*
D03*
X180619Y205266D02*
D03*
X180618Y191296D02*
D03*
X180452Y244523D02*
D03*
X180609Y257937D02*
D03*
X181000Y172880D02*
D03*
X171728Y284006D02*
D03*
X241696Y690118D02*
D03*
X139939Y626109D02*
D03*
X140066Y612393D02*
D03*
X669559Y262382D02*
D03*
X638414Y234188D02*
D03*
X638429Y248158D02*
D03*
D36*
X181238Y129686D02*
D03*
X322453Y598693D02*
D03*
X299593Y671463D02*
D03*
X313055D02*
D03*
X327152Y671590D02*
D03*
Y657590D02*
D03*
X313055Y657463D02*
D03*
X299593D02*
D03*
X322453Y584693D02*
D03*
X181238Y143686D02*
D03*
D37*
X293243Y177071D02*
D03*
X277244D02*
D03*
X261242D02*
D03*
X237244D02*
D03*
X221242D02*
D03*
X205243D02*
D03*
X293243Y235573D02*
D03*
X277244D02*
D03*
X261242D02*
D03*
X237244D02*
D03*
X221242D02*
D03*
X205243D02*
D03*
X293243Y164072D02*
D03*
X261242D02*
D03*
X237244D02*
D03*
X205243D02*
D03*
X293243Y248572D02*
D03*
X261242D02*
D03*
X237244D02*
D03*
X205243D02*
D03*
X285242Y157572D02*
D03*
X269243D02*
D03*
X229243D02*
D03*
X213244D02*
D03*
X285242Y255072D02*
D03*
X269243D02*
D03*
X229243D02*
D03*
X213244D02*
D03*
X293243Y151072D02*
D03*
X261242D02*
D03*
X237244D02*
D03*
X205243D02*
D03*
X293243Y261572D02*
D03*
X261242D02*
D03*
X237244D02*
D03*
X205243D02*
D03*
X277244Y138072D02*
D03*
X221242D02*
D03*
X277244Y274572D02*
D03*
X261242D02*
D03*
X237244D02*
D03*
X221242D02*
D03*
X285242Y196571D02*
D03*
X269243D02*
D03*
X229243D02*
D03*
X213244D02*
D03*
X285242Y216073D02*
D03*
X269243D02*
D03*
X229243D02*
D03*
X213244D02*
D03*
X293243Y190071D02*
D03*
X277244D02*
D03*
X221242D02*
D03*
X205243D02*
D03*
X293243Y222573D02*
D03*
X277244D02*
D03*
X221242D02*
D03*
X205243D02*
D03*
Y229073D02*
D03*
X213244D02*
D03*
X221242D02*
D03*
X229243D02*
D03*
X237244D02*
D03*
X261242D02*
D03*
X269243D02*
D03*
X277244D02*
D03*
X285242D02*
D03*
X293243D02*
D03*
X205243Y183571D02*
D03*
X213244D02*
D03*
X221242D02*
D03*
X229243D02*
D03*
X237244D02*
D03*
X261242D02*
D03*
X269243D02*
D03*
X277244D02*
D03*
X285242D02*
D03*
X293243D02*
D03*
X213244Y222573D02*
D03*
X229243D02*
D03*
X237244D02*
D03*
X261242D02*
D03*
X269243D02*
D03*
X285242D02*
D03*
X213244Y190071D02*
D03*
X229243D02*
D03*
X237244D02*
D03*
X261242D02*
D03*
X269243D02*
D03*
X285242D02*
D03*
X205243Y216073D02*
D03*
X221242D02*
D03*
X237244D02*
D03*
X261242D02*
D03*
X277244D02*
D03*
X293243D02*
D03*
X205243Y196571D02*
D03*
X221242D02*
D03*
X237244D02*
D03*
X261242D02*
D03*
X277244D02*
D03*
X293243D02*
D03*
X205243Y274572D02*
D03*
X213244D02*
D03*
X229243D02*
D03*
X269243D02*
D03*
X285242D02*
D03*
X293243D02*
D03*
X205243Y138072D02*
D03*
X213244D02*
D03*
X229243D02*
D03*
X237244D02*
D03*
X261242D02*
D03*
X269243D02*
D03*
X285242D02*
D03*
X293243D02*
D03*
X205243Y268072D02*
D03*
X213244D02*
D03*
X221242D02*
D03*
X229243D02*
D03*
X237244D02*
D03*
X261242D02*
D03*
X269243D02*
D03*
X277244D02*
D03*
X285242D02*
D03*
X293243D02*
D03*
X205243Y144572D02*
D03*
X213244D02*
D03*
X221242D02*
D03*
X229243D02*
D03*
X237244D02*
D03*
X261242D02*
D03*
X269243D02*
D03*
X277244D02*
D03*
X285242D02*
D03*
X293243D02*
D03*
X213244Y261572D02*
D03*
X221242D02*
D03*
X229243D02*
D03*
X269243D02*
D03*
X277244D02*
D03*
X285242D02*
D03*
X213244Y151072D02*
D03*
X221242D02*
D03*
X229243D02*
D03*
X269243D02*
D03*
X277244D02*
D03*
X285242D02*
D03*
X205243Y255072D02*
D03*
X221242D02*
D03*
X237244D02*
D03*
X261242D02*
D03*
X277244D02*
D03*
X293243D02*
D03*
X205243Y157572D02*
D03*
X221242D02*
D03*
X237244D02*
D03*
X261242D02*
D03*
X277244D02*
D03*
X293243D02*
D03*
X213244Y248572D02*
D03*
X221242D02*
D03*
X229243D02*
D03*
X269243D02*
D03*
X277244D02*
D03*
X285242D02*
D03*
X213244Y164072D02*
D03*
X221242D02*
D03*
X229243D02*
D03*
X269243D02*
D03*
X277244D02*
D03*
X285242D02*
D03*
X205243Y242072D02*
D03*
X213244D02*
D03*
X221242D02*
D03*
X229243D02*
D03*
X237244D02*
D03*
X261242D02*
D03*
X269243D02*
D03*
X277244D02*
D03*
X285242D02*
D03*
X293243D02*
D03*
X205243Y170572D02*
D03*
X213244D02*
D03*
X221242D02*
D03*
X229243D02*
D03*
X237244D02*
D03*
X261242D02*
D03*
X269243D02*
D03*
X277244D02*
D03*
X285242D02*
D03*
X293243D02*
D03*
X213244Y235573D02*
D03*
X229243D02*
D03*
X269243D02*
D03*
X285242D02*
D03*
X213244Y177071D02*
D03*
X229243D02*
D03*
X269243D02*
D03*
X285242D02*
D03*
D38*
X348605Y181293D02*
D03*
Y231295D02*
D03*
X458607Y181293D02*
D03*
Y186294D02*
D03*
X384106Y225794D02*
D03*
X416606Y186794D02*
D03*
Y225794D02*
D03*
X390606Y186794D02*
D03*
X410106D02*
D03*
X449105D02*
D03*
X358107D02*
D03*
Y225794D02*
D03*
X442605Y186794D02*
D03*
Y225794D02*
D03*
X364607Y186794D02*
D03*
X436105D02*
D03*
Y225794D02*
D03*
X371107Y186794D02*
D03*
Y225794D02*
D03*
X429605Y186794D02*
D03*
X403606D02*
D03*
X458607Y191293D02*
D03*
X423106Y219294D02*
D03*
X416606Y193294D02*
D03*
X390606Y219294D02*
D03*
X397106Y193294D02*
D03*
X449105D02*
D03*
Y219294D02*
D03*
X442605Y193294D02*
D03*
Y219294D02*
D03*
X436105Y193294D02*
D03*
Y219294D02*
D03*
X371107Y193294D02*
D03*
Y219294D02*
D03*
X429605Y193294D02*
D03*
X377607Y219294D02*
D03*
X338605Y216294D02*
D03*
Y196294D02*
D03*
X458607D02*
D03*
X393606Y271295D02*
D03*
X468607D02*
D03*
Y141293D02*
D03*
X338605Y271295D02*
D03*
Y141293D02*
D03*
X368605Y271295D02*
D03*
X438607D02*
D03*
X423106Y212794D02*
D03*
Y199794D02*
D03*
X416606Y212794D02*
D03*
Y199794D02*
D03*
X390606Y212794D02*
D03*
Y199794D02*
D03*
X410106Y212794D02*
D03*
X397106D02*
D03*
Y199794D02*
D03*
X449105Y212794D02*
D03*
X442605D02*
D03*
X364607D02*
D03*
X436105Y199794D02*
D03*
X371107D02*
D03*
X377607Y212794D02*
D03*
Y199794D02*
D03*
X403606Y212794D02*
D03*
X468607Y266294D02*
D03*
X458607Y146294D02*
D03*
X353606D02*
D03*
X438607Y266294D02*
D03*
X403606D02*
D03*
X378605Y151293D02*
D03*
X418607D02*
D03*
X388605Y261295D02*
D03*
X348605Y151293D02*
D03*
Y261295D02*
D03*
X458607Y151293D02*
D03*
Y261295D02*
D03*
X453606Y151293D02*
D03*
Y261295D02*
D03*
X358605Y151293D02*
D03*
X448607D02*
D03*
X363606D02*
D03*
X443606Y261295D02*
D03*
X368605D02*
D03*
X463606Y256294D02*
D03*
X348605Y156294D02*
D03*
Y256294D02*
D03*
X458607Y156294D02*
D03*
X468607Y211295D02*
D03*
X348605D02*
D03*
Y201293D02*
D03*
X458607D02*
D03*
X423106Y251793D02*
D03*
X390606D02*
D03*
X449105Y160795D02*
D03*
X442605D02*
D03*
X436105Y251793D02*
D03*
Y160795D02*
D03*
X371107Y251793D02*
D03*
Y160795D02*
D03*
X377607Y251793D02*
D03*
Y160795D02*
D03*
X458607Y161293D02*
D03*
Y166294D02*
D03*
X384106Y167295D02*
D03*
X397106D02*
D03*
Y245293D02*
D03*
X449105Y167295D02*
D03*
Y245293D02*
D03*
X358107Y167295D02*
D03*
Y245293D02*
D03*
X442605Y167295D02*
D03*
X364607D02*
D03*
Y245293D02*
D03*
X436105Y167295D02*
D03*
Y245293D02*
D03*
X371107Y167295D02*
D03*
Y245293D02*
D03*
X377607Y167295D02*
D03*
Y245293D02*
D03*
X403606Y167295D02*
D03*
X348605Y171293D02*
D03*
Y241295D02*
D03*
X458607Y171293D02*
D03*
Y241295D02*
D03*
X384106Y238793D02*
D03*
X416606D02*
D03*
X390606Y173795D02*
D03*
X410106D02*
D03*
Y238793D02*
D03*
X397106D02*
D03*
X442605D02*
D03*
X436105Y173795D02*
D03*
Y238793D02*
D03*
X371107Y173795D02*
D03*
Y238793D02*
D03*
X429605Y173795D02*
D03*
X377607D02*
D03*
Y238793D02*
D03*
X403606D02*
D03*
X458607Y176294D02*
D03*
X423106Y180295D02*
D03*
X416606D02*
D03*
Y232293D02*
D03*
X390606Y180295D02*
D03*
X410106D02*
D03*
X449105D02*
D03*
Y232293D02*
D03*
X358107Y180295D02*
D03*
Y232293D02*
D03*
X442605Y180295D02*
D03*
X364607D02*
D03*
Y232293D02*
D03*
X436105Y180295D02*
D03*
Y232293D02*
D03*
X371107Y180295D02*
D03*
Y232293D02*
D03*
X429605D02*
D03*
X377607D02*
D03*
X403606D02*
D03*
X416606Y206294D02*
D03*
X410106D02*
D03*
X343606D02*
D03*
X348605D02*
D03*
X458607D02*
D03*
X449105D02*
D03*
X442605D02*
D03*
X436105D02*
D03*
X377607D02*
D03*
X468607Y181293D02*
D03*
X373606Y151293D02*
D03*
X463606Y181293D02*
D03*
Y271295D02*
D03*
Y266294D02*
D03*
X363606D02*
D03*
X378605Y261295D02*
D03*
X403606Y245293D02*
D03*
X416606Y173795D02*
D03*
X423106Y186794D02*
D03*
X429605Y180295D02*
D03*
X416606Y167295D02*
D03*
X390606Y245293D02*
D03*
X403606Y206294D02*
D03*
X429605D02*
D03*
X364607D02*
D03*
X358107D02*
D03*
X463606D02*
D03*
X397106D02*
D03*
X468607D02*
D03*
X384106D02*
D03*
X423106D02*
D03*
X403606Y180295D02*
D03*
X377607D02*
D03*
X442605Y232293D02*
D03*
X397106D02*
D03*
Y180295D02*
D03*
X410106Y232293D02*
D03*
X390606D02*
D03*
X384106D02*
D03*
Y180295D02*
D03*
X423106Y232293D02*
D03*
X458607Y236294D02*
D03*
X348605D02*
D03*
Y176294D02*
D03*
X463606Y236294D02*
D03*
Y176294D02*
D03*
X343606Y236294D02*
D03*
Y176294D02*
D03*
X338605Y236294D02*
D03*
Y176294D02*
D03*
X468607D02*
D03*
X403606Y173795D02*
D03*
X429605Y238793D02*
D03*
X364607D02*
D03*
Y173795D02*
D03*
X442605D02*
D03*
X358107Y238793D02*
D03*
Y173795D02*
D03*
X449105Y238793D02*
D03*
Y173795D02*
D03*
X397106D02*
D03*
X390606Y238793D02*
D03*
X384106Y173795D02*
D03*
X423106Y238793D02*
D03*
Y173795D02*
D03*
X463606Y241295D02*
D03*
Y171293D02*
D03*
X343606Y241295D02*
D03*
Y171293D02*
D03*
X468607Y241295D02*
D03*
Y171293D02*
D03*
X429605Y245293D02*
D03*
Y167295D02*
D03*
X442605Y245293D02*
D03*
X410106D02*
D03*
Y167295D02*
D03*
X390606D02*
D03*
X416606Y245293D02*
D03*
X384106D02*
D03*
X423106D02*
D03*
Y167295D02*
D03*
X458607Y246294D02*
D03*
X348605D02*
D03*
Y166294D02*
D03*
X463606Y246294D02*
D03*
Y166294D02*
D03*
X343606Y246294D02*
D03*
Y166294D02*
D03*
X338605Y246294D02*
D03*
Y166294D02*
D03*
X468607D02*
D03*
X458607Y251295D02*
D03*
X348605D02*
D03*
Y161293D02*
D03*
X463606Y251295D02*
D03*
Y161293D02*
D03*
X343606Y251295D02*
D03*
Y161293D02*
D03*
X468607Y251295D02*
D03*
Y161293D02*
D03*
X403606Y160795D02*
D03*
Y251793D02*
D03*
X429605Y160795D02*
D03*
Y251793D02*
D03*
X364607Y160795D02*
D03*
Y251793D02*
D03*
X442605D02*
D03*
X358107Y160795D02*
D03*
Y251793D02*
D03*
X449105D02*
D03*
X397106Y160795D02*
D03*
Y251793D02*
D03*
X410106Y160795D02*
D03*
Y251793D02*
D03*
X390606Y160795D02*
D03*
X416606D02*
D03*
Y251793D02*
D03*
X384106Y160795D02*
D03*
Y251793D02*
D03*
X423106Y160795D02*
D03*
X458607Y211295D02*
D03*
X463606Y201293D02*
D03*
Y211295D02*
D03*
X343606Y201293D02*
D03*
Y211295D02*
D03*
X338605Y201293D02*
D03*
Y211295D02*
D03*
X468607Y201293D02*
D03*
X458607Y256294D02*
D03*
X463606Y156294D02*
D03*
X343606Y256294D02*
D03*
Y156294D02*
D03*
X338605Y256294D02*
D03*
Y156294D02*
D03*
X468607Y256294D02*
D03*
Y156294D02*
D03*
X403606Y261295D02*
D03*
Y151293D02*
D03*
X373606Y261295D02*
D03*
X433606D02*
D03*
Y151293D02*
D03*
X438607Y261295D02*
D03*
Y151293D02*
D03*
X368605D02*
D03*
X443606D02*
D03*
X363606Y261295D02*
D03*
X358605D02*
D03*
X398605D02*
D03*
Y151293D02*
D03*
X408607Y261295D02*
D03*
Y151293D02*
D03*
X353606Y261295D02*
D03*
Y151293D02*
D03*
X463606Y261295D02*
D03*
Y151293D02*
D03*
X343606Y261295D02*
D03*
Y151293D02*
D03*
X338605Y261295D02*
D03*
Y151293D02*
D03*
X468607Y261295D02*
D03*
Y151293D02*
D03*
X393606Y261295D02*
D03*
Y151293D02*
D03*
X413606Y261295D02*
D03*
Y151293D02*
D03*
X388605D02*
D03*
X418607Y261295D02*
D03*
X383606D02*
D03*
Y151293D02*
D03*
X423606Y261295D02*
D03*
Y151293D02*
D03*
X428607Y261295D02*
D03*
Y151293D02*
D03*
X403606Y146294D02*
D03*
X373606D02*
D03*
Y266294D02*
D03*
X433606Y146294D02*
D03*
Y266294D02*
D03*
X438607Y146294D02*
D03*
X368605D02*
D03*
Y266294D02*
D03*
X443606Y146294D02*
D03*
Y266294D02*
D03*
X363606Y146294D02*
D03*
X448607D02*
D03*
Y266294D02*
D03*
X358605Y146294D02*
D03*
Y266294D02*
D03*
X398605Y146294D02*
D03*
Y266294D02*
D03*
X408607Y146294D02*
D03*
Y266294D02*
D03*
X453606Y146294D02*
D03*
Y266294D02*
D03*
X353606D02*
D03*
X458607D02*
D03*
X348605Y146294D02*
D03*
Y266294D02*
D03*
X463606Y146294D02*
D03*
X343606D02*
D03*
Y266294D02*
D03*
X338605Y146294D02*
D03*
Y266294D02*
D03*
X468607Y146294D02*
D03*
X393606D02*
D03*
Y266294D02*
D03*
X413606Y146294D02*
D03*
Y266294D02*
D03*
X388605Y146294D02*
D03*
Y266294D02*
D03*
X418607Y146294D02*
D03*
Y266294D02*
D03*
X383606Y146294D02*
D03*
Y266294D02*
D03*
X423606Y146294D02*
D03*
Y266294D02*
D03*
X378605Y146294D02*
D03*
Y266294D02*
D03*
X428607Y146294D02*
D03*
Y266294D02*
D03*
X403606Y199794D02*
D03*
X429605D02*
D03*
Y212794D02*
D03*
X371107D02*
D03*
X436105D02*
D03*
X364607Y199794D02*
D03*
X442605D02*
D03*
X358107D02*
D03*
Y212794D02*
D03*
X449105Y199794D02*
D03*
X410106D02*
D03*
X384106D02*
D03*
Y212794D02*
D03*
X403606Y271295D02*
D03*
X373606D02*
D03*
X433606D02*
D03*
X438607Y141293D02*
D03*
X368605D02*
D03*
X443606Y271295D02*
D03*
X448607Y141293D02*
D03*
Y271295D02*
D03*
X358605Y141293D02*
D03*
Y271295D02*
D03*
X398605Y141293D02*
D03*
X408607D02*
D03*
X453606D02*
D03*
Y271295D02*
D03*
X353606Y141293D02*
D03*
X458607D02*
D03*
Y271295D02*
D03*
X348605Y141293D02*
D03*
Y271295D02*
D03*
X463606Y141293D02*
D03*
X343606D02*
D03*
Y271295D02*
D03*
X413606D02*
D03*
X388605Y141293D02*
D03*
X418607D02*
D03*
X383606Y271295D02*
D03*
X423606D02*
D03*
X378605Y141293D02*
D03*
X428607D02*
D03*
X458607Y216294D02*
D03*
X348605Y196294D02*
D03*
Y216294D02*
D03*
X463606Y196294D02*
D03*
Y216294D02*
D03*
X343606Y196294D02*
D03*
Y216294D02*
D03*
X468607Y196294D02*
D03*
X403606Y219294D02*
D03*
Y193294D02*
D03*
X377607D02*
D03*
X429605Y219294D02*
D03*
X364607D02*
D03*
Y193294D02*
D03*
X358107Y219294D02*
D03*
Y193294D02*
D03*
X397106Y219294D02*
D03*
X410106D02*
D03*
Y193294D02*
D03*
X416606Y219294D02*
D03*
X384106D02*
D03*
Y193294D02*
D03*
X423106D02*
D03*
X458607Y221295D02*
D03*
X348605Y191293D02*
D03*
Y221295D02*
D03*
X463606Y191293D02*
D03*
Y221295D02*
D03*
X343606Y191293D02*
D03*
Y221295D02*
D03*
X468607Y191293D02*
D03*
Y221295D02*
D03*
X403606Y225794D02*
D03*
X377607D02*
D03*
X429605D02*
D03*
X364607D02*
D03*
X449105D02*
D03*
X397106D02*
D03*
Y186794D02*
D03*
X410106Y225794D02*
D03*
X390606D02*
D03*
X384106Y186794D02*
D03*
X423106Y225794D02*
D03*
X458607Y226294D02*
D03*
X348605Y186294D02*
D03*
Y226294D02*
D03*
X463606Y186294D02*
D03*
Y226294D02*
D03*
X343606Y186294D02*
D03*
Y226294D02*
D03*
X338605Y186294D02*
D03*
Y226294D02*
D03*
X468607Y186294D02*
D03*
X458607Y231295D02*
D03*
X463606D02*
D03*
X343606D02*
D03*
Y181293D02*
D03*
X468607Y231295D02*
D03*
D39*
X1134976Y451236D02*
D03*
Y344236D02*
D03*
X1134416Y323121D02*
D03*
Y216121D02*
D03*
D40*
X1077976Y407736D02*
D03*
Y387736D02*
D03*
X1077416Y259621D02*
D03*
Y239621D02*
D03*
Y279621D02*
D03*
Y299621D02*
D03*
X1077976Y367736D02*
D03*
Y427736D02*
D03*
D41*
X936084Y21792D02*
D03*
X1043084D02*
D03*
X882622Y22682D02*
D03*
X815622D02*
D03*
D42*
X999584Y78792D02*
D03*
X839122Y79682D02*
D03*
X859122D02*
D03*
X1019584Y78792D02*
D03*
X979584D02*
D03*
X959584D02*
D03*
D43*
X1137110Y194515D02*
D03*
Y94515D02*
D03*
X22733Y431284D02*
D03*
Y486283D02*
D03*
X1135060Y602167D02*
D03*
Y657165D02*
D03*
X23053Y11214D02*
D03*
Y111214D02*
D03*
X1135060Y581114D02*
D03*
Y481114D02*
D03*
X22672Y296761D02*
D03*
Y196761D02*
D03*
X1133663Y821164D02*
D03*
Y676166D02*
D03*
X23434Y526179D02*
D03*
Y671177D02*
D03*
D44*
X1097110Y144515D02*
D03*
X63053Y61214D02*
D03*
X1095060Y546115D02*
D03*
X18449Y141361D02*
D03*
Y174361D02*
D03*
X62672Y231760D02*
D03*
Y276761D02*
D03*
Y261760D02*
D03*
Y246761D02*
D03*
Y216761D02*
D03*
X1093663Y801167D02*
D03*
Y786166D02*
D03*
Y771167D02*
D03*
Y756166D02*
D03*
Y741167D02*
D03*
Y726166D02*
D03*
Y711167D02*
D03*
Y696166D02*
D03*
X1095060Y561114D02*
D03*
Y531114D02*
D03*
Y516115D02*
D03*
Y501114D02*
D03*
X63053Y31214D02*
D03*
Y46213D02*
D03*
Y76213D02*
D03*
Y91214D02*
D03*
X63434Y546176D02*
D03*
Y561177D02*
D03*
Y576176D02*
D03*
Y591177D02*
D03*
Y606176D02*
D03*
Y621177D02*
D03*
Y636176D02*
D03*
Y651177D02*
D03*
X1095060Y637165D02*
D03*
Y622167D02*
D03*
X62733Y466283D02*
D03*
Y451284D02*
D03*
X1097110Y174515D02*
D03*
Y159516D02*
D03*
Y129516D02*
D03*
Y114515D02*
D03*
D48*
X66723Y863463D02*
D03*
X88725Y846465D02*
D03*
Y863463D02*
D03*
X66723Y846465D02*
D03*
D49*
X523634Y292633D02*
D03*
X506636Y270631D02*
D03*
X523634D02*
D03*
X506636Y292633D02*
D03*
D50*
X729488Y172593D02*
D03*
X641543Y285529D02*
D03*
X139359Y296706D02*
D03*
X111358Y286706D02*
D03*
X139359Y306706D02*
D03*
X111358D02*
D03*
X669544Y275529D02*
D03*
X641543D02*
D03*
X669544Y295529D02*
D03*
X757489Y182593D02*
D03*
X729488Y162593D02*
D03*
X757489D02*
D03*
D51*
X157480Y808119D02*
D03*
X139446D02*
D03*
Y690329D02*
D03*
X157480D02*
D03*
X76454D02*
D03*
X148590D02*
D03*
X130556D02*
D03*
X121412D02*
D03*
X112522D02*
D03*
X103632D02*
D03*
X94488D02*
D03*
X85598D02*
D03*
X67564D02*
D03*
Y808119D02*
D03*
X76454D02*
D03*
X85598D02*
D03*
X94488D02*
D03*
X103632D02*
D03*
X112522D02*
D03*
X121412D02*
D03*
X130556D02*
D03*
X148590D02*
D03*
D52*
X53627Y722300D02*
D03*
X171417D02*
D03*
X53627Y704266D02*
D03*
X171417Y794182D02*
D03*
Y785292D02*
D03*
Y776148D02*
D03*
Y767258D02*
D03*
Y758114D02*
D03*
Y749224D02*
D03*
Y740334D02*
D03*
Y731190D02*
D03*
Y713156D02*
D03*
Y704266D02*
D03*
X53627Y713156D02*
D03*
Y731190D02*
D03*
Y740334D02*
D03*
Y749224D02*
D03*
Y758114D02*
D03*
Y767258D02*
D03*
Y776148D02*
D03*
Y785292D02*
D03*
Y794182D02*
D03*
D54*
X678205Y314452D02*
D03*
X934060Y299466D02*
D03*
X933425Y280289D02*
D03*
X914425D02*
D03*
X915060Y299466D02*
D03*
X697205Y314452D02*
D03*
D56*
X764895Y365887D02*
D03*
X935469Y341757D02*
D03*
X981469D02*
D03*
X810895Y365887D02*
D03*
D57*
X715645Y338938D02*
D03*
X733171D02*
D03*
Y319938D02*
D03*
X715645D02*
D03*
D59*
X342525Y62418D02*
D03*
X327527D02*
D03*
D60*
X307527Y22418D02*
D03*
X362525D02*
D03*
D61*
X394400Y805942D02*
D03*
X686751Y835533D02*
D03*
Y826033D02*
D03*
X662751D02*
D03*
X686751Y845033D02*
D03*
X662751D02*
D03*
X418400Y796442D02*
D03*
X394400D02*
D03*
X418400Y815442D02*
D03*
X394400D02*
D03*
D62*
X538001Y457501D02*
D03*
X621999D02*
D03*
X538645Y646283D02*
D03*
X622643D02*
D03*
Y691281D02*
D03*
X538645D02*
D03*
X621999Y502499D02*
D03*
X538001D02*
D03*
D63*
X956876Y707858D02*
D03*
X843476Y667858D02*
D03*
Y672858D02*
D03*
Y677858D02*
D03*
Y682858D02*
D03*
Y687858D02*
D03*
Y692858D02*
D03*
Y697858D02*
D03*
Y702858D02*
D03*
Y707858D02*
D03*
Y712858D02*
D03*
Y717858D02*
D03*
Y722858D02*
D03*
Y727858D02*
D03*
Y732858D02*
D03*
Y737858D02*
D03*
Y742858D02*
D03*
X956876D02*
D03*
Y737858D02*
D03*
Y732858D02*
D03*
Y727858D02*
D03*
Y722858D02*
D03*
Y717858D02*
D03*
Y712858D02*
D03*
Y702858D02*
D03*
Y697858D02*
D03*
Y692858D02*
D03*
Y687858D02*
D03*
Y682858D02*
D03*
Y677858D02*
D03*
Y672858D02*
D03*
Y667858D02*
D03*
D64*
X1012141Y705752D02*
D03*
X990141Y723252D02*
D03*
Y705752D02*
D03*
X1012141Y723252D02*
D03*
D65*
X998474Y430263D02*
D03*
X388620Y11671D02*
D03*
Y57671D02*
D03*
X998474Y476263D02*
D03*
X794893Y833514D02*
D03*
Y787514D02*
D03*
X87884Y372986D02*
D03*
Y418986D02*
D03*
X95377Y502933D02*
D03*
X1055878Y599427D02*
D03*
X788289Y82055D02*
D03*
X95377Y456933D02*
D03*
X1055878Y645427D02*
D03*
X788289Y36055D02*
D03*
D66*
X970661Y372872D02*
D03*
X960661Y400873D02*
D03*
X980661Y372872D02*
D03*
Y400873D02*
D03*
D67*
X865505Y273558D02*
D03*
D68*
X846455Y304292D02*
D03*
X884555D02*
D03*
X871855D02*
D03*
X859155D02*
D03*
X884555Y243840D02*
D03*
X871855D02*
D03*
X859155D02*
D03*
X846455D02*
D03*
D70*
X679257Y101491D02*
D03*
X671256Y68689D02*
D03*
X667255Y101491D02*
D03*
X659257Y68689D02*
D03*
X655257Y101491D02*
D03*
X651256Y68689D02*
D03*
X643255Y101491D02*
D03*
X635257Y68689D02*
D03*
X631256Y101491D02*
D03*
X623255D02*
D03*
Y68689D02*
D03*
X627256D02*
D03*
Y101491D02*
D03*
X631256Y68689D02*
D03*
X635257Y101491D02*
D03*
X639257Y68689D02*
D03*
Y101491D02*
D03*
X643255Y68689D02*
D03*
X647255D02*
D03*
Y101491D02*
D03*
X651256D02*
D03*
X655257Y68689D02*
D03*
X659257Y101491D02*
D03*
X663255Y68689D02*
D03*
Y101491D02*
D03*
X667255Y68689D02*
D03*
X671256Y101491D02*
D03*
X675257Y68689D02*
D03*
Y101491D02*
D03*
X679257Y68689D02*
D03*
D73*
X416139Y17478D02*
D03*
X416219Y47800D02*
D03*
D74*
X21463Y319908D02*
D03*
Y406908D02*
D03*
D75*
X52964Y375910D02*
D03*
Y338407D02*
D03*
Y388409D02*
D03*
Y363410D02*
D03*
Y350909D02*
D03*
D76*
X54449Y152862D02*
D03*
Y162862D02*
D03*
D77*
X700938Y269446D02*
D03*
X475030Y673735D02*
D03*
X474370Y502364D02*
D03*
X140183Y481505D02*
D03*
X1012367Y614299D02*
D03*
X824586Y140002D02*
D03*
X788899Y140129D02*
D03*
X477495Y64183D02*
D03*
X1059815Y560578D02*
D03*
D78*
X710438Y291846D02*
D03*
X484530Y696135D02*
D03*
X815086Y117602D02*
D03*
X483870Y524764D02*
D03*
X130683Y459105D02*
D03*
X1021867Y636699D02*
D03*
X779399Y117729D02*
D03*
X467995Y41783D02*
D03*
X1050315Y538178D02*
D03*
D79*
X614256Y69690D02*
D03*
Y100493D02*
D03*
X688256D02*
D03*
Y69690D02*
D03*
D81*
X960661Y372872D02*
D03*
D82*
X937676Y648658D02*
D03*
X932676D02*
D03*
X927676D02*
D03*
X922676D02*
D03*
X917676D02*
D03*
X912676D02*
D03*
X907676D02*
D03*
X902676D02*
D03*
X897676D02*
D03*
X892676D02*
D03*
X887676D02*
D03*
X882676D02*
D03*
X877676D02*
D03*
X872676D02*
D03*
X867676D02*
D03*
X862676D02*
D03*
Y762058D02*
D03*
X867676D02*
D03*
X872676D02*
D03*
X877676D02*
D03*
X882676D02*
D03*
X887676D02*
D03*
X892676D02*
D03*
X897676D02*
D03*
X902676D02*
D03*
X907676D02*
D03*
X912676D02*
D03*
X917676D02*
D03*
X922676D02*
D03*
X927676D02*
D03*
X932676D02*
D03*
X937676D02*
D03*
D84*
X765810Y969185D02*
D03*
X783669Y969106D02*
D03*
X597202Y620347D02*
D03*
X615061Y620268D02*
D03*
X560578Y620014D02*
D03*
X542719Y620093D02*
D03*
X593900Y528018D02*
D03*
X611759Y527939D02*
D03*
X369062Y969264D02*
D03*
X386921Y969185D02*
D03*
X539290Y527891D02*
D03*
X557149Y527812D02*
D03*
D85*
X279781Y768604D02*
D03*
X109093Y546608D02*
D03*
X139240Y379628D02*
D03*
X875538Y122682D02*
D03*
X939498Y133833D02*
D03*
X735028Y61951D02*
D03*
X513636Y80797D02*
D03*
X139367Y343306D02*
D03*
D86*
X257381Y778104D02*
D03*
X131493Y537108D02*
D03*
X116840Y389128D02*
D03*
X897938Y113182D02*
D03*
X961898Y124333D02*
D03*
X757428Y52451D02*
D03*
X491236Y90297D02*
D03*
X116967Y352806D02*
D03*
D87*
X334523Y445402D02*
D03*
D88*
X343273Y434609D02*
D03*
X345313Y454152D02*
D03*
X323731Y436651D02*
D03*
D89*
X325773Y456194D02*
D03*
D95*
X148590Y740225D02*
D03*
Y758223D02*
D03*
Y776224D02*
D03*
D96*
X139359Y286706D02*
D03*
X641543Y295529D02*
D03*
X729488Y182593D02*
D03*
D101*
X180867Y158276D02*
D03*
X166369D02*
D03*
D102*
X1001268Y371788D02*
D03*
Y401388D02*
D03*
D103*
X153457Y303657D02*
D03*
X174457D02*
D03*
D202*
X157663Y823087D02*
D03*
X24709Y794512D02*
D03*
X299522Y603377D02*
D03*
X157663Y853059D02*
D03*
X334447Y623188D02*
D03*
X694761Y123698D02*
D03*
X703763D02*
D03*
X304856Y757682D02*
D03*
X295854D02*
D03*
X325445Y623188D02*
D03*
X148661Y853059D02*
D03*
X299903Y593725D02*
D03*
X172927Y271306D02*
D03*
X181929D02*
D03*
X146121Y570610D02*
D03*
X155123D02*
D03*
X290901Y593725D02*
D03*
X290520Y603377D02*
D03*
X647883Y218440D02*
D03*
X638881D02*
D03*
X717931Y195453D02*
D03*
X708929D02*
D03*
X33711Y794512D02*
D03*
X148661Y823087D02*
D03*
D203*
X749569Y195326D02*
D03*
X638500Y198120D02*
D03*
X146248Y560704D02*
D03*
X270581Y801878D02*
D03*
X279583D02*
D03*
X334447Y613282D02*
D03*
X325445D02*
D03*
X779074Y195453D02*
D03*
X494609Y212725D02*
D03*
X503611D02*
D03*
X650296Y310388D02*
D03*
X140914Y267843D02*
D03*
X149916D02*
D03*
X185627Y308136D02*
D03*
X194629D02*
D03*
X155250Y560704D02*
D03*
X641294Y310388D02*
D03*
X647502Y198120D02*
D03*
X770072Y195453D02*
D03*
X758571Y195326D02*
D03*
D204*
X196215Y454716D02*
D03*
X115951Y653613D02*
D03*
Y662615D02*
D03*
X120277Y262995D02*
D03*
Y271997D02*
D03*
X196215Y445714D02*
D03*
X285243Y656915D02*
D03*
Y665917D02*
D03*
D205*
X108848Y262995D02*
D03*
X94996Y653486D02*
D03*
X127635Y653303D02*
D03*
X295529Y777804D02*
D03*
Y768802D02*
D03*
X308102Y481147D02*
D03*
Y490149D02*
D03*
X603123Y122626D02*
D03*
Y131628D02*
D03*
X592836Y131501D02*
D03*
Y122499D02*
D03*
X254127Y460629D02*
D03*
Y451627D02*
D03*
X328041Y490220D02*
D03*
X285369Y460812D02*
D03*
X318008Y490149D02*
D03*
X328041Y481218D02*
D03*
X318008Y481147D02*
D03*
X176403Y454462D02*
D03*
X127635Y662305D02*
D03*
X94996Y662488D02*
D03*
X285369Y451810D02*
D03*
X108848Y271997D02*
D03*
X176403Y445460D02*
D03*
X206121Y454716D02*
D03*
Y445714D02*
D03*
X621157Y207970D02*
D03*
Y216972D02*
D03*
X596011D02*
D03*
Y207970D02*
D03*
X67056Y824174D02*
D03*
Y833176D02*
D03*
D206*
X1035812Y408127D02*
D03*
X1035304Y386639D02*
D03*
Y354787D02*
D03*
X1035812Y439979D02*
D03*
D207*
X144404Y102108D02*
D03*
X943981Y205994D02*
D03*
Y193294D02*
D03*
Y180594D02*
D03*
Y167894D02*
D03*
X999363Y205994D02*
D03*
Y193294D02*
D03*
Y180594D02*
D03*
Y167894D02*
D03*
X89022Y140208D02*
D03*
Y127508D02*
D03*
Y114808D02*
D03*
Y102108D02*
D03*
X144404Y140208D02*
D03*
Y127508D02*
D03*
Y114808D02*
D03*
D208*
X116713Y121158D02*
D03*
X971672Y186944D02*
D03*
D209*
X861822Y450752D02*
D03*
X849121D02*
D03*
X836422D02*
D03*
X930147Y476350D02*
D03*
X942848D02*
D03*
X955547D02*
D03*
X968248D02*
D03*
X930147Y530000D02*
D03*
X942848D02*
D03*
X955547D02*
D03*
X968248D02*
D03*
X823721Y397102D02*
D03*
X836422D02*
D03*
X849121D02*
D03*
X861822D02*
D03*
X823721Y450752D02*
D03*
D210*
X241513Y553008D02*
D03*
X255514D02*
D03*
X252014D02*
D03*
X248514D02*
D03*
X245014D02*
D03*
X238013D02*
D03*
X234513D02*
D03*
X231013D02*
D03*
X227513D02*
D03*
X224013D02*
D03*
X220513D02*
D03*
X217013D02*
D03*
X213512D02*
D03*
X210012D02*
D03*
X206512D02*
D03*
X203012D02*
D03*
X199512D02*
D03*
Y621156D02*
D03*
X203012D02*
D03*
X206512D02*
D03*
X210012D02*
D03*
X213512D02*
D03*
X217013D02*
D03*
X220513D02*
D03*
X224013D02*
D03*
X227513D02*
D03*
X231013D02*
D03*
X234513D02*
D03*
X238013D02*
D03*
X241513D02*
D03*
X245014D02*
D03*
X248514D02*
D03*
X252014D02*
D03*
X255514D02*
D03*
D211*
X261587Y573081D02*
D03*
Y594082D02*
D03*
Y597582D02*
D03*
Y569581D02*
D03*
Y615083D02*
D03*
Y611583D02*
D03*
Y608083D02*
D03*
Y604582D02*
D03*
Y601082D02*
D03*
Y590582D02*
D03*
Y587082D02*
D03*
Y583582D02*
D03*
Y580081D02*
D03*
Y576581D02*
D03*
Y566081D02*
D03*
Y562581D02*
D03*
Y559081D02*
D03*
X193439D02*
D03*
Y562581D02*
D03*
Y566081D02*
D03*
Y569581D02*
D03*
Y573081D02*
D03*
Y576581D02*
D03*
Y580081D02*
D03*
Y583582D02*
D03*
Y587082D02*
D03*
Y590582D02*
D03*
Y594082D02*
D03*
Y597582D02*
D03*
Y601082D02*
D03*
Y604582D02*
D03*
Y608083D02*
D03*
Y611583D02*
D03*
Y615083D02*
D03*
D212*
X227513Y587082D02*
D03*
D213*
X133911Y882020D02*
D03*
X163411D02*
D03*
D214*
X841600Y519557D02*
D03*
X895250D02*
D03*
Y532257D02*
D03*
Y544957D02*
D03*
Y557657D02*
D03*
X841600Y532257D02*
D03*
Y544957D02*
D03*
Y557657D02*
D03*
D215*
X199286Y386301D02*
D03*
Y396301D02*
D03*
X204287Y391302D02*
D03*
Y406301D02*
D03*
X219286Y376301D02*
D03*
X224287Y391302D02*
D03*
X229286Y366301D02*
D03*
X234287Y391302D02*
D03*
X244287Y381302D02*
D03*
X254287Y396301D02*
D03*
X264287Y386301D02*
D03*
Y411302D02*
D03*
Y406301D02*
D03*
Y401302D02*
D03*
Y396301D02*
D03*
Y391302D02*
D03*
Y381302D02*
D03*
Y376301D02*
D03*
Y371302D02*
D03*
Y366301D02*
D03*
Y361302D02*
D03*
Y356301D02*
D03*
Y351302D02*
D03*
Y346301D02*
D03*
X259286Y411302D02*
D03*
Y406301D02*
D03*
Y401302D02*
D03*
Y396301D02*
D03*
Y391302D02*
D03*
Y386301D02*
D03*
Y381302D02*
D03*
Y376301D02*
D03*
Y371302D02*
D03*
Y366301D02*
D03*
Y361302D02*
D03*
Y356301D02*
D03*
Y351302D02*
D03*
Y346301D02*
D03*
X254287Y411302D02*
D03*
Y406301D02*
D03*
Y401302D02*
D03*
Y391302D02*
D03*
Y386301D02*
D03*
Y381302D02*
D03*
Y376301D02*
D03*
Y371302D02*
D03*
Y366301D02*
D03*
Y361302D02*
D03*
Y356301D02*
D03*
Y351302D02*
D03*
Y346301D02*
D03*
X249286Y411302D02*
D03*
Y406301D02*
D03*
Y401302D02*
D03*
Y396301D02*
D03*
Y356301D02*
D03*
Y351302D02*
D03*
Y346301D02*
D03*
X244287Y411302D02*
D03*
Y406301D02*
D03*
Y401302D02*
D03*
Y391302D02*
D03*
Y386301D02*
D03*
Y376301D02*
D03*
Y371302D02*
D03*
Y366301D02*
D03*
Y356301D02*
D03*
Y351302D02*
D03*
Y346301D02*
D03*
X239286Y411302D02*
D03*
Y406301D02*
D03*
Y401302D02*
D03*
Y391302D02*
D03*
Y366301D02*
D03*
Y356301D02*
D03*
Y351302D02*
D03*
Y346301D02*
D03*
X234287Y411302D02*
D03*
Y406301D02*
D03*
Y401302D02*
D03*
Y366301D02*
D03*
Y356301D02*
D03*
Y351302D02*
D03*
Y346301D02*
D03*
X229286Y411302D02*
D03*
Y406301D02*
D03*
Y401302D02*
D03*
Y391302D02*
D03*
Y356301D02*
D03*
Y351302D02*
D03*
Y346301D02*
D03*
X224287Y411302D02*
D03*
Y406301D02*
D03*
Y401302D02*
D03*
Y366301D02*
D03*
Y356301D02*
D03*
Y351302D02*
D03*
Y346301D02*
D03*
X219286Y411302D02*
D03*
Y406301D02*
D03*
Y401302D02*
D03*
Y391302D02*
D03*
Y386301D02*
D03*
Y381302D02*
D03*
Y371302D02*
D03*
Y366301D02*
D03*
Y356301D02*
D03*
Y351302D02*
D03*
Y346301D02*
D03*
X214287Y411302D02*
D03*
Y406301D02*
D03*
Y401302D02*
D03*
Y356301D02*
D03*
Y351302D02*
D03*
Y346301D02*
D03*
X209286Y411302D02*
D03*
Y406301D02*
D03*
Y401302D02*
D03*
Y396301D02*
D03*
Y391302D02*
D03*
Y386301D02*
D03*
Y381302D02*
D03*
Y376301D02*
D03*
Y371302D02*
D03*
Y366301D02*
D03*
Y361302D02*
D03*
Y356301D02*
D03*
Y351302D02*
D03*
Y346301D02*
D03*
X204287Y411302D02*
D03*
Y401302D02*
D03*
Y396301D02*
D03*
Y386301D02*
D03*
Y381302D02*
D03*
Y376301D02*
D03*
Y371302D02*
D03*
Y366301D02*
D03*
Y361302D02*
D03*
Y356301D02*
D03*
Y351302D02*
D03*
Y346301D02*
D03*
X199286Y411302D02*
D03*
Y406301D02*
D03*
Y401302D02*
D03*
Y391302D02*
D03*
Y381302D02*
D03*
Y376301D02*
D03*
Y371302D02*
D03*
Y366301D02*
D03*
Y361302D02*
D03*
Y356301D02*
D03*
Y351302D02*
D03*
Y346301D02*
D03*
D216*
X160909Y20924D02*
D03*
Y74325D02*
D03*
D217*
X843631Y166243D02*
D03*
X897031D02*
D03*
D218*
X552522Y110068D02*
D03*
Y105070D02*
D03*
X577524Y110068D02*
D03*
Y115070D02*
D03*
Y105070D02*
D03*
Y100068D02*
D03*
X552522D02*
D03*
Y115070D02*
D03*
D219*
X565022Y97569D02*
D03*
X560023Y117569D02*
D03*
X565022D02*
D03*
X570023D02*
D03*
Y97569D02*
D03*
X560023D02*
D03*
D220*
X509284Y199390D02*
D03*
X495286D02*
D03*
X148449Y534034D02*
D03*
X162447D02*
D03*
D221*
X912241Y445924D02*
D03*
Y385924D02*
D03*
D222*
X749300Y817667D02*
D03*
Y858225D02*
D03*
D223*
X411099Y354217D02*
D03*
Y340219D02*
D03*
X165100Y508775D02*
D03*
Y494777D02*
D03*
X180340Y509283D02*
D03*
Y495285D02*
D03*
D224*
X694817Y141948D02*
D03*
Y168948D02*
D03*
X22352Y745528D02*
D03*
Y718528D02*
D03*
D225*
X1020958Y280797D02*
D03*
X969132D02*
D03*
X701416Y241427D02*
D03*
X753242D02*
D03*
D226*
X467123Y331638D02*
D03*
X460757Y325273D02*
D03*
D227*
X299720Y582273D02*
D03*
Y563264D02*
D03*
D228*
X377530Y770509D02*
D03*
X336972D02*
D03*
D229*
X148661Y866770D02*
D03*
D230*
X255404Y494537D02*
D03*
X278504D02*
D03*
D231*
X942721Y557596D02*
D03*
Y586420D02*
D03*
D232*
X608330Y271399D02*
D03*
Y235839D02*
D03*
D233*
X818923Y314579D02*
D03*
X758923D02*
D03*
D234*
X208133Y665734D02*
D03*
X189123D02*
D03*
X289834Y631824D02*
D03*
X308844D02*
D03*
X224302Y665734D02*
D03*
X243312D02*
D03*
X158095Y590295D02*
D03*
X139085D02*
D03*
D260*
X999236Y848487D02*
D03*
X888492Y881253D02*
D03*
X939292D02*
D03*
X913892D02*
D03*
X863092D02*
D03*
X1024636Y848487D02*
D03*
X1050036D02*
D03*
X1075436D02*
D03*
D261*
X845374Y842645D02*
D03*
X948374Y817245D02*
D03*
X315406Y816610D02*
D03*
X212406Y842010D02*
D03*
Y816610D02*
D03*
X315406Y842010D02*
D03*
X948374Y842645D02*
D03*
X845374Y817245D02*
D03*
D262*
X627380Y938022D02*
D03*
X529971Y937641D02*
D03*
X555371D02*
D03*
X652780Y938022D02*
D03*
D263*
X538861Y61468D02*
D03*
D264*
X513461D02*
D03*
X526161D02*
D03*
D265*
X964692Y881253D02*
D03*
X1100836Y848487D02*
D03*
D266*
X504571Y937641D02*
D03*
X601980Y938022D02*
D03*
D267*
X705000Y894000D02*
D03*
X455000D02*
D03*
X800000Y884000D02*
D03*
X360000D02*
D03*
D268*
X805000Y216000D02*
D03*
M02*
