#VRML V2.0 utf8

Shape {
  appearance Appearance {
    material Material {
      diffuseColor 0.2510 0.2510 0.2510
      specularColor 0.1255 0.1255 0.1255
      ambientIntensity 0.2
      transparency 0.0000
      shininess 0.5
    }
  }
  geometry IndexedFaceSet {
    ccw TRUE
    solid FALSE
    coord DEF co Coordinate {
      point [
        -0.440073 -0.306299 0.091011,
        0.465216 -0.306299 0.192913,
        -0.452454 -0.306299 0.150625,
        -0.465216 -0.306299 0.192913,
        0.440073 -0.306299 -0.091011,
        -0.465216 -0.306299 -0.192913,
        0.452454 -0.306299 -0.150625,
        0.465216 -0.306299 -0.192913,
        0.433850 -0.306299 -0.030443,
        0.433850 -0.306299 0.030443,
        -0.433850 -0.306299 0.030443,
        0.440073 -0.306299 0.091011,
        0.452454 -0.306299 0.150625,
        -0.433850 -0.306299 -0.030443,
        -0.440073 -0.306299 -0.091011,
        -0.452454 -0.306299 -0.150625,
        0.469459 -0.306299 -0.214426,
        0.470863 -0.306299 -0.214426,
        0.469459 -0.306299 -0.204876,
        0.470863 -0.306299 -0.208661,
        0.470863 -0.306299 0.208661,
        0.470863 -0.306299 0.214426,
        0.469459 -0.306299 0.204876,
        0.469459 -0.306299 0.214426,
        -0.470863 -0.306299 -0.208661,
        -0.470863 -0.306299 -0.214426,
        -0.469459 -0.306299 -0.204876,
        -0.469459 -0.306299 -0.214426,
        0.470863 0.306299 -0.208661,
        0.470863 0.306299 -0.214426,
        0.469459 0.306299 -0.204876,
        0.469459 0.306299 -0.214426,
        0.440073 0.306299 0.091011,
        -0.465216 0.306299 0.192913,
        0.452454 0.306299 0.150625,
        0.465216 0.306299 0.192913,
        -0.440073 0.306299 -0.091011,
        0.465216 0.306299 -0.192913,
        -0.452454 0.306299 -0.150625,
        -0.465216 0.306299 -0.192913,
        -0.433850 0.306299 -0.030443,
        -0.433850 0.306299 0.030443,
        0.433850 0.306299 0.030443,
        -0.440073 0.306299 0.091011,
        -0.452454 0.306299 0.150625,
        0.433850 0.306299 -0.030443,
        0.440073 0.306299 -0.091011,
        0.452454 0.306299 -0.150625,
        -0.469459 0.306299 -0.214426,
        -0.470863 0.306299 -0.214426,
        -0.469459 0.306299 -0.204876,
        -0.470863 0.306299 -0.208661,
        0.469459 0.306299 0.214426,
        0.470863 0.306299 0.214426,
        0.469459 0.306299 0.204876,
        0.470863 0.306299 0.208661,
        0.433817 -0.044159 -0.208661,
        0.439780 -0.132276 -0.208661,
        -0.013221 -0.290551 -0.208661,
        0.451679 -0.219789 -0.208661,
        0.465767 -0.290551 -0.208661,
        0.049581 0.031457 -0.208661,
        0.055396 0.030804 -0.208661,
        0.036810 -0.012880 -0.208661,
        -0.006019 0.030737 -0.208661,
        0.016307 0.030737 -0.208661,
        0.016307 0.011292 -0.208661,
        -0.004579 0.011292 -0.208661,
        -0.004579 0.004811 -0.208661,
        -0.013221 -0.022196 -0.208661,
        0.069753 -0.016798 -0.208661,
        0.074189 -0.012128 -0.208661,
        0.084724 -0.021836 -0.208661,
        0.055474 -0.022196 -0.208661,
        0.114972 -0.021836 -0.208661,
        0.042404 0.030525 -0.208661,
        0.035752 -0.012294 -0.208661,
        0.035752 0.027676 -0.208661,
        -0.006019 0.037219 -0.208661,
        -0.013221 0.290551 -0.208661,
        0.024229 0.037219 -0.208661,
        0.465767 0.290551 -0.208661,
        0.114972 0.037219 -0.208661,
        0.107050 0.037219 -0.208661,
        0.076566 0.021665 -0.208661,
        0.073105 0.027186 -0.208661,
        0.067773 0.032313 -0.208661,
        0.062164 0.035542 -0.208661,
        0.084724 -0.015354 -0.208661,
        0.077335 -0.006513 -0.208661,
        0.107050 -0.015354 -0.208661,
        0.055580 0.037455 -0.208661,
        0.049649 0.037939 -0.208661,
        0.042580 0.037451 -0.208661,
        0.035752 0.035598 -0.208661,
        0.024229 -0.021836 -0.208661,
        0.035752 -0.018775 -0.208661,
        0.059278 -0.021802 -0.208661,
        0.065002 -0.019831 -0.208661,
        0.451679 0.219789 -0.208661,
        0.439780 0.132276 -0.208661,
        0.059817 0.029209 -0.208661,
        0.063904 0.026475 -0.208661,
        0.067470 0.022538 -0.208661,
        0.071761 0.007061 -0.208661,
        0.071163 0.000668 -0.208661,
        0.069559 -0.004411 -0.208661,
        0.056417 -0.015457 -0.208661,
        0.050909 -0.016075 -0.208661,
        0.060720 -0.013873 -0.208661,
        0.064345 -0.011430 -0.208661,
        0.067116 -0.008506 -0.208661,
        0.043070 -0.015205 -0.208661,
        0.079112 -0.000262 -0.208661,
        0.079683 0.006578 -0.208661,
        0.078833 0.014973 -0.208661,
        0.069905 0.017978 -0.208661,
        0.071479 0.011656 -0.208661,
        0.016307 0.004811 -0.208661,
        0.016307 -0.015354 -0.208661,
        -0.007459 -0.015354 -0.208661,
        -0.007459 -0.021836 -0.208661,
        0.048014 -0.022196 -0.208661,
        0.042046 -0.021360 -0.208661,
        0.050386 -0.022529 -0.208661,
        0.052001 -0.022556 -0.208661,
        0.433817 -0.022196 -0.208661,
        0.433817 0.044159 -0.208661,
        -0.093161 0.037219 -0.208661,
        -0.465767 0.290551 -0.208661,
        -0.101083 0.037219 -0.208661,
        -0.451679 0.219789 -0.208661,
        -0.439780 0.132276 -0.208661,
        -0.115487 -0.021836 -0.208661,
        -0.124129 -0.021836 -0.208661,
        -0.433817 -0.022196 -0.208661,
        -0.433817 0.044159 -0.208661,
        -0.035040 -0.021836 -0.208661,
        -0.018982 -0.021836 -0.208661,
        -0.018982 0.037219 -0.208661,
        -0.035648 0.037219 -0.208661,
        -0.057579 0.029519 -0.208661,
        -0.061755 0.024888 -0.208661,
        -0.064499 0.019809 -0.208661,
        -0.070835 -0.021836 -0.208661,
        -0.063566 -0.005650 -0.208661,
        -0.060179 -0.010933 -0.208661,
        -0.044180 0.036307 -0.208661,
        -0.051089 0.033881 -0.208661,
        -0.057517 0.029573 -0.208661,
        -0.055318 -0.015587 -0.208661,
        -0.049152 -0.019170 -0.208661,
        -0.042347 -0.021198 -0.208661,
        -0.079478 -0.021836 -0.208661,
        -0.085115 -0.005272 -0.208661,
        -0.109512 -0.005272 -0.208661,
        -0.066085 0.013991 -0.208661,
        -0.066515 0.008434 -0.208661,
        -0.065686 0.000531 -0.208661,
        -0.465767 -0.290551 -0.208661,
        -0.451679 -0.219789 -0.208661,
        -0.439780 -0.132276 -0.208661,
        -0.433817 -0.044159 -0.208661,
      ]
    }
    coordIndex [
      0, 1, 2, -1,
      2, 1, 3, -1,
      4, 5, 6, -1,
      6, 5, 7, -1,
      8, 9, 10, -1,
      10, 9, 11, -1,
      10, 11, 0, -1,
      0, 11, 12, -1,
      0, 12, 1, -1,
      10, 13, 8, -1,
      8, 13, 14, -1,
      8, 14, 4, -1,
      4, 14, 15, -1,
      4, 15, 5, -1,
      16, 17, 18, -1,
      18, 17, 19, -1,
      20, 21, 22, -1,
      22, 21, 23, -1,
      24, 25, 26, -1,
      26, 25, 27, -1,
      28, 29, 30, -1,
      30, 29, 31, -1,
      32, 33, 34, -1,
      34, 33, 35, -1,
      36, 37, 38, -1,
      38, 37, 39, -1,
      40, 41, 42, -1,
      42, 41, 43, -1,
      42, 43, 32, -1,
      32, 43, 44, -1,
      32, 44, 33, -1,
      42, 45, 40, -1,
      40, 45, 46, -1,
      40, 46, 36, -1,
      36, 46, 47, -1,
      36, 47, 37, -1,
      48, 49, 50, -1,
      50, 49, 51, -1,
      52, 53, 54, -1,
      54, 53, 55, -1,
      56, 57, 58, -1,
      58, 57, 59, -1,
      58, 59, 60, -1,
      61, 62, 63, -1,
      64, 65, 66, -1,
      67, 68, 69, -1,
      70, 71, 72, -1,
      73, 72, 74, -1,
      61, 63, 75, -1,
      75, 63, 76, -1,
      75, 76, 77, -1,
      66, 67, 64, -1,
      64, 67, 69, -1,
      64, 69, 78, -1,
      78, 69, 79, -1,
      78, 79, 80, -1,
      80, 79, 81, -1,
      81, 82, 83, -1,
      84, 85, 83, -1,
      83, 85, 86, -1,
      83, 86, 87, -1,
      72, 71, 88, -1,
      88, 71, 89, -1,
      88, 89, 90, -1,
      87, 91, 83, -1,
      83, 91, 92, -1,
      83, 92, 81, -1,
      81, 92, 93, -1,
      81, 93, 80, -1,
      93, 94, 80, -1,
      80, 94, 77, -1,
      80, 77, 95, -1,
      95, 77, 76, -1,
      95, 76, 96, -1,
      73, 97, 72, -1,
      72, 97, 98, -1,
      72, 98, 70, -1,
      82, 81, 74, -1,
      74, 81, 99, -1,
      74, 99, 100, -1,
      62, 101, 63, -1,
      63, 101, 102, -1,
      63, 102, 103, -1,
      104, 105, 63, -1,
      63, 105, 106, -1,
      107, 108, 109, -1,
      109, 108, 110, -1,
      106, 111, 63, -1,
      63, 111, 110, -1,
      63, 110, 112, -1,
      112, 110, 108, -1,
      89, 113, 90, -1,
      90, 113, 114, -1,
      90, 114, 83, -1,
      83, 114, 115, -1,
      83, 115, 84, -1,
      103, 116, 63, -1,
      63, 116, 117, -1,
      63, 117, 104, -1,
      118, 119, 68, -1,
      68, 119, 120, -1,
      68, 120, 69, -1,
      69, 120, 121, -1,
      69, 121, 95, -1,
      58, 69, 122, -1,
      122, 69, 95, -1,
      122, 95, 123, -1,
      123, 95, 96, -1,
      122, 124, 58, -1,
      58, 124, 125, -1,
      58, 125, 56, -1,
      56, 125, 73, -1,
      56, 73, 126, -1,
      126, 73, 74, -1,
      126, 74, 127, -1,
      127, 74, 100, -1,
      79, 128, 129, -1,
      129, 128, 130, -1,
      129, 130, 131, -1,
      131, 130, 132, -1,
      133, 69, 134, -1,
      134, 69, 135, -1,
      134, 135, 130, -1,
      130, 135, 136, -1,
      130, 136, 132, -1,
      137, 138, 69, -1,
      69, 138, 139, -1,
      69, 139, 79, -1,
      79, 139, 140, -1,
      141, 142, 128, -1,
      128, 142, 143, -1,
      144, 145, 146, -1,
      140, 147, 79, -1,
      79, 147, 148, -1,
      79, 148, 128, -1,
      128, 148, 149, -1,
      128, 149, 141, -1,
      146, 150, 144, -1,
      144, 150, 151, -1,
      144, 151, 152, -1,
      152, 137, 144, -1,
      144, 137, 69, -1,
      144, 69, 153, -1,
      153, 69, 133, -1,
      153, 133, 154, -1,
      154, 133, 155, -1,
      143, 156, 128, -1,
      128, 156, 157, -1,
      128, 157, 144, -1,
      144, 157, 158, -1,
      144, 158, 145, -1,
      159, 160, 58, -1,
      58, 160, 161, -1,
      58, 161, 69, -1,
      69, 161, 162, -1,
      69, 162, 135, -1,
    ]
  }
}

Shape {
  appearance Appearance {
    material Material {
      diffuseColor 0.8549 0.8549 0.8549
      specularColor 0.4275 0.4275 0.4275
      ambientIntensity 0.2
      transparency 0.0000
      shininess 0.5
    }
  }
  geometry IndexedFaceSet {
    ccw TRUE
    solid FALSE
    coord DEF co Coordinate {
      point [
        -0.469459 -0.306299 -0.204876,
        -0.469459 -0.306299 -0.214426,
        -0.469459 0.306299 -0.214426,
        -0.469459 0.306299 -0.204876,
        -0.465767 0.290551 -0.208661,
        -0.451679 0.219789 -0.208661,
        -0.439780 0.132276 -0.208661,
        -0.433817 -0.022196 -0.208661,
        -0.433817 0.044159 -0.208661,
        -0.465767 -0.290551 -0.208661,
        -0.451679 -0.219789 -0.208661,
        -0.439780 -0.132276 -0.208661,
        -0.433817 -0.044159 -0.208661,
        -0.468650 0.302923 -0.202657,
        -0.468357 0.301687 -0.204049,
        -0.468550 0.302501 -0.215999,
        -0.467587 0.298425 -0.206552,
        -0.467587 0.298425 -0.216535,
        -0.466703 0.294627 -0.208125,
        -0.451679 0.219789 -0.216535,
        -0.468650 -0.302923 -0.202657,
        -0.468357 -0.301687 -0.204049,
        -0.467587 -0.298425 -0.206552,
        -0.468550 -0.302501 -0.215999,
        -0.466703 -0.294627 -0.208125,
        -0.467587 -0.298425 -0.216535,
        -0.433817 -0.044159 -0.216535,
        -0.439780 -0.132276 -0.216535,
        -0.451679 -0.219789 -0.216535,
        -0.439780 0.132276 -0.216535,
        -0.433817 0.044159 -0.216535,
      ]
    }
    coordIndex [
      3, 13, 2, -1,
      2, 13, 14, -1,
      2, 14, 15, -1,
      15, 14, 16, -1,
      15, 16, 17, -1,
      16, 18, 17, -1,
      17, 18, 4, -1,
      17, 4, 19, -1,
      20, 0, 21, -1,
      21, 0, 1, -1,
      21, 1, 22, -1,
      22, 1, 23, -1,
      22, 23, 24, -1,
      24, 23, 25, -1,
      24, 25, 9, -1,
      9, 25, 10, -1,
      26, 11, 27, -1,
      27, 11, 10, -1,
      27, 10, 28, -1,
      28, 10, 25, -1,
      8, 7, 26, -1,
      26, 7, 12, -1,
      26, 12, 11, -1,
      4, 5, 19, -1,
      19, 5, 6, -1,
      19, 6, 29, -1,
      29, 6, 8, -1,
      29, 8, 30, -1,
      30, 8, 26, -1,
    ]
  }
}

Shape {
  appearance Appearance {
    material Material {
      diffuseColor 0.2510 0.2510 0.2510
      specularColor 0.1255 0.1255 0.1255
      ambientIntensity 0.2
      transparency 0.0000
      shininess 0.5
    }
  }
  geometry IndexedFaceSet {
    ccw TRUE
    solid FALSE
    coord DEF co Coordinate {
      point [
        -0.439780 -0.132276 0.208661,
        -0.451679 -0.219789 0.208661,
        0.439780 -0.132276 0.208661,
        0.451679 -0.219789 0.208661,
        -0.465767 -0.290551 0.208661,
        0.465767 -0.290551 0.208661,
        -0.433817 -0.044159 0.208661,
        0.433817 -0.044159 0.208661,
        -0.433817 0.044159 0.208661,
        0.433817 0.044159 0.208661,
        -0.439780 0.132276 0.208661,
        0.439780 0.132276 0.208661,
        -0.451679 0.219789 0.208661,
        -0.465767 0.290551 0.208661,
        0.451679 0.219789 0.208661,
        0.465767 0.290551 0.208661,
      ]
    }
    coordIndex [
      0, 1, 2, -1,
      2, 1, 3, -1,
      3, 1, 4, -1,
      3, 4, 5, -1,
      0, 2, 6, -1,
      6, 2, 7, -1,
      6, 7, 8, -1,
      8, 7, 9, -1,
      8, 9, 10, -1,
      10, 9, 11, -1,
      10, 11, 12, -1,
      12, 11, 13, -1,
      13, 11, 14, -1,
      13, 14, 15, -1,
    ]
  }
}

Shape {
  appearance Appearance {
    material Material {
      diffuseColor 0.8549 0.8549 0.8549
      specularColor 0.4275 0.4275 0.4275
      ambientIntensity 0.2
      transparency 0.0000
      shininess 0.5
    }
  }
  geometry IndexedFaceSet {
    ccw TRUE
    solid FALSE
    coord DEF co Coordinate {
      point [
        -0.470863 -0.306299 -0.214426,
        -0.469459 -0.306299 -0.214426,
        -0.469459 0.306299 -0.214426,
        -0.470863 0.306299 -0.214426,
        -0.468550 0.302501 -0.215999,
        -0.467587 0.298425 -0.216535,
        -0.451679 0.219789 -0.216535,
        -0.468550 -0.302501 -0.215999,
        -0.467587 -0.298425 -0.216535,
        -0.433817 -0.044159 -0.216535,
        -0.439780 -0.132276 -0.216535,
        -0.451679 -0.219789 -0.216535,
        -0.439780 0.132276 -0.216535,
        -0.433817 0.044159 -0.216535,
        -0.439780 -0.132276 0.208661,
        -0.451679 -0.219789 0.208661,
        -0.465767 -0.290551 0.208661,
        -0.433817 -0.044159 0.208661,
        -0.433817 0.044159 0.208661,
        -0.439780 0.132276 0.208661,
        -0.451679 0.219789 0.208661,
        -0.465767 0.290551 0.208661,
        -0.452454 -0.314173 0.150625,
        -0.467977 -0.314173 0.200787,
        -0.614173 -0.314173 0.200787,
        -0.440073 -0.314173 0.091011,
        -0.614173 -0.314173 -0.200787,
        -0.467977 -0.314173 -0.200787,
        -0.452454 -0.314173 -0.150625,
        -0.440073 -0.314173 -0.091011,
        -0.433850 -0.314173 -0.030443,
        -0.433850 -0.314173 0.030443,
        -0.469459 -0.306299 0.204876,
        -0.468650 -0.302923 0.202657,
        -0.469459 -0.306299 0.214426,
        -0.468357 -0.301687 0.204049,
        -0.468550 -0.302501 0.215999,
        -0.467587 -0.298425 0.206552,
        -0.467587 -0.298425 0.216535,
        -0.466703 -0.294627 0.208125,
        -0.451679 -0.219789 0.216535,
        -0.468650 0.302923 0.202657,
        -0.469459 0.306299 0.204876,
        -0.468357 0.301687 0.204049,
        -0.469459 0.306299 0.214426,
        -0.467587 0.298425 0.206552,
        -0.468550 0.302501 0.215999,
        -0.466703 0.294627 0.208125,
        -0.467587 0.298425 0.216535,
        -0.439780 -0.132276 0.216535,
        -0.433817 -0.044159 0.216535,
        -0.433817 0.044159 0.216535,
        -0.439780 0.132276 0.216535,
        -0.451679 0.219789 0.216535,
        -0.614173 0.298425 0.216535,
        -0.614173 -0.298425 0.216535,
        -0.614173 0.298425 -0.216535,
        -0.614173 0.302501 -0.215999,
        -0.614173 0.306299 -0.214426,
        -0.614173 0.309561 -0.211923,
        -0.470863 0.309561 -0.211923,
        -0.614173 0.312063 -0.208661,
        -0.470863 0.312063 -0.208661,
        -0.614173 0.313637 -0.204863,
        -0.469455 0.313637 -0.204863,
        -0.614173 0.314173 -0.200787,
        -0.467977 0.314173 -0.200787,
        -0.452454 0.314173 -0.150625,
        -0.440073 0.314173 -0.091011,
        -0.614173 0.314173 0.200787,
        -0.467977 0.314173 0.200787,
        -0.452454 0.314173 0.150625,
        -0.440073 0.314173 0.091011,
        -0.433850 0.314173 0.030443,
        -0.433850 0.314173 -0.030443,
        -0.614173 0.313637 0.204863,
        -0.470863 0.306299 0.214426,
        -0.469455 0.313637 0.204863,
        -0.614173 0.312063 0.208661,
        -0.470863 0.312063 0.208661,
        -0.614173 0.309561 0.211923,
        -0.470863 0.309561 0.211923,
        -0.614173 0.306299 0.214426,
        -0.614173 0.302501 0.215999,
        -0.614173 -0.298425 -0.216535,
        -0.614173 -0.302501 -0.215999,
        -0.614173 -0.306299 -0.214426,
        -0.470863 -0.309561 -0.211923,
        -0.614173 -0.309561 -0.211923,
        -0.470863 -0.312063 -0.208661,
        -0.614173 -0.312063 -0.208661,
        -0.469455 -0.313637 -0.204863,
        -0.614173 -0.313637 -0.204863,
      ]
    }
    coordIndex [
      22, 23, 24, -1,
      22, 24, 25, -1,
      26, 27, 28, -1,
      28, 29, 26, -1,
      26, 29, 30, -1,
      26, 30, 24, -1,
      24, 30, 31, -1,
      24, 31, 25, -1,
      32, 33, 34, -1,
      34, 33, 35, -1,
      34, 35, 36, -1,
      36, 35, 37, -1,
      36, 37, 38, -1,
      37, 39, 38, -1,
      38, 39, 16, -1,
      38, 16, 40, -1,
      41, 42, 43, -1,
      43, 42, 44, -1,
      43, 44, 45, -1,
      45, 44, 46, -1,
      45, 46, 47, -1,
      47, 46, 48, -1,
      47, 48, 21, -1,
      21, 48, 20, -1,
      16, 15, 40, -1,
      40, 15, 14, -1,
      40, 14, 49, -1,
      49, 14, 17, -1,
      49, 17, 50, -1,
      50, 17, 18, -1,
      50, 18, 51, -1,
      51, 18, 19, -1,
      51, 19, 52, -1,
      52, 19, 20, -1,
      52, 20, 53, -1,
      53, 20, 48, -1,
      53, 48, 54, -1,
      53, 54, 52, -1,
      55, 38, 40, -1,
      40, 49, 55, -1,
      55, 49, 50, -1,
      55, 50, 54, -1,
      54, 50, 51, -1,
      54, 51, 52, -1,
      5, 56, 57, -1,
      5, 57, 4, -1,
      4, 57, 3, -1,
      4, 3, 2, -1,
      57, 58, 3, -1,
      3, 58, 59, -1,
      3, 59, 60, -1,
      60, 59, 61, -1,
      60, 61, 62, -1,
      62, 61, 63, -1,
      62, 63, 64, -1,
      64, 63, 65, -1,
      64, 65, 66, -1,
      67, 66, 65, -1,
      67, 65, 68, -1,
      69, 70, 71, -1,
      71, 72, 69, -1,
      69, 72, 73, -1,
      69, 73, 65, -1,
      65, 73, 74, -1,
      65, 74, 68, -1,
      70, 69, 75, -1,
      46, 44, 76, -1,
      70, 75, 77, -1,
      77, 75, 78, -1,
      77, 78, 79, -1,
      79, 78, 80, -1,
      79, 80, 81, -1,
      81, 80, 82, -1,
      81, 82, 76, -1,
      76, 82, 83, -1,
      76, 83, 46, -1,
      46, 83, 54, -1,
      46, 54, 48, -1,
      11, 8, 84, -1,
      56, 5, 6, -1,
      11, 84, 10, -1,
      6, 12, 56, -1,
      56, 12, 13, -1,
      56, 13, 84, -1,
      84, 13, 9, -1,
      84, 9, 10, -1,
      7, 1, 0, -1,
      84, 8, 7, -1,
      84, 7, 85, -1,
      85, 7, 0, -1,
      85, 0, 86, -1,
      86, 0, 87, -1,
      86, 87, 88, -1,
      88, 87, 89, -1,
      88, 89, 90, -1,
      90, 89, 91, -1,
      90, 91, 92, -1,
      92, 91, 27, -1,
      92, 27, 26, -1,
    ]
  }
}

Shape {
  appearance Appearance {
    material Material {
      diffuseColor 0.2510 0.2510 0.2510
      specularColor 0.1255 0.1255 0.1255
      ambientIntensity 0.2
      transparency 0.0000
      shininess 0.5
    }
  }
  geometry IndexedFaceSet {
    ccw TRUE
    solid FALSE
    coord DEF co Coordinate {
      point [
        -0.469459 -0.306299 0.204876,
        -0.469459 -0.306299 0.214426,
        -0.469459 0.306299 0.204876,
        -0.469459 0.306299 0.214426,
        -0.470863 0.306299 0.214426,
        -0.470863 0.306299 0.208661,
        -0.470863 -0.306299 0.214426,
        -0.470863 -0.306299 0.208661,
      ]
    }
    coordIndex [
      5, 4, 2, -1,
      2, 4, 3, -1,
      1, 6, 0, -1,
      0, 6, 7, -1,
    ]
  }
}

Shape {
  appearance Appearance {
    material Material {
      diffuseColor 0.8549 0.8549 0.8549
      specularColor 0.4275 0.4275 0.4275
      ambientIntensity 0.2
      transparency 0.0000
      shininess 0.5
    }
  }
  geometry IndexedFaceSet {
    ccw TRUE
    solid FALSE
    coord DEF co Coordinate {
      point [
        0.469459 -0.306299 -0.214426,
        0.470863 -0.306299 -0.214426,
        0.469459 -0.306299 -0.204876,
        0.470863 -0.306299 0.214426,
        0.469459 -0.306299 0.204876,
        0.469459 -0.306299 0.214426,
        0.470863 0.306299 -0.214426,
        0.469459 0.306299 -0.204876,
        0.469459 0.306299 -0.214426,
        0.469459 0.306299 0.214426,
        0.470863 0.306299 0.214426,
        0.469459 0.306299 0.204876,
        0.433817 -0.044159 -0.208661,
        0.439780 -0.132276 -0.208661,
        0.451679 -0.219789 -0.208661,
        0.465767 -0.290551 -0.208661,
        0.465767 0.290551 -0.208661,
        0.451679 0.219789 -0.208661,
        0.439780 0.132276 -0.208661,
        0.433817 -0.022196 -0.208661,
        0.433817 0.044159 -0.208661,
        0.439780 -0.132276 0.208661,
        0.451679 -0.219789 0.208661,
        0.465767 -0.290551 0.208661,
        0.433817 -0.044159 0.208661,
        0.433817 0.044159 0.208661,
        0.439780 0.132276 0.208661,
        0.451679 0.219789 0.208661,
        0.465767 0.290551 0.208661,
        0.468550 -0.302501 0.215999,
        0.614173 -0.298425 0.216535,
        0.467587 -0.298425 0.216535,
        0.614173 -0.302501 0.215999,
        0.614173 -0.306299 0.214426,
        0.470863 -0.309561 0.211923,
        0.614173 -0.309561 0.211923,
        0.470863 -0.312063 0.208661,
        0.614173 -0.312063 0.208661,
        0.469455 -0.313637 0.204863,
        0.614173 -0.313637 0.204863,
        0.467977 -0.314173 0.200787,
        0.614173 -0.314173 0.200787,
        0.468650 -0.302923 -0.202657,
        0.468357 -0.301687 -0.204049,
        0.468550 -0.302501 -0.215999,
        0.467587 -0.298425 -0.206552,
        0.467587 -0.298425 -0.216535,
        0.466703 -0.294627 -0.208125,
        0.451679 -0.219789 -0.216535,
        0.468650 0.302923 -0.202657,
        0.468357 0.301687 -0.204049,
        0.467587 0.298425 -0.206552,
        0.468550 0.302501 -0.215999,
        0.466703 0.294627 -0.208125,
        0.467587 0.298425 -0.216535,
        0.433817 0.044159 -0.216535,
        0.439780 0.132276 -0.216535,
        0.451679 0.219789 -0.216535,
        0.439780 -0.132276 -0.216535,
        0.433817 -0.044159 -0.216535,
        0.452454 -0.314173 -0.150625,
        0.467977 -0.314173 -0.200787,
        0.614173 -0.314173 -0.200787,
        0.452454 -0.314173 0.150625,
        0.440073 -0.314173 -0.091011,
        0.440073 -0.314173 0.091011,
        0.433850 -0.314173 0.030443,
        0.433850 -0.314173 -0.030443,
        0.614173 -0.298425 -0.216535,
        0.614173 -0.302501 -0.215999,
        0.614173 -0.306299 -0.214426,
        0.614173 -0.309561 -0.211923,
        0.470863 -0.309561 -0.211923,
        0.614173 -0.312063 -0.208661,
        0.470863 -0.312063 -0.208661,
        0.614173 -0.313637 -0.204863,
        0.469455 -0.313637 -0.204863,
        0.468650 0.302923 0.202657,
        0.468357 0.301687 0.204049,
        0.468550 0.302501 0.215999,
        0.467587 0.298425 0.206552,
        0.467587 0.298425 0.216535,
        0.466703 0.294627 0.208125,
        0.451679 0.219789 0.216535,
        0.468650 -0.302923 0.202657,
        0.468357 -0.301687 0.204049,
        0.467587 -0.298425 0.206552,
        0.466703 -0.294627 0.208125,
        0.439780 0.132276 0.216535,
        0.433817 0.044159 0.216535,
        0.433817 -0.044159 0.216535,
        0.439780 -0.132276 0.216535,
        0.451679 -0.219789 0.216535,
        0.614173 0.298425 0.216535,
        0.614173 0.302501 0.215999,
        0.614173 0.306299 0.214426,
        0.614173 0.309561 0.211923,
        0.470863 0.309561 0.211923,
        0.614173 0.312063 0.208661,
        0.470863 0.312063 0.208661,
        0.614173 0.313637 0.204863,
        0.469455 0.313637 0.204863,
        0.614173 0.314173 0.200787,
        0.467977 0.314173 0.200787,
        0.452454 0.314173 0.150625,
        0.614173 0.314173 -0.200787,
        0.467977 0.314173 -0.200787,
        0.452454 0.314173 -0.150625,
        0.440073 0.314173 0.091011,
        0.440073 0.314173 -0.091011,
        0.433850 0.314173 -0.030443,
        0.433850 0.314173 0.030443,
        0.614173 0.298425 -0.216535,
        0.629921 -0.298425 -0.200787,
        0.629921 0.298425 -0.200787,
        0.629921 -0.298425 0.200787,
        0.629921 0.298425 0.200787,
        0.618249 0.313637 0.200787,
        0.618249 0.313637 -0.200787,
        0.622047 0.312063 0.200787,
        0.622047 0.312063 -0.200787,
        0.625309 0.309561 0.200787,
        0.625309 0.309561 -0.200787,
        0.627811 0.306299 0.200787,
        0.627811 0.306299 -0.200787,
        0.629385 0.302501 0.200787,
        0.629385 0.302501 -0.200787,
        0.614173 0.302501 -0.215999,
        0.614173 0.306299 -0.214426,
        0.470863 0.309561 -0.211923,
        0.614173 0.309561 -0.211923,
        0.470863 0.312063 -0.208661,
        0.614173 0.312063 -0.208661,
        0.469455 0.313637 -0.204863,
        0.614173 0.313637 -0.204863,
        0.618110 0.313119 0.204863,
        0.618110 0.305244 0.214426,
        0.616211 0.301955 0.215999,
        0.617056 0.301307 0.215999,
        0.618249 0.298425 0.215999,
        0.618110 0.299480 0.215999,
        0.615228 0.302362 0.215999,
        0.616211 0.306031 0.214426,
        0.617056 0.309181 0.211923,
        0.619741 0.303993 0.214426,
        0.617703 0.300463 0.215999,
        0.620992 0.302362 0.214426,
        0.621779 0.300463 0.214426,
        0.622047 0.298425 0.214426,
        0.619741 0.308069 0.211923,
        0.622047 0.306299 0.211923,
        0.623817 0.303993 0.211923,
        0.624929 0.301307 0.211923,
        0.625309 0.298425 0.211923,
        0.617703 0.311599 0.208661,
        0.620992 0.310236 0.208661,
        0.623817 0.308069 0.208661,
        0.625984 0.305244 0.208661,
        0.627347 0.301955 0.208661,
        0.627811 0.298425 0.208661,
        0.621779 0.311599 0.204863,
        0.624929 0.309181 0.204863,
        0.627347 0.306031 0.204863,
        0.628867 0.302362 0.204863,
        0.629385 0.298425 0.204863,
        0.618110 0.313119 -0.204863,
        0.621779 0.311599 -0.204863,
        0.617703 0.311599 -0.208661,
        0.620992 0.310236 -0.208661,
        0.617056 0.309181 -0.211923,
        0.619741 0.308069 -0.211923,
        0.616211 0.306031 -0.214426,
        0.618110 0.305244 -0.214426,
        0.615228 0.302362 -0.215999,
        0.616211 0.301955 -0.215999,
        0.624929 0.309181 -0.204863,
        0.623817 0.308069 -0.208661,
        0.622047 0.306299 -0.211923,
        0.619741 0.303993 -0.214426,
        0.617056 0.301307 -0.215999,
        0.627347 0.306031 -0.204863,
        0.628867 0.302362 -0.204863,
        0.625984 0.305244 -0.208661,
        0.627347 0.301955 -0.208661,
        0.623817 0.303993 -0.211923,
        0.624929 0.301307 -0.211923,
        0.620992 0.302362 -0.214426,
        0.621779 0.300463 -0.214426,
        0.617703 0.300463 -0.215999,
        0.618110 0.299480 -0.215999,
        0.629385 0.298425 -0.204863,
        0.627811 0.298425 -0.208661,
        0.625309 0.298425 -0.211923,
        0.622047 0.298425 -0.214426,
        0.618249 0.298425 -0.215999,
        0.618249 -0.298425 0.215999,
        0.622047 -0.298425 0.214426,
        0.625309 -0.298425 0.211923,
        0.627811 -0.298425 0.208661,
        0.629385 -0.298425 0.204863,
        0.618249 -0.298425 -0.215999,
        0.622047 -0.298425 -0.214426,
        0.625309 -0.298425 -0.211923,
        0.627811 -0.298425 -0.208661,
        0.629385 -0.298425 -0.204863,
        0.628867 -0.302362 0.204863,
        0.620992 -0.302362 0.214426,
        0.617703 -0.300463 0.215999,
        0.617056 -0.301307 0.215999,
        0.615228 -0.302362 0.215999,
        0.618110 -0.299480 0.215999,
        0.621779 -0.300463 0.214426,
        0.624929 -0.301307 0.211923,
        0.619741 -0.303993 0.214426,
        0.616211 -0.301955 0.215999,
        0.618110 -0.305244 0.214426,
        0.616211 -0.306031 0.214426,
        0.623817 -0.303993 0.211923,
        0.622047 -0.306299 0.211923,
        0.619741 -0.308069 0.211923,
        0.617056 -0.309181 0.211923,
        0.627347 -0.301955 0.208661,
        0.625984 -0.305244 0.208661,
        0.623817 -0.308069 0.208661,
        0.620992 -0.310236 0.208661,
        0.617703 -0.311599 0.208661,
        0.627347 -0.306031 0.204863,
        0.624929 -0.309181 0.204863,
        0.621779 -0.311599 0.204863,
        0.618110 -0.313119 0.204863,
        0.629385 -0.302501 0.200787,
        0.627811 -0.306299 0.200787,
        0.625309 -0.309561 0.200787,
        0.622047 -0.312063 0.200787,
        0.618249 -0.313637 0.200787,
        0.629385 -0.302501 -0.200787,
        0.627811 -0.306299 -0.200787,
        0.628867 -0.302362 -0.204863,
        0.627347 -0.306031 -0.204863,
        0.627347 -0.301955 -0.208661,
        0.625984 -0.305244 -0.208661,
        0.624929 -0.301307 -0.211923,
        0.623817 -0.303993 -0.211923,
        0.621779 -0.300463 -0.214426,
        0.620992 -0.302362 -0.214426,
        0.618110 -0.299480 -0.215999,
        0.617703 -0.300463 -0.215999,
        0.625309 -0.309561 -0.200787,
        0.624929 -0.309181 -0.204863,
        0.623817 -0.308069 -0.208661,
        0.622047 -0.306299 -0.211923,
        0.619741 -0.303993 -0.214426,
        0.617056 -0.301307 -0.215999,
        0.622047 -0.312063 -0.200787,
        0.618249 -0.313637 -0.200787,
        0.621779 -0.311599 -0.204863,
        0.618110 -0.313119 -0.204863,
        0.620992 -0.310236 -0.208661,
        0.617703 -0.311599 -0.208661,
        0.619741 -0.308069 -0.211923,
        0.617056 -0.309181 -0.211923,
        0.618110 -0.305244 -0.214426,
        0.616211 -0.306031 -0.214426,
        0.616211 -0.301955 -0.215999,
        0.615228 -0.302362 -0.215999,
      ]
    }
    coordIndex [
      29, 5, 3, -1,
      30, 31, 29, -1,
      30, 29, 32, -1,
      32, 29, 3, -1,
      32, 3, 33, -1,
      33, 3, 34, -1,
      33, 34, 35, -1,
      35, 34, 36, -1,
      35, 36, 37, -1,
      37, 36, 38, -1,
      37, 38, 39, -1,
      39, 38, 40, -1,
      39, 40, 41, -1,
      2, 42, 0, -1,
      0, 42, 43, -1,
      0, 43, 44, -1,
      44, 43, 45, -1,
      44, 45, 46, -1,
      45, 47, 46, -1,
      46, 47, 15, -1,
      46, 15, 48, -1,
      49, 7, 50, -1,
      50, 7, 8, -1,
      50, 8, 51, -1,
      51, 8, 52, -1,
      51, 52, 53, -1,
      53, 52, 54, -1,
      53, 54, 16, -1,
      16, 54, 17, -1,
      55, 18, 56, -1,
      56, 18, 17, -1,
      56, 17, 57, -1,
      57, 17, 54, -1,
      15, 14, 48, -1,
      48, 14, 13, -1,
      48, 13, 58, -1,
      58, 13, 12, -1,
      58, 12, 59, -1,
      59, 12, 19, -1,
      59, 19, 55, -1,
      55, 19, 20, -1,
      55, 20, 18, -1,
      60, 61, 62, -1,
      41, 40, 63, -1,
      60, 62, 64, -1,
      63, 65, 41, -1,
      41, 65, 66, -1,
      41, 66, 62, -1,
      62, 66, 67, -1,
      62, 67, 64, -1,
      46, 68, 69, -1,
      46, 69, 44, -1,
      44, 69, 1, -1,
      44, 1, 0, -1,
      69, 70, 1, -1,
      1, 70, 71, -1,
      1, 71, 72, -1,
      72, 71, 73, -1,
      72, 73, 74, -1,
      74, 73, 75, -1,
      74, 75, 76, -1,
      76, 75, 62, -1,
      76, 62, 61, -1,
      11, 77, 9, -1,
      9, 77, 78, -1,
      9, 78, 79, -1,
      79, 78, 80, -1,
      79, 80, 81, -1,
      80, 82, 81, -1,
      81, 82, 28, -1,
      81, 28, 83, -1,
      84, 4, 85, -1,
      85, 4, 5, -1,
      85, 5, 86, -1,
      86, 5, 29, -1,
      86, 29, 87, -1,
      87, 29, 31, -1,
      87, 31, 23, -1,
      23, 31, 22, -1,
      28, 27, 83, -1,
      83, 27, 26, -1,
      83, 26, 88, -1,
      88, 26, 25, -1,
      88, 25, 89, -1,
      89, 25, 24, -1,
      89, 24, 90, -1,
      90, 24, 21, -1,
      90, 21, 91, -1,
      91, 21, 22, -1,
      91, 22, 92, -1,
      92, 22, 31, -1,
      92, 31, 30, -1,
      92, 30, 91, -1,
      93, 81, 83, -1,
      83, 88, 93, -1,
      93, 88, 89, -1,
      93, 89, 30, -1,
      30, 89, 90, -1,
      30, 90, 91, -1,
      10, 9, 79, -1,
      81, 93, 94, -1,
      10, 95, 96, -1,
      10, 96, 97, -1,
      97, 96, 98, -1,
      97, 98, 99, -1,
      99, 98, 100, -1,
      99, 100, 101, -1,
      101, 100, 102, -1,
      101, 102, 103, -1,
      95, 10, 94, -1,
      94, 10, 79, -1,
      94, 79, 81, -1,
      104, 103, 102, -1,
      105, 106, 107, -1,
      104, 102, 108, -1,
      107, 109, 105, -1,
      105, 109, 110, -1,
      105, 110, 102, -1,
      102, 110, 111, -1,
      102, 111, 108, -1,
      57, 54, 112, -1,
      57, 112, 56, -1,
      68, 46, 48, -1,
      48, 58, 68, -1,
      68, 58, 59, -1,
      68, 59, 112, -1,
      112, 59, 55, -1,
      112, 55, 56, -1,
      113, 114, 115, -1,
      115, 114, 116, -1,
      105, 102, 117, -1,
      105, 117, 118, -1,
      118, 117, 119, -1,
      118, 119, 120, -1,
      120, 119, 121, -1,
      120, 121, 122, -1,
      122, 121, 123, -1,
      122, 123, 124, -1,
      124, 123, 125, -1,
      124, 125, 126, -1,
      126, 125, 116, -1,
      126, 116, 114, -1,
      52, 8, 6, -1,
      112, 54, 52, -1,
      112, 52, 127, -1,
      127, 52, 6, -1,
      127, 6, 128, -1,
      128, 6, 129, -1,
      128, 129, 130, -1,
      130, 129, 131, -1,
      130, 131, 132, -1,
      132, 131, 133, -1,
      132, 133, 134, -1,
      134, 133, 106, -1,
      134, 106, 105, -1,
      102, 100, 135, -1,
      136, 137, 138, -1,
      93, 139, 140, -1,
      138, 137, 93, -1,
      141, 93, 137, -1,
      141, 137, 142, -1,
      142, 137, 136, -1,
      142, 136, 143, -1,
      94, 93, 141, -1,
      144, 145, 146, -1,
      146, 145, 140, -1,
      146, 140, 147, -1,
      147, 140, 139, -1,
      147, 139, 148, -1,
      94, 141, 95, -1,
      95, 141, 142, -1,
      95, 142, 96, -1,
      96, 142, 143, -1,
      96, 143, 98, -1,
      149, 144, 150, -1,
      150, 144, 146, -1,
      150, 146, 151, -1,
      151, 146, 147, -1,
      151, 147, 152, -1,
      152, 147, 148, -1,
      152, 148, 153, -1,
      154, 149, 155, -1,
      155, 149, 150, -1,
      155, 150, 156, -1,
      156, 150, 151, -1,
      156, 151, 157, -1,
      157, 151, 152, -1,
      157, 152, 158, -1,
      158, 152, 153, -1,
      158, 153, 159, -1,
      100, 154, 135, -1,
      135, 154, 155, -1,
      135, 155, 160, -1,
      160, 155, 156, -1,
      160, 156, 161, -1,
      161, 156, 157, -1,
      161, 157, 162, -1,
      162, 157, 158, -1,
      162, 158, 163, -1,
      163, 158, 159, -1,
      163, 159, 164, -1,
      102, 135, 117, -1,
      117, 135, 160, -1,
      117, 160, 119, -1,
      119, 160, 161, -1,
      119, 161, 121, -1,
      121, 161, 162, -1,
      121, 162, 123, -1,
      123, 162, 163, -1,
      123, 163, 125, -1,
      125, 163, 164, -1,
      125, 164, 116, -1,
      145, 93, 140, -1,
      100, 98, 154, -1,
      154, 98, 143, -1,
      154, 143, 149, -1,
      149, 143, 136, -1,
      149, 136, 144, -1,
      144, 136, 138, -1,
      144, 138, 145, -1,
      145, 138, 93, -1,
      118, 120, 165, -1,
      165, 120, 166, -1,
      165, 166, 167, -1,
      167, 166, 168, -1,
      167, 168, 169, -1,
      169, 168, 170, -1,
      169, 170, 171, -1,
      171, 170, 172, -1,
      171, 172, 173, -1,
      173, 172, 174, -1,
      173, 174, 112, -1,
      120, 122, 166, -1,
      166, 122, 175, -1,
      166, 175, 168, -1,
      168, 175, 176, -1,
      168, 176, 170, -1,
      170, 176, 177, -1,
      170, 177, 172, -1,
      172, 177, 178, -1,
      172, 178, 174, -1,
      174, 178, 179, -1,
      174, 179, 112, -1,
      105, 118, 134, -1,
      134, 118, 165, -1,
      134, 165, 132, -1,
      132, 165, 167, -1,
      132, 167, 130, -1,
      130, 167, 169, -1,
      130, 169, 128, -1,
      128, 169, 171, -1,
      128, 171, 127, -1,
      127, 171, 173, -1,
      127, 173, 112, -1,
      124, 126, 180, -1,
      180, 126, 181, -1,
      180, 181, 182, -1,
      182, 181, 183, -1,
      182, 183, 184, -1,
      184, 183, 185, -1,
      184, 185, 186, -1,
      186, 185, 187, -1,
      186, 187, 188, -1,
      188, 187, 189, -1,
      188, 189, 112, -1,
      126, 114, 181, -1,
      181, 114, 190, -1,
      181, 190, 183, -1,
      183, 190, 191, -1,
      183, 191, 185, -1,
      185, 191, 192, -1,
      185, 192, 187, -1,
      187, 192, 193, -1,
      187, 193, 189, -1,
      189, 193, 194, -1,
      189, 194, 112, -1,
      122, 124, 175, -1,
      175, 124, 180, -1,
      175, 180, 176, -1,
      176, 180, 182, -1,
      176, 182, 177, -1,
      177, 182, 184, -1,
      177, 184, 178, -1,
      178, 184, 186, -1,
      178, 186, 179, -1,
      179, 186, 188, -1,
      179, 188, 112, -1,
      93, 30, 195, -1,
      93, 195, 139, -1,
      139, 195, 196, -1,
      139, 196, 148, -1,
      148, 196, 197, -1,
      148, 197, 153, -1,
      153, 197, 198, -1,
      153, 198, 159, -1,
      159, 198, 199, -1,
      159, 199, 164, -1,
      164, 199, 115, -1,
      164, 115, 116, -1,
      68, 112, 194, -1,
      68, 194, 200, -1,
      200, 194, 193, -1,
      200, 193, 201, -1,
      201, 193, 192, -1,
      201, 192, 202, -1,
      202, 192, 191, -1,
      202, 191, 203, -1,
      203, 191, 190, -1,
      203, 190, 204, -1,
      204, 190, 114, -1,
      204, 114, 113, -1,
      115, 199, 205, -1,
      206, 207, 208, -1,
      30, 32, 209, -1,
      208, 207, 30, -1,
      210, 30, 207, -1,
      210, 207, 211, -1,
      211, 207, 206, -1,
      211, 206, 212, -1,
      195, 30, 210, -1,
      213, 214, 215, -1,
      215, 214, 209, -1,
      215, 209, 216, -1,
      216, 209, 32, -1,
      216, 32, 33, -1,
      195, 210, 196, -1,
      196, 210, 211, -1,
      196, 211, 197, -1,
      197, 211, 212, -1,
      197, 212, 198, -1,
      217, 213, 218, -1,
      218, 213, 215, -1,
      218, 215, 219, -1,
      219, 215, 216, -1,
      219, 216, 220, -1,
      220, 216, 33, -1,
      220, 33, 35, -1,
      221, 217, 222, -1,
      222, 217, 218, -1,
      222, 218, 223, -1,
      223, 218, 219, -1,
      223, 219, 224, -1,
      224, 219, 220, -1,
      224, 220, 225, -1,
      225, 220, 35, -1,
      225, 35, 37, -1,
      199, 221, 205, -1,
      205, 221, 222, -1,
      205, 222, 226, -1,
      226, 222, 223, -1,
      226, 223, 227, -1,
      227, 223, 224, -1,
      227, 224, 228, -1,
      228, 224, 225, -1,
      228, 225, 229, -1,
      229, 225, 37, -1,
      229, 37, 39, -1,
      115, 205, 230, -1,
      230, 205, 226, -1,
      230, 226, 231, -1,
      231, 226, 227, -1,
      231, 227, 232, -1,
      232, 227, 228, -1,
      232, 228, 233, -1,
      233, 228, 229, -1,
      233, 229, 234, -1,
      234, 229, 39, -1,
      234, 39, 41, -1,
      214, 30, 209, -1,
      199, 198, 221, -1,
      221, 198, 212, -1,
      221, 212, 217, -1,
      217, 212, 206, -1,
      217, 206, 213, -1,
      213, 206, 208, -1,
      213, 208, 214, -1,
      214, 208, 30, -1,
      235, 236, 237, -1,
      237, 236, 238, -1,
      237, 238, 239, -1,
      239, 238, 240, -1,
      239, 240, 241, -1,
      241, 240, 242, -1,
      241, 242, 243, -1,
      243, 242, 244, -1,
      243, 244, 245, -1,
      245, 244, 246, -1,
      245, 246, 68, -1,
      236, 247, 238, -1,
      238, 247, 248, -1,
      238, 248, 240, -1,
      240, 248, 249, -1,
      240, 249, 242, -1,
      242, 249, 250, -1,
      242, 250, 244, -1,
      244, 250, 251, -1,
      244, 251, 246, -1,
      246, 251, 252, -1,
      246, 252, 68, -1,
      113, 235, 204, -1,
      204, 235, 237, -1,
      204, 237, 203, -1,
      203, 237, 239, -1,
      203, 239, 202, -1,
      202, 239, 241, -1,
      202, 241, 201, -1,
      201, 241, 243, -1,
      201, 243, 200, -1,
      200, 243, 245, -1,
      200, 245, 68, -1,
      253, 254, 255, -1,
      255, 254, 256, -1,
      255, 256, 257, -1,
      257, 256, 258, -1,
      257, 258, 259, -1,
      259, 258, 260, -1,
      259, 260, 261, -1,
      261, 260, 262, -1,
      261, 262, 263, -1,
      263, 262, 264, -1,
      263, 264, 68, -1,
      254, 62, 256, -1,
      256, 62, 75, -1,
      256, 75, 258, -1,
      258, 75, 73, -1,
      258, 73, 260, -1,
      260, 73, 71, -1,
      260, 71, 262, -1,
      262, 71, 70, -1,
      262, 70, 264, -1,
      264, 70, 69, -1,
      264, 69, 68, -1,
      247, 253, 248, -1,
      248, 253, 255, -1,
      248, 255, 249, -1,
      249, 255, 257, -1,
      249, 257, 250, -1,
      250, 257, 259, -1,
      250, 259, 251, -1,
      251, 259, 261, -1,
      251, 261, 252, -1,
      252, 261, 263, -1,
      252, 263, 68, -1,
      41, 62, 254, -1,
      41, 254, 234, -1,
      234, 254, 253, -1,
      234, 253, 233, -1,
      233, 253, 247, -1,
      233, 247, 232, -1,
      232, 247, 236, -1,
      232, 236, 231, -1,
      231, 236, 235, -1,
      231, 235, 230, -1,
      230, 235, 113, -1,
      230, 113, 115, -1,
    ]
  }
}

Shape {
  appearance Appearance {
    material Material {
      diffuseColor 1.0000 1.0000 1.0000
      specularColor 0.8784 0.8784 0.8784
      ambientIntensity 0.2
      transparency 0.0000
      shininess 0.5
    }
  }
  geometry IndexedFaceSet {
    ccw TRUE
    solid FALSE
    coord DEF co Coordinate {
      point [
        0.465216 -0.306299 0.192913,
        0.440073 -0.306299 -0.091011,
        0.452454 -0.306299 -0.150625,
        0.465216 -0.306299 -0.192913,
        0.433850 -0.306299 -0.030443,
        0.433850 -0.306299 0.030443,
        0.440073 -0.306299 0.091011,
        0.452454 -0.306299 0.150625,
        0.470863 -0.306299 -0.214426,
        0.469459 -0.306299 -0.204876,
        0.470863 -0.306299 -0.208661,
        0.470863 -0.306299 0.208661,
        0.470863 -0.306299 0.214426,
        0.469459 -0.306299 0.204876,
        0.470863 0.306299 -0.208661,
        0.470863 0.306299 -0.214426,
        0.469459 0.306299 -0.204876,
        0.440073 0.306299 0.091011,
        0.452454 0.306299 0.150625,
        0.465216 0.306299 0.192913,
        0.465216 0.306299 -0.192913,
        0.433850 0.306299 0.030443,
        0.433850 0.306299 -0.030443,
        0.440073 0.306299 -0.091011,
        0.452454 0.306299 -0.150625,
        0.470863 0.306299 0.214426,
        0.469459 0.306299 0.204876,
        0.470863 0.306299 0.208661,
        0.049581 0.031457 -0.208661,
        0.055396 0.030804 -0.208661,
        0.036810 -0.012880 -0.208661,
        -0.006019 0.030737 -0.208661,
        0.016307 0.030737 -0.208661,
        0.016307 0.011292 -0.208661,
        -0.004579 0.011292 -0.208661,
        -0.004579 0.004811 -0.208661,
        0.069753 -0.016798 -0.208661,
        0.074189 -0.012128 -0.208661,
        0.084724 -0.021836 -0.208661,
        0.055474 -0.022196 -0.208661,
        0.114972 -0.021836 -0.208661,
        0.042404 0.030525 -0.208661,
        0.035752 -0.012294 -0.208661,
        0.035752 0.027676 -0.208661,
        -0.006019 0.037219 -0.208661,
        0.024229 0.037219 -0.208661,
        0.114972 0.037219 -0.208661,
        0.107050 0.037219 -0.208661,
        0.076566 0.021665 -0.208661,
        0.073105 0.027186 -0.208661,
        0.067773 0.032313 -0.208661,
        0.062164 0.035542 -0.208661,
        0.084724 -0.015354 -0.208661,
        0.077335 -0.006513 -0.208661,
        0.107050 -0.015354 -0.208661,
        0.055580 0.037455 -0.208661,
        0.049649 0.037939 -0.208661,
        0.042580 0.037451 -0.208661,
        0.035752 0.035598 -0.208661,
        0.024229 -0.021836 -0.208661,
        0.035752 -0.018775 -0.208661,
        0.059278 -0.021802 -0.208661,
        0.065002 -0.019831 -0.208661,
        0.059817 0.029209 -0.208661,
        0.063904 0.026475 -0.208661,
        0.067470 0.022538 -0.208661,
        0.071761 0.007061 -0.208661,
        0.071163 0.000668 -0.208661,
        0.069559 -0.004411 -0.208661,
        0.056417 -0.015457 -0.208661,
        0.050909 -0.016075 -0.208661,
        0.060720 -0.013873 -0.208661,
        0.064345 -0.011430 -0.208661,
        0.067116 -0.008506 -0.208661,
        0.043070 -0.015205 -0.208661,
        0.079112 -0.000262 -0.208661,
        0.079683 0.006578 -0.208661,
        0.078833 0.014973 -0.208661,
        0.069905 0.017978 -0.208661,
        0.071479 0.011656 -0.208661,
        0.016307 0.004811 -0.208661,
        0.016307 -0.015354 -0.208661,
        -0.007459 -0.015354 -0.208661,
        -0.007459 -0.021836 -0.208661,
        0.048014 -0.022196 -0.208661,
        0.042046 -0.021360 -0.208661,
        0.050386 -0.022529 -0.208661,
        0.052001 -0.022556 -0.208661,
        -0.093161 0.037219 -0.208661,
        -0.101083 0.037219 -0.208661,
        -0.115487 -0.021836 -0.208661,
        -0.124129 -0.021836 -0.208661,
        -0.035040 -0.021836 -0.208661,
        -0.018982 -0.021836 -0.208661,
        -0.018982 0.037219 -0.208661,
        -0.035648 0.037219 -0.208661,
        -0.057579 0.029519 -0.208661,
        -0.061755 0.024888 -0.208661,
        -0.064499 0.019809 -0.208661,
        -0.070835 -0.021836 -0.208661,
        -0.063566 -0.005650 -0.208661,
        -0.060179 -0.010933 -0.208661,
        -0.044180 0.036307 -0.208661,
        -0.051089 0.033881 -0.208661,
        -0.057517 0.029573 -0.208661,
        -0.055318 -0.015587 -0.208661,
        -0.049152 -0.019170 -0.208661,
        -0.042347 -0.021198 -0.208661,
        -0.079478 -0.021836 -0.208661,
        -0.085115 -0.005272 -0.208661,
        -0.109512 -0.005272 -0.208661,
        -0.066085 0.013991 -0.208661,
        -0.066515 0.008434 -0.208661,
        -0.065686 0.000531 -0.208661,
        0.470863 -0.309561 0.211923,
        0.470863 -0.312063 0.208661,
        0.469455 -0.313637 0.204863,
        0.467977 -0.314173 0.200787,
        0.468650 -0.302923 -0.202657,
        0.468650 0.302923 -0.202657,
        0.452454 -0.314173 -0.150625,
        0.467977 -0.314173 -0.200787,
        0.452454 -0.314173 0.150625,
        0.440073 -0.314173 -0.091011,
        0.440073 -0.314173 0.091011,
        0.433850 -0.314173 0.030443,
        0.433850 -0.314173 -0.030443,
        0.470863 -0.309561 -0.211923,
        0.470863 -0.312063 -0.208661,
        0.469455 -0.313637 -0.204863,
        0.468650 0.302923 0.202657,
        0.468650 -0.302923 0.202657,
        0.470863 0.309561 0.211923,
        0.470863 0.312063 0.208661,
        0.469455 0.313637 0.204863,
        0.467977 0.314173 0.200787,
        0.452454 0.314173 0.150625,
        0.467977 0.314173 -0.200787,
        0.452454 0.314173 -0.150625,
        0.440073 0.314173 0.091011,
        0.440073 0.314173 -0.091011,
        0.433850 0.314173 -0.030443,
        0.433850 0.314173 0.030443,
        0.470863 0.309561 -0.211923,
        0.470863 0.312063 -0.208661,
        0.469455 0.313637 -0.204863,
        0.467977 0.304189 0.200787,
        0.466630 0.305763 0.196989,
        0.467977 0.304189 -0.200787,
        0.466630 0.305763 -0.196989,
        0.467977 -0.304189 0.200787,
        0.466630 -0.305763 0.196989,
        0.467977 -0.304189 -0.200787,
        0.466630 -0.305763 -0.196989,
        -0.101083 0.037219 -0.204724,
        -0.124129 -0.021836 -0.204724,
        -0.115487 -0.021836 -0.204724,
        -0.109512 -0.005272 -0.204724,
        -0.085115 -0.005272 -0.204724,
        -0.079478 -0.021836 -0.204724,
        -0.070835 -0.021836 -0.204724,
        -0.093161 0.037219 -0.204724,
        -0.087107 0.001210 -0.204724,
        -0.106856 0.001210 -0.204724,
        -0.095918 0.025876 -0.204724,
        -0.096487 0.027924 -0.204724,
        -0.096863 0.030017 -0.204724,
        -0.097055 0.030017 -0.204724,
        -0.097440 0.027930 -0.204724,
        -0.097966 0.025876 -0.204724,
        -0.087107 0.001210 -0.208661,
        -0.106856 0.001210 -0.208661,
        -0.095918 0.025876 -0.208661,
        -0.096487 0.027924 -0.208661,
        -0.096863 0.030017 -0.208661,
        -0.097055 0.030017 -0.208661,
        -0.097440 0.027930 -0.208661,
        -0.097966 0.025876 -0.208661,
        -0.035040 -0.021836 -0.204724,
        -0.018982 -0.021836 -0.204724,
        -0.018982 0.037219 -0.204724,
        -0.035648 0.037219 -0.204724,
        -0.066515 0.008434 -0.204724,
        -0.066085 0.013991 -0.204724,
        -0.064499 0.019809 -0.204724,
        -0.061755 0.024888 -0.204724,
        -0.057579 0.029519 -0.204724,
        -0.057517 0.029573 -0.204724,
        -0.051089 0.033881 -0.204724,
        -0.044180 0.036307 -0.204724,
        -0.042347 -0.021198 -0.204724,
        -0.049152 -0.019170 -0.204724,
        -0.055318 -0.015587 -0.204724,
        -0.060179 -0.010933 -0.204724,
        -0.063566 -0.005650 -0.204724,
        -0.065686 0.000531 -0.204724,
        -0.054661 0.022456 -0.204724,
        -0.051792 0.025502 -0.204724,
        -0.047478 0.028289 -0.204724,
        -0.042604 0.029994 -0.204724,
        -0.035614 0.030737 -0.204724,
        -0.026904 0.030737 -0.204724,
        -0.026904 -0.015354 -0.204724,
        -0.035288 -0.015354 -0.204724,
        -0.041518 -0.014775 -0.204724,
        -0.046488 -0.013223 -0.204724,
        -0.050515 -0.010832 -0.204724,
        -0.053828 -0.007560 -0.204724,
        -0.056318 -0.003489 -0.204724,
        -0.058050 0.002063 -0.204724,
        -0.058593 0.008265 -0.204724,
        -0.058091 0.014143 -0.204724,
        -0.056712 0.018814 -0.204724,
        -0.035614 0.030737 -0.208661,
        -0.026904 0.030737 -0.208661,
        -0.042604 0.029994 -0.208661,
        -0.047478 0.028289 -0.208661,
        -0.051792 0.025502 -0.208661,
        -0.054661 0.022456 -0.208661,
        -0.056712 0.018814 -0.208661,
        -0.058091 0.014143 -0.208661,
        -0.058593 0.008265 -0.208661,
        -0.058050 0.002063 -0.208661,
        -0.056318 -0.003489 -0.208661,
        -0.053828 -0.007560 -0.208661,
        -0.050515 -0.010832 -0.208661,
        -0.046488 -0.013223 -0.208661,
        -0.041518 -0.014775 -0.208661,
        -0.035288 -0.015354 -0.208661,
        -0.026904 -0.015354 -0.208661,
        -0.007459 -0.015354 -0.204724,
        -0.007459 -0.021836 -0.204724,
        0.024229 -0.021836 -0.204724,
        0.024229 0.037219 -0.204724,
        -0.006019 0.037219 -0.204724,
        -0.006019 0.030737 -0.204724,
        0.016307 0.030737 -0.204724,
        0.016307 0.011292 -0.204724,
        -0.004579 0.011292 -0.204724,
        -0.004579 0.004811 -0.204724,
        0.016307 0.004811 -0.204724,
        0.016307 -0.015354 -0.204724,
        0.035752 -0.012294 -0.204724,
        0.035752 -0.018775 -0.204724,
        0.042046 -0.021360 -0.204724,
        0.052001 -0.022556 -0.204724,
        0.050386 -0.022529 -0.204724,
        0.079683 0.006578 -0.204724,
        0.079112 -0.000262 -0.204724,
        0.077335 -0.006513 -0.204724,
        0.074189 -0.012128 -0.204724,
        0.069753 -0.016798 -0.204724,
        0.065002 -0.019831 -0.204724,
        0.059278 -0.021802 -0.204724,
        0.049649 0.037939 -0.204724,
        0.055580 0.037455 -0.204724,
        0.062164 0.035542 -0.204724,
        0.067773 0.032313 -0.204724,
        0.073105 0.027186 -0.204724,
        0.076566 0.021665 -0.204724,
        0.078833 0.014973 -0.204724,
        0.035752 0.035598 -0.204724,
        0.042580 0.037451 -0.204724,
        0.035752 0.027676 -0.204724,
        0.049581 0.031457 -0.204724,
        0.042404 0.030525 -0.204724,
        0.071761 0.007061 -0.204724,
        0.071479 0.011656 -0.204724,
        0.069905 0.017978 -0.204724,
        0.067470 0.022538 -0.204724,
        0.063904 0.026475 -0.204724,
        0.059817 0.029209 -0.204724,
        0.055396 0.030804 -0.204724,
        0.050909 -0.016075 -0.204724,
        0.056417 -0.015457 -0.204724,
        0.060720 -0.013873 -0.204724,
        0.064345 -0.011430 -0.204724,
        0.067116 -0.008506 -0.204724,
        0.069559 -0.004411 -0.204724,
        0.071163 0.000668 -0.204724,
        0.036810 -0.012880 -0.204724,
        0.043070 -0.015205 -0.204724,
        0.084724 -0.015354 -0.204724,
        0.084724 -0.021836 -0.204724,
        0.114972 -0.021836 -0.204724,
        0.114972 0.037219 -0.204724,
        0.107050 0.037219 -0.204724,
        0.107050 -0.015354 -0.204724,
      ]
    }
    coordIndex [
      146, 130, 26, -1,
      19, 147, 135, -1,
      19, 135, 18, -1,
      147, 146, 135, -1,
      135, 146, 26, -1,
      135, 26, 134, -1,
      134, 26, 27, -1,
      134, 27, 133, -1,
      138, 23, 140, -1,
      140, 23, 22, -1,
      140, 22, 141, -1,
      141, 22, 21, -1,
      141, 21, 142, -1,
      142, 21, 17, -1,
      142, 17, 139, -1,
      139, 17, 18, -1,
      139, 18, 136, -1,
      136, 18, 135, -1,
      144, 14, 145, -1,
      145, 14, 16, -1,
      145, 16, 137, -1,
      137, 16, 119, -1,
      137, 119, 148, -1,
      148, 149, 137, -1,
      137, 149, 20, -1,
      137, 20, 138, -1,
      138, 20, 24, -1,
      138, 24, 23, -1,
      15, 14, 143, -1,
      143, 14, 144, -1,
      133, 27, 132, -1,
      132, 27, 25, -1,
      115, 11, 116, -1,
      116, 11, 13, -1,
      116, 13, 117, -1,
      117, 13, 131, -1,
      117, 131, 150, -1,
      150, 151, 117, -1,
      117, 151, 0, -1,
      117, 0, 122, -1,
      152, 118, 9, -1,
      3, 153, 121, -1,
      3, 121, 2, -1,
      153, 152, 121, -1,
      121, 152, 9, -1,
      121, 9, 129, -1,
      129, 9, 10, -1,
      129, 10, 128, -1,
      0, 7, 122, -1,
      122, 7, 6, -1,
      122, 6, 124, -1,
      124, 6, 5, -1,
      124, 5, 125, -1,
      125, 5, 4, -1,
      125, 4, 126, -1,
      126, 4, 1, -1,
      126, 1, 123, -1,
      123, 1, 2, -1,
      123, 2, 120, -1,
      120, 2, 121, -1,
      12, 11, 114, -1,
      114, 11, 115, -1,
      128, 10, 127, -1,
      127, 10, 8, -1,
      154, 155, 89, -1,
      89, 155, 91, -1,
      155, 156, 91, -1,
      91, 156, 90, -1,
      156, 157, 90, -1,
      90, 157, 110, -1,
      157, 158, 110, -1,
      110, 158, 109, -1,
      158, 159, 109, -1,
      109, 159, 108, -1,
      159, 160, 108, -1,
      108, 160, 99, -1,
      160, 161, 99, -1,
      99, 161, 88, -1,
      161, 154, 88, -1,
      88, 154, 89, -1,
      162, 158, 163, -1,
      163, 158, 157, -1,
      164, 161, 162, -1,
      162, 161, 160, -1,
      162, 160, 158, -1,
      158, 160, 159, -1,
      164, 165, 161, -1,
      161, 165, 166, -1,
      161, 166, 154, -1,
      154, 166, 167, -1,
      154, 167, 168, -1,
      168, 169, 154, -1,
      154, 169, 163, -1,
      154, 163, 155, -1,
      155, 163, 157, -1,
      155, 157, 156, -1,
      162, 163, 170, -1,
      170, 163, 171, -1,
      164, 162, 172, -1,
      172, 162, 170, -1,
      164, 172, 173, -1,
      164, 173, 165, -1,
      165, 173, 174, -1,
      165, 174, 166, -1,
      167, 166, 175, -1,
      175, 166, 174, -1,
      167, 175, 176, -1,
      167, 176, 168, -1,
      168, 176, 177, -1,
      168, 177, 169, -1,
      163, 169, 171, -1,
      171, 169, 177, -1,
      178, 179, 92, -1,
      92, 179, 93, -1,
      179, 180, 93, -1,
      93, 180, 94, -1,
      180, 181, 94, -1,
      94, 181, 95, -1,
      182, 112, 111, -1,
      182, 111, 183, -1,
      183, 111, 98, -1,
      183, 98, 184, -1,
      184, 98, 97, -1,
      184, 97, 185, -1,
      185, 97, 96, -1,
      185, 96, 186, -1,
      186, 96, 104, -1,
      186, 104, 187, -1,
      187, 104, 103, -1,
      187, 103, 188, -1,
      188, 103, 102, -1,
      188, 102, 189, -1,
      189, 102, 95, -1,
      189, 95, 181, -1,
      178, 92, 107, -1,
      178, 107, 190, -1,
      190, 107, 106, -1,
      190, 106, 191, -1,
      191, 106, 105, -1,
      191, 105, 192, -1,
      192, 105, 101, -1,
      192, 101, 193, -1,
      193, 101, 100, -1,
      193, 100, 194, -1,
      194, 100, 113, -1,
      194, 113, 195, -1,
      195, 113, 112, -1,
      195, 112, 182, -1,
      184, 185, 196, -1,
      196, 185, 186, -1,
      196, 186, 197, -1,
      197, 186, 187, -1,
      197, 187, 198, -1,
      198, 187, 188, -1,
      198, 188, 199, -1,
      199, 188, 189, -1,
      199, 189, 200, -1,
      200, 189, 181, -1,
      200, 181, 201, -1,
      201, 181, 180, -1,
      201, 180, 202, -1,
      202, 180, 179, -1,
      202, 179, 203, -1,
      203, 179, 178, -1,
      203, 178, 204, -1,
      204, 178, 190, -1,
      204, 190, 205, -1,
      205, 190, 191, -1,
      205, 191, 206, -1,
      206, 191, 192, -1,
      206, 192, 207, -1,
      207, 192, 193, -1,
      207, 193, 208, -1,
      208, 193, 194, -1,
      208, 194, 209, -1,
      209, 194, 195, -1,
      209, 195, 210, -1,
      210, 195, 182, -1,
      210, 182, 211, -1,
      211, 182, 183, -1,
      211, 183, 212, -1,
      212, 183, 184, -1,
      212, 184, 196, -1,
      200, 201, 213, -1,
      213, 201, 214, -1,
      200, 213, 215, -1,
      200, 215, 199, -1,
      199, 215, 216, -1,
      199, 216, 198, -1,
      198, 216, 217, -1,
      198, 217, 197, -1,
      197, 217, 218, -1,
      197, 218, 196, -1,
      196, 218, 219, -1,
      196, 219, 212, -1,
      212, 219, 220, -1,
      212, 220, 211, -1,
      211, 220, 221, -1,
      211, 221, 210, -1,
      210, 221, 222, -1,
      210, 222, 209, -1,
      209, 222, 223, -1,
      209, 223, 208, -1,
      208, 223, 224, -1,
      208, 224, 207, -1,
      207, 224, 225, -1,
      207, 225, 206, -1,
      206, 225, 226, -1,
      206, 226, 205, -1,
      205, 226, 227, -1,
      205, 227, 204, -1,
      204, 227, 228, -1,
      204, 228, 203, -1,
      202, 203, 229, -1,
      229, 203, 228, -1,
      201, 202, 214, -1,
      214, 202, 229, -1,
      230, 231, 82, -1,
      82, 231, 83, -1,
      231, 232, 83, -1,
      83, 232, 59, -1,
      232, 233, 59, -1,
      59, 233, 45, -1,
      233, 234, 45, -1,
      45, 234, 44, -1,
      234, 235, 44, -1,
      44, 235, 31, -1,
      235, 236, 31, -1,
      31, 236, 32, -1,
      236, 237, 32, -1,
      32, 237, 33, -1,
      237, 238, 33, -1,
      33, 238, 34, -1,
      238, 239, 34, -1,
      34, 239, 35, -1,
      239, 240, 35, -1,
      35, 240, 80, -1,
      240, 241, 80, -1,
      80, 241, 81, -1,
      241, 230, 81, -1,
      81, 230, 82, -1,
      232, 231, 230, -1,
      230, 241, 232, -1,
      232, 241, 240, -1,
      232, 240, 233, -1,
      235, 234, 236, -1,
      236, 234, 233, -1,
      236, 233, 237, -1,
      237, 233, 240, -1,
      237, 240, 238, -1,
      238, 240, 239, -1,
      242, 243, 42, -1,
      42, 243, 60, -1,
      60, 243, 244, -1,
      245, 87, 86, -1,
      245, 86, 246, -1,
      246, 86, 84, -1,
      246, 84, 244, -1,
      244, 84, 85, -1,
      244, 85, 60, -1,
      247, 76, 75, -1,
      247, 75, 248, -1,
      248, 75, 53, -1,
      248, 53, 249, -1,
      249, 53, 37, -1,
      249, 37, 250, -1,
      250, 37, 36, -1,
      250, 36, 251, -1,
      251, 36, 62, -1,
      251, 62, 252, -1,
      252, 62, 61, -1,
      252, 61, 253, -1,
      253, 61, 245, -1,
      245, 61, 39, -1,
      245, 39, 87, -1,
      254, 56, 55, -1,
      254, 55, 255, -1,
      255, 55, 51, -1,
      255, 51, 256, -1,
      256, 51, 50, -1,
      256, 50, 257, -1,
      257, 50, 49, -1,
      257, 49, 258, -1,
      258, 49, 48, -1,
      258, 48, 259, -1,
      259, 48, 77, -1,
      259, 77, 260, -1,
      260, 77, 76, -1,
      260, 76, 247, -1,
      261, 58, 57, -1,
      261, 57, 262, -1,
      262, 57, 56, -1,
      262, 56, 254, -1,
      261, 263, 58, -1,
      58, 263, 43, -1,
      264, 28, 41, -1,
      264, 41, 265, -1,
      265, 41, 43, -1,
      265, 43, 263, -1,
      266, 66, 79, -1,
      266, 79, 267, -1,
      267, 79, 78, -1,
      267, 78, 268, -1,
      268, 78, 65, -1,
      268, 65, 269, -1,
      269, 65, 64, -1,
      269, 64, 270, -1,
      270, 64, 63, -1,
      270, 63, 271, -1,
      271, 63, 29, -1,
      271, 29, 272, -1,
      272, 29, 28, -1,
      272, 28, 264, -1,
      273, 70, 69, -1,
      273, 69, 274, -1,
      274, 69, 71, -1,
      274, 71, 275, -1,
      275, 71, 72, -1,
      275, 72, 276, -1,
      276, 72, 73, -1,
      276, 73, 277, -1,
      277, 73, 68, -1,
      277, 68, 278, -1,
      278, 68, 67, -1,
      278, 67, 279, -1,
      279, 67, 66, -1,
      279, 66, 266, -1,
      242, 42, 30, -1,
      242, 30, 280, -1,
      280, 30, 74, -1,
      280, 74, 281, -1,
      281, 74, 70, -1,
      281, 70, 273, -1,
      274, 245, 273, -1,
      273, 245, 246, -1,
      273, 246, 281, -1,
      281, 246, 244, -1,
      281, 244, 280, -1,
      280, 244, 243, -1,
      280, 243, 242, -1,
      263, 261, 265, -1,
      265, 261, 262, -1,
      265, 262, 264, -1,
      264, 262, 254, -1,
      264, 254, 272, -1,
      272, 254, 255, -1,
      272, 255, 271, -1,
      271, 255, 256, -1,
      271, 256, 270, -1,
      270, 256, 257, -1,
      270, 257, 269, -1,
      269, 257, 258, -1,
      269, 258, 268, -1,
      268, 258, 259, -1,
      268, 259, 267, -1,
      267, 259, 260, -1,
      267, 260, 266, -1,
      266, 260, 247, -1,
      266, 247, 279, -1,
      279, 247, 248, -1,
      279, 248, 278, -1,
      278, 248, 249, -1,
      278, 249, 277, -1,
      277, 249, 250, -1,
      277, 250, 276, -1,
      276, 250, 251, -1,
      276, 251, 275, -1,
      275, 251, 252, -1,
      275, 252, 274, -1,
      274, 252, 253, -1,
      274, 253, 245, -1,
      282, 283, 52, -1,
      52, 283, 38, -1,
      283, 284, 38, -1,
      38, 284, 40, -1,
      284, 285, 40, -1,
      40, 285, 46, -1,
      285, 286, 46, -1,
      46, 286, 47, -1,
      286, 287, 47, -1,
      47, 287, 54, -1,
      287, 282, 54, -1,
      54, 282, 52, -1,
      286, 285, 287, -1,
      287, 285, 284, -1,
      287, 284, 282, -1,
      282, 284, 283, -1,
    ]
  }
}

Shape {
  appearance Appearance {
    material Material {
      diffuseColor 0.2510 0.2510 0.2510
      specularColor 0.1255 0.1255 0.1255
      ambientIntensity 0.2
      transparency 0.0000
      shininess 0.5
    }
  }
  geometry IndexedFaceSet {
    ccw TRUE
    solid FALSE
    coord DEF co Coordinate {
      point [
        -0.087107 0.001210 -0.208661,
        -0.106856 0.001210 -0.208661,
        -0.095918 0.025876 -0.208661,
        -0.096487 0.027924 -0.208661,
        -0.096863 0.030017 -0.208661,
        -0.097055 0.030017 -0.208661,
        -0.097440 0.027930 -0.208661,
        -0.097966 0.025876 -0.208661,
        -0.035614 0.030737 -0.208661,
        -0.026904 0.030737 -0.208661,
        -0.042604 0.029994 -0.208661,
        -0.047478 0.028289 -0.208661,
        -0.051792 0.025502 -0.208661,
        -0.054661 0.022456 -0.208661,
        -0.056712 0.018814 -0.208661,
        -0.058091 0.014143 -0.208661,
        -0.058593 0.008265 -0.208661,
        -0.058050 0.002063 -0.208661,
        -0.056318 -0.003489 -0.208661,
        -0.053828 -0.007560 -0.208661,
        -0.050515 -0.010832 -0.208661,
        -0.046488 -0.013223 -0.208661,
        -0.041518 -0.014775 -0.208661,
        -0.035288 -0.015354 -0.208661,
        -0.026904 -0.015354 -0.208661,
      ]
    }
    coordIndex [
      0, 1, 2, -1,
      2, 1, 7, -1,
      2, 7, 3, -1,
      3, 7, 6, -1,
      3, 6, 4, -1,
      4, 6, 5, -1,
      9, 24, 8, -1,
      8, 24, 23, -1,
      8, 23, 22, -1,
      16, 15, 8, -1,
      8, 15, 14, -1,
      8, 14, 10, -1,
      22, 21, 8, -1,
      8, 21, 20, -1,
      8, 20, 19, -1,
      19, 18, 8, -1,
      8, 18, 17, -1,
      8, 17, 16, -1,
      13, 12, 14, -1,
      14, 12, 11, -1,
      14, 11, 10, -1,
    ]
  }
}

Shape {
  appearance Appearance {
    material Material {
      diffuseColor 0.8549 0.8549 0.8549
      specularColor 0.4275 0.4275 0.4275
      ambientIntensity 0.2
      transparency 0.0000
      shininess 0.5
    }
  }
  geometry IndexedFaceSet {
    ccw TRUE
    solid FALSE
    coord DEF co Coordinate {
      point [
        -0.467977 -0.314173 0.200787,
        -0.614173 -0.314173 0.200787,
        -0.614173 -0.314173 -0.200787,
        -0.469459 -0.306299 0.214426,
        -0.468550 -0.302501 0.215999,
        -0.467587 -0.298425 0.216535,
        -0.614173 0.298425 0.216535,
        -0.614173 -0.298425 0.216535,
        -0.614173 0.298425 -0.216535,
        -0.614173 0.302501 -0.215999,
        -0.614173 0.306299 -0.214426,
        -0.614173 0.309561 -0.211923,
        -0.614173 0.312063 -0.208661,
        -0.614173 0.313637 -0.204863,
        -0.614173 0.314173 -0.200787,
        -0.614173 0.314173 0.200787,
        -0.614173 0.313637 0.204863,
        -0.614173 0.312063 0.208661,
        -0.614173 0.309561 0.211923,
        -0.614173 0.306299 0.214426,
        -0.614173 0.302501 0.215999,
        -0.614173 -0.298425 -0.216535,
        -0.614173 -0.302501 -0.215999,
        -0.614173 -0.306299 -0.214426,
        -0.614173 -0.309561 -0.211923,
        -0.614173 -0.312063 -0.208661,
        -0.614173 -0.313637 -0.204863,
        -0.470863 -0.306299 0.214426,
        -0.629921 0.298425 -0.200787,
        -0.629921 -0.298425 -0.200787,
        -0.629921 0.298425 0.200787,
        -0.629921 -0.298425 0.200787,
        -0.614173 -0.302501 0.215999,
        -0.614173 -0.306299 0.214426,
        -0.614173 -0.309561 0.211923,
        -0.470863 -0.309561 0.211923,
        -0.614173 -0.312063 0.208661,
        -0.470863 -0.312063 0.208661,
        -0.614173 -0.313637 0.204863,
        -0.469455 -0.313637 0.204863,
        -0.618249 -0.313637 0.200787,
        -0.618249 -0.313637 -0.200787,
        -0.622047 -0.312063 0.200787,
        -0.622047 -0.312063 -0.200787,
        -0.625309 -0.309561 0.200787,
        -0.625309 -0.309561 -0.200787,
        -0.627811 -0.306299 0.200787,
        -0.627811 -0.306299 -0.200787,
        -0.629385 -0.302501 0.200787,
        -0.629385 -0.302501 -0.200787,
        -0.618110 -0.313119 -0.204863,
        -0.621779 -0.311599 -0.204863,
        -0.617703 -0.311599 -0.208661,
        -0.620992 -0.310236 -0.208661,
        -0.617056 -0.309181 -0.211923,
        -0.619741 -0.308069 -0.211923,
        -0.616211 -0.306031 -0.214426,
        -0.618110 -0.305244 -0.214426,
        -0.615228 -0.302362 -0.215999,
        -0.616211 -0.301955 -0.215999,
        -0.624929 -0.309181 -0.204863,
        -0.623817 -0.308069 -0.208661,
        -0.622047 -0.306299 -0.211923,
        -0.619741 -0.303993 -0.214426,
        -0.617056 -0.301307 -0.215999,
        -0.627347 -0.306031 -0.204863,
        -0.628867 -0.302362 -0.204863,
        -0.625984 -0.305244 -0.208661,
        -0.627347 -0.301955 -0.208661,
        -0.623817 -0.303993 -0.211923,
        -0.624929 -0.301307 -0.211923,
        -0.620992 -0.302362 -0.214426,
        -0.621779 -0.300463 -0.214426,
        -0.617703 -0.300463 -0.215999,
        -0.618110 -0.299480 -0.215999,
        -0.629385 -0.298425 -0.204863,
        -0.627811 -0.298425 -0.208661,
        -0.625309 -0.298425 -0.211923,
        -0.622047 -0.298425 -0.214426,
        -0.618249 -0.298425 -0.215999,
        -0.618110 -0.313119 0.204863,
        -0.618110 -0.305244 0.214426,
        -0.616211 -0.301955 0.215999,
        -0.617056 -0.301307 0.215999,
        -0.618249 -0.298425 0.215999,
        -0.618110 -0.299480 0.215999,
        -0.615228 -0.302362 0.215999,
        -0.616211 -0.306031 0.214426,
        -0.617056 -0.309181 0.211923,
        -0.619741 -0.303993 0.214426,
        -0.617703 -0.300463 0.215999,
        -0.620992 -0.302362 0.214426,
        -0.621779 -0.300463 0.214426,
        -0.622047 -0.298425 0.214426,
        -0.619741 -0.308069 0.211923,
        -0.622047 -0.306299 0.211923,
        -0.623817 -0.303993 0.211923,
        -0.624929 -0.301307 0.211923,
        -0.625309 -0.298425 0.211923,
        -0.617703 -0.311599 0.208661,
        -0.620992 -0.310236 0.208661,
        -0.623817 -0.308069 0.208661,
        -0.625984 -0.305244 0.208661,
        -0.627347 -0.301955 0.208661,
        -0.627811 -0.298425 0.208661,
        -0.621779 -0.311599 0.204863,
        -0.624929 -0.309181 0.204863,
        -0.627347 -0.306031 0.204863,
        -0.628867 -0.302362 0.204863,
        -0.629385 -0.298425 0.204863,
        -0.618249 0.298425 -0.215999,
        -0.622047 0.298425 -0.214426,
        -0.625309 0.298425 -0.211923,
        -0.627811 0.298425 -0.208661,
        -0.629385 0.298425 -0.204863,
        -0.618249 0.298425 0.215999,
        -0.622047 0.298425 0.214426,
        -0.625309 0.298425 0.211923,
        -0.627811 0.298425 0.208661,
        -0.629385 0.298425 0.204863,
        -0.629385 0.302501 -0.200787,
        -0.627811 0.306299 -0.200787,
        -0.628867 0.302362 -0.204863,
        -0.627347 0.306031 -0.204863,
        -0.627347 0.301955 -0.208661,
        -0.625984 0.305244 -0.208661,
        -0.624929 0.301307 -0.211923,
        -0.623817 0.303993 -0.211923,
        -0.621779 0.300463 -0.214426,
        -0.620992 0.302362 -0.214426,
        -0.618110 0.299480 -0.215999,
        -0.617703 0.300463 -0.215999,
        -0.625309 0.309561 -0.200787,
        -0.624929 0.309181 -0.204863,
        -0.623817 0.308069 -0.208661,
        -0.622047 0.306299 -0.211923,
        -0.619741 0.303993 -0.214426,
        -0.617056 0.301307 -0.215999,
        -0.622047 0.312063 -0.200787,
        -0.618249 0.313637 -0.200787,
        -0.621779 0.311599 -0.204863,
        -0.618110 0.313119 -0.204863,
        -0.620992 0.310236 -0.208661,
        -0.617703 0.311599 -0.208661,
        -0.619741 0.308069 -0.211923,
        -0.617056 0.309181 -0.211923,
        -0.618110 0.305244 -0.214426,
        -0.616211 0.306031 -0.214426,
        -0.616211 0.301955 -0.215999,
        -0.615228 0.302362 -0.215999,
        -0.628867 0.302362 0.204863,
        -0.620992 0.302362 0.214426,
        -0.617703 0.300463 0.215999,
        -0.617056 0.301307 0.215999,
        -0.615228 0.302362 0.215999,
        -0.618110 0.299480 0.215999,
        -0.621779 0.300463 0.214426,
        -0.624929 0.301307 0.211923,
        -0.619741 0.303993 0.214426,
        -0.616211 0.301955 0.215999,
        -0.618110 0.305244 0.214426,
        -0.616211 0.306031 0.214426,
        -0.623817 0.303993 0.211923,
        -0.622047 0.306299 0.211923,
        -0.619741 0.308069 0.211923,
        -0.617056 0.309181 0.211923,
        -0.627347 0.301955 0.208661,
        -0.625984 0.305244 0.208661,
        -0.623817 0.308069 0.208661,
        -0.620992 0.310236 0.208661,
        -0.617703 0.311599 0.208661,
        -0.627347 0.306031 0.204863,
        -0.624929 0.309181 0.204863,
        -0.621779 0.311599 0.204863,
        -0.618110 0.313119 0.204863,
        -0.629385 0.302501 0.200787,
        -0.627811 0.306299 0.200787,
        -0.625309 0.309561 0.200787,
        -0.622047 0.312063 0.200787,
        -0.618249 0.313637 0.200787,
      ]
    }
    coordIndex [
      28, 29, 30, -1,
      30, 29, 31, -1,
      5, 7, 32, -1,
      5, 32, 4, -1,
      4, 32, 27, -1,
      4, 27, 3, -1,
      32, 33, 27, -1,
      27, 33, 34, -1,
      27, 34, 35, -1,
      35, 34, 36, -1,
      35, 36, 37, -1,
      37, 36, 38, -1,
      37, 38, 39, -1,
      39, 38, 1, -1,
      39, 1, 0, -1,
      2, 1, 40, -1,
      2, 40, 41, -1,
      41, 40, 42, -1,
      41, 42, 43, -1,
      43, 42, 44, -1,
      43, 44, 45, -1,
      45, 44, 46, -1,
      45, 46, 47, -1,
      47, 46, 48, -1,
      47, 48, 49, -1,
      49, 48, 31, -1,
      49, 31, 29, -1,
      41, 43, 50, -1,
      50, 43, 51, -1,
      50, 51, 52, -1,
      52, 51, 53, -1,
      52, 53, 54, -1,
      54, 53, 55, -1,
      54, 55, 56, -1,
      56, 55, 57, -1,
      56, 57, 58, -1,
      58, 57, 59, -1,
      58, 59, 21, -1,
      43, 45, 51, -1,
      51, 45, 60, -1,
      51, 60, 53, -1,
      53, 60, 61, -1,
      53, 61, 55, -1,
      55, 61, 62, -1,
      55, 62, 57, -1,
      57, 62, 63, -1,
      57, 63, 59, -1,
      59, 63, 64, -1,
      59, 64, 21, -1,
      2, 41, 26, -1,
      26, 41, 50, -1,
      26, 50, 25, -1,
      25, 50, 52, -1,
      25, 52, 24, -1,
      24, 52, 54, -1,
      24, 54, 23, -1,
      23, 54, 56, -1,
      23, 56, 22, -1,
      22, 56, 58, -1,
      22, 58, 21, -1,
      47, 49, 65, -1,
      65, 49, 66, -1,
      65, 66, 67, -1,
      67, 66, 68, -1,
      67, 68, 69, -1,
      69, 68, 70, -1,
      69, 70, 71, -1,
      71, 70, 72, -1,
      71, 72, 73, -1,
      73, 72, 74, -1,
      73, 74, 21, -1,
      49, 29, 66, -1,
      66, 29, 75, -1,
      66, 75, 68, -1,
      68, 75, 76, -1,
      68, 76, 70, -1,
      70, 76, 77, -1,
      70, 77, 72, -1,
      72, 77, 78, -1,
      72, 78, 74, -1,
      74, 78, 79, -1,
      74, 79, 21, -1,
      45, 47, 60, -1,
      60, 47, 65, -1,
      60, 65, 61, -1,
      61, 65, 67, -1,
      61, 67, 62, -1,
      62, 67, 69, -1,
      62, 69, 63, -1,
      63, 69, 71, -1,
      63, 71, 64, -1,
      64, 71, 73, -1,
      64, 73, 21, -1,
      1, 38, 80, -1,
      81, 82, 83, -1,
      7, 84, 85, -1,
      83, 82, 7, -1,
      86, 7, 82, -1,
      86, 82, 87, -1,
      87, 82, 81, -1,
      87, 81, 88, -1,
      32, 7, 86, -1,
      89, 90, 91, -1,
      91, 90, 85, -1,
      91, 85, 92, -1,
      92, 85, 84, -1,
      92, 84, 93, -1,
      32, 86, 33, -1,
      33, 86, 87, -1,
      33, 87, 34, -1,
      34, 87, 88, -1,
      34, 88, 36, -1,
      94, 89, 95, -1,
      95, 89, 91, -1,
      95, 91, 96, -1,
      96, 91, 92, -1,
      96, 92, 97, -1,
      97, 92, 93, -1,
      97, 93, 98, -1,
      99, 94, 100, -1,
      100, 94, 95, -1,
      100, 95, 101, -1,
      101, 95, 96, -1,
      101, 96, 102, -1,
      102, 96, 97, -1,
      102, 97, 103, -1,
      103, 97, 98, -1,
      103, 98, 104, -1,
      38, 99, 80, -1,
      80, 99, 100, -1,
      80, 100, 105, -1,
      105, 100, 101, -1,
      105, 101, 106, -1,
      106, 101, 102, -1,
      106, 102, 107, -1,
      107, 102, 103, -1,
      107, 103, 108, -1,
      108, 103, 104, -1,
      108, 104, 109, -1,
      1, 80, 40, -1,
      40, 80, 105, -1,
      40, 105, 42, -1,
      42, 105, 106, -1,
      42, 106, 44, -1,
      44, 106, 107, -1,
      44, 107, 46, -1,
      46, 107, 108, -1,
      46, 108, 48, -1,
      48, 108, 109, -1,
      48, 109, 31, -1,
      90, 7, 85, -1,
      38, 36, 99, -1,
      99, 36, 88, -1,
      99, 88, 94, -1,
      94, 88, 81, -1,
      94, 81, 89, -1,
      89, 81, 83, -1,
      89, 83, 90, -1,
      90, 83, 7, -1,
      8, 21, 79, -1,
      8, 79, 110, -1,
      110, 79, 78, -1,
      110, 78, 111, -1,
      111, 78, 77, -1,
      111, 77, 112, -1,
      112, 77, 76, -1,
      112, 76, 113, -1,
      113, 76, 75, -1,
      113, 75, 114, -1,
      114, 75, 29, -1,
      114, 29, 28, -1,
      7, 6, 115, -1,
      7, 115, 84, -1,
      84, 115, 116, -1,
      84, 116, 93, -1,
      93, 116, 117, -1,
      93, 117, 98, -1,
      98, 117, 118, -1,
      98, 118, 104, -1,
      104, 118, 119, -1,
      104, 119, 109, -1,
      109, 119, 30, -1,
      109, 30, 31, -1,
      120, 121, 122, -1,
      122, 121, 123, -1,
      122, 123, 124, -1,
      124, 123, 125, -1,
      124, 125, 126, -1,
      126, 125, 127, -1,
      126, 127, 128, -1,
      128, 127, 129, -1,
      128, 129, 130, -1,
      130, 129, 131, -1,
      130, 131, 8, -1,
      121, 132, 123, -1,
      123, 132, 133, -1,
      123, 133, 125, -1,
      125, 133, 134, -1,
      125, 134, 127, -1,
      127, 134, 135, -1,
      127, 135, 129, -1,
      129, 135, 136, -1,
      129, 136, 131, -1,
      131, 136, 137, -1,
      131, 137, 8, -1,
      28, 120, 114, -1,
      114, 120, 122, -1,
      114, 122, 113, -1,
      113, 122, 124, -1,
      113, 124, 112, -1,
      112, 124, 126, -1,
      112, 126, 111, -1,
      111, 126, 128, -1,
      111, 128, 110, -1,
      110, 128, 130, -1,
      110, 130, 8, -1,
      138, 139, 140, -1,
      140, 139, 141, -1,
      140, 141, 142, -1,
      142, 141, 143, -1,
      142, 143, 144, -1,
      144, 143, 145, -1,
      144, 145, 146, -1,
      146, 145, 147, -1,
      146, 147, 148, -1,
      148, 147, 149, -1,
      148, 149, 8, -1,
      139, 14, 141, -1,
      141, 14, 13, -1,
      141, 13, 143, -1,
      143, 13, 12, -1,
      143, 12, 145, -1,
      145, 12, 11, -1,
      145, 11, 147, -1,
      147, 11, 10, -1,
      147, 10, 149, -1,
      149, 10, 9, -1,
      149, 9, 8, -1,
      132, 138, 133, -1,
      133, 138, 140, -1,
      133, 140, 134, -1,
      134, 140, 142, -1,
      134, 142, 135, -1,
      135, 142, 144, -1,
      135, 144, 136, -1,
      136, 144, 146, -1,
      136, 146, 137, -1,
      137, 146, 148, -1,
      137, 148, 8, -1,
      30, 119, 150, -1,
      151, 152, 153, -1,
      6, 20, 154, -1,
      153, 152, 6, -1,
      155, 6, 152, -1,
      155, 152, 156, -1,
      156, 152, 151, -1,
      156, 151, 157, -1,
      115, 6, 155, -1,
      158, 159, 160, -1,
      160, 159, 154, -1,
      160, 154, 161, -1,
      161, 154, 20, -1,
      161, 20, 19, -1,
      115, 155, 116, -1,
      116, 155, 156, -1,
      116, 156, 117, -1,
      117, 156, 157, -1,
      117, 157, 118, -1,
      162, 158, 163, -1,
      163, 158, 160, -1,
      163, 160, 164, -1,
      164, 160, 161, -1,
      164, 161, 165, -1,
      165, 161, 19, -1,
      165, 19, 18, -1,
      166, 162, 167, -1,
      167, 162, 163, -1,
      167, 163, 168, -1,
      168, 163, 164, -1,
      168, 164, 169, -1,
      169, 164, 165, -1,
      169, 165, 170, -1,
      170, 165, 18, -1,
      170, 18, 17, -1,
      119, 166, 150, -1,
      150, 166, 167, -1,
      150, 167, 171, -1,
      171, 167, 168, -1,
      171, 168, 172, -1,
      172, 168, 169, -1,
      172, 169, 173, -1,
      173, 169, 170, -1,
      173, 170, 174, -1,
      174, 170, 17, -1,
      174, 17, 16, -1,
      30, 150, 175, -1,
      175, 150, 171, -1,
      175, 171, 176, -1,
      176, 171, 172, -1,
      176, 172, 177, -1,
      177, 172, 173, -1,
      177, 173, 178, -1,
      178, 173, 174, -1,
      178, 174, 179, -1,
      179, 174, 16, -1,
      179, 16, 15, -1,
      159, 6, 154, -1,
      119, 118, 166, -1,
      166, 118, 157, -1,
      166, 157, 162, -1,
      162, 157, 151, -1,
      162, 151, 158, -1,
      158, 151, 153, -1,
      158, 153, 159, -1,
      159, 153, 6, -1,
      15, 14, 139, -1,
      15, 139, 179, -1,
      179, 139, 138, -1,
      179, 138, 178, -1,
      178, 138, 132, -1,
      178, 132, 177, -1,
      177, 132, 121, -1,
      177, 121, 176, -1,
      176, 121, 120, -1,
      176, 120, 175, -1,
      175, 120, 28, -1,
      175, 28, 30, -1,
    ]
  }
}

Shape {
  appearance Appearance {
    material Material {
      diffuseColor 1.0000 1.0000 1.0000
      specularColor 0.8784 0.8784 0.8784
      ambientIntensity 0.2
      transparency 0.0000
      shininess 0.5
    }
  }
  geometry IndexedFaceSet {
    ccw TRUE
    solid FALSE
    coord DEF co Coordinate {
      point [
        -0.440073 -0.306299 0.091011,
        -0.452454 -0.306299 0.150625,
        -0.465216 -0.306299 0.192913,
        -0.465216 -0.306299 -0.192913,
        -0.433850 -0.306299 0.030443,
        -0.433850 -0.306299 -0.030443,
        -0.440073 -0.306299 -0.091011,
        -0.452454 -0.306299 -0.150625,
        -0.470863 -0.306299 -0.208661,
        -0.470863 -0.306299 -0.214426,
        -0.469459 -0.306299 -0.204876,
        -0.465216 0.306299 0.192913,
        -0.440073 0.306299 -0.091011,
        -0.452454 0.306299 -0.150625,
        -0.465216 0.306299 -0.192913,
        -0.433850 0.306299 -0.030443,
        -0.433850 0.306299 0.030443,
        -0.440073 0.306299 0.091011,
        -0.452454 0.306299 0.150625,
        -0.470863 0.306299 -0.214426,
        -0.469459 0.306299 -0.204876,
        -0.470863 0.306299 -0.208661,
        -0.468650 0.302923 -0.202657,
        -0.468650 -0.302923 -0.202657,
        -0.452454 -0.314173 0.150625,
        -0.467977 -0.314173 0.200787,
        -0.440073 -0.314173 0.091011,
        -0.467977 -0.314173 -0.200787,
        -0.452454 -0.314173 -0.150625,
        -0.440073 -0.314173 -0.091011,
        -0.433850 -0.314173 -0.030443,
        -0.433850 -0.314173 0.030443,
        -0.469459 -0.306299 0.204876,
        -0.468650 -0.302923 0.202657,
        -0.468650 0.302923 0.202657,
        -0.469459 0.306299 0.204876,
        -0.470863 0.309561 -0.211923,
        -0.470863 0.312063 -0.208661,
        -0.469455 0.313637 -0.204863,
        -0.467977 0.314173 -0.200787,
        -0.452454 0.314173 -0.150625,
        -0.440073 0.314173 -0.091011,
        -0.467977 0.314173 0.200787,
        -0.452454 0.314173 0.150625,
        -0.440073 0.314173 0.091011,
        -0.433850 0.314173 0.030443,
        -0.433850 0.314173 -0.030443,
        -0.470863 0.306299 0.214426,
        -0.469455 0.313637 0.204863,
        -0.470863 0.312063 0.208661,
        -0.470863 0.309561 0.211923,
        -0.470863 -0.309561 -0.211923,
        -0.470863 -0.312063 -0.208661,
        -0.469455 -0.313637 -0.204863,
        -0.470863 0.306299 0.208661,
        -0.470863 -0.306299 0.214426,
        -0.470863 -0.306299 0.208661,
        -0.470863 -0.309561 0.211923,
        -0.470863 -0.312063 0.208661,
        -0.469455 -0.313637 0.204863,
        -0.467977 0.304189 0.200787,
        -0.466630 0.305763 0.196989,
        -0.467977 0.304189 -0.200787,
        -0.466630 0.305763 -0.196989,
        -0.467977 -0.304189 0.200787,
        -0.466630 -0.305763 0.196989,
        -0.467977 -0.304189 -0.200787,
        -0.466630 -0.305763 -0.196989,
      ]
    }
    coordIndex [
      49, 54, 48, -1,
      48, 54, 35, -1,
      48, 35, 42, -1,
      42, 35, 34, -1,
      42, 34, 60, -1,
      60, 61, 42, -1,
      42, 61, 11, -1,
      42, 11, 43, -1,
      62, 22, 20, -1,
      14, 63, 39, -1,
      14, 39, 13, -1,
      63, 62, 39, -1,
      39, 62, 20, -1,
      39, 20, 38, -1,
      38, 20, 21, -1,
      38, 21, 37, -1,
      11, 18, 43, -1,
      43, 18, 17, -1,
      43, 17, 44, -1,
      44, 17, 16, -1,
      44, 16, 45, -1,
      45, 16, 15, -1,
      45, 15, 46, -1,
      46, 15, 12, -1,
      46, 12, 41, -1,
      41, 12, 13, -1,
      41, 13, 40, -1,
      40, 13, 39, -1,
      47, 54, 50, -1,
      50, 54, 49, -1,
      37, 21, 36, -1,
      36, 21, 19, -1,
      64, 33, 32, -1,
      2, 65, 25, -1,
      2, 25, 1, -1,
      65, 64, 25, -1,
      25, 64, 32, -1,
      25, 32, 59, -1,
      59, 32, 56, -1,
      59, 56, 58, -1,
      28, 6, 29, -1,
      29, 6, 5, -1,
      29, 5, 30, -1,
      30, 5, 4, -1,
      30, 4, 31, -1,
      31, 4, 0, -1,
      31, 0, 26, -1,
      26, 0, 1, -1,
      26, 1, 24, -1,
      24, 1, 25, -1,
      52, 8, 53, -1,
      53, 8, 10, -1,
      53, 10, 27, -1,
      27, 10, 23, -1,
      27, 23, 66, -1,
      66, 67, 27, -1,
      27, 67, 3, -1,
      27, 3, 28, -1,
      28, 3, 7, -1,
      28, 7, 6, -1,
      9, 8, 51, -1,
      51, 8, 52, -1,
      58, 56, 57, -1,
      57, 56, 55, -1,
    ]
  }
}

Shape {
  appearance Appearance {
    material Material {
      diffuseColor 0.2510 0.2510 0.2510
      specularColor 0.1255 0.1255 0.1255
      ambientIntensity 0.2
      transparency 0.0000
      shininess 0.5
    }
  }
  geometry IndexedFaceSet {
    ccw TRUE
    solid FALSE
    coord DEF co Coordinate {
      point [
        0.465216 -0.306299 0.192913,
        -0.465216 -0.306299 0.192913,
        -0.465216 -0.306299 -0.192913,
        0.465216 -0.306299 -0.192913,
        -0.465216 0.306299 0.192913,
        0.465216 0.306299 0.192913,
        0.465216 0.306299 -0.192913,
        -0.465216 0.306299 -0.192913,
        -0.013221 -0.290551 -0.208661,
        0.465767 -0.290551 -0.208661,
        -0.013221 0.290551 -0.208661,
        0.465767 0.290551 -0.208661,
        -0.465767 0.290551 -0.208661,
        -0.465767 -0.290551 -0.208661,
        -0.468650 0.302923 -0.202657,
        -0.468357 0.301687 -0.204049,
        -0.467587 0.298425 -0.206552,
        -0.466703 0.294627 -0.208125,
        -0.468650 -0.302923 -0.202657,
        -0.468357 -0.301687 -0.204049,
        -0.467587 -0.298425 -0.206552,
        -0.466703 -0.294627 -0.208125,
        -0.465767 -0.290551 0.208661,
        0.465767 -0.290551 0.208661,
        -0.465767 0.290551 0.208661,
        0.465767 0.290551 0.208661,
        -0.468650 -0.302923 0.202657,
        -0.468357 -0.301687 0.204049,
        -0.467587 -0.298425 0.206552,
        -0.466703 -0.294627 0.208125,
        -0.468650 0.302923 0.202657,
        -0.468357 0.301687 0.204049,
        -0.467587 0.298425 0.206552,
        -0.466703 0.294627 0.208125,
        0.468650 -0.302923 -0.202657,
        0.468357 -0.301687 -0.204049,
        0.467587 -0.298425 -0.206552,
        0.466703 -0.294627 -0.208125,
        0.468650 0.302923 -0.202657,
        0.468357 0.301687 -0.204049,
        0.467587 0.298425 -0.206552,
        0.466703 0.294627 -0.208125,
        0.468650 0.302923 0.202657,
        0.468357 0.301687 0.204049,
        0.467587 0.298425 0.206552,
        0.466703 0.294627 0.208125,
        0.468650 -0.302923 0.202657,
        0.468357 -0.301687 0.204049,
        0.467587 -0.298425 0.206552,
        0.466703 -0.294627 0.208125,
        0.467977 0.304189 0.200787,
        0.466630 0.305763 0.196989,
        0.467977 0.304189 -0.200787,
        0.466630 0.305763 -0.196989,
        0.467977 -0.304189 0.200787,
        0.466630 -0.305763 0.196989,
        0.467977 -0.304189 -0.200787,
        0.466630 -0.305763 -0.196989,
        -0.467977 0.304189 0.200787,
        -0.466630 0.305763 0.196989,
        -0.467977 0.304189 -0.200787,
        -0.466630 0.305763 -0.196989,
        -0.467977 -0.304189 0.200787,
        -0.466630 -0.305763 0.196989,
        -0.467977 -0.304189 -0.200787,
        -0.466630 -0.305763 -0.196989,
      ]
    }
    coordIndex [
      10, 12, 17, -1,
      41, 16, 40, -1,
      40, 16, 15, -1,
      40, 15, 39, -1,
      39, 15, 14, -1,
      39, 14, 38, -1,
      38, 14, 60, -1,
      38, 60, 52, -1,
      52, 60, 61, -1,
      52, 61, 53, -1,
      53, 61, 7, -1,
      53, 7, 6, -1,
      11, 10, 41, -1,
      41, 10, 17, -1,
      41, 17, 16, -1,
      3, 2, 65, -1,
      21, 13, 8, -1,
      3, 65, 57, -1,
      57, 65, 64, -1,
      57, 64, 56, -1,
      56, 64, 18, -1,
      56, 18, 34, -1,
      34, 18, 19, -1,
      34, 19, 35, -1,
      35, 19, 20, -1,
      35, 20, 36, -1,
      36, 20, 21, -1,
      36, 21, 37, -1,
      37, 21, 8, -1,
      37, 8, 9, -1,
      1, 0, 55, -1,
      1, 55, 63, -1,
      63, 55, 54, -1,
      63, 54, 62, -1,
      62, 54, 46, -1,
      62, 46, 26, -1,
      26, 46, 47, -1,
      26, 47, 27, -1,
      27, 47, 48, -1,
      27, 48, 28, -1,
      28, 48, 49, -1,
      28, 49, 29, -1,
      29, 49, 23, -1,
      29, 23, 22, -1,
      5, 4, 59, -1,
      5, 59, 51, -1,
      51, 59, 58, -1,
      51, 58, 50, -1,
      50, 58, 30, -1,
      50, 30, 42, -1,
      42, 30, 31, -1,
      42, 31, 43, -1,
      43, 31, 32, -1,
      43, 32, 44, -1,
      44, 32, 33, -1,
      44, 33, 45, -1,
      45, 33, 24, -1,
      45, 24, 25, -1,
    ]
  }
}
