#VRML V2.0 utf8

Shape {
  appearance Appearance {
    material Material {
      diffuseColor 0.2235 0.2235 0.2235
      specularColor 0.1137 0.1137 0.1137
      ambientIntensity 0.2
      transparency 0.0000
      shininess 0.5
    }
  }
  geometry IndexedFaceSet {
    ccw TRUE
    solid FALSE
    coord DEF co Coordinate {
      point [
        0.359989 -0.212352 0.433071,
        0.359989 0.212352 0.433071,
        -0.228197 -0.212352 0.433071,
        -0.228197 0.212352 0.433071,
        -0.359989 0.212352 0.433071,
        -0.359989 -0.212352 0.433071,
        -0.310865 0.212352 0.433071,
        -0.310865 -0.212352 0.433071,
        -0.351552 -0.203914 0.039370,
        -0.351552 0.203914 0.039370,
        0.351552 -0.203914 0.039370,
        0.351552 0.203914 0.039370,
        0.374091 0.246063 0.314961,
        0.300197 0.246063 0.314961,
        0.300197 0.241913 0.344488,
        0.374207 0.246063 0.314961,
        0.359989 0.231845 0.416126,
        0.211614 0.241913 0.344488,
        -0.359989 0.231845 0.416126,
        -0.044291 0.241913 0.344488,
        -0.044291 0.246063 0.314961,
        -0.211614 0.246063 0.314961,
        -0.211614 0.241913 0.344488,
        -0.300197 0.241913 0.344488,
        0.044291 0.241913 0.344488,
        0.044291 0.246063 0.314961,
        0.211614 0.246063 0.314961,
        -0.300197 0.246063 0.314961,
        -0.374091 0.246063 0.314961,
        -0.374207 0.246063 0.314961,
        -0.379483 0.212352 0.416126,
        -0.393701 0.226570 0.314961,
        -0.393701 0.226453 0.314961,
        -0.379483 -0.212352 0.416126,
        -0.393701 -0.226453 0.314961,
        -0.393701 -0.226570 0.314961,
        0.379483 -0.212352 0.416126,
        0.393701 -0.226570 0.314961,
        0.393701 -0.226453 0.314961,
        0.379483 0.212352 0.416126,
        0.393701 0.226453 0.314961,
        0.393701 0.226570 0.314961,
        -0.374091 -0.246063 0.314961,
        -0.300197 -0.246063 0.314961,
        -0.300197 -0.241913 0.344488,
        -0.374207 -0.246063 0.314961,
        -0.359989 -0.231845 0.416126,
        -0.211614 -0.241913 0.344488,
        0.359989 -0.231845 0.416126,
        0.044291 -0.241913 0.344488,
        0.044291 -0.246063 0.314961,
        0.211614 -0.246063 0.314961,
        0.211614 -0.241913 0.344488,
        0.300197 -0.241913 0.344488,
        -0.044291 -0.241913 0.344488,
        -0.044291 -0.246063 0.314961,
        -0.211614 -0.246063 0.314961,
        0.300197 -0.246063 0.314961,
        0.374091 -0.246063 0.314961,
        0.374207 -0.246063 0.314961,
        0.300197 -0.243480 0.285433,
        0.211614 -0.243480 0.285433,
        0.044291 -0.243480 0.285433,
        -0.044291 -0.243480 0.285433,
        -0.351552 -0.223524 0.057339,
        0.351552 -0.223524 0.057339,
        -0.300197 -0.243480 0.285433,
        -0.211614 -0.243480 0.285433,
        0.371162 -0.203914 0.057339,
        0.371162 0.203914 0.057339,
        -0.371162 0.203914 0.057339,
        -0.371162 -0.203914 0.057339,
        -0.300197 0.243480 0.285433,
        -0.211614 0.243480 0.285433,
        -0.044291 0.243480 0.285433,
        0.044291 0.243480 0.285433,
        0.351552 0.223524 0.057339,
        -0.351552 0.223524 0.057339,
        0.300197 0.243480 0.285433,
        0.211614 0.243480 0.285433,
        -0.359989 0.217002 0.432510,
        -0.310865 0.213596 0.433031,
        -0.228197 0.213596 0.433031,
        0.359989 0.217002 0.432510,
        0.359989 0.230698 0.420522,
        -0.359989 0.230698 0.420522,
        0.359989 0.230631 0.420646,
        -0.359989 0.230631 0.420646,
        0.359989 0.228476 0.424678,
        -0.359989 0.228476 0.424678,
        0.359989 0.228401 0.424761,
        -0.359989 0.228401 0.424761,
        0.359989 0.225330 0.428187,
        -0.359989 0.225330 0.428187,
        0.359989 0.225261 0.428234,
        -0.359989 0.225261 0.428234,
        0.359989 0.221441 0.430847,
        -0.359989 0.221441 0.430847,
        0.359989 0.221388 0.430867,
        -0.359989 0.221388 0.430867,
        0.359989 0.217030 0.432507,
        -0.359989 0.217030 0.432507,
        0.363348 0.224888 0.428187,
        0.362342 0.221131 0.430847,
        0.361200 0.216871 0.432507,
        0.362329 0.216404 0.432507,
        0.364041 0.214691 0.432507,
        0.363298 0.215660 0.432507,
        0.364509 0.213563 0.432507,
        0.364738 0.230072 0.420522,
        0.365009 0.231086 0.416724,
        0.364975 0.231101 0.416722,
        0.369629 0.229109 0.417096,
        0.369163 0.228240 0.420522,
        0.369653 0.229091 0.417096,
        0.372962 0.225324 0.420522,
        0.373642 0.226004 0.417223,
        0.375878 0.221525 0.420522,
        0.376728 0.222015 0.417096,
        0.376747 0.221991 0.417096,
        0.377710 0.217100 0.420522,
        0.378724 0.217371 0.416724,
        0.378739 0.217337 0.416722,
        0.378335 0.212352 0.420522,
        0.364640 0.212352 0.432510,
        0.364534 0.220223 0.430847,
        0.366416 0.218778 0.430847,
        0.367861 0.216896 0.430847,
        0.368769 0.214704 0.430847,
        0.364668 0.212352 0.432507,
        0.369026 0.212352 0.430867,
        0.369078 0.212352 0.430847,
        0.372898 0.212352 0.428234,
        0.366479 0.223591 0.428187,
        0.369167 0.221529 0.428187,
        0.371229 0.218841 0.428187,
        0.372526 0.215711 0.428187,
        0.364163 0.227926 0.424678,
        0.368052 0.226315 0.424678,
        0.371391 0.223753 0.424678,
        0.373953 0.220414 0.424678,
        0.375564 0.216525 0.424678,
        0.372968 0.212352 0.428187,
        0.376039 0.212352 0.424761,
        0.376113 0.212352 0.424678,
        0.378269 0.212352 0.420646,
        -0.376039 0.212352 0.424761,
        -0.372968 0.212352 0.428187,
        -0.372526 0.215711 0.428187,
        -0.368769 0.214704 0.430847,
        -0.364509 0.213563 0.432507,
        -0.364041 0.214691 0.432507,
        -0.362329 0.216404 0.432507,
        -0.363298 0.215660 0.432507,
        -0.361200 0.216871 0.432507,
        -0.364640 0.212352 0.432510,
        -0.377710 0.217100 0.420522,
        -0.378724 0.217371 0.416724,
        -0.378739 0.217337 0.416722,
        -0.376747 0.221991 0.417096,
        -0.375878 0.221525 0.420522,
        -0.376728 0.222015 0.417096,
        -0.372962 0.225324 0.420522,
        -0.373642 0.226004 0.417223,
        -0.369163 0.228240 0.420522,
        -0.369653 0.229091 0.417096,
        -0.369629 0.229109 0.417096,
        -0.364738 0.230072 0.420522,
        -0.365009 0.231086 0.416724,
        -0.364975 0.231101 0.416722,
        -0.372898 0.212352 0.428234,
        -0.369078 0.212352 0.430847,
        -0.369026 0.212352 0.430867,
        -0.364668 0.212352 0.432507,
        -0.367861 0.216896 0.430847,
        -0.366416 0.218778 0.430847,
        -0.364534 0.220223 0.430847,
        -0.362342 0.221131 0.430847,
        -0.371229 0.218841 0.428187,
        -0.369167 0.221529 0.428187,
        -0.366479 0.223591 0.428187,
        -0.363348 0.224888 0.428187,
        -0.378269 0.212352 0.420646,
        -0.376113 0.212352 0.424678,
        -0.375564 0.216525 0.424678,
        -0.373953 0.220414 0.424678,
        -0.371391 0.223753 0.424678,
        -0.368052 0.226315 0.424678,
        -0.364163 0.227926 0.424678,
        -0.378335 0.212352 0.420522,
        0.378335 -0.212352 0.420522,
        0.378269 -0.212352 0.420646,
        0.376113 -0.212352 0.424678,
        0.376039 -0.212352 0.424761,
        0.372968 -0.212352 0.428187,
        0.372898 -0.212352 0.428234,
        0.369078 -0.212352 0.430847,
        0.369026 -0.212352 0.430867,
        0.364668 -0.212352 0.432507,
        0.364640 -0.212352 0.432510,
        0.383957 0.243437 0.315146,
        0.383922 0.243452 0.315146,
        0.379260 0.245386 0.315075,
        0.379184 0.245396 0.315074,
        0.387985 0.240347 0.315170,
        0.391075 0.236319 0.315146,
        0.391090 0.236283 0.315146,
        0.393024 0.231622 0.315075,
        0.393034 0.231546 0.315074,
        -0.391075 0.236319 0.315146,
        -0.391090 0.236283 0.315146,
        -0.393024 0.231622 0.315075,
        -0.393034 0.231546 0.315074,
        -0.387985 0.240347 0.315170,
        -0.383957 0.243437 0.315146,
        -0.383922 0.243452 0.315146,
        -0.379260 0.245386 0.315075,
        -0.379184 0.245396 0.315074,
        -0.378335 -0.212352 0.420522,
        -0.378269 -0.212352 0.420646,
        -0.376113 -0.212352 0.424678,
        -0.376039 -0.212352 0.424761,
        -0.372968 -0.212352 0.428187,
        -0.372898 -0.212352 0.428234,
        -0.369078 -0.212352 0.430847,
        -0.369026 -0.212352 0.430867,
        -0.364668 -0.212352 0.432507,
        -0.364640 -0.212352 0.432510,
        0.359989 -0.217002 0.432510,
        -0.310865 -0.213596 0.433031,
        -0.359989 -0.217002 0.432510,
        -0.228197 -0.213596 0.433031,
        -0.359989 -0.230698 0.420522,
        0.359989 -0.230698 0.420522,
        -0.359989 -0.230631 0.420646,
        0.359989 -0.230631 0.420646,
        -0.359989 -0.228476 0.424678,
        0.359989 -0.228476 0.424678,
        -0.359989 -0.228401 0.424761,
        0.359989 -0.228401 0.424761,
        -0.359989 -0.225330 0.428187,
        0.359989 -0.225330 0.428187,
        -0.359989 -0.225261 0.428234,
        0.359989 -0.225261 0.428234,
        -0.359989 -0.221441 0.430847,
        0.359989 -0.221441 0.430847,
        -0.359989 -0.221388 0.430867,
        0.359989 -0.221388 0.430867,
        -0.359989 -0.217030 0.432507,
        0.359989 -0.217030 0.432507,
        0.372526 -0.215711 0.428187,
        0.368769 -0.214704 0.430847,
        0.364509 -0.213563 0.432507,
        0.364041 -0.214691 0.432507,
        0.362329 -0.216404 0.432507,
        0.363298 -0.215660 0.432507,
        0.361200 -0.216871 0.432507,
        0.377710 -0.217100 0.420522,
        0.378724 -0.217371 0.416724,
        0.378739 -0.217337 0.416722,
        0.376747 -0.221991 0.417096,
        0.375878 -0.221525 0.420522,
        0.376728 -0.222015 0.417096,
        0.372962 -0.225324 0.420522,
        0.373642 -0.226004 0.417223,
        0.369163 -0.228240 0.420522,
        0.369653 -0.229091 0.417096,
        0.369629 -0.229109 0.417096,
        0.364738 -0.230072 0.420522,
        0.365009 -0.231086 0.416724,
        0.364975 -0.231101 0.416722,
        0.367861 -0.216896 0.430847,
        0.366416 -0.218778 0.430847,
        0.364534 -0.220223 0.430847,
        0.362342 -0.221131 0.430847,
        0.371229 -0.218841 0.428187,
        0.369167 -0.221529 0.428187,
        0.366479 -0.223591 0.428187,
        0.363348 -0.224888 0.428187,
        0.375564 -0.216525 0.424678,
        0.373953 -0.220414 0.424678,
        0.371391 -0.223753 0.424678,
        0.368052 -0.226315 0.424678,
        0.364163 -0.227926 0.424678,
        0.393700 0.226570 0.314961,
        0.370462 0.208966 0.056959,
        0.370456 0.208979 0.056958,
        0.368485 0.213676 0.056720,
        0.368478 0.213686 0.056719,
        0.365366 0.217728 0.056638,
        0.361324 0.220840 0.056719,
        0.361314 0.220847 0.056720,
        0.356617 0.222818 0.056958,
        0.356604 0.222824 0.056959,
        0.374207 0.246063 0.314962,
        -0.351552 0.222555 0.052730,
        0.351552 0.222555 0.052730,
        -0.351552 0.222492 0.052600,
        0.351552 0.222492 0.052600,
        -0.351552 0.220424 0.048336,
        0.351552 0.220424 0.048336,
        -0.351552 0.220350 0.048247,
        0.351552 0.220350 0.048247,
        -0.351552 0.217278 0.044601,
        0.351552 0.217278 0.044601,
        -0.351552 0.217207 0.044550,
        0.351552 0.217207 0.044550,
        -0.351552 0.213308 0.041756,
        0.351552 0.213308 0.041756,
        -0.351552 0.213254 0.041735,
        0.351552 0.213254 0.041735,
        -0.351552 0.208760 0.039976,
        0.351552 0.208760 0.039976,
        -0.351552 0.208731 0.039972,
        0.351552 0.208731 0.039972,
        -0.374207 0.246063 0.314961,
        -0.356604 0.222824 0.056959,
        -0.356617 0.222818 0.056958,
        -0.361314 0.220847 0.056720,
        -0.361324 0.220840 0.056719,
        -0.365366 0.217728 0.056638,
        -0.368478 0.213686 0.056719,
        -0.368485 0.213676 0.056720,
        -0.370456 0.208979 0.056958,
        -0.370462 0.208966 0.056959,
        -0.393700 0.226570 0.314962,
        -0.363348 -0.224888 0.428187,
        -0.362342 -0.221131 0.430847,
        -0.361200 -0.216871 0.432507,
        -0.362329 -0.216404 0.432507,
        -0.364041 -0.214691 0.432507,
        -0.363298 -0.215660 0.432507,
        -0.364509 -0.213563 0.432507,
        -0.364738 -0.230072 0.420522,
        -0.365009 -0.231086 0.416724,
        -0.364975 -0.231101 0.416722,
        -0.369629 -0.229109 0.417096,
        -0.369163 -0.228240 0.420522,
        -0.369653 -0.229091 0.417096,
        -0.372962 -0.225324 0.420522,
        -0.373642 -0.226004 0.417223,
        -0.375878 -0.221525 0.420522,
        -0.376728 -0.222015 0.417096,
        -0.376747 -0.221991 0.417096,
        -0.377710 -0.217100 0.420522,
        -0.378724 -0.217371 0.416724,
        -0.378739 -0.217337 0.416722,
        -0.364534 -0.220223 0.430847,
        -0.366416 -0.218778 0.430847,
        -0.367861 -0.216896 0.430847,
        -0.368769 -0.214704 0.430847,
        -0.366479 -0.223591 0.428187,
        -0.369167 -0.221529 0.428187,
        -0.371229 -0.218841 0.428187,
        -0.372526 -0.215711 0.428187,
        -0.364163 -0.227926 0.424678,
        -0.368052 -0.226315 0.424678,
        -0.371391 -0.223753 0.424678,
        -0.373953 -0.220414 0.424678,
        -0.375564 -0.216525 0.424678,
        0.391075 -0.236319 0.315146,
        0.391090 -0.236283 0.315146,
        0.393024 -0.231622 0.315075,
        0.393034 -0.231546 0.315074,
        0.387985 -0.240347 0.315170,
        0.383957 -0.243437 0.315146,
        0.383922 -0.243452 0.315146,
        0.379260 -0.245386 0.315075,
        0.379184 -0.245396 0.315074,
        0.367987 0.203914 0.048247,
        0.364915 0.203914 0.044601,
        0.364460 0.207373 0.044601,
        0.360626 0.206345 0.041756,
        0.356233 0.205168 0.039976,
        0.355748 0.206337 0.039976,
        0.353975 0.208111 0.039976,
        0.354978 0.207341 0.039976,
        0.352806 0.208595 0.039976,
        0.356369 0.203914 0.039972,
        0.369558 0.208739 0.052730,
        0.367696 0.213235 0.052730,
        0.364733 0.217095 0.052730,
        0.360872 0.220058 0.052730,
        0.356376 0.221920 0.052730,
        0.364844 0.203914 0.044550,
        0.360946 0.203914 0.041756,
        0.360892 0.203914 0.041735,
        0.356398 0.203914 0.039976,
        0.359687 0.208611 0.041756,
        0.358194 0.210556 0.041756,
        0.356249 0.212049 0.041756,
        0.353983 0.212988 0.041756,
        0.363125 0.210596 0.044601,
        0.361001 0.213363 0.044601,
        0.358233 0.215487 0.044601,
        0.355011 0.216822 0.044601,
        0.370130 0.203914 0.052600,
        0.368062 0.203914 0.048336,
        0.367500 0.208187 0.048336,
        0.365850 0.212169 0.048336,
        0.363226 0.215589 0.048336,
        0.359807 0.218213 0.048336,
        0.355825 0.219862 0.048336,
        0.370193 0.203914 0.052730,
        -0.355011 0.216822 0.044601,
        -0.353983 0.212988 0.041756,
        -0.352806 0.208595 0.039976,
        -0.353975 0.208111 0.039976,
        -0.355748 0.206337 0.039976,
        -0.354978 0.207341 0.039976,
        -0.356233 0.205168 0.039976,
        -0.356376 0.221920 0.052730,
        -0.360872 0.220058 0.052730,
        -0.364733 0.217095 0.052730,
        -0.367696 0.213235 0.052730,
        -0.369558 0.208739 0.052730,
        -0.370193 0.203914 0.052730,
        -0.356369 0.203914 0.039972,
        -0.356249 0.212049 0.041756,
        -0.358194 0.210556 0.041756,
        -0.359687 0.208611 0.041756,
        -0.360626 0.206345 0.041756,
        -0.356398 0.203914 0.039976,
        -0.360892 0.203914 0.041735,
        -0.360946 0.203914 0.041756,
        -0.364844 0.203914 0.044550,
        -0.358233 0.215487 0.044601,
        -0.361001 0.213363 0.044601,
        -0.363125 0.210596 0.044601,
        -0.364460 0.207373 0.044601,
        -0.355825 0.219862 0.048336,
        -0.359807 0.218213 0.048336,
        -0.363226 0.215589 0.048336,
        -0.365850 0.212169 0.048336,
        -0.367500 0.208187 0.048336,
        -0.364915 0.203914 0.044601,
        -0.367987 0.203914 0.048247,
        -0.368062 0.203914 0.048336,
        -0.370130 0.203914 0.052600,
        -0.383957 -0.243437 0.315146,
        -0.383922 -0.243452 0.315146,
        -0.379260 -0.245386 0.315075,
        -0.379184 -0.245396 0.315074,
        -0.387985 -0.240347 0.315170,
        -0.391075 -0.236319 0.315146,
        -0.391090 -0.236283 0.315146,
        -0.393024 -0.231622 0.315075,
        -0.393034 -0.231546 0.315074,
        0.374207 -0.246063 0.314961,
        0.356604 -0.222824 0.056959,
        0.356617 -0.222818 0.056958,
        0.361314 -0.220847 0.056720,
        0.361324 -0.220840 0.056719,
        0.365366 -0.217728 0.056638,
        0.368478 -0.213686 0.056719,
        0.368485 -0.213676 0.056720,
        0.370456 -0.208979 0.056958,
        0.370462 -0.208966 0.056959,
        0.393700 -0.226570 0.314962,
        0.370193 -0.203914 0.052730,
        0.370130 -0.203914 0.052600,
        0.368062 -0.203914 0.048336,
        0.367987 -0.203914 0.048247,
        0.364915 -0.203914 0.044601,
        0.364844 -0.203914 0.044550,
        0.360946 -0.203914 0.041756,
        0.360892 -0.203914 0.041735,
        0.356398 -0.203914 0.039976,
        0.356369 -0.203914 0.039972,
        -0.370193 -0.203914 0.052730,
        -0.370130 -0.203914 0.052600,
        -0.368062 -0.203914 0.048336,
        -0.367987 -0.203914 0.048247,
        -0.364915 -0.203914 0.044601,
        -0.364844 -0.203914 0.044550,
        -0.360946 -0.203914 0.041756,
        -0.360892 -0.203914 0.041735,
        -0.356398 -0.203914 0.039976,
        -0.356369 -0.203914 0.039972,
        -0.393700 -0.226570 0.314961,
        -0.370462 -0.208966 0.056959,
        -0.370456 -0.208979 0.056958,
        -0.368485 -0.213676 0.056720,
        -0.368478 -0.213686 0.056719,
        -0.365366 -0.217728 0.056638,
        -0.361324 -0.220840 0.056719,
        -0.361314 -0.220847 0.056720,
        -0.356617 -0.222818 0.056958,
        -0.356604 -0.222824 0.056959,
        -0.374207 -0.246063 0.314962,
        0.351552 -0.220350 0.048247,
        0.351552 -0.217278 0.044601,
        0.355011 -0.216822 0.044601,
        0.353983 -0.212988 0.041756,
        0.352806 -0.208595 0.039976,
        0.353975 -0.208111 0.039976,
        0.355748 -0.206337 0.039976,
        0.354978 -0.207341 0.039976,
        0.356233 -0.205168 0.039976,
        0.351552 -0.208731 0.039972,
        0.356376 -0.221920 0.052730,
        0.360872 -0.220058 0.052730,
        0.364733 -0.217095 0.052730,
        0.367696 -0.213235 0.052730,
        0.369558 -0.208739 0.052730,
        0.351552 -0.217207 0.044550,
        0.351552 -0.213308 0.041756,
        0.351552 -0.213254 0.041735,
        0.351552 -0.208760 0.039976,
        0.356249 -0.212049 0.041756,
        0.358194 -0.210556 0.041756,
        0.359687 -0.208611 0.041756,
        0.360626 -0.206345 0.041756,
        0.358233 -0.215487 0.044601,
        0.361001 -0.213363 0.044601,
        0.363125 -0.210596 0.044601,
        0.364460 -0.207373 0.044601,
        0.351552 -0.222492 0.052600,
        0.351552 -0.220424 0.048336,
        0.355825 -0.219862 0.048336,
        0.359807 -0.218213 0.048336,
        0.363226 -0.215589 0.048336,
        0.365850 -0.212169 0.048336,
        0.367500 -0.208187 0.048336,
        0.351552 -0.222555 0.052730,
        -0.364460 -0.207373 0.044601,
        -0.360626 -0.206345 0.041756,
        -0.356233 -0.205168 0.039976,
        -0.355748 -0.206337 0.039976,
        -0.353975 -0.208111 0.039976,
        -0.354978 -0.207341 0.039976,
        -0.352806 -0.208595 0.039976,
        -0.369558 -0.208739 0.052730,
        -0.367696 -0.213235 0.052730,
        -0.364733 -0.217095 0.052730,
        -0.360872 -0.220058 0.052730,
        -0.356376 -0.221920 0.052730,
        -0.351552 -0.222555 0.052730,
        -0.351552 -0.208731 0.039972,
        -0.359687 -0.208611 0.041756,
        -0.358194 -0.210556 0.041756,
        -0.356249 -0.212049 0.041756,
        -0.353983 -0.212988 0.041756,
        -0.351552 -0.208760 0.039976,
        -0.351552 -0.213254 0.041735,
        -0.351552 -0.213308 0.041756,
        -0.351552 -0.217207 0.044550,
        -0.363125 -0.210596 0.044601,
        -0.361001 -0.213363 0.044601,
        -0.358233 -0.215487 0.044601,
        -0.355011 -0.216822 0.044601,
        -0.367500 -0.208187 0.048336,
        -0.365850 -0.212169 0.048336,
        -0.363226 -0.215589 0.048336,
        -0.359807 -0.218213 0.048336,
        -0.355825 -0.219862 0.048336,
        -0.351552 -0.217278 0.044601,
        -0.351552 -0.220350 0.048247,
        -0.351552 -0.220424 0.048336,
        -0.351552 -0.222492 0.052600,
      ]
    }
    coordIndex [
      0, 1, 2, -1,
      2, 1, 3, -1,
      4, 5, 6, -1,
      6, 5, 7, -1,
      8, 9, 10, -1,
      10, 9, 11, -1,
      12, 13, 14, -1,
      12, 14, 15, -1,
      15, 14, 16, -1,
      16, 14, 17, -1,
      16, 17, 18, -1,
      19, 20, 21, -1,
      22, 23, 18, -1,
      21, 22, 19, -1,
      19, 22, 18, -1,
      19, 18, 24, -1,
      24, 18, 17, -1,
      24, 17, 25, -1,
      25, 17, 26, -1,
      23, 27, 18, -1,
      18, 27, 28, -1,
      18, 28, 29, -1,
      30, 31, 32, -1,
      30, 32, 33, -1,
      33, 32, 34, -1,
      33, 34, 35, -1,
      36, 37, 38, -1,
      36, 38, 39, -1,
      39, 38, 40, -1,
      39, 40, 41, -1,
      42, 43, 44, -1,
      42, 44, 45, -1,
      45, 44, 46, -1,
      46, 44, 47, -1,
      46, 47, 48, -1,
      49, 50, 51, -1,
      52, 53, 48, -1,
      51, 52, 49, -1,
      49, 52, 48, -1,
      49, 48, 54, -1,
      54, 48, 47, -1,
      54, 47, 55, -1,
      55, 47, 56, -1,
      53, 57, 48, -1,
      48, 57, 58, -1,
      48, 58, 59, -1,
      58, 57, 60, -1,
      61, 51, 50, -1,
      62, 63, 64, -1,
      50, 62, 61, -1,
      61, 62, 64, -1,
      61, 64, 60, -1,
      60, 64, 65, -1,
      60, 65, 58, -1,
      43, 42, 66, -1,
      66, 42, 64, -1,
      66, 64, 67, -1,
      67, 64, 63, -1,
      67, 63, 56, -1,
      56, 63, 55, -1,
      68, 69, 38, -1,
      38, 69, 40, -1,
      70, 71, 32, -1,
      32, 71, 34, -1,
      28, 27, 72, -1,
      73, 21, 20, -1,
      74, 75, 76, -1,
      20, 74, 73, -1,
      73, 74, 76, -1,
      73, 76, 72, -1,
      72, 76, 77, -1,
      72, 77, 28, -1,
      13, 12, 78, -1,
      78, 12, 76, -1,
      78, 76, 79, -1,
      79, 76, 75, -1,
      79, 75, 26, -1,
      26, 75, 25, -1,
      4, 6, 80, -1,
      80, 6, 81, -1,
      3, 1, 82, -1,
      82, 1, 83, -1,
      16, 18, 84, -1,
      84, 18, 85, -1,
      84, 85, 86, -1,
      86, 85, 87, -1,
      86, 87, 88, -1,
      88, 87, 89, -1,
      88, 89, 90, -1,
      90, 89, 91, -1,
      90, 91, 92, -1,
      92, 91, 93, -1,
      92, 93, 94, -1,
      94, 93, 95, -1,
      94, 95, 96, -1,
      96, 95, 97, -1,
      96, 97, 98, -1,
      98, 97, 99, -1,
      98, 99, 100, -1,
      100, 99, 101, -1,
      100, 101, 83, -1,
      83, 101, 80, -1,
      83, 80, 82, -1,
      82, 80, 81, -1,
      90, 92, 102, -1,
      103, 104, 105, -1,
      1, 106, 107, -1,
      108, 106, 1, -1,
      105, 104, 1, -1,
      83, 1, 104, -1,
      109, 110, 111, -1,
      110, 109, 112, -1,
      112, 109, 113, -1,
      112, 113, 114, -1,
      114, 113, 115, -1,
      114, 115, 116, -1,
      116, 115, 117, -1,
      116, 117, 118, -1,
      118, 117, 119, -1,
      119, 117, 120, -1,
      119, 120, 121, -1,
      121, 120, 122, -1,
      122, 120, 123, -1,
      122, 123, 39, -1,
      124, 108, 1, -1,
      94, 96, 103, -1,
      103, 96, 98, -1,
      103, 98, 104, -1,
      104, 98, 100, -1,
      104, 100, 83, -1,
      125, 107, 126, -1,
      126, 107, 106, -1,
      126, 106, 127, -1,
      127, 106, 108, -1,
      127, 108, 128, -1,
      124, 129, 108, -1,
      108, 129, 130, -1,
      108, 130, 128, -1,
      128, 130, 131, -1,
      128, 131, 132, -1,
      102, 125, 133, -1,
      133, 125, 126, -1,
      133, 126, 134, -1,
      134, 126, 127, -1,
      134, 127, 135, -1,
      135, 127, 128, -1,
      135, 128, 136, -1,
      136, 128, 132, -1,
      86, 88, 137, -1,
      137, 88, 90, -1,
      90, 102, 137, -1,
      137, 102, 133, -1,
      137, 133, 138, -1,
      138, 133, 134, -1,
      138, 134, 139, -1,
      139, 134, 135, -1,
      139, 135, 140, -1,
      140, 135, 136, -1,
      140, 136, 141, -1,
      92, 94, 102, -1,
      102, 94, 103, -1,
      102, 103, 125, -1,
      125, 103, 105, -1,
      125, 105, 107, -1,
      107, 105, 1, -1,
      86, 109, 84, -1,
      84, 109, 111, -1,
      84, 111, 16, -1,
      132, 142, 136, -1,
      136, 142, 143, -1,
      136, 143, 141, -1,
      141, 143, 144, -1,
      141, 144, 145, -1,
      86, 137, 109, -1,
      109, 137, 138, -1,
      109, 138, 113, -1,
      113, 138, 139, -1,
      113, 139, 115, -1,
      115, 139, 140, -1,
      115, 140, 117, -1,
      117, 140, 141, -1,
      117, 141, 120, -1,
      120, 141, 145, -1,
      120, 145, 123, -1,
      146, 147, 148, -1,
      149, 150, 151, -1,
      4, 152, 153, -1,
      154, 152, 4, -1,
      151, 150, 4, -1,
      155, 4, 150, -1,
      156, 157, 158, -1,
      157, 156, 159, -1,
      159, 156, 160, -1,
      159, 160, 161, -1,
      161, 160, 162, -1,
      161, 162, 163, -1,
      163, 162, 164, -1,
      163, 164, 165, -1,
      165, 164, 166, -1,
      166, 164, 167, -1,
      166, 167, 168, -1,
      168, 167, 169, -1,
      169, 167, 85, -1,
      169, 85, 18, -1,
      80, 154, 4, -1,
      170, 171, 149, -1,
      149, 171, 172, -1,
      149, 172, 150, -1,
      150, 172, 173, -1,
      150, 173, 155, -1,
      174, 153, 175, -1,
      175, 153, 152, -1,
      175, 152, 176, -1,
      176, 152, 154, -1,
      176, 154, 177, -1,
      80, 101, 154, -1,
      154, 101, 99, -1,
      154, 99, 177, -1,
      177, 99, 97, -1,
      177, 97, 95, -1,
      148, 174, 178, -1,
      178, 174, 175, -1,
      178, 175, 179, -1,
      179, 175, 176, -1,
      179, 176, 180, -1,
      180, 176, 177, -1,
      180, 177, 181, -1,
      181, 177, 95, -1,
      182, 183, 184, -1,
      184, 183, 146, -1,
      146, 148, 184, -1,
      184, 148, 178, -1,
      184, 178, 185, -1,
      185, 178, 179, -1,
      185, 179, 186, -1,
      186, 179, 180, -1,
      186, 180, 187, -1,
      187, 180, 181, -1,
      187, 181, 188, -1,
      147, 170, 148, -1,
      148, 170, 149, -1,
      148, 149, 174, -1,
      174, 149, 151, -1,
      174, 151, 153, -1,
      153, 151, 4, -1,
      182, 156, 189, -1,
      189, 156, 158, -1,
      189, 158, 30, -1,
      95, 93, 181, -1,
      181, 93, 91, -1,
      181, 91, 188, -1,
      188, 91, 89, -1,
      188, 89, 87, -1,
      182, 184, 156, -1,
      156, 184, 185, -1,
      156, 185, 160, -1,
      160, 185, 186, -1,
      160, 186, 162, -1,
      162, 186, 187, -1,
      162, 187, 164, -1,
      164, 187, 188, -1,
      164, 188, 167, -1,
      167, 188, 87, -1,
      167, 87, 85, -1,
      36, 39, 190, -1,
      190, 39, 123, -1,
      190, 123, 191, -1,
      191, 123, 145, -1,
      191, 145, 192, -1,
      192, 145, 144, -1,
      192, 144, 193, -1,
      193, 144, 143, -1,
      193, 143, 194, -1,
      194, 143, 142, -1,
      194, 142, 195, -1,
      195, 142, 132, -1,
      195, 132, 196, -1,
      196, 132, 131, -1,
      196, 131, 197, -1,
      197, 131, 130, -1,
      197, 130, 198, -1,
      198, 130, 129, -1,
      198, 129, 199, -1,
      129, 124, 199, -1,
      199, 124, 1, -1,
      199, 1, 0, -1,
      200, 201, 111, -1,
      111, 201, 202, -1,
      111, 202, 16, -1,
      16, 202, 203, -1,
      16, 203, 15, -1,
      111, 110, 200, -1,
      200, 110, 112, -1,
      200, 112, 204, -1,
      204, 112, 114, -1,
      122, 39, 41, -1,
      114, 116, 204, -1,
      204, 116, 118, -1,
      204, 118, 205, -1,
      205, 118, 119, -1,
      205, 119, 206, -1,
      206, 119, 121, -1,
      206, 121, 207, -1,
      207, 121, 122, -1,
      207, 122, 208, -1,
      208, 122, 41, -1,
      209, 210, 158, -1,
      158, 210, 211, -1,
      158, 211, 30, -1,
      30, 211, 212, -1,
      30, 212, 31, -1,
      158, 157, 209, -1,
      209, 157, 159, -1,
      209, 159, 213, -1,
      213, 159, 161, -1,
      169, 18, 29, -1,
      161, 163, 213, -1,
      213, 163, 165, -1,
      213, 165, 214, -1,
      214, 165, 166, -1,
      214, 166, 215, -1,
      215, 166, 168, -1,
      215, 168, 216, -1,
      216, 168, 169, -1,
      216, 169, 217, -1,
      217, 169, 29, -1,
      30, 33, 189, -1,
      189, 33, 218, -1,
      189, 218, 182, -1,
      182, 218, 219, -1,
      182, 219, 183, -1,
      183, 219, 220, -1,
      183, 220, 146, -1,
      146, 220, 221, -1,
      146, 221, 147, -1,
      147, 221, 222, -1,
      147, 222, 170, -1,
      170, 222, 223, -1,
      170, 223, 171, -1,
      171, 223, 224, -1,
      171, 224, 172, -1,
      172, 224, 225, -1,
      172, 225, 173, -1,
      173, 225, 226, -1,
      173, 226, 155, -1,
      226, 227, 155, -1,
      155, 227, 5, -1,
      155, 5, 4, -1,
      228, 0, 2, -1,
      7, 5, 229, -1,
      229, 5, 230, -1,
      229, 230, 231, -1,
      46, 48, 232, -1,
      232, 48, 233, -1,
      232, 233, 234, -1,
      234, 233, 235, -1,
      234, 235, 236, -1,
      236, 235, 237, -1,
      236, 237, 238, -1,
      238, 237, 239, -1,
      238, 239, 240, -1,
      240, 239, 241, -1,
      240, 241, 242, -1,
      242, 241, 243, -1,
      242, 243, 244, -1,
      244, 243, 245, -1,
      244, 245, 246, -1,
      246, 245, 247, -1,
      246, 247, 248, -1,
      248, 247, 249, -1,
      248, 249, 230, -1,
      230, 249, 228, -1,
      230, 228, 231, -1,
      231, 228, 2, -1,
      193, 194, 250, -1,
      251, 252, 253, -1,
      0, 254, 255, -1,
      256, 254, 0, -1,
      253, 252, 0, -1,
      199, 0, 252, -1,
      257, 258, 259, -1,
      258, 257, 260, -1,
      260, 257, 261, -1,
      260, 261, 262, -1,
      262, 261, 263, -1,
      262, 263, 264, -1,
      264, 263, 265, -1,
      264, 265, 266, -1,
      266, 265, 267, -1,
      267, 265, 268, -1,
      267, 268, 269, -1,
      269, 268, 270, -1,
      270, 268, 233, -1,
      270, 233, 48, -1,
      228, 256, 0, -1,
      195, 196, 251, -1,
      251, 196, 197, -1,
      251, 197, 252, -1,
      252, 197, 198, -1,
      252, 198, 199, -1,
      271, 255, 272, -1,
      272, 255, 254, -1,
      272, 254, 273, -1,
      273, 254, 256, -1,
      273, 256, 274, -1,
      228, 249, 256, -1,
      256, 249, 247, -1,
      256, 247, 274, -1,
      274, 247, 245, -1,
      274, 245, 243, -1,
      250, 271, 275, -1,
      275, 271, 272, -1,
      275, 272, 276, -1,
      276, 272, 273, -1,
      276, 273, 277, -1,
      277, 273, 274, -1,
      277, 274, 278, -1,
      278, 274, 243, -1,
      191, 192, 279, -1,
      279, 192, 193, -1,
      193, 250, 279, -1,
      279, 250, 275, -1,
      279, 275, 280, -1,
      280, 275, 276, -1,
      280, 276, 281, -1,
      281, 276, 277, -1,
      281, 277, 282, -1,
      282, 277, 278, -1,
      282, 278, 283, -1,
      194, 195, 250, -1,
      250, 195, 251, -1,
      250, 251, 271, -1,
      271, 251, 253, -1,
      271, 253, 255, -1,
      255, 253, 0, -1,
      191, 257, 190, -1,
      190, 257, 259, -1,
      190, 259, 36, -1,
      243, 241, 278, -1,
      278, 241, 239, -1,
      278, 239, 283, -1,
      283, 239, 237, -1,
      283, 237, 235, -1,
      191, 279, 257, -1,
      257, 279, 280, -1,
      257, 280, 261, -1,
      261, 280, 281, -1,
      261, 281, 263, -1,
      263, 281, 282, -1,
      263, 282, 265, -1,
      265, 282, 283, -1,
      265, 283, 268, -1,
      268, 283, 235, -1,
      268, 235, 233, -1,
      40, 69, 284, -1,
      284, 69, 285, -1,
      284, 285, 208, -1,
      208, 285, 207, -1,
      207, 285, 286, -1,
      207, 286, 206, -1,
      206, 286, 287, -1,
      206, 287, 205, -1,
      205, 287, 288, -1,
      205, 288, 204, -1,
      204, 288, 289, -1,
      204, 289, 200, -1,
      200, 289, 290, -1,
      200, 290, 201, -1,
      201, 290, 291, -1,
      201, 291, 202, -1,
      202, 291, 292, -1,
      202, 292, 203, -1,
      203, 292, 293, -1,
      203, 293, 294, -1,
      294, 293, 76, -1,
      294, 76, 12, -1,
      77, 76, 295, -1,
      295, 76, 296, -1,
      295, 296, 297, -1,
      297, 296, 298, -1,
      297, 298, 299, -1,
      299, 298, 300, -1,
      299, 300, 301, -1,
      301, 300, 302, -1,
      301, 302, 303, -1,
      303, 302, 304, -1,
      303, 304, 305, -1,
      305, 304, 306, -1,
      305, 306, 307, -1,
      307, 306, 308, -1,
      307, 308, 309, -1,
      309, 308, 310, -1,
      309, 310, 311, -1,
      311, 310, 312, -1,
      311, 312, 313, -1,
      312, 314, 313, -1,
      313, 314, 11, -1,
      313, 11, 9, -1,
      28, 77, 315, -1,
      315, 77, 316, -1,
      315, 316, 217, -1,
      217, 316, 216, -1,
      216, 316, 317, -1,
      216, 317, 215, -1,
      215, 317, 318, -1,
      215, 318, 214, -1,
      214, 318, 319, -1,
      214, 319, 213, -1,
      213, 319, 320, -1,
      213, 320, 209, -1,
      209, 320, 321, -1,
      209, 321, 210, -1,
      210, 321, 322, -1,
      210, 322, 211, -1,
      211, 322, 323, -1,
      211, 323, 212, -1,
      212, 323, 324, -1,
      212, 324, 325, -1,
      325, 324, 70, -1,
      325, 70, 32, -1,
      238, 240, 326, -1,
      327, 328, 329, -1,
      5, 330, 331, -1,
      332, 330, 5, -1,
      329, 328, 5, -1,
      230, 5, 328, -1,
      333, 334, 335, -1,
      334, 333, 336, -1,
      336, 333, 337, -1,
      336, 337, 338, -1,
      338, 337, 339, -1,
      338, 339, 340, -1,
      340, 339, 341, -1,
      340, 341, 342, -1,
      342, 341, 343, -1,
      343, 341, 344, -1,
      343, 344, 345, -1,
      345, 344, 346, -1,
      346, 344, 218, -1,
      346, 218, 33, -1,
      227, 332, 5, -1,
      242, 244, 327, -1,
      327, 244, 246, -1,
      327, 246, 328, -1,
      328, 246, 248, -1,
      328, 248, 230, -1,
      347, 331, 348, -1,
      348, 331, 330, -1,
      348, 330, 349, -1,
      349, 330, 332, -1,
      349, 332, 350, -1,
      227, 226, 332, -1,
      332, 226, 225, -1,
      332, 225, 350, -1,
      350, 225, 224, -1,
      350, 224, 223, -1,
      326, 347, 351, -1,
      351, 347, 348, -1,
      351, 348, 352, -1,
      352, 348, 349, -1,
      352, 349, 353, -1,
      353, 349, 350, -1,
      353, 350, 354, -1,
      354, 350, 223, -1,
      234, 236, 355, -1,
      355, 236, 238, -1,
      238, 326, 355, -1,
      355, 326, 351, -1,
      355, 351, 356, -1,
      356, 351, 352, -1,
      356, 352, 357, -1,
      357, 352, 353, -1,
      357, 353, 358, -1,
      358, 353, 354, -1,
      358, 354, 359, -1,
      240, 242, 326, -1,
      326, 242, 327, -1,
      326, 327, 347, -1,
      347, 327, 329, -1,
      347, 329, 331, -1,
      331, 329, 5, -1,
      234, 333, 232, -1,
      232, 333, 335, -1,
      232, 335, 46, -1,
      223, 222, 354, -1,
      354, 222, 221, -1,
      354, 221, 359, -1,
      359, 221, 220, -1,
      359, 220, 219, -1,
      234, 355, 333, -1,
      333, 355, 356, -1,
      333, 356, 337, -1,
      337, 356, 357, -1,
      337, 357, 339, -1,
      339, 357, 358, -1,
      339, 358, 341, -1,
      341, 358, 359, -1,
      341, 359, 344, -1,
      344, 359, 219, -1,
      344, 219, 218, -1,
      360, 361, 259, -1,
      259, 361, 362, -1,
      259, 362, 36, -1,
      36, 362, 363, -1,
      36, 363, 37, -1,
      259, 258, 360, -1,
      360, 258, 260, -1,
      360, 260, 364, -1,
      364, 260, 262, -1,
      270, 48, 59, -1,
      262, 264, 364, -1,
      364, 264, 266, -1,
      364, 266, 365, -1,
      365, 266, 267, -1,
      365, 267, 366, -1,
      366, 267, 269, -1,
      366, 269, 367, -1,
      367, 269, 270, -1,
      367, 270, 368, -1,
      368, 270, 59, -1,
      369, 370, 371, -1,
      372, 373, 374, -1,
      11, 375, 376, -1,
      377, 375, 11, -1,
      374, 373, 11, -1,
      378, 11, 373, -1,
      379, 286, 285, -1,
      286, 379, 287, -1,
      287, 379, 380, -1,
      287, 380, 288, -1,
      288, 380, 381, -1,
      288, 381, 289, -1,
      289, 381, 382, -1,
      289, 382, 290, -1,
      290, 382, 291, -1,
      291, 382, 383, -1,
      291, 383, 292, -1,
      292, 383, 293, -1,
      293, 383, 296, -1,
      293, 296, 76, -1,
      314, 377, 11, -1,
      384, 385, 372, -1,
      372, 385, 386, -1,
      372, 386, 373, -1,
      373, 386, 387, -1,
      373, 387, 378, -1,
      388, 376, 389, -1,
      389, 376, 375, -1,
      389, 375, 390, -1,
      390, 375, 377, -1,
      390, 377, 391, -1,
      314, 312, 377, -1,
      377, 312, 310, -1,
      377, 310, 391, -1,
      391, 310, 308, -1,
      391, 308, 306, -1,
      371, 388, 392, -1,
      392, 388, 389, -1,
      392, 389, 393, -1,
      393, 389, 390, -1,
      393, 390, 394, -1,
      394, 390, 391, -1,
      394, 391, 395, -1,
      395, 391, 306, -1,
      396, 397, 398, -1,
      398, 397, 369, -1,
      369, 371, 398, -1,
      398, 371, 392, -1,
      398, 392, 399, -1,
      399, 392, 393, -1,
      399, 393, 400, -1,
      400, 393, 394, -1,
      400, 394, 401, -1,
      401, 394, 395, -1,
      401, 395, 402, -1,
      370, 384, 371, -1,
      371, 384, 372, -1,
      371, 372, 388, -1,
      388, 372, 374, -1,
      388, 374, 376, -1,
      376, 374, 11, -1,
      396, 379, 403, -1,
      403, 379, 285, -1,
      403, 285, 69, -1,
      306, 304, 395, -1,
      395, 304, 302, -1,
      395, 302, 402, -1,
      402, 302, 300, -1,
      402, 300, 298, -1,
      396, 398, 379, -1,
      379, 398, 399, -1,
      379, 399, 380, -1,
      380, 399, 400, -1,
      380, 400, 381, -1,
      381, 400, 401, -1,
      381, 401, 382, -1,
      382, 401, 402, -1,
      382, 402, 383, -1,
      383, 402, 298, -1,
      383, 298, 296, -1,
      301, 303, 404, -1,
      405, 406, 407, -1,
      9, 408, 409, -1,
      410, 408, 9, -1,
      407, 406, 9, -1,
      313, 9, 406, -1,
      411, 317, 316, -1,
      317, 411, 318, -1,
      318, 411, 412, -1,
      318, 412, 319, -1,
      319, 412, 413, -1,
      319, 413, 320, -1,
      320, 413, 414, -1,
      320, 414, 321, -1,
      321, 414, 322, -1,
      322, 414, 415, -1,
      322, 415, 323, -1,
      323, 415, 324, -1,
      324, 415, 416, -1,
      324, 416, 70, -1,
      417, 410, 9, -1,
      305, 307, 405, -1,
      405, 307, 309, -1,
      405, 309, 406, -1,
      406, 309, 311, -1,
      406, 311, 313, -1,
      418, 409, 419, -1,
      419, 409, 408, -1,
      419, 408, 420, -1,
      420, 408, 410, -1,
      420, 410, 421, -1,
      417, 422, 410, -1,
      410, 422, 423, -1,
      410, 423, 421, -1,
      421, 423, 424, -1,
      421, 424, 425, -1,
      404, 418, 426, -1,
      426, 418, 419, -1,
      426, 419, 427, -1,
      427, 419, 420, -1,
      427, 420, 428, -1,
      428, 420, 421, -1,
      428, 421, 429, -1,
      429, 421, 425, -1,
      297, 299, 430, -1,
      430, 299, 301, -1,
      301, 404, 430, -1,
      430, 404, 426, -1,
      430, 426, 431, -1,
      431, 426, 427, -1,
      431, 427, 432, -1,
      432, 427, 428, -1,
      432, 428, 433, -1,
      433, 428, 429, -1,
      433, 429, 434, -1,
      303, 305, 404, -1,
      404, 305, 405, -1,
      404, 405, 418, -1,
      418, 405, 407, -1,
      418, 407, 409, -1,
      409, 407, 9, -1,
      297, 411, 295, -1,
      295, 411, 316, -1,
      295, 316, 77, -1,
      425, 435, 429, -1,
      429, 435, 436, -1,
      429, 436, 434, -1,
      434, 436, 437, -1,
      434, 437, 438, -1,
      297, 430, 411, -1,
      411, 430, 431, -1,
      411, 431, 412, -1,
      412, 431, 432, -1,
      412, 432, 413, -1,
      413, 432, 433, -1,
      413, 433, 414, -1,
      414, 433, 434, -1,
      414, 434, 415, -1,
      415, 434, 438, -1,
      415, 438, 416, -1,
      439, 440, 335, -1,
      335, 440, 441, -1,
      335, 441, 46, -1,
      46, 441, 442, -1,
      46, 442, 45, -1,
      335, 334, 439, -1,
      439, 334, 336, -1,
      439, 336, 443, -1,
      443, 336, 338, -1,
      346, 33, 35, -1,
      338, 340, 443, -1,
      443, 340, 342, -1,
      443, 342, 444, -1,
      444, 342, 343, -1,
      444, 343, 445, -1,
      445, 343, 345, -1,
      445, 345, 446, -1,
      446, 345, 346, -1,
      446, 346, 447, -1,
      447, 346, 35, -1,
      58, 65, 448, -1,
      448, 65, 449, -1,
      448, 449, 368, -1,
      368, 449, 367, -1,
      367, 449, 450, -1,
      367, 450, 366, -1,
      366, 450, 451, -1,
      366, 451, 365, -1,
      365, 451, 452, -1,
      365, 452, 364, -1,
      364, 452, 453, -1,
      364, 453, 360, -1,
      360, 453, 454, -1,
      360, 454, 361, -1,
      361, 454, 455, -1,
      361, 455, 362, -1,
      362, 455, 456, -1,
      362, 456, 363, -1,
      363, 456, 457, -1,
      363, 457, 458, -1,
      458, 457, 68, -1,
      458, 68, 38, -1,
      69, 68, 403, -1,
      403, 68, 459, -1,
      403, 459, 396, -1,
      396, 459, 460, -1,
      396, 460, 397, -1,
      397, 460, 461, -1,
      397, 461, 369, -1,
      369, 461, 462, -1,
      369, 462, 370, -1,
      370, 462, 463, -1,
      370, 463, 384, -1,
      384, 463, 464, -1,
      384, 464, 385, -1,
      385, 464, 465, -1,
      385, 465, 386, -1,
      386, 465, 466, -1,
      386, 466, 387, -1,
      387, 466, 467, -1,
      387, 467, 378, -1,
      467, 468, 378, -1,
      378, 468, 10, -1,
      378, 10, 11, -1,
      71, 70, 469, -1,
      469, 70, 416, -1,
      469, 416, 470, -1,
      470, 416, 438, -1,
      470, 438, 471, -1,
      471, 438, 437, -1,
      471, 437, 472, -1,
      472, 437, 436, -1,
      472, 436, 473, -1,
      473, 436, 435, -1,
      473, 435, 474, -1,
      474, 435, 425, -1,
      474, 425, 475, -1,
      475, 425, 424, -1,
      475, 424, 476, -1,
      476, 424, 423, -1,
      476, 423, 477, -1,
      477, 423, 422, -1,
      477, 422, 478, -1,
      422, 417, 478, -1,
      478, 417, 9, -1,
      478, 9, 8, -1,
      34, 71, 479, -1,
      479, 71, 480, -1,
      479, 480, 447, -1,
      447, 480, 446, -1,
      446, 480, 481, -1,
      446, 481, 445, -1,
      445, 481, 482, -1,
      445, 482, 444, -1,
      444, 482, 483, -1,
      444, 483, 443, -1,
      443, 483, 484, -1,
      443, 484, 439, -1,
      439, 484, 485, -1,
      439, 485, 440, -1,
      440, 485, 486, -1,
      440, 486, 441, -1,
      441, 486, 487, -1,
      441, 487, 442, -1,
      442, 487, 488, -1,
      442, 488, 489, -1,
      489, 488, 64, -1,
      489, 64, 42, -1,
      490, 491, 492, -1,
      493, 494, 495, -1,
      10, 496, 497, -1,
      498, 496, 10, -1,
      495, 494, 10, -1,
      499, 10, 494, -1,
      500, 450, 449, -1,
      450, 500, 451, -1,
      451, 500, 501, -1,
      451, 501, 452, -1,
      452, 501, 502, -1,
      452, 502, 453, -1,
      453, 502, 503, -1,
      453, 503, 454, -1,
      454, 503, 455, -1,
      455, 503, 504, -1,
      455, 504, 456, -1,
      456, 504, 457, -1,
      457, 504, 459, -1,
      457, 459, 68, -1,
      468, 498, 10, -1,
      505, 506, 493, -1,
      493, 506, 507, -1,
      493, 507, 494, -1,
      494, 507, 508, -1,
      494, 508, 499, -1,
      509, 497, 510, -1,
      510, 497, 496, -1,
      510, 496, 511, -1,
      511, 496, 498, -1,
      511, 498, 512, -1,
      468, 467, 498, -1,
      498, 467, 466, -1,
      498, 466, 512, -1,
      512, 466, 465, -1,
      512, 465, 464, -1,
      492, 509, 513, -1,
      513, 509, 510, -1,
      513, 510, 514, -1,
      514, 510, 511, -1,
      514, 511, 515, -1,
      515, 511, 512, -1,
      515, 512, 516, -1,
      516, 512, 464, -1,
      517, 518, 519, -1,
      519, 518, 490, -1,
      490, 492, 519, -1,
      519, 492, 513, -1,
      519, 513, 520, -1,
      520, 513, 514, -1,
      520, 514, 521, -1,
      521, 514, 515, -1,
      521, 515, 522, -1,
      522, 515, 516, -1,
      522, 516, 523, -1,
      491, 505, 492, -1,
      492, 505, 493, -1,
      492, 493, 509, -1,
      509, 493, 495, -1,
      509, 495, 497, -1,
      497, 495, 10, -1,
      517, 500, 524, -1,
      524, 500, 449, -1,
      524, 449, 65, -1,
      464, 463, 516, -1,
      516, 463, 462, -1,
      516, 462, 523, -1,
      523, 462, 461, -1,
      523, 461, 460, -1,
      517, 519, 500, -1,
      500, 519, 520, -1,
      500, 520, 501, -1,
      501, 520, 521, -1,
      501, 521, 502, -1,
      502, 521, 522, -1,
      502, 522, 503, -1,
      503, 522, 523, -1,
      503, 523, 504, -1,
      504, 523, 460, -1,
      504, 460, 459, -1,
      472, 473, 525, -1,
      526, 527, 528, -1,
      8, 529, 530, -1,
      531, 529, 8, -1,
      528, 527, 8, -1,
      478, 8, 527, -1,
      532, 481, 480, -1,
      481, 532, 482, -1,
      482, 532, 533, -1,
      482, 533, 483, -1,
      483, 533, 534, -1,
      483, 534, 484, -1,
      484, 534, 535, -1,
      484, 535, 485, -1,
      485, 535, 486, -1,
      486, 535, 536, -1,
      486, 536, 487, -1,
      487, 536, 488, -1,
      488, 536, 537, -1,
      488, 537, 64, -1,
      538, 531, 8, -1,
      474, 475, 526, -1,
      526, 475, 476, -1,
      526, 476, 527, -1,
      527, 476, 477, -1,
      527, 477, 478, -1,
      539, 530, 540, -1,
      540, 530, 529, -1,
      540, 529, 541, -1,
      541, 529, 531, -1,
      541, 531, 542, -1,
      538, 543, 531, -1,
      531, 543, 544, -1,
      531, 544, 542, -1,
      542, 544, 545, -1,
      542, 545, 546, -1,
      525, 539, 547, -1,
      547, 539, 540, -1,
      547, 540, 548, -1,
      548, 540, 541, -1,
      548, 541, 549, -1,
      549, 541, 542, -1,
      549, 542, 550, -1,
      550, 542, 546, -1,
      470, 471, 551, -1,
      551, 471, 472, -1,
      472, 525, 551, -1,
      551, 525, 547, -1,
      551, 547, 552, -1,
      552, 547, 548, -1,
      552, 548, 553, -1,
      553, 548, 549, -1,
      553, 549, 554, -1,
      554, 549, 550, -1,
      554, 550, 555, -1,
      473, 474, 525, -1,
      525, 474, 526, -1,
      525, 526, 539, -1,
      539, 526, 528, -1,
      539, 528, 530, -1,
      530, 528, 8, -1,
      470, 532, 469, -1,
      469, 532, 480, -1,
      469, 480, 71, -1,
      546, 556, 550, -1,
      550, 556, 557, -1,
      550, 557, 555, -1,
      555, 557, 558, -1,
      555, 558, 559, -1,
      470, 551, 532, -1,
      532, 551, 552, -1,
      532, 552, 533, -1,
      533, 552, 553, -1,
      533, 553, 534, -1,
      534, 553, 554, -1,
      534, 554, 535, -1,
      535, 554, 555, -1,
      535, 555, 536, -1,
      536, 555, 559, -1,
      536, 559, 537, -1,
      65, 64, 524, -1,
      524, 64, 537, -1,
      524, 537, 517, -1,
      517, 537, 559, -1,
      517, 559, 518, -1,
      518, 559, 558, -1,
      518, 558, 490, -1,
      490, 558, 557, -1,
      490, 557, 491, -1,
      491, 557, 556, -1,
      491, 556, 505, -1,
      505, 556, 546, -1,
      505, 546, 506, -1,
      506, 546, 545, -1,
      506, 545, 507, -1,
      507, 545, 544, -1,
      507, 544, 508, -1,
      508, 544, 543, -1,
      508, 543, 499, -1,
      543, 538, 499, -1,
      499, 538, 8, -1,
      499, 8, 10, -1,
    ]
  }
}

Shape {
  appearance Appearance {
    material Material {
      diffuseColor 0.4392 0.4392 0.4392
      specularColor 0.2196 0.2196 0.2196
      ambientIntensity 0.2
      transparency 0.0000
      shininess 0.5
    }
  }
  geometry IndexedFaceSet {
    ccw TRUE
    solid FALSE
    coord DEF co Coordinate {
      point [
        -0.228197 -0.212352 0.433071,
        -0.228197 0.212352 0.433071,
        -0.310865 0.212352 0.433071,
        -0.310865 -0.212352 0.433071,
        -0.310865 0.213596 0.433031,
        -0.228197 0.213596 0.433031,
        -0.310865 -0.213596 0.433031,
        -0.228197 -0.213596 0.433031,
      ]
    }
    coordIndex [
      5, 7, 1, -1,
      1, 7, 0, -1,
      3, 6, 2, -1,
      2, 6, 4, -1,
      6, 7, 4, -1,
      4, 7, 5, -1,
    ]
  }
}

Shape {
  appearance Appearance {
    material Material {
      diffuseColor 0.8510 0.8510 0.8510
      specularColor 0.4235 0.4235 0.4235
      ambientIntensity 0.2
      transparency 0.0000
      shininess 0.5
    }
  }
  geometry IndexedFaceSet {
    ccw TRUE
    solid FALSE
    coord DEF co Coordinate {
      point [
        0.300197 0.246063 0.314961,
        0.300197 0.241913 0.344488,
        0.211614 0.241913 0.344488,
        -0.044291 0.241913 0.344488,
        -0.044291 0.246063 0.314961,
        -0.211614 0.246063 0.314961,
        -0.211614 0.241913 0.344488,
        -0.300197 0.241913 0.344488,
        0.044291 0.241913 0.344488,
        0.044291 0.246063 0.314961,
        0.211614 0.246063 0.314961,
        -0.300197 0.246063 0.314961,
        -0.300197 -0.246063 0.314961,
        -0.300197 -0.241913 0.344488,
        -0.211614 -0.241913 0.344488,
        0.044291 -0.241913 0.344488,
        0.044291 -0.246063 0.314961,
        0.211614 -0.246063 0.314961,
        0.211614 -0.241913 0.344488,
        0.300197 -0.241913 0.344488,
        -0.044291 -0.241913 0.344488,
        -0.044291 -0.246063 0.314961,
        -0.211614 -0.246063 0.314961,
        0.300197 -0.246063 0.314961,
        0.300197 -0.243480 0.285433,
        0.211614 -0.243480 0.285433,
        0.044291 -0.243480 0.285433,
        -0.044291 -0.243480 0.285433,
        -0.300197 -0.243480 0.285433,
        -0.211614 -0.243480 0.285433,
        -0.300197 0.243480 0.285433,
        -0.211614 0.243480 0.285433,
        -0.044291 0.243480 0.285433,
        0.044291 0.243480 0.285433,
        0.300197 0.243480 0.285433,
        0.211614 0.243480 0.285433,
        -0.211614 -0.413386 0.059055,
        -0.211614 -0.324803 0.059055,
        -0.300197 -0.413386 0.059055,
        -0.300197 -0.324803 0.059055,
        -0.211614 -0.413386 -0.000000,
        -0.300197 -0.413386 -0.000000,
        -0.211614 -0.324803 -0.000000,
        -0.300197 -0.324803 -0.000000,
        -0.300197 -0.306971 0.002348,
        -0.211614 -0.306971 0.002348,
        -0.300197 -0.290354 0.009231,
        -0.211614 -0.290354 0.009231,
        -0.300197 -0.276085 0.020180,
        -0.211614 -0.276085 0.020180,
        -0.300197 -0.265136 0.034449,
        -0.211614 -0.265136 0.034449,
        -0.300197 -0.258253 0.051066,
        -0.211614 -0.258253 0.051066,
        -0.300197 -0.255906 0.068898,
        -0.211614 -0.255906 0.068898,
        -0.211614 -0.255906 0.275591,
        -0.300197 -0.255906 0.275591,
        -0.211614 -0.255570 0.278138,
        -0.300197 -0.255570 0.278138,
        -0.211614 -0.254587 0.280512,
        -0.300197 -0.254587 0.280512,
        -0.211614 -0.253023 0.282550,
        -0.300197 -0.253023 0.282550,
        -0.211614 -0.250984 0.284115,
        -0.300197 -0.250984 0.284115,
        -0.211614 -0.248610 0.285098,
        -0.300197 -0.248610 0.285098,
        -0.211614 -0.246063 0.285433,
        -0.300197 -0.246063 0.285433,
        -0.300197 -0.246063 0.344488,
        -0.211614 -0.246063 0.344488,
        -0.300197 -0.263895 0.342141,
        -0.211614 -0.263895 0.342141,
        -0.300197 -0.280512 0.335257,
        -0.211614 -0.280512 0.335257,
        -0.300197 -0.294781 0.324309,
        -0.211614 -0.294781 0.324309,
        -0.300197 -0.305730 0.310039,
        -0.211614 -0.305730 0.310039,
        -0.300197 -0.312613 0.293422,
        -0.211614 -0.312613 0.293422,
        -0.300197 -0.314961 0.275591,
        -0.211614 -0.314961 0.275591,
        -0.211614 -0.314961 0.068898,
        -0.300197 -0.314961 0.068898,
        -0.211614 -0.315296 0.066350,
        -0.300197 -0.315296 0.066350,
        -0.211614 -0.316279 0.063976,
        -0.300197 -0.316279 0.063976,
        -0.211614 -0.317843 0.061938,
        -0.300197 -0.317843 0.061938,
        -0.211614 -0.319882 0.060374,
        -0.300197 -0.319882 0.060374,
        -0.211614 -0.322256 0.059391,
        -0.300197 -0.322256 0.059391,
        -0.211614 0.324803 0.059055,
        -0.211614 0.413386 0.059055,
        -0.300197 0.324803 0.059055,
        -0.300197 0.413386 0.059055,
        -0.211614 0.322256 0.059391,
        -0.300197 0.322256 0.059391,
        -0.211614 0.319882 0.060374,
        -0.300197 0.319882 0.060374,
        -0.211614 0.317843 0.061938,
        -0.300197 0.317843 0.061938,
        -0.211614 0.316279 0.063976,
        -0.300197 0.316279 0.063976,
        -0.211614 0.315296 0.066350,
        -0.300197 0.315296 0.066350,
        -0.211614 0.314961 0.068898,
        -0.300197 0.314961 0.068898,
        -0.211614 0.314961 0.275591,
        -0.300197 0.314961 0.275591,
        -0.300197 0.312613 0.293422,
        -0.211614 0.312613 0.293422,
        -0.300197 0.305730 0.310039,
        -0.211614 0.305730 0.310039,
        -0.300197 0.294781 0.324309,
        -0.211614 0.294781 0.324309,
        -0.300197 0.280512 0.335257,
        -0.211614 0.280512 0.335257,
        -0.300197 0.263895 0.342141,
        -0.211614 0.263895 0.342141,
        -0.300197 0.246063 0.344488,
        -0.211614 0.246063 0.344488,
        -0.300197 0.246063 0.285433,
        -0.211614 0.246063 0.285433,
        -0.211614 0.248610 0.285098,
        -0.300197 0.248610 0.285098,
        -0.211614 0.250984 0.284115,
        -0.300197 0.250984 0.284115,
        -0.211614 0.253023 0.282550,
        -0.300197 0.253023 0.282550,
        -0.211614 0.254587 0.280512,
        -0.300197 0.254587 0.280512,
        -0.211614 0.255570 0.278138,
        -0.300197 0.255570 0.278138,
        -0.211614 0.255906 0.275591,
        -0.300197 0.255906 0.275591,
        -0.211614 0.255906 0.068898,
        -0.300197 0.255906 0.068898,
        -0.300197 0.258253 0.051066,
        -0.211614 0.258253 0.051066,
        -0.300197 0.265136 0.034449,
        -0.211614 0.265136 0.034449,
        -0.300197 0.276085 0.020180,
        -0.211614 0.276085 0.020180,
        -0.300197 0.290354 0.009231,
        -0.211614 0.290354 0.009231,
        -0.300197 0.306971 0.002348,
        -0.211614 0.306971 0.002348,
        -0.300197 0.324803 -0.000000,
        -0.211614 0.324803 -0.000000,
        -0.211614 0.413386 -0.000000,
        -0.300197 0.413386 -0.000000,
        0.044291 0.324803 0.059055,
        0.044291 0.413386 0.059055,
        -0.044291 0.324803 0.059055,
        -0.044291 0.413386 0.059055,
        0.044291 0.322256 0.059391,
        -0.044291 0.322256 0.059391,
        0.044291 0.319882 0.060374,
        -0.044291 0.319882 0.060374,
        0.044291 0.317843 0.061938,
        -0.044291 0.317843 0.061938,
        0.044291 0.316279 0.063976,
        -0.044291 0.316279 0.063976,
        0.044291 0.315296 0.066350,
        -0.044291 0.315296 0.066350,
        0.044291 0.314961 0.068898,
        -0.044291 0.314961 0.068898,
        0.044291 0.314961 0.275591,
        -0.044291 0.314961 0.275591,
        -0.044291 0.312613 0.293422,
        0.044291 0.312613 0.293422,
        -0.044291 0.305730 0.310039,
        0.044291 0.305730 0.310039,
        -0.044291 0.294781 0.324309,
        0.044291 0.294781 0.324309,
        -0.044291 0.280512 0.335257,
        0.044291 0.280512 0.335257,
        -0.044291 0.263895 0.342141,
        0.044291 0.263895 0.342141,
        -0.044291 0.246063 0.344488,
        0.044291 0.246063 0.344488,
        -0.044291 0.246063 0.285433,
        0.044291 0.246063 0.285433,
        0.044291 0.248610 0.285098,
        -0.044291 0.248610 0.285098,
        0.044291 0.250984 0.284115,
        -0.044291 0.250984 0.284115,
        0.044291 0.253023 0.282550,
        -0.044291 0.253023 0.282550,
        0.044291 0.254587 0.280512,
        -0.044291 0.254587 0.280512,
        0.044291 0.255570 0.278138,
        -0.044291 0.255570 0.278138,
        0.044291 0.255906 0.275591,
        -0.044291 0.255906 0.275591,
        0.044291 0.255906 0.068898,
        -0.044291 0.255906 0.068898,
        -0.044291 0.258253 0.051066,
        0.044291 0.258253 0.051066,
        -0.044291 0.265136 0.034449,
        0.044291 0.265136 0.034449,
        -0.044291 0.276085 0.020180,
        0.044291 0.276085 0.020180,
        -0.044291 0.290354 0.009231,
        0.044291 0.290354 0.009231,
        -0.044291 0.306971 0.002348,
        0.044291 0.306971 0.002348,
        -0.044291 0.324803 -0.000000,
        0.044291 0.324803 -0.000000,
        0.044291 0.413386 -0.000000,
        -0.044291 0.413386 -0.000000,
        0.300197 0.324803 0.059055,
        0.300197 0.413386 0.059055,
        0.211614 0.324803 0.059055,
        0.211614 0.413386 0.059055,
        0.300197 0.322256 0.059391,
        0.211614 0.322256 0.059391,
        0.300197 0.319882 0.060374,
        0.211614 0.319882 0.060374,
        0.300197 0.317843 0.061938,
        0.211614 0.317843 0.061938,
        0.300197 0.316279 0.063976,
        0.211614 0.316279 0.063976,
        0.300197 0.315296 0.066350,
        0.211614 0.315296 0.066350,
        0.300197 0.314961 0.068898,
        0.211614 0.314961 0.068898,
        0.300197 0.314961 0.275591,
        0.211614 0.314961 0.275591,
        0.211614 0.312613 0.293422,
        0.300197 0.312613 0.293422,
        0.211614 0.305730 0.310039,
        0.300197 0.305730 0.310039,
        0.211614 0.294781 0.324309,
        0.300197 0.294781 0.324309,
        0.211614 0.280512 0.335257,
        0.300197 0.280512 0.335257,
        0.211614 0.263895 0.342141,
        0.300197 0.263895 0.342141,
        0.211614 0.246063 0.344488,
        0.300197 0.246063 0.344488,
        0.211614 0.246063 0.285433,
        0.300197 0.246063 0.285433,
        0.300197 0.248610 0.285098,
        0.211614 0.248610 0.285098,
        0.300197 0.250984 0.284115,
        0.211614 0.250984 0.284115,
        0.300197 0.253023 0.282550,
        0.211614 0.253023 0.282550,
        0.300197 0.254587 0.280512,
        0.211614 0.254587 0.280512,
        0.300197 0.255570 0.278138,
        0.211614 0.255570 0.278138,
        0.300197 0.255906 0.275591,
        0.211614 0.255906 0.275591,
        0.300197 0.255906 0.068898,
        0.211614 0.255906 0.068898,
        0.211614 0.258253 0.051066,
        0.300197 0.258253 0.051066,
        0.211614 0.265136 0.034449,
        0.300197 0.265136 0.034449,
        0.211614 0.276085 0.020180,
        0.300197 0.276085 0.020180,
        0.211614 0.290354 0.009231,
        0.300197 0.290354 0.009231,
        0.211614 0.306971 0.002348,
        0.300197 0.306971 0.002348,
        0.211614 0.324803 -0.000000,
        0.300197 0.324803 -0.000000,
        0.300197 0.413386 -0.000000,
        0.211614 0.413386 -0.000000,
        0.044291 -0.413386 0.059055,
        0.044291 -0.324803 0.059055,
        -0.044291 -0.413386 0.059055,
        -0.044291 -0.324803 0.059055,
        0.044291 -0.413386 -0.000000,
        -0.044291 -0.413386 -0.000000,
        0.044291 -0.324803 -0.000000,
        -0.044291 -0.324803 -0.000000,
        -0.044291 -0.306971 0.002348,
        0.044291 -0.306971 0.002348,
        -0.044291 -0.290354 0.009231,
        0.044291 -0.290354 0.009231,
        -0.044291 -0.276085 0.020180,
        0.044291 -0.276085 0.020180,
        -0.044291 -0.265136 0.034449,
        0.044291 -0.265136 0.034449,
        -0.044291 -0.258253 0.051066,
        0.044291 -0.258253 0.051066,
        -0.044291 -0.255906 0.068898,
        0.044291 -0.255906 0.068898,
        0.044291 -0.255906 0.275591,
        -0.044291 -0.255906 0.275591,
        0.044291 -0.255570 0.278138,
        -0.044291 -0.255570 0.278138,
        0.044291 -0.254587 0.280512,
        -0.044291 -0.254587 0.280512,
        0.044291 -0.253023 0.282550,
        -0.044291 -0.253023 0.282550,
        0.044291 -0.250984 0.284115,
        -0.044291 -0.250984 0.284115,
        0.044291 -0.248610 0.285098,
        -0.044291 -0.248610 0.285098,
        0.044291 -0.246063 0.285433,
        -0.044291 -0.246063 0.285433,
        -0.044291 -0.246063 0.344488,
        0.044291 -0.246063 0.344488,
        -0.044291 -0.263895 0.342141,
        0.044291 -0.263895 0.342141,
        -0.044291 -0.280512 0.335257,
        0.044291 -0.280512 0.335257,
        -0.044291 -0.294781 0.324309,
        0.044291 -0.294781 0.324309,
        -0.044291 -0.305730 0.310039,
        0.044291 -0.305730 0.310039,
        -0.044291 -0.312613 0.293422,
        0.044291 -0.312613 0.293422,
        -0.044291 -0.314961 0.275591,
        0.044291 -0.314961 0.275591,
        0.044291 -0.314961 0.068898,
        -0.044291 -0.314961 0.068898,
        0.044291 -0.315296 0.066350,
        -0.044291 -0.315296 0.066350,
        0.044291 -0.316279 0.063976,
        -0.044291 -0.316279 0.063976,
        0.044291 -0.317843 0.061938,
        -0.044291 -0.317843 0.061938,
        0.044291 -0.319882 0.060374,
        -0.044291 -0.319882 0.060374,
        0.044291 -0.322256 0.059391,
        -0.044291 -0.322256 0.059391,
        0.300197 -0.413386 0.059055,
        0.300197 -0.324803 0.059055,
        0.211614 -0.413386 0.059055,
        0.211614 -0.324803 0.059055,
        0.300197 -0.413386 -0.000000,
        0.211614 -0.413386 -0.000000,
        0.300197 -0.324803 -0.000000,
        0.211614 -0.324803 -0.000000,
        0.211614 -0.306971 0.002348,
        0.300197 -0.306971 0.002348,
        0.211614 -0.290354 0.009231,
        0.300197 -0.290354 0.009231,
        0.211614 -0.276085 0.020180,
        0.300197 -0.276085 0.020180,
        0.211614 -0.265136 0.034449,
        0.300197 -0.265136 0.034449,
        0.211614 -0.258253 0.051066,
        0.300197 -0.258253 0.051066,
        0.211614 -0.255906 0.068898,
        0.300197 -0.255906 0.068898,
        0.300197 -0.255906 0.275591,
        0.211614 -0.255906 0.275591,
        0.300197 -0.255570 0.278138,
        0.211614 -0.255570 0.278138,
        0.300197 -0.254587 0.280512,
        0.211614 -0.254587 0.280512,
        0.300197 -0.253023 0.282550,
        0.211614 -0.253023 0.282550,
        0.300197 -0.250984 0.284115,
        0.211614 -0.250984 0.284115,
        0.300197 -0.248610 0.285098,
        0.211614 -0.248610 0.285098,
        0.300197 -0.246063 0.285433,
        0.211614 -0.246063 0.285433,
        0.211614 -0.246063 0.344488,
        0.300197 -0.246063 0.344488,
        0.211614 -0.263895 0.342141,
        0.300197 -0.263895 0.342141,
        0.211614 -0.280512 0.335257,
        0.300197 -0.280512 0.335257,
        0.211614 -0.294781 0.324309,
        0.300197 -0.294781 0.324309,
        0.211614 -0.305730 0.310039,
        0.300197 -0.305730 0.310039,
        0.211614 -0.312613 0.293422,
        0.300197 -0.312613 0.293422,
        0.211614 -0.314961 0.275591,
        0.300197 -0.314961 0.275591,
        0.300197 -0.314961 0.068898,
        0.211614 -0.314961 0.068898,
        0.300197 -0.315296 0.066350,
        0.211614 -0.315296 0.066350,
        0.300197 -0.316279 0.063976,
        0.211614 -0.316279 0.063976,
        0.300197 -0.317843 0.061938,
        0.211614 -0.317843 0.061938,
        0.300197 -0.319882 0.060374,
        0.211614 -0.319882 0.060374,
        0.300197 -0.322256 0.059391,
        0.211614 -0.322256 0.059391,
      ]
    }
    coordIndex [
      36, 37, 38, -1,
      38, 37, 39, -1,
      40, 36, 41, -1,
      41, 36, 38, -1,
      42, 40, 43, -1,
      43, 40, 41, -1,
      42, 43, 44, -1,
      42, 44, 45, -1,
      45, 44, 46, -1,
      45, 46, 47, -1,
      47, 46, 48, -1,
      47, 48, 49, -1,
      49, 48, 50, -1,
      49, 50, 51, -1,
      51, 50, 52, -1,
      51, 52, 53, -1,
      53, 52, 54, -1,
      53, 54, 55, -1,
      56, 55, 57, -1,
      57, 55, 54, -1,
      56, 57, 58, -1,
      58, 57, 59, -1,
      58, 59, 60, -1,
      60, 59, 61, -1,
      60, 61, 62, -1,
      62, 61, 63, -1,
      62, 63, 64, -1,
      64, 63, 65, -1,
      64, 65, 66, -1,
      66, 65, 67, -1,
      66, 67, 68, -1,
      68, 67, 69, -1,
      29, 68, 28, -1,
      28, 68, 69, -1,
      70, 71, 13, -1,
      13, 71, 14, -1,
      71, 70, 72, -1,
      71, 72, 73, -1,
      73, 72, 74, -1,
      73, 74, 75, -1,
      75, 74, 76, -1,
      75, 76, 77, -1,
      77, 76, 78, -1,
      77, 78, 79, -1,
      79, 78, 80, -1,
      79, 80, 81, -1,
      81, 80, 82, -1,
      81, 82, 83, -1,
      84, 83, 85, -1,
      85, 83, 82, -1,
      84, 85, 86, -1,
      86, 85, 87, -1,
      86, 87, 88, -1,
      88, 87, 89, -1,
      88, 89, 90, -1,
      90, 89, 91, -1,
      90, 91, 92, -1,
      92, 91, 93, -1,
      92, 93, 94, -1,
      94, 93, 95, -1,
      94, 95, 37, -1,
      37, 95, 39, -1,
      73, 22, 71, -1,
      71, 22, 14, -1,
      36, 40, 37, -1,
      37, 40, 42, -1,
      37, 42, 94, -1,
      94, 42, 45, -1,
      94, 45, 92, -1,
      92, 45, 47, -1,
      92, 47, 90, -1,
      90, 47, 49, -1,
      90, 49, 88, -1,
      88, 49, 51, -1,
      88, 51, 86, -1,
      86, 51, 53, -1,
      86, 53, 84, -1,
      84, 53, 55, -1,
      84, 55, 83, -1,
      83, 55, 56, -1,
      83, 56, 81, -1,
      81, 56, 58, -1,
      81, 58, 79, -1,
      79, 58, 60, -1,
      79, 60, 77, -1,
      77, 60, 62, -1,
      77, 62, 75, -1,
      75, 62, 64, -1,
      75, 64, 73, -1,
      73, 64, 66, -1,
      73, 66, 22, -1,
      22, 66, 68, -1,
      22, 68, 29, -1,
      13, 12, 70, -1,
      70, 12, 72, -1,
      41, 38, 43, -1,
      43, 38, 39, -1,
      43, 39, 44, -1,
      44, 39, 95, -1,
      44, 95, 46, -1,
      46, 95, 93, -1,
      46, 93, 48, -1,
      48, 93, 91, -1,
      48, 91, 50, -1,
      50, 91, 89, -1,
      50, 89, 52, -1,
      52, 89, 87, -1,
      52, 87, 54, -1,
      54, 87, 85, -1,
      54, 85, 57, -1,
      57, 85, 82, -1,
      57, 82, 59, -1,
      59, 82, 80, -1,
      59, 80, 61, -1,
      61, 80, 78, -1,
      61, 78, 63, -1,
      63, 78, 76, -1,
      63, 76, 65, -1,
      65, 76, 74, -1,
      65, 74, 67, -1,
      67, 74, 72, -1,
      67, 72, 69, -1,
      69, 72, 12, -1,
      69, 12, 28, -1,
      96, 97, 98, -1,
      98, 97, 99, -1,
      96, 98, 100, -1,
      100, 98, 101, -1,
      100, 101, 102, -1,
      102, 101, 103, -1,
      102, 103, 104, -1,
      104, 103, 105, -1,
      104, 105, 106, -1,
      106, 105, 107, -1,
      106, 107, 108, -1,
      108, 107, 109, -1,
      108, 109, 110, -1,
      110, 109, 111, -1,
      112, 110, 113, -1,
      113, 110, 111, -1,
      112, 113, 114, -1,
      112, 114, 115, -1,
      115, 114, 116, -1,
      115, 116, 117, -1,
      117, 116, 118, -1,
      117, 118, 119, -1,
      119, 118, 120, -1,
      119, 120, 121, -1,
      121, 120, 122, -1,
      121, 122, 123, -1,
      123, 122, 124, -1,
      123, 124, 125, -1,
      6, 125, 7, -1,
      7, 125, 124, -1,
      126, 127, 30, -1,
      30, 127, 31, -1,
      127, 126, 128, -1,
      128, 126, 129, -1,
      128, 129, 130, -1,
      130, 129, 131, -1,
      130, 131, 132, -1,
      132, 131, 133, -1,
      132, 133, 134, -1,
      134, 133, 135, -1,
      134, 135, 136, -1,
      136, 135, 137, -1,
      136, 137, 138, -1,
      138, 137, 139, -1,
      140, 138, 141, -1,
      141, 138, 139, -1,
      140, 141, 142, -1,
      140, 142, 143, -1,
      143, 142, 144, -1,
      143, 144, 145, -1,
      145, 144, 146, -1,
      145, 146, 147, -1,
      147, 146, 148, -1,
      147, 148, 149, -1,
      149, 148, 150, -1,
      149, 150, 151, -1,
      151, 150, 152, -1,
      151, 152, 153, -1,
      154, 153, 155, -1,
      155, 153, 152, -1,
      97, 154, 99, -1,
      99, 154, 155, -1,
      6, 5, 125, -1,
      125, 5, 123, -1,
      154, 97, 153, -1,
      153, 97, 96, -1,
      153, 96, 151, -1,
      151, 96, 100, -1,
      151, 100, 149, -1,
      149, 100, 102, -1,
      149, 102, 147, -1,
      147, 102, 104, -1,
      147, 104, 145, -1,
      145, 104, 106, -1,
      145, 106, 143, -1,
      143, 106, 108, -1,
      143, 108, 140, -1,
      140, 108, 110, -1,
      140, 110, 138, -1,
      138, 110, 112, -1,
      138, 112, 136, -1,
      136, 112, 115, -1,
      136, 115, 134, -1,
      134, 115, 117, -1,
      134, 117, 132, -1,
      132, 117, 119, -1,
      132, 119, 130, -1,
      130, 119, 121, -1,
      130, 121, 128, -1,
      128, 121, 123, -1,
      128, 123, 127, -1,
      127, 123, 5, -1,
      127, 5, 31, -1,
      122, 11, 124, -1,
      124, 11, 7, -1,
      99, 155, 98, -1,
      98, 155, 152, -1,
      98, 152, 101, -1,
      101, 152, 150, -1,
      101, 150, 103, -1,
      103, 150, 148, -1,
      103, 148, 105, -1,
      105, 148, 146, -1,
      105, 146, 107, -1,
      107, 146, 144, -1,
      107, 144, 109, -1,
      109, 144, 142, -1,
      109, 142, 111, -1,
      111, 142, 141, -1,
      111, 141, 113, -1,
      113, 141, 139, -1,
      113, 139, 114, -1,
      114, 139, 137, -1,
      114, 137, 116, -1,
      116, 137, 135, -1,
      116, 135, 118, -1,
      118, 135, 133, -1,
      118, 133, 120, -1,
      120, 133, 131, -1,
      120, 131, 122, -1,
      122, 131, 129, -1,
      122, 129, 11, -1,
      11, 129, 126, -1,
      11, 126, 30, -1,
      156, 157, 158, -1,
      158, 157, 159, -1,
      156, 158, 160, -1,
      160, 158, 161, -1,
      160, 161, 162, -1,
      162, 161, 163, -1,
      162, 163, 164, -1,
      164, 163, 165, -1,
      164, 165, 166, -1,
      166, 165, 167, -1,
      166, 167, 168, -1,
      168, 167, 169, -1,
      168, 169, 170, -1,
      170, 169, 171, -1,
      172, 170, 173, -1,
      173, 170, 171, -1,
      172, 173, 174, -1,
      172, 174, 175, -1,
      175, 174, 176, -1,
      175, 176, 177, -1,
      177, 176, 178, -1,
      177, 178, 179, -1,
      179, 178, 180, -1,
      179, 180, 181, -1,
      181, 180, 182, -1,
      181, 182, 183, -1,
      183, 182, 184, -1,
      183, 184, 185, -1,
      8, 185, 3, -1,
      3, 185, 184, -1,
      186, 187, 32, -1,
      32, 187, 33, -1,
      187, 186, 188, -1,
      188, 186, 189, -1,
      188, 189, 190, -1,
      190, 189, 191, -1,
      190, 191, 192, -1,
      192, 191, 193, -1,
      192, 193, 194, -1,
      194, 193, 195, -1,
      194, 195, 196, -1,
      196, 195, 197, -1,
      196, 197, 198, -1,
      198, 197, 199, -1,
      200, 198, 201, -1,
      201, 198, 199, -1,
      200, 201, 202, -1,
      200, 202, 203, -1,
      203, 202, 204, -1,
      203, 204, 205, -1,
      205, 204, 206, -1,
      205, 206, 207, -1,
      207, 206, 208, -1,
      207, 208, 209, -1,
      209, 208, 210, -1,
      209, 210, 211, -1,
      211, 210, 212, -1,
      211, 212, 213, -1,
      214, 213, 215, -1,
      215, 213, 212, -1,
      157, 214, 159, -1,
      159, 214, 215, -1,
      8, 9, 185, -1,
      185, 9, 183, -1,
      214, 157, 213, -1,
      213, 157, 156, -1,
      213, 156, 211, -1,
      211, 156, 160, -1,
      211, 160, 209, -1,
      209, 160, 162, -1,
      209, 162, 207, -1,
      207, 162, 164, -1,
      207, 164, 205, -1,
      205, 164, 166, -1,
      205, 166, 203, -1,
      203, 166, 168, -1,
      203, 168, 200, -1,
      200, 168, 170, -1,
      200, 170, 198, -1,
      198, 170, 172, -1,
      198, 172, 196, -1,
      196, 172, 175, -1,
      196, 175, 194, -1,
      194, 175, 177, -1,
      194, 177, 192, -1,
      192, 177, 179, -1,
      192, 179, 190, -1,
      190, 179, 181, -1,
      190, 181, 188, -1,
      188, 181, 183, -1,
      188, 183, 187, -1,
      187, 183, 9, -1,
      187, 9, 33, -1,
      182, 4, 184, -1,
      184, 4, 3, -1,
      159, 215, 158, -1,
      158, 215, 212, -1,
      158, 212, 161, -1,
      161, 212, 210, -1,
      161, 210, 163, -1,
      163, 210, 208, -1,
      163, 208, 165, -1,
      165, 208, 206, -1,
      165, 206, 167, -1,
      167, 206, 204, -1,
      167, 204, 169, -1,
      169, 204, 202, -1,
      169, 202, 171, -1,
      171, 202, 201, -1,
      171, 201, 173, -1,
      173, 201, 199, -1,
      173, 199, 174, -1,
      174, 199, 197, -1,
      174, 197, 176, -1,
      176, 197, 195, -1,
      176, 195, 178, -1,
      178, 195, 193, -1,
      178, 193, 180, -1,
      180, 193, 191, -1,
      180, 191, 182, -1,
      182, 191, 189, -1,
      182, 189, 4, -1,
      4, 189, 186, -1,
      4, 186, 32, -1,
      216, 217, 218, -1,
      218, 217, 219, -1,
      216, 218, 220, -1,
      220, 218, 221, -1,
      220, 221, 222, -1,
      222, 221, 223, -1,
      222, 223, 224, -1,
      224, 223, 225, -1,
      224, 225, 226, -1,
      226, 225, 227, -1,
      226, 227, 228, -1,
      228, 227, 229, -1,
      228, 229, 230, -1,
      230, 229, 231, -1,
      232, 230, 233, -1,
      233, 230, 231, -1,
      232, 233, 234, -1,
      232, 234, 235, -1,
      235, 234, 236, -1,
      235, 236, 237, -1,
      237, 236, 238, -1,
      237, 238, 239, -1,
      239, 238, 240, -1,
      239, 240, 241, -1,
      241, 240, 242, -1,
      241, 242, 243, -1,
      243, 242, 244, -1,
      243, 244, 245, -1,
      1, 245, 2, -1,
      2, 245, 244, -1,
      246, 247, 35, -1,
      35, 247, 34, -1,
      247, 246, 248, -1,
      248, 246, 249, -1,
      248, 249, 250, -1,
      250, 249, 251, -1,
      250, 251, 252, -1,
      252, 251, 253, -1,
      252, 253, 254, -1,
      254, 253, 255, -1,
      254, 255, 256, -1,
      256, 255, 257, -1,
      256, 257, 258, -1,
      258, 257, 259, -1,
      260, 258, 261, -1,
      261, 258, 259, -1,
      260, 261, 262, -1,
      260, 262, 263, -1,
      263, 262, 264, -1,
      263, 264, 265, -1,
      265, 264, 266, -1,
      265, 266, 267, -1,
      267, 266, 268, -1,
      267, 268, 269, -1,
      269, 268, 270, -1,
      269, 270, 271, -1,
      271, 270, 272, -1,
      271, 272, 273, -1,
      274, 273, 275, -1,
      275, 273, 272, -1,
      217, 274, 219, -1,
      219, 274, 275, -1,
      1, 0, 245, -1,
      245, 0, 243, -1,
      274, 217, 273, -1,
      273, 217, 216, -1,
      273, 216, 271, -1,
      271, 216, 220, -1,
      271, 220, 269, -1,
      269, 220, 222, -1,
      269, 222, 267, -1,
      267, 222, 224, -1,
      267, 224, 265, -1,
      265, 224, 226, -1,
      265, 226, 263, -1,
      263, 226, 228, -1,
      263, 228, 260, -1,
      260, 228, 230, -1,
      260, 230, 258, -1,
      258, 230, 232, -1,
      258, 232, 256, -1,
      256, 232, 235, -1,
      256, 235, 254, -1,
      254, 235, 237, -1,
      254, 237, 252, -1,
      252, 237, 239, -1,
      252, 239, 250, -1,
      250, 239, 241, -1,
      250, 241, 248, -1,
      248, 241, 243, -1,
      248, 243, 247, -1,
      247, 243, 0, -1,
      247, 0, 34, -1,
      242, 10, 244, -1,
      244, 10, 2, -1,
      219, 275, 218, -1,
      218, 275, 272, -1,
      218, 272, 221, -1,
      221, 272, 270, -1,
      221, 270, 223, -1,
      223, 270, 268, -1,
      223, 268, 225, -1,
      225, 268, 266, -1,
      225, 266, 227, -1,
      227, 266, 264, -1,
      227, 264, 229, -1,
      229, 264, 262, -1,
      229, 262, 231, -1,
      231, 262, 261, -1,
      231, 261, 233, -1,
      233, 261, 259, -1,
      233, 259, 234, -1,
      234, 259, 257, -1,
      234, 257, 236, -1,
      236, 257, 255, -1,
      236, 255, 238, -1,
      238, 255, 253, -1,
      238, 253, 240, -1,
      240, 253, 251, -1,
      240, 251, 242, -1,
      242, 251, 249, -1,
      242, 249, 10, -1,
      10, 249, 246, -1,
      10, 246, 35, -1,
      276, 277, 278, -1,
      278, 277, 279, -1,
      280, 276, 281, -1,
      281, 276, 278, -1,
      282, 280, 283, -1,
      283, 280, 281, -1,
      282, 283, 284, -1,
      282, 284, 285, -1,
      285, 284, 286, -1,
      285, 286, 287, -1,
      287, 286, 288, -1,
      287, 288, 289, -1,
      289, 288, 290, -1,
      289, 290, 291, -1,
      291, 290, 292, -1,
      291, 292, 293, -1,
      293, 292, 294, -1,
      293, 294, 295, -1,
      296, 295, 297, -1,
      297, 295, 294, -1,
      296, 297, 298, -1,
      298, 297, 299, -1,
      298, 299, 300, -1,
      300, 299, 301, -1,
      300, 301, 302, -1,
      302, 301, 303, -1,
      302, 303, 304, -1,
      304, 303, 305, -1,
      304, 305, 306, -1,
      306, 305, 307, -1,
      306, 307, 308, -1,
      308, 307, 309, -1,
      26, 308, 27, -1,
      27, 308, 309, -1,
      310, 311, 20, -1,
      20, 311, 15, -1,
      311, 310, 312, -1,
      311, 312, 313, -1,
      313, 312, 314, -1,
      313, 314, 315, -1,
      315, 314, 316, -1,
      315, 316, 317, -1,
      317, 316, 318, -1,
      317, 318, 319, -1,
      319, 318, 320, -1,
      319, 320, 321, -1,
      321, 320, 322, -1,
      321, 322, 323, -1,
      324, 323, 325, -1,
      325, 323, 322, -1,
      324, 325, 326, -1,
      326, 325, 327, -1,
      326, 327, 328, -1,
      328, 327, 329, -1,
      328, 329, 330, -1,
      330, 329, 331, -1,
      330, 331, 332, -1,
      332, 331, 333, -1,
      332, 333, 334, -1,
      334, 333, 335, -1,
      334, 335, 277, -1,
      277, 335, 279, -1,
      313, 16, 311, -1,
      311, 16, 15, -1,
      276, 280, 277, -1,
      277, 280, 282, -1,
      277, 282, 334, -1,
      334, 282, 285, -1,
      334, 285, 332, -1,
      332, 285, 287, -1,
      332, 287, 330, -1,
      330, 287, 289, -1,
      330, 289, 328, -1,
      328, 289, 291, -1,
      328, 291, 326, -1,
      326, 291, 293, -1,
      326, 293, 324, -1,
      324, 293, 295, -1,
      324, 295, 323, -1,
      323, 295, 296, -1,
      323, 296, 321, -1,
      321, 296, 298, -1,
      321, 298, 319, -1,
      319, 298, 300, -1,
      319, 300, 317, -1,
      317, 300, 302, -1,
      317, 302, 315, -1,
      315, 302, 304, -1,
      315, 304, 313, -1,
      313, 304, 306, -1,
      313, 306, 16, -1,
      16, 306, 308, -1,
      16, 308, 26, -1,
      20, 21, 310, -1,
      310, 21, 312, -1,
      281, 278, 283, -1,
      283, 278, 279, -1,
      283, 279, 284, -1,
      284, 279, 335, -1,
      284, 335, 286, -1,
      286, 335, 333, -1,
      286, 333, 288, -1,
      288, 333, 331, -1,
      288, 331, 290, -1,
      290, 331, 329, -1,
      290, 329, 292, -1,
      292, 329, 327, -1,
      292, 327, 294, -1,
      294, 327, 325, -1,
      294, 325, 297, -1,
      297, 325, 322, -1,
      297, 322, 299, -1,
      299, 322, 320, -1,
      299, 320, 301, -1,
      301, 320, 318, -1,
      301, 318, 303, -1,
      303, 318, 316, -1,
      303, 316, 305, -1,
      305, 316, 314, -1,
      305, 314, 307, -1,
      307, 314, 312, -1,
      307, 312, 309, -1,
      309, 312, 21, -1,
      309, 21, 27, -1,
      336, 337, 338, -1,
      338, 337, 339, -1,
      340, 336, 341, -1,
      341, 336, 338, -1,
      342, 340, 343, -1,
      343, 340, 341, -1,
      342, 343, 344, -1,
      342, 344, 345, -1,
      345, 344, 346, -1,
      345, 346, 347, -1,
      347, 346, 348, -1,
      347, 348, 349, -1,
      349, 348, 350, -1,
      349, 350, 351, -1,
      351, 350, 352, -1,
      351, 352, 353, -1,
      353, 352, 354, -1,
      353, 354, 355, -1,
      356, 355, 357, -1,
      357, 355, 354, -1,
      356, 357, 358, -1,
      358, 357, 359, -1,
      358, 359, 360, -1,
      360, 359, 361, -1,
      360, 361, 362, -1,
      362, 361, 363, -1,
      362, 363, 364, -1,
      364, 363, 365, -1,
      364, 365, 366, -1,
      366, 365, 367, -1,
      366, 367, 368, -1,
      368, 367, 369, -1,
      24, 368, 25, -1,
      25, 368, 369, -1,
      370, 371, 18, -1,
      18, 371, 19, -1,
      371, 370, 372, -1,
      371, 372, 373, -1,
      373, 372, 374, -1,
      373, 374, 375, -1,
      375, 374, 376, -1,
      375, 376, 377, -1,
      377, 376, 378, -1,
      377, 378, 379, -1,
      379, 378, 380, -1,
      379, 380, 381, -1,
      381, 380, 382, -1,
      381, 382, 383, -1,
      384, 383, 385, -1,
      385, 383, 382, -1,
      384, 385, 386, -1,
      386, 385, 387, -1,
      386, 387, 388, -1,
      388, 387, 389, -1,
      388, 389, 390, -1,
      390, 389, 391, -1,
      390, 391, 392, -1,
      392, 391, 393, -1,
      392, 393, 394, -1,
      394, 393, 395, -1,
      394, 395, 337, -1,
      337, 395, 339, -1,
      373, 23, 371, -1,
      371, 23, 19, -1,
      336, 340, 337, -1,
      337, 340, 342, -1,
      337, 342, 394, -1,
      394, 342, 345, -1,
      394, 345, 392, -1,
      392, 345, 347, -1,
      392, 347, 390, -1,
      390, 347, 349, -1,
      390, 349, 388, -1,
      388, 349, 351, -1,
      388, 351, 386, -1,
      386, 351, 353, -1,
      386, 353, 384, -1,
      384, 353, 355, -1,
      384, 355, 383, -1,
      383, 355, 356, -1,
      383, 356, 381, -1,
      381, 356, 358, -1,
      381, 358, 379, -1,
      379, 358, 360, -1,
      379, 360, 377, -1,
      377, 360, 362, -1,
      377, 362, 375, -1,
      375, 362, 364, -1,
      375, 364, 373, -1,
      373, 364, 366, -1,
      373, 366, 23, -1,
      23, 366, 368, -1,
      23, 368, 24, -1,
      18, 17, 370, -1,
      370, 17, 372, -1,
      341, 338, 343, -1,
      343, 338, 339, -1,
      343, 339, 344, -1,
      344, 339, 395, -1,
      344, 395, 346, -1,
      346, 395, 393, -1,
      346, 393, 348, -1,
      348, 393, 391, -1,
      348, 391, 350, -1,
      350, 391, 389, -1,
      350, 389, 352, -1,
      352, 389, 387, -1,
      352, 387, 354, -1,
      354, 387, 385, -1,
      354, 385, 357, -1,
      357, 385, 382, -1,
      357, 382, 359, -1,
      359, 382, 380, -1,
      359, 380, 361, -1,
      361, 380, 378, -1,
      361, 378, 363, -1,
      363, 378, 376, -1,
      363, 376, 365, -1,
      365, 376, 374, -1,
      365, 374, 367, -1,
      367, 374, 372, -1,
      367, 372, 369, -1,
      369, 372, 17, -1,
      369, 17, 25, -1,
    ]
  }
}
