#VRML V2.0 utf8

Shape {
  appearance Appearance {
    material Material {
      diffuseColor 0.2510 0.2510 0.2510
      specularColor 0.1255 0.1255 0.1255
      ambientIntensity 0.2
      transparency 0.0000
      shininess 0.5
    }
  }
  geometry IndexedFaceSet {
    ccw TRUE
    solid FALSE
    coord DEF co Coordinate {
      point [
        -0.126824 0.066636 0.413386,
        -0.110980 0.066636 0.413386,
        0.773566 0.458605 0.413386,
        0.182856 0.046111 0.413386,
        0.170020 0.052091 0.413386,
        0.155558 0.054871 0.413386,
        -0.029617 0.003822 0.413386,
        -0.022804 -0.002526 0.413386,
        -0.020237 0.047551 0.413386,
        -0.018878 -0.008432 0.413386,
        -0.016687 -0.014352 0.413386,
        0.034498 -0.051474 0.413386,
        -0.015915 -0.021024 0.413386,
        -0.016845 -0.029322 0.413386,
        -0.164552 -0.038855 0.413386,
        -0.156091 -0.039933 0.413386,
        -0.126824 -0.005607 0.413386,
        -0.115216 -0.028809 0.413386,
        -0.119473 -0.036798 0.413386,
        -0.087934 -0.046793 0.413386,
        -0.125274 -0.043259 0.413386,
        -0.426683 -0.458605 0.413386,
        -0.132333 -0.047949 0.413386,
        -0.142153 -0.051414 0.413386,
        0.773566 -0.458605 0.413386,
        0.185736 0.010461 0.413386,
        0.169892 -0.034730 0.413386,
        0.169892 -0.002502 0.413386,
        0.168465 -0.035467 0.413386,
        0.143966 -0.002502 0.413386,
        0.158894 -0.038794 0.413386,
        -0.019035 -0.035307 0.413386,
        -0.022851 -0.040845 0.413386,
        -0.027791 -0.045157 0.413386,
        -0.112054 -0.017169 0.413386,
        -0.087934 -0.029509 0.413386,
        -0.110980 -0.003042 0.413386,
        -0.177273 -0.049289 0.413386,
        -0.184300 -0.045400 0.413386,
        -0.190212 -0.039903 0.413386,
        -0.194581 -0.033279 0.413386,
        -0.184439 0.066636 0.413386,
        -0.184439 -0.004482 0.413386,
        -0.183638 -0.015230 0.413386,
        -0.181573 -0.023203 0.413386,
        0.034498 0.048856 0.413386,
        0.023587 0.041531 0.413386,
        0.009342 0.035552 0.413386,
        0.007131 0.034948 0.413386,
        -0.046996 0.013972 0.413386,
        -0.029166 0.052188 0.413386,
        -0.057974 0.019790 0.413386,
        -0.039263 0.054601 0.413386,
        -0.047423 0.055113 0.413386,
        -0.169810 -0.036898 0.413386,
        0.119215 -0.047282 0.413386,
        0.108242 -0.040087 0.413386,
        0.048901 -0.051474 0.413386,
        0.127366 -0.035757 0.413386,
        0.135574 -0.038683 0.413386,
        0.147206 -0.039951 0.413386,
        0.108320 0.026957 0.413386,
        0.105709 0.016315 0.413386,
        0.143966 0.010461 0.413386,
        0.105076 0.007041 0.413386,
        0.106229 -0.006092 0.413386,
        0.109274 -0.016362 0.413386,
        0.167072 0.066749 0.413386,
        0.182856 0.061955 0.413386,
        -0.034465 -0.048810 0.413386,
        -0.045993 -0.052024 0.413386,
        -0.058204 -0.052915 0.413386,
        -0.156599 -0.052915 0.413386,
        -0.168035 -0.051969 0.413386,
        -0.155136 -0.039951 0.413386,
        -0.147824 -0.039285 0.413386,
        -0.127992 -0.018165 0.413386,
        -0.142038 -0.037508 0.413386,
        0.026099 0.057011 0.413386,
        0.043297 0.068076 0.413386,
        -0.020237 0.064835 0.413386,
        0.131000 -0.051348 0.413386,
        0.113883 -0.024465 0.413386,
        0.120323 -0.031250 0.413386,
        0.149209 0.055113 0.413386,
        0.137662 0.053762 0.413386,
        0.128719 0.050415 0.413386,
        -0.073405 -0.051348 0.413386,
        -0.084148 -0.048603 0.413386,
        -0.198452 -0.022513 0.413386,
        -0.200265 -0.005689 0.413386,
        -0.426683 0.458605 0.413386,
        0.089231 0.006028 0.413386,
        0.091040 0.022557 0.413386,
        0.048901 0.068076 0.413386,
        0.120542 0.044813 0.413386,
        0.113278 0.036613 0.413386,
        -0.200283 0.066636 0.413386,
        -0.200283 -0.004797 0.413386,
        -0.178208 -0.029644 0.413386,
        -0.174555 -0.033707 0.413386,
        -0.137463 -0.034807 0.413386,
        -0.133833 -0.031284 0.413386,
        -0.130628 -0.026171 0.413386,
        0.007131 0.049352 0.413386,
        0.095735 0.035716 0.413386,
        0.103967 0.047944 0.413386,
        0.114350 0.057353 0.413386,
        0.185736 -0.042990 0.413386,
        0.166500 -0.050559 0.413386,
        0.145946 -0.052915 0.413386,
        -0.070328 0.030178 0.413386,
        -0.071571 0.033434 0.413386,
        -0.072090 0.037941 0.413386,
        -0.068331 0.027248 0.413386,
        -0.064709 0.024072 0.413386,
        0.099535 -0.030463 0.413386,
        0.093444 -0.018949 0.413386,
        0.090114 -0.006165 0.413386,
        -0.068953 0.047238 0.413386,
        -0.070675 0.044558 0.413386,
        -0.071719 0.041520 0.413386,
        -0.055692 0.054363 0.413386,
        -0.061962 0.052358 0.413386,
        -0.066262 0.049824 0.413386,
        -0.081762 0.018454 0.413386,
        -0.085147 0.023789 0.413386,
        -0.087259 0.029946 0.413386,
        -0.087934 0.036388 0.413386,
        -0.086876 0.044550 0.413386,
        -0.084567 0.050203 0.413386,
        -0.080855 0.055331 0.413386,
        -0.075783 0.059731 0.413386,
        -0.069141 0.063547 0.413386,
        -0.059220 0.066803 0.413386,
        -0.046163 0.068076 0.413386,
        -0.033051 0.067516 0.413386,
        0.125991 0.063659 0.413386,
        0.139370 0.067265 0.413386,
        0.150605 0.068076 0.413386,
        -0.076526 0.013456 0.413386,
        -0.059059 0.002877 0.413386,
        -0.079300 -0.034814 0.413386,
        -0.043007 -0.005642 0.413386,
        -0.065319 -0.039112 0.413386,
        -0.041361 -0.006691 0.413386,
        -0.056448 -0.039951 0.413386,
        -0.047872 -0.039291 0.413386,
        -0.041878 -0.037670 0.413386,
        -0.037642 -0.035331 0.413386,
        -0.035182 -0.033014 0.413386,
        -0.033619 -0.030672 0.413386,
        -0.032259 -0.026988 0.413386,
        -0.031759 -0.022329 0.413386,
        -0.032273 -0.018138 0.413386,
        -0.033611 -0.014778 0.413386,
        -0.036500 -0.010816 0.413386,
        -0.052387 0.458605 -0.413386,
        -0.044706 -0.030744 -0.413386,
        -0.052387 -0.039866 -0.413386,
        -0.044706 -0.039386 -0.413386,
        -0.002455 -0.039386 -0.413386,
        -0.042785 0.030712 -0.413386,
        -0.013017 0.030712 -0.413386,
        -0.013017 0.004785 -0.413386,
        0.012909 -0.035305 -0.413386,
        0.012909 -0.026663 -0.413386,
        -0.002455 0.039354 -0.413386,
        -0.013017 -0.003857 -0.413386,
        -0.013017 -0.030744 -0.413386,
        -0.040865 -0.003857 -0.413386,
        -0.040865 0.004785 -0.413386,
        0.051910 -0.036713 -0.413386,
        0.078206 -0.039386 -0.413386,
        0.044278 -0.039340 -0.413386,
        0.039206 -0.039866 -0.413386,
        -0.042785 0.039354 -0.413386,
        0.067329 0.018615 -0.413386,
        0.062713 0.025977 -0.413386,
        0.107974 0.039354 -0.413386,
        0.039102 0.030801 -0.413386,
        0.044996 0.028674 -0.413386,
        0.014320 -0.027444 -0.413386,
        0.050446 0.025028 -0.413386,
        0.055201 0.019779 -0.413386,
        0.060922 -0.000856 -0.413386,
        0.060124 -0.009380 -0.413386,
        0.057985 -0.016153 -0.413386,
        0.040464 -0.030880 -0.413386,
        0.033119 -0.031704 -0.413386,
        0.046201 -0.028768 -0.413386,
        0.051033 -0.025511 -0.413386,
        0.054728 -0.021613 -0.413386,
        0.022667 -0.030544 -0.413386,
        0.058447 0.013700 -0.413386,
        0.060546 0.005270 -0.413386,
        0.055605 0.032813 -0.413386,
        0.118536 0.039354 -0.413386,
        0.379865 0.458605 -0.413386,
        0.118536 -0.039386 -0.413386,
        0.379865 -0.039866 -0.413386,
        0.058244 -0.032669 -0.413386,
        0.064158 -0.026442 -0.413386,
        0.078206 -0.030744 -0.413386,
        0.068353 -0.018955 -0.413386,
        0.107974 -0.030744 -0.413386,
        0.070723 -0.010620 -0.413386,
        0.071484 -0.001502 -0.413386,
        0.070352 0.009693 -0.413386,
        0.048126 0.037119 -0.413386,
        0.039348 0.039669 -0.413386,
        0.031439 0.040314 -0.413386,
        0.022013 0.039664 -0.413386,
        0.012909 0.037193 -0.413386,
        0.012909 0.026631 -0.413386,
        0.021778 0.030429 -0.413386,
        0.031349 0.031672 -0.413386,
        0.034575 -0.040346 -0.413386,
        0.379865 -0.458605 -0.413386,
        0.032422 -0.040309 -0.413386,
        -0.052387 -0.458605 -0.413386,
        0.029259 -0.039866 -0.413386,
        -0.379865 -0.458605 -0.413386,
        -0.379865 -0.039866 -0.413386,
        0.021302 -0.038751 -0.413386,
        -0.129207 -0.039386 -0.413386,
        -0.119514 -0.017805 -0.413386,
        -0.114998 -0.024848 -0.413386,
        -0.188743 -0.039386 -0.413386,
        -0.200265 -0.039386 -0.413386,
        -0.169537 0.039354 -0.413386,
        -0.379865 0.458605 -0.413386,
        -0.158975 0.039354 -0.413386,
        -0.108517 -0.031054 -0.413386,
        -0.100296 -0.035831 -0.413386,
        -0.091222 -0.038536 -0.413386,
        -0.081480 -0.039386 -0.413386,
        -0.060069 -0.039386 -0.413386,
        -0.060069 0.039354 -0.413386,
        -0.082290 0.039354 -0.413386,
        -0.111531 0.029087 -0.413386,
        -0.117099 0.022913 -0.413386,
        -0.120759 0.016141 -0.413386,
        -0.093666 0.038138 -0.413386,
        -0.102879 0.034903 -0.413386,
        -0.111449 0.029159 -0.413386,
        -0.140730 -0.039386 -0.413386,
        -0.148247 -0.017300 -0.413386,
        -0.180775 -0.017300 -0.413386,
        -0.122873 0.008383 -0.413386,
        -0.123446 0.000974 -0.413386,
        -0.122341 -0.009563 -0.413386,
        0.846457 -0.275591 0.000000,
        0.846457 -0.531496 0.000000,
        0.829102 -0.275591 -0.098425,
        0.787450 -0.472489 -0.334646,
        0.829102 0.275591 -0.098425,
        0.787450 0.472489 -0.334646,
        0.846457 0.275591 -0.000000,
        0.846457 0.531496 0.000000,
        -0.846457 0.275591 -0.000000,
        -0.846457 0.531496 0.000000,
        -0.829102 0.275591 -0.098425,
        -0.787450 0.472489 -0.334646,
        -0.829102 -0.275591 -0.098425,
        -0.787450 -0.472489 -0.334646,
        -0.846457 -0.275591 -0.000000,
        -0.846457 -0.531496 -0.000000,
        0.379865 -0.472489 -0.334646,
        -0.379865 -0.472489 -0.334646,
        0.379865 0.472489 -0.334646,
        -0.379865 0.472489 -0.334646,
        -0.426683 0.458674 0.412992,
        -0.590063 0.458674 0.412992,
        -0.590063 0.458605 0.413386,
        -0.773566 0.458605 0.413386,
        -0.773566 -0.458605 0.413386,
        -0.590063 -0.458605 0.413386,
        -0.590063 -0.458674 0.412992,
        -0.426683 -0.458674 0.412992,
      ]
    }
    coordIndex [
      0, 1, 2, -1,
      3, 4, 5, -1,
      6, 7, 8, -1,
      8, 7, 9, -1,
      9, 10, 11, -1,
      11, 10, 12, -1,
      11, 12, 13, -1,
      14, 15, 16, -1,
      17, 18, 19, -1,
      19, 18, 20, -1,
      19, 20, 21, -1,
      21, 20, 22, -1,
      21, 22, 23, -1,
      24, 2, 25, -1,
      26, 27, 28, -1,
      28, 27, 29, -1,
      28, 29, 30, -1,
      13, 31, 11, -1,
      11, 31, 32, -1,
      11, 32, 33, -1,
      17, 19, 34, -1,
      34, 19, 35, -1,
      34, 35, 36, -1,
      37, 38, 21, -1,
      21, 38, 39, -1,
      21, 39, 40, -1,
      41, 42, 16, -1,
      16, 42, 43, -1,
      16, 43, 44, -1,
      45, 46, 11, -1,
      11, 46, 47, -1,
      11, 47, 48, -1,
      6, 8, 49, -1,
      49, 8, 50, -1,
      49, 50, 51, -1,
      51, 50, 52, -1,
      51, 52, 53, -1,
      14, 16, 54, -1,
      55, 56, 57, -1,
      58, 59, 29, -1,
      29, 59, 60, -1,
      29, 60, 30, -1,
      61, 62, 63, -1,
      63, 62, 64, -1,
      63, 64, 29, -1,
      29, 64, 65, -1,
      29, 65, 66, -1,
      67, 68, 2, -1,
      2, 68, 3, -1,
      2, 3, 25, -1,
      25, 3, 5, -1,
      25, 5, 63, -1,
      69, 70, 21, -1,
      21, 70, 71, -1,
      23, 72, 21, -1,
      21, 72, 73, -1,
      21, 73, 37, -1,
      15, 74, 16, -1,
      16, 74, 75, -1,
      16, 75, 76, -1,
      76, 75, 77, -1,
      78, 79, 80, -1,
      55, 57, 81, -1,
      66, 82, 29, -1,
      29, 82, 83, -1,
      29, 83, 58, -1,
      5, 84, 63, -1,
      63, 84, 85, -1,
      63, 85, 86, -1,
      71, 87, 21, -1,
      21, 87, 88, -1,
      21, 88, 19, -1,
      40, 89, 21, -1,
      21, 89, 90, -1,
      21, 90, 91, -1,
      92, 93, 94, -1,
      86, 95, 63, -1,
      63, 95, 96, -1,
      63, 96, 61, -1,
      16, 0, 41, -1,
      41, 0, 2, -1,
      41, 2, 97, -1,
      97, 2, 91, -1,
      97, 91, 98, -1,
      98, 91, 90, -1,
      44, 99, 16, -1,
      16, 99, 100, -1,
      16, 100, 54, -1,
      77, 101, 76, -1,
      76, 101, 102, -1,
      76, 102, 103, -1,
      9, 11, 8, -1,
      8, 11, 48, -1,
      8, 48, 80, -1,
      80, 48, 104, -1,
      80, 104, 78, -1,
      93, 105, 94, -1,
      94, 105, 106, -1,
      94, 106, 107, -1,
      25, 108, 24, -1,
      24, 108, 109, -1,
      24, 109, 110, -1,
      110, 81, 24, -1,
      24, 81, 57, -1,
      24, 57, 21, -1,
      21, 57, 11, -1,
      21, 11, 69, -1,
      69, 11, 33, -1,
      111, 53, 112, -1,
      112, 53, 113, -1,
      111, 114, 53, -1,
      53, 114, 115, -1,
      53, 115, 51, -1,
      56, 116, 57, -1,
      57, 116, 117, -1,
      57, 117, 94, -1,
      94, 117, 118, -1,
      94, 118, 92, -1,
      119, 120, 121, -1,
      79, 94, 2, -1,
      53, 122, 113, -1,
      113, 122, 123, -1,
      113, 123, 121, -1,
      121, 123, 124, -1,
      121, 124, 119, -1,
      125, 126, 36, -1,
      36, 126, 127, -1,
      36, 127, 1, -1,
      1, 127, 128, -1,
      1, 128, 129, -1,
      129, 130, 1, -1,
      1, 130, 131, -1,
      1, 131, 132, -1,
      132, 133, 1, -1,
      1, 133, 134, -1,
      1, 134, 2, -1,
      2, 134, 135, -1,
      2, 135, 79, -1,
      79, 135, 136, -1,
      79, 136, 80, -1,
      107, 137, 94, -1,
      94, 137, 138, -1,
      94, 138, 2, -1,
      2, 138, 139, -1,
      2, 139, 67, -1,
      125, 36, 140, -1,
      140, 36, 35, -1,
      140, 35, 141, -1,
      141, 35, 142, -1,
      141, 142, 143, -1,
      143, 142, 144, -1,
      143, 144, 145, -1,
      145, 144, 146, -1,
      145, 146, 147, -1,
      147, 148, 145, -1,
      145, 148, 149, -1,
      145, 149, 150, -1,
      150, 151, 145, -1,
      145, 151, 152, -1,
      145, 152, 153, -1,
      154, 155, 153, -1,
      153, 155, 156, -1,
      153, 156, 145, -1,
      157, 158, 159, -1,
      159, 158, 160, -1,
      159, 160, 161, -1,
      162, 163, 164, -1,
      165, 161, 166, -1,
      166, 161, 167, -1,
      168, 169, 170, -1,
      170, 169, 158, -1,
      170, 158, 171, -1,
      172, 173, 174, -1,
      174, 173, 175, -1,
      164, 171, 162, -1,
      162, 171, 158, -1,
      162, 158, 176, -1,
      176, 158, 157, -1,
      176, 157, 167, -1,
      177, 178, 179, -1,
      180, 181, 182, -1,
      182, 181, 183, -1,
      182, 183, 184, -1,
      185, 186, 182, -1,
      182, 186, 187, -1,
      188, 189, 190, -1,
      190, 189, 191, -1,
      187, 192, 182, -1,
      182, 192, 191, -1,
      182, 191, 193, -1,
      193, 191, 189, -1,
      184, 194, 182, -1,
      182, 194, 195, -1,
      182, 195, 185, -1,
      178, 196, 179, -1,
      179, 196, 157, -1,
      179, 157, 197, -1,
      197, 157, 198, -1,
      197, 198, 199, -1,
      199, 198, 200, -1,
      172, 201, 173, -1,
      173, 201, 202, -1,
      173, 202, 203, -1,
      203, 202, 204, -1,
      203, 204, 205, -1,
      204, 206, 205, -1,
      205, 206, 207, -1,
      205, 207, 179, -1,
      179, 207, 208, -1,
      179, 208, 177, -1,
      196, 209, 157, -1,
      157, 209, 210, -1,
      157, 210, 211, -1,
      211, 212, 157, -1,
      157, 212, 213, -1,
      157, 213, 167, -1,
      167, 213, 214, -1,
      167, 214, 166, -1,
      166, 214, 215, -1,
      166, 215, 182, -1,
      182, 215, 216, -1,
      182, 216, 180, -1,
      173, 199, 175, -1,
      175, 199, 200, -1,
      175, 200, 217, -1,
      217, 200, 218, -1,
      217, 218, 219, -1,
      219, 218, 220, -1,
      219, 220, 221, -1,
      222, 223, 220, -1,
      220, 223, 159, -1,
      220, 159, 221, -1,
      221, 159, 161, -1,
      221, 161, 224, -1,
      224, 161, 165, -1,
      225, 226, 227, -1,
      228, 159, 229, -1,
      229, 159, 223, -1,
      229, 223, 230, -1,
      230, 223, 231, -1,
      230, 231, 232, -1,
      232, 231, 157, -1,
      227, 233, 225, -1,
      225, 233, 234, -1,
      225, 234, 235, -1,
      236, 237, 159, -1,
      159, 237, 238, -1,
      159, 238, 157, -1,
      157, 238, 239, -1,
      240, 241, 232, -1,
      232, 241, 242, -1,
      239, 243, 157, -1,
      157, 243, 244, -1,
      157, 244, 232, -1,
      232, 244, 245, -1,
      232, 245, 240, -1,
      235, 236, 225, -1,
      225, 236, 159, -1,
      225, 159, 246, -1,
      246, 159, 228, -1,
      246, 228, 247, -1,
      247, 228, 248, -1,
      242, 249, 232, -1,
      232, 249, 250, -1,
      232, 250, 225, -1,
      225, 250, 251, -1,
      225, 251, 226, -1,
      252, 253, 254, -1,
      254, 253, 255, -1,
      254, 255, 256, -1,
      256, 255, 257, -1,
      256, 257, 258, -1,
      258, 257, 259, -1,
      260, 261, 262, -1,
      262, 261, 263, -1,
      262, 263, 264, -1,
      264, 263, 265, -1,
      264, 265, 266, -1,
      266, 265, 267, -1,
      255, 253, 268, -1,
      268, 253, 267, -1,
      267, 265, 269, -1,
      269, 222, 220, -1,
      267, 269, 268, -1,
      268, 269, 220, -1,
      268, 220, 218, -1,
      261, 259, 270, -1,
      270, 259, 257, -1,
      157, 231, 271, -1,
      263, 261, 271, -1,
      271, 261, 270, -1,
      271, 270, 157, -1,
      157, 270, 198, -1,
      259, 2, 258, -1,
      258, 2, 24, -1,
      258, 24, 252, -1,
      252, 24, 253, -1,
      91, 2, 272, -1,
      272, 2, 259, -1,
      272, 259, 273, -1,
      273, 259, 261, -1,
      273, 261, 274, -1,
      274, 261, 275, -1,
      267, 276, 266, -1,
      266, 276, 275, -1,
      266, 275, 260, -1,
      260, 275, 261, -1,
      277, 276, 278, -1,
      278, 276, 267, -1,
      278, 267, 279, -1,
      279, 267, 253, -1,
      279, 253, 21, -1,
      21, 253, 24, -1,
      275, 276, 274, -1,
      274, 276, 277, -1,
      222, 269, 223, -1,
      223, 269, 271, -1,
      223, 271, 231, -1,
      271, 269, 263, -1,
      263, 269, 265, -1,
      198, 270, 200, -1,
      200, 270, 268, -1,
      200, 268, 218, -1,
      257, 255, 270, -1,
      270, 255, 268, -1,
    ]
  }
}

Shape {
  appearance Appearance {
    material Material {
      diffuseColor 1.0000 1.0000 1.0000
      specularColor 0.5020 0.5020 0.5020
      ambientIntensity 0.2
      transparency 0.0000
      shininess 0.5
    }
  }
  geometry IndexedFaceSet {
    ccw TRUE
    solid FALSE
    coord DEF co Coordinate {
      point [
        0.846457 -0.275591 0.000000,
        0.829102 -0.275591 -0.098425,
        0.829102 0.275591 -0.098425,
        0.846457 0.275591 -0.000000,
        -0.846457 0.275591 -0.000000,
        -0.829102 0.275591 -0.098425,
        -0.829102 -0.275591 -0.098425,
        -0.846457 -0.275591 -0.000000,
        -0.874016 0.275591 0.000000,
        -0.874016 -0.275591 0.000000,
        -0.519685 0.275591 -0.362205,
        -0.874016 0.275591 -0.362205,
        -0.519685 -0.275591 -0.362205,
        -0.874016 -0.275591 -0.362205,
        -0.519685 0.275591 -0.460630,
        -0.519685 -0.275591 -0.460630,
        -0.874016 0.275591 -0.460630,
        -0.874016 -0.275591 -0.460630,
        -0.904585 -0.275591 -0.456606,
        -0.904585 0.275591 -0.456606,
        -0.933071 -0.275591 -0.444806,
        -0.933071 0.275591 -0.444806,
        -0.957532 -0.275591 -0.426036,
        -0.957532 0.275591 -0.426036,
        -0.976302 -0.275591 -0.401575,
        -0.976302 0.275591 -0.401575,
        -0.988102 -0.275591 -0.373089,
        -0.988102 0.275591 -0.373089,
        -0.992126 -0.275591 -0.342520,
        -0.992126 0.275591 -0.342520,
        -0.992126 0.275591 -0.118110,
        -0.992126 -0.275591 -0.118110,
        -0.988102 -0.275591 -0.087541,
        -0.988102 0.275591 -0.087541,
        -0.976302 -0.275591 -0.059055,
        -0.976302 0.275591 -0.059055,
        -0.957532 -0.275591 -0.034594,
        -0.957532 0.275591 -0.034594,
        -0.933071 -0.275591 -0.015824,
        -0.933071 0.275591 -0.015824,
        -0.904585 -0.275591 -0.004024,
        -0.904585 0.275591 -0.004024,
        -0.874016 -0.275591 -0.098425,
        -0.874016 0.275591 -0.098425,
        -0.879111 0.275591 -0.099096,
        -0.879111 -0.275591 -0.099096,
        -0.883858 0.275591 -0.101063,
        -0.883858 -0.275591 -0.101063,
        -0.887935 0.275591 -0.104191,
        -0.887935 -0.275591 -0.104191,
        -0.891063 0.275591 -0.108268,
        -0.891063 -0.275591 -0.108268,
        -0.893030 0.275591 -0.113015,
        -0.893030 -0.275591 -0.113015,
        -0.893701 0.275591 -0.118110,
        -0.893701 -0.275591 -0.118110,
        -0.893701 0.275591 -0.342520,
        -0.893701 -0.275591 -0.342520,
        -0.893030 0.275591 -0.347615,
        -0.893030 -0.275591 -0.347615,
        -0.891063 0.275591 -0.352362,
        -0.891063 -0.275591 -0.352362,
        -0.887935 0.275591 -0.356439,
        -0.887935 -0.275591 -0.356439,
        -0.883858 0.275591 -0.359567,
        -0.883858 -0.275591 -0.359567,
        -0.879111 0.275591 -0.361534,
        -0.879111 -0.275591 -0.361534,
        0.874016 -0.275591 0.000000,
        0.874016 0.275591 0.000000,
        0.874016 0.275591 -0.362205,
        0.519685 0.275591 -0.362205,
        0.874016 -0.275591 -0.362205,
        0.519685 -0.275591 -0.362205,
        0.879111 0.275591 -0.361534,
        0.879111 -0.275591 -0.361534,
        0.883858 0.275591 -0.359567,
        0.883858 -0.275591 -0.359567,
        0.887935 0.275591 -0.356439,
        0.887935 -0.275591 -0.356439,
        0.891063 0.275591 -0.352362,
        0.891063 -0.275591 -0.352362,
        0.893030 0.275591 -0.347615,
        0.893030 -0.275591 -0.347615,
        0.893701 0.275591 -0.342520,
        0.893701 -0.275591 -0.342520,
        0.893701 0.275591 -0.118110,
        0.893701 -0.275591 -0.118110,
        0.893030 0.275591 -0.113015,
        0.893030 -0.275591 -0.113015,
        0.891063 0.275591 -0.108268,
        0.891063 -0.275591 -0.108268,
        0.887935 0.275591 -0.104191,
        0.887935 -0.275591 -0.104191,
        0.883858 0.275591 -0.101063,
        0.883858 -0.275591 -0.101063,
        0.879111 0.275591 -0.099096,
        0.879111 -0.275591 -0.099096,
        0.874016 0.275591 -0.098425,
        0.874016 -0.275591 -0.098425,
        0.904585 -0.275591 -0.004024,
        0.904585 0.275591 -0.004024,
        0.933071 -0.275591 -0.015824,
        0.933071 0.275591 -0.015824,
        0.957532 -0.275591 -0.034594,
        0.957532 0.275591 -0.034594,
        0.976302 -0.275591 -0.059055,
        0.976302 0.275591 -0.059055,
        0.988102 -0.275591 -0.087541,
        0.988102 0.275591 -0.087541,
        0.992126 -0.275591 -0.118110,
        0.992126 0.275591 -0.118110,
        0.992126 0.275591 -0.342520,
        0.992126 -0.275591 -0.342520,
        0.988102 -0.275591 -0.373089,
        0.988102 0.275591 -0.373089,
        0.976302 -0.275591 -0.401575,
        0.976302 0.275591 -0.401575,
        0.957532 -0.275591 -0.426036,
        0.957532 0.275591 -0.426036,
        0.933071 -0.275591 -0.444806,
        0.933071 0.275591 -0.444806,
        0.904585 -0.275591 -0.456606,
        0.904585 0.275591 -0.456606,
        0.874016 -0.275591 -0.460630,
        0.874016 0.275591 -0.460630,
        0.519685 0.275591 -0.460630,
        0.519685 -0.275591 -0.460630,
      ]
    }
    coordIndex [
      8, 9, 4, -1,
      4, 9, 7, -1,
      10, 11, 12, -1,
      12, 11, 13, -1,
      14, 10, 15, -1,
      15, 10, 12, -1,
      16, 14, 17, -1,
      17, 14, 15, -1,
      16, 17, 18, -1,
      16, 18, 19, -1,
      19, 18, 20, -1,
      19, 20, 21, -1,
      21, 20, 22, -1,
      21, 22, 23, -1,
      23, 22, 24, -1,
      23, 24, 25, -1,
      25, 24, 26, -1,
      25, 26, 27, -1,
      27, 26, 28, -1,
      27, 28, 29, -1,
      30, 29, 31, -1,
      31, 29, 28, -1,
      30, 31, 32, -1,
      30, 32, 33, -1,
      33, 32, 34, -1,
      33, 34, 35, -1,
      35, 34, 36, -1,
      35, 36, 37, -1,
      37, 36, 38, -1,
      37, 38, 39, -1,
      39, 38, 40, -1,
      39, 40, 41, -1,
      41, 40, 9, -1,
      41, 9, 8, -1,
      42, 43, 6, -1,
      6, 43, 5, -1,
      43, 42, 44, -1,
      44, 42, 45, -1,
      44, 45, 46, -1,
      46, 45, 47, -1,
      46, 47, 48, -1,
      48, 47, 49, -1,
      48, 49, 50, -1,
      50, 49, 51, -1,
      50, 51, 52, -1,
      52, 51, 53, -1,
      52, 53, 54, -1,
      54, 53, 55, -1,
      56, 54, 57, -1,
      57, 54, 55, -1,
      56, 57, 58, -1,
      58, 57, 59, -1,
      58, 59, 60, -1,
      60, 59, 61, -1,
      60, 61, 62, -1,
      62, 61, 63, -1,
      62, 63, 64, -1,
      64, 63, 65, -1,
      64, 65, 66, -1,
      66, 65, 67, -1,
      66, 67, 11, -1,
      11, 67, 13, -1,
      10, 14, 11, -1,
      11, 14, 16, -1,
      11, 16, 66, -1,
      66, 16, 19, -1,
      66, 19, 64, -1,
      64, 19, 21, -1,
      64, 21, 62, -1,
      62, 21, 23, -1,
      62, 23, 60, -1,
      60, 23, 25, -1,
      60, 25, 58, -1,
      58, 25, 27, -1,
      58, 27, 56, -1,
      56, 27, 29, -1,
      56, 29, 54, -1,
      54, 29, 30, -1,
      54, 30, 52, -1,
      52, 30, 33, -1,
      52, 33, 50, -1,
      50, 33, 35, -1,
      50, 35, 48, -1,
      48, 35, 37, -1,
      48, 37, 46, -1,
      46, 37, 39, -1,
      46, 39, 44, -1,
      44, 39, 41, -1,
      44, 41, 43, -1,
      43, 41, 8, -1,
      43, 8, 5, -1,
      5, 8, 4, -1,
      6, 7, 42, -1,
      42, 7, 9, -1,
      42, 9, 45, -1,
      45, 9, 40, -1,
      45, 40, 47, -1,
      47, 40, 38, -1,
      47, 38, 49, -1,
      49, 38, 36, -1,
      49, 36, 51, -1,
      51, 36, 34, -1,
      51, 34, 53, -1,
      53, 34, 32, -1,
      53, 32, 55, -1,
      55, 32, 31, -1,
      55, 31, 57, -1,
      57, 31, 28, -1,
      57, 28, 59, -1,
      59, 28, 26, -1,
      59, 26, 61, -1,
      61, 26, 24, -1,
      61, 24, 63, -1,
      63, 24, 22, -1,
      63, 22, 65, -1,
      65, 22, 20, -1,
      65, 20, 67, -1,
      67, 20, 18, -1,
      67, 18, 13, -1,
      13, 18, 17, -1,
      13, 17, 12, -1,
      12, 17, 15, -1,
      0, 68, 3, -1,
      3, 68, 69, -1,
      70, 71, 72, -1,
      72, 71, 73, -1,
      70, 72, 74, -1,
      74, 72, 75, -1,
      74, 75, 76, -1,
      76, 75, 77, -1,
      76, 77, 78, -1,
      78, 77, 79, -1,
      78, 79, 80, -1,
      80, 79, 81, -1,
      80, 81, 82, -1,
      82, 81, 83, -1,
      82, 83, 84, -1,
      84, 83, 85, -1,
      86, 84, 87, -1,
      87, 84, 85, -1,
      86, 87, 88, -1,
      88, 87, 89, -1,
      88, 89, 90, -1,
      90, 89, 91, -1,
      90, 91, 92, -1,
      92, 91, 93, -1,
      92, 93, 94, -1,
      94, 93, 95, -1,
      94, 95, 96, -1,
      96, 95, 97, -1,
      96, 97, 98, -1,
      98, 97, 99, -1,
      2, 98, 1, -1,
      1, 98, 99, -1,
      69, 68, 100, -1,
      69, 100, 101, -1,
      101, 100, 102, -1,
      101, 102, 103, -1,
      103, 102, 104, -1,
      103, 104, 105, -1,
      105, 104, 106, -1,
      105, 106, 107, -1,
      107, 106, 108, -1,
      107, 108, 109, -1,
      109, 108, 110, -1,
      109, 110, 111, -1,
      112, 111, 113, -1,
      113, 111, 110, -1,
      112, 113, 114, -1,
      112, 114, 115, -1,
      115, 114, 116, -1,
      115, 116, 117, -1,
      117, 116, 118, -1,
      117, 118, 119, -1,
      119, 118, 120, -1,
      119, 120, 121, -1,
      121, 120, 122, -1,
      121, 122, 123, -1,
      123, 122, 124, -1,
      123, 124, 125, -1,
      126, 125, 127, -1,
      127, 125, 124, -1,
      71, 126, 73, -1,
      73, 126, 127, -1,
      2, 3, 98, -1,
      98, 3, 69, -1,
      98, 69, 96, -1,
      96, 69, 101, -1,
      96, 101, 94, -1,
      94, 101, 103, -1,
      94, 103, 92, -1,
      92, 103, 105, -1,
      92, 105, 90, -1,
      90, 105, 107, -1,
      90, 107, 88, -1,
      88, 107, 109, -1,
      88, 109, 86, -1,
      86, 109, 111, -1,
      86, 111, 84, -1,
      84, 111, 112, -1,
      84, 112, 82, -1,
      82, 112, 115, -1,
      82, 115, 80, -1,
      80, 115, 117, -1,
      80, 117, 78, -1,
      78, 117, 119, -1,
      78, 119, 76, -1,
      76, 119, 121, -1,
      76, 121, 74, -1,
      74, 121, 123, -1,
      74, 123, 70, -1,
      70, 123, 125, -1,
      70, 125, 71, -1,
      71, 125, 126, -1,
      73, 127, 72, -1,
      72, 127, 124, -1,
      72, 124, 75, -1,
      75, 124, 122, -1,
      75, 122, 77, -1,
      77, 122, 120, -1,
      77, 120, 79, -1,
      79, 120, 118, -1,
      79, 118, 81, -1,
      81, 118, 116, -1,
      81, 116, 83, -1,
      83, 116, 114, -1,
      83, 114, 85, -1,
      85, 114, 113, -1,
      85, 113, 87, -1,
      87, 113, 110, -1,
      87, 110, 89, -1,
      89, 110, 108, -1,
      89, 108, 91, -1,
      91, 108, 106, -1,
      91, 106, 93, -1,
      93, 106, 104, -1,
      93, 104, 95, -1,
      95, 104, 102, -1,
      95, 102, 97, -1,
      97, 102, 100, -1,
      97, 100, 99, -1,
      99, 100, 68, -1,
      99, 68, 1, -1,
      1, 68, 0, -1,
    ]
  }
}

Shape {
  appearance Appearance {
    material Material {
      diffuseColor 0.7529 0.7529 0.7529
      specularColor 0.3765 0.3765 0.3765
      ambientIntensity 0.2
      transparency 0.0000
      shininess 0.5
    }
  }
  geometry IndexedFaceSet {
    ccw TRUE
    solid FALSE
    coord DEF co Coordinate {
      point [
        -0.044706 -0.030744 -0.413386,
        -0.044706 -0.039386 -0.413386,
        -0.002455 -0.039386 -0.413386,
        -0.042785 0.030712 -0.413386,
        -0.013017 0.030712 -0.413386,
        -0.013017 0.004785 -0.413386,
        0.012909 -0.035305 -0.413386,
        0.012909 -0.026663 -0.413386,
        -0.002455 0.039354 -0.413386,
        -0.013017 -0.003857 -0.413386,
        -0.013017 -0.030744 -0.413386,
        -0.040865 -0.003857 -0.413386,
        -0.040865 0.004785 -0.413386,
        0.051910 -0.036713 -0.413386,
        0.078206 -0.039386 -0.413386,
        0.044278 -0.039340 -0.413386,
        0.039206 -0.039866 -0.413386,
        -0.042785 0.039354 -0.413386,
        0.067329 0.018615 -0.413386,
        0.062713 0.025977 -0.413386,
        0.107974 0.039354 -0.413386,
        0.039102 0.030801 -0.413386,
        0.044996 0.028674 -0.413386,
        0.014320 -0.027444 -0.413386,
        0.050446 0.025028 -0.413386,
        0.055201 0.019779 -0.413386,
        0.060922 -0.000856 -0.413386,
        0.060124 -0.009380 -0.413386,
        0.057985 -0.016153 -0.413386,
        0.040464 -0.030880 -0.413386,
        0.033119 -0.031704 -0.413386,
        0.046201 -0.028768 -0.413386,
        0.051033 -0.025511 -0.413386,
        0.054728 -0.021613 -0.413386,
        0.022667 -0.030544 -0.413386,
        0.058447 0.013700 -0.413386,
        0.060546 0.005270 -0.413386,
        0.055605 0.032813 -0.413386,
        0.118536 0.039354 -0.413386,
        0.118536 -0.039386 -0.413386,
        0.058244 -0.032669 -0.413386,
        0.064158 -0.026442 -0.413386,
        0.078206 -0.030744 -0.413386,
        0.068353 -0.018955 -0.413386,
        0.107974 -0.030744 -0.413386,
        0.070723 -0.010620 -0.413386,
        0.071484 -0.001502 -0.413386,
        0.070352 0.009693 -0.413386,
        0.048126 0.037119 -0.413386,
        0.039348 0.039669 -0.413386,
        0.031439 0.040314 -0.413386,
        0.022013 0.039664 -0.413386,
        0.012909 0.037193 -0.413386,
        0.012909 0.026631 -0.413386,
        0.021778 0.030429 -0.413386,
        0.031349 0.031672 -0.413386,
        0.034575 -0.040346 -0.413386,
        0.032422 -0.040309 -0.413386,
        0.029259 -0.039866 -0.413386,
        0.021302 -0.038751 -0.413386,
        -0.129207 -0.039386 -0.413386,
        -0.119514 -0.017805 -0.413386,
        -0.114998 -0.024848 -0.413386,
        -0.188743 -0.039386 -0.413386,
        -0.200265 -0.039386 -0.413386,
        -0.169537 0.039354 -0.413386,
        -0.158975 0.039354 -0.413386,
        -0.108517 -0.031054 -0.413386,
        -0.100296 -0.035831 -0.413386,
        -0.091222 -0.038536 -0.413386,
        -0.081480 -0.039386 -0.413386,
        -0.060069 -0.039386 -0.413386,
        -0.060069 0.039354 -0.413386,
        -0.082290 0.039354 -0.413386,
        -0.111531 0.029087 -0.413386,
        -0.117099 0.022913 -0.413386,
        -0.120759 0.016141 -0.413386,
        -0.093666 0.038138 -0.413386,
        -0.102879 0.034903 -0.413386,
        -0.111449 0.029159 -0.413386,
        -0.140730 -0.039386 -0.413386,
        -0.148247 -0.017300 -0.413386,
        -0.180775 -0.017300 -0.413386,
        -0.122873 0.008383 -0.413386,
        -0.123446 0.000974 -0.413386,
        -0.122341 -0.009563 -0.413386,
        -0.169537 0.039354 -0.412992,
        -0.200265 -0.039386 -0.412992,
        -0.188743 -0.039386 -0.412992,
        -0.180775 -0.017300 -0.412992,
        -0.148247 -0.017300 -0.412992,
        -0.140730 -0.039386 -0.412992,
        -0.129207 -0.039386 -0.412992,
        -0.158975 0.039354 -0.412992,
        -0.150903 -0.008658 -0.412992,
        -0.177234 -0.008658 -0.412992,
        -0.162651 0.024230 -0.412992,
        -0.163409 0.026961 -0.412992,
        -0.163911 0.029752 -0.412992,
        -0.164166 0.029752 -0.412992,
        -0.164680 0.026969 -0.412992,
        -0.165381 0.024230 -0.412992,
        -0.150903 -0.008658 -0.413386,
        -0.177234 -0.008658 -0.413386,
        -0.162651 0.024230 -0.413386,
        -0.163409 0.026961 -0.413386,
        -0.163911 0.029752 -0.413386,
        -0.164166 0.029752 -0.413386,
        -0.164680 0.026969 -0.413386,
        -0.165381 0.024230 -0.413386,
        -0.081480 -0.039386 -0.412992,
        -0.060069 -0.039386 -0.412992,
        -0.060069 0.039354 -0.412992,
        -0.082290 0.039354 -0.412992,
        -0.123446 0.000974 -0.412992,
        -0.122873 0.008383 -0.412992,
        -0.120759 0.016141 -0.412992,
        -0.117099 0.022913 -0.412992,
        -0.111531 0.029087 -0.412992,
        -0.111449 0.029159 -0.412992,
        -0.102879 0.034903 -0.412992,
        -0.093666 0.038138 -0.412992,
        -0.091222 -0.038536 -0.412992,
        -0.100296 -0.035831 -0.412992,
        -0.108517 -0.031054 -0.412992,
        -0.114998 -0.024848 -0.412992,
        -0.119514 -0.017805 -0.412992,
        -0.122341 -0.009563 -0.412992,
        -0.107641 0.019670 -0.412992,
        -0.103816 0.023731 -0.412992,
        -0.098064 0.027447 -0.412992,
        -0.091565 0.029721 -0.412992,
        -0.082245 0.030712 -0.412992,
        -0.070632 0.030712 -0.412992,
        -0.070632 -0.030744 -0.412992,
        -0.081810 -0.030744 -0.412992,
        -0.090117 -0.029971 -0.412992,
        -0.096743 -0.027902 -0.412992,
        -0.102113 -0.024714 -0.412992,
        -0.106530 -0.020352 -0.412992,
        -0.109850 -0.014923 -0.412992,
        -0.112160 -0.007521 -0.412992,
        -0.112883 0.000749 -0.412992,
        -0.112214 0.008586 -0.412992,
        -0.110376 0.014813 -0.412992,
        -0.082245 0.030712 -0.413386,
        -0.070632 0.030712 -0.413386,
        -0.091565 0.029721 -0.413386,
        -0.098064 0.027447 -0.413386,
        -0.103816 0.023731 -0.413386,
        -0.107641 0.019670 -0.413386,
        -0.110376 0.014813 -0.413386,
        -0.112214 0.008586 -0.413386,
        -0.112883 0.000749 -0.413386,
        -0.112160 -0.007521 -0.413386,
        -0.109850 -0.014923 -0.413386,
        -0.106530 -0.020352 -0.413386,
        -0.102113 -0.024714 -0.413386,
        -0.096743 -0.027902 -0.413386,
        -0.090117 -0.029971 -0.413386,
        -0.081810 -0.030744 -0.413386,
        -0.070632 -0.030744 -0.413386,
        -0.044706 -0.030744 -0.412992,
        -0.044706 -0.039386 -0.412992,
        -0.002455 -0.039386 -0.412992,
        -0.002455 0.039354 -0.412992,
        -0.042785 0.039354 -0.412992,
        -0.042785 0.030712 -0.412992,
        -0.013017 0.030712 -0.412992,
        -0.013017 0.004785 -0.412992,
        -0.040865 0.004785 -0.412992,
        -0.040865 -0.003857 -0.412992,
        -0.013017 -0.003857 -0.412992,
        -0.013017 -0.030744 -0.412992,
        0.012909 -0.026663 -0.412992,
        0.012909 -0.035305 -0.412992,
        0.021302 -0.038751 -0.412992,
        0.034575 -0.040346 -0.412992,
        0.032422 -0.040309 -0.412992,
        0.044278 -0.039340 -0.412992,
        0.051910 -0.036713 -0.412992,
        0.058244 -0.032669 -0.412992,
        0.064158 -0.026442 -0.412992,
        0.068353 -0.018955 -0.412992,
        0.070723 -0.010620 -0.412992,
        0.071484 -0.001502 -0.412992,
        0.031439 0.040314 -0.412992,
        0.039348 0.039669 -0.412992,
        0.048126 0.037119 -0.412992,
        0.055605 0.032813 -0.412992,
        0.062713 0.025977 -0.412992,
        0.067329 0.018615 -0.412992,
        0.070352 0.009693 -0.412992,
        0.012909 0.037193 -0.412992,
        0.022013 0.039664 -0.412992,
        0.012909 0.026631 -0.412992,
        0.031349 0.031672 -0.412992,
        0.021778 0.030429 -0.412992,
        0.060922 -0.000856 -0.412992,
        0.060546 0.005270 -0.412992,
        0.058447 0.013700 -0.412992,
        0.055201 0.019779 -0.412992,
        0.050446 0.025028 -0.412992,
        0.044996 0.028674 -0.412992,
        0.039102 0.030801 -0.412992,
        0.033119 -0.031704 -0.412992,
        0.040464 -0.030880 -0.412992,
        0.046201 -0.028768 -0.412992,
        0.051033 -0.025511 -0.412992,
        0.054728 -0.021613 -0.412992,
        0.057985 -0.016153 -0.412992,
        0.060124 -0.009380 -0.412992,
        0.014320 -0.027444 -0.412992,
        0.022667 -0.030544 -0.412992,
        0.078206 -0.030744 -0.412992,
        0.078206 -0.039386 -0.412992,
        0.118536 -0.039386 -0.412992,
        0.118536 0.039354 -0.412992,
        0.107974 0.039354 -0.412992,
        0.107974 -0.030744 -0.412992,
      ]
    }
    coordIndex [
      86, 87, 65, -1,
      65, 87, 64, -1,
      87, 88, 64, -1,
      64, 88, 63, -1,
      88, 89, 63, -1,
      63, 89, 82, -1,
      89, 90, 82, -1,
      82, 90, 81, -1,
      90, 91, 81, -1,
      81, 91, 80, -1,
      91, 92, 80, -1,
      80, 92, 60, -1,
      92, 93, 60, -1,
      60, 93, 66, -1,
      93, 86, 66, -1,
      66, 86, 65, -1,
      94, 90, 95, -1,
      95, 90, 89, -1,
      96, 93, 94, -1,
      94, 93, 92, -1,
      94, 92, 90, -1,
      90, 92, 91, -1,
      96, 97, 93, -1,
      93, 97, 98, -1,
      93, 98, 86, -1,
      86, 98, 99, -1,
      86, 99, 100, -1,
      100, 101, 86, -1,
      86, 101, 95, -1,
      86, 95, 87, -1,
      87, 95, 89, -1,
      87, 89, 88, -1,
      94, 95, 102, -1,
      102, 95, 103, -1,
      96, 94, 104, -1,
      104, 94, 102, -1,
      96, 104, 105, -1,
      96, 105, 97, -1,
      97, 105, 106, -1,
      97, 106, 98, -1,
      99, 98, 107, -1,
      107, 98, 106, -1,
      99, 107, 108, -1,
      99, 108, 100, -1,
      100, 108, 109, -1,
      100, 109, 101, -1,
      95, 101, 103, -1,
      103, 101, 109, -1,
      110, 111, 70, -1,
      70, 111, 71, -1,
      111, 112, 71, -1,
      71, 112, 72, -1,
      112, 113, 72, -1,
      72, 113, 73, -1,
      114, 84, 83, -1,
      114, 83, 115, -1,
      115, 83, 76, -1,
      115, 76, 116, -1,
      116, 76, 75, -1,
      116, 75, 117, -1,
      117, 75, 74, -1,
      117, 74, 118, -1,
      118, 74, 79, -1,
      118, 79, 119, -1,
      119, 79, 78, -1,
      119, 78, 120, -1,
      120, 78, 77, -1,
      120, 77, 121, -1,
      121, 77, 73, -1,
      121, 73, 113, -1,
      110, 70, 69, -1,
      110, 69, 122, -1,
      122, 69, 68, -1,
      122, 68, 123, -1,
      123, 68, 67, -1,
      123, 67, 124, -1,
      124, 67, 62, -1,
      124, 62, 125, -1,
      125, 62, 61, -1,
      125, 61, 126, -1,
      126, 61, 85, -1,
      126, 85, 127, -1,
      127, 85, 84, -1,
      127, 84, 114, -1,
      116, 117, 128, -1,
      128, 117, 118, -1,
      128, 118, 129, -1,
      129, 118, 119, -1,
      129, 119, 130, -1,
      130, 119, 120, -1,
      130, 120, 131, -1,
      131, 120, 121, -1,
      131, 121, 132, -1,
      132, 121, 113, -1,
      132, 113, 133, -1,
      133, 113, 112, -1,
      133, 112, 134, -1,
      134, 112, 111, -1,
      134, 111, 135, -1,
      135, 111, 110, -1,
      135, 110, 136, -1,
      136, 110, 122, -1,
      136, 122, 137, -1,
      137, 122, 123, -1,
      137, 123, 138, -1,
      138, 123, 124, -1,
      138, 124, 139, -1,
      139, 124, 125, -1,
      139, 125, 140, -1,
      140, 125, 126, -1,
      140, 126, 141, -1,
      141, 126, 127, -1,
      141, 127, 142, -1,
      142, 127, 114, -1,
      142, 114, 143, -1,
      143, 114, 115, -1,
      143, 115, 144, -1,
      144, 115, 116, -1,
      144, 116, 128, -1,
      132, 133, 145, -1,
      145, 133, 146, -1,
      132, 145, 147, -1,
      132, 147, 131, -1,
      131, 147, 148, -1,
      131, 148, 130, -1,
      130, 148, 149, -1,
      130, 149, 129, -1,
      129, 149, 150, -1,
      129, 150, 128, -1,
      128, 150, 151, -1,
      128, 151, 144, -1,
      144, 151, 152, -1,
      144, 152, 143, -1,
      143, 152, 153, -1,
      143, 153, 142, -1,
      142, 153, 154, -1,
      142, 154, 141, -1,
      141, 154, 155, -1,
      141, 155, 140, -1,
      140, 155, 156, -1,
      140, 156, 139, -1,
      139, 156, 157, -1,
      139, 157, 138, -1,
      138, 157, 158, -1,
      138, 158, 137, -1,
      137, 158, 159, -1,
      137, 159, 136, -1,
      136, 159, 160, -1,
      136, 160, 135, -1,
      134, 135, 161, -1,
      161, 135, 160, -1,
      133, 134, 146, -1,
      146, 134, 161, -1,
      162, 163, 0, -1,
      0, 163, 1, -1,
      163, 164, 1, -1,
      1, 164, 2, -1,
      164, 165, 2, -1,
      2, 165, 8, -1,
      165, 166, 8, -1,
      8, 166, 17, -1,
      166, 167, 17, -1,
      17, 167, 3, -1,
      167, 168, 3, -1,
      3, 168, 4, -1,
      168, 169, 4, -1,
      4, 169, 5, -1,
      169, 170, 5, -1,
      5, 170, 12, -1,
      170, 171, 12, -1,
      12, 171, 11, -1,
      171, 172, 11, -1,
      11, 172, 9, -1,
      172, 173, 9, -1,
      9, 173, 10, -1,
      173, 162, 10, -1,
      10, 162, 0, -1,
      164, 163, 162, -1,
      162, 173, 164, -1,
      164, 173, 172, -1,
      164, 172, 165, -1,
      167, 166, 168, -1,
      168, 166, 165, -1,
      168, 165, 169, -1,
      169, 165, 172, -1,
      169, 172, 170, -1,
      170, 172, 171, -1,
      174, 175, 7, -1,
      7, 175, 6, -1,
      6, 175, 176, -1,
      177, 56, 57, -1,
      177, 57, 178, -1,
      178, 57, 58, -1,
      178, 58, 176, -1,
      176, 58, 59, -1,
      176, 59, 6, -1,
      56, 177, 16, -1,
      16, 177, 179, -1,
      16, 179, 15, -1,
      15, 179, 180, -1,
      15, 180, 13, -1,
      13, 180, 181, -1,
      13, 181, 40, -1,
      40, 181, 182, -1,
      40, 182, 41, -1,
      41, 182, 183, -1,
      41, 183, 43, -1,
      43, 183, 184, -1,
      43, 184, 45, -1,
      45, 184, 185, -1,
      45, 185, 46, -1,
      186, 50, 49, -1,
      186, 49, 187, -1,
      187, 49, 48, -1,
      187, 48, 188, -1,
      188, 48, 37, -1,
      188, 37, 189, -1,
      189, 37, 19, -1,
      189, 19, 190, -1,
      190, 19, 18, -1,
      190, 18, 191, -1,
      191, 18, 47, -1,
      191, 47, 192, -1,
      192, 47, 46, -1,
      192, 46, 185, -1,
      193, 52, 51, -1,
      193, 51, 194, -1,
      194, 51, 50, -1,
      194, 50, 186, -1,
      193, 195, 52, -1,
      52, 195, 53, -1,
      196, 55, 54, -1,
      196, 54, 197, -1,
      197, 54, 53, -1,
      197, 53, 195, -1,
      198, 26, 36, -1,
      198, 36, 199, -1,
      199, 36, 35, -1,
      199, 35, 200, -1,
      200, 35, 25, -1,
      200, 25, 201, -1,
      201, 25, 24, -1,
      201, 24, 202, -1,
      202, 24, 22, -1,
      202, 22, 203, -1,
      203, 22, 21, -1,
      203, 21, 204, -1,
      204, 21, 55, -1,
      204, 55, 196, -1,
      205, 30, 29, -1,
      205, 29, 206, -1,
      206, 29, 31, -1,
      206, 31, 207, -1,
      207, 31, 32, -1,
      207, 32, 208, -1,
      208, 32, 33, -1,
      208, 33, 209, -1,
      209, 33, 28, -1,
      209, 28, 210, -1,
      210, 28, 27, -1,
      210, 27, 211, -1,
      211, 27, 26, -1,
      211, 26, 198, -1,
      174, 7, 23, -1,
      174, 23, 212, -1,
      212, 23, 34, -1,
      212, 34, 213, -1,
      213, 34, 30, -1,
      213, 30, 205, -1,
      206, 177, 205, -1,
      205, 177, 178, -1,
      205, 178, 213, -1,
      213, 178, 176, -1,
      213, 176, 212, -1,
      212, 176, 175, -1,
      212, 175, 174, -1,
      195, 193, 197, -1,
      197, 193, 194, -1,
      197, 194, 196, -1,
      196, 194, 186, -1,
      196, 186, 204, -1,
      204, 186, 187, -1,
      204, 187, 203, -1,
      203, 187, 188, -1,
      203, 188, 202, -1,
      202, 188, 189, -1,
      202, 189, 201, -1,
      201, 189, 190, -1,
      201, 190, 200, -1,
      200, 190, 191, -1,
      200, 191, 199, -1,
      199, 191, 192, -1,
      199, 192, 198, -1,
      198, 192, 185, -1,
      198, 185, 211, -1,
      211, 185, 184, -1,
      211, 184, 210, -1,
      210, 184, 183, -1,
      210, 183, 209, -1,
      209, 183, 182, -1,
      209, 182, 208, -1,
      208, 182, 181, -1,
      208, 181, 207, -1,
      207, 181, 180, -1,
      207, 180, 206, -1,
      206, 180, 179, -1,
      206, 179, 177, -1,
      214, 215, 42, -1,
      42, 215, 14, -1,
      215, 216, 14, -1,
      14, 216, 39, -1,
      216, 217, 39, -1,
      39, 217, 38, -1,
      217, 218, 38, -1,
      38, 218, 20, -1,
      218, 219, 20, -1,
      20, 219, 44, -1,
      219, 214, 44, -1,
      44, 214, 42, -1,
      218, 217, 219, -1,
      219, 217, 216, -1,
      219, 216, 214, -1,
      214, 216, 215, -1,
    ]
  }
}

Shape {
  appearance Appearance {
    material Material {
      diffuseColor 0.2510 0.2510 0.2510
      specularColor 0.1255 0.1255 0.1255
      ambientIntensity 0.2
      transparency 0.0000
      shininess 0.5
    }
  }
  geometry IndexedFaceSet {
    ccw TRUE
    solid FALSE
    coord DEF co Coordinate {
      point [
        -0.150903 -0.008658 -0.413386,
        -0.177234 -0.008658 -0.413386,
        -0.162651 0.024230 -0.413386,
        -0.163409 0.026961 -0.413386,
        -0.163911 0.029752 -0.413386,
        -0.164166 0.029752 -0.413386,
        -0.164680 0.026969 -0.413386,
        -0.165381 0.024230 -0.413386,
        -0.082245 0.030712 -0.413386,
        -0.070632 0.030712 -0.413386,
        -0.091565 0.029721 -0.413386,
        -0.098064 0.027447 -0.413386,
        -0.103816 0.023731 -0.413386,
        -0.107641 0.019670 -0.413386,
        -0.110376 0.014813 -0.413386,
        -0.112214 0.008586 -0.413386,
        -0.112883 0.000749 -0.413386,
        -0.112160 -0.007521 -0.413386,
        -0.109850 -0.014923 -0.413386,
        -0.106530 -0.020352 -0.413386,
        -0.102113 -0.024714 -0.413386,
        -0.096743 -0.027902 -0.413386,
        -0.090117 -0.029971 -0.413386,
        -0.081810 -0.030744 -0.413386,
        -0.070632 -0.030744 -0.413386,
      ]
    }
    coordIndex [
      0, 1, 2, -1,
      2, 1, 7, -1,
      2, 7, 3, -1,
      3, 7, 6, -1,
      3, 6, 4, -1,
      4, 6, 5, -1,
      9, 24, 8, -1,
      8, 24, 23, -1,
      8, 23, 22, -1,
      16, 15, 8, -1,
      8, 15, 14, -1,
      8, 14, 10, -1,
      22, 21, 8, -1,
      8, 21, 20, -1,
      8, 20, 19, -1,
      19, 18, 8, -1,
      8, 18, 17, -1,
      8, 17, 16, -1,
      13, 12, 14, -1,
      14, 12, 11, -1,
      14, 11, 10, -1,
    ]
  }
}

Shape {
  appearance Appearance {
    material Material {
      diffuseColor 0.7529 0.7529 0.7529
      specularColor 0.3765 0.3765 0.3765
      ambientIntensity 0.2
      transparency 0.0000
      shininess 0.5
    }
  }
  geometry IndexedFaceSet {
    ccw TRUE
    solid FALSE
    coord DEF co Coordinate {
      point [
        -0.426683 -0.458605 0.413386,
        -0.426683 0.458605 0.413386,
        -0.426683 0.458674 0.412992,
        -0.590063 0.458674 0.412992,
        -0.590063 0.458605 0.413386,
        -0.590063 -0.458605 0.413386,
        -0.590063 -0.458674 0.412992,
        -0.426683 -0.458674 0.412992,
      ]
    }
    coordIndex [
      6, 7, 3, -1,
      3, 7, 2, -1,
      0, 1, 7, -1,
      7, 1, 2, -1,
      6, 3, 5, -1,
      5, 3, 4, -1,
    ]
  }
}

Shape {
  appearance Appearance {
    material Material {
      diffuseColor 1.0000 1.0000 1.0000
      specularColor 0.5020 0.5020 0.5020
      ambientIntensity 0.2
      transparency 0.0000
      shininess 0.5
    }
  }
  geometry IndexedFaceSet {
    ccw TRUE
    solid FALSE
    coord DEF co Coordinate {
      point [
        -0.126824 0.066636 0.413386,
        -0.110980 0.066636 0.413386,
        0.182856 0.046111 0.413386,
        0.170020 0.052091 0.413386,
        0.155558 0.054871 0.413386,
        -0.029617 0.003822 0.413386,
        -0.022804 -0.002526 0.413386,
        -0.020237 0.047551 0.413386,
        -0.018878 -0.008432 0.413386,
        -0.016687 -0.014352 0.413386,
        0.034498 -0.051474 0.413386,
        -0.015915 -0.021024 0.413386,
        -0.016845 -0.029322 0.413386,
        -0.164552 -0.038855 0.413386,
        -0.156091 -0.039933 0.413386,
        -0.126824 -0.005607 0.413386,
        -0.115216 -0.028809 0.413386,
        -0.119473 -0.036798 0.413386,
        -0.087934 -0.046793 0.413386,
        -0.125274 -0.043259 0.413386,
        -0.132333 -0.047949 0.413386,
        -0.142153 -0.051414 0.413386,
        0.185736 0.010461 0.413386,
        0.169892 -0.034730 0.413386,
        0.169892 -0.002502 0.413386,
        0.168465 -0.035467 0.413386,
        0.143966 -0.002502 0.413386,
        0.158894 -0.038794 0.413386,
        -0.019035 -0.035307 0.413386,
        -0.022851 -0.040845 0.413386,
        -0.027791 -0.045157 0.413386,
        -0.112054 -0.017169 0.413386,
        -0.087934 -0.029509 0.413386,
        -0.110980 -0.003042 0.413386,
        -0.177273 -0.049289 0.413386,
        -0.184300 -0.045400 0.413386,
        -0.190212 -0.039903 0.413386,
        -0.194581 -0.033279 0.413386,
        -0.184439 0.066636 0.413386,
        -0.184439 -0.004482 0.413386,
        -0.183638 -0.015230 0.413386,
        -0.181573 -0.023203 0.413386,
        0.034498 0.048856 0.413386,
        0.023587 0.041531 0.413386,
        0.009342 0.035552 0.413386,
        0.007131 0.034948 0.413386,
        -0.046996 0.013972 0.413386,
        -0.029166 0.052188 0.413386,
        -0.057974 0.019790 0.413386,
        -0.039263 0.054601 0.413386,
        -0.047423 0.055113 0.413386,
        -0.169810 -0.036898 0.413386,
        0.119215 -0.047282 0.413386,
        0.108242 -0.040087 0.413386,
        0.048901 -0.051474 0.413386,
        0.127366 -0.035757 0.413386,
        0.135574 -0.038683 0.413386,
        0.147206 -0.039951 0.413386,
        0.108320 0.026957 0.413386,
        0.105709 0.016315 0.413386,
        0.143966 0.010461 0.413386,
        0.105076 0.007041 0.413386,
        0.106229 -0.006092 0.413386,
        0.109274 -0.016362 0.413386,
        0.167072 0.066749 0.413386,
        0.182856 0.061955 0.413386,
        -0.034465 -0.048810 0.413386,
        -0.045993 -0.052024 0.413386,
        -0.058204 -0.052915 0.413386,
        -0.156599 -0.052915 0.413386,
        -0.168035 -0.051969 0.413386,
        -0.155136 -0.039951 0.413386,
        -0.147824 -0.039285 0.413386,
        -0.127992 -0.018165 0.413386,
        -0.142038 -0.037508 0.413386,
        0.026099 0.057011 0.413386,
        0.043297 0.068076 0.413386,
        -0.020237 0.064835 0.413386,
        0.131000 -0.051348 0.413386,
        0.113883 -0.024465 0.413386,
        0.120323 -0.031250 0.413386,
        0.149209 0.055113 0.413386,
        0.137662 0.053762 0.413386,
        0.128719 0.050415 0.413386,
        -0.073405 -0.051348 0.413386,
        -0.084148 -0.048603 0.413386,
        -0.198452 -0.022513 0.413386,
        -0.200265 -0.005689 0.413386,
        0.089231 0.006028 0.413386,
        0.091040 0.022557 0.413386,
        0.048901 0.068076 0.413386,
        0.120542 0.044813 0.413386,
        0.113278 0.036613 0.413386,
        -0.200283 0.066636 0.413386,
        -0.200283 -0.004797 0.413386,
        -0.178208 -0.029644 0.413386,
        -0.174555 -0.033707 0.413386,
        -0.137463 -0.034807 0.413386,
        -0.133833 -0.031284 0.413386,
        -0.130628 -0.026171 0.413386,
        0.007131 0.049352 0.413386,
        0.095735 0.035716 0.413386,
        0.103967 0.047944 0.413386,
        0.114350 0.057353 0.413386,
        0.185736 -0.042990 0.413386,
        0.166500 -0.050559 0.413386,
        0.145946 -0.052915 0.413386,
        -0.070328 0.030178 0.413386,
        -0.071571 0.033434 0.413386,
        -0.072090 0.037941 0.413386,
        -0.068331 0.027248 0.413386,
        -0.064709 0.024072 0.413386,
        0.099535 -0.030463 0.413386,
        0.093444 -0.018949 0.413386,
        0.090114 -0.006165 0.413386,
        -0.068953 0.047238 0.413386,
        -0.070675 0.044558 0.413386,
        -0.071719 0.041520 0.413386,
        -0.055692 0.054363 0.413386,
        -0.061962 0.052358 0.413386,
        -0.066262 0.049824 0.413386,
        -0.081762 0.018454 0.413386,
        -0.085147 0.023789 0.413386,
        -0.087259 0.029946 0.413386,
        -0.087934 0.036388 0.413386,
        -0.086876 0.044550 0.413386,
        -0.084567 0.050203 0.413386,
        -0.080855 0.055331 0.413386,
        -0.075783 0.059731 0.413386,
        -0.069141 0.063547 0.413386,
        -0.059220 0.066803 0.413386,
        -0.046163 0.068076 0.413386,
        -0.033051 0.067516 0.413386,
        0.125991 0.063659 0.413386,
        0.139370 0.067265 0.413386,
        0.150605 0.068076 0.413386,
        -0.076526 0.013456 0.413386,
        -0.059059 0.002877 0.413386,
        -0.079300 -0.034814 0.413386,
        -0.043007 -0.005642 0.413386,
        -0.065319 -0.039112 0.413386,
        -0.041361 -0.006691 0.413386,
        -0.056448 -0.039951 0.413386,
        -0.047872 -0.039291 0.413386,
        -0.041878 -0.037670 0.413386,
        -0.037642 -0.035331 0.413386,
        -0.035182 -0.033014 0.413386,
        -0.033619 -0.030672 0.413386,
        -0.032259 -0.026988 0.413386,
        -0.031759 -0.022329 0.413386,
        -0.032273 -0.018138 0.413386,
        -0.033611 -0.014778 0.413386,
        -0.036500 -0.010816 0.413386,
        0.185736 0.010461 0.412992,
        0.185736 -0.042990 0.412992,
        0.145946 -0.052915 0.412992,
        0.166500 -0.050559 0.412992,
        0.089231 0.006028 0.412992,
        0.090114 -0.006165 0.412992,
        0.093444 -0.018949 0.412992,
        0.099535 -0.030463 0.412992,
        0.108242 -0.040087 0.412992,
        0.119215 -0.047282 0.412992,
        0.131000 -0.051348 0.412992,
        0.150605 0.068076 0.412992,
        0.139370 0.067265 0.412992,
        0.125991 0.063659 0.412992,
        0.114350 0.057353 0.412992,
        0.103967 0.047944 0.412992,
        0.095735 0.035716 0.412992,
        0.091040 0.022557 0.412992,
        0.182856 0.061955 0.412992,
        0.167072 0.066749 0.412992,
        0.182856 0.046111 0.412992,
        0.149209 0.055113 0.412992,
        0.155558 0.054871 0.412992,
        0.170020 0.052091 0.412992,
        0.105076 0.007041 0.412992,
        0.105709 0.016315 0.412992,
        0.108320 0.026957 0.412992,
        0.113278 0.036613 0.412992,
        0.120542 0.044813 0.412992,
        0.128719 0.050415 0.412992,
        0.137662 0.053762 0.412992,
        0.147206 -0.039951 0.412992,
        0.135574 -0.038683 0.412992,
        0.127366 -0.035757 0.412992,
        0.120323 -0.031250 0.412992,
        0.113883 -0.024465 0.412992,
        0.109274 -0.016362 0.412992,
        0.106229 -0.006092 0.412992,
        0.169892 -0.034730 0.412992,
        0.168465 -0.035467 0.412992,
        0.158894 -0.038794 0.412992,
        0.169892 -0.002502 0.412992,
        0.143966 -0.002502 0.412992,
        0.143966 0.010461 0.412992,
        0.048901 -0.051474 0.412992,
        0.034498 -0.051474 0.412992,
        0.034498 0.048856 0.412992,
        0.007131 0.034948 0.412992,
        0.009342 0.035552 0.412992,
        0.023587 0.041531 0.412992,
        0.007131 0.049352 0.412992,
        0.043297 0.068076 0.412992,
        0.026099 0.057011 0.412992,
        0.048901 0.068076 0.412992,
        -0.087934 -0.046793 0.412992,
        -0.087934 -0.029509 0.412992,
        -0.056448 -0.039951 0.412992,
        -0.065319 -0.039112 0.412992,
        -0.079300 -0.034814 0.412992,
        -0.031759 -0.022329 0.412992,
        -0.032259 -0.026988 0.412992,
        -0.033619 -0.030672 0.412992,
        -0.035182 -0.033014 0.412992,
        -0.037642 -0.035331 0.412992,
        -0.041878 -0.037670 0.412992,
        -0.047872 -0.039291 0.412992,
        -0.059059 0.002877 0.412992,
        -0.043007 -0.005642 0.412992,
        -0.041361 -0.006691 0.412992,
        -0.036500 -0.010816 0.412992,
        -0.033611 -0.014778 0.412992,
        -0.032273 -0.018138 0.412992,
        -0.087934 0.036388 0.412992,
        -0.087259 0.029946 0.412992,
        -0.085147 0.023789 0.412992,
        -0.081762 0.018454 0.412992,
        -0.076526 0.013456 0.412992,
        -0.046163 0.068076 0.412992,
        -0.059220 0.066803 0.412992,
        -0.069141 0.063547 0.412992,
        -0.075783 0.059731 0.412992,
        -0.080855 0.055331 0.412992,
        -0.084567 0.050203 0.412992,
        -0.086876 0.044550 0.412992,
        -0.020237 0.064835 0.412992,
        -0.033051 0.067516 0.412992,
        -0.020237 0.047551 0.412992,
        -0.047423 0.055113 0.412992,
        -0.039263 0.054601 0.412992,
        -0.029166 0.052188 0.412992,
        -0.072090 0.037941 0.412992,
        -0.071719 0.041520 0.412992,
        -0.070675 0.044558 0.412992,
        -0.068953 0.047238 0.412992,
        -0.066262 0.049824 0.412992,
        -0.061962 0.052358 0.412992,
        -0.055692 0.054363 0.412992,
        -0.046996 0.013972 0.412992,
        -0.057974 0.019790 0.412992,
        -0.064709 0.024072 0.412992,
        -0.068331 0.027248 0.412992,
        -0.070328 0.030178 0.412992,
        -0.071571 0.033434 0.412992,
        -0.015915 -0.021024 0.412992,
        -0.016687 -0.014352 0.412992,
        -0.018878 -0.008432 0.412992,
        -0.022804 -0.002526 0.412992,
        -0.029617 0.003822 0.412992,
        -0.058204 -0.052915 0.412992,
        -0.045993 -0.052024 0.412992,
        -0.034465 -0.048810 0.412992,
        -0.027791 -0.045157 0.412992,
        -0.022851 -0.040845 0.412992,
        -0.019035 -0.035307 0.412992,
        -0.016845 -0.029322 0.412992,
        -0.084148 -0.048603 0.412992,
        -0.073405 -0.051348 0.412992,
        -0.110980 0.066636 0.412992,
        -0.110980 -0.003042 0.412992,
        -0.156599 -0.052915 0.412992,
        -0.142153 -0.051414 0.412992,
        -0.132333 -0.047949 0.412992,
        -0.125274 -0.043259 0.412992,
        -0.119473 -0.036798 0.412992,
        -0.115216 -0.028809 0.412992,
        -0.112054 -0.017169 0.412992,
        -0.200283 -0.004797 0.412992,
        -0.200265 -0.005689 0.412992,
        -0.198452 -0.022513 0.412992,
        -0.194581 -0.033279 0.412992,
        -0.190212 -0.039903 0.412992,
        -0.184300 -0.045400 0.412992,
        -0.177273 -0.049289 0.412992,
        -0.168035 -0.051969 0.412992,
        -0.200283 0.066636 0.412992,
        -0.184439 0.066636 0.412992,
        -0.184439 -0.004482 0.412992,
        -0.155136 -0.039951 0.412992,
        -0.156091 -0.039933 0.412992,
        -0.164552 -0.038855 0.412992,
        -0.169810 -0.036898 0.412992,
        -0.174555 -0.033707 0.412992,
        -0.178208 -0.029644 0.412992,
        -0.181573 -0.023203 0.412992,
        -0.183638 -0.015230 0.412992,
        -0.126824 -0.005607 0.412992,
        -0.127992 -0.018165 0.412992,
        -0.130628 -0.026171 0.412992,
        -0.133833 -0.031284 0.412992,
        -0.137463 -0.034807 0.412992,
        -0.142038 -0.037508 0.412992,
        -0.147824 -0.039285 0.412992,
        -0.126824 0.066636 0.412992,
      ]
    }
    coordIndex [
      153, 154, 22, -1,
      22, 154, 104, -1,
      155, 106, 105, -1,
      155, 105, 156, -1,
      156, 105, 104, -1,
      156, 104, 154, -1,
      157, 88, 114, -1,
      157, 114, 158, -1,
      158, 114, 113, -1,
      158, 113, 159, -1,
      159, 113, 112, -1,
      159, 112, 160, -1,
      160, 112, 53, -1,
      160, 53, 161, -1,
      161, 53, 52, -1,
      161, 52, 162, -1,
      162, 52, 78, -1,
      162, 78, 163, -1,
      163, 78, 106, -1,
      163, 106, 155, -1,
      164, 135, 134, -1,
      164, 134, 165, -1,
      165, 134, 133, -1,
      165, 133, 166, -1,
      166, 133, 103, -1,
      166, 103, 167, -1,
      167, 103, 102, -1,
      167, 102, 168, -1,
      168, 102, 101, -1,
      168, 101, 169, -1,
      169, 101, 89, -1,
      169, 89, 170, -1,
      170, 89, 88, -1,
      170, 88, 157, -1,
      171, 65, 64, -1,
      171, 64, 172, -1,
      172, 64, 135, -1,
      172, 135, 164, -1,
      171, 173, 65, -1,
      65, 173, 2, -1,
      174, 81, 4, -1,
      174, 4, 175, -1,
      175, 4, 3, -1,
      175, 3, 176, -1,
      176, 3, 2, -1,
      176, 2, 173, -1,
      177, 61, 59, -1,
      177, 59, 178, -1,
      178, 59, 58, -1,
      178, 58, 179, -1,
      179, 58, 92, -1,
      179, 92, 180, -1,
      180, 92, 91, -1,
      180, 91, 181, -1,
      181, 91, 83, -1,
      181, 83, 182, -1,
      182, 83, 82, -1,
      182, 82, 183, -1,
      183, 82, 81, -1,
      183, 81, 174, -1,
      184, 57, 56, -1,
      184, 56, 185, -1,
      185, 56, 55, -1,
      185, 55, 186, -1,
      186, 55, 80, -1,
      186, 80, 187, -1,
      187, 80, 79, -1,
      187, 79, 188, -1,
      188, 79, 63, -1,
      188, 63, 189, -1,
      189, 63, 62, -1,
      189, 62, 190, -1,
      190, 62, 61, -1,
      190, 61, 177, -1,
      191, 23, 25, -1,
      191, 25, 192, -1,
      192, 25, 27, -1,
      192, 27, 193, -1,
      193, 27, 57, -1,
      193, 57, 184, -1,
      191, 194, 23, -1,
      23, 194, 24, -1,
      194, 195, 24, -1,
      24, 195, 26, -1,
      195, 196, 26, -1,
      26, 196, 60, -1,
      196, 153, 60, -1,
      60, 153, 22, -1,
      196, 195, 153, -1,
      153, 195, 194, -1,
      153, 194, 154, -1,
      154, 194, 191, -1,
      154, 191, 156, -1,
      173, 171, 176, -1,
      176, 171, 172, -1,
      176, 172, 175, -1,
      175, 172, 164, -1,
      191, 192, 156, -1,
      156, 192, 193, -1,
      156, 193, 155, -1,
      155, 193, 184, -1,
      155, 184, 163, -1,
      163, 184, 185, -1,
      163, 185, 162, -1,
      162, 185, 186, -1,
      162, 186, 161, -1,
      161, 186, 187, -1,
      161, 187, 160, -1,
      160, 187, 188, -1,
      160, 188, 159, -1,
      159, 188, 189, -1,
      159, 189, 158, -1,
      158, 189, 190, -1,
      158, 190, 157, -1,
      157, 190, 177, -1,
      157, 177, 170, -1,
      170, 177, 178, -1,
      170, 178, 169, -1,
      169, 178, 179, -1,
      169, 179, 168, -1,
      168, 179, 180, -1,
      168, 180, 167, -1,
      167, 180, 181, -1,
      167, 181, 166, -1,
      166, 181, 182, -1,
      166, 182, 165, -1,
      165, 182, 183, -1,
      165, 183, 164, -1,
      164, 183, 174, -1,
      164, 174, 175, -1,
      197, 198, 54, -1,
      54, 198, 10, -1,
      198, 199, 10, -1,
      10, 199, 42, -1,
      200, 45, 44, -1,
      200, 44, 201, -1,
      201, 44, 43, -1,
      201, 43, 202, -1,
      202, 43, 42, -1,
      202, 42, 199, -1,
      200, 203, 45, -1,
      45, 203, 100, -1,
      204, 76, 75, -1,
      204, 75, 205, -1,
      205, 75, 100, -1,
      205, 100, 203, -1,
      204, 206, 76, -1,
      76, 206, 90, -1,
      206, 197, 90, -1,
      90, 197, 54, -1,
      198, 197, 199, -1,
      199, 197, 206, -1,
      206, 204, 199, -1,
      199, 204, 205, -1,
      199, 205, 202, -1,
      202, 205, 203, -1,
      202, 203, 201, -1,
      201, 203, 200, -1,
      207, 208, 18, -1,
      18, 208, 32, -1,
      209, 142, 140, -1,
      209, 140, 210, -1,
      210, 140, 138, -1,
      210, 138, 211, -1,
      211, 138, 32, -1,
      211, 32, 208, -1,
      212, 149, 148, -1,
      212, 148, 213, -1,
      213, 148, 147, -1,
      213, 147, 214, -1,
      214, 147, 146, -1,
      214, 146, 215, -1,
      215, 146, 145, -1,
      215, 145, 216, -1,
      216, 145, 144, -1,
      216, 144, 217, -1,
      217, 144, 143, -1,
      217, 143, 218, -1,
      218, 143, 142, -1,
      218, 142, 209, -1,
      219, 137, 139, -1,
      219, 139, 220, -1,
      220, 139, 141, -1,
      220, 141, 221, -1,
      221, 141, 152, -1,
      221, 152, 222, -1,
      222, 152, 151, -1,
      222, 151, 223, -1,
      223, 151, 150, -1,
      223, 150, 224, -1,
      224, 150, 149, -1,
      224, 149, 212, -1,
      225, 124, 123, -1,
      225, 123, 226, -1,
      226, 123, 122, -1,
      226, 122, 227, -1,
      227, 122, 121, -1,
      227, 121, 228, -1,
      228, 121, 136, -1,
      228, 136, 229, -1,
      229, 136, 137, -1,
      229, 137, 219, -1,
      230, 131, 130, -1,
      230, 130, 231, -1,
      231, 130, 129, -1,
      231, 129, 232, -1,
      232, 129, 128, -1,
      232, 128, 233, -1,
      233, 128, 127, -1,
      233, 127, 234, -1,
      234, 127, 126, -1,
      234, 126, 235, -1,
      235, 126, 125, -1,
      235, 125, 236, -1,
      236, 125, 124, -1,
      236, 124, 225, -1,
      237, 77, 132, -1,
      237, 132, 238, -1,
      238, 132, 131, -1,
      238, 131, 230, -1,
      237, 239, 77, -1,
      77, 239, 7, -1,
      240, 50, 49, -1,
      240, 49, 241, -1,
      241, 49, 47, -1,
      241, 47, 242, -1,
      242, 47, 7, -1,
      242, 7, 239, -1,
      243, 109, 117, -1,
      243, 117, 244, -1,
      244, 117, 116, -1,
      244, 116, 245, -1,
      245, 116, 115, -1,
      245, 115, 246, -1,
      246, 115, 120, -1,
      246, 120, 247, -1,
      247, 120, 119, -1,
      247, 119, 248, -1,
      248, 119, 118, -1,
      248, 118, 249, -1,
      249, 118, 50, -1,
      249, 50, 240, -1,
      250, 46, 48, -1,
      250, 48, 251, -1,
      251, 48, 111, -1,
      251, 111, 252, -1,
      252, 111, 110, -1,
      252, 110, 253, -1,
      253, 110, 107, -1,
      253, 107, 254, -1,
      254, 107, 108, -1,
      254, 108, 255, -1,
      255, 108, 109, -1,
      255, 109, 243, -1,
      256, 11, 9, -1,
      256, 9, 257, -1,
      257, 9, 8, -1,
      257, 8, 258, -1,
      258, 8, 6, -1,
      258, 6, 259, -1,
      259, 6, 5, -1,
      259, 5, 260, -1,
      260, 5, 46, -1,
      260, 46, 250, -1,
      261, 68, 67, -1,
      261, 67, 262, -1,
      262, 67, 66, -1,
      262, 66, 263, -1,
      263, 66, 30, -1,
      263, 30, 264, -1,
      264, 30, 29, -1,
      264, 29, 265, -1,
      265, 29, 28, -1,
      265, 28, 266, -1,
      266, 28, 12, -1,
      266, 12, 267, -1,
      267, 12, 11, -1,
      267, 11, 256, -1,
      207, 18, 85, -1,
      207, 85, 268, -1,
      268, 85, 84, -1,
      268, 84, 269, -1,
      269, 84, 68, -1,
      269, 68, 261, -1,
      208, 207, 211, -1,
      211, 207, 268, -1,
      211, 268, 210, -1,
      210, 268, 269, -1,
      210, 269, 209, -1,
      209, 269, 261, -1,
      209, 261, 218, -1,
      218, 261, 262, -1,
      218, 262, 217, -1,
      217, 262, 263, -1,
      217, 263, 216, -1,
      216, 263, 264, -1,
      216, 264, 215, -1,
      215, 264, 265, -1,
      215, 265, 214, -1,
      214, 265, 266, -1,
      214, 266, 213, -1,
      213, 266, 267, -1,
      213, 267, 212, -1,
      212, 267, 256, -1,
      212, 256, 224, -1,
      224, 256, 257, -1,
      224, 257, 223, -1,
      223, 257, 258, -1,
      223, 258, 222, -1,
      222, 258, 259, -1,
      222, 259, 221, -1,
      221, 259, 260, -1,
      221, 260, 220, -1,
      220, 260, 250, -1,
      220, 250, 219, -1,
      219, 250, 251, -1,
      219, 251, 229, -1,
      229, 251, 252, -1,
      229, 252, 228, -1,
      228, 252, 253, -1,
      228, 253, 227, -1,
      227, 253, 254, -1,
      227, 254, 226, -1,
      226, 254, 255, -1,
      226, 255, 225, -1,
      225, 255, 243, -1,
      225, 243, 236, -1,
      236, 243, 244, -1,
      236, 244, 235, -1,
      235, 244, 245, -1,
      235, 245, 234, -1,
      234, 245, 246, -1,
      234, 246, 233, -1,
      233, 246, 247, -1,
      233, 247, 232, -1,
      232, 247, 248, -1,
      232, 248, 231, -1,
      231, 248, 249, -1,
      231, 249, 230, -1,
      230, 249, 240, -1,
      230, 240, 238, -1,
      238, 240, 241, -1,
      238, 241, 237, -1,
      237, 241, 242, -1,
      237, 242, 239, -1,
      270, 271, 1, -1,
      1, 271, 33, -1,
      272, 69, 21, -1,
      272, 21, 273, -1,
      273, 21, 20, -1,
      273, 20, 274, -1,
      274, 20, 19, -1,
      274, 19, 275, -1,
      275, 19, 17, -1,
      275, 17, 276, -1,
      276, 17, 16, -1,
      276, 16, 277, -1,
      277, 16, 31, -1,
      277, 31, 278, -1,
      278, 31, 33, -1,
      278, 33, 271, -1,
      279, 94, 87, -1,
      279, 87, 280, -1,
      280, 87, 86, -1,
      280, 86, 281, -1,
      281, 86, 37, -1,
      281, 37, 282, -1,
      282, 37, 36, -1,
      282, 36, 283, -1,
      283, 36, 35, -1,
      283, 35, 284, -1,
      284, 35, 34, -1,
      284, 34, 285, -1,
      285, 34, 70, -1,
      285, 70, 286, -1,
      286, 70, 69, -1,
      286, 69, 272, -1,
      279, 287, 94, -1,
      94, 287, 93, -1,
      287, 288, 93, -1,
      93, 288, 38, -1,
      288, 289, 38, -1,
      38, 289, 39, -1,
      290, 71, 14, -1,
      290, 14, 291, -1,
      291, 14, 13, -1,
      291, 13, 292, -1,
      292, 13, 51, -1,
      292, 51, 293, -1,
      293, 51, 96, -1,
      293, 96, 294, -1,
      294, 96, 95, -1,
      294, 95, 295, -1,
      295, 95, 41, -1,
      295, 41, 296, -1,
      296, 41, 40, -1,
      296, 40, 297, -1,
      297, 40, 39, -1,
      297, 39, 289, -1,
      298, 15, 73, -1,
      298, 73, 299, -1,
      299, 73, 99, -1,
      299, 99, 300, -1,
      300, 99, 98, -1,
      300, 98, 301, -1,
      301, 98, 97, -1,
      301, 97, 302, -1,
      302, 97, 74, -1,
      302, 74, 303, -1,
      303, 74, 72, -1,
      303, 72, 304, -1,
      304, 72, 71, -1,
      304, 71, 290, -1,
      298, 305, 15, -1,
      15, 305, 0, -1,
      305, 270, 0, -1,
      0, 270, 1, -1,
      289, 288, 287, -1,
      274, 275, 301, -1,
      301, 275, 276, -1,
      301, 276, 300, -1,
      300, 276, 277, -1,
      300, 277, 299, -1,
      299, 277, 278, -1,
      299, 278, 298, -1,
      298, 278, 271, -1,
      298, 271, 305, -1,
      305, 271, 270, -1,
      301, 302, 274, -1,
      274, 302, 303, -1,
      274, 303, 273, -1,
      273, 303, 304, -1,
      273, 304, 272, -1,
      287, 279, 289, -1,
      289, 279, 280, -1,
      289, 280, 297, -1,
      297, 280, 281, -1,
      297, 281, 296, -1,
      296, 281, 282, -1,
      296, 282, 295, -1,
      295, 282, 283, -1,
      295, 283, 294, -1,
      294, 283, 284, -1,
      294, 284, 293, -1,
      293, 284, 285, -1,
      293, 285, 292, -1,
      292, 285, 286, -1,
      292, 286, 291, -1,
      291, 286, 272, -1,
      291, 272, 290, -1,
      290, 272, 304, -1,
    ]
  }
}
